<?xml version="1.0" encoding="utf-8" standalone="no"?>
<!DOCTYPE svg PUBLIC "-//W3C//DTD SVG 1.1//EN"
  "http://www.w3.org/Graphics/SVG/1.1/DTD/svg11.dtd">
<svg xmlns:xlink="http://www.w3.org/1999/xlink" width="460.8pt" height="345.6pt" viewBox="0 0 460.8 345.6" xmlns="http://www.w3.org/2000/svg" version="1.1">
 <metadata>
  <rdf:RDF xmlns:dc="http://purl.org/dc/elements/1.1/" xmlns:cc="http://creativecommons.org/ns#" xmlns:rdf="http://www.w3.org/1999/02/22-rdf-syntax-ns#">
   <cc:Work>
    <dc:type rdf:resource="http://purl.org/dc/dcmitype/StillImage"/>
    <dc:date>2025-05-01T19:45:37.225062</dc:date>
    <dc:format>image/svg+xml</dc:format>
    <dc:creator>
     <cc:Agent>
      <dc:title>Matplotlib v3.10.1, https://matplotlib.org/</dc:title>
     </cc:Agent>
    </dc:creator>
   </cc:Work>
  </rdf:RDF>
 </metadata>
 <defs>
  <style type="text/css">*{stroke-linejoin: round; stroke-linecap: butt}</style>
 </defs>
 <g id="figure_1">
  <g id="patch_1">
   <path d="M 0 345.6 
L 460.8 345.6 
L 460.8 0 
L 0 0 
z
" style="fill: #ffffff"/>
  </g>
  <g id="axes_1">
   <g id="patch_2">
    <path d="M 57.6 307.584 
L 414.72 307.584 
L 414.72 41.472 
L 57.6 41.472 
z
" style="fill: #ffffff"/>
   </g>
   <g id="matplotlib.axis_1">
    <g id="xtick_1">
     <g id="line2d_1">
      <defs>
       <path id="m7095167f68" d="M 0 0 
L 0 3.5 
" style="stroke: #000000; stroke-width: 0.8"/>
      </defs>
      <g>
       <use xlink:href="#m7095167f68" x="70.186159" y="307.584" style="stroke: #000000; stroke-width: 0.8"/>
      </g>
     </g>
     <g id="text_1">
      <!-- 0.5 -->
      <g transform="translate(62.234596 322.182437) scale(0.1 -0.1)">
       <defs>
        <path id="DejaVuSans-30" d="M 2034 4250 
Q 1547 4250 1301 3770 
Q 1056 3291 1056 2328 
Q 1056 1369 1301 889 
Q 1547 409 2034 409 
Q 2525 409 2770 889 
Q 3016 1369 3016 2328 
Q 3016 3291 2770 3770 
Q 2525 4250 2034 4250 
z
M 2034 4750 
Q 2819 4750 3233 4129 
Q 3647 3509 3647 2328 
Q 3647 1150 3233 529 
Q 2819 -91 2034 -91 
Q 1250 -91 836 529 
Q 422 1150 422 2328 
Q 422 3509 836 4129 
Q 1250 4750 2034 4750 
z
" transform="scale(0.015625)"/>
        <path id="DejaVuSans-2e" d="M 684 794 
L 1344 794 
L 1344 0 
L 684 0 
L 684 794 
z
" transform="scale(0.015625)"/>
        <path id="DejaVuSans-35" d="M 691 4666 
L 3169 4666 
L 3169 4134 
L 1269 4134 
L 1269 2991 
Q 1406 3038 1543 3061 
Q 1681 3084 1819 3084 
Q 2600 3084 3056 2656 
Q 3513 2228 3513 1497 
Q 3513 744 3044 326 
Q 2575 -91 1722 -91 
Q 1428 -91 1123 -41 
Q 819 9 494 109 
L 494 744 
Q 775 591 1075 516 
Q 1375 441 1709 441 
Q 2250 441 2565 725 
Q 2881 1009 2881 1497 
Q 2881 1984 2565 2268 
Q 2250 2553 1709 2553 
Q 1456 2553 1204 2497 
Q 953 2441 691 2322 
L 691 4666 
z
" transform="scale(0.015625)"/>
       </defs>
       <use xlink:href="#DejaVuSans-30"/>
       <use xlink:href="#DejaVuSans-2e" transform="translate(63.623047 0)"/>
       <use xlink:href="#DejaVuSans-35" transform="translate(95.410156 0)"/>
      </g>
     </g>
    </g>
    <g id="xtick_2">
     <g id="line2d_2">
      <g>
       <use xlink:href="#m7095167f68" x="115.997321" y="307.584" style="stroke: #000000; stroke-width: 0.8"/>
      </g>
     </g>
     <g id="text_2">
      <!-- 1.0 -->
      <g transform="translate(108.045759 322.182437) scale(0.1 -0.1)">
       <defs>
        <path id="DejaVuSans-31" d="M 794 531 
L 1825 531 
L 1825 4091 
L 703 3866 
L 703 4441 
L 1819 4666 
L 2450 4666 
L 2450 531 
L 3481 531 
L 3481 0 
L 794 0 
L 794 531 
z
" transform="scale(0.015625)"/>
       </defs>
       <use xlink:href="#DejaVuSans-31"/>
       <use xlink:href="#DejaVuSans-2e" transform="translate(63.623047 0)"/>
       <use xlink:href="#DejaVuSans-30" transform="translate(95.410156 0)"/>
      </g>
     </g>
    </g>
    <g id="xtick_3">
     <g id="line2d_3">
      <g>
       <use xlink:href="#m7095167f68" x="161.808483" y="307.584" style="stroke: #000000; stroke-width: 0.8"/>
      </g>
     </g>
     <g id="text_3">
      <!-- 1.5 -->
      <g transform="translate(153.856921 322.182437) scale(0.1 -0.1)">
       <use xlink:href="#DejaVuSans-31"/>
       <use xlink:href="#DejaVuSans-2e" transform="translate(63.623047 0)"/>
       <use xlink:href="#DejaVuSans-35" transform="translate(95.410156 0)"/>
      </g>
     </g>
    </g>
    <g id="xtick_4">
     <g id="line2d_4">
      <g>
       <use xlink:href="#m7095167f68" x="207.619646" y="307.584" style="stroke: #000000; stroke-width: 0.8"/>
      </g>
     </g>
     <g id="text_4">
      <!-- 2.0 -->
      <g transform="translate(199.668083 322.182437) scale(0.1 -0.1)">
       <defs>
        <path id="DejaVuSans-32" d="M 1228 531 
L 3431 531 
L 3431 0 
L 469 0 
L 469 531 
Q 828 903 1448 1529 
Q 2069 2156 2228 2338 
Q 2531 2678 2651 2914 
Q 2772 3150 2772 3378 
Q 2772 3750 2511 3984 
Q 2250 4219 1831 4219 
Q 1534 4219 1204 4116 
Q 875 4013 500 3803 
L 500 4441 
Q 881 4594 1212 4672 
Q 1544 4750 1819 4750 
Q 2544 4750 2975 4387 
Q 3406 4025 3406 3419 
Q 3406 3131 3298 2873 
Q 3191 2616 2906 2266 
Q 2828 2175 2409 1742 
Q 1991 1309 1228 531 
z
" transform="scale(0.015625)"/>
       </defs>
       <use xlink:href="#DejaVuSans-32"/>
       <use xlink:href="#DejaVuSans-2e" transform="translate(63.623047 0)"/>
       <use xlink:href="#DejaVuSans-30" transform="translate(95.410156 0)"/>
      </g>
     </g>
    </g>
    <g id="xtick_5">
     <g id="line2d_5">
      <g>
       <use xlink:href="#m7095167f68" x="253.430808" y="307.584" style="stroke: #000000; stroke-width: 0.8"/>
      </g>
     </g>
     <g id="text_5">
      <!-- 2.5 -->
      <g transform="translate(245.479246 322.182437) scale(0.1 -0.1)">
       <use xlink:href="#DejaVuSans-32"/>
       <use xlink:href="#DejaVuSans-2e" transform="translate(63.623047 0)"/>
       <use xlink:href="#DejaVuSans-35" transform="translate(95.410156 0)"/>
      </g>
     </g>
    </g>
    <g id="xtick_6">
     <g id="line2d_6">
      <g>
       <use xlink:href="#m7095167f68" x="299.241971" y="307.584" style="stroke: #000000; stroke-width: 0.8"/>
      </g>
     </g>
     <g id="text_6">
      <!-- 3.0 -->
      <g transform="translate(291.290408 322.182437) scale(0.1 -0.1)">
       <defs>
        <path id="DejaVuSans-33" d="M 2597 2516 
Q 3050 2419 3304 2112 
Q 3559 1806 3559 1356 
Q 3559 666 3084 287 
Q 2609 -91 1734 -91 
Q 1441 -91 1130 -33 
Q 819 25 488 141 
L 488 750 
Q 750 597 1062 519 
Q 1375 441 1716 441 
Q 2309 441 2620 675 
Q 2931 909 2931 1356 
Q 2931 1769 2642 2001 
Q 2353 2234 1838 2234 
L 1294 2234 
L 1294 2753 
L 1863 2753 
Q 2328 2753 2575 2939 
Q 2822 3125 2822 3475 
Q 2822 3834 2567 4026 
Q 2313 4219 1838 4219 
Q 1578 4219 1281 4162 
Q 984 4106 628 3988 
L 628 4550 
Q 988 4650 1302 4700 
Q 1616 4750 1894 4750 
Q 2613 4750 3031 4423 
Q 3450 4097 3450 3541 
Q 3450 3153 3228 2886 
Q 3006 2619 2597 2516 
z
" transform="scale(0.015625)"/>
       </defs>
       <use xlink:href="#DejaVuSans-33"/>
       <use xlink:href="#DejaVuSans-2e" transform="translate(63.623047 0)"/>
       <use xlink:href="#DejaVuSans-30" transform="translate(95.410156 0)"/>
      </g>
     </g>
    </g>
    <g id="xtick_7">
     <g id="line2d_7">
      <g>
       <use xlink:href="#m7095167f68" x="345.053133" y="307.584" style="stroke: #000000; stroke-width: 0.8"/>
      </g>
     </g>
     <g id="text_7">
      <!-- 3.5 -->
      <g transform="translate(337.10157 322.182437) scale(0.1 -0.1)">
       <use xlink:href="#DejaVuSans-33"/>
       <use xlink:href="#DejaVuSans-2e" transform="translate(63.623047 0)"/>
       <use xlink:href="#DejaVuSans-35" transform="translate(95.410156 0)"/>
      </g>
     </g>
    </g>
    <g id="xtick_8">
     <g id="line2d_8">
      <g>
       <use xlink:href="#m7095167f68" x="390.864295" y="307.584" style="stroke: #000000; stroke-width: 0.8"/>
      </g>
     </g>
     <g id="text_8">
      <!-- 4.0 -->
      <g transform="translate(382.912733 322.182437) scale(0.1 -0.1)">
       <defs>
        <path id="DejaVuSans-34" d="M 2419 4116 
L 825 1625 
L 2419 1625 
L 2419 4116 
z
M 2253 4666 
L 3047 4666 
L 3047 1625 
L 3713 1625 
L 3713 1100 
L 3047 1100 
L 3047 0 
L 2419 0 
L 2419 1100 
L 313 1100 
L 313 1709 
L 2253 4666 
z
" transform="scale(0.015625)"/>
       </defs>
       <use xlink:href="#DejaVuSans-34"/>
       <use xlink:href="#DejaVuSans-2e" transform="translate(63.623047 0)"/>
       <use xlink:href="#DejaVuSans-30" transform="translate(95.410156 0)"/>
      </g>
     </g>
    </g>
   </g>
   <g id="matplotlib.axis_2">
    <g id="ytick_1">
     <g id="line2d_9">
      <defs>
       <path id="mac3e9974b3" d="M 0 0 
L -3.5 0 
" style="stroke: #000000; stroke-width: 0.8"/>
      </defs>
      <g>
       <use xlink:href="#mac3e9974b3" x="57.6" y="297.982021" style="stroke: #000000; stroke-width: 0.8"/>
      </g>
     </g>
     <g id="text_9">
      <!-- 0 -->
      <g transform="translate(44.2375 301.781239) scale(0.1 -0.1)">
       <use xlink:href="#DejaVuSans-30"/>
      </g>
     </g>
    </g>
    <g id="ytick_2">
     <g id="line2d_10">
      <g>
       <use xlink:href="#mac3e9974b3" x="57.6" y="248.101608" style="stroke: #000000; stroke-width: 0.8"/>
      </g>
     </g>
     <g id="text_10">
      <!-- 20 -->
      <g transform="translate(37.875 251.900827) scale(0.1 -0.1)">
       <use xlink:href="#DejaVuSans-32"/>
       <use xlink:href="#DejaVuSans-30" transform="translate(63.623047 0)"/>
      </g>
     </g>
    </g>
    <g id="ytick_3">
     <g id="line2d_11">
      <g>
       <use xlink:href="#mac3e9974b3" x="57.6" y="198.221196" style="stroke: #000000; stroke-width: 0.8"/>
      </g>
     </g>
     <g id="text_11">
      <!-- 40 -->
      <g transform="translate(37.875 202.020415) scale(0.1 -0.1)">
       <use xlink:href="#DejaVuSans-34"/>
       <use xlink:href="#DejaVuSans-30" transform="translate(63.623047 0)"/>
      </g>
     </g>
    </g>
    <g id="ytick_4">
     <g id="line2d_12">
      <g>
       <use xlink:href="#mac3e9974b3" x="57.6" y="148.340784" style="stroke: #000000; stroke-width: 0.8"/>
      </g>
     </g>
     <g id="text_12">
      <!-- 60 -->
      <g transform="translate(37.875 152.140002) scale(0.1 -0.1)">
       <defs>
        <path id="DejaVuSans-36" d="M 2113 2584 
Q 1688 2584 1439 2293 
Q 1191 2003 1191 1497 
Q 1191 994 1439 701 
Q 1688 409 2113 409 
Q 2538 409 2786 701 
Q 3034 994 3034 1497 
Q 3034 2003 2786 2293 
Q 2538 2584 2113 2584 
z
M 3366 4563 
L 3366 3988 
Q 3128 4100 2886 4159 
Q 2644 4219 2406 4219 
Q 1781 4219 1451 3797 
Q 1122 3375 1075 2522 
Q 1259 2794 1537 2939 
Q 1816 3084 2150 3084 
Q 2853 3084 3261 2657 
Q 3669 2231 3669 1497 
Q 3669 778 3244 343 
Q 2819 -91 2113 -91 
Q 1303 -91 875 529 
Q 447 1150 447 2328 
Q 447 3434 972 4092 
Q 1497 4750 2381 4750 
Q 2619 4750 2861 4703 
Q 3103 4656 3366 4563 
z
" transform="scale(0.015625)"/>
       </defs>
       <use xlink:href="#DejaVuSans-36"/>
       <use xlink:href="#DejaVuSans-30" transform="translate(63.623047 0)"/>
      </g>
     </g>
    </g>
    <g id="ytick_5">
     <g id="line2d_13">
      <g>
       <use xlink:href="#mac3e9974b3" x="57.6" y="98.460371" style="stroke: #000000; stroke-width: 0.8"/>
      </g>
     </g>
     <g id="text_13">
      <!-- 80 -->
      <g transform="translate(37.875 102.25959) scale(0.1 -0.1)">
       <defs>
        <path id="DejaVuSans-38" d="M 2034 2216 
Q 1584 2216 1326 1975 
Q 1069 1734 1069 1313 
Q 1069 891 1326 650 
Q 1584 409 2034 409 
Q 2484 409 2743 651 
Q 3003 894 3003 1313 
Q 3003 1734 2745 1975 
Q 2488 2216 2034 2216 
z
M 1403 2484 
Q 997 2584 770 2862 
Q 544 3141 544 3541 
Q 544 4100 942 4425 
Q 1341 4750 2034 4750 
Q 2731 4750 3128 4425 
Q 3525 4100 3525 3541 
Q 3525 3141 3298 2862 
Q 3072 2584 2669 2484 
Q 3125 2378 3379 2068 
Q 3634 1759 3634 1313 
Q 3634 634 3220 271 
Q 2806 -91 2034 -91 
Q 1263 -91 848 271 
Q 434 634 434 1313 
Q 434 1759 690 2068 
Q 947 2378 1403 2484 
z
M 1172 3481 
Q 1172 3119 1398 2916 
Q 1625 2713 2034 2713 
Q 2441 2713 2670 2916 
Q 2900 3119 2900 3481 
Q 2900 3844 2670 4047 
Q 2441 4250 2034 4250 
Q 1625 4250 1398 4047 
Q 1172 3844 1172 3481 
z
" transform="scale(0.015625)"/>
       </defs>
       <use xlink:href="#DejaVuSans-38"/>
       <use xlink:href="#DejaVuSans-30" transform="translate(63.623047 0)"/>
      </g>
     </g>
    </g>
    <g id="ytick_6">
     <g id="line2d_14">
      <g>
       <use xlink:href="#mac3e9974b3" x="57.6" y="48.579959" style="stroke: #000000; stroke-width: 0.8"/>
      </g>
     </g>
     <g id="text_14">
      <!-- 100 -->
      <g transform="translate(31.5125 52.379178) scale(0.1 -0.1)">
       <use xlink:href="#DejaVuSans-31"/>
       <use xlink:href="#DejaVuSans-30" transform="translate(63.623047 0)"/>
       <use xlink:href="#DejaVuSans-30" transform="translate(127.246094 0)"/>
      </g>
     </g>
    </g>
   </g>
   <g id="line2d_15">
    <path d="M 75.023817 295.488 
L 87.777645 295.488 
L 87.777645 290.499959 
L 96.206899 290.499959 
L 96.206899 285.511918 
L 96.536739 285.511918 
L 96.536739 280.523876 
L 97.324691 280.523876 
L 97.397989 275.535835 
L 98.002697 275.535835 
L 98.002697 273.041814 
L 103.426738 273.041814 
L 103.426738 270.547794 
L 103.756579 270.547794 
L 103.811552 263.065732 
L 105.643998 263.065732 
L 105.753945 255.58367 
L 105.863892 255.58367 
L 105.863892 253.089649 
L 106.065461 253.089649 
L 106.157083 245.607588 
L 106.248706 245.607588 
L 106.248706 243.113567 
L 106.450275 243.113567 
L 106.505248 238.125526 
L 106.725142 238.125526 
L 106.725142 235.631505 
L 106.926711 235.631505 
L 107.036658 230.643464 
L 107.12828 230.643464 
L 107.146605 225.655423 
L 107.897908 225.655423 
L 107.98953 220.667381 
L 108.081152 220.667381 
L 108.081152 218.173361 
L 108.447642 218.173361 
L 108.557588 213.18532 
L 108.575913 213.18532 
L 108.575913 208.197278 
L 110.390035 208.197278 
L 110.390035 205.703258 
L 110.536631 205.703258 
L 110.609928 195.727175 
L 110.7382 195.727175 
L 110.848146 188.245113 
L 110.976418 188.245113 
L 111.06804 183.257072 
L 111.361231 183.257072 
L 111.471178 173.28099 
L 112.130859 173.28099 
L 112.130859 170.786969 
L 115.924023 170.786969 
L 115.997321 165.798928 
L 116.070619 165.798928 
L 116.107268 160.810887 
L 117.518252 160.810887 
L 117.518252 158.316866 
L 121.769528 158.316866 
L 121.769528 155.822845 
L 121.897799 155.822845 
L 121.897799 150.834804 
L 122.044395 150.834804 
L 122.136017 140.858722 
L 122.282613 140.858722 
L 122.282613 138.364701 
L 124.994633 138.364701 
L 124.994633 135.87068 
L 125.581016 135.87068 
L 125.581016 133.37666 
L 126.057452 133.37666 
L 126.112426 128.388619 
L 126.313995 128.388619 
L 126.313995 125.894598 
L 130.546946 125.894598 
L 130.60192 118.412536 
L 130.803489 118.412536 
L 130.803489 115.918515 
L 131.206627 115.918515 
L 131.316574 108.436454 
L 131.481494 108.436454 
L 131.554792 100.954392 
L 131.609765 100.954392 
L 131.719712 93.47233 
L 131.756361 93.47233 
L 131.756361 90.978309 
L 132.159499 90.978309 
L 132.159499 88.484289 
L 132.910802 88.484289 
L 132.9841 83.496247 
L 147.332156 83.496247 
L 147.332156 81.002227 
L 147.71697 81.002227 
L 147.71697 78.508206 
L 147.900215 78.508206 
L 147.918539 73.520165 
L 246.467512 73.520165 
L 246.467512 71.026144 
L 247.347086 71.026144 
L 247.347086 68.532124 
L 247.566979 68.532124 
L 247.566979 66.038103 
L 328.817657 66.038103 
L 328.817657 63.544082 
L 388.482115 63.544082 
L 388.482115 61.050062 
L 388.793631 61.050062 
L 388.793631 58.556041 
L 397.809268 58.556041 
L 397.809268 56.062021 
L 398.487273 56.062021 
L 398.487273 53.568 
L 398.487273 53.568 
" clip-path="url(#p2dbe5c7c94)" style="fill: none; stroke: #1f77b4; stroke-width: 1.5; stroke-linecap: square"/>
   </g>
   <g id="line2d_16">
    <path d="M 73.832727 295.488 
L 83.617992 295.488 
L 83.617992 292.993979 
L 83.801236 292.993979 
L 83.85621 283.017897 
L 84.277672 283.017897 
L 84.35097 278.029856 
L 84.405944 278.029856 
L 84.405944 275.535835 
L 85.120598 275.535835 
L 85.138922 270.547794 
L 85.395465 270.547794 
L 85.450438 265.559753 
L 85.560385 265.559753 
L 85.615358 258.077691 
L 85.816927 258.077691 
L 85.816927 255.58367 
L 86.018496 255.58367 
L 86.091794 250.595629 
L 86.165092 250.595629 
L 86.165092 248.101608 
L 86.293363 248.101608 
L 86.311688 243.113567 
L 86.476608 243.113567 
L 86.513257 235.631505 
L 86.696502 235.631505 
L 86.7698 228.149443 
L 87.136289 228.149443 
L 87.136289 225.655423 
L 87.301209 225.655423 
L 87.301209 223.161402 
L 87.484454 223.161402 
L 87.484454 220.667381 
L 87.612725 220.667381 
L 87.722672 215.67934 
L 92.743575 215.67934 
L 92.853522 210.691299 
L 92.890171 210.691299 
L 92.890171 208.197278 
L 93.073415 208.197278 
L 93.073415 205.703258 
L 93.274985 205.703258 
L 93.274985 203.209237 
L 93.458229 203.209237 
L 93.494878 198.221196 
L 94.319479 198.221196 
L 94.392777 190.739134 
L 97.0315 190.739134 
L 97.0315 188.245113 
L 98.717351 188.245113 
L 98.717351 185.751093 
L 103.88485 185.751093 
L 103.88485 183.257072 
L 106.43195 183.257072 
L 106.43195 180.763052 
L 106.871738 180.763052 
L 106.981684 175.77501 
L 107.036658 175.77501 
L 107.036658 173.28099 
L 111.324583 173.28099 
L 111.379556 168.292948 
L 117.994688 168.292948 
L 117.994688 163.304907 
L 118.397826 163.304907 
L 118.41615 158.316866 
L 118.94756 158.316866 
L 118.94756 155.822845 
L 120.376868 155.822845 
L 120.486815 150.834804 
L 125.416096 150.834804 
L 125.434421 145.846763 
L 136.374126 145.846763 
L 136.4291 140.858722 
L 136.685642 140.858722 
L 136.777264 135.87068 
L 139.14112 135.87068 
L 139.14112 130.882639 
L 139.361014 130.882639 
L 139.470961 125.894598 
L 148.285028 125.894598 
L 148.285028 120.906557 
L 153.928964 120.906557 
L 153.928964 115.918515 
L 154.057235 115.918515 
L 154.057235 110.930474 
L 154.698591 110.930474 
L 154.753564 100.954392 
L 155.706437 100.954392 
L 155.706437 95.966351 
L 155.92633 95.966351 
L 155.92633 93.47233 
L 156.09125 93.47233 
L 156.09125 90.978309 
L 156.714282 90.978309 
L 156.714282 85.990268 
L 157.190718 85.990268 
L 157.190718 83.496247 
L 157.337314 83.496247 
L 157.337314 81.002227 
L 160.3975 81.002227 
L 160.434149 73.520165 
L 221.619537 73.520165 
L 221.619537 71.026144 
L 235.637753 71.026144 
L 235.637753 66.038103 
L 282.530059 66.038103 
L 282.530059 63.544082 
L 330.540157 63.544082 
L 330.540157 61.050062 
L 347.325367 61.050062 
L 347.325367 58.556041 
L 355.681323 58.556041 
L 355.681323 56.062021 
L 357.073982 56.062021 
L 357.073982 53.568 
L 357.073982 53.568 
" clip-path="url(#p2dbe5c7c94)" style="fill: none; stroke: #ff7f0e; stroke-width: 1.5; stroke-linecap: square"/>
   </g>
   <g id="line2d_17">
    <path d="M 97.819452 295.488 
L 108.246072 295.488 
L 108.246072 292.993979 
L 108.575913 292.993979 
L 108.575913 290.499959 
L 108.722509 290.499959 
L 108.722509 288.005938 
L 108.85078 288.005938 
L 108.960727 280.523876 
L 109.0157 280.523876 
L 109.125647 270.547794 
L 109.143971 270.547794 
L 109.217269 260.571711 
L 109.308891 260.571711 
L 109.327216 255.58367 
L 110.115168 255.58367 
L 110.225115 250.595629 
L 110.554955 250.595629 
L 110.554955 248.101608 
L 111.416205 248.101608 
L 111.416205 245.607588 
L 111.837668 245.607588 
L 111.837668 243.113567 
L 112.698917 243.113567 
L 112.698917 240.619546 
L 112.900487 240.619546 
L 112.900487 238.125526 
L 113.81671 238.125526 
L 113.81671 235.631505 
L 113.98163 235.631505 
L 113.98163 233.137485 
L 114.256497 233.137485 
L 114.256497 230.643464 
L 114.421417 230.643464 
L 114.421417 228.149443 
L 114.67796 228.149443 
L 114.787906 198.221196 
L 114.806231 198.221196 
L 114.861204 178.269031 
L 114.952827 178.269031 
L 114.952827 173.28099 
L 115.191045 173.28099 
L 115.282667 168.292948 
L 115.832401 168.292948 
L 115.887374 163.304907 
L 115.997321 163.304907 
L 116.03397 153.328825 
L 116.217215 153.328825 
L 116.217215 150.834804 
L 116.528731 150.834804 
L 116.638677 145.846763 
L 116.876895 145.846763 
L 116.876895 143.352742 
L 118.287879 143.352742 
L 118.287879 140.858722 
L 118.452799 140.858722 
L 118.489448 135.87068 
L 118.691017 135.87068 
L 118.691017 133.37666 
L 118.874262 133.37666 
L 118.874262 125.894598 
L 119.075831 125.894598 
L 119.185778 115.918515 
L 119.790485 115.918515 
L 119.900432 83.496247 
L 119.97373 83.496247 
L 119.97373 81.002227 
L 120.908278 81.002227 
L 120.908278 78.508206 
L 121.036549 78.508206 
L 121.036549 76.014186 
L 121.16482 76.014186 
L 121.16482 73.520165 
L 293.396466 73.520165 
L 293.396466 71.026144 
L 294.349338 71.026144 
L 294.349338 68.532124 
L 295.412157 68.532124 
L 295.412157 66.038103 
L 298.399045 66.038103 
L 298.399045 63.544082 
L 299.498513 63.544082 
L 299.498513 61.050062 
L 300.268141 61.050062 
L 300.268141 58.556041 
L 302.503725 58.556041 
L 302.503725 56.062021 
L 304.629363 56.062021 
L 304.629363 53.568 
L 304.629363 53.568 
" clip-path="url(#p2dbe5c7c94)" style="fill: none; stroke: #2ca02c; stroke-width: 1.5; stroke-linecap: square"/>
   </g>
   <g id="line2d_18">
    <path d="M 98.021021 295.488 
L 99.670223 295.488 
L 99.670223 292.993979 
L 101.117856 292.993979 
L 101.117856 290.499959 
L 101.282776 290.499959 
L 101.392723 285.511918 
L 101.46602 285.511918 
L 101.575967 275.535835 
L 101.594292 275.535835 
L 101.630941 270.547794 
L 101.722563 270.547794 
L 101.740887 260.571711 
L 101.979105 260.571711 
L 101.979105 258.077691 
L 102.198999 258.077691 
L 102.198999 255.58367 
L 102.418893 255.58367 
L 102.418893 253.089649 
L 102.547164 253.089649 
L 102.547164 250.595629 
L 102.877004 250.595629 
L 102.877004 248.101608 
L 103.060249 248.101608 
L 103.060249 245.607588 
L 103.316791 245.607588 
L 103.390089 240.619546 
L 103.829876 240.619546 
L 103.829876 238.125526 
L 107.45812 238.125526 
L 107.45812 235.631505 
L 107.769636 235.631505 
L 107.806285 230.643464 
L 108.392668 230.643464 
L 108.447642 220.667381 
L 108.520939 220.667381 
L 108.630886 203.209237 
L 108.649211 203.209237 
L 108.740833 173.28099 
L 109.730354 173.28099 
L 109.840301 168.292948 
L 109.950248 168.292948 
L 109.950248 165.798928 
L 110.188466 165.798928 
L 110.188466 163.304907 
L 113.340274 163.304907 
L 113.340274 160.810887 
L 117.793119 160.810887 
L 117.793119 158.316866 
L 119.80881 158.316866 
L 119.863783 145.846763 
L 120.083677 145.846763 
L 120.193624 135.87068 
L 120.230273 135.87068 
L 120.266921 125.894598 
L 121.219794 125.894598 
L 121.256443 118.412536 
L 121.439687 118.412536 
L 121.476336 108.436454 
L 121.586283 108.436454 
L 121.69623 93.47233 
L 149.091305 93.47233 
L 149.182927 78.508206 
L 149.292874 78.508206 
L 149.366172 73.520165 
L 303.658167 73.520165 
L 303.658167 71.026144 
L 303.933034 71.026144 
L 303.933034 68.532124 
L 304.097954 68.532124 
L 304.097954 66.038103 
L 309.760213 66.038103 
L 309.760213 63.544082 
L 311.904176 63.544082 
L 311.904176 61.050062 
L 312.197367 61.050062 
L 312.197367 58.556041 
L 317.58476 58.556041 
L 317.58476 56.062021 
L 318.665903 56.062021 
L 318.665903 53.568 
L 318.665903 53.568 
" clip-path="url(#p2dbe5c7c94)" style="fill: none; stroke: #d62728; stroke-width: 1.5; stroke-linecap: square"/>
   </g>
   <g id="line2d_19">
    <path d="M 95.895383 295.488 
L 102.455542 295.488 
L 102.455542 292.993979 
L 102.712084 292.993979 
L 102.712084 290.499959 
L 103.390089 290.499959 
L 103.390089 288.005938 
L 103.51836 288.005938 
L 103.609983 283.017897 
L 103.646632 283.017897 
L 103.71993 273.041814 
L 103.829876 273.041814 
L 103.848201 265.559753 
L 104.178041 265.559753 
L 104.178041 263.065732 
L 104.416259 263.065732 
L 104.416259 260.571711 
L 104.562855 260.571711 
L 104.562855 258.077691 
L 104.727775 258.077691 
L 104.727775 255.58367 
L 105.204211 255.58367 
L 105.314158 250.595629 
L 105.93719 250.595629 
L 105.992163 245.607588 
L 106.120435 245.607588 
L 106.230381 240.619546 
L 106.670168 240.619546 
L 106.743466 235.631505 
L 106.908387 235.631505 
L 106.981684 230.643464 
L 107.219902 230.643464 
L 107.329849 198.221196 
L 107.348174 198.221196 
L 107.348174 190.739134 
L 107.531418 190.739134 
L 107.531418 185.751093 
L 107.971205 185.751093 
L 107.971205 183.257072 
L 108.099477 183.257072 
L 108.099477 180.763052 
L 108.246072 180.763052 
L 108.246072 178.269031 
L 109.34554 178.269031 
L 109.34554 175.77501 
L 109.638732 175.77501 
L 109.71203 170.786969 
L 109.803652 170.786969 
L 109.895274 165.798928 
L 109.931923 165.798928 
L 109.931923 160.810887 
L 110.554955 160.810887 
L 110.554955 155.822845 
L 110.701551 155.822845 
L 110.701551 150.834804 
L 110.884795 150.834804 
L 110.921444 145.846763 
L 111.013067 145.846763 
L 111.013067 143.352742 
L 111.947614 143.352742 
L 112.020912 138.364701 
L 112.075886 138.364701 
L 112.185832 110.930474 
L 112.204157 110.930474 
L 112.25913 81.002227 
L 112.332428 81.002227 
L 112.42405 73.520165 
L 293.45144 73.520165 
L 293.45144 71.026144 
L 293.671333 71.026144 
L 293.671333 68.532124 
L 294.495934 68.532124 
L 294.495934 66.038103 
L 304.849257 66.038103 
L 304.849257 63.544082 
L 307.6529 63.544082 
L 307.6529 61.050062 
L 307.891118 61.050062 
L 307.891118 58.556041 
L 314.707819 58.556041 
L 314.707819 56.062021 
L 316.02718 56.062021 
L 316.02718 53.568 
L 316.02718 53.568 
" clip-path="url(#p2dbe5c7c94)" style="fill: none; stroke: #9467bd; stroke-width: 1.5; stroke-linecap: square"/>
   </g>
   <g id="line2d_20">
    <path d="M 103.316791 295.488 
L 120.211948 295.488 
L 120.211948 292.993979 
L 120.816655 292.993979 
L 120.816655 290.499959 
L 121.366389 290.499959 
L 121.366389 288.005938 
L 122.667426 288.005938 
L 122.667426 285.511918 
L 122.850671 285.511918 
L 122.923969 280.523876 
L 123.033916 280.523876 
L 123.143862 275.535835 
L 123.272134 275.535835 
L 123.38208 255.58367 
L 123.437054 255.58367 
L 123.437054 253.089649 
L 124.866362 253.089649 
L 124.866362 250.595629 
L 125.214527 250.595629 
L 125.214527 248.101608 
L 125.910857 248.101608 
L 125.910857 245.607588 
L 126.112426 245.607588 
L 126.112426 243.113567 
L 126.918702 243.113567 
L 126.918702 240.619546 
L 127.303516 240.619546 
L 127.303516 238.125526 
L 127.431787 238.125526 
L 127.52341 233.137485 
L 127.779952 233.137485 
L 127.816601 225.655423 
L 127.926548 225.655423 
L 127.926548 223.161402 
L 128.293037 223.161402 
L 128.293037 220.667381 
L 128.604553 220.667381 
L 128.604553 218.173361 
L 130.528622 218.173361 
L 130.638569 213.18532 
L 130.986733 213.18532 
L 131.09668 203.209237 
L 131.115005 203.209237 
L 131.224951 168.292948 
L 131.243276 168.292948 
L 131.243276 163.304907 
L 132.177824 163.304907 
L 132.177824 160.810887 
L 132.306095 160.810887 
L 132.416042 153.328825 
L 132.48934 153.328825 
L 132.48934 150.834804 
L 132.709233 150.834804 
L 132.709233 148.340784 
L 133.057398 148.340784 
L 133.112371 143.352742 
L 133.203994 143.352742 
L 133.277292 138.364701 
L 133.368914 138.364701 
L 133.478861 93.47233 
L 133.497185 93.47233 
L 133.570483 81.002227 
L 133.643781 81.002227 
L 133.68043 76.014186 
L 133.863674 76.014186 
L 133.863674 73.520165 
L 264.84695 73.520165 
L 264.84695 71.026144 
L 265.085168 71.026144 
L 265.085168 68.532124 
L 265.323386 68.532124 
L 265.323386 66.038103 
L 268.914981 66.038103 
L 268.914981 63.544082 
L 272.341656 63.544082 
L 272.341656 61.050062 
L 273.441124 61.050062 
L 273.441124 58.556041 
L 276.922772 58.556041 
L 276.922772 56.062021 
L 278.132187 56.062021 
L 278.132187 53.568 
L 278.132187 53.568 
" clip-path="url(#p2dbe5c7c94)" style="fill: none; stroke: #8c564b; stroke-width: 1.5; stroke-linecap: square"/>
   </g>
   <g id="line2d_21">
    <path d="M 99.541952 295.488 
L 111.489503 295.488 
L 111.489503 292.993979 
L 111.636098 292.993979 
L 111.636098 290.499959 
L 112.075886 290.499959 
L 112.130859 285.511918 
L 112.204157 285.511918 
L 112.295779 275.535835 
L 112.387402 275.535835 
L 112.442375 260.571711 
L 112.753891 260.571711 
L 112.808864 255.58367 
L 112.882162 255.58367 
L 112.882162 253.089649 
L 113.083731 253.089649 
L 113.083731 250.595629 
L 114.366444 250.595629 
L 114.366444 248.101608 
L 114.861204 248.101608 
L 114.861204 245.607588 
L 115.227694 245.607588 
L 115.227694 243.113567 
L 115.539209 243.113567 
L 115.539209 240.619546 
L 115.887374 240.619546 
L 115.887374 238.125526 
L 116.143917 238.125526 
L 116.143917 235.631505 
L 117.023491 235.631505 
L 117.133438 225.655423 
L 117.170087 225.655423 
L 117.280034 185.751093 
L 117.298358 185.751093 
L 117.298358 183.257072 
L 117.426629 183.257072 
L 117.426629 175.77501 
L 117.683172 175.77501 
L 117.738145 170.786969 
L 118.141284 170.786969 
L 118.177932 165.798928 
L 118.41615 165.798928 
L 118.41615 163.304907 
L 118.94756 163.304907 
L 118.94756 160.810887 
L 119.11248 160.810887 
L 119.11248 158.316866 
L 119.350698 158.316866 
L 119.350698 155.822845 
L 120.13865 155.822845 
L 120.230273 150.834804 
L 120.266921 150.834804 
L 120.266921 148.340784 
L 120.523464 148.340784 
L 120.633411 138.364701 
L 120.706709 138.364701 
L 120.816655 81.002227 
L 120.908278 81.002227 
L 120.908278 78.508206 
L 121.458012 78.508206 
L 121.53131 73.520165 
L 294.257716 73.520165 
L 294.257716 71.026144 
L 294.514259 71.026144 
L 294.514259 68.532124 
L 294.64253 68.532124 
L 294.64253 66.038103 
L 299.07705 66.038103 
L 299.07705 63.544082 
L 301.092742 63.544082 
L 301.092742 61.050062 
L 306.223592 61.050062 
L 306.223592 58.556041 
L 314.946037 58.556041 
L 314.946037 56.062021 
L 318.097845 56.062021 
L 318.097845 53.568 
L 318.097845 53.568 
" clip-path="url(#p2dbe5c7c94)" style="fill: none; stroke: #e377c2; stroke-width: 1.5; stroke-linecap: square"/>
   </g>
   <g id="line2d_22">
    <path d="M 105.277509 295.488 
L 115.685805 295.488 
L 115.759103 290.499959 
L 115.997321 290.499959 
L 116.088943 285.511918 
L 116.19889 285.511918 
L 116.308837 278.029856 
L 116.418784 278.029856 
L 116.473757 273.041814 
L 116.547055 273.041814 
L 116.638677 265.559753 
L 116.693651 265.559753 
L 116.693651 263.065732 
L 116.876895 263.065732 
L 116.876895 260.571711 
L 117.06014 260.571711 
L 117.151762 255.58367 
L 117.335007 255.58367 
L 117.353332 248.101608 
L 118.544422 248.101608 
L 118.544422 245.607588 
L 118.672693 245.607588 
L 118.672693 243.113567 
L 118.874262 243.113567 
L 118.874262 240.619546 
L 119.11248 240.619546 
L 119.11248 238.125526 
L 119.460645 238.125526 
L 119.570592 230.643464 
L 119.625565 230.643464 
L 119.625565 228.149443 
L 120.560113 228.149443 
L 120.633411 205.703258 
L 120.725033 205.703258 
L 120.725033 200.715216 
L 121.238118 200.715216 
L 121.293091 195.727175 
L 121.384714 195.727175 
L 121.458012 190.739134 
L 121.604607 190.739134 
L 121.641256 178.269031 
L 121.842825 178.269031 
L 121.916123 173.28099 
L 121.989421 173.28099 
L 121.989421 170.786969 
L 122.136017 170.786969 
L 122.209315 165.798928 
L 122.337586 165.798928 
L 122.35591 160.810887 
L 123.05224 160.810887 
L 123.05224 158.316866 
L 123.547001 158.316866 
L 123.638623 153.328825 
L 123.730245 153.328825 
L 123.730245 150.834804 
L 123.895166 150.834804 
L 124.005112 128.388619 
L 124.041761 128.388619 
L 124.151708 93.47233 
L 124.170032 93.47233 
L 124.279979 78.508206 
L 124.371602 78.508206 
L 124.426575 73.520165 
L 282.768277 73.520165 
L 282.768277 71.026144 
L 285.113808 71.026144 
L 285.113808 68.532124 
L 287.935776 68.532124 
L 287.935776 66.038103 
L 292.718461 66.038103 
L 292.718461 63.544082 
L 293.469764 63.544082 
L 293.469764 61.050062 
L 301.459231 61.050062 
L 301.459231 58.556041 
L 303.566544 58.556041 
L 303.566544 56.062021 
L 304.006331 56.062021 
L 304.006331 53.568 
L 304.006331 53.568 
" clip-path="url(#p2dbe5c7c94)" style="fill: none; stroke: #7f7f7f; stroke-width: 1.5; stroke-linecap: square"/>
   </g>
   <g id="line2d_23">
    <path d="M 111.23296 295.488 
L 113.633465 295.488 
L 113.633465 292.993979 
L 113.835034 292.993979 
L 113.835034 290.499959 
L 114.054928 290.499959 
L 114.164875 285.511918 
L 114.219848 285.511918 
L 114.329795 275.535835 
L 114.348119 275.535835 
L 114.439742 250.595629 
L 114.568013 250.595629 
L 114.641311 243.113567 
L 114.732933 243.113567 
L 114.732933 240.619546 
L 115.612507 240.619546 
L 115.722454 190.739134 
L 115.759103 190.739134 
L 115.850725 170.786969 
L 115.997321 170.786969 
L 116.107268 163.304907 
L 116.143917 163.304907 
L 116.253864 145.846763 
L 116.345486 145.846763 
L 116.345486 143.352742 
L 116.657002 143.352742 
L 116.711975 135.87068 
L 117.738145 135.87068 
L 117.848092 120.906557 
L 117.866417 120.906557 
L 117.939714 115.918515 
L 118.269555 115.918515 
L 118.269555 113.424495 
L 147.955188 113.424495 
L 147.955188 110.930474 
L 149.036331 110.930474 
L 149.036331 108.436454 
L 149.311198 108.436454 
L 149.311198 105.942433 
L 149.76931 105.942433 
L 149.860932 85.990268 
L 150.007528 85.990268 
L 150.007528 83.496247 
L 150.905427 83.496247 
L 150.905427 81.002227 
L 151.033698 81.002227 
L 151.033698 78.508206 
L 151.180294 78.508206 
L 151.180294 76.014186 
L 151.345214 76.014186 
L 151.345214 73.520165 
L 310.987953 73.520165 
L 310.987953 71.026144 
L 311.391091 71.026144 
L 311.391091 68.532124 
L 318.372712 68.532124 
L 318.372712 66.038103 
L 324.529732 66.038103 
L 324.529732 63.544082 
L 325.867418 63.544082 
L 325.867418 61.050062 
L 326.600397 61.050062 
L 326.600397 58.556041 
L 332.48255 58.556041 
L 332.48255 56.062021 
L 332.720768 56.062021 
L 332.720768 53.568 
L 332.720768 53.568 
" clip-path="url(#p2dbe5c7c94)" style="fill: none; stroke: #bcbd22; stroke-width: 1.5; stroke-linecap: square"/>
   </g>
   <g id="line2d_24">
    <path d="M 110.481657 295.488 
L 114.696284 295.488 
L 114.696284 292.993979 
L 141.230109 292.993979 
L 141.230109 290.499959 
L 144.033752 290.499959 
L 144.143699 285.511918 
L 144.216997 285.511918 
L 144.290295 278.029856 
L 144.363593 278.029856 
L 144.381917 273.041814 
L 144.748407 273.041814 
L 144.821704 258.077691 
L 144.876678 258.077691 
L 144.9683 253.089649 
L 145.279816 253.089649 
L 145.279816 250.595629 
L 145.774577 250.595629 
L 145.774577 248.101608 
L 147.130587 248.101608 
L 147.130587 245.607588 
L 164.520504 245.607588 
L 164.520504 243.113567 
L 169.834599 243.113567 
L 169.834599 240.619546 
L 185.611963 240.619546 
L 185.611963 238.125526 
L 197.37627 238.125526 
L 197.37627 235.631505 
L 197.504541 235.631505 
L 197.504541 233.137485 
L 197.779408 233.137485 
L 197.816057 228.149443 
L 198.640658 228.149443 
L 198.750605 205.703258 
L 198.768929 205.703258 
L 198.860552 168.292948 
L 199.007147 168.292948 
L 199.007147 165.798928 
L 199.245365 165.798928 
L 199.245365 163.304907 
L 199.42861 163.304907 
L 199.520232 155.822845 
L 199.59353 155.822845 
L 199.59353 153.328825 
L 200.546402 153.328825 
L 200.546402 150.834804 
L 200.894567 150.834804 
L 201.004514 145.846763 
L 201.425977 145.846763 
L 201.425977 143.352742 
L 201.737493 143.352742 
L 201.737493 140.858722 
L 201.902413 140.858722 
L 202.01236 130.882639 
L 202.049009 130.882639 
L 202.140631 103.448412 
L 202.397173 103.448412 
L 202.397173 100.954392 
L 207.63797 100.954392 
L 207.729593 95.966351 
L 207.876188 95.966351 
L 207.876188 93.47233 
L 208.022784 93.47233 
L 208.022784 90.978309 
L 209.305497 90.978309 
L 209.397119 78.508206 
L 209.708635 78.508206 
L 209.800257 73.520165 
L 284.215909 73.520165 
L 284.215909 71.026144 
L 284.362505 71.026144 
L 284.362505 68.532124 
L 284.527425 68.532124 
L 284.527425 66.038103 
L 286.909606 66.038103 
L 286.909606 63.544082 
L 289.365084 63.544082 
L 289.365084 61.050062 
L 289.566653 61.050062 
L 289.566653 58.556041 
L 294.221067 58.556041 
L 294.221067 56.062021 
L 294.734152 56.062021 
L 294.734152 53.568 
L 294.734152 53.568 
" clip-path="url(#p2dbe5c7c94)" style="fill: none; stroke: #17becf; stroke-width: 1.5; stroke-linecap: square"/>
   </g>
   <g id="patch_3">
    <path d="M 57.6 307.584 
L 57.6 41.472 
" style="fill: none; stroke: #000000; stroke-width: 0.8; stroke-linejoin: miter; stroke-linecap: square"/>
   </g>
   <g id="patch_4">
    <path d="M 414.72 307.584 
L 414.72 41.472 
" style="fill: none; stroke: #000000; stroke-width: 0.8; stroke-linejoin: miter; stroke-linecap: square"/>
   </g>
   <g id="patch_5">
    <path d="M 57.6 307.584 
L 414.72 307.584 
" style="fill: none; stroke: #000000; stroke-width: 0.8; stroke-linejoin: miter; stroke-linecap: square"/>
   </g>
   <g id="patch_6">
    <path d="M 57.6 41.472 
L 414.72 41.472 
" style="fill: none; stroke: #000000; stroke-width: 0.8; stroke-linejoin: miter; stroke-linecap: square"/>
   </g>
   <g id="text_15">
    <!-- interactive discover 2.4 -->
    <g transform="translate(165.304688 35.472) scale(0.12 -0.12)">
     <defs>
      <path id="DejaVuSans-69" d="M 603 3500 
L 1178 3500 
L 1178 0 
L 603 0 
L 603 3500 
z
M 603 4863 
L 1178 4863 
L 1178 4134 
L 603 4134 
L 603 4863 
z
" transform="scale(0.015625)"/>
      <path id="DejaVuSans-6e" d="M 3513 2113 
L 3513 0 
L 2938 0 
L 2938 2094 
Q 2938 2591 2744 2837 
Q 2550 3084 2163 3084 
Q 1697 3084 1428 2787 
Q 1159 2491 1159 1978 
L 1159 0 
L 581 0 
L 581 3500 
L 1159 3500 
L 1159 2956 
Q 1366 3272 1645 3428 
Q 1925 3584 2291 3584 
Q 2894 3584 3203 3211 
Q 3513 2838 3513 2113 
z
" transform="scale(0.015625)"/>
      <path id="DejaVuSans-74" d="M 1172 4494 
L 1172 3500 
L 2356 3500 
L 2356 3053 
L 1172 3053 
L 1172 1153 
Q 1172 725 1289 603 
Q 1406 481 1766 481 
L 2356 481 
L 2356 0 
L 1766 0 
Q 1100 0 847 248 
Q 594 497 594 1153 
L 594 3053 
L 172 3053 
L 172 3500 
L 594 3500 
L 594 4494 
L 1172 4494 
z
" transform="scale(0.015625)"/>
      <path id="DejaVuSans-65" d="M 3597 1894 
L 3597 1613 
L 953 1613 
Q 991 1019 1311 708 
Q 1631 397 2203 397 
Q 2534 397 2845 478 
Q 3156 559 3463 722 
L 3463 178 
Q 3153 47 2828 -22 
Q 2503 -91 2169 -91 
Q 1331 -91 842 396 
Q 353 884 353 1716 
Q 353 2575 817 3079 
Q 1281 3584 2069 3584 
Q 2775 3584 3186 3129 
Q 3597 2675 3597 1894 
z
M 3022 2063 
Q 3016 2534 2758 2815 
Q 2500 3097 2075 3097 
Q 1594 3097 1305 2825 
Q 1016 2553 972 2059 
L 3022 2063 
z
" transform="scale(0.015625)"/>
      <path id="DejaVuSans-72" d="M 2631 2963 
Q 2534 3019 2420 3045 
Q 2306 3072 2169 3072 
Q 1681 3072 1420 2755 
Q 1159 2438 1159 1844 
L 1159 0 
L 581 0 
L 581 3500 
L 1159 3500 
L 1159 2956 
Q 1341 3275 1631 3429 
Q 1922 3584 2338 3584 
Q 2397 3584 2469 3576 
Q 2541 3569 2628 3553 
L 2631 2963 
z
" transform="scale(0.015625)"/>
      <path id="DejaVuSans-61" d="M 2194 1759 
Q 1497 1759 1228 1600 
Q 959 1441 959 1056 
Q 959 750 1161 570 
Q 1363 391 1709 391 
Q 2188 391 2477 730 
Q 2766 1069 2766 1631 
L 2766 1759 
L 2194 1759 
z
M 3341 1997 
L 3341 0 
L 2766 0 
L 2766 531 
Q 2569 213 2275 61 
Q 1981 -91 1556 -91 
Q 1019 -91 701 211 
Q 384 513 384 1019 
Q 384 1609 779 1909 
Q 1175 2209 1959 2209 
L 2766 2209 
L 2766 2266 
Q 2766 2663 2505 2880 
Q 2244 3097 1772 3097 
Q 1472 3097 1187 3025 
Q 903 2953 641 2809 
L 641 3341 
Q 956 3463 1253 3523 
Q 1550 3584 1831 3584 
Q 2591 3584 2966 3190 
Q 3341 2797 3341 1997 
z
" transform="scale(0.015625)"/>
      <path id="DejaVuSans-63" d="M 3122 3366 
L 3122 2828 
Q 2878 2963 2633 3030 
Q 2388 3097 2138 3097 
Q 1578 3097 1268 2742 
Q 959 2388 959 1747 
Q 959 1106 1268 751 
Q 1578 397 2138 397 
Q 2388 397 2633 464 
Q 2878 531 3122 666 
L 3122 134 
Q 2881 22 2623 -34 
Q 2366 -91 2075 -91 
Q 1284 -91 818 406 
Q 353 903 353 1747 
Q 353 2603 823 3093 
Q 1294 3584 2113 3584 
Q 2378 3584 2631 3529 
Q 2884 3475 3122 3366 
z
" transform="scale(0.015625)"/>
      <path id="DejaVuSans-76" d="M 191 3500 
L 800 3500 
L 1894 563 
L 2988 3500 
L 3597 3500 
L 2284 0 
L 1503 0 
L 191 3500 
z
" transform="scale(0.015625)"/>
      <path id="DejaVuSans-20" transform="scale(0.015625)"/>
      <path id="DejaVuSans-64" d="M 2906 2969 
L 2906 4863 
L 3481 4863 
L 3481 0 
L 2906 0 
L 2906 525 
Q 2725 213 2448 61 
Q 2172 -91 1784 -91 
Q 1150 -91 751 415 
Q 353 922 353 1747 
Q 353 2572 751 3078 
Q 1150 3584 1784 3584 
Q 2172 3584 2448 3432 
Q 2725 3281 2906 2969 
z
M 947 1747 
Q 947 1113 1208 752 
Q 1469 391 1925 391 
Q 2381 391 2643 752 
Q 2906 1113 2906 1747 
Q 2906 2381 2643 2742 
Q 2381 3103 1925 3103 
Q 1469 3103 1208 2742 
Q 947 2381 947 1747 
z
" transform="scale(0.015625)"/>
      <path id="DejaVuSans-73" d="M 2834 3397 
L 2834 2853 
Q 2591 2978 2328 3040 
Q 2066 3103 1784 3103 
Q 1356 3103 1142 2972 
Q 928 2841 928 2578 
Q 928 2378 1081 2264 
Q 1234 2150 1697 2047 
L 1894 2003 
Q 2506 1872 2764 1633 
Q 3022 1394 3022 966 
Q 3022 478 2636 193 
Q 2250 -91 1575 -91 
Q 1294 -91 989 -36 
Q 684 19 347 128 
L 347 722 
Q 666 556 975 473 
Q 1284 391 1588 391 
Q 1994 391 2212 530 
Q 2431 669 2431 922 
Q 2431 1156 2273 1281 
Q 2116 1406 1581 1522 
L 1381 1569 
Q 847 1681 609 1914 
Q 372 2147 372 2553 
Q 372 3047 722 3315 
Q 1072 3584 1716 3584 
Q 2034 3584 2315 3537 
Q 2597 3491 2834 3397 
z
" transform="scale(0.015625)"/>
      <path id="DejaVuSans-6f" d="M 1959 3097 
Q 1497 3097 1228 2736 
Q 959 2375 959 1747 
Q 959 1119 1226 758 
Q 1494 397 1959 397 
Q 2419 397 2687 759 
Q 2956 1122 2956 1747 
Q 2956 2369 2687 2733 
Q 2419 3097 1959 3097 
z
M 1959 3584 
Q 2709 3584 3137 3096 
Q 3566 2609 3566 1747 
Q 3566 888 3137 398 
Q 2709 -91 1959 -91 
Q 1206 -91 779 398 
Q 353 888 353 1747 
Q 353 2609 779 3096 
Q 1206 3584 1959 3584 
z
" transform="scale(0.015625)"/>
     </defs>
     <use xlink:href="#DejaVuSans-69"/>
     <use xlink:href="#DejaVuSans-6e" transform="translate(27.783203 0)"/>
     <use xlink:href="#DejaVuSans-74" transform="translate(91.162109 0)"/>
     <use xlink:href="#DejaVuSans-65" transform="translate(130.371094 0)"/>
     <use xlink:href="#DejaVuSans-72" transform="translate(191.894531 0)"/>
     <use xlink:href="#DejaVuSans-61" transform="translate(233.007812 0)"/>
     <use xlink:href="#DejaVuSans-63" transform="translate(294.287109 0)"/>
     <use xlink:href="#DejaVuSans-74" transform="translate(349.267578 0)"/>
     <use xlink:href="#DejaVuSans-69" transform="translate(388.476562 0)"/>
     <use xlink:href="#DejaVuSans-76" transform="translate(416.259766 0)"/>
     <use xlink:href="#DejaVuSans-65" transform="translate(475.439453 0)"/>
     <use xlink:href="#DejaVuSans-20" transform="translate(536.962891 0)"/>
     <use xlink:href="#DejaVuSans-64" transform="translate(568.75 0)"/>
     <use xlink:href="#DejaVuSans-69" transform="translate(632.226562 0)"/>
     <use xlink:href="#DejaVuSans-73" transform="translate(660.009766 0)"/>
     <use xlink:href="#DejaVuSans-63" transform="translate(712.109375 0)"/>
     <use xlink:href="#DejaVuSans-6f" transform="translate(767.089844 0)"/>
     <use xlink:href="#DejaVuSans-76" transform="translate(828.271484 0)"/>
     <use xlink:href="#DejaVuSans-65" transform="translate(887.451172 0)"/>
     <use xlink:href="#DejaVuSans-72" transform="translate(948.974609 0)"/>
     <use xlink:href="#DejaVuSans-20" transform="translate(990.087891 0)"/>
     <use xlink:href="#DejaVuSans-32" transform="translate(1021.875 0)"/>
     <use xlink:href="#DejaVuSans-2e" transform="translate(1085.498047 0)"/>
     <use xlink:href="#DejaVuSans-34" transform="translate(1117.285156 0)"/>
    </g>
   </g>
   <g id="legend_1">
    <g id="patch_7">
     <path d="M 274.271563 302.584 
L 407.72 302.584 
Q 409.72 302.584 409.72 300.584 
L 409.72 154.80275 
Q 409.72 152.80275 407.72 152.80275 
L 274.271563 152.80275 
Q 272.271563 152.80275 272.271563 154.80275 
L 272.271563 300.584 
Q 272.271563 302.584 274.271563 302.584 
z
" style="fill: #ffffff; opacity: 0.8; stroke: #cccccc; stroke-linejoin: miter"/>
    </g>
    <g id="line2d_25">
     <path d="M 276.271563 160.901187 
L 286.271563 160.901187 
L 286.271563 160.901187 
L 296.271563 160.901187 
L 296.271563 160.901187 
" style="fill: none; stroke: #1f77b4; stroke-width: 1.5; stroke-linecap: square"/>
    </g>
    <g id="text_16">
     <!-- baseline -->
     <g transform="translate(304.271563 164.401187) scale(0.1 -0.1)">
      <defs>
       <path id="DejaVuSans-62" d="M 3116 1747 
Q 3116 2381 2855 2742 
Q 2594 3103 2138 3103 
Q 1681 3103 1420 2742 
Q 1159 2381 1159 1747 
Q 1159 1113 1420 752 
Q 1681 391 2138 391 
Q 2594 391 2855 752 
Q 3116 1113 3116 1747 
z
M 1159 2969 
Q 1341 3281 1617 3432 
Q 1894 3584 2278 3584 
Q 2916 3584 3314 3078 
Q 3713 2572 3713 1747 
Q 3713 922 3314 415 
Q 2916 -91 2278 -91 
Q 1894 -91 1617 61 
Q 1341 213 1159 525 
L 1159 0 
L 581 0 
L 581 4863 
L 1159 4863 
L 1159 2969 
z
" transform="scale(0.015625)"/>
       <path id="DejaVuSans-6c" d="M 603 4863 
L 1178 4863 
L 1178 0 
L 603 0 
L 603 4863 
z
" transform="scale(0.015625)"/>
      </defs>
      <use xlink:href="#DejaVuSans-62"/>
      <use xlink:href="#DejaVuSans-61" transform="translate(63.476562 0)"/>
      <use xlink:href="#DejaVuSans-73" transform="translate(124.755859 0)"/>
      <use xlink:href="#DejaVuSans-65" transform="translate(176.855469 0)"/>
      <use xlink:href="#DejaVuSans-6c" transform="translate(238.378906 0)"/>
      <use xlink:href="#DejaVuSans-69" transform="translate(266.162109 0)"/>
      <use xlink:href="#DejaVuSans-6e" transform="translate(293.945312 0)"/>
      <use xlink:href="#DejaVuSans-65" transform="translate(357.324219 0)"/>
     </g>
    </g>
    <g id="line2d_26">
     <path d="M 276.271563 175.579313 
L 286.271563 175.579313 
L 286.271563 175.579313 
L 296.271563 175.579313 
L 296.271563 175.579313 
" style="fill: none; stroke: #ff7f0e; stroke-width: 1.5; stroke-linecap: square"/>
    </g>
    <g id="text_17">
     <!-- overhead -->
     <g transform="translate(304.271563 179.079313) scale(0.1 -0.1)">
      <defs>
       <path id="DejaVuSans-68" d="M 3513 2113 
L 3513 0 
L 2938 0 
L 2938 2094 
Q 2938 2591 2744 2837 
Q 2550 3084 2163 3084 
Q 1697 3084 1428 2787 
Q 1159 2491 1159 1978 
L 1159 0 
L 581 0 
L 581 4863 
L 1159 4863 
L 1159 2956 
Q 1366 3272 1645 3428 
Q 1925 3584 2291 3584 
Q 2894 3584 3203 3211 
Q 3513 2838 3513 2113 
z
" transform="scale(0.015625)"/>
      </defs>
      <use xlink:href="#DejaVuSans-6f"/>
      <use xlink:href="#DejaVuSans-76" transform="translate(61.181641 0)"/>
      <use xlink:href="#DejaVuSans-65" transform="translate(120.361328 0)"/>
      <use xlink:href="#DejaVuSans-72" transform="translate(181.884766 0)"/>
      <use xlink:href="#DejaVuSans-68" transform="translate(221.248047 0)"/>
      <use xlink:href="#DejaVuSans-65" transform="translate(284.626953 0)"/>
      <use xlink:href="#DejaVuSans-61" transform="translate(346.150391 0)"/>
      <use xlink:href="#DejaVuSans-64" transform="translate(407.429688 0)"/>
     </g>
    </g>
    <g id="line2d_27">
     <path d="M 276.271563 190.257438 
L 286.271563 190.257438 
L 286.271563 190.257438 
L 296.271563 190.257438 
L 296.271563 190.257438 
" style="fill: none; stroke: #2ca02c; stroke-width: 1.5; stroke-linecap: square"/>
    </g>
    <g id="text_18">
     <!-- interval-100-once -->
     <g transform="translate(304.271563 193.757438) scale(0.1 -0.1)">
      <defs>
       <path id="DejaVuSans-2d" d="M 313 2009 
L 1997 2009 
L 1997 1497 
L 313 1497 
L 313 2009 
z
" transform="scale(0.015625)"/>
      </defs>
      <use xlink:href="#DejaVuSans-69"/>
      <use xlink:href="#DejaVuSans-6e" transform="translate(27.783203 0)"/>
      <use xlink:href="#DejaVuSans-74" transform="translate(91.162109 0)"/>
      <use xlink:href="#DejaVuSans-65" transform="translate(130.371094 0)"/>
      <use xlink:href="#DejaVuSans-72" transform="translate(191.894531 0)"/>
      <use xlink:href="#DejaVuSans-76" transform="translate(233.007812 0)"/>
      <use xlink:href="#DejaVuSans-61" transform="translate(292.1875 0)"/>
      <use xlink:href="#DejaVuSans-6c" transform="translate(353.466797 0)"/>
      <use xlink:href="#DejaVuSans-2d" transform="translate(381.25 0)"/>
      <use xlink:href="#DejaVuSans-31" transform="translate(417.333984 0)"/>
      <use xlink:href="#DejaVuSans-30" transform="translate(480.957031 0)"/>
      <use xlink:href="#DejaVuSans-30" transform="translate(544.580078 0)"/>
      <use xlink:href="#DejaVuSans-2d" transform="translate(608.203125 0)"/>
      <use xlink:href="#DejaVuSans-6f" transform="translate(646.162109 0)"/>
      <use xlink:href="#DejaVuSans-6e" transform="translate(707.34375 0)"/>
      <use xlink:href="#DejaVuSans-63" transform="translate(770.722656 0)"/>
      <use xlink:href="#DejaVuSans-65" transform="translate(825.703125 0)"/>
     </g>
    </g>
    <g id="line2d_28">
     <path d="M 276.271563 204.935563 
L 286.271563 204.935563 
L 286.271563 204.935563 
L 296.271563 204.935563 
L 296.271563 204.935563 
" style="fill: none; stroke: #d62728; stroke-width: 1.5; stroke-linecap: square"/>
    </g>
    <g id="text_19">
     <!-- interval-1000-once -->
     <g transform="translate(304.271563 208.435563) scale(0.1 -0.1)">
      <use xlink:href="#DejaVuSans-69"/>
      <use xlink:href="#DejaVuSans-6e" transform="translate(27.783203 0)"/>
      <use xlink:href="#DejaVuSans-74" transform="translate(91.162109 0)"/>
      <use xlink:href="#DejaVuSans-65" transform="translate(130.371094 0)"/>
      <use xlink:href="#DejaVuSans-72" transform="translate(191.894531 0)"/>
      <use xlink:href="#DejaVuSans-76" transform="translate(233.007812 0)"/>
      <use xlink:href="#DejaVuSans-61" transform="translate(292.1875 0)"/>
      <use xlink:href="#DejaVuSans-6c" transform="translate(353.466797 0)"/>
      <use xlink:href="#DejaVuSans-2d" transform="translate(381.25 0)"/>
      <use xlink:href="#DejaVuSans-31" transform="translate(417.333984 0)"/>
      <use xlink:href="#DejaVuSans-30" transform="translate(480.957031 0)"/>
      <use xlink:href="#DejaVuSans-30" transform="translate(544.580078 0)"/>
      <use xlink:href="#DejaVuSans-30" transform="translate(608.203125 0)"/>
      <use xlink:href="#DejaVuSans-2d" transform="translate(671.826172 0)"/>
      <use xlink:href="#DejaVuSans-6f" transform="translate(709.785156 0)"/>
      <use xlink:href="#DejaVuSans-6e" transform="translate(770.966797 0)"/>
      <use xlink:href="#DejaVuSans-63" transform="translate(834.345703 0)"/>
      <use xlink:href="#DejaVuSans-65" transform="translate(889.326172 0)"/>
     </g>
    </g>
    <g id="line2d_29">
     <path d="M 276.271563 219.613688 
L 286.271563 219.613688 
L 286.271563 219.613688 
L 296.271563 219.613688 
L 296.271563 219.613688 
" style="fill: none; stroke: #9467bd; stroke-width: 1.5; stroke-linecap: square"/>
    </g>
    <g id="text_20">
     <!-- interval-10000-once -->
     <g transform="translate(304.271563 223.113688) scale(0.1 -0.1)">
      <use xlink:href="#DejaVuSans-69"/>
      <use xlink:href="#DejaVuSans-6e" transform="translate(27.783203 0)"/>
      <use xlink:href="#DejaVuSans-74" transform="translate(91.162109 0)"/>
      <use xlink:href="#DejaVuSans-65" transform="translate(130.371094 0)"/>
      <use xlink:href="#DejaVuSans-72" transform="translate(191.894531 0)"/>
      <use xlink:href="#DejaVuSans-76" transform="translate(233.007812 0)"/>
      <use xlink:href="#DejaVuSans-61" transform="translate(292.1875 0)"/>
      <use xlink:href="#DejaVuSans-6c" transform="translate(353.466797 0)"/>
      <use xlink:href="#DejaVuSans-2d" transform="translate(381.25 0)"/>
      <use xlink:href="#DejaVuSans-31" transform="translate(417.333984 0)"/>
      <use xlink:href="#DejaVuSans-30" transform="translate(480.957031 0)"/>
      <use xlink:href="#DejaVuSans-30" transform="translate(544.580078 0)"/>
      <use xlink:href="#DejaVuSans-30" transform="translate(608.203125 0)"/>
      <use xlink:href="#DejaVuSans-30" transform="translate(671.826172 0)"/>
      <use xlink:href="#DejaVuSans-2d" transform="translate(735.449219 0)"/>
      <use xlink:href="#DejaVuSans-6f" transform="translate(773.408203 0)"/>
      <use xlink:href="#DejaVuSans-6e" transform="translate(834.589844 0)"/>
      <use xlink:href="#DejaVuSans-63" transform="translate(897.96875 0)"/>
      <use xlink:href="#DejaVuSans-65" transform="translate(952.949219 0)"/>
     </g>
    </g>
    <g id="line2d_30">
     <path d="M 276.271563 234.291812 
L 286.271563 234.291812 
L 286.271563 234.291812 
L 296.271563 234.291812 
L 296.271563 234.291812 
" style="fill: none; stroke: #8c564b; stroke-width: 1.5; stroke-linecap: square"/>
    </g>
    <g id="text_21">
     <!-- interval-2000-once -->
     <g transform="translate(304.271563 237.791812) scale(0.1 -0.1)">
      <use xlink:href="#DejaVuSans-69"/>
      <use xlink:href="#DejaVuSans-6e" transform="translate(27.783203 0)"/>
      <use xlink:href="#DejaVuSans-74" transform="translate(91.162109 0)"/>
      <use xlink:href="#DejaVuSans-65" transform="translate(130.371094 0)"/>
      <use xlink:href="#DejaVuSans-72" transform="translate(191.894531 0)"/>
      <use xlink:href="#DejaVuSans-76" transform="translate(233.007812 0)"/>
      <use xlink:href="#DejaVuSans-61" transform="translate(292.1875 0)"/>
      <use xlink:href="#DejaVuSans-6c" transform="translate(353.466797 0)"/>
      <use xlink:href="#DejaVuSans-2d" transform="translate(381.25 0)"/>
      <use xlink:href="#DejaVuSans-32" transform="translate(417.333984 0)"/>
      <use xlink:href="#DejaVuSans-30" transform="translate(480.957031 0)"/>
      <use xlink:href="#DejaVuSans-30" transform="translate(544.580078 0)"/>
      <use xlink:href="#DejaVuSans-30" transform="translate(608.203125 0)"/>
      <use xlink:href="#DejaVuSans-2d" transform="translate(671.826172 0)"/>
      <use xlink:href="#DejaVuSans-6f" transform="translate(709.785156 0)"/>
      <use xlink:href="#DejaVuSans-6e" transform="translate(770.966797 0)"/>
      <use xlink:href="#DejaVuSans-63" transform="translate(834.345703 0)"/>
      <use xlink:href="#DejaVuSans-65" transform="translate(889.326172 0)"/>
     </g>
    </g>
    <g id="line2d_31">
     <path d="M 276.271563 248.969938 
L 286.271563 248.969938 
L 286.271563 248.969938 
L 296.271563 248.969938 
L 296.271563 248.969938 
" style="fill: none; stroke: #e377c2; stroke-width: 1.5; stroke-linecap: square"/>
    </g>
    <g id="text_22">
     <!-- interval-20000-once -->
     <g transform="translate(304.271563 252.469938) scale(0.1 -0.1)">
      <use xlink:href="#DejaVuSans-69"/>
      <use xlink:href="#DejaVuSans-6e" transform="translate(27.783203 0)"/>
      <use xlink:href="#DejaVuSans-74" transform="translate(91.162109 0)"/>
      <use xlink:href="#DejaVuSans-65" transform="translate(130.371094 0)"/>
      <use xlink:href="#DejaVuSans-72" transform="translate(191.894531 0)"/>
      <use xlink:href="#DejaVuSans-76" transform="translate(233.007812 0)"/>
      <use xlink:href="#DejaVuSans-61" transform="translate(292.1875 0)"/>
      <use xlink:href="#DejaVuSans-6c" transform="translate(353.466797 0)"/>
      <use xlink:href="#DejaVuSans-2d" transform="translate(381.25 0)"/>
      <use xlink:href="#DejaVuSans-32" transform="translate(417.333984 0)"/>
      <use xlink:href="#DejaVuSans-30" transform="translate(480.957031 0)"/>
      <use xlink:href="#DejaVuSans-30" transform="translate(544.580078 0)"/>
      <use xlink:href="#DejaVuSans-30" transform="translate(608.203125 0)"/>
      <use xlink:href="#DejaVuSans-30" transform="translate(671.826172 0)"/>
      <use xlink:href="#DejaVuSans-2d" transform="translate(735.449219 0)"/>
      <use xlink:href="#DejaVuSans-6f" transform="translate(773.408203 0)"/>
      <use xlink:href="#DejaVuSans-6e" transform="translate(834.589844 0)"/>
      <use xlink:href="#DejaVuSans-63" transform="translate(897.96875 0)"/>
      <use xlink:href="#DejaVuSans-65" transform="translate(952.949219 0)"/>
     </g>
    </g>
    <g id="line2d_32">
     <path d="M 276.271563 263.648062 
L 286.271563 263.648062 
L 286.271563 263.648062 
L 296.271563 263.648062 
L 296.271563 263.648062 
" style="fill: none; stroke: #7f7f7f; stroke-width: 1.5; stroke-linecap: square"/>
    </g>
    <g id="text_23">
     <!-- interval-5000-once -->
     <g transform="translate(304.271563 267.148062) scale(0.1 -0.1)">
      <use xlink:href="#DejaVuSans-69"/>
      <use xlink:href="#DejaVuSans-6e" transform="translate(27.783203 0)"/>
      <use xlink:href="#DejaVuSans-74" transform="translate(91.162109 0)"/>
      <use xlink:href="#DejaVuSans-65" transform="translate(130.371094 0)"/>
      <use xlink:href="#DejaVuSans-72" transform="translate(191.894531 0)"/>
      <use xlink:href="#DejaVuSans-76" transform="translate(233.007812 0)"/>
      <use xlink:href="#DejaVuSans-61" transform="translate(292.1875 0)"/>
      <use xlink:href="#DejaVuSans-6c" transform="translate(353.466797 0)"/>
      <use xlink:href="#DejaVuSans-2d" transform="translate(381.25 0)"/>
      <use xlink:href="#DejaVuSans-35" transform="translate(417.333984 0)"/>
      <use xlink:href="#DejaVuSans-30" transform="translate(480.957031 0)"/>
      <use xlink:href="#DejaVuSans-30" transform="translate(544.580078 0)"/>
      <use xlink:href="#DejaVuSans-30" transform="translate(608.203125 0)"/>
      <use xlink:href="#DejaVuSans-2d" transform="translate(671.826172 0)"/>
      <use xlink:href="#DejaVuSans-6f" transform="translate(709.785156 0)"/>
      <use xlink:href="#DejaVuSans-6e" transform="translate(770.966797 0)"/>
      <use xlink:href="#DejaVuSans-63" transform="translate(834.345703 0)"/>
      <use xlink:href="#DejaVuSans-65" transform="translate(889.326172 0)"/>
     </g>
    </g>
    <g id="line2d_33">
     <path d="M 276.271563 278.326188 
L 286.271563 278.326188 
L 286.271563 278.326188 
L 296.271563 278.326188 
L 296.271563 278.326188 
" style="fill: none; stroke: #bcbd22; stroke-width: 1.5; stroke-linecap: square"/>
    </g>
    <g id="text_24">
     <!-- metadata-once -->
     <g transform="translate(304.271563 281.826188) scale(0.1 -0.1)">
      <defs>
       <path id="DejaVuSans-6d" d="M 3328 2828 
Q 3544 3216 3844 3400 
Q 4144 3584 4550 3584 
Q 5097 3584 5394 3201 
Q 5691 2819 5691 2113 
L 5691 0 
L 5113 0 
L 5113 2094 
Q 5113 2597 4934 2840 
Q 4756 3084 4391 3084 
Q 3944 3084 3684 2787 
Q 3425 2491 3425 1978 
L 3425 0 
L 2847 0 
L 2847 2094 
Q 2847 2600 2669 2842 
Q 2491 3084 2119 3084 
Q 1678 3084 1418 2786 
Q 1159 2488 1159 1978 
L 1159 0 
L 581 0 
L 581 3500 
L 1159 3500 
L 1159 2956 
Q 1356 3278 1631 3431 
Q 1906 3584 2284 3584 
Q 2666 3584 2933 3390 
Q 3200 3197 3328 2828 
z
" transform="scale(0.015625)"/>
      </defs>
      <use xlink:href="#DejaVuSans-6d"/>
      <use xlink:href="#DejaVuSans-65" transform="translate(97.412109 0)"/>
      <use xlink:href="#DejaVuSans-74" transform="translate(158.935547 0)"/>
      <use xlink:href="#DejaVuSans-61" transform="translate(198.144531 0)"/>
      <use xlink:href="#DejaVuSans-64" transform="translate(259.423828 0)"/>
      <use xlink:href="#DejaVuSans-61" transform="translate(322.900391 0)"/>
      <use xlink:href="#DejaVuSans-74" transform="translate(384.179688 0)"/>
      <use xlink:href="#DejaVuSans-61" transform="translate(423.388672 0)"/>
      <use xlink:href="#DejaVuSans-2d" transform="translate(484.667969 0)"/>
      <use xlink:href="#DejaVuSans-6f" transform="translate(522.626953 0)"/>
      <use xlink:href="#DejaVuSans-6e" transform="translate(583.808594 0)"/>
      <use xlink:href="#DejaVuSans-63" transform="translate(647.1875 0)"/>
      <use xlink:href="#DejaVuSans-65" transform="translate(702.167969 0)"/>
     </g>
    </g>
    <g id="line2d_34">
     <path d="M 276.271563 293.004312 
L 286.271563 293.004312 
L 286.271563 293.004312 
L 296.271563 293.004312 
L 296.271563 293.004312 
" style="fill: none; stroke: #17becf; stroke-width: 1.5; stroke-linecap: square"/>
    </g>
    <g id="text_25">
     <!-- metadata-unlimited -->
     <g transform="translate(304.271563 296.504312) scale(0.1 -0.1)">
      <defs>
       <path id="DejaVuSans-75" d="M 544 1381 
L 544 3500 
L 1119 3500 
L 1119 1403 
Q 1119 906 1312 657 
Q 1506 409 1894 409 
Q 2359 409 2629 706 
Q 2900 1003 2900 1516 
L 2900 3500 
L 3475 3500 
L 3475 0 
L 2900 0 
L 2900 538 
Q 2691 219 2414 64 
Q 2138 -91 1772 -91 
Q 1169 -91 856 284 
Q 544 659 544 1381 
z
M 1991 3584 
L 1991 3584 
z
" transform="scale(0.015625)"/>
      </defs>
      <use xlink:href="#DejaVuSans-6d"/>
      <use xlink:href="#DejaVuSans-65" transform="translate(97.412109 0)"/>
      <use xlink:href="#DejaVuSans-74" transform="translate(158.935547 0)"/>
      <use xlink:href="#DejaVuSans-61" transform="translate(198.144531 0)"/>
      <use xlink:href="#DejaVuSans-64" transform="translate(259.423828 0)"/>
      <use xlink:href="#DejaVuSans-61" transform="translate(322.900391 0)"/>
      <use xlink:href="#DejaVuSans-74" transform="translate(384.179688 0)"/>
      <use xlink:href="#DejaVuSans-61" transform="translate(423.388672 0)"/>
      <use xlink:href="#DejaVuSans-2d" transform="translate(484.667969 0)"/>
      <use xlink:href="#DejaVuSans-75" transform="translate(520.751953 0)"/>
      <use xlink:href="#DejaVuSans-6e" transform="translate(584.130859 0)"/>
      <use xlink:href="#DejaVuSans-6c" transform="translate(647.509766 0)"/>
      <use xlink:href="#DejaVuSans-69" transform="translate(675.292969 0)"/>
      <use xlink:href="#DejaVuSans-6d" transform="translate(703.076172 0)"/>
      <use xlink:href="#DejaVuSans-69" transform="translate(800.488281 0)"/>
      <use xlink:href="#DejaVuSans-74" transform="translate(828.271484 0)"/>
      <use xlink:href="#DejaVuSans-65" transform="translate(867.480469 0)"/>
      <use xlink:href="#DejaVuSans-64" transform="translate(929.003906 0)"/>
     </g>
    </g>
   </g>
  </g>
 </g>
 <defs>
  <clipPath id="p2dbe5c7c94">
   <rect x="57.6" y="41.472" width="357.12" height="266.112"/>
  </clipPath>
 </defs>
</svg>
