<?xml version="1.0" encoding="utf-8" standalone="no"?>
<!DOCTYPE svg PUBLIC "-//W3C//DTD SVG 1.1//EN"
  "http://www.w3.org/Graphics/SVG/1.1/DTD/svg11.dtd">
<svg xmlns:xlink="http://www.w3.org/1999/xlink" width="460.8pt" height="345.6pt" viewBox="0 0 460.8 345.6" xmlns="http://www.w3.org/2000/svg" version="1.1">
 <metadata>
  <rdf:RDF xmlns:dc="http://purl.org/dc/elements/1.1/" xmlns:cc="http://creativecommons.org/ns#" xmlns:rdf="http://www.w3.org/1999/02/22-rdf-syntax-ns#">
   <cc:Work>
    <dc:type rdf:resource="http://purl.org/dc/dcmitype/StillImage"/>
    <dc:date>2025-05-01T19:10:16.324210</dc:date>
    <dc:format>image/svg+xml</dc:format>
    <dc:creator>
     <cc:Agent>
      <dc:title>Matplotlib v3.10.1, https://matplotlib.org/</dc:title>
     </cc:Agent>
    </dc:creator>
   </cc:Work>
  </rdf:RDF>
 </metadata>
 <defs>
  <style type="text/css">*{stroke-linejoin: round; stroke-linecap: butt}</style>
 </defs>
 <g id="figure_1">
  <g id="patch_1">
   <path d="M 0 345.6 
L 460.8 345.6 
L 460.8 0 
L 0 0 
z
" style="fill: #ffffff"/>
  </g>
  <g id="axes_1">
   <g id="patch_2">
    <path d="M 57.6 307.584 
L 414.72 307.584 
L 414.72 41.472 
L 57.6 41.472 
z
" style="fill: #ffffff"/>
   </g>
   <g id="matplotlib.axis_1">
    <g id="xtick_1">
     <g id="line2d_1">
      <defs>
       <path id="me14e0c59cd" d="M 0 0 
L 0 3.5 
" style="stroke: #000000; stroke-width: 0.8"/>
      </defs>
      <g>
       <use xlink:href="#me14e0c59cd" x="89.418199" y="307.584" style="stroke: #000000; stroke-width: 0.8"/>
      </g>
     </g>
     <g id="text_1">
      <!-- 0.25 -->
      <g transform="translate(78.285387 322.182437) scale(0.1 -0.1)">
       <defs>
        <path id="DejaVuSans-30" d="M 2034 4250 
Q 1547 4250 1301 3770 
Q 1056 3291 1056 2328 
Q 1056 1369 1301 889 
Q 1547 409 2034 409 
Q 2525 409 2770 889 
Q 3016 1369 3016 2328 
Q 3016 3291 2770 3770 
Q 2525 4250 2034 4250 
z
M 2034 4750 
Q 2819 4750 3233 4129 
Q 3647 3509 3647 2328 
Q 3647 1150 3233 529 
Q 2819 -91 2034 -91 
Q 1250 -91 836 529 
Q 422 1150 422 2328 
Q 422 3509 836 4129 
Q 1250 4750 2034 4750 
z
" transform="scale(0.015625)"/>
        <path id="DejaVuSans-2e" d="M 684 794 
L 1344 794 
L 1344 0 
L 684 0 
L 684 794 
z
" transform="scale(0.015625)"/>
        <path id="DejaVuSans-32" d="M 1228 531 
L 3431 531 
L 3431 0 
L 469 0 
L 469 531 
Q 828 903 1448 1529 
Q 2069 2156 2228 2338 
Q 2531 2678 2651 2914 
Q 2772 3150 2772 3378 
Q 2772 3750 2511 3984 
Q 2250 4219 1831 4219 
Q 1534 4219 1204 4116 
Q 875 4013 500 3803 
L 500 4441 
Q 881 4594 1212 4672 
Q 1544 4750 1819 4750 
Q 2544 4750 2975 4387 
Q 3406 4025 3406 3419 
Q 3406 3131 3298 2873 
Q 3191 2616 2906 2266 
Q 2828 2175 2409 1742 
Q 1991 1309 1228 531 
z
" transform="scale(0.015625)"/>
        <path id="DejaVuSans-35" d="M 691 4666 
L 3169 4666 
L 3169 4134 
L 1269 4134 
L 1269 2991 
Q 1406 3038 1543 3061 
Q 1681 3084 1819 3084 
Q 2600 3084 3056 2656 
Q 3513 2228 3513 1497 
Q 3513 744 3044 326 
Q 2575 -91 1722 -91 
Q 1428 -91 1123 -41 
Q 819 9 494 109 
L 494 744 
Q 775 591 1075 516 
Q 1375 441 1709 441 
Q 2250 441 2565 725 
Q 2881 1009 2881 1497 
Q 2881 1984 2565 2268 
Q 2250 2553 1709 2553 
Q 1456 2553 1204 2497 
Q 953 2441 691 2322 
L 691 4666 
z
" transform="scale(0.015625)"/>
       </defs>
       <use xlink:href="#DejaVuSans-30"/>
       <use xlink:href="#DejaVuSans-2e" transform="translate(63.623047 0)"/>
       <use xlink:href="#DejaVuSans-32" transform="translate(95.410156 0)"/>
       <use xlink:href="#DejaVuSans-35" transform="translate(159.033203 0)"/>
      </g>
     </g>
    </g>
    <g id="xtick_2">
     <g id="line2d_2">
      <g>
       <use xlink:href="#me14e0c59cd" x="135.257822" y="307.584" style="stroke: #000000; stroke-width: 0.8"/>
      </g>
     </g>
     <g id="text_2">
      <!-- 0.50 -->
      <g transform="translate(124.12501 322.182437) scale(0.1 -0.1)">
       <use xlink:href="#DejaVuSans-30"/>
       <use xlink:href="#DejaVuSans-2e" transform="translate(63.623047 0)"/>
       <use xlink:href="#DejaVuSans-35" transform="translate(95.410156 0)"/>
       <use xlink:href="#DejaVuSans-30" transform="translate(159.033203 0)"/>
      </g>
     </g>
    </g>
    <g id="xtick_3">
     <g id="line2d_3">
      <g>
       <use xlink:href="#me14e0c59cd" x="181.097445" y="307.584" style="stroke: #000000; stroke-width: 0.8"/>
      </g>
     </g>
     <g id="text_3">
      <!-- 0.75 -->
      <g transform="translate(169.964632 322.182437) scale(0.1 -0.1)">
       <defs>
        <path id="DejaVuSans-37" d="M 525 4666 
L 3525 4666 
L 3525 4397 
L 1831 0 
L 1172 0 
L 2766 4134 
L 525 4134 
L 525 4666 
z
" transform="scale(0.015625)"/>
       </defs>
       <use xlink:href="#DejaVuSans-30"/>
       <use xlink:href="#DejaVuSans-2e" transform="translate(63.623047 0)"/>
       <use xlink:href="#DejaVuSans-37" transform="translate(95.410156 0)"/>
       <use xlink:href="#DejaVuSans-35" transform="translate(159.033203 0)"/>
      </g>
     </g>
    </g>
    <g id="xtick_4">
     <g id="line2d_4">
      <g>
       <use xlink:href="#me14e0c59cd" x="226.937068" y="307.584" style="stroke: #000000; stroke-width: 0.8"/>
      </g>
     </g>
     <g id="text_4">
      <!-- 1.00 -->
      <g transform="translate(215.804255 322.182437) scale(0.1 -0.1)">
       <defs>
        <path id="DejaVuSans-31" d="M 794 531 
L 1825 531 
L 1825 4091 
L 703 3866 
L 703 4441 
L 1819 4666 
L 2450 4666 
L 2450 531 
L 3481 531 
L 3481 0 
L 794 0 
L 794 531 
z
" transform="scale(0.015625)"/>
       </defs>
       <use xlink:href="#DejaVuSans-31"/>
       <use xlink:href="#DejaVuSans-2e" transform="translate(63.623047 0)"/>
       <use xlink:href="#DejaVuSans-30" transform="translate(95.410156 0)"/>
       <use xlink:href="#DejaVuSans-30" transform="translate(159.033203 0)"/>
      </g>
     </g>
    </g>
    <g id="xtick_5">
     <g id="line2d_5">
      <g>
       <use xlink:href="#me14e0c59cd" x="272.776691" y="307.584" style="stroke: #000000; stroke-width: 0.8"/>
      </g>
     </g>
     <g id="text_5">
      <!-- 1.25 -->
      <g transform="translate(261.643878 322.182437) scale(0.1 -0.1)">
       <use xlink:href="#DejaVuSans-31"/>
       <use xlink:href="#DejaVuSans-2e" transform="translate(63.623047 0)"/>
       <use xlink:href="#DejaVuSans-32" transform="translate(95.410156 0)"/>
       <use xlink:href="#DejaVuSans-35" transform="translate(159.033203 0)"/>
      </g>
     </g>
    </g>
    <g id="xtick_6">
     <g id="line2d_6">
      <g>
       <use xlink:href="#me14e0c59cd" x="318.616314" y="307.584" style="stroke: #000000; stroke-width: 0.8"/>
      </g>
     </g>
     <g id="text_6">
      <!-- 1.50 -->
      <g transform="translate(307.483501 322.182437) scale(0.1 -0.1)">
       <use xlink:href="#DejaVuSans-31"/>
       <use xlink:href="#DejaVuSans-2e" transform="translate(63.623047 0)"/>
       <use xlink:href="#DejaVuSans-35" transform="translate(95.410156 0)"/>
       <use xlink:href="#DejaVuSans-30" transform="translate(159.033203 0)"/>
      </g>
     </g>
    </g>
    <g id="xtick_7">
     <g id="line2d_7">
      <g>
       <use xlink:href="#me14e0c59cd" x="364.455937" y="307.584" style="stroke: #000000; stroke-width: 0.8"/>
      </g>
     </g>
     <g id="text_7">
      <!-- 1.75 -->
      <g transform="translate(353.323124 322.182437) scale(0.1 -0.1)">
       <use xlink:href="#DejaVuSans-31"/>
       <use xlink:href="#DejaVuSans-2e" transform="translate(63.623047 0)"/>
       <use xlink:href="#DejaVuSans-37" transform="translate(95.410156 0)"/>
       <use xlink:href="#DejaVuSans-35" transform="translate(159.033203 0)"/>
      </g>
     </g>
    </g>
    <g id="xtick_8">
     <g id="line2d_8">
      <g>
       <use xlink:href="#me14e0c59cd" x="410.29556" y="307.584" style="stroke: #000000; stroke-width: 0.8"/>
      </g>
     </g>
     <g id="text_8">
      <!-- 2.00 -->
      <g transform="translate(399.162747 322.182437) scale(0.1 -0.1)">
       <use xlink:href="#DejaVuSans-32"/>
       <use xlink:href="#DejaVuSans-2e" transform="translate(63.623047 0)"/>
       <use xlink:href="#DejaVuSans-30" transform="translate(95.410156 0)"/>
       <use xlink:href="#DejaVuSans-30" transform="translate(159.033203 0)"/>
      </g>
     </g>
    </g>
   </g>
   <g id="matplotlib.axis_2">
    <g id="ytick_1">
     <g id="line2d_9">
      <defs>
       <path id="mb925c8c8bb" d="M 0 0 
L -3.5 0 
" style="stroke: #000000; stroke-width: 0.8"/>
      </defs>
      <g>
       <use xlink:href="#mb925c8c8bb" x="57.6" y="296.71602" style="stroke: #000000; stroke-width: 0.8"/>
      </g>
     </g>
     <g id="text_9">
      <!-- 0 -->
      <g transform="translate(44.2375 300.515239) scale(0.1 -0.1)">
       <use xlink:href="#DejaVuSans-30"/>
      </g>
     </g>
    </g>
    <g id="ytick_2">
     <g id="line2d_10">
      <g>
       <use xlink:href="#mb925c8c8bb" x="57.6" y="266.015513" style="stroke: #000000; stroke-width: 0.8"/>
      </g>
     </g>
     <g id="text_10">
      <!-- 25 -->
      <g transform="translate(37.875 269.814731) scale(0.1 -0.1)">
       <use xlink:href="#DejaVuSans-32"/>
       <use xlink:href="#DejaVuSans-35" transform="translate(63.623047 0)"/>
      </g>
     </g>
    </g>
    <g id="ytick_3">
     <g id="line2d_11">
      <g>
       <use xlink:href="#mb925c8c8bb" x="57.6" y="235.315005" style="stroke: #000000; stroke-width: 0.8"/>
      </g>
     </g>
     <g id="text_11">
      <!-- 50 -->
      <g transform="translate(37.875 239.114224) scale(0.1 -0.1)">
       <use xlink:href="#DejaVuSans-35"/>
       <use xlink:href="#DejaVuSans-30" transform="translate(63.623047 0)"/>
      </g>
     </g>
    </g>
    <g id="ytick_4">
     <g id="line2d_12">
      <g>
       <use xlink:href="#mb925c8c8bb" x="57.6" y="204.614497" style="stroke: #000000; stroke-width: 0.8"/>
      </g>
     </g>
     <g id="text_12">
      <!-- 75 -->
      <g transform="translate(37.875 208.413716) scale(0.1 -0.1)">
       <use xlink:href="#DejaVuSans-37"/>
       <use xlink:href="#DejaVuSans-35" transform="translate(63.623047 0)"/>
      </g>
     </g>
    </g>
    <g id="ytick_5">
     <g id="line2d_13">
      <g>
       <use xlink:href="#mb925c8c8bb" x="57.6" y="173.91399" style="stroke: #000000; stroke-width: 0.8"/>
      </g>
     </g>
     <g id="text_13">
      <!-- 100 -->
      <g transform="translate(31.5125 177.713209) scale(0.1 -0.1)">
       <use xlink:href="#DejaVuSans-31"/>
       <use xlink:href="#DejaVuSans-30" transform="translate(63.623047 0)"/>
       <use xlink:href="#DejaVuSans-30" transform="translate(127.246094 0)"/>
      </g>
     </g>
    </g>
    <g id="ytick_6">
     <g id="line2d_14">
      <g>
       <use xlink:href="#mb925c8c8bb" x="57.6" y="143.213482" style="stroke: #000000; stroke-width: 0.8"/>
      </g>
     </g>
     <g id="text_14">
      <!-- 125 -->
      <g transform="translate(31.5125 147.012701) scale(0.1 -0.1)">
       <use xlink:href="#DejaVuSans-31"/>
       <use xlink:href="#DejaVuSans-32" transform="translate(63.623047 0)"/>
       <use xlink:href="#DejaVuSans-35" transform="translate(127.246094 0)"/>
      </g>
     </g>
    </g>
    <g id="ytick_7">
     <g id="line2d_15">
      <g>
       <use xlink:href="#mb925c8c8bb" x="57.6" y="112.512975" style="stroke: #000000; stroke-width: 0.8"/>
      </g>
     </g>
     <g id="text_15">
      <!-- 150 -->
      <g transform="translate(31.5125 116.312193) scale(0.1 -0.1)">
       <use xlink:href="#DejaVuSans-31"/>
       <use xlink:href="#DejaVuSans-35" transform="translate(63.623047 0)"/>
       <use xlink:href="#DejaVuSans-30" transform="translate(127.246094 0)"/>
      </g>
     </g>
    </g>
    <g id="ytick_8">
     <g id="line2d_16">
      <g>
       <use xlink:href="#mb925c8c8bb" x="57.6" y="81.812467" style="stroke: #000000; stroke-width: 0.8"/>
      </g>
     </g>
     <g id="text_16">
      <!-- 175 -->
      <g transform="translate(31.5125 85.611686) scale(0.1 -0.1)">
       <use xlink:href="#DejaVuSans-31"/>
       <use xlink:href="#DejaVuSans-37" transform="translate(63.623047 0)"/>
       <use xlink:href="#DejaVuSans-35" transform="translate(127.246094 0)"/>
      </g>
     </g>
    </g>
    <g id="ytick_9">
     <g id="line2d_17">
      <g>
       <use xlink:href="#mb925c8c8bb" x="57.6" y="51.111959" style="stroke: #000000; stroke-width: 0.8"/>
      </g>
     </g>
     <g id="text_17">
      <!-- 200 -->
      <g transform="translate(31.5125 54.911178) scale(0.1 -0.1)">
       <use xlink:href="#DejaVuSans-32"/>
       <use xlink:href="#DejaVuSans-30" transform="translate(63.623047 0)"/>
       <use xlink:href="#DejaVuSans-30" transform="translate(127.246094 0)"/>
      </g>
     </g>
    </g>
   </g>
   <g id="line2d_18">
    <path d="M 80.506976 295.488 
L 88.464735 295.488 
L 88.501407 291.803939 
L 90.73838 291.803939 
L 90.848395 285.663838 
L 90.921739 285.663838 
L 90.921739 283.207797 
L 95.505701 283.207797 
L 95.505701 280.751756 
L 95.689059 280.751756 
L 95.689059 279.523736 
L 206.25423 279.523736 
L 206.25423 278.295716 
L 206.437588 278.295716 
L 206.437588 274.611655 
L 206.584275 274.611655 
L 206.657619 270.927594 
L 206.840977 270.927594 
L 206.840977 269.699574 
L 206.987664 269.699574 
L 206.987664 267.243533 
L 207.207694 267.243533 
L 207.317709 263.559472 
L 207.611083 263.559472 
L 207.647755 261.103431 
L 209.334653 261.103431 
L 209.334653 259.875411 
L 209.518011 259.875411 
L 209.518011 258.647391 
L 209.70137 258.647391 
L 209.70137 256.19135 
L 211.498283 256.19135 
L 211.498283 254.96333 
L 212.451747 254.96333 
L 212.52509 251.279269 
L 212.928479 251.279269 
L 213.038494 247.595208 
L 213.221853 247.595208 
L 213.221853 246.367188 
L 213.515226 246.367188 
L 213.515226 245.139168 
L 213.661913 245.139168 
L 213.661913 243.911147 
L 213.845272 243.911147 
L 213.845272 242.683127 
L 214.101973 242.683127 
L 214.101973 241.455107 
L 214.358675 241.455107 
L 214.358675 240.227086 
L 214.652049 240.227086 
L 214.725392 236.543025 
L 214.908751 236.543025 
L 214.908751 234.086985 
L 215.385483 234.086985 
L 215.385483 232.858964 
L 215.862215 232.858964 
L 215.862215 230.402924 
L 216.082245 230.402924 
L 216.082245 229.174904 
L 216.558977 229.174904 
L 216.595649 225.490843 
L 216.742336 225.490843 
L 216.742336 224.262822 
L 217.769143 224.262822 
L 217.769143 221.806782 
L 220.372834 221.806782 
L 220.372834 219.350741 
L 220.996253 219.350741 
L 221.032924 216.894701 
L 229.944147 216.894701 
L 229.980819 214.43866 
L 230.200849 214.43866 
L 230.200849 213.21064 
L 231.814404 213.21064 
L 231.887747 209.526579 
L 232.731196 209.526579 
L 232.767868 207.070538 
L 232.914555 207.070538 
L 232.951226 204.614497 
L 233.317943 204.614497 
L 233.317943 203.386477 
L 233.537974 203.386477 
L 233.537974 199.702416 
L 233.68466 199.702416 
L 233.68466 198.474396 
L 235.811619 198.474396 
L 235.811619 197.246376 
L 236.251679 197.246376 
L 236.251679 196.018355 
L 236.508381 196.018355 
L 236.545053 193.562315 
L 236.875098 193.562315 
L 236.985113 188.650234 
L 237.095128 188.650234 
L 237.095128 187.422213 
L 237.278487 187.422213 
L 237.278487 186.194193 
L 237.461845 186.194193 
L 237.461845 184.966173 
L 237.755219 184.966173 
L 237.828562 181.282112 
L 237.975249 181.282112 
L 238.048592 178.826071 
L 250.626985 178.826071 
L 250.626985 177.598051 
L 264.708917 177.598051 
L 264.708917 176.37003 
L 264.892276 176.37003 
L 265.002291 173.91399 
L 269.989642 173.91399 
L 269.989642 171.457949 
L 270.283015 171.457949 
L 270.283015 169.001909 
L 272.079929 169.001909 
L 272.079929 167.773888 
L 272.813362 167.773888 
L 272.813362 166.545868 
L 273.40011 166.545868 
L 273.40011 165.317848 
L 273.656812 165.317848 
L 273.693483 162.861807 
L 273.950185 162.861807 
L 274.0602 160.405766 
L 274.610276 160.405766 
L 274.610276 157.949726 
L 276.040472 157.949726 
L 276.040472 155.493685 
L 276.480532 155.493685 
L 276.480532 154.265665 
L 278.644163 154.265665 
L 278.754178 151.809624 
L 278.790849 151.809624 
L 278.790849 150.581604 
L 279.047551 150.581604 
L 279.157566 148.125563 
L 279.377597 148.125563 
L 279.377597 145.669523 
L 279.67097 145.669523 
L 279.67097 144.441503 
L 279.927672 144.441503 
L 280.037687 141.985462 
L 280.074359 141.985462 
L 280.147702 139.529421 
L 280.587763 139.529421 
L 280.661106 137.073381 
L 280.917808 137.073381 
L 280.917808 134.61734 
L 281.064495 134.61734 
L 281.101166 132.161299 
L 281.284525 132.161299 
L 281.284525 130.933279 
L 281.431212 130.933279 
L 281.541227 128.477239 
L 281.577898 128.477239 
L 281.61457 126.021198 
L 281.907944 126.021198 
L 282.017959 123.565157 
L 282.091302 123.565157 
L 282.164646 119.881096 
L 282.237989 119.881096 
L 282.311332 117.425056 
L 282.641378 117.425056 
L 282.641378 114.969015 
L 282.861408 114.969015 
L 282.861408 113.740995 
L 283.044766 113.740995 
L 283.044766 112.512975 
L 283.191453 112.512975 
L 283.191453 110.056934 
L 283.411483 110.056934 
L 283.484827 107.600893 
L 283.55817 107.600893 
L 283.668185 103.916832 
L 283.851544 103.916832 
L 283.851544 102.688812 
L 283.99823 102.688812 
L 283.99823 101.460792 
L 284.658321 101.460792 
L 284.731664 99.004751 
L 284.84168 99.004751 
L 284.84168 97.776731 
L 295.476472 97.776731 
L 295.586487 94.09267 
L 295.696502 94.09267 
L 295.733174 91.636629 
L 297.126698 91.636629 
L 297.200042 87.952569 
L 297.676774 87.952569 
L 297.676774 86.724548 
L 297.933476 86.724548 
L 298.006819 83.040487 
L 298.116834 83.040487 
L 298.190178 80.584447 
L 298.410208 80.584447 
L 298.410208 78.128406 
L 298.630238 78.128406 
L 298.703582 75.672365 
L 298.850268 75.672365 
L 298.923612 71.988305 
L 301.160585 71.988305 
L 301.197257 69.532264 
L 301.307272 69.532264 
L 301.307272 68.304244 
L 301.527302 68.304244 
L 301.563974 63.392162 
L 301.673989 63.392162 
L 301.784004 57.252061 
L 301.857348 57.252061 
L 301.930691 53.568 
L 301.930691 53.568 
" clip-path="url(#p997dc073c7)" style="fill: none; stroke: #1f77b4; stroke-width: 1.5; stroke-linecap: square"/>
   </g>
   <g id="line2d_19">
    <path d="M 84.24749 295.488 
L 92.46195 295.488 
L 92.46195 293.031959 
L 92.608637 293.031959 
L 92.68198 290.575919 
L 92.90201 290.575919 
L 93.012026 283.207797 
L 93.085369 283.207797 
L 93.085369 279.523736 
L 207.024336 279.523736 
L 207.024336 277.067695 
L 207.171022 277.067695 
L 207.281038 272.155614 
L 207.75777 272.155614 
L 207.75777 270.927594 
L 208.124487 270.927594 
L 208.124487 269.699574 
L 208.307845 269.699574 
L 208.307845 267.243533 
L 208.527875 267.243533 
L 208.527875 266.015513 
L 213.295196 266.015513 
L 213.295196 263.559472 
L 213.625241 263.559472 
L 213.735256 261.103431 
L 214.835407 261.103431 
L 214.835407 259.875411 
L 215.165453 259.875411 
L 215.165453 258.647391 
L 215.348811 258.647391 
L 215.348811 257.419371 
L 215.678856 257.419371 
L 215.678856 256.19135 
L 215.935558 256.19135 
L 215.935558 254.96333 
L 216.228932 254.96333 
L 216.228932 253.73531 
L 216.742336 253.73531 
L 216.852351 248.823228 
L 217.145724 248.823228 
L 217.145724 247.595208 
L 217.365755 247.595208 
L 217.365755 246.367188 
L 217.549113 246.367188 
L 217.549113 243.911147 
L 219.19934 243.911147 
L 219.19934 242.683127 
L 220.336162 242.683127 
L 220.336162 241.455107 
L 220.482849 241.455107 
L 220.482849 240.227086 
L 220.739551 240.227086 
L 220.739551 238.999066 
L 220.959581 238.999066 
L 221.069596 236.543025 
L 221.583 236.543025 
L 221.583 235.315005 
L 221.766358 235.315005 
L 221.876373 232.858964 
L 221.913045 232.858964 
L 221.913045 231.630944 
L 222.096404 231.630944 
L 222.096404 230.402924 
L 222.389777 230.402924 
L 222.426449 227.946883 
L 223.74663 227.946883 
L 223.856645 225.490843 
L 224.223362 225.490843 
L 224.333377 223.034802 
L 224.590079 223.034802 
L 224.590079 221.806782 
L 224.773438 221.806782 
L 224.773438 220.578761 
L 224.920124 220.578761 
L 224.920124 218.122721 
L 227.19377 218.122721 
L 227.19377 216.894701 
L 227.377128 216.894701 
L 227.377128 215.66668 
L 227.597158 215.66668 
L 227.670502 211.982619 
L 228.073891 211.982619 
L 228.073891 210.754599 
L 228.403936 210.754599 
L 228.403936 208.298558 
L 228.550623 208.298558 
L 228.587294 205.842518 
L 228.807324 205.842518 
L 228.807324 203.386477 
L 229.174041 203.386477 
L 229.247385 200.930437 
L 229.320728 200.930437 
L 229.3574 197.246376 
L 229.650774 197.246376 
L 229.650774 196.018355 
L 229.79746 196.018355 
L 229.834132 192.334294 
L 230.054162 192.334294 
L 230.090834 189.878254 
L 230.200849 189.878254 
L 230.200849 188.650234 
L 233.391287 188.650234 
L 233.501302 184.966173 
L 243.292645 184.966173 
L 243.292645 183.738152 
L 244.136094 183.738152 
L 244.172766 181.282112 
L 262.985347 181.282112 
L 263.022019 178.826071 
L 263.315393 178.826071 
L 263.315393 176.37003 
L 286.198532 176.37003 
L 286.198532 173.91399 
L 286.491906 173.91399 
L 286.491906 172.68597 
L 287.262012 172.68597 
L 287.262012 171.457949 
L 287.628729 171.457949 
L 287.628729 170.229929 
L 287.958774 170.229929 
L 287.958774 169.001909 
L 288.325491 169.001909 
L 288.325491 167.773888 
L 288.802223 167.773888 
L 288.802223 166.545868 
L 289.095597 166.545868 
L 289.16894 164.089827 
L 291.515929 164.089827 
L 291.515929 162.861807 
L 291.955989 162.861807 
L 292.066004 160.405766 
L 292.139348 160.405766 
L 292.139348 159.177746 
L 293.789574 159.177746 
L 293.826246 156.721706 
L 293.936261 156.721706 
L 293.972932 154.265665 
L 294.156291 154.265665 
L 294.156291 153.037645 
L 294.486336 153.037645 
L 294.486336 151.809624 
L 294.669695 151.809624 
L 294.669695 149.353584 
L 295.073083 149.353584 
L 295.073083 148.125563 
L 295.4398 148.125563 
L 295.4398 146.897543 
L 295.733174 146.897543 
L 295.733174 144.441503 
L 303.177529 144.441503 
L 303.2142 141.985462 
L 303.580917 141.985462 
L 303.580917 139.529421 
L 304.204336 139.529421 
L 304.204336 137.073381 
L 305.487846 137.073381 
L 305.561189 134.61734 
L 305.891234 134.61734 
L 305.891234 132.161299 
L 306.111265 132.161299 
L 306.111265 130.933279 
L 306.331295 130.933279 
L 306.331295 128.477239 
L 306.514653 128.477239 
L 306.551325 126.021198 
L 306.66134 126.021198 
L 306.698012 123.565157 
L 306.844699 123.565157 
L 306.954714 119.881096 
L 307.1014 119.881096 
L 307.174744 117.425056 
L 307.358102 117.425056 
L 307.358102 116.197036 
L 308.458253 116.197036 
L 308.531597 111.284954 
L 309.521733 111.284954 
L 309.521733 110.056934 
L 309.741763 110.056934 
L 309.851778 105.144853 
L 309.961793 105.144853 
L 309.961793 103.916832 
L 310.10848 103.916832 
L 310.145151 101.460792 
L 310.291838 101.460792 
L 310.365182 97.776731 
L 310.621883 97.776731 
L 310.621883 96.548711 
L 345.680027 96.548711 
L 345.790042 92.86465 
L 345.900057 92.86465 
L 345.900057 91.636629 
L 346.230103 91.636629 
L 346.340118 87.952569 
L 346.59682 87.952569 
L 346.59682 86.724548 
L 346.743506 86.724548 
L 346.853521 83.040487 
L 347.110223 83.040487 
L 347.110223 80.584447 
L 347.440269 80.584447 
L 347.47694 78.128406 
L 347.586955 78.128406 
L 347.660299 75.672365 
L 347.953672 75.672365 
L 347.953672 74.444345 
L 348.100359 74.444345 
L 348.210374 70.760284 
L 348.467076 70.760284 
L 348.503748 65.848203 
L 348.687106 65.848203 
L 348.797121 62.164142 
L 348.833793 62.164142 
L 348.833793 59.708102 
L 348.98048 59.708102 
L 349.017152 53.568 
L 349.017152 53.568 
" clip-path="url(#p997dc073c7)" style="fill: none; stroke: #ff7f0e; stroke-width: 1.5; stroke-linecap: square"/>
   </g>
   <g id="line2d_20">
    <path d="M 75.923014 295.488 
L 94.955626 295.488 
L 94.955626 294.25998 
L 98.806154 294.25998 
L 98.806154 293.031959 
L 98.952841 293.031959 
L 99.026184 290.575919 
L 109.404275 290.575919 
L 109.477618 286.891858 
L 109.587633 286.891858 
L 109.697648 281.979777 
L 109.770992 281.979777 
L 109.807663 279.523736 
L 280.95448 279.523736 
L 280.95448 278.295716 
L 281.17451 278.295716 
L 281.17451 277.067695 
L 281.321197 277.067695 
L 281.431212 274.611655 
L 281.61457 274.611655 
L 281.687913 272.155614 
L 332.954948 272.155614 
L 333.064963 269.699574 
L 333.21165 269.699574 
L 333.321665 263.559472 
L 333.468352 263.559472 
L 333.505023 261.103431 
L 333.725053 261.103431 
L 333.725053 259.875411 
L 334.018427 259.875411 
L 334.018427 258.647391 
L 334.275129 258.647391 
L 334.275129 256.19135 
L 334.568503 256.19135 
L 334.641846 253.73531 
L 335.301936 253.73531 
L 335.411952 251.279269 
L 338.309016 251.279269 
L 338.382359 248.823228 
L 338.602389 248.823228 
L 338.602389 247.595208 
L 338.749076 247.595208 
L 338.859091 245.139168 
L 338.969106 245.139168 
L 339.079121 238.999066 
L 339.115793 238.999066 
L 339.225808 227.946883 
L 339.26248 227.946883 
L 339.372495 219.350741 
L 339.445838 219.350741 
L 339.445838 218.122721 
L 339.629197 218.122721 
L 339.629197 216.894701 
L 339.775884 216.894701 
L 339.849227 214.43866 
L 340.509318 214.43866 
L 340.545989 211.982619 
L 340.656004 211.982619 
L 340.656004 210.754599 
L 342.819635 210.754599 
L 342.819635 209.526579 
L 343.113008 209.526579 
L 343.113008 208.298558 
L 343.699755 208.298558 
L 343.699755 207.070538 
L 344.213159 207.070538 
L 344.213159 205.842518 
L 344.506533 205.842518 
L 344.506533 204.614497 
L 345.056608 204.614497 
L 345.056608 203.386477 
L 345.203295 203.386477 
L 345.203295 202.158457 
L 347.917001 202.158457 
L 347.990344 199.702416 
L 348.100359 199.702416 
L 348.173703 197.246376 
L 350.48402 197.246376 
L 350.520691 194.790335 
L 351.694186 194.790335 
L 351.767529 192.334294 
L 351.950888 192.334294 
L 352.060903 189.878254 
L 352.354276 189.878254 
L 352.464291 183.738152 
L 352.500963 183.738152 
L 352.574306 171.457949 
L 352.757665 171.457949 
L 352.757665 169.001909 
L 353.124382 169.001909 
L 353.197725 166.545868 
L 353.271069 166.545868 
L 353.271069 165.317848 
L 353.491099 165.317848 
L 353.491099 164.089827 
L 353.747801 164.089827 
L 353.747801 162.861807 
L 354.004503 162.861807 
L 354.041174 160.405766 
L 354.481235 160.405766 
L 354.554578 153.037645 
L 355.948103 153.037645 
L 356.021446 150.581604 
L 356.498178 150.581604 
L 356.498178 149.353584 
L 356.681537 149.353584 
L 356.681537 148.125563 
L 357.19494 148.125563 
L 357.304955 145.669523 
L 357.855031 145.669523 
L 357.965046 141.985462 
L 358.038389 141.985462 
L 358.148405 132.161299 
L 358.185076 132.161299 
L 358.25842 127.249218 
L 358.331763 127.249218 
L 358.405106 119.881096 
L 358.661808 119.881096 
L 358.661808 118.653076 
L 360.935454 118.653076 
L 360.935454 117.425056 
L 362.952397 117.425056 
L 362.952397 116.197036 
L 363.355786 116.197036 
L 363.355786 114.969015 
L 363.502473 114.969015 
L 363.502473 113.740995 
L 363.649159 113.740995 
L 363.759174 110.056934 
L 363.795846 110.056934 
L 363.905861 103.916832 
L 365.409401 103.916832 
L 365.446073 95.32069 
L 365.556088 95.32069 
L 365.556088 94.09267 
L 365.849461 94.09267 
L 365.959476 91.636629 
L 366.289522 91.636629 
L 366.289522 90.408609 
L 366.509552 90.408609 
L 366.582895 87.952569 
L 366.69291 87.952569 
L 366.802925 78.128406 
L 366.839597 78.128406 
L 366.839597 71.988305 
L 367.022956 71.988305 
L 367.022956 69.532264 
L 367.169642 69.532264 
L 367.169642 68.304244 
L 367.316329 68.304244 
L 367.316329 67.076223 
L 367.463016 67.076223 
L 367.499688 53.568 
L 367.499688 53.568 
" clip-path="url(#p997dc073c7)" style="fill: none; stroke: #2ca02c; stroke-width: 1.5; stroke-linecap: square"/>
   </g>
   <g id="line2d_21">
    <path d="M 79.040108 295.488 
L 102.766697 295.488 
L 102.766697 294.25998 
L 102.913384 294.25998 
L 102.913384 293.031959 
L 106.800584 293.031959 
L 106.910599 289.347898 
L 106.947271 289.347898 
L 107.057286 279.523736 
L 264.452215 279.523736 
L 264.452215 278.295716 
L 318.029567 278.295716 
L 318.139582 275.839675 
L 318.212925 275.839675 
L 318.32294 272.155614 
L 318.359612 272.155614 
L 318.396284 266.015513 
L 318.54297 266.015513 
L 318.616314 262.331452 
L 318.689657 262.331452 
L 318.689657 256.19135 
L 319.753136 256.19135 
L 319.863151 253.73531 
L 320.339884 253.73531 
L 320.339884 252.507289 
L 321.440035 252.507289 
L 321.440035 251.279269 
L 326.610744 251.279269 
L 326.720759 248.823228 
L 326.830774 248.823228 
L 326.830774 247.595208 
L 327.38085 247.595208 
L 327.38085 246.367188 
L 327.527536 246.367188 
L 327.527536 245.139168 
L 328.444329 245.139168 
L 328.517672 242.683127 
L 328.591016 242.683127 
L 328.701031 238.999066 
L 328.737702 238.999066 
L 328.847718 226.718863 
L 328.884389 226.718863 
L 328.957733 218.122721 
L 329.067748 218.122721 
L 329.067748 215.66668 
L 329.214435 215.66668 
L 329.214435 214.43866 
L 329.507808 214.43866 
L 329.507808 213.21064 
L 329.911197 213.21064 
L 329.911197 211.982619 
L 330.094555 211.982619 
L 330.094555 210.754599 
L 330.314586 210.754599 
L 330.314586 209.526579 
L 332.331529 209.526579 
L 332.331529 208.298558 
L 332.844933 208.298558 
L 332.844933 207.070538 
L 333.101635 207.070538 
L 333.174978 204.614497 
L 334.018427 204.614497 
L 334.128442 202.158457 
L 334.495159 202.158457 
L 334.568503 199.702416 
L 334.678518 199.702416 
L 334.678518 198.474396 
L 336.145386 198.474396 
L 336.255401 193.562315 
L 336.292072 193.562315 
L 336.365416 182.510132 
L 336.438759 182.510132 
L 336.475431 176.37003 
L 336.732133 176.37003 
L 336.842148 171.457949 
L 336.87882 171.457949 
L 336.915491 169.001909 
L 337.062178 169.001909 
L 337.062178 166.545868 
L 337.282208 166.545868 
L 337.282208 165.317848 
L 337.502238 165.317848 
L 337.502238 164.089827 
L 337.75894 164.089827 
L 337.75894 162.861807 
L 337.905627 162.861807 
L 337.905627 161.633787 
L 338.088986 161.633787 
L 338.088986 160.405766 
L 338.382359 160.405766 
L 338.382359 159.177746 
L 338.82242 159.177746 
L 338.82242 157.949726 
L 339.005778 157.949726 
L 339.005778 156.721706 
L 340.912706 156.721706 
L 340.912706 155.493685 
L 342.672948 155.493685 
L 342.672948 154.265665 
L 342.819635 154.265665 
L 342.819635 153.037645 
L 343.002993 153.037645 
L 343.002993 151.809624 
L 343.296367 151.809624 
L 343.36971 148.125563 
L 343.479725 148.125563 
L 343.58974 124.793178 
L 343.626412 124.793178 
L 343.736427 117.425056 
L 343.993129 117.425056 
L 344.066472 114.969015 
L 344.359846 114.969015 
L 344.359846 113.740995 
L 345.900057 113.740995 
L 345.900057 112.512975 
L 346.083416 112.512975 
L 346.083416 111.284954 
L 348.100359 111.284954 
L 348.100359 110.056934 
L 348.650435 110.056934 
L 348.650435 108.828914 
L 348.870465 108.828914 
L 348.870465 107.600893 
L 349.163838 107.600893 
L 349.163838 106.372873 
L 349.933944 106.372873 
L 349.933944 105.144853 
L 350.117303 105.144853 
L 350.227318 102.688812 
L 350.48402 102.688812 
L 350.594035 99.004751 
L 350.667378 99.004751 
L 350.777393 79.356426 
L 350.814065 79.356426 
L 350.92408 63.392162 
L 350.960752 63.392162 
L 351.070767 59.708102 
L 351.107438 59.708102 
L 351.180782 57.252061 
L 353.417755 57.252061 
L 353.454427 53.568 
L 353.454427 53.568 
" clip-path="url(#p997dc073c7)" style="fill: none; stroke: #d62728; stroke-width: 1.5; stroke-linecap: square"/>
   </g>
   <g id="line2d_22">
    <path d="M 77.793271 295.488 
L 100.052992 295.488 
L 100.052992 294.25998 
L 103.793505 294.25998 
L 103.793505 293.031959 
L 104.12355 293.031959 
L 104.12355 291.803939 
L 104.453595 291.803939 
L 104.453595 290.575919 
L 107.79072 290.575919 
L 107.864063 286.891858 
L 107.974078 286.891858 
L 108.01075 281.979777 
L 108.120765 281.979777 
L 108.120765 279.523736 
L 311.905393 279.523736 
L 311.905393 278.295716 
L 312.05208 278.295716 
L 312.05208 277.067695 
L 312.198767 277.067695 
L 312.235438 274.611655 
L 312.382125 274.611655 
L 312.418797 272.155614 
L 312.528812 272.155614 
L 312.638827 264.787492 
L 312.748842 264.787492 
L 312.748842 263.559472 
L 312.895529 263.559472 
L 313.005544 261.103431 
L 313.078887 261.103431 
L 313.078887 259.875411 
L 313.262246 259.875411 
L 313.262246 258.647391 
L 313.702306 258.647391 
L 313.702306 257.419371 
L 313.959008 257.419371 
L 313.959008 256.19135 
L 314.21571 256.19135 
L 314.21571 254.96333 
L 316.929416 254.96333 
L 316.929416 253.73531 
L 317.259461 253.73531 
L 317.259461 252.507289 
L 317.88288 252.507289 
L 317.88288 251.279269 
L 318.139582 251.279269 
L 318.249597 247.595208 
L 318.286268 247.595208 
L 318.396284 236.543025 
L 318.469627 236.543025 
L 318.54297 226.718863 
L 320.889959 226.718863 
L 320.926631 219.350741 
L 321.036646 219.350741 
L 321.036646 218.122721 
L 321.476706 218.122721 
L 321.476706 216.894701 
L 321.696736 216.894701 
L 321.696736 215.66668 
L 322.320155 215.66668 
L 322.320155 214.43866 
L 323.310291 214.43866 
L 323.310291 213.21064 
L 323.603665 213.21064 
L 323.603665 211.982619 
L 324.300427 211.982619 
L 324.300427 210.754599 
L 326.977461 210.754599 
L 327.087476 208.298558 
L 327.307506 208.298558 
L 327.307506 207.070538 
L 327.60088 207.070538 
L 327.60088 205.842518 
L 327.747567 205.842518 
L 327.857582 200.930437 
L 327.894253 200.930437 
L 328.004269 192.334294 
L 328.077612 192.334294 
L 328.150955 184.966173 
L 329.837853 184.966173 
L 329.911197 180.054091 
L 330.131227 180.054091 
L 330.241242 177.598051 
L 330.277914 177.598051 
L 330.277914 176.37003 
L 330.791318 176.37003 
L 330.901333 172.68597 
L 331.011348 172.68597 
L 331.011348 171.457949 
L 331.194706 171.457949 
L 331.194706 170.229929 
L 331.48808 170.229929 
L 331.48808 169.001909 
L 334.055099 169.001909 
L 334.055099 167.773888 
L 335.411952 167.773888 
L 335.411952 166.545868 
L 335.59531 166.545868 
L 335.59531 165.317848 
L 335.998699 165.317848 
L 335.998699 164.089827 
L 336.145386 164.089827 
L 336.255401 161.633787 
L 336.402087 161.633787 
L 336.438759 159.177746 
L 336.548774 159.177746 
L 336.548774 157.949726 
L 337.722269 157.949726 
L 337.795612 155.493685 
L 337.868955 155.493685 
L 337.868955 154.265665 
L 338.088986 154.265665 
L 338.162329 149.353584 
L 338.309016 149.353584 
L 338.345687 144.441503 
L 338.639061 144.441503 
L 338.749076 141.985462 
L 338.859091 141.985462 
L 338.859091 140.757442 
L 339.225808 140.757442 
L 339.335823 135.84536 
L 339.372495 135.84536 
L 339.48251 127.249218 
L 339.519182 127.249218 
L 339.629197 123.565157 
L 339.775884 123.565157 
L 339.775884 122.337137 
L 340.142601 122.337137 
L 340.142601 121.109117 
L 341.756155 121.109117 
L 341.756155 119.881096 
L 342.232887 119.881096 
L 342.232887 118.653076 
L 342.452918 118.653076 
L 342.562933 116.197036 
L 343.36971 116.197036 
L 343.36971 114.969015 
L 343.553069 114.969015 
L 343.553069 113.740995 
L 343.699755 113.740995 
L 343.699755 112.512975 
L 344.249831 112.512975 
L 344.359846 108.828914 
L 344.616548 108.828914 
L 344.65322 106.372873 
L 344.799906 106.372873 
L 344.799906 105.144853 
L 345.09328 105.144853 
L 345.166623 100.232772 
L 345.276638 100.232772 
L 345.276638 91.636629 
L 345.53334 91.636629 
L 345.53334 90.408609 
L 347.47694 90.408609 
L 347.47694 87.952569 
L 347.696971 87.952569 
L 347.770314 83.040487 
L 347.917001 83.040487 
L 348.027016 75.672365 
L 348.063688 75.672365 
L 348.137031 68.304244 
L 348.210374 68.304244 
L 348.320389 64.620183 
L 348.357061 64.620183 
L 348.357061 63.392162 
L 349.787257 63.392162 
L 349.860601 53.568 
L 349.860601 53.568 
" clip-path="url(#p997dc073c7)" style="fill: none; stroke: #9467bd; stroke-width: 1.5; stroke-linecap: square"/>
   </g>
   <g id="line2d_23">
    <path d="M 73.832727 295.488 
L 81.057052 295.488 
L 81.057052 294.25998 
L 87.731301 294.25998 
L 87.731301 293.031959 
L 88.024675 293.031959 
L 88.024675 291.803939 
L 88.318048 291.803939 
L 88.428063 289.347898 
L 92.131905 289.347898 
L 92.131905 288.119878 
L 92.315263 288.119878 
L 92.425278 284.435817 
L 92.608637 284.435817 
L 92.645309 281.979777 
L 92.755324 281.979777 
L 92.791995 279.523736 
L 302.590782 279.523736 
L 302.700797 277.067695 
L 302.920827 277.067695 
L 302.99417 274.611655 
L 303.104185 274.611655 
L 303.104185 272.155614 
L 303.250872 272.155614 
L 303.360887 262.331452 
L 303.580917 262.331452 
L 303.617589 259.875411 
L 303.727604 259.875411 
L 303.800948 257.419371 
L 303.947634 257.419371 
L 303.947634 256.19135 
L 304.351023 256.19135 
L 304.351023 254.96333 
L 304.901099 254.96333 
L 304.901099 253.73531 
L 307.614804 253.73531 
L 307.614804 252.507289 
L 309.705091 252.507289 
L 309.705091 251.279269 
L 309.925121 251.279269 
L 309.925121 250.051249 
L 310.32851 250.051249 
L 310.401853 247.595208 
L 310.475197 247.595208 
L 310.585212 243.911147 
L 310.658555 243.911147 
L 310.76857 225.490843 
L 310.805242 225.490843 
L 310.805242 219.350741 
L 310.9886 219.350741 
L 310.9886 218.122721 
L 311.135287 218.122721 
L 311.135287 216.894701 
L 313.152231 216.894701 
L 313.188902 214.43866 
L 313.408933 214.43866 
L 313.518948 211.982619 
L 313.812321 211.982619 
L 313.885665 209.526579 
L 314.43574 209.526579 
L 314.43574 208.298558 
L 315.059159 208.298558 
L 315.059159 207.070538 
L 315.352533 207.070538 
L 315.352533 205.842518 
L 316.342668 205.842518 
L 316.342668 204.614497 
L 316.526027 204.614497 
L 316.526027 203.386477 
L 318.286268 203.386477 
L 318.286268 202.158457 
L 318.432955 202.158457 
L 318.469627 199.702416 
L 320.193197 199.702416 
L 320.229868 187.422213 
L 320.339884 187.422213 
L 320.376555 184.966173 
L 320.669929 184.966173 
L 320.779944 178.826071 
L 322.906902 178.826071 
L 322.980246 171.457949 
L 323.053589 171.457949 
L 323.163604 167.773888 
L 323.456978 167.773888 
L 323.456978 166.545868 
L 323.603665 166.545868 
L 323.603665 165.317848 
L 324.37377 165.317848 
L 324.447114 162.861807 
L 324.850502 162.861807 
L 324.850502 161.633787 
L 326.390714 161.633787 
L 326.427385 159.177746 
L 326.684087 159.177746 
L 326.684087 157.949726 
L 327.014133 157.949726 
L 327.014133 156.721706 
L 327.197491 156.721706 
L 327.197491 155.493685 
L 327.747567 155.493685 
L 327.857582 151.809624 
L 327.930925 151.809624 
L 328.04094 148.125563 
L 328.077612 148.125563 
L 328.077612 144.441503 
L 328.297642 144.441503 
L 328.297642 143.213482 
L 328.517672 143.213482 
L 328.591016 140.757442 
L 330.974676 140.757442 
L 331.084691 130.933279 
L 331.121363 130.933279 
L 331.158035 128.477239 
L 331.26805 128.477239 
L 331.26805 121.109117 
L 333.798397 121.109117 
L 333.87174 118.653076 
L 334.201786 118.653076 
L 334.201786 117.425056 
L 334.348472 117.425056 
L 334.348472 116.197036 
L 334.715189 116.197036 
L 334.825204 113.740995 
L 334.971891 113.740995 
L 335.045235 111.284954 
L 335.338608 111.284954 
L 335.338608 110.056934 
L 335.631982 110.056934 
L 335.631982 108.828914 
L 335.778669 108.828914 
L 335.778669 107.600893 
L 335.925355 107.600893 
L 335.925355 106.372873 
L 336.402087 106.372873 
L 336.438759 103.916832 
L 338.639061 103.916832 
L 338.749076 100.232772 
L 338.82242 100.232772 
L 338.859091 91.636629 
L 339.04245 91.636629 
L 339.115793 87.952569 
L 339.225808 87.952569 
L 339.335823 74.444345 
L 339.372495 74.444345 
L 339.372495 70.760284 
L 339.629197 70.760284 
L 339.665869 68.304244 
L 339.812555 68.304244 
L 339.885899 60.936122 
L 339.959242 60.936122 
L 340.032586 57.252061 
L 340.105929 57.252061 
L 340.105929 53.568 
L 340.105929 53.568 
" clip-path="url(#p997dc073c7)" style="fill: none; stroke: #8c564b; stroke-width: 1.5; stroke-linecap: square"/>
   </g>
   <g id="line2d_24">
    <path d="M 82.267218 295.488 
L 90.51835 295.488 
L 90.51835 294.25998 
L 90.665037 294.25998 
L 90.73838 291.803939 
L 90.811724 291.803939 
L 90.921739 281.979777 
L 91.031754 281.979777 
L 91.105097 279.523736 
L 284.144917 279.523736 
L 284.144917 278.295716 
L 284.621649 278.295716 
L 284.731664 275.839675 
L 284.988366 275.839675 
L 285.06171 273.383635 
L 285.208397 273.383635 
L 285.28174 268.471553 
L 338.712404 268.471553 
L 338.749076 266.015513 
L 338.859091 266.015513 
L 338.969106 261.103431 
L 339.225808 261.103431 
L 339.225808 259.875411 
L 339.372495 259.875411 
L 339.372495 258.647391 
L 339.629197 258.647391 
L 339.629197 257.419371 
L 339.92257 257.419371 
L 339.92257 256.19135 
L 340.252616 256.19135 
L 340.252616 254.96333 
L 343.296367 254.96333 
L 343.296367 253.73531 
L 343.443054 253.73531 
L 343.443054 252.507289 
L 344.87325 252.507289 
L 344.87325 251.279269 
L 345.09328 251.279269 
L 345.09328 250.051249 
L 345.606684 250.051249 
L 345.606684 248.823228 
L 345.826714 248.823228 
L 345.900057 246.367188 
L 347.733642 246.367188 
L 347.733642 245.139168 
L 349.273854 245.139168 
L 349.383869 242.683127 
L 349.677242 242.683127 
L 349.787257 236.543025 
L 349.823929 236.543025 
L 349.933944 226.718863 
L 349.970616 226.718863 
L 350.043959 221.806782 
L 350.263989 221.806782 
L 350.263989 219.350741 
L 350.447348 219.350741 
L 350.48402 216.894701 
L 352.64765 216.894701 
L 352.64765 215.66668 
L 352.794337 215.66668 
L 352.794337 214.43866 
L 353.564442 214.43866 
L 353.564442 213.21064 
L 354.077846 213.21064 
L 354.077846 211.982619 
L 354.297876 211.982619 
L 354.297876 210.754599 
L 354.59125 210.754599 
L 354.59125 209.526579 
L 355.104654 209.526579 
L 355.104654 208.298558 
L 357.19494 208.298558 
L 357.304955 205.842518 
L 357.745016 205.842518 
L 357.745016 204.614497 
L 358.001718 204.614497 
L 358.001718 203.386477 
L 358.331763 203.386477 
L 358.331763 202.158457 
L 358.515122 202.158457 
L 358.515122 200.930437 
L 358.735152 200.930437 
L 358.771823 198.474396 
L 358.881839 198.474396 
L 358.991854 184.966173 
L 359.065197 184.966173 
L 359.13854 177.598051 
L 359.248555 177.598051 
L 359.248555 175.14201 
L 359.468586 175.14201 
L 359.505257 172.68597 
L 359.761959 172.68597 
L 359.761959 171.457949 
L 359.908646 171.457949 
L 359.908646 170.229929 
L 360.128676 170.229929 
L 360.128676 169.001909 
L 360.312035 169.001909 
L 360.312035 167.773888 
L 360.752095 167.773888 
L 360.86211 165.317848 
L 361.045469 165.317848 
L 361.045469 164.089827 
L 361.302171 164.089827 
L 361.302171 162.861807 
L 362.549008 162.861807 
L 362.622352 159.177746 
L 364.96934 159.177746 
L 365.006012 156.721706 
L 365.336057 156.721706 
L 365.336057 155.493685 
L 365.592759 155.493685 
L 365.592759 154.265665 
L 365.739446 154.265665 
L 365.849461 151.809624 
L 366.25285 151.809624 
L 366.326193 149.353584 
L 368.269793 149.353584 
L 368.379808 139.529421 
L 368.41648 139.529421 
L 368.526495 127.249218 
L 369.993363 127.249218 
L 369.993363 126.021198 
L 370.176722 126.021198 
L 370.176722 124.793178 
L 370.506767 124.793178 
L 370.506767 123.565157 
L 371.093514 123.565157 
L 371.093514 122.337137 
L 371.460231 122.337137 
L 371.460231 121.109117 
L 371.826948 121.109117 
L 371.826948 119.881096 
L 372.08365 119.881096 
L 372.08365 118.653076 
L 372.230337 118.653076 
L 372.230337 117.425056 
L 373.623861 117.425056 
L 373.697205 114.969015 
L 373.770548 114.969015 
L 373.880563 111.284954 
L 373.917235 111.284954 
L 373.917235 110.056934 
L 374.137265 110.056934 
L 374.24728 106.372873 
L 374.760684 106.372873 
L 374.870699 103.916832 
L 374.907371 103.916832 
L 374.907371 102.688812 
L 375.237416 102.688812 
L 375.310759 97.776731 
L 375.384103 97.776731 
L 375.420774 89.180589 
L 375.53079 89.180589 
L 375.604133 84.268508 
L 375.677476 84.268508 
L 375.677476 80.584447 
L 375.824163 80.584447 
L 375.824163 78.128406 
L 376.117537 78.128406 
L 376.154208 75.672365 
L 376.337567 75.672365 
L 376.337567 74.444345 
L 376.557597 74.444345 
L 376.667612 70.760284 
L 376.704284 70.760284 
L 376.777627 62.164142 
L 378.794571 62.164142 
L 378.904586 53.568 
L 378.904586 53.568 
" clip-path="url(#p997dc073c7)" style="fill: none; stroke: #e377c2; stroke-width: 1.5; stroke-linecap: square"/>
   </g>
   <g id="line2d_25">
    <path d="M 81.02038 295.488 
L 96.56918 295.488 
L 96.56918 294.25998 
L 97.229271 294.25998 
L 97.229271 293.031959 
L 97.412629 293.031959 
L 97.485973 290.575919 
L 97.889361 290.575919 
L 97.999376 286.891858 
L 98.036048 286.891858 
L 98.146063 280.751756 
L 98.219407 280.751756 
L 98.219407 279.523736 
L 277.06728 279.523736 
L 277.177295 277.067695 
L 277.360653 277.067695 
L 277.360653 275.839675 
L 277.50734 275.839675 
L 277.580683 273.383635 
L 277.654027 273.383635 
L 277.72737 270.927594 
L 277.800713 270.927594 
L 277.837385 264.787492 
L 277.984072 264.787492 
L 278.057415 262.331452 
L 278.130759 262.331452 
L 278.16743 259.875411 
L 278.424132 259.875411 
L 278.424132 258.647391 
L 278.644163 258.647391 
L 278.644163 257.419371 
L 278.827521 257.419371 
L 278.827521 256.19135 
L 281.907944 256.19135 
L 281.907944 254.96333 
L 282.237989 254.96333 
L 282.237989 253.73531 
L 282.568034 253.73531 
L 282.568034 252.507289 
L 283.044766 252.507289 
L 283.044766 251.279269 
L 283.374812 251.279269 
L 283.374812 250.051249 
L 283.521498 250.051249 
L 283.521498 248.823228 
L 286.161861 248.823228 
L 286.271876 243.911147 
L 286.308547 243.911147 
L 286.418563 237.771046 
L 286.455234 237.771046 
L 286.491906 226.718863 
L 286.601921 226.718863 
L 286.601921 225.490843 
L 286.78528 225.490843 
L 286.78528 223.034802 
L 286.968638 223.034802 
L 286.968638 221.806782 
L 288.105461 221.806782 
L 288.105461 220.578761 
L 288.252148 220.578761 
L 288.252148 219.350741 
L 288.582193 219.350741 
L 288.582193 218.122721 
L 288.72888 218.122721 
L 288.72888 216.894701 
L 288.875566 216.894701 
L 288.875566 215.66668 
L 291.955989 215.66668 
L 291.955989 214.43866 
L 293.716231 214.43866 
L 293.716231 213.21064 
L 294.082948 213.21064 
L 294.082948 211.982619 
L 294.596351 211.982619 
L 294.596351 210.754599 
L 295.293114 210.754599 
L 295.293114 209.526579 
L 295.586487 209.526579 
L 295.586487 208.298558 
L 295.733174 208.298558 
L 295.733174 207.070538 
L 296.136563 207.070538 
L 296.209906 204.614497 
L 296.283249 204.614497 
L 296.393265 198.474396 
L 296.429936 198.474396 
L 296.429936 192.334294 
L 298.080163 192.334294 
L 298.116834 187.422213 
L 298.226849 187.422213 
L 298.226849 184.966173 
L 298.373536 184.966173 
L 298.410208 180.054091 
L 298.66691 180.054091 
L 298.703582 177.598051 
L 298.923612 177.598051 
L 298.923612 176.37003 
L 301.123914 176.37003 
L 301.123914 175.14201 
L 301.380616 175.14201 
L 301.380616 173.91399 
L 301.527302 173.91399 
L 301.527302 172.68597 
L 301.673989 172.68597 
L 301.673989 171.457949 
L 301.857348 171.457949 
L 301.857348 170.229929 
L 302.040706 170.229929 
L 302.040706 169.001909 
L 303.030842 169.001909 
L 303.140857 166.545868 
L 303.177529 166.545868 
L 303.177529 165.317848 
L 303.507574 165.317848 
L 303.507574 164.089827 
L 303.690933 164.089827 
L 303.690933 162.861807 
L 303.874291 162.861807 
L 303.874291 161.633787 
L 304.020978 161.633787 
L 304.020978 160.405766 
L 304.314351 160.405766 
L 304.314351 159.177746 
L 306.074593 159.177746 
L 306.074593 157.949726 
L 306.294623 157.949726 
L 306.367966 149.353584 
L 306.44131 149.353584 
L 306.514653 144.441503 
L 306.771355 144.441503 
L 306.844699 141.985462 
L 306.954714 141.985462 
L 306.954714 140.757442 
L 307.138072 140.757442 
L 307.248087 133.38932 
L 307.284759 133.38932 
L 307.284759 132.161299 
L 307.431446 132.161299 
L 307.431446 130.933279 
L 307.578133 130.933279 
L 307.578133 129.705259 
L 309.595076 129.705259 
L 309.631748 127.249218 
L 309.88845 127.249218 
L 309.961793 122.337137 
L 310.291838 122.337137 
L 310.401853 117.425056 
L 310.621883 117.425056 
L 310.621883 116.197036 
L 312.822185 116.197036 
L 312.822185 114.969015 
L 313.042216 114.969015 
L 313.042216 113.740995 
L 313.445604 113.740995 
L 313.445604 112.512975 
L 314.142367 112.512975 
L 314.252382 110.056934 
L 314.289053 110.056934 
L 314.399068 107.600893 
L 314.43574 107.600893 
L 314.472412 100.232772 
L 314.619099 100.232772 
L 314.65577 91.636629 
L 314.839129 91.636629 
L 314.839129 90.408609 
L 315.022487 90.408609 
L 315.059159 87.952569 
L 315.205846 87.952569 
L 315.315861 78.128406 
L 315.352533 78.128406 
L 315.462548 67.076223 
L 315.535891 67.076223 
L 315.535891 65.848203 
L 317.699521 65.848203 
L 317.809536 62.164142 
L 317.88288 62.164142 
L 317.88288 53.568 
L 317.88288 53.568 
" clip-path="url(#p997dc073c7)" style="fill: none; stroke: #7f7f7f; stroke-width: 1.5; stroke-linecap: square"/>
   </g>
   <g id="line2d_26">
    <path d="M 84.174146 295.488 
L 107.864063 295.488 
L 107.864063 294.25998 
L 108.084094 294.25998 
L 108.194109 291.803939 
L 108.340795 291.803939 
L 108.414139 289.347898 
L 108.487482 289.347898 
L 108.597497 283.207797 
L 108.634169 283.207797 
L 108.707512 280.751756 
L 108.780856 280.751756 
L 108.780856 279.523736 
L 259.354849 279.523736 
L 259.354849 278.295716 
L 259.501536 278.295716 
L 259.501536 277.067695 
L 261.115091 277.067695 
L 261.115091 275.839675 
L 261.261778 275.839675 
L 261.371793 270.927594 
L 261.555151 270.927594 
L 261.628495 262.331452 
L 261.701838 262.331452 
L 261.701838 261.103431 
L 264.048827 261.103431 
L 264.048827 259.875411 
L 264.305528 259.875411 
L 264.305528 258.647391 
L 299.840404 258.647391 
L 299.840404 257.419371 
L 300.317136 257.419371 
L 300.317136 256.19135 
L 300.903883 256.19135 
L 300.903883 254.96333 
L 301.2706 254.96333 
L 301.2706 253.73531 
L 301.527302 253.73531 
L 301.527302 252.507289 
L 302.260736 252.507289 
L 302.260736 251.279269 
L 302.444095 251.279269 
L 302.55411 248.823228 
L 302.627453 248.823228 
L 302.627453 247.595208 
L 302.77414 247.595208 
L 302.847483 241.455107 
L 302.920827 241.455107 
L 302.920827 237.771046 
L 303.104185 237.771046 
L 303.140857 235.315005 
L 303.507574 235.315005 
L 303.580917 231.630944 
L 303.654261 231.630944 
L 303.690933 227.946883 
L 303.874291 227.946883 
L 303.984306 221.806782 
L 304.020978 221.806782 
L 304.020978 220.578761 
L 304.27768 220.578761 
L 304.387695 218.122721 
L 304.461038 218.122721 
L 304.461038 216.894701 
L 304.71774 216.894701 
L 304.71774 215.66668 
L 305.011114 215.66668 
L 305.011114 214.43866 
L 305.414502 214.43866 
L 305.414502 213.21064 
L 305.707876 213.21064 
L 305.707876 211.982619 
L 305.927906 211.982619 
L 305.927906 210.754599 
L 308.018193 210.754599 
L 308.018193 209.526579 
L 308.38491 209.526579 
L 308.38491 208.298558 
L 308.60494 208.298558 
L 308.714955 205.842518 
L 308.788299 205.842518 
L 308.898314 203.386477 
L 308.971657 203.386477 
L 308.971657 202.158457 
L 309.118344 202.158457 
L 309.155016 197.246376 
L 309.631748 197.246376 
L 309.668419 194.790335 
L 309.815106 194.790335 
L 309.815106 193.562315 
L 312.235438 193.562315 
L 312.308782 191.106274 
L 312.382125 191.106274 
L 312.49214 186.194193 
L 312.528812 186.194193 
L 312.638827 176.37003 
L 312.675499 176.37003 
L 312.675499 175.14201 
L 314.325725 175.14201 
L 314.399068 172.68597 
L 314.582427 172.68597 
L 314.692442 170.229929 
L 314.802457 170.229929 
L 314.802457 169.001909 
L 316.085967 169.001909 
L 316.15931 166.545868 
L 316.59937 166.545868 
L 316.59937 165.317848 
L 316.856072 165.317848 
L 316.856072 164.089827 
L 317.039431 164.089827 
L 317.039431 162.861807 
L 317.589506 162.861807 
L 317.699521 160.405766 
L 318.029567 160.405766 
L 318.139582 157.949726 
L 318.212925 157.949726 
L 318.286268 154.265665 
L 318.432955 154.265665 
L 318.432955 151.809624 
L 318.873016 151.809624 
L 318.873016 150.581604 
L 319.019702 150.581604 
L 319.019702 149.353584 
L 319.313076 149.353584 
L 319.313076 148.125563 
L 319.643121 148.125563 
L 319.716465 145.669523 
L 319.789808 145.669523 
L 319.863151 140.757442 
L 321.146661 140.757442 
L 321.183333 129.705259 
L 321.293348 129.705259 
L 321.293348 128.477239 
L 321.476706 128.477239 
L 321.586721 126.021198 
L 321.623393 126.021198 
L 321.623393 124.793178 
L 321.916767 124.793178 
L 321.916767 123.565157 
L 322.100125 123.565157 
L 322.100125 122.337137 
L 322.356827 122.337137 
L 322.356827 121.109117 
L 322.503514 121.109117 
L 322.503514 119.881096 
L 322.650201 119.881096 
L 322.650201 118.653076 
L 322.943574 118.653076 
L 322.943574 117.425056 
L 323.200276 117.425056 
L 323.200276 116.197036 
L 323.970382 116.197036 
L 323.970382 114.969015 
L 324.263755 114.969015 
L 324.263755 113.740995 
L 324.557129 113.740995 
L 324.557129 112.512975 
L 324.777159 112.512975 
L 324.777159 111.284954 
L 326.757431 111.284954 
L 326.830774 108.828914 
L 328.921061 108.828914 
L 329.031076 105.144853 
L 329.214435 105.144853 
L 329.251106 102.688812 
L 329.691167 102.688812 
L 329.801182 100.232772 
L 329.911197 100.232772 
L 329.911197 99.004751 
L 330.094555 99.004751 
L 330.20457 94.09267 
L 330.241242 94.09267 
L 330.277914 87.952569 
L 330.461272 87.952569 
L 330.571287 83.040487 
L 330.681302 83.040487 
L 330.791318 80.584447 
L 330.864661 80.584447 
L 330.974676 73.216325 
L 331.011348 73.216325 
L 331.048019 67.076223 
L 331.231378 67.076223 
L 331.26805 64.620183 
L 331.378065 64.620183 
L 331.451408 53.568 
L 331.451408 53.568 
" clip-path="url(#p997dc073c7)" style="fill: none; stroke: #bcbd22; stroke-width: 1.5; stroke-linecap: square"/>
   </g>
   <g id="line2d_27">
    <path d="M 97.85269 295.488 
L 108.707512 295.488 
L 108.817527 290.575919 
L 108.890871 290.575919 
L 109.000886 283.207797 
L 109.037558 283.207797 
L 109.110901 279.523736 
L 322.320155 279.523736 
L 322.320155 278.295716 
L 322.650201 278.295716 
L 322.650201 277.067695 
L 322.833559 277.067695 
L 322.943574 274.611655 
L 323.053589 274.611655 
L 323.053589 273.383635 
L 323.200276 273.383635 
L 323.310291 266.015513 
L 323.420306 266.015513 
L 323.420306 264.787492 
L 323.603665 264.787492 
L 323.677008 261.103431 
L 323.93371 261.103431 
L 323.93371 258.647391 
L 324.300427 258.647391 
L 324.300427 257.419371 
L 324.777159 257.419371 
L 324.777159 256.19135 
L 329.251106 256.19135 
L 329.251106 254.96333 
L 329.471136 254.96333 
L 329.471136 253.73531 
L 330.131227 253.73531 
L 330.131227 252.507289 
L 330.901333 252.507289 
L 330.901333 251.279269 
L 331.048019 251.279269 
L 331.048019 250.051249 
L 331.304721 250.051249 
L 331.304721 248.823228 
L 331.451408 248.823228 
L 331.561423 245.139168 
L 331.598095 245.139168 
L 331.598095 243.911147 
L 360.42205 243.911147 
L 360.532065 241.455107 
L 360.752095 241.455107 
L 360.825439 238.999066 
L 360.935454 238.999066 
L 360.935454 237.771046 
L 361.08214 237.771046 
L 361.192156 232.858964 
L 361.302171 232.858964 
L 361.302171 227.946883 
L 361.668888 227.946883 
L 361.742231 224.262822 
L 361.888918 224.262822 
L 361.888918 221.806782 
L 362.292306 221.806782 
L 362.292306 220.578761 
L 364.52928 220.578761 
L 364.52928 219.350741 
L 364.785982 219.350741 
L 364.785982 218.122721 
L 366.106163 218.122721 
L 366.106163 216.894701 
L 368.086435 216.894701 
L 368.086435 215.66668 
L 369.039899 215.66668 
L 369.039899 214.43866 
L 370.250065 214.43866 
L 370.250065 213.21064 
L 370.836812 213.21064 
L 370.836812 211.982619 
L 371.386888 211.982619 
L 371.386888 210.754599 
L 372.046978 210.754599 
L 372.120322 208.298558 
L 372.74374 208.298558 
L 372.74374 207.070538 
L 372.927099 207.070538 
L 373.037114 202.158457 
L 373.073786 202.158457 
L 373.147129 192.334294 
L 373.293816 192.334294 
L 373.330488 182.510132 
L 373.440503 182.510132 
L 373.440503 181.282112 
L 373.623861 181.282112 
L 373.623861 180.054091 
L 374.613997 180.054091 
L 374.613997 178.826071 
L 376.227552 178.826071 
L 376.227552 177.598051 
L 376.520925 177.598051 
L 376.520925 176.37003 
L 379.271303 176.37003 
L 379.271303 175.14201 
L 379.491333 175.14201 
L 379.564676 172.68597 
L 381.911665 172.68597 
L 381.911665 171.457949 
L 382.095024 171.457949 
L 382.095024 170.229929 
L 382.681771 170.229929 
L 382.681771 169.001909 
L 385.945552 169.001909 
L 385.945552 167.773888 
L 386.605642 167.773888 
L 386.605642 166.545868 
L 386.752329 166.545868 
L 386.752329 165.317848 
L 387.009031 165.317848 
L 387.009031 164.089827 
L 387.19239 164.089827 
L 387.19239 162.861807 
L 388.365884 162.861807 
L 388.475899 160.405766 
L 388.549242 160.405766 
L 388.659258 148.125563 
L 388.842616 148.125563 
L 388.915959 141.985462 
L 389.209333 141.985462 
L 389.246005 138.301401 
L 389.392692 138.301401 
L 389.466035 134.61734 
L 389.869424 134.61734 
L 389.979439 127.249218 
L 390.309484 127.249218 
L 390.309484 126.021198 
L 390.712873 126.021198 
L 390.712873 124.793178 
L 390.932903 124.793178 
L 390.932903 123.565157 
L 391.116261 123.565157 
L 391.116261 122.337137 
L 391.482978 122.337137 
L 391.556322 118.653076 
L 391.703009 118.653076 
L 391.813024 116.197036 
L 392.546458 116.197036 
L 392.546458 114.969015 
L 392.729816 114.969015 
L 392.729816 113.740995 
L 392.949846 113.740995 
L 392.949846 112.512975 
L 395.40685 112.512975 
L 395.480193 110.056934 
L 395.590209 110.056934 
L 395.700224 95.32069 
L 395.736895 95.32069 
L 395.84691 85.496528 
L 395.920254 85.496528 
L 395.920254 84.268508 
L 397.313778 84.268508 
L 397.313778 81.812467 
L 397.533809 81.812467 
L 397.607152 79.356426 
L 397.753839 79.356426 
L 397.863854 75.672365 
L 397.900526 75.672365 
L 397.900526 70.760284 
L 398.083884 70.760284 
L 398.193899 65.848203 
L 398.267243 65.848203 
L 398.303914 63.392162 
L 398.450601 63.392162 
L 398.487273 53.568 
L 398.487273 53.568 
" clip-path="url(#p997dc073c7)" style="fill: none; stroke: #17becf; stroke-width: 1.5; stroke-linecap: square"/>
   </g>
   <g id="patch_3">
    <path d="M 57.6 307.584 
L 57.6 41.472 
" style="fill: none; stroke: #000000; stroke-width: 0.8; stroke-linejoin: miter; stroke-linecap: square"/>
   </g>
   <g id="patch_4">
    <path d="M 414.72 307.584 
L 414.72 41.472 
" style="fill: none; stroke: #000000; stroke-width: 0.8; stroke-linejoin: miter; stroke-linecap: square"/>
   </g>
   <g id="patch_5">
    <path d="M 57.6 307.584 
L 414.72 307.584 
" style="fill: none; stroke: #000000; stroke-width: 0.8; stroke-linejoin: miter; stroke-linecap: square"/>
   </g>
   <g id="patch_6">
    <path d="M 57.6 41.472 
L 414.72 41.472 
" style="fill: none; stroke: #000000; stroke-width: 0.8; stroke-linejoin: miter; stroke-linecap: square"/>
   </g>
   <g id="text_18">
    <!-- interactive discover 2.3 -->
    <g transform="translate(165.304688 35.472) scale(0.12 -0.12)">
     <defs>
      <path id="DejaVuSans-69" d="M 603 3500 
L 1178 3500 
L 1178 0 
L 603 0 
L 603 3500 
z
M 603 4863 
L 1178 4863 
L 1178 4134 
L 603 4134 
L 603 4863 
z
" transform="scale(0.015625)"/>
      <path id="DejaVuSans-6e" d="M 3513 2113 
L 3513 0 
L 2938 0 
L 2938 2094 
Q 2938 2591 2744 2837 
Q 2550 3084 2163 3084 
Q 1697 3084 1428 2787 
Q 1159 2491 1159 1978 
L 1159 0 
L 581 0 
L 581 3500 
L 1159 3500 
L 1159 2956 
Q 1366 3272 1645 3428 
Q 1925 3584 2291 3584 
Q 2894 3584 3203 3211 
Q 3513 2838 3513 2113 
z
" transform="scale(0.015625)"/>
      <path id="DejaVuSans-74" d="M 1172 4494 
L 1172 3500 
L 2356 3500 
L 2356 3053 
L 1172 3053 
L 1172 1153 
Q 1172 725 1289 603 
Q 1406 481 1766 481 
L 2356 481 
L 2356 0 
L 1766 0 
Q 1100 0 847 248 
Q 594 497 594 1153 
L 594 3053 
L 172 3053 
L 172 3500 
L 594 3500 
L 594 4494 
L 1172 4494 
z
" transform="scale(0.015625)"/>
      <path id="DejaVuSans-65" d="M 3597 1894 
L 3597 1613 
L 953 1613 
Q 991 1019 1311 708 
Q 1631 397 2203 397 
Q 2534 397 2845 478 
Q 3156 559 3463 722 
L 3463 178 
Q 3153 47 2828 -22 
Q 2503 -91 2169 -91 
Q 1331 -91 842 396 
Q 353 884 353 1716 
Q 353 2575 817 3079 
Q 1281 3584 2069 3584 
Q 2775 3584 3186 3129 
Q 3597 2675 3597 1894 
z
M 3022 2063 
Q 3016 2534 2758 2815 
Q 2500 3097 2075 3097 
Q 1594 3097 1305 2825 
Q 1016 2553 972 2059 
L 3022 2063 
z
" transform="scale(0.015625)"/>
      <path id="DejaVuSans-72" d="M 2631 2963 
Q 2534 3019 2420 3045 
Q 2306 3072 2169 3072 
Q 1681 3072 1420 2755 
Q 1159 2438 1159 1844 
L 1159 0 
L 581 0 
L 581 3500 
L 1159 3500 
L 1159 2956 
Q 1341 3275 1631 3429 
Q 1922 3584 2338 3584 
Q 2397 3584 2469 3576 
Q 2541 3569 2628 3553 
L 2631 2963 
z
" transform="scale(0.015625)"/>
      <path id="DejaVuSans-61" d="M 2194 1759 
Q 1497 1759 1228 1600 
Q 959 1441 959 1056 
Q 959 750 1161 570 
Q 1363 391 1709 391 
Q 2188 391 2477 730 
Q 2766 1069 2766 1631 
L 2766 1759 
L 2194 1759 
z
M 3341 1997 
L 3341 0 
L 2766 0 
L 2766 531 
Q 2569 213 2275 61 
Q 1981 -91 1556 -91 
Q 1019 -91 701 211 
Q 384 513 384 1019 
Q 384 1609 779 1909 
Q 1175 2209 1959 2209 
L 2766 2209 
L 2766 2266 
Q 2766 2663 2505 2880 
Q 2244 3097 1772 3097 
Q 1472 3097 1187 3025 
Q 903 2953 641 2809 
L 641 3341 
Q 956 3463 1253 3523 
Q 1550 3584 1831 3584 
Q 2591 3584 2966 3190 
Q 3341 2797 3341 1997 
z
" transform="scale(0.015625)"/>
      <path id="DejaVuSans-63" d="M 3122 3366 
L 3122 2828 
Q 2878 2963 2633 3030 
Q 2388 3097 2138 3097 
Q 1578 3097 1268 2742 
Q 959 2388 959 1747 
Q 959 1106 1268 751 
Q 1578 397 2138 397 
Q 2388 397 2633 464 
Q 2878 531 3122 666 
L 3122 134 
Q 2881 22 2623 -34 
Q 2366 -91 2075 -91 
Q 1284 -91 818 406 
Q 353 903 353 1747 
Q 353 2603 823 3093 
Q 1294 3584 2113 3584 
Q 2378 3584 2631 3529 
Q 2884 3475 3122 3366 
z
" transform="scale(0.015625)"/>
      <path id="DejaVuSans-76" d="M 191 3500 
L 800 3500 
L 1894 563 
L 2988 3500 
L 3597 3500 
L 2284 0 
L 1503 0 
L 191 3500 
z
" transform="scale(0.015625)"/>
      <path id="DejaVuSans-20" transform="scale(0.015625)"/>
      <path id="DejaVuSans-64" d="M 2906 2969 
L 2906 4863 
L 3481 4863 
L 3481 0 
L 2906 0 
L 2906 525 
Q 2725 213 2448 61 
Q 2172 -91 1784 -91 
Q 1150 -91 751 415 
Q 353 922 353 1747 
Q 353 2572 751 3078 
Q 1150 3584 1784 3584 
Q 2172 3584 2448 3432 
Q 2725 3281 2906 2969 
z
M 947 1747 
Q 947 1113 1208 752 
Q 1469 391 1925 391 
Q 2381 391 2643 752 
Q 2906 1113 2906 1747 
Q 2906 2381 2643 2742 
Q 2381 3103 1925 3103 
Q 1469 3103 1208 2742 
Q 947 2381 947 1747 
z
" transform="scale(0.015625)"/>
      <path id="DejaVuSans-73" d="M 2834 3397 
L 2834 2853 
Q 2591 2978 2328 3040 
Q 2066 3103 1784 3103 
Q 1356 3103 1142 2972 
Q 928 2841 928 2578 
Q 928 2378 1081 2264 
Q 1234 2150 1697 2047 
L 1894 2003 
Q 2506 1872 2764 1633 
Q 3022 1394 3022 966 
Q 3022 478 2636 193 
Q 2250 -91 1575 -91 
Q 1294 -91 989 -36 
Q 684 19 347 128 
L 347 722 
Q 666 556 975 473 
Q 1284 391 1588 391 
Q 1994 391 2212 530 
Q 2431 669 2431 922 
Q 2431 1156 2273 1281 
Q 2116 1406 1581 1522 
L 1381 1569 
Q 847 1681 609 1914 
Q 372 2147 372 2553 
Q 372 3047 722 3315 
Q 1072 3584 1716 3584 
Q 2034 3584 2315 3537 
Q 2597 3491 2834 3397 
z
" transform="scale(0.015625)"/>
      <path id="DejaVuSans-6f" d="M 1959 3097 
Q 1497 3097 1228 2736 
Q 959 2375 959 1747 
Q 959 1119 1226 758 
Q 1494 397 1959 397 
Q 2419 397 2687 759 
Q 2956 1122 2956 1747 
Q 2956 2369 2687 2733 
Q 2419 3097 1959 3097 
z
M 1959 3584 
Q 2709 3584 3137 3096 
Q 3566 2609 3566 1747 
Q 3566 888 3137 398 
Q 2709 -91 1959 -91 
Q 1206 -91 779 398 
Q 353 888 353 1747 
Q 353 2609 779 3096 
Q 1206 3584 1959 3584 
z
" transform="scale(0.015625)"/>
      <path id="DejaVuSans-33" d="M 2597 2516 
Q 3050 2419 3304 2112 
Q 3559 1806 3559 1356 
Q 3559 666 3084 287 
Q 2609 -91 1734 -91 
Q 1441 -91 1130 -33 
Q 819 25 488 141 
L 488 750 
Q 750 597 1062 519 
Q 1375 441 1716 441 
Q 2309 441 2620 675 
Q 2931 909 2931 1356 
Q 2931 1769 2642 2001 
Q 2353 2234 1838 2234 
L 1294 2234 
L 1294 2753 
L 1863 2753 
Q 2328 2753 2575 2939 
Q 2822 3125 2822 3475 
Q 2822 3834 2567 4026 
Q 2313 4219 1838 4219 
Q 1578 4219 1281 4162 
Q 984 4106 628 3988 
L 628 4550 
Q 988 4650 1302 4700 
Q 1616 4750 1894 4750 
Q 2613 4750 3031 4423 
Q 3450 4097 3450 3541 
Q 3450 3153 3228 2886 
Q 3006 2619 2597 2516 
z
" transform="scale(0.015625)"/>
     </defs>
     <use xlink:href="#DejaVuSans-69"/>
     <use xlink:href="#DejaVuSans-6e" transform="translate(27.783203 0)"/>
     <use xlink:href="#DejaVuSans-74" transform="translate(91.162109 0)"/>
     <use xlink:href="#DejaVuSans-65" transform="translate(130.371094 0)"/>
     <use xlink:href="#DejaVuSans-72" transform="translate(191.894531 0)"/>
     <use xlink:href="#DejaVuSans-61" transform="translate(233.007812 0)"/>
     <use xlink:href="#DejaVuSans-63" transform="translate(294.287109 0)"/>
     <use xlink:href="#DejaVuSans-74" transform="translate(349.267578 0)"/>
     <use xlink:href="#DejaVuSans-69" transform="translate(388.476562 0)"/>
     <use xlink:href="#DejaVuSans-76" transform="translate(416.259766 0)"/>
     <use xlink:href="#DejaVuSans-65" transform="translate(475.439453 0)"/>
     <use xlink:href="#DejaVuSans-20" transform="translate(536.962891 0)"/>
     <use xlink:href="#DejaVuSans-64" transform="translate(568.75 0)"/>
     <use xlink:href="#DejaVuSans-69" transform="translate(632.226562 0)"/>
     <use xlink:href="#DejaVuSans-73" transform="translate(660.009766 0)"/>
     <use xlink:href="#DejaVuSans-63" transform="translate(712.109375 0)"/>
     <use xlink:href="#DejaVuSans-6f" transform="translate(767.089844 0)"/>
     <use xlink:href="#DejaVuSans-76" transform="translate(828.271484 0)"/>
     <use xlink:href="#DejaVuSans-65" transform="translate(887.451172 0)"/>
     <use xlink:href="#DejaVuSans-72" transform="translate(948.974609 0)"/>
     <use xlink:href="#DejaVuSans-20" transform="translate(990.087891 0)"/>
     <use xlink:href="#DejaVuSans-32" transform="translate(1021.875 0)"/>
     <use xlink:href="#DejaVuSans-2e" transform="translate(1085.498047 0)"/>
     <use xlink:href="#DejaVuSans-33" transform="translate(1117.285156 0)"/>
    </g>
   </g>
   <g id="legend_1">
    <g id="patch_7">
     <path d="M 64.6 196.25325 
L 198.048438 196.25325 
Q 200.048438 196.25325 200.048438 194.25325 
L 200.048438 48.472 
Q 200.048438 46.472 198.048438 46.472 
L 64.6 46.472 
Q 62.6 46.472 62.6 48.472 
L 62.6 194.25325 
Q 62.6 196.25325 64.6 196.25325 
z
" style="fill: #ffffff; opacity: 0.8; stroke: #cccccc; stroke-linejoin: miter"/>
    </g>
    <g id="line2d_28">
     <path d="M 66.6 54.570437 
L 76.6 54.570437 
L 76.6 54.570437 
L 86.6 54.570437 
L 86.6 54.570437 
" style="fill: none; stroke: #1f77b4; stroke-width: 1.5; stroke-linecap: square"/>
    </g>
    <g id="text_19">
     <!-- baseline -->
     <g transform="translate(94.6 58.070437) scale(0.1 -0.1)">
      <defs>
       <path id="DejaVuSans-62" d="M 3116 1747 
Q 3116 2381 2855 2742 
Q 2594 3103 2138 3103 
Q 1681 3103 1420 2742 
Q 1159 2381 1159 1747 
Q 1159 1113 1420 752 
Q 1681 391 2138 391 
Q 2594 391 2855 752 
Q 3116 1113 3116 1747 
z
M 1159 2969 
Q 1341 3281 1617 3432 
Q 1894 3584 2278 3584 
Q 2916 3584 3314 3078 
Q 3713 2572 3713 1747 
Q 3713 922 3314 415 
Q 2916 -91 2278 -91 
Q 1894 -91 1617 61 
Q 1341 213 1159 525 
L 1159 0 
L 581 0 
L 581 4863 
L 1159 4863 
L 1159 2969 
z
" transform="scale(0.015625)"/>
       <path id="DejaVuSans-6c" d="M 603 4863 
L 1178 4863 
L 1178 0 
L 603 0 
L 603 4863 
z
" transform="scale(0.015625)"/>
      </defs>
      <use xlink:href="#DejaVuSans-62"/>
      <use xlink:href="#DejaVuSans-61" transform="translate(63.476562 0)"/>
      <use xlink:href="#DejaVuSans-73" transform="translate(124.755859 0)"/>
      <use xlink:href="#DejaVuSans-65" transform="translate(176.855469 0)"/>
      <use xlink:href="#DejaVuSans-6c" transform="translate(238.378906 0)"/>
      <use xlink:href="#DejaVuSans-69" transform="translate(266.162109 0)"/>
      <use xlink:href="#DejaVuSans-6e" transform="translate(293.945312 0)"/>
      <use xlink:href="#DejaVuSans-65" transform="translate(357.324219 0)"/>
     </g>
    </g>
    <g id="line2d_29">
     <path d="M 66.6 69.248562 
L 76.6 69.248562 
L 76.6 69.248562 
L 86.6 69.248562 
L 86.6 69.248562 
" style="fill: none; stroke: #ff7f0e; stroke-width: 1.5; stroke-linecap: square"/>
    </g>
    <g id="text_20">
     <!-- overhead -->
     <g transform="translate(94.6 72.748562) scale(0.1 -0.1)">
      <defs>
       <path id="DejaVuSans-68" d="M 3513 2113 
L 3513 0 
L 2938 0 
L 2938 2094 
Q 2938 2591 2744 2837 
Q 2550 3084 2163 3084 
Q 1697 3084 1428 2787 
Q 1159 2491 1159 1978 
L 1159 0 
L 581 0 
L 581 4863 
L 1159 4863 
L 1159 2956 
Q 1366 3272 1645 3428 
Q 1925 3584 2291 3584 
Q 2894 3584 3203 3211 
Q 3513 2838 3513 2113 
z
" transform="scale(0.015625)"/>
      </defs>
      <use xlink:href="#DejaVuSans-6f"/>
      <use xlink:href="#DejaVuSans-76" transform="translate(61.181641 0)"/>
      <use xlink:href="#DejaVuSans-65" transform="translate(120.361328 0)"/>
      <use xlink:href="#DejaVuSans-72" transform="translate(181.884766 0)"/>
      <use xlink:href="#DejaVuSans-68" transform="translate(221.248047 0)"/>
      <use xlink:href="#DejaVuSans-65" transform="translate(284.626953 0)"/>
      <use xlink:href="#DejaVuSans-61" transform="translate(346.150391 0)"/>
      <use xlink:href="#DejaVuSans-64" transform="translate(407.429688 0)"/>
     </g>
    </g>
    <g id="line2d_30">
     <path d="M 66.6 83.926688 
L 76.6 83.926688 
L 76.6 83.926688 
L 86.6 83.926688 
L 86.6 83.926688 
" style="fill: none; stroke: #2ca02c; stroke-width: 1.5; stroke-linecap: square"/>
    </g>
    <g id="text_21">
     <!-- interval-100-once -->
     <g transform="translate(94.6 87.426688) scale(0.1 -0.1)">
      <defs>
       <path id="DejaVuSans-2d" d="M 313 2009 
L 1997 2009 
L 1997 1497 
L 313 1497 
L 313 2009 
z
" transform="scale(0.015625)"/>
      </defs>
      <use xlink:href="#DejaVuSans-69"/>
      <use xlink:href="#DejaVuSans-6e" transform="translate(27.783203 0)"/>
      <use xlink:href="#DejaVuSans-74" transform="translate(91.162109 0)"/>
      <use xlink:href="#DejaVuSans-65" transform="translate(130.371094 0)"/>
      <use xlink:href="#DejaVuSans-72" transform="translate(191.894531 0)"/>
      <use xlink:href="#DejaVuSans-76" transform="translate(233.007812 0)"/>
      <use xlink:href="#DejaVuSans-61" transform="translate(292.1875 0)"/>
      <use xlink:href="#DejaVuSans-6c" transform="translate(353.466797 0)"/>
      <use xlink:href="#DejaVuSans-2d" transform="translate(381.25 0)"/>
      <use xlink:href="#DejaVuSans-31" transform="translate(417.333984 0)"/>
      <use xlink:href="#DejaVuSans-30" transform="translate(480.957031 0)"/>
      <use xlink:href="#DejaVuSans-30" transform="translate(544.580078 0)"/>
      <use xlink:href="#DejaVuSans-2d" transform="translate(608.203125 0)"/>
      <use xlink:href="#DejaVuSans-6f" transform="translate(646.162109 0)"/>
      <use xlink:href="#DejaVuSans-6e" transform="translate(707.34375 0)"/>
      <use xlink:href="#DejaVuSans-63" transform="translate(770.722656 0)"/>
      <use xlink:href="#DejaVuSans-65" transform="translate(825.703125 0)"/>
     </g>
    </g>
    <g id="line2d_31">
     <path d="M 66.6 98.604812 
L 76.6 98.604812 
L 76.6 98.604812 
L 86.6 98.604812 
L 86.6 98.604812 
" style="fill: none; stroke: #d62728; stroke-width: 1.5; stroke-linecap: square"/>
    </g>
    <g id="text_22">
     <!-- interval-1000-once -->
     <g transform="translate(94.6 102.104812) scale(0.1 -0.1)">
      <use xlink:href="#DejaVuSans-69"/>
      <use xlink:href="#DejaVuSans-6e" transform="translate(27.783203 0)"/>
      <use xlink:href="#DejaVuSans-74" transform="translate(91.162109 0)"/>
      <use xlink:href="#DejaVuSans-65" transform="translate(130.371094 0)"/>
      <use xlink:href="#DejaVuSans-72" transform="translate(191.894531 0)"/>
      <use xlink:href="#DejaVuSans-76" transform="translate(233.007812 0)"/>
      <use xlink:href="#DejaVuSans-61" transform="translate(292.1875 0)"/>
      <use xlink:href="#DejaVuSans-6c" transform="translate(353.466797 0)"/>
      <use xlink:href="#DejaVuSans-2d" transform="translate(381.25 0)"/>
      <use xlink:href="#DejaVuSans-31" transform="translate(417.333984 0)"/>
      <use xlink:href="#DejaVuSans-30" transform="translate(480.957031 0)"/>
      <use xlink:href="#DejaVuSans-30" transform="translate(544.580078 0)"/>
      <use xlink:href="#DejaVuSans-30" transform="translate(608.203125 0)"/>
      <use xlink:href="#DejaVuSans-2d" transform="translate(671.826172 0)"/>
      <use xlink:href="#DejaVuSans-6f" transform="translate(709.785156 0)"/>
      <use xlink:href="#DejaVuSans-6e" transform="translate(770.966797 0)"/>
      <use xlink:href="#DejaVuSans-63" transform="translate(834.345703 0)"/>
      <use xlink:href="#DejaVuSans-65" transform="translate(889.326172 0)"/>
     </g>
    </g>
    <g id="line2d_32">
     <path d="M 66.6 113.282938 
L 76.6 113.282938 
L 76.6 113.282938 
L 86.6 113.282938 
L 86.6 113.282938 
" style="fill: none; stroke: #9467bd; stroke-width: 1.5; stroke-linecap: square"/>
    </g>
    <g id="text_23">
     <!-- interval-10000-once -->
     <g transform="translate(94.6 116.782938) scale(0.1 -0.1)">
      <use xlink:href="#DejaVuSans-69"/>
      <use xlink:href="#DejaVuSans-6e" transform="translate(27.783203 0)"/>
      <use xlink:href="#DejaVuSans-74" transform="translate(91.162109 0)"/>
      <use xlink:href="#DejaVuSans-65" transform="translate(130.371094 0)"/>
      <use xlink:href="#DejaVuSans-72" transform="translate(191.894531 0)"/>
      <use xlink:href="#DejaVuSans-76" transform="translate(233.007812 0)"/>
      <use xlink:href="#DejaVuSans-61" transform="translate(292.1875 0)"/>
      <use xlink:href="#DejaVuSans-6c" transform="translate(353.466797 0)"/>
      <use xlink:href="#DejaVuSans-2d" transform="translate(381.25 0)"/>
      <use xlink:href="#DejaVuSans-31" transform="translate(417.333984 0)"/>
      <use xlink:href="#DejaVuSans-30" transform="translate(480.957031 0)"/>
      <use xlink:href="#DejaVuSans-30" transform="translate(544.580078 0)"/>
      <use xlink:href="#DejaVuSans-30" transform="translate(608.203125 0)"/>
      <use xlink:href="#DejaVuSans-30" transform="translate(671.826172 0)"/>
      <use xlink:href="#DejaVuSans-2d" transform="translate(735.449219 0)"/>
      <use xlink:href="#DejaVuSans-6f" transform="translate(773.408203 0)"/>
      <use xlink:href="#DejaVuSans-6e" transform="translate(834.589844 0)"/>
      <use xlink:href="#DejaVuSans-63" transform="translate(897.96875 0)"/>
      <use xlink:href="#DejaVuSans-65" transform="translate(952.949219 0)"/>
     </g>
    </g>
    <g id="line2d_33">
     <path d="M 66.6 127.961062 
L 76.6 127.961062 
L 76.6 127.961062 
L 86.6 127.961062 
L 86.6 127.961062 
" style="fill: none; stroke: #8c564b; stroke-width: 1.5; stroke-linecap: square"/>
    </g>
    <g id="text_24">
     <!-- interval-2000-once -->
     <g transform="translate(94.6 131.461062) scale(0.1 -0.1)">
      <use xlink:href="#DejaVuSans-69"/>
      <use xlink:href="#DejaVuSans-6e" transform="translate(27.783203 0)"/>
      <use xlink:href="#DejaVuSans-74" transform="translate(91.162109 0)"/>
      <use xlink:href="#DejaVuSans-65" transform="translate(130.371094 0)"/>
      <use xlink:href="#DejaVuSans-72" transform="translate(191.894531 0)"/>
      <use xlink:href="#DejaVuSans-76" transform="translate(233.007812 0)"/>
      <use xlink:href="#DejaVuSans-61" transform="translate(292.1875 0)"/>
      <use xlink:href="#DejaVuSans-6c" transform="translate(353.466797 0)"/>
      <use xlink:href="#DejaVuSans-2d" transform="translate(381.25 0)"/>
      <use xlink:href="#DejaVuSans-32" transform="translate(417.333984 0)"/>
      <use xlink:href="#DejaVuSans-30" transform="translate(480.957031 0)"/>
      <use xlink:href="#DejaVuSans-30" transform="translate(544.580078 0)"/>
      <use xlink:href="#DejaVuSans-30" transform="translate(608.203125 0)"/>
      <use xlink:href="#DejaVuSans-2d" transform="translate(671.826172 0)"/>
      <use xlink:href="#DejaVuSans-6f" transform="translate(709.785156 0)"/>
      <use xlink:href="#DejaVuSans-6e" transform="translate(770.966797 0)"/>
      <use xlink:href="#DejaVuSans-63" transform="translate(834.345703 0)"/>
      <use xlink:href="#DejaVuSans-65" transform="translate(889.326172 0)"/>
     </g>
    </g>
    <g id="line2d_34">
     <path d="M 66.6 142.639187 
L 76.6 142.639187 
L 76.6 142.639187 
L 86.6 142.639187 
L 86.6 142.639187 
" style="fill: none; stroke: #e377c2; stroke-width: 1.5; stroke-linecap: square"/>
    </g>
    <g id="text_25">
     <!-- interval-20000-once -->
     <g transform="translate(94.6 146.139187) scale(0.1 -0.1)">
      <use xlink:href="#DejaVuSans-69"/>
      <use xlink:href="#DejaVuSans-6e" transform="translate(27.783203 0)"/>
      <use xlink:href="#DejaVuSans-74" transform="translate(91.162109 0)"/>
      <use xlink:href="#DejaVuSans-65" transform="translate(130.371094 0)"/>
      <use xlink:href="#DejaVuSans-72" transform="translate(191.894531 0)"/>
      <use xlink:href="#DejaVuSans-76" transform="translate(233.007812 0)"/>
      <use xlink:href="#DejaVuSans-61" transform="translate(292.1875 0)"/>
      <use xlink:href="#DejaVuSans-6c" transform="translate(353.466797 0)"/>
      <use xlink:href="#DejaVuSans-2d" transform="translate(381.25 0)"/>
      <use xlink:href="#DejaVuSans-32" transform="translate(417.333984 0)"/>
      <use xlink:href="#DejaVuSans-30" transform="translate(480.957031 0)"/>
      <use xlink:href="#DejaVuSans-30" transform="translate(544.580078 0)"/>
      <use xlink:href="#DejaVuSans-30" transform="translate(608.203125 0)"/>
      <use xlink:href="#DejaVuSans-30" transform="translate(671.826172 0)"/>
      <use xlink:href="#DejaVuSans-2d" transform="translate(735.449219 0)"/>
      <use xlink:href="#DejaVuSans-6f" transform="translate(773.408203 0)"/>
      <use xlink:href="#DejaVuSans-6e" transform="translate(834.589844 0)"/>
      <use xlink:href="#DejaVuSans-63" transform="translate(897.96875 0)"/>
      <use xlink:href="#DejaVuSans-65" transform="translate(952.949219 0)"/>
     </g>
    </g>
    <g id="line2d_35">
     <path d="M 66.6 157.317312 
L 76.6 157.317312 
L 76.6 157.317312 
L 86.6 157.317312 
L 86.6 157.317312 
" style="fill: none; stroke: #7f7f7f; stroke-width: 1.5; stroke-linecap: square"/>
    </g>
    <g id="text_26">
     <!-- interval-5000-once -->
     <g transform="translate(94.6 160.817312) scale(0.1 -0.1)">
      <use xlink:href="#DejaVuSans-69"/>
      <use xlink:href="#DejaVuSans-6e" transform="translate(27.783203 0)"/>
      <use xlink:href="#DejaVuSans-74" transform="translate(91.162109 0)"/>
      <use xlink:href="#DejaVuSans-65" transform="translate(130.371094 0)"/>
      <use xlink:href="#DejaVuSans-72" transform="translate(191.894531 0)"/>
      <use xlink:href="#DejaVuSans-76" transform="translate(233.007812 0)"/>
      <use xlink:href="#DejaVuSans-61" transform="translate(292.1875 0)"/>
      <use xlink:href="#DejaVuSans-6c" transform="translate(353.466797 0)"/>
      <use xlink:href="#DejaVuSans-2d" transform="translate(381.25 0)"/>
      <use xlink:href="#DejaVuSans-35" transform="translate(417.333984 0)"/>
      <use xlink:href="#DejaVuSans-30" transform="translate(480.957031 0)"/>
      <use xlink:href="#DejaVuSans-30" transform="translate(544.580078 0)"/>
      <use xlink:href="#DejaVuSans-30" transform="translate(608.203125 0)"/>
      <use xlink:href="#DejaVuSans-2d" transform="translate(671.826172 0)"/>
      <use xlink:href="#DejaVuSans-6f" transform="translate(709.785156 0)"/>
      <use xlink:href="#DejaVuSans-6e" transform="translate(770.966797 0)"/>
      <use xlink:href="#DejaVuSans-63" transform="translate(834.345703 0)"/>
      <use xlink:href="#DejaVuSans-65" transform="translate(889.326172 0)"/>
     </g>
    </g>
    <g id="line2d_36">
     <path d="M 66.6 171.995437 
L 76.6 171.995437 
L 76.6 171.995437 
L 86.6 171.995437 
L 86.6 171.995437 
" style="fill: none; stroke: #bcbd22; stroke-width: 1.5; stroke-linecap: square"/>
    </g>
    <g id="text_27">
     <!-- metadata-once -->
     <g transform="translate(94.6 175.495437) scale(0.1 -0.1)">
      <defs>
       <path id="DejaVuSans-6d" d="M 3328 2828 
Q 3544 3216 3844 3400 
Q 4144 3584 4550 3584 
Q 5097 3584 5394 3201 
Q 5691 2819 5691 2113 
L 5691 0 
L 5113 0 
L 5113 2094 
Q 5113 2597 4934 2840 
Q 4756 3084 4391 3084 
Q 3944 3084 3684 2787 
Q 3425 2491 3425 1978 
L 3425 0 
L 2847 0 
L 2847 2094 
Q 2847 2600 2669 2842 
Q 2491 3084 2119 3084 
Q 1678 3084 1418 2786 
Q 1159 2488 1159 1978 
L 1159 0 
L 581 0 
L 581 3500 
L 1159 3500 
L 1159 2956 
Q 1356 3278 1631 3431 
Q 1906 3584 2284 3584 
Q 2666 3584 2933 3390 
Q 3200 3197 3328 2828 
z
" transform="scale(0.015625)"/>
      </defs>
      <use xlink:href="#DejaVuSans-6d"/>
      <use xlink:href="#DejaVuSans-65" transform="translate(97.412109 0)"/>
      <use xlink:href="#DejaVuSans-74" transform="translate(158.935547 0)"/>
      <use xlink:href="#DejaVuSans-61" transform="translate(198.144531 0)"/>
      <use xlink:href="#DejaVuSans-64" transform="translate(259.423828 0)"/>
      <use xlink:href="#DejaVuSans-61" transform="translate(322.900391 0)"/>
      <use xlink:href="#DejaVuSans-74" transform="translate(384.179688 0)"/>
      <use xlink:href="#DejaVuSans-61" transform="translate(423.388672 0)"/>
      <use xlink:href="#DejaVuSans-2d" transform="translate(484.667969 0)"/>
      <use xlink:href="#DejaVuSans-6f" transform="translate(522.626953 0)"/>
      <use xlink:href="#DejaVuSans-6e" transform="translate(583.808594 0)"/>
      <use xlink:href="#DejaVuSans-63" transform="translate(647.1875 0)"/>
      <use xlink:href="#DejaVuSans-65" transform="translate(702.167969 0)"/>
     </g>
    </g>
    <g id="line2d_37">
     <path d="M 66.6 186.673562 
L 76.6 186.673562 
L 76.6 186.673562 
L 86.6 186.673562 
L 86.6 186.673562 
" style="fill: none; stroke: #17becf; stroke-width: 1.5; stroke-linecap: square"/>
    </g>
    <g id="text_28">
     <!-- metadata-unlimited -->
     <g transform="translate(94.6 190.173562) scale(0.1 -0.1)">
      <defs>
       <path id="DejaVuSans-75" d="M 544 1381 
L 544 3500 
L 1119 3500 
L 1119 1403 
Q 1119 906 1312 657 
Q 1506 409 1894 409 
Q 2359 409 2629 706 
Q 2900 1003 2900 1516 
L 2900 3500 
L 3475 3500 
L 3475 0 
L 2900 0 
L 2900 538 
Q 2691 219 2414 64 
Q 2138 -91 1772 -91 
Q 1169 -91 856 284 
Q 544 659 544 1381 
z
M 1991 3584 
L 1991 3584 
z
" transform="scale(0.015625)"/>
      </defs>
      <use xlink:href="#DejaVuSans-6d"/>
      <use xlink:href="#DejaVuSans-65" transform="translate(97.412109 0)"/>
      <use xlink:href="#DejaVuSans-74" transform="translate(158.935547 0)"/>
      <use xlink:href="#DejaVuSans-61" transform="translate(198.144531 0)"/>
      <use xlink:href="#DejaVuSans-64" transform="translate(259.423828 0)"/>
      <use xlink:href="#DejaVuSans-61" transform="translate(322.900391 0)"/>
      <use xlink:href="#DejaVuSans-74" transform="translate(384.179688 0)"/>
      <use xlink:href="#DejaVuSans-61" transform="translate(423.388672 0)"/>
      <use xlink:href="#DejaVuSans-2d" transform="translate(484.667969 0)"/>
      <use xlink:href="#DejaVuSans-75" transform="translate(520.751953 0)"/>
      <use xlink:href="#DejaVuSans-6e" transform="translate(584.130859 0)"/>
      <use xlink:href="#DejaVuSans-6c" transform="translate(647.509766 0)"/>
      <use xlink:href="#DejaVuSans-69" transform="translate(675.292969 0)"/>
      <use xlink:href="#DejaVuSans-6d" transform="translate(703.076172 0)"/>
      <use xlink:href="#DejaVuSans-69" transform="translate(800.488281 0)"/>
      <use xlink:href="#DejaVuSans-74" transform="translate(828.271484 0)"/>
      <use xlink:href="#DejaVuSans-65" transform="translate(867.480469 0)"/>
      <use xlink:href="#DejaVuSans-64" transform="translate(929.003906 0)"/>
     </g>
    </g>
   </g>
  </g>
 </g>
 <defs>
  <clipPath id="p997dc073c7">
   <rect x="57.6" y="41.472" width="357.12" height="266.112"/>
  </clipPath>
 </defs>
</svg>
