<?xml version="1.0" encoding="utf-8" standalone="no"?>
<!DOCTYPE svg PUBLIC "-//W3C//DTD SVG 1.1//EN"
  "http://www.w3.org/Graphics/SVG/1.1/DTD/svg11.dtd">
<svg xmlns:xlink="http://www.w3.org/1999/xlink" width="864pt" height="216pt" viewBox="0 0 864 216" xmlns="http://www.w3.org/2000/svg" version="1.1">
 <metadata>
  <rdf:RDF xmlns:dc="http://purl.org/dc/elements/1.1/" xmlns:cc="http://creativecommons.org/ns#" xmlns:rdf="http://www.w3.org/1999/02/22-rdf-syntax-ns#">
   <cc:Work>
    <dc:type rdf:resource="http://purl.org/dc/dcmitype/StillImage"/>
    <dc:date>2025-05-19T11:11:48.754327</dc:date>
    <dc:format>image/svg+xml</dc:format>
    <dc:creator>
     <cc:Agent>
      <dc:title>Matplotlib v3.10.3, https://matplotlib.org/</dc:title>
     </cc:Agent>
    </dc:creator>
   </cc:Work>
  </rdf:RDF>
 </metadata>
 <defs>
  <style type="text/css">*{stroke-linejoin: round; stroke-linecap: butt}</style>
 </defs>
 <g id="figure_1">
  <g id="patch_1">
   <path d="M 0 216 
L 864 216 
L 864 0 
L 0 0 
z
" style="fill: #ffffff"/>
  </g>
  <g id="axes_1">
   <g id="patch_2">
    <path d="M 3.00024 175.89976 
L 372.144453 175.89976 
L 372.144453 3.00024 
L 3.00024 3.00024 
z
" style="fill: #ffffff"/>
   </g>
   <g id="matplotlib.axis_1">
    <g id="xtick_1">
     <g id="line2d_1">
      <defs>
       <path id="mce5ef9e54c" d="M 0 0 
L 0 3.5 
" style="stroke: #000000; stroke-width: 0.8"/>
      </defs>
      <g>
       <use xlink:href="#mce5ef9e54c" x="372.144453" y="175.89976" style="stroke: #000000; stroke-width: 0.8"/>
      </g>
     </g>
     <g id="text_1">
      <!-- 0 -->
      <g transform="translate(369.349141 190.49976) scale(0.1 -0.1)">
       <defs>
        <path id="NotoSerif-Regular-30" d="M 1792 -64 
Q 1267 -64 934 230 
Q 602 525 445 1056 
Q 288 1587 288 2298 
Q 288 3008 445 3533 
Q 602 4058 934 4346 
Q 1267 4634 1798 4634 
Q 2298 4634 2630 4346 
Q 2963 4058 3126 3530 
Q 3290 3002 3290 2291 
Q 3290 1581 3123 1053 
Q 2957 525 2627 230 
Q 2298 -64 1792 -64 
z
M 1792 282 
Q 2259 282 2441 813 
Q 2624 1344 2624 2291 
Q 2624 3245 2441 3766 
Q 2259 4288 1798 4288 
Q 1331 4288 1142 3766 
Q 954 3245 954 2291 
Q 954 1344 1139 813 
Q 1325 282 1792 282 
z
" transform="scale(0.015625)"/>
       </defs>
       <use xlink:href="#NotoSerif-Regular-30"/>
      </g>
     </g>
    </g>
    <g id="xtick_2">
     <g id="line2d_2">
      <g>
       <use xlink:href="#mce5ef9e54c" x="295.569638" y="175.89976" style="stroke: #000000; stroke-width: 0.8"/>
      </g>
     </g>
     <g id="text_2">
      <!-- 1,000 -->
      <g transform="translate(283.138388 190.49976) scale(0.1 -0.1)">
       <defs>
        <path id="NotoSerif-Regular-31" d="M 614 0 
L 614 269 
L 1043 269 
Q 1261 269 1414 349 
Q 1568 429 1568 730 
L 1568 4090 
Q 1325 3795 1129 3609 
Q 934 3424 742 3424 
Q 602 3424 512 3520 
Q 422 3616 422 3770 
Q 614 3821 828 3923 
Q 1043 4026 1357 4262 
L 1805 4595 
L 2214 4595 
L 2214 730 
Q 2214 429 2368 349 
Q 2522 269 2739 269 
L 3053 269 
L 3053 0 
L 614 0 
z
" transform="scale(0.015625)"/>
        <path id="NotoSerif-Regular-2c" d="M 192 -717 
Q 800 -518 800 -141 
Q 800 -45 729 6 
Q 659 58 566 102 
Q 474 147 403 224 
Q 333 301 333 448 
Q 333 634 451 730 
Q 570 826 749 826 
Q 947 826 1094 682 
Q 1242 538 1242 269 
Q 1242 -141 1002 -480 
Q 762 -819 192 -986 
L 192 -717 
z
" transform="scale(0.015625)"/>
       </defs>
       <use xlink:href="#NotoSerif-Regular-31"/>
       <use xlink:href="#NotoSerif-Regular-2c" transform="translate(55.899994 0)"/>
       <use xlink:href="#NotoSerif-Regular-30" transform="translate(80.899979 0)"/>
       <use xlink:href="#NotoSerif-Regular-30" transform="translate(136.799973 0)"/>
       <use xlink:href="#NotoSerif-Regular-30" transform="translate(192.699966 0)"/>
      </g>
     </g>
    </g>
    <g id="xtick_3">
     <g id="line2d_3">
      <g>
       <use xlink:href="#mce5ef9e54c" x="218.994822" y="175.89976" style="stroke: #000000; stroke-width: 0.8"/>
      </g>
     </g>
     <g id="text_3">
      <!-- 2,000 -->
      <g transform="translate(206.563572 190.49976) scale(0.1 -0.1)">
       <defs>
        <path id="NotoSerif-Regular-32" d="M 390 0 
L 390 467 
L 1459 1702 
Q 1798 2099 1996 2390 
Q 2195 2682 2281 2944 
Q 2368 3206 2368 3501 
Q 2368 3866 2211 4090 
Q 2054 4314 1715 4314 
Q 1427 4314 1273 4179 
Q 1120 4045 1065 3830 
Q 1011 3616 1011 3360 
Q 781 3360 621 3446 
Q 461 3533 461 3776 
Q 461 4147 777 4390 
Q 1094 4634 1715 4634 
Q 2323 4634 2668 4342 
Q 3014 4051 3014 3565 
Q 3014 3117 2732 2691 
Q 2451 2266 1946 1709 
L 864 512 
L 2342 512 
Q 2630 512 2732 659 
Q 2835 806 2880 992 
L 2906 1107 
L 3174 1107 
L 3142 0 
L 390 0 
z
" transform="scale(0.015625)"/>
       </defs>
       <use xlink:href="#NotoSerif-Regular-32"/>
       <use xlink:href="#NotoSerif-Regular-2c" transform="translate(55.899994 0)"/>
       <use xlink:href="#NotoSerif-Regular-30" transform="translate(80.899979 0)"/>
       <use xlink:href="#NotoSerif-Regular-30" transform="translate(136.799973 0)"/>
       <use xlink:href="#NotoSerif-Regular-30" transform="translate(192.699966 0)"/>
      </g>
     </g>
    </g>
    <g id="xtick_4">
     <g id="line2d_4">
      <g>
       <use xlink:href="#mce5ef9e54c" x="142.420007" y="175.89976" style="stroke: #000000; stroke-width: 0.8"/>
      </g>
     </g>
     <g id="text_4">
      <!-- 3,000 -->
      <g transform="translate(129.988757 190.49976) scale(0.1 -0.1)">
       <defs>
        <path id="NotoSerif-Regular-33" d="M 1581 -64 
Q 947 -64 659 150 
Q 371 365 371 646 
Q 371 838 483 947 
Q 595 1056 774 1056 
Q 774 723 985 502 
Q 1197 282 1587 282 
Q 1843 282 2057 381 
Q 2272 480 2406 704 
Q 2541 928 2541 1312 
Q 2541 1715 2230 1958 
Q 1920 2202 1382 2202 
L 1178 2202 
L 1178 2528 
L 1382 2528 
Q 1664 2528 1891 2649 
Q 2118 2771 2252 2995 
Q 2387 3219 2387 3520 
Q 2387 3898 2230 4106 
Q 2074 4314 1702 4314 
Q 1414 4314 1260 4179 
Q 1107 4045 1052 3830 
Q 998 3616 998 3360 
Q 768 3360 608 3446 
Q 448 3533 448 3776 
Q 448 4147 765 4390 
Q 1082 4634 1702 4634 
Q 2310 4634 2678 4368 
Q 3046 4102 3046 3616 
Q 3046 3328 2912 3088 
Q 2778 2848 2547 2678 
Q 2317 2509 2022 2438 
Q 2202 2419 2406 2358 
Q 2611 2298 2793 2170 
Q 2976 2042 3091 1834 
Q 3206 1626 3206 1306 
Q 3206 922 3059 656 
Q 2912 390 2669 233 
Q 2426 77 2141 6 
Q 1856 -64 1581 -64 
z
" transform="scale(0.015625)"/>
       </defs>
       <use xlink:href="#NotoSerif-Regular-33"/>
       <use xlink:href="#NotoSerif-Regular-2c" transform="translate(55.899994 0)"/>
       <use xlink:href="#NotoSerif-Regular-30" transform="translate(80.899979 0)"/>
       <use xlink:href="#NotoSerif-Regular-30" transform="translate(136.799973 0)"/>
       <use xlink:href="#NotoSerif-Regular-30" transform="translate(192.699966 0)"/>
      </g>
     </g>
    </g>
    <g id="xtick_5">
     <g id="line2d_5">
      <g>
       <use xlink:href="#mce5ef9e54c" x="65.845191" y="175.89976" style="stroke: #000000; stroke-width: 0.8"/>
      </g>
     </g>
     <g id="text_5">
      <!-- 4,000 -->
      <g transform="translate(53.413941 190.49976) scale(0.1 -0.1)">
       <defs>
        <path id="NotoSerif-Regular-34" d="M 1376 0 
L 1376 269 
L 1555 269 
Q 1773 269 1926 349 
Q 2080 429 2080 730 
L 2080 1254 
L 109 1254 
L 109 1517 
L 2086 4570 
L 2694 4570 
L 2694 1613 
L 3488 1613 
L 3488 1254 
L 2694 1254 
L 2694 730 
Q 2694 429 2848 349 
Q 3002 269 3219 269 
L 3302 269 
L 3302 0 
L 1376 0 
z
M 570 1613 
L 2080 1613 
L 2080 2797 
Q 2080 2982 2083 3216 
Q 2086 3450 2099 3686 
Q 2112 3923 2125 4122 
Q 2093 4058 2022 3930 
Q 1952 3802 1862 3651 
Q 1773 3501 1689 3363 
Q 1606 3226 1549 3136 
L 570 1613 
z
" transform="scale(0.015625)"/>
       </defs>
       <use xlink:href="#NotoSerif-Regular-34"/>
       <use xlink:href="#NotoSerif-Regular-2c" transform="translate(55.899994 0)"/>
       <use xlink:href="#NotoSerif-Regular-30" transform="translate(80.899979 0)"/>
       <use xlink:href="#NotoSerif-Regular-30" transform="translate(136.799973 0)"/>
       <use xlink:href="#NotoSerif-Regular-30" transform="translate(192.699966 0)"/>
      </g>
     </g>
    </g>
    <g id="text_6">
     <!-- Total HTTP requests -->
     <g transform="translate(140.041878 210.49976) scale(0.1 -0.1)">
      <defs>
       <path id="NotoSerif-Italic-54" d="M 589 0 
L 646 269 
L 794 269 
Q 1005 269 1174 339 
Q 1344 410 1408 698 
L 2163 4250 
L 1549 4250 
Q 1267 4250 1123 4093 
Q 979 3936 909 3725 
L 819 3450 
L 486 3450 
L 755 4570 
L 4358 4570 
L 4154 3450 
L 3821 3450 
Q 3827 3488 3833 3574 
Q 3840 3661 3846 3741 
Q 3853 3821 3853 3840 
Q 3853 4006 3763 4128 
Q 3674 4250 3430 4250 
L 2810 4250 
L 2054 704 
Q 2029 602 2029 525 
Q 2029 365 2160 317 
Q 2291 269 2490 269 
L 2637 269 
L 2579 0 
L 589 0 
z
" transform="scale(0.015625)"/>
       <path id="NotoSerif-Italic-6f" d="M 1504 -64 
Q 960 -64 617 265 
Q 275 595 275 1261 
Q 275 1619 390 2006 
Q 506 2394 742 2733 
Q 979 3072 1337 3283 
Q 1696 3494 2182 3494 
Q 2522 3494 2797 3360 
Q 3072 3226 3235 2934 
Q 3398 2643 3398 2170 
Q 3398 1894 3328 1590 
Q 3258 1286 3110 992 
Q 2963 698 2739 461 
Q 2515 224 2208 80 
Q 1901 -64 1504 -64 
z
M 1574 262 
Q 1888 262 2109 464 
Q 2330 666 2467 982 
Q 2605 1299 2669 1644 
Q 2733 1990 2733 2278 
Q 2733 2758 2566 2963 
Q 2400 3168 2106 3168 
Q 1856 3168 1664 3033 
Q 1472 2899 1334 2678 
Q 1197 2458 1110 2189 
Q 1024 1920 982 1648 
Q 941 1376 941 1146 
Q 941 659 1113 460 
Q 1286 262 1574 262 
z
" transform="scale(0.015625)"/>
       <path id="NotoSerif-Italic-74" d="M 1171 -64 
Q 474 -64 474 685 
Q 474 800 493 950 
Q 512 1101 538 1222 
L 928 3066 
L 442 3066 
L 499 3322 
Q 774 3322 1030 3523 
Q 1286 3725 1478 4218 
L 1773 4218 
L 1606 3430 
L 2381 3430 
L 2304 3066 
L 1530 3066 
L 1139 1242 
Q 1107 1082 1084 938 
Q 1062 794 1062 691 
Q 1062 506 1152 422 
Q 1242 339 1402 339 
Q 1536 339 1680 380 
Q 1824 422 1926 480 
L 2035 243 
Q 1843 109 1628 22 
Q 1414 -64 1171 -64 
z
" transform="scale(0.015625)"/>
       <path id="NotoSerif-Italic-61" d="M 1101 -64 
Q 819 -64 633 89 
Q 448 243 361 508 
Q 275 774 275 1107 
Q 275 1408 355 1737 
Q 435 2067 595 2377 
Q 755 2688 985 2941 
Q 1216 3194 1517 3344 
Q 1818 3494 2182 3494 
Q 2413 3494 2608 3430 
Q 2803 3366 2931 3264 
L 3213 3424 
L 3418 3424 
L 2982 1376 
Q 2970 1306 2944 1171 
Q 2918 1037 2902 896 
Q 2886 755 2886 666 
Q 2886 339 3098 339 
Q 3206 339 3321 387 
Q 3437 435 3558 506 
L 3674 320 
Q 3584 237 3430 147 
Q 3277 58 3104 -3 
Q 2931 -64 2771 -64 
Q 2541 -64 2406 77 
Q 2272 218 2272 467 
Q 2272 595 2288 700 
Q 2304 806 2336 966 
L 2298 966 
Q 2080 474 1779 205 
Q 1478 -64 1101 -64 
z
M 1331 339 
Q 1498 339 1674 467 
Q 1850 595 2006 812 
Q 2163 1030 2284 1299 
Q 2406 1568 2464 1843 
L 2701 2976 
Q 2630 3091 2496 3148 
Q 2362 3206 2214 3206 
Q 1958 3206 1753 3062 
Q 1549 2918 1395 2681 
Q 1242 2445 1136 2163 
Q 1030 1882 979 1597 
Q 928 1312 928 1082 
Q 928 685 1043 512 
Q 1158 339 1331 339 
z
" transform="scale(0.015625)"/>
       <path id="NotoSerif-Italic-6c" d="M 998 -64 
Q 742 -64 604 115 
Q 467 294 467 544 
Q 467 678 492 864 
Q 518 1050 550 1238 
Q 582 1427 608 1549 
L 1133 4006 
Q 1152 4096 1161 4182 
Q 1171 4269 1171 4294 
Q 1171 4486 1040 4540 
Q 909 4595 723 4595 
L 646 4595 
L 704 4864 
L 1914 4864 
L 1171 1376 
Q 1158 1306 1132 1171 
Q 1107 1037 1088 896 
Q 1069 755 1069 666 
Q 1069 339 1280 339 
Q 1389 339 1504 387 
Q 1619 435 1741 506 
L 1856 320 
Q 1715 198 1478 67 
Q 1242 -64 998 -64 
z
" transform="scale(0.015625)"/>
       <path id="NotoSerif-Italic-20" transform="scale(0.015625)"/>
       <path id="NotoSerif-Italic-48" d="M -134 0 
L -83 269 
L 0 269 
Q 218 269 390 349 
Q 563 429 627 730 
L 1293 3866 
Q 1318 3968 1318 4045 
Q 1318 4211 1190 4256 
Q 1062 4301 858 4301 
L 774 4301 
L 832 4570 
L 2694 4570 
L 2637 4301 
L 2554 4301 
Q 2336 4301 2166 4221 
Q 1997 4141 1933 3840 
L 1658 2547 
L 3738 2547 
L 4019 3866 
Q 4045 3968 4045 4045 
Q 4045 4211 3917 4256 
Q 3789 4301 3584 4301 
L 3501 4301 
L 3558 4570 
L 5421 4570 
L 5363 4301 
L 5280 4301 
Q 5062 4301 4892 4221 
Q 4723 4141 4659 3840 
L 3994 704 
Q 3968 602 3968 525 
Q 3968 365 4099 317 
Q 4230 269 4429 269 
L 4512 269 
L 4454 0 
L 2592 0 
L 2643 269 
L 2726 269 
Q 2944 269 3117 349 
Q 3290 429 3354 730 
L 3667 2227 
L 1587 2227 
L 1267 704 
Q 1242 602 1242 525 
Q 1242 365 1373 317 
Q 1504 269 1702 269 
L 1786 269 
L 1728 0 
L -134 0 
z
" transform="scale(0.015625)"/>
       <path id="NotoSerif-Italic-50" d="M -128 0 
L -70 269 
L 13 269 
Q 224 269 393 349 
Q 563 429 627 730 
L 1293 3866 
Q 1318 3968 1318 4045 
Q 1318 4211 1190 4256 
Q 1062 4301 858 4301 
L 774 4301 
L 832 4570 
L 2470 4570 
Q 3142 4570 3536 4256 
Q 3930 3942 3930 3334 
Q 3930 3091 3853 2822 
Q 3776 2554 3568 2317 
Q 3360 2080 2973 1929 
Q 2586 1779 1971 1779 
L 1498 1779 
L 1267 704 
Q 1242 602 1242 525 
Q 1242 365 1373 317 
Q 1504 269 1702 269 
L 1914 269 
L 1856 0 
L -128 0 
z
M 1901 2080 
Q 2400 2080 2694 2240 
Q 2989 2400 3120 2681 
Q 3251 2963 3251 3328 
Q 3251 3834 3011 4048 
Q 2771 4262 2317 4262 
L 2022 4262 
L 1562 2080 
L 1901 2080 
z
" transform="scale(0.015625)"/>
       <path id="NotoSerif-Italic-72" d="M 819 2573 
Q 838 2662 848 2748 
Q 858 2835 858 2861 
Q 858 3053 694 3107 
Q 531 3162 346 3162 
L 294 3162 
L 352 3430 
L 1485 3430 
L 1350 2509 
L 1414 2509 
Q 1536 2771 1677 2995 
Q 1818 3219 2016 3356 
Q 2214 3494 2502 3494 
Q 2771 3494 2899 3369 
Q 3027 3245 3027 3053 
Q 3027 2829 2902 2697 
Q 2778 2566 2496 2566 
Q 2496 2797 2445 2934 
Q 2394 3072 2240 3072 
Q 2074 3072 1904 2899 
Q 1734 2726 1584 2441 
Q 1434 2157 1312 1821 
Q 1190 1485 1120 1165 
L 877 0 
L 282 0 
L 819 2573 
z
" transform="scale(0.015625)"/>
       <path id="NotoSerif-Italic-65" d="M 1523 -64 
Q 1184 -64 899 83 
Q 614 230 444 521 
Q 275 813 275 1261 
Q 275 1619 396 2006 
Q 518 2394 761 2733 
Q 1005 3072 1360 3283 
Q 1715 3494 2182 3494 
Q 2586 3494 2810 3299 
Q 3034 3104 3034 2758 
Q 3034 2426 2794 2131 
Q 2554 1837 2134 1657 
Q 1715 1478 1178 1478 
L 954 1478 
Q 947 1408 944 1341 
Q 941 1274 941 1210 
Q 941 800 1120 569 
Q 1299 339 1645 339 
Q 1952 339 2192 486 
Q 2432 634 2566 800 
Q 2630 755 2630 640 
Q 2630 499 2512 336 
Q 2394 173 2150 54 
Q 1907 -64 1523 -64 
z
M 1075 1773 
Q 1453 1773 1744 1897 
Q 2035 2022 2204 2243 
Q 2374 2464 2374 2758 
Q 2374 3187 2003 3187 
Q 1824 3187 1664 3062 
Q 1504 2938 1376 2730 
Q 1248 2522 1155 2272 
Q 1062 2022 1011 1773 
L 1075 1773 
z
" transform="scale(0.015625)"/>
       <path id="NotoSerif-Italic-71" d="M 2054 -256 
Q 2074 -147 2115 32 
Q 2157 211 2205 406 
Q 2253 602 2288 755 
Q 2323 909 2336 966 
L 2298 966 
Q 2176 704 2009 467 
Q 1843 230 1622 83 
Q 1402 -64 1101 -64 
Q 730 -64 502 233 
Q 275 531 275 1107 
Q 275 1408 355 1737 
Q 435 2067 595 2377 
Q 755 2688 985 2941 
Q 1216 3194 1517 3344 
Q 1818 3494 2182 3494 
Q 2355 3494 2560 3446 
Q 2765 3398 2893 3322 
L 3213 3494 
L 3437 3494 
L 2554 -678 
Q 2534 -768 2524 -851 
Q 2515 -934 2515 -966 
Q 2515 -1158 2646 -1212 
Q 2778 -1267 2957 -1267 
L 3008 -1267 
L 2950 -1536 
L 1786 -1536 
L 2054 -256 
z
M 1331 339 
Q 1504 339 1680 473 
Q 1856 608 2013 829 
Q 2170 1050 2288 1315 
Q 2406 1581 2464 1843 
L 2701 2976 
Q 2656 3066 2525 3136 
Q 2394 3206 2214 3206 
Q 1952 3206 1747 3056 
Q 1542 2906 1385 2659 
Q 1229 2413 1129 2128 
Q 1030 1843 979 1564 
Q 928 1286 928 1075 
Q 928 678 1043 508 
Q 1158 339 1331 339 
z
" transform="scale(0.015625)"/>
       <path id="NotoSerif-Italic-75" d="M 2918 -64 
Q 2662 -64 2521 115 
Q 2381 294 2381 544 
Q 2381 614 2390 716 
Q 2400 819 2413 922 
L 2362 922 
Q 2182 634 2009 413 
Q 1837 192 1625 67 
Q 1414 -58 1126 -58 
Q 749 -58 595 156 
Q 442 371 442 653 
Q 442 813 480 1005 
Q 518 1197 557 1357 
L 806 2477 
Q 826 2566 845 2700 
Q 864 2835 864 2861 
Q 864 3053 733 3107 
Q 602 3162 416 3162 
L 365 3162 
L 422 3430 
L 1613 3430 
L 1190 1517 
Q 1152 1344 1107 1113 
Q 1062 883 1062 742 
Q 1062 582 1126 467 
Q 1190 352 1376 352 
Q 1549 352 1734 483 
Q 1920 614 2093 832 
Q 2266 1050 2394 1312 
Q 2522 1574 2579 1837 
L 2912 3430 
L 3533 3430 
L 3091 1376 
Q 3078 1306 3052 1171 
Q 3027 1037 3011 896 
Q 2995 755 2995 666 
Q 2995 339 3206 339 
Q 3315 339 3404 374 
Q 3494 410 3616 480 
L 3731 294 
Q 3590 173 3376 54 
Q 3162 -64 2918 -64 
z
" transform="scale(0.015625)"/>
       <path id="NotoSerif-Italic-73" d="M 1216 -64 
Q 736 -64 448 131 
Q 160 326 160 659 
Q 160 832 230 925 
Q 301 1018 393 1050 
Q 486 1082 563 1082 
Q 563 858 633 666 
Q 704 474 867 358 
Q 1030 243 1293 243 
Q 1613 243 1798 393 
Q 1984 544 1984 838 
Q 1984 1062 1837 1222 
Q 1690 1382 1338 1542 
Q 986 1709 774 1929 
Q 563 2150 563 2534 
Q 563 2950 899 3219 
Q 1235 3488 1798 3488 
Q 2150 3488 2368 3398 
Q 2586 3309 2691 3168 
Q 2797 3027 2797 2880 
Q 2797 2682 2669 2582 
Q 2541 2483 2317 2483 
Q 2317 2656 2262 2819 
Q 2208 2982 2083 3088 
Q 1958 3194 1741 3194 
Q 1453 3194 1286 3040 
Q 1120 2886 1120 2643 
Q 1120 2426 1280 2282 
Q 1440 2138 1773 1984 
Q 2125 1824 2333 1593 
Q 2541 1363 2541 992 
Q 2541 525 2185 230 
Q 1830 -64 1216 -64 
z
" transform="scale(0.015625)"/>
      </defs>
      <use xlink:href="#NotoSerif-Italic-54"/>
      <use xlink:href="#NotoSerif-Italic-6f" transform="translate(61.299988 0)"/>
      <use xlink:href="#NotoSerif-Italic-74" transform="translate(118.699982 0)"/>
      <use xlink:href="#NotoSerif-Italic-61" transform="translate(155.499969 0)"/>
      <use xlink:href="#NotoSerif-Italic-6c" transform="translate(213.399963 0)"/>
      <use xlink:href="#NotoSerif-Italic-20" transform="translate(243.799957 0)"/>
      <use xlink:href="#NotoSerif-Italic-48" transform="translate(269.799942 0)"/>
      <use xlink:href="#NotoSerif-Italic-54" transform="translate(349.09993 0)"/>
      <use xlink:href="#NotoSerif-Italic-54" transform="translate(410.399918 0)"/>
      <use xlink:href="#NotoSerif-Italic-50" transform="translate(471.699905 0)"/>
      <use xlink:href="#NotoSerif-Italic-20" transform="translate(533.69989 0)"/>
      <use xlink:href="#NotoSerif-Italic-72" transform="translate(559.699875 0)"/>
      <use xlink:href="#NotoSerif-Italic-65" transform="translate(606.499863 0)"/>
      <use xlink:href="#NotoSerif-Italic-71" transform="translate(655.79985 0)"/>
      <use xlink:href="#NotoSerif-Italic-75" transform="translate(711.799835 0)"/>
      <use xlink:href="#NotoSerif-Italic-65" transform="translate(771.699829 0)"/>
      <use xlink:href="#NotoSerif-Italic-73" transform="translate(820.999817 0)"/>
      <use xlink:href="#NotoSerif-Italic-74" transform="translate(867.399811 0)"/>
      <use xlink:href="#NotoSerif-Italic-73" transform="translate(904.199799 0)"/>
     </g>
    </g>
   </g>
   <g id="matplotlib.axis_2">
    <g id="ytick_1">
     <g id="line2d_6"/>
     <g id="text_7">
      <!-- metadata-unlimited -->
      <g transform="translate(383.868672 171.054784) scale(0.1 -0.1)">
       <defs>
        <path id="NotoSerif-Medium-6d" d="M 166 0 
L 166 288 
L 237 288 
Q 454 288 588 368 
Q 723 448 723 742 
L 723 2720 
Q 723 2995 585 3072 
Q 448 3149 237 3149 
L 218 3149 
L 218 3430 
L 1318 3430 
L 1402 2931 
L 1434 2931 
Q 1613 3264 1853 3382 
Q 2093 3501 2413 3501 
Q 2733 3501 2979 3369 
Q 3226 3238 3341 2931 
L 3392 2931 
Q 3571 3264 3827 3382 
Q 4083 3501 4397 3501 
Q 4896 3501 5174 3203 
Q 5453 2906 5453 2253 
L 5453 749 
Q 5453 448 5581 368 
Q 5709 288 5926 288 
L 5946 288 
L 5946 0 
L 4749 0 
L 4749 2182 
Q 4749 2598 4608 2825 
Q 4467 3053 4122 3053 
Q 3872 3053 3725 2921 
Q 3578 2790 3514 2576 
Q 3450 2362 3450 2112 
L 3450 749 
Q 3450 448 3581 368 
Q 3712 288 3923 288 
L 3942 288 
L 3942 0 
L 2746 0 
L 2746 2182 
Q 2746 2598 2608 2825 
Q 2470 3053 2125 3053 
Q 1862 3053 1708 2909 
Q 1555 2765 1491 2531 
Q 1427 2298 1427 2029 
L 1427 717 
Q 1427 435 1574 361 
Q 1722 288 1933 288 
L 1952 288 
L 1952 0 
L 166 0 
z
" transform="scale(0.015625)"/>
        <path id="NotoSerif-Medium-65" d="M 1869 -64 
Q 1139 -64 739 397 
Q 339 858 339 1690 
Q 339 2592 720 3046 
Q 1101 3501 1805 3501 
Q 2445 3501 2813 3113 
Q 3181 2726 3181 1965 
L 3181 1664 
L 1062 1664 
Q 1075 979 1308 668 
Q 1542 358 1997 358 
Q 2330 358 2557 502 
Q 2784 646 2899 832 
Q 2950 813 2998 749 
Q 3046 685 3046 595 
Q 3046 461 2918 307 
Q 2790 154 2531 45 
Q 2272 -64 1869 -64 
z
M 2445 2029 
Q 2445 2528 2297 2832 
Q 2150 3136 1798 3136 
Q 1466 3136 1283 2851 
Q 1101 2566 1075 2029 
L 2445 2029 
z
" transform="scale(0.015625)"/>
        <path id="NotoSerif-Medium-74" d="M 1562 -64 
Q 1075 -64 841 157 
Q 608 378 608 934 
L 608 3046 
L 122 3046 
L 122 3322 
Q 262 3322 409 3379 
Q 557 3437 659 3546 
Q 858 3750 954 4218 
L 1312 4218 
L 1312 3430 
L 2150 3430 
L 2150 3046 
L 1312 3046 
L 1312 934 
Q 1312 621 1437 473 
Q 1562 326 1786 326 
Q 1901 326 2003 339 
Q 2106 352 2208 371 
L 2208 58 
Q 2118 13 1936 -25 
Q 1754 -64 1562 -64 
z
" transform="scale(0.015625)"/>
        <path id="NotoSerif-Medium-61" d="M 1306 -64 
Q 883 -64 598 189 
Q 314 442 314 966 
Q 314 1478 672 1724 
Q 1030 1971 1760 1997 
L 2291 2016 
L 2291 2387 
Q 2291 2618 2252 2794 
Q 2214 2970 2096 3066 
Q 1978 3162 1741 3162 
Q 1402 3162 1299 2966 
Q 1197 2771 1197 2464 
Q 890 2464 736 2557 
Q 582 2650 582 2874 
Q 582 3098 742 3235 
Q 902 3373 1174 3437 
Q 1446 3501 1779 3501 
Q 2387 3501 2691 3251 
Q 2995 3002 2995 2400 
L 2995 749 
Q 2995 480 3084 384 
Q 3174 288 3392 288 
L 3411 288 
L 3411 0 
L 2458 0 
L 2342 518 
L 2291 518 
Q 2157 346 2029 214 
Q 1901 83 1734 9 
Q 1568 -64 1306 -64 
z
M 1510 352 
Q 1869 352 2080 589 
Q 2291 826 2291 1222 
L 2291 1728 
L 1920 1709 
Q 1421 1690 1229 1494 
Q 1037 1299 1037 934 
Q 1037 352 1510 352 
z
" transform="scale(0.015625)"/>
        <path id="NotoSerif-Medium-64" d="M 1638 -64 
Q 1011 -64 672 361 
Q 333 787 333 1709 
Q 333 2637 672 3065 
Q 1011 3494 1638 3494 
Q 2003 3494 2233 3344 
Q 2464 3194 2605 2957 
L 2643 2957 
Q 2624 3110 2617 3308 
Q 2611 3507 2611 3661 
L 2611 4154 
Q 2611 4429 2454 4502 
Q 2298 4576 2086 4576 
L 2035 4576 
L 2035 4864 
L 3315 4864 
L 3315 736 
Q 3315 454 3462 371 
Q 3610 288 3827 288 
L 3878 288 
L 3878 0 
L 2746 0 
L 2650 557 
L 2624 557 
Q 2477 269 2246 102 
Q 2016 -64 1638 -64 
z
M 1798 365 
Q 2259 365 2435 697 
Q 2611 1030 2611 1709 
Q 2611 2368 2435 2720 
Q 2259 3072 1792 3072 
Q 1395 3072 1225 2720 
Q 1056 2368 1056 1702 
Q 1056 1030 1225 697 
Q 1395 365 1798 365 
z
" transform="scale(0.015625)"/>
        <path id="NotoSerif-Medium-2d" d="M 160 1478 
L 160 2010 
L 1824 2010 
L 1824 1478 
L 160 1478 
z
" transform="scale(0.015625)"/>
        <path id="NotoSerif-Medium-75" d="M 1728 -64 
Q 1210 -64 941 237 
Q 672 538 672 1190 
L 672 2701 
Q 672 2982 531 3062 
Q 390 3142 173 3142 
L 154 3142 
L 154 3430 
L 1376 3430 
L 1376 1267 
Q 1376 851 1507 617 
Q 1638 384 1997 384 
Q 2387 384 2563 662 
Q 2739 941 2739 1402 
L 2739 2694 
Q 2739 2989 2595 3065 
Q 2451 3142 2246 3142 
L 2221 3142 
L 2221 3430 
L 3443 3430 
L 3443 710 
Q 3443 429 3590 358 
Q 3738 288 3942 288 
L 3968 288 
L 3968 0 
L 2880 0 
L 2784 499 
L 2752 499 
Q 2560 166 2304 51 
Q 2048 -64 1728 -64 
z
" transform="scale(0.015625)"/>
        <path id="NotoSerif-Medium-6e" d="M 166 0 
L 166 288 
L 211 288 
Q 429 288 576 368 
Q 723 448 723 742 
L 723 2714 
Q 723 2989 582 3065 
Q 442 3142 230 3142 
L 198 3142 
L 198 3430 
L 1318 3430 
L 1402 2931 
L 1434 2931 
Q 1619 3264 1862 3382 
Q 2106 3501 2426 3501 
Q 2931 3501 3212 3203 
Q 3494 2906 3494 2253 
L 3494 749 
Q 3494 448 3619 368 
Q 3744 288 3962 288 
L 3994 288 
L 3994 0 
L 2790 0 
L 2790 2182 
Q 2790 2598 2649 2825 
Q 2509 3053 2144 3053 
Q 1875 3053 1718 2909 
Q 1562 2765 1494 2531 
Q 1427 2298 1427 2029 
L 1427 717 
Q 1427 435 1568 361 
Q 1709 288 1920 288 
L 1952 288 
L 1952 0 
L 166 0 
z
" transform="scale(0.015625)"/>
        <path id="NotoSerif-Medium-6c" d="M 90 0 
L 90 288 
L 173 288 
Q 384 288 531 371 
Q 678 454 678 749 
L 678 4154 
Q 678 4339 604 4428 
Q 531 4518 416 4547 
Q 301 4576 173 4576 
L 90 4576 
L 90 4864 
L 1382 4864 
L 1382 749 
Q 1382 454 1529 371 
Q 1677 288 1888 288 
L 1971 288 
L 1971 0 
L 90 0 
z
" transform="scale(0.015625)"/>
        <path id="NotoSerif-Medium-69" d="M 1050 4051 
Q 877 4051 755 4147 
Q 634 4243 634 4467 
Q 634 4698 755 4790 
Q 877 4883 1050 4883 
Q 1216 4883 1341 4790 
Q 1466 4698 1466 4467 
Q 1466 4243 1341 4147 
Q 1216 4051 1050 4051 
z
M 134 0 
L 134 288 
L 218 288 
Q 422 288 572 365 
Q 723 442 723 723 
L 723 2707 
Q 723 2982 572 3062 
Q 422 3142 218 3142 
L 186 3142 
L 186 3430 
L 1427 3430 
L 1427 749 
Q 1427 454 1574 371 
Q 1722 288 1933 288 
L 2016 288 
L 2016 0 
L 134 0 
z
" transform="scale(0.015625)"/>
       </defs>
       <use xlink:href="#NotoSerif-Medium-6d"/>
       <use xlink:href="#NotoSerif-Medium-65" transform="translate(95.599991 0)"/>
       <use xlink:href="#NotoSerif-Medium-74" transform="translate(150.099976 0)"/>
       <use xlink:href="#NotoSerif-Medium-61" transform="translate(186.799973 0)"/>
       <use xlink:href="#NotoSerif-Medium-64" transform="translate(244.09996 0)"/>
       <use xlink:href="#NotoSerif-Medium-61" transform="translate(306.499954 0)"/>
       <use xlink:href="#NotoSerif-Medium-74" transform="translate(363.799942 0)"/>
       <use xlink:href="#NotoSerif-Medium-61" transform="translate(400.499939 0)"/>
       <use xlink:href="#NotoSerif-Medium-2d" transform="translate(457.799927 0)"/>
       <use xlink:href="#NotoSerif-Medium-75" transform="translate(488.799911 0)"/>
       <use xlink:href="#NotoSerif-Medium-6e" transform="translate(553.199905 0)"/>
       <use xlink:href="#NotoSerif-Medium-6c" transform="translate(618.299896 0)"/>
       <use xlink:href="#NotoSerif-Medium-69" transform="translate(650.499893 0)"/>
       <use xlink:href="#NotoSerif-Medium-6d" transform="translate(683.399887 0)"/>
       <use xlink:href="#NotoSerif-Medium-69" transform="translate(778.999878 0)"/>
       <use xlink:href="#NotoSerif-Medium-74" transform="translate(811.899872 0)"/>
       <use xlink:href="#NotoSerif-Medium-65" transform="translate(848.599869 0)"/>
       <use xlink:href="#NotoSerif-Medium-64" transform="translate(903.099854 0)"/>
      </g>
     </g>
    </g>
    <g id="ytick_2">
     <g id="line2d_7"/>
     <g id="text_8">
      <!-- metadata-once -->
      <g transform="translate(396.279609 153.764832) scale(0.1 -0.1)">
       <defs>
        <path id="NotoSerif-Medium-6f" d="M 1869 -64 
Q 1158 -64 748 377 
Q 339 819 339 1722 
Q 339 2624 729 3062 
Q 1120 3501 1888 3501 
Q 2598 3501 3008 3062 
Q 3418 2624 3418 1722 
Q 3418 819 3024 377 
Q 2630 -64 1869 -64 
z
M 1882 288 
Q 2330 288 2512 653 
Q 2694 1018 2694 1722 
Q 2694 2432 2508 2787 
Q 2323 3142 1875 3142 
Q 1427 3142 1244 2787 
Q 1062 2432 1062 1722 
Q 1062 1018 1248 653 
Q 1434 288 1882 288 
z
" transform="scale(0.015625)"/>
        <path id="NotoSerif-Medium-63" d="M 1830 -64 
Q 1395 -64 1056 112 
Q 717 288 528 675 
Q 339 1062 339 1696 
Q 339 2387 531 2777 
Q 723 3168 1056 3334 
Q 1389 3501 1805 3501 
Q 2112 3501 2374 3424 
Q 2637 3347 2800 3200 
Q 2963 3053 2963 2842 
Q 2963 2624 2812 2512 
Q 2662 2400 2317 2400 
Q 2317 2707 2214 2934 
Q 2112 3162 1811 3162 
Q 1581 3162 1411 3034 
Q 1242 2906 1152 2589 
Q 1062 2272 1062 1702 
Q 1062 1030 1273 700 
Q 1485 371 1971 371 
Q 2278 371 2505 502 
Q 2733 634 2842 838 
Q 2963 749 2963 576 
Q 2963 422 2838 275 
Q 2714 128 2464 32 
Q 2214 -64 1830 -64 
z
" transform="scale(0.015625)"/>
       </defs>
       <use xlink:href="#NotoSerif-Medium-6d"/>
       <use xlink:href="#NotoSerif-Medium-65" transform="translate(95.599991 0)"/>
       <use xlink:href="#NotoSerif-Medium-74" transform="translate(150.099976 0)"/>
       <use xlink:href="#NotoSerif-Medium-61" transform="translate(186.799973 0)"/>
       <use xlink:href="#NotoSerif-Medium-64" transform="translate(244.09996 0)"/>
       <use xlink:href="#NotoSerif-Medium-61" transform="translate(306.499954 0)"/>
       <use xlink:href="#NotoSerif-Medium-74" transform="translate(363.799942 0)"/>
       <use xlink:href="#NotoSerif-Medium-61" transform="translate(400.499939 0)"/>
       <use xlink:href="#NotoSerif-Medium-2d" transform="translate(457.799927 0)"/>
       <use xlink:href="#NotoSerif-Medium-6f" transform="translate(488.799911 0)"/>
       <use xlink:href="#NotoSerif-Medium-6e" transform="translate(547.499908 0)"/>
       <use xlink:href="#NotoSerif-Medium-63" transform="translate(612.599899 0)"/>
       <use xlink:href="#NotoSerif-Medium-65" transform="translate(662.799896 0)"/>
      </g>
     </g>
    </g>
    <g id="ytick_3">
     <g id="line2d_8"/>
     <g id="text_9">
      <!-- interval-20000-once -->
      <g transform="translate(384.300703 136.47488) scale(0.1 -0.1)">
       <defs>
        <path id="NotoSerif-Medium-72" d="M 186 0 
L 186 288 
L 211 288 
Q 422 288 572 368 
Q 723 448 723 749 
L 723 2707 
Q 723 2989 576 3065 
Q 429 3142 218 3142 
L 198 3142 
L 198 3430 
L 1261 3430 
L 1389 2803 
L 1421 2803 
Q 1504 3002 1606 3158 
Q 1709 3315 1875 3404 
Q 2042 3494 2317 3494 
Q 2669 3494 2838 3363 
Q 3008 3232 3008 3002 
Q 3008 2778 2851 2646 
Q 2694 2515 2355 2515 
Q 2355 2778 2284 2899 
Q 2214 3021 2029 3021 
Q 1862 3021 1744 2889 
Q 1626 2758 1558 2553 
Q 1491 2349 1459 2125 
Q 1427 1901 1427 1715 
L 1427 717 
Q 1427 435 1577 361 
Q 1728 288 1933 288 
L 2118 288 
L 2118 0 
L 186 0 
z
" transform="scale(0.015625)"/>
        <path id="NotoSerif-Medium-76" d="M 506 2810 
Q 435 3008 332 3075 
Q 230 3142 26 3142 
L 26 3430 
L 1728 3430 
L 1728 3142 
L 1619 3142 
Q 1254 3142 1254 2854 
Q 1254 2797 1270 2739 
Q 1286 2682 1306 2618 
L 1741 1408 
Q 1824 1178 1897 922 
Q 1971 666 2016 506 
Q 2048 634 2137 867 
Q 2227 1101 2304 1306 
L 2758 2566 
Q 2816 2726 2816 2848 
Q 2816 3142 2419 3142 
L 2362 3142 
L 2362 3430 
L 3738 3430 
L 3738 3142 
L 3648 3142 
Q 3475 3142 3382 3046 
Q 3290 2950 3181 2650 
L 2195 0 
L 1530 0 
L 506 2810 
z
" transform="scale(0.015625)"/>
        <path id="NotoSerif-Medium-32" d="M 358 0 
L 358 512 
L 1389 1683 
Q 1747 2080 1948 2377 
Q 2150 2675 2236 2940 
Q 2323 3206 2323 3501 
Q 2323 3872 2169 4083 
Q 2016 4294 1715 4294 
Q 1440 4294 1296 4166 
Q 1152 4038 1094 3814 
Q 1037 3590 1037 3309 
Q 781 3309 601 3401 
Q 422 3494 422 3763 
Q 422 4128 745 4381 
Q 1069 4634 1715 4634 
Q 2349 4634 2704 4339 
Q 3059 4045 3059 3558 
Q 3059 3264 2937 2985 
Q 2816 2707 2573 2396 
Q 2330 2086 1952 1696 
L 890 563 
L 2349 563 
Q 2611 563 2726 700 
Q 2842 838 2886 1037 
L 2918 1171 
L 3219 1171 
L 3187 0 
L 358 0 
z
" transform="scale(0.015625)"/>
        <path id="NotoSerif-Medium-30" d="M 1798 -64 
Q 1254 -64 918 230 
Q 582 525 428 1056 
Q 275 1587 275 2298 
Q 275 3008 428 3533 
Q 582 4058 918 4346 
Q 1254 4634 1805 4634 
Q 2317 4634 2653 4346 
Q 2989 4058 3152 3530 
Q 3315 3002 3315 2291 
Q 3315 1581 3152 1053 
Q 2989 525 2653 230 
Q 2317 -64 1798 -64 
z
M 1798 301 
Q 2234 301 2397 825 
Q 2560 1350 2560 2291 
Q 2560 3232 2397 3750 
Q 2234 4269 1805 4269 
Q 1363 4269 1196 3750 
Q 1030 3232 1030 2291 
Q 1030 1350 1196 825 
Q 1363 301 1798 301 
z
" transform="scale(0.015625)"/>
       </defs>
       <use xlink:href="#NotoSerif-Medium-69"/>
       <use xlink:href="#NotoSerif-Medium-6e" transform="translate(32.899994 0)"/>
       <use xlink:href="#NotoSerif-Medium-74" transform="translate(97.999985 0)"/>
       <use xlink:href="#NotoSerif-Medium-65" transform="translate(134.699982 0)"/>
       <use xlink:href="#NotoSerif-Medium-72" transform="translate(189.199966 0)"/>
       <use xlink:href="#NotoSerif-Medium-76" transform="translate(237.699951 0)"/>
       <use xlink:href="#NotoSerif-Medium-61" transform="translate(296.399948 0)"/>
       <use xlink:href="#NotoSerif-Medium-6c" transform="translate(353.699936 0)"/>
       <use xlink:href="#NotoSerif-Medium-2d" transform="translate(385.899933 0)"/>
       <use xlink:href="#NotoSerif-Medium-32" transform="translate(416.899918 0)"/>
       <use xlink:href="#NotoSerif-Medium-30" transform="translate(472.999908 0)"/>
       <use xlink:href="#NotoSerif-Medium-30" transform="translate(529.099899 0)"/>
       <use xlink:href="#NotoSerif-Medium-30" transform="translate(585.19989 0)"/>
       <use xlink:href="#NotoSerif-Medium-30" transform="translate(641.299881 0)"/>
       <use xlink:href="#NotoSerif-Medium-2d" transform="translate(697.399872 0)"/>
       <use xlink:href="#NotoSerif-Medium-6f" transform="translate(728.399857 0)"/>
       <use xlink:href="#NotoSerif-Medium-6e" transform="translate(787.099854 0)"/>
       <use xlink:href="#NotoSerif-Medium-63" transform="translate(852.199844 0)"/>
       <use xlink:href="#NotoSerif-Medium-65" transform="translate(902.399841 0)"/>
      </g>
     </g>
    </g>
    <g id="ytick_4">
     <g id="line2d_9"/>
     <g id="text_10">
      <!-- interval-10000-once -->
      <g transform="translate(384.300703 119.184928) scale(0.1 -0.1)">
       <defs>
        <path id="NotoSerif-Medium-31" d="M 602 0 
L 602 288 
L 1056 288 
Q 1261 288 1401 371 
Q 1542 454 1542 736 
L 1542 4051 
Q 1299 3757 1104 3571 
Q 909 3386 717 3386 
Q 576 3386 480 3491 
Q 384 3597 384 3770 
Q 576 3821 797 3923 
Q 1018 4026 1331 4262 
L 1779 4595 
L 2278 4595 
L 2278 736 
Q 2278 461 2416 374 
Q 2554 288 2765 288 
L 3104 288 
L 3104 0 
L 602 0 
z
" transform="scale(0.015625)"/>
       </defs>
       <use xlink:href="#NotoSerif-Medium-69"/>
       <use xlink:href="#NotoSerif-Medium-6e" transform="translate(32.899994 0)"/>
       <use xlink:href="#NotoSerif-Medium-74" transform="translate(97.999985 0)"/>
       <use xlink:href="#NotoSerif-Medium-65" transform="translate(134.699982 0)"/>
       <use xlink:href="#NotoSerif-Medium-72" transform="translate(189.199966 0)"/>
       <use xlink:href="#NotoSerif-Medium-76" transform="translate(237.699951 0)"/>
       <use xlink:href="#NotoSerif-Medium-61" transform="translate(296.399948 0)"/>
       <use xlink:href="#NotoSerif-Medium-6c" transform="translate(353.699936 0)"/>
       <use xlink:href="#NotoSerif-Medium-2d" transform="translate(385.899933 0)"/>
       <use xlink:href="#NotoSerif-Medium-31" transform="translate(416.899918 0)"/>
       <use xlink:href="#NotoSerif-Medium-30" transform="translate(472.999908 0)"/>
       <use xlink:href="#NotoSerif-Medium-30" transform="translate(529.099899 0)"/>
       <use xlink:href="#NotoSerif-Medium-30" transform="translate(585.19989 0)"/>
       <use xlink:href="#NotoSerif-Medium-30" transform="translate(641.299881 0)"/>
       <use xlink:href="#NotoSerif-Medium-2d" transform="translate(697.399872 0)"/>
       <use xlink:href="#NotoSerif-Medium-6f" transform="translate(728.399857 0)"/>
       <use xlink:href="#NotoSerif-Medium-6e" transform="translate(787.099854 0)"/>
       <use xlink:href="#NotoSerif-Medium-63" transform="translate(852.199844 0)"/>
       <use xlink:href="#NotoSerif-Medium-65" transform="translate(902.399841 0)"/>
      </g>
     </g>
    </g>
    <g id="ytick_5">
     <g id="line2d_10"/>
     <g id="text_11">
      <!-- interval-5000-once -->
      <g transform="translate(387.105391 101.894976) scale(0.1 -0.1)">
       <defs>
        <path id="NotoSerif-Medium-35" d="M 1568 -64 
Q 1094 -64 822 41 
Q 550 147 441 304 
Q 333 461 333 621 
Q 333 1011 762 1011 
Q 762 742 944 537 
Q 1126 333 1517 333 
Q 1766 333 1964 432 
Q 2163 531 2281 764 
Q 2400 998 2400 1395 
Q 2400 1894 2144 2137 
Q 1888 2381 1453 2381 
Q 1146 2381 979 2339 
Q 813 2298 685 2253 
L 512 2317 
L 717 4570 
L 2918 4570 
L 2950 3546 
L 2650 3546 
L 2618 3744 
Q 2598 3878 2537 3942 
Q 2477 4006 2291 4006 
L 1024 4006 
L 902 2656 
Q 1005 2688 1193 2720 
Q 1382 2752 1645 2752 
Q 2080 2752 2419 2601 
Q 2758 2451 2953 2150 
Q 3149 1850 3149 1395 
Q 3149 928 2947 601 
Q 2746 275 2387 105 
Q 2029 -64 1568 -64 
z
" transform="scale(0.015625)"/>
       </defs>
       <use xlink:href="#NotoSerif-Medium-69"/>
       <use xlink:href="#NotoSerif-Medium-6e" transform="translate(32.899994 0)"/>
       <use xlink:href="#NotoSerif-Medium-74" transform="translate(97.999985 0)"/>
       <use xlink:href="#NotoSerif-Medium-65" transform="translate(134.699982 0)"/>
       <use xlink:href="#NotoSerif-Medium-72" transform="translate(189.199966 0)"/>
       <use xlink:href="#NotoSerif-Medium-76" transform="translate(237.699951 0)"/>
       <use xlink:href="#NotoSerif-Medium-61" transform="translate(296.399948 0)"/>
       <use xlink:href="#NotoSerif-Medium-6c" transform="translate(353.699936 0)"/>
       <use xlink:href="#NotoSerif-Medium-2d" transform="translate(385.899933 0)"/>
       <use xlink:href="#NotoSerif-Medium-35" transform="translate(416.899918 0)"/>
       <use xlink:href="#NotoSerif-Medium-30" transform="translate(472.999908 0)"/>
       <use xlink:href="#NotoSerif-Medium-30" transform="translate(529.099899 0)"/>
       <use xlink:href="#NotoSerif-Medium-30" transform="translate(585.19989 0)"/>
       <use xlink:href="#NotoSerif-Medium-2d" transform="translate(641.299881 0)"/>
       <use xlink:href="#NotoSerif-Medium-6f" transform="translate(672.299866 0)"/>
       <use xlink:href="#NotoSerif-Medium-6e" transform="translate(730.999863 0)"/>
       <use xlink:href="#NotoSerif-Medium-63" transform="translate(796.099854 0)"/>
       <use xlink:href="#NotoSerif-Medium-65" transform="translate(846.29985 0)"/>
      </g>
     </g>
    </g>
    <g id="ytick_6">
     <g id="line2d_11"/>
     <g id="text_12">
      <!-- interval-2000-once -->
      <g transform="translate(387.105391 84.605024) scale(0.1 -0.1)">
       <use xlink:href="#NotoSerif-Medium-69"/>
       <use xlink:href="#NotoSerif-Medium-6e" transform="translate(32.899994 0)"/>
       <use xlink:href="#NotoSerif-Medium-74" transform="translate(97.999985 0)"/>
       <use xlink:href="#NotoSerif-Medium-65" transform="translate(134.699982 0)"/>
       <use xlink:href="#NotoSerif-Medium-72" transform="translate(189.199966 0)"/>
       <use xlink:href="#NotoSerif-Medium-76" transform="translate(237.699951 0)"/>
       <use xlink:href="#NotoSerif-Medium-61" transform="translate(296.399948 0)"/>
       <use xlink:href="#NotoSerif-Medium-6c" transform="translate(353.699936 0)"/>
       <use xlink:href="#NotoSerif-Medium-2d" transform="translate(385.899933 0)"/>
       <use xlink:href="#NotoSerif-Medium-32" transform="translate(416.899918 0)"/>
       <use xlink:href="#NotoSerif-Medium-30" transform="translate(472.999908 0)"/>
       <use xlink:href="#NotoSerif-Medium-30" transform="translate(529.099899 0)"/>
       <use xlink:href="#NotoSerif-Medium-30" transform="translate(585.19989 0)"/>
       <use xlink:href="#NotoSerif-Medium-2d" transform="translate(641.299881 0)"/>
       <use xlink:href="#NotoSerif-Medium-6f" transform="translate(672.299866 0)"/>
       <use xlink:href="#NotoSerif-Medium-6e" transform="translate(730.999863 0)"/>
       <use xlink:href="#NotoSerif-Medium-63" transform="translate(796.099854 0)"/>
       <use xlink:href="#NotoSerif-Medium-65" transform="translate(846.29985 0)"/>
      </g>
     </g>
    </g>
    <g id="ytick_7">
     <g id="line2d_12"/>
     <g id="text_13">
      <!-- interval-1000-once -->
      <g transform="translate(387.105391 67.315072) scale(0.1 -0.1)">
       <use xlink:href="#NotoSerif-Medium-69"/>
       <use xlink:href="#NotoSerif-Medium-6e" transform="translate(32.899994 0)"/>
       <use xlink:href="#NotoSerif-Medium-74" transform="translate(97.999985 0)"/>
       <use xlink:href="#NotoSerif-Medium-65" transform="translate(134.699982 0)"/>
       <use xlink:href="#NotoSerif-Medium-72" transform="translate(189.199966 0)"/>
       <use xlink:href="#NotoSerif-Medium-76" transform="translate(237.699951 0)"/>
       <use xlink:href="#NotoSerif-Medium-61" transform="translate(296.399948 0)"/>
       <use xlink:href="#NotoSerif-Medium-6c" transform="translate(353.699936 0)"/>
       <use xlink:href="#NotoSerif-Medium-2d" transform="translate(385.899933 0)"/>
       <use xlink:href="#NotoSerif-Medium-31" transform="translate(416.899918 0)"/>
       <use xlink:href="#NotoSerif-Medium-30" transform="translate(472.999908 0)"/>
       <use xlink:href="#NotoSerif-Medium-30" transform="translate(529.099899 0)"/>
       <use xlink:href="#NotoSerif-Medium-30" transform="translate(585.19989 0)"/>
       <use xlink:href="#NotoSerif-Medium-2d" transform="translate(641.299881 0)"/>
       <use xlink:href="#NotoSerif-Medium-6f" transform="translate(672.299866 0)"/>
       <use xlink:href="#NotoSerif-Medium-6e" transform="translate(730.999863 0)"/>
       <use xlink:href="#NotoSerif-Medium-63" transform="translate(796.099854 0)"/>
       <use xlink:href="#NotoSerif-Medium-65" transform="translate(846.29985 0)"/>
      </g>
     </g>
    </g>
    <g id="ytick_8">
     <g id="line2d_13"/>
     <g id="text_14">
      <!-- interval-100-once -->
      <g transform="translate(389.910078 50.02512) scale(0.1 -0.1)">
       <use xlink:href="#NotoSerif-Medium-69"/>
       <use xlink:href="#NotoSerif-Medium-6e" transform="translate(32.899994 0)"/>
       <use xlink:href="#NotoSerif-Medium-74" transform="translate(97.999985 0)"/>
       <use xlink:href="#NotoSerif-Medium-65" transform="translate(134.699982 0)"/>
       <use xlink:href="#NotoSerif-Medium-72" transform="translate(189.199966 0)"/>
       <use xlink:href="#NotoSerif-Medium-76" transform="translate(237.699951 0)"/>
       <use xlink:href="#NotoSerif-Medium-61" transform="translate(296.399948 0)"/>
       <use xlink:href="#NotoSerif-Medium-6c" transform="translate(353.699936 0)"/>
       <use xlink:href="#NotoSerif-Medium-2d" transform="translate(385.899933 0)"/>
       <use xlink:href="#NotoSerif-Medium-31" transform="translate(416.899918 0)"/>
       <use xlink:href="#NotoSerif-Medium-30" transform="translate(472.999908 0)"/>
       <use xlink:href="#NotoSerif-Medium-30" transform="translate(529.099899 0)"/>
       <use xlink:href="#NotoSerif-Medium-2d" transform="translate(585.19989 0)"/>
       <use xlink:href="#NotoSerif-Medium-6f" transform="translate(616.199875 0)"/>
       <use xlink:href="#NotoSerif-Medium-6e" transform="translate(674.899872 0)"/>
       <use xlink:href="#NotoSerif-Medium-63" transform="translate(739.999863 0)"/>
       <use xlink:href="#NotoSerif-Medium-65" transform="translate(790.19986 0)"/>
      </g>
     </g>
    </g>
    <g id="ytick_9">
     <g id="line2d_14"/>
     <g id="text_15">
      <!-- overhead -->
      <g transform="translate(409.193672 32.735168) scale(0.1 -0.1)">
       <defs>
        <path id="NotoSerif-Medium-68" d="M 115 0 
L 115 288 
L 166 288 
Q 378 288 528 368 
Q 678 448 678 742 
L 678 4154 
Q 678 4339 604 4428 
Q 531 4518 416 4547 
Q 301 4576 173 4576 
L 115 4576 
L 115 4864 
L 1382 4864 
L 1382 3539 
Q 1382 3418 1376 3283 
Q 1370 3149 1363 3049 
Q 1357 2950 1357 2938 
L 1389 2938 
Q 1530 3206 1760 3353 
Q 1990 3501 2336 3501 
Q 2880 3501 3165 3203 
Q 3450 2906 3450 2253 
L 3450 749 
Q 3450 448 3581 368 
Q 3712 288 3923 288 
L 3942 288 
L 3942 0 
L 2746 0 
L 2746 2182 
Q 2746 2598 2602 2825 
Q 2458 3053 2093 3053 
Q 1722 3053 1552 2765 
Q 1382 2477 1382 2029 
L 1382 717 
Q 1382 435 1529 361 
Q 1677 288 1888 288 
L 1907 288 
L 1907 0 
L 115 0 
z
" transform="scale(0.015625)"/>
       </defs>
       <use xlink:href="#NotoSerif-Medium-6f"/>
       <use xlink:href="#NotoSerif-Medium-76" transform="translate(58.699997 0)"/>
       <use xlink:href="#NotoSerif-Medium-65" transform="translate(117.399994 0)"/>
       <use xlink:href="#NotoSerif-Medium-72" transform="translate(171.899979 0)"/>
       <use xlink:href="#NotoSerif-Medium-68" transform="translate(220.399963 0)"/>
       <use xlink:href="#NotoSerif-Medium-65" transform="translate(284.799957 0)"/>
       <use xlink:href="#NotoSerif-Medium-61" transform="translate(339.299942 0)"/>
       <use xlink:href="#NotoSerif-Medium-64" transform="translate(396.59993 0)"/>
      </g>
     </g>
    </g>
    <g id="ytick_10">
     <g id="line2d_15"/>
     <g id="text_16">
      <!-- baseline -->
      <g transform="translate(411.903828 15.445216) scale(0.1 -0.1)">
       <defs>
        <path id="NotoSerif-Medium-62" d="M 2349 -64 
Q 1978 -64 1741 93 
Q 1504 250 1363 499 
L 1325 499 
L 1190 0 
L 115 0 
L 115 288 
L 160 288 
Q 301 288 419 320 
Q 538 352 608 448 
Q 678 544 678 749 
L 678 4141 
Q 678 4422 524 4499 
Q 371 4576 160 4576 
L 115 4576 
L 115 4864 
L 1382 4864 
L 1382 3712 
Q 1382 3597 1379 3433 
Q 1376 3270 1366 3120 
Q 1357 2970 1350 2893 
L 1382 2893 
Q 1523 3168 1753 3331 
Q 1984 3494 2355 3494 
Q 2982 3494 3318 3068 
Q 3654 2643 3654 1722 
Q 3654 794 3318 365 
Q 2982 -64 2349 -64 
z
M 2195 365 
Q 2592 365 2761 717 
Q 2931 1069 2931 1728 
Q 2931 2406 2761 2739 
Q 2592 3072 2189 3072 
Q 1728 3072 1555 2739 
Q 1382 2406 1382 1722 
Q 1382 1069 1555 717 
Q 1728 365 2195 365 
z
" transform="scale(0.015625)"/>
        <path id="NotoSerif-Medium-73" d="M 1376 -64 
Q 845 -64 557 115 
Q 269 294 269 627 
Q 269 800 339 899 
Q 410 998 515 1040 
Q 621 1082 717 1082 
Q 717 730 877 499 
Q 1037 269 1414 269 
Q 1747 269 1920 422 
Q 2093 576 2093 813 
Q 2093 966 2022 1068 
Q 1952 1171 1782 1264 
Q 1613 1357 1312 1478 
Q 973 1619 749 1756 
Q 525 1894 419 2083 
Q 314 2272 314 2560 
Q 314 3014 656 3254 
Q 998 3494 1562 3494 
Q 2054 3494 2297 3315 
Q 2541 3136 2541 2899 
Q 2541 2720 2413 2611 
Q 2285 2502 2042 2502 
Q 2042 2822 1901 2998 
Q 1760 3174 1478 3174 
Q 1178 3174 1037 3043 
Q 896 2912 896 2694 
Q 896 2464 1075 2336 
Q 1254 2208 1683 2042 
Q 2195 1837 2435 1613 
Q 2675 1389 2675 966 
Q 2675 467 2323 201 
Q 1971 -64 1376 -64 
z
" transform="scale(0.015625)"/>
       </defs>
       <use xlink:href="#NotoSerif-Medium-62"/>
       <use xlink:href="#NotoSerif-Medium-61" transform="translate(62.399994 0)"/>
       <use xlink:href="#NotoSerif-Medium-73" transform="translate(119.699982 0)"/>
       <use xlink:href="#NotoSerif-Medium-65" transform="translate(165.599976 0)"/>
       <use xlink:href="#NotoSerif-Medium-6c" transform="translate(220.09996 0)"/>
       <use xlink:href="#NotoSerif-Medium-69" transform="translate(252.299957 0)"/>
       <use xlink:href="#NotoSerif-Medium-6e" transform="translate(285.199951 0)"/>
       <use xlink:href="#NotoSerif-Medium-65" transform="translate(350.299942 0)"/>
      </g>
     </g>
    </g>
   </g>
   <g id="line2d_16">
    <path d="M 209.958994 167.254784 
L 209.958994 167.254784 
" clip-path="url(#p084bfd07ef)" style="fill: none; stroke: #d3d3d3; stroke-linecap: square"/>
   </g>
   <g id="line2d_17">
    <path d="M 209.958994 167.254784 
L 209.958994 167.254784 
" clip-path="url(#p084bfd07ef)" style="fill: none; stroke: #d3d3d3; stroke-linecap: square"/>
   </g>
   <g id="line2d_18">
    <path d="M 209.958994 169.416028 
L 209.958994 165.09354 
" clip-path="url(#p084bfd07ef)" style="fill: none; stroke: #d3d3d3; stroke-linecap: square"/>
   </g>
   <g id="line2d_19">
    <path d="M 209.958994 169.416028 
L 209.958994 165.09354 
" clip-path="url(#p084bfd07ef)" style="fill: none; stroke: #d3d3d3; stroke-linecap: square"/>
   </g>
   <g id="line2d_20"/>
   <g id="line2d_21">
    <path d="M 209.958994 149.964832 
L 209.958994 149.964832 
" clip-path="url(#p084bfd07ef)" style="fill: none; stroke: #d3d3d3; stroke-linecap: square"/>
   </g>
   <g id="line2d_22">
    <path d="M 209.958994 149.964832 
L 209.958994 149.964832 
" clip-path="url(#p084bfd07ef)" style="fill: none; stroke: #d3d3d3; stroke-linecap: square"/>
   </g>
   <g id="line2d_23">
    <path d="M 209.958994 152.126076 
L 209.958994 147.803588 
" clip-path="url(#p084bfd07ef)" style="fill: none; stroke: #d3d3d3; stroke-linecap: square"/>
   </g>
   <g id="line2d_24">
    <path d="M 209.958994 152.126076 
L 209.958994 147.803588 
" clip-path="url(#p084bfd07ef)" style="fill: none; stroke: #d3d3d3; stroke-linecap: square"/>
   </g>
   <g id="line2d_25"/>
   <g id="line2d_26">
    <path d="M 207.217615 132.67488 
L 209.958994 132.67488 
" clip-path="url(#p084bfd07ef)" style="fill: none; stroke: #d3d3d3; stroke-linecap: square"/>
   </g>
   <g id="line2d_27">
    <path d="M 207.217615 132.67488 
L 196.481826 132.67488 
" clip-path="url(#p084bfd07ef)" style="fill: none; stroke: #d3d3d3; stroke-linecap: square"/>
   </g>
   <g id="line2d_28">
    <path d="M 209.958994 134.836124 
L 209.958994 130.513636 
" clip-path="url(#p084bfd07ef)" style="fill: none; stroke: #d3d3d3; stroke-linecap: square"/>
   </g>
   <g id="line2d_29">
    <path d="M 196.481826 134.836124 
L 196.481826 130.513636 
" clip-path="url(#p084bfd07ef)" style="fill: none; stroke: #d3d3d3; stroke-linecap: square"/>
   </g>
   <g id="line2d_30"/>
   <g id="line2d_31">
    <path d="M 209.958994 115.384928 
L 209.958994 115.384928 
" clip-path="url(#p084bfd07ef)" style="fill: none; stroke: #d3d3d3; stroke-linecap: square"/>
   </g>
   <g id="line2d_32">
    <path d="M 209.958994 115.384928 
L 209.958994 115.384928 
" clip-path="url(#p084bfd07ef)" style="fill: none; stroke: #d3d3d3; stroke-linecap: square"/>
   </g>
   <g id="line2d_33">
    <path d="M 209.958994 117.546172 
L 209.958994 113.223684 
" clip-path="url(#p084bfd07ef)" style="fill: none; stroke: #d3d3d3; stroke-linecap: square"/>
   </g>
   <g id="line2d_34">
    <path d="M 209.958994 117.546172 
L 209.958994 113.223684 
" clip-path="url(#p084bfd07ef)" style="fill: none; stroke: #d3d3d3; stroke-linecap: square"/>
   </g>
   <g id="line2d_35"/>
   <g id="line2d_36">
    <path d="M 191.090959 98.094976 
L 209.958994 98.094976 
" clip-path="url(#p084bfd07ef)" style="fill: none; stroke: #d3d3d3; stroke-linecap: square"/>
   </g>
   <g id="line2d_37">
    <path d="M 191.090959 98.094976 
L 120.06016 98.094976 
" clip-path="url(#p084bfd07ef)" style="fill: none; stroke: #d3d3d3; stroke-linecap: square"/>
   </g>
   <g id="line2d_38">
    <path d="M 209.958994 100.25622 
L 209.958994 95.933732 
" clip-path="url(#p084bfd07ef)" style="fill: none; stroke: #d3d3d3; stroke-linecap: square"/>
   </g>
   <g id="line2d_39">
    <path d="M 120.06016 100.25622 
L 120.06016 95.933732 
" clip-path="url(#p084bfd07ef)" style="fill: none; stroke: #d3d3d3; stroke-linecap: square"/>
   </g>
   <g id="line2d_40"/>
   <g id="line2d_41">
    <path d="M 206.007733 80.805024 
L 209.958994 80.805024 
" clip-path="url(#p084bfd07ef)" style="fill: none; stroke: #d3d3d3; stroke-linecap: square"/>
   </g>
   <g id="line2d_42">
    <path d="M 206.007733 80.805024 
L 190.202691 80.805024 
" clip-path="url(#p084bfd07ef)" style="fill: none; stroke: #d3d3d3; stroke-linecap: square"/>
   </g>
   <g id="line2d_43">
    <path d="M 209.958994 82.966268 
L 209.958994 78.64378 
" clip-path="url(#p084bfd07ef)" style="fill: none; stroke: #d3d3d3; stroke-linecap: square"/>
   </g>
   <g id="line2d_44">
    <path d="M 190.202691 82.966268 
L 190.202691 78.64378 
" clip-path="url(#p084bfd07ef)" style="fill: none; stroke: #d3d3d3; stroke-linecap: square"/>
   </g>
   <g id="line2d_45"/>
   <g id="line2d_46">
    <path d="M 207.952734 63.515072 
L 209.958994 63.515072 
" clip-path="url(#p084bfd07ef)" style="fill: none; stroke: #d3d3d3; stroke-linecap: square"/>
   </g>
   <g id="line2d_47">
    <path d="M 207.952734 63.515072 
L 199.927693 63.515072 
" clip-path="url(#p084bfd07ef)" style="fill: none; stroke: #d3d3d3; stroke-linecap: square"/>
   </g>
   <g id="line2d_48">
    <path d="M 209.958994 65.676316 
L 209.958994 61.353828 
" clip-path="url(#p084bfd07ef)" style="fill: none; stroke: #d3d3d3; stroke-linecap: square"/>
   </g>
   <g id="line2d_49">
    <path d="M 199.927693 65.676316 
L 199.927693 61.353828 
" clip-path="url(#p084bfd07ef)" style="fill: none; stroke: #d3d3d3; stroke-linecap: square"/>
   </g>
   <g id="line2d_50"/>
   <g id="line2d_51">
    <path d="M 153.44678 46.22512 
L 209.958994 46.22512 
" clip-path="url(#p084bfd07ef)" style="fill: none; stroke: #d3d3d3; stroke-linecap: square"/>
   </g>
   <g id="line2d_52">
    <path d="M 153.44678 46.22512 
L 12.855419 46.22512 
" clip-path="url(#p084bfd07ef)" style="fill: none; stroke: #d3d3d3; stroke-linecap: square"/>
   </g>
   <g id="line2d_53">
    <path d="M 209.958994 48.386364 
L 209.958994 44.063876 
" clip-path="url(#p084bfd07ef)" style="fill: none; stroke: #d3d3d3; stroke-linecap: square"/>
   </g>
   <g id="line2d_54">
    <path d="M 12.855419 48.386364 
L 12.855419 44.063876 
" clip-path="url(#p084bfd07ef)" style="fill: none; stroke: #d3d3d3; stroke-linecap: square"/>
   </g>
   <g id="line2d_55"/>
   <g id="line2d_56">
    <path d="M 191.121589 28.935168 
L 209.116671 28.935168 
" clip-path="url(#p084bfd07ef)" style="fill: none; stroke: #d3d3d3; stroke-linecap: square"/>
   </g>
   <g id="line2d_57">
    <path d="M 191.121589 28.935168 
L 151.302685 28.935168 
" clip-path="url(#p084bfd07ef)" style="fill: none; stroke: #d3d3d3; stroke-linecap: square"/>
   </g>
   <g id="line2d_58">
    <path d="M 209.116671 31.096412 
L 209.116671 26.773924 
" clip-path="url(#p084bfd07ef)" style="fill: none; stroke: #d3d3d3; stroke-linecap: square"/>
   </g>
   <g id="line2d_59">
    <path d="M 151.302685 31.096412 
L 151.302685 26.773924 
" clip-path="url(#p084bfd07ef)" style="fill: none; stroke: #d3d3d3; stroke-linecap: square"/>
   </g>
   <g id="line2d_60"/>
   <g id="line2d_61">
    <path d="M 150.108118 11.645216 
L 209.958994 11.645216 
" clip-path="url(#p084bfd07ef)" style="fill: none; stroke: #d3d3d3; stroke-linecap: square"/>
   </g>
   <g id="line2d_62">
    <path d="M 150.108118 11.645216 
L 46.318613 11.645216 
" clip-path="url(#p084bfd07ef)" style="fill: none; stroke: #d3d3d3; stroke-linecap: square"/>
   </g>
   <g id="line2d_63">
    <path d="M 209.958994 13.80646 
L 209.958994 9.483972 
" clip-path="url(#p084bfd07ef)" style="fill: none; stroke: #d3d3d3; stroke-linecap: square"/>
   </g>
   <g id="line2d_64">
    <path d="M 46.318613 13.80646 
L 46.318613 9.483972 
" clip-path="url(#p084bfd07ef)" style="fill: none; stroke: #d3d3d3; stroke-linecap: square"/>
   </g>
   <g id="line2d_65"/>
   <g id="line2d_66">
    <path d="M 209.958994 171.577272 
L 209.958994 162.932296 
" clip-path="url(#p084bfd07ef)" style="fill: none; stroke: #009e73"/>
   </g>
   <g id="line2d_67">
    <path d="M 209.958994 154.28732 
L 209.958994 145.642344 
" clip-path="url(#p084bfd07ef)" style="fill: none; stroke: #009e73"/>
   </g>
   <g id="line2d_68">
    <path d="M 207.217615 136.997368 
L 207.217615 128.352392 
" clip-path="url(#p084bfd07ef)" style="fill: none; stroke: #009e73"/>
   </g>
   <g id="line2d_69">
    <path d="M 209.958994 119.707416 
L 209.958994 111.06244 
" clip-path="url(#p084bfd07ef)" style="fill: none; stroke: #009e73"/>
   </g>
   <g id="line2d_70">
    <path d="M 191.090959 102.417464 
L 191.090959 93.772488 
" clip-path="url(#p084bfd07ef)" style="fill: none; stroke: #009e73"/>
   </g>
   <g id="line2d_71">
    <path d="M 206.007733 85.127512 
L 206.007733 76.482536 
" clip-path="url(#p084bfd07ef)" style="fill: none; stroke: #009e73"/>
   </g>
   <g id="line2d_72">
    <path d="M 207.952734 67.83756 
L 207.952734 59.192584 
" clip-path="url(#p084bfd07ef)" style="fill: none; stroke: #009e73"/>
   </g>
   <g id="line2d_73">
    <path d="M 153.44678 50.547608 
L 153.44678 41.902632 
" clip-path="url(#p084bfd07ef)" style="fill: none; stroke: #009e73"/>
   </g>
   <g id="line2d_74">
    <path d="M 191.121589 33.257656 
L 191.121589 24.61268 
" clip-path="url(#p084bfd07ef)" style="fill: none; stroke: #009e73"/>
   </g>
   <g id="line2d_75">
    <path d="M 150.108118 15.967704 
L 150.108118 7.322728 
" clip-path="url(#p084bfd07ef)" style="fill: none; stroke: #009e73"/>
   </g>
  </g>
  <g id="axes_2">
   <g id="patch_3">
    <path d="M 491.855547 175.89976 
L 860.99976 175.89976 
L 860.99976 3.00024 
L 491.855547 3.00024 
z
" style="fill: #ffffff"/>
   </g>
   <g id="matplotlib.axis_3">
    <g id="xtick_6">
     <g id="line2d_76">
      <g>
       <use xlink:href="#mce5ef9e54c" x="491.855547" y="175.89976" style="stroke: #000000; stroke-width: 0.8"/>
      </g>
     </g>
     <g id="text_17">
      <!-- 0 -->
      <g transform="translate(489.060234 190.49976) scale(0.1 -0.1)">
       <use xlink:href="#NotoSerif-Regular-30"/>
      </g>
     </g>
    </g>
    <g id="xtick_7">
     <g id="line2d_77">
      <g>
       <use xlink:href="#mce5ef9e54c" x="545.888483" y="175.89976" style="stroke: #000000; stroke-width: 0.8"/>
      </g>
     </g>
     <g id="text_18">
      <!-- 5 -->
      <g transform="translate(543.09317 190.49976) scale(0.1 -0.1)">
       <defs>
        <path id="NotoSerif-Regular-35" d="M 1562 -64 
Q 1088 -64 825 38 
Q 563 141 457 291 
Q 352 442 352 582 
Q 352 762 451 861 
Q 550 960 755 960 
Q 755 685 947 499 
Q 1139 314 1530 314 
Q 1792 314 2000 416 
Q 2208 518 2326 755 
Q 2445 992 2445 1395 
Q 2445 1901 2179 2147 
Q 1914 2394 1472 2394 
Q 1139 2394 972 2349 
Q 806 2304 685 2253 
L 531 2298 
L 736 4570 
L 2874 4570 
L 2906 3603 
L 2637 3603 
L 2611 3795 
Q 2592 3930 2531 3994 
Q 2470 4058 2266 4058 
L 1024 4058 
L 902 2643 
Q 998 2675 1184 2710 
Q 1370 2746 1651 2746 
Q 2067 2746 2396 2595 
Q 2726 2445 2918 2147 
Q 3110 1850 3110 1395 
Q 3110 960 2928 630 
Q 2746 301 2400 118 
Q 2054 -64 1562 -64 
z
" transform="scale(0.015625)"/>
       </defs>
       <use xlink:href="#NotoSerif-Regular-35"/>
      </g>
     </g>
    </g>
    <g id="xtick_8">
     <g id="line2d_78">
      <g>
       <use xlink:href="#mce5ef9e54c" x="599.921419" y="175.89976" style="stroke: #000000; stroke-width: 0.8"/>
      </g>
     </g>
     <g id="text_19">
      <!-- 10 -->
      <g transform="translate(594.330794 190.49976) scale(0.1 -0.1)">
       <use xlink:href="#NotoSerif-Regular-31"/>
       <use xlink:href="#NotoSerif-Regular-30" transform="translate(55.899994 0)"/>
      </g>
     </g>
    </g>
    <g id="xtick_9">
     <g id="line2d_79">
      <g>
       <use xlink:href="#mce5ef9e54c" x="653.954355" y="175.89976" style="stroke: #000000; stroke-width: 0.8"/>
      </g>
     </g>
     <g id="text_20">
      <!-- 15 -->
      <g transform="translate(648.36373 190.49976) scale(0.1 -0.1)">
       <use xlink:href="#NotoSerif-Regular-31"/>
       <use xlink:href="#NotoSerif-Regular-35" transform="translate(55.899994 0)"/>
      </g>
     </g>
    </g>
    <g id="xtick_10">
     <g id="line2d_80">
      <g>
       <use xlink:href="#mce5ef9e54c" x="707.987291" y="175.89976" style="stroke: #000000; stroke-width: 0.8"/>
      </g>
     </g>
     <g id="text_21">
      <!-- 20 -->
      <g transform="translate(702.396666 190.49976) scale(0.1 -0.1)">
       <use xlink:href="#NotoSerif-Regular-32"/>
       <use xlink:href="#NotoSerif-Regular-30" transform="translate(55.899994 0)"/>
      </g>
     </g>
    </g>
    <g id="xtick_11">
     <g id="line2d_81">
      <g>
       <use xlink:href="#mce5ef9e54c" x="762.020227" y="175.89976" style="stroke: #000000; stroke-width: 0.8"/>
      </g>
     </g>
     <g id="text_22">
      <!-- 25 -->
      <g transform="translate(756.429602 190.49976) scale(0.1 -0.1)">
       <use xlink:href="#NotoSerif-Regular-32"/>
       <use xlink:href="#NotoSerif-Regular-35" transform="translate(55.899994 0)"/>
      </g>
     </g>
    </g>
    <g id="xtick_12">
     <g id="line2d_82">
      <g>
       <use xlink:href="#mce5ef9e54c" x="816.053164" y="175.89976" style="stroke: #000000; stroke-width: 0.8"/>
      </g>
     </g>
     <g id="text_23">
      <!-- 30 -->
      <g transform="translate(810.462539 190.49976) scale(0.1 -0.1)">
       <use xlink:href="#NotoSerif-Regular-33"/>
       <use xlink:href="#NotoSerif-Regular-30" transform="translate(55.899994 0)"/>
      </g>
     </g>
    </g>
    <g id="text_24">
     <!-- Total data transfer (GB) -->
     <g transform="translate(620.726091 210.59976) scale(0.1 -0.1)">
      <defs>
       <path id="NotoSerif-Italic-64" d="M 1101 -64 
Q 819 -64 633 89 
Q 448 243 361 508 
Q 275 774 275 1107 
Q 275 1408 355 1737 
Q 435 2067 595 2377 
Q 755 2688 985 2941 
Q 1216 3194 1517 3344 
Q 1818 3494 2182 3494 
Q 2368 3494 2531 3449 
Q 2694 3405 2816 3334 
Q 2829 3418 2848 3530 
Q 2867 3642 2880 3699 
L 2944 4006 
Q 2963 4096 2976 4176 
Q 2989 4256 2989 4294 
Q 2989 4486 2857 4540 
Q 2726 4595 2541 4595 
L 2490 4595 
L 2547 4864 
L 3725 4864 
L 2982 1376 
Q 2970 1306 2944 1171 
Q 2918 1037 2902 896 
Q 2886 755 2886 666 
Q 2886 339 3098 339 
Q 3206 339 3321 387 
Q 3437 435 3558 506 
L 3674 320 
Q 3584 237 3430 147 
Q 3277 58 3104 -3 
Q 2931 -64 2771 -64 
Q 2541 -64 2406 77 
Q 2272 218 2272 467 
Q 2272 550 2288 678 
Q 2304 806 2336 966 
L 2298 966 
Q 2080 474 1779 205 
Q 1478 -64 1101 -64 
z
M 1331 339 
Q 1498 339 1674 467 
Q 1850 595 2006 812 
Q 2163 1030 2284 1299 
Q 2406 1568 2464 1843 
L 2701 2976 
Q 2630 3091 2496 3148 
Q 2362 3206 2214 3206 
Q 1958 3206 1753 3062 
Q 1549 2918 1395 2681 
Q 1242 2445 1136 2163 
Q 1030 1882 979 1597 
Q 928 1312 928 1082 
Q 928 685 1043 512 
Q 1158 339 1331 339 
z
" transform="scale(0.015625)"/>
       <path id="NotoSerif-Italic-6e" d="M 2944 -64 
Q 2662 -64 2512 118 
Q 2362 301 2362 576 
Q 2362 870 2483 1440 
L 2592 1939 
Q 2611 2029 2643 2163 
Q 2675 2298 2700 2445 
Q 2726 2592 2726 2701 
Q 2726 2829 2672 2953 
Q 2618 3078 2432 3078 
Q 2234 3078 2035 2931 
Q 1837 2784 1667 2553 
Q 1498 2323 1379 2076 
Q 1261 1830 1222 1638 
L 877 0 
L 282 0 
L 819 2573 
Q 838 2662 848 2748 
Q 858 2835 858 2861 
Q 858 3053 726 3107 
Q 595 3162 410 3162 
L 358 3162 
L 416 3430 
L 1600 3430 
L 1427 2624 
L 1491 2624 
Q 1754 3046 2026 3267 
Q 2298 3488 2656 3488 
Q 3034 3488 3187 3273 
Q 3341 3059 3341 2778 
Q 3341 2618 3299 2429 
Q 3258 2240 3226 2074 
L 3059 1318 
Q 3021 1139 2998 966 
Q 2976 794 2976 646 
Q 2976 339 3200 339 
Q 3386 339 3610 486 
L 3725 301 
Q 3571 173 3382 54 
Q 3194 -64 2944 -64 
z
" transform="scale(0.015625)"/>
       <path id="NotoSerif-Italic-66" d="M -525 -1536 
Q -621 -1536 -726 -1520 
Q -832 -1504 -896 -1485 
L -838 -1190 
Q -787 -1203 -700 -1219 
Q -614 -1235 -544 -1235 
Q -230 -1235 -54 -966 
Q 122 -698 262 -58 
L 934 3066 
L 352 3066 
L 390 3296 
L 1005 3430 
L 1075 3782 
Q 1184 4333 1475 4630 
Q 1766 4928 2291 4928 
Q 2701 4928 2909 4797 
Q 3117 4666 3117 4454 
Q 3117 4243 2979 4140 
Q 2842 4038 2586 4038 
Q 2586 4282 2525 4458 
Q 2464 4634 2259 4634 
Q 2022 4634 1894 4438 
Q 1766 4243 1690 3840 
L 1606 3430 
L 2317 3430 
L 2246 3066 
L 1530 3066 
L 864 -51 
Q 742 -621 550 -944 
Q 358 -1267 89 -1401 
Q -179 -1536 -525 -1536 
z
" transform="scale(0.015625)"/>
       <path id="NotoSerif-Italic-28" d="M 1402 -819 
Q 800 -557 534 -16 
Q 269 525 269 1190 
Q 269 1773 413 2358 
Q 557 2944 848 3456 
Q 1139 3968 1577 4339 
Q 2016 4710 2611 4864 
L 2547 4576 
Q 2144 4358 1853 4003 
Q 1562 3648 1373 3219 
Q 1184 2790 1072 2355 
Q 960 1920 915 1536 
Q 870 1152 870 890 
Q 870 480 1001 96 
Q 1133 -288 1466 -525 
L 1402 -819 
z
" transform="scale(0.015625)"/>
       <path id="NotoSerif-Italic-47" d="M 2150 -64 
Q 1248 -64 790 397 
Q 333 858 333 1651 
Q 333 2272 531 2813 
Q 730 3354 1094 3763 
Q 1459 4173 1964 4403 
Q 2470 4634 3085 4634 
Q 3770 4634 4102 4429 
Q 4435 4224 4435 3942 
Q 4435 3693 4236 3565 
Q 4038 3437 3757 3437 
Q 3757 3814 3565 4054 
Q 3373 4294 2950 4294 
Q 2541 4294 2192 4070 
Q 1843 3846 1580 3462 
Q 1318 3078 1174 2585 
Q 1030 2093 1030 1549 
Q 1030 998 1318 649 
Q 1606 301 2266 301 
Q 2451 301 2649 326 
Q 2848 352 2989 390 
L 3200 1408 
Q 3226 1510 3226 1587 
Q 3226 1754 3088 1798 
Q 2950 1843 2765 1843 
L 2707 1843 
L 2765 2112 
L 4467 2112 
L 4410 1843 
L 4384 1843 
Q 4205 1843 4054 1763 
Q 3904 1683 3840 1382 
L 3597 230 
Q 3245 83 2905 9 
Q 2566 -64 2150 -64 
z
" transform="scale(0.015625)"/>
       <path id="NotoSerif-Italic-42" d="M -134 0 
L -83 269 
L 0 269 
Q 218 269 390 349 
Q 563 429 627 730 
L 1293 3866 
Q 1318 3968 1318 4045 
Q 1318 4211 1180 4256 
Q 1043 4301 858 4301 
L 774 4301 
L 832 4570 
L 2490 4570 
Q 3232 4570 3609 4326 
Q 3987 4083 3987 3610 
Q 3987 3258 3849 3018 
Q 3712 2778 3475 2634 
Q 3238 2490 2944 2419 
L 2938 2394 
Q 3283 2330 3500 2096 
Q 3718 1862 3718 1459 
Q 3718 762 3251 381 
Q 2784 0 1875 0 
L -134 0 
z
M 2150 2554 
Q 2758 2554 3024 2806 
Q 3290 3059 3290 3526 
Q 3290 4250 2406 4250 
L 2022 4250 
L 1658 2554 
L 2150 2554 
z
M 1805 320 
Q 2464 320 2745 624 
Q 3027 928 3027 1504 
Q 3027 2234 2131 2234 
L 1594 2234 
L 1184 320 
L 1805 320 
z
" transform="scale(0.015625)"/>
       <path id="NotoSerif-Italic-29" d="M -250 -582 
Q 154 -365 445 -9 
Q 736 346 925 774 
Q 1114 1203 1226 1638 
Q 1338 2074 1382 2458 
Q 1427 2842 1427 3104 
Q 1427 3514 1299 3898 
Q 1171 4282 832 4518 
L 896 4813 
Q 1498 4557 1763 4013 
Q 2029 3469 2029 2803 
Q 2029 2221 1885 1635 
Q 1741 1050 1449 538 
Q 1158 26 720 -345 
Q 282 -717 -314 -870 
L -250 -582 
z
" transform="scale(0.015625)"/>
      </defs>
      <use xlink:href="#NotoSerif-Italic-54"/>
      <use xlink:href="#NotoSerif-Italic-6f" transform="translate(61.299988 0)"/>
      <use xlink:href="#NotoSerif-Italic-74" transform="translate(118.699982 0)"/>
      <use xlink:href="#NotoSerif-Italic-61" transform="translate(155.499969 0)"/>
      <use xlink:href="#NotoSerif-Italic-6c" transform="translate(213.399963 0)"/>
      <use xlink:href="#NotoSerif-Italic-20" transform="translate(243.799957 0)"/>
      <use xlink:href="#NotoSerif-Italic-64" transform="translate(269.799942 0)"/>
      <use xlink:href="#NotoSerif-Italic-61" transform="translate(327.699936 0)"/>
      <use xlink:href="#NotoSerif-Italic-74" transform="translate(385.59993 0)"/>
      <use xlink:href="#NotoSerif-Italic-61" transform="translate(422.399918 0)"/>
      <use xlink:href="#NotoSerif-Italic-20" transform="translate(480.299911 0)"/>
      <use xlink:href="#NotoSerif-Italic-74" transform="translate(506.299896 0)"/>
      <use xlink:href="#NotoSerif-Italic-72" transform="translate(543.099884 0)"/>
      <use xlink:href="#NotoSerif-Italic-61" transform="translate(589.899872 0)"/>
      <use xlink:href="#NotoSerif-Italic-6e" transform="translate(647.799866 0)"/>
      <use xlink:href="#NotoSerif-Italic-73" transform="translate(707.69986 0)"/>
      <use xlink:href="#NotoSerif-Italic-66" transform="translate(754.099854 0)"/>
      <use xlink:href="#NotoSerif-Italic-65" transform="translate(785.899841 0)"/>
      <use xlink:href="#NotoSerif-Italic-72" transform="translate(835.199829 0)"/>
      <use xlink:href="#NotoSerif-Italic-20" transform="translate(881.999817 0)"/>
      <use xlink:href="#NotoSerif-Italic-28" transform="translate(907.999802 0)"/>
      <use xlink:href="#NotoSerif-Italic-47" transform="translate(942.599792 0)"/>
      <use xlink:href="#NotoSerif-Italic-42" transform="translate(1013.999786 0)"/>
      <use xlink:href="#NotoSerif-Italic-29" transform="translate(1079.39978 0)"/>
     </g>
    </g>
   </g>
   <g id="line2d_83">
    <defs>
     <path id="mcd883c3bdf" d="M 0 1.5 
C 0.397805 1.5 0.77937 1.341951 1.06066 1.06066 
C 1.341951 0.77937 1.5 0.397805 1.5 0 
C 1.5 -0.397805 1.341951 -0.77937 1.06066 -1.06066 
C 0.77937 -1.341951 0.397805 -1.5 0 -1.5 
C -0.397805 -1.5 -0.77937 -1.341951 -1.06066 -1.06066 
C -1.341951 -0.77937 -1.5 -0.397805 -1.5 0 
C -1.5 0.397805 -1.341951 0.77937 -1.06066 1.06066 
C -0.77937 1.341951 -0.397805 1.5 0 1.5 
z
" style="stroke: #0072b2"/>
    </defs>
    <g clip-path="url(#pc18b61e8a2)">
     <use xlink:href="#mcd883c3bdf" x="705.885329" y="167.254784" style="fill: #0072b2; stroke: #0072b2"/>
     <use xlink:href="#mcd883c3bdf" x="715.157609" y="149.964832" style="fill: #0072b2; stroke: #0072b2"/>
     <use xlink:href="#mcd883c3bdf" x="748.60618" y="132.67488" style="fill: #0072b2; stroke: #0072b2"/>
     <use xlink:href="#mcd883c3bdf" x="745.746089" y="115.384928" style="fill: #0072b2; stroke: #0072b2"/>
     <use xlink:href="#mcd883c3bdf" x="733.353596" y="98.094976" style="fill: #0072b2; stroke: #0072b2"/>
     <use xlink:href="#mcd883c3bdf" x="714.124135" y="80.805024" style="fill: #0072b2; stroke: #0072b2"/>
     <use xlink:href="#mcd883c3bdf" x="709.61446" y="63.515072" style="fill: #0072b2; stroke: #0072b2"/>
     <use xlink:href="#mcd883c3bdf" x="706.929154" y="46.22512" style="fill: #0072b2; stroke: #0072b2"/>
     <use xlink:href="#mcd883c3bdf" x="734.294573" y="28.935168" style="fill: #0072b2; stroke: #0072b2"/>
     <use xlink:href="#mcd883c3bdf" x="853.613359" y="11.645216" style="fill: #0072b2; stroke: #0072b2"/>
    </g>
   </g>
  </g>
 </g>
 <defs>
  <clipPath id="p084bfd07ef">
   <rect x="3.00024" y="3.00024" width="369.144213" height="172.89952"/>
  </clipPath>
  <clipPath id="pc18b61e8a2">
   <rect x="491.855547" y="3.00024" width="369.144213" height="172.89952"/>
  </clipPath>
 </defs>
</svg>
