<?xml version="1.0" encoding="UTF-8" standalone="no"?>
<svg viewBox="0 0 16 16" version="1.1" id="svg14" width="16" height="16" xmlns="http://www.w3.org/2000/svg" xmlns:svg="http://www.w3.org/2000/svg" xmlns:rdf="http://www.w3.org/1999/02/22-rdf-syntax-ns#" xmlns:cc="http://creativecommons.org/ns#" xmlns:dc="http://purl.org/dc/elements/1.1/">
  <defs id="defs14" />
  <style>
    path, rect {
    fill: #9c0510;
    }
    @media (prefers-color-scheme: dark) {
    path, rect {
    fill: #ffffff;
    }
    }
  </style>
  <g id="g14" transform="matrix(0.08670677,0,0,0.08670677,-2.8383462,-3.0104592)">
    <rect x="60" y="105.27" width="47.970001" height="47.970001" id="rect2" />
    <path d="m 182,153.24 h -40 v -48 h 48 v 40 a 8,8 0 0 1 -8,8 z" id="path2" />
    <path d="M 189.67,82.72 H 60 v -40 a 8,8 0 0 1 8,-8 h 113.67 a 8,8 0 0 1 8,8 z" id="path3" />
    <rect x="141.8" y="86.639999" width="47.970001" height="14.83" style="fill:" id="rect3" />
    <rect x="60" y="86.639999" width="47.970001" height="14.83" id="rect4" />
    <rect x="112.08" y="105.55" width="26.030001" height="47.970001" id="rect5" />
    <path d="m 181.77,173.42 h -32 a 8,8 0 0 1 -8,-8 v -8.15 h 48 v 8.15 a 8,8 0 0 1 -8,8 z" id="path5" />
    <path d="M 100,173.42 H 68 a 8,8 0 0 1 -8,-8 v -8.15 h 48 v 8.15 a 8,8 0 0 1 -8,8 z" id="path6" />
    <path d="m 73.17,211.68 v 2.07 q 0,5.49 -5.18,5.49 h -2.78 q -5.18,0 -5.18,-5.49 v -21.33 q 0,-5.49 5.18,-5.49 H 68 q 5.18,0 5.18,5.49 v 3.65 h -4.33 v -3.33 a 1.69,1.69 0 0 0 -1.94,-1.89 h -0.85 q -1.71,0 -1.71,1.89 v 20.71 q 0,1.89 1.71,1.89 h 1.08 q 1.71,0 1.71,-1.89 v -1.76 z" id="path7" />
    <path d="m 81.55,219.24 q -5.22,0 -5.22,-5.49 v -21.29 q 0,-5.54 5.18,-5.54 h 4.14 q 5.18,0 5.18,5.54 v 21.29 q 0,5.49 -5.22,5.49 z m 1,-3.92 h 2.2 q 1.71,0 1.71,-1.89 v -20.7 a 1.69,1.69 0 0 0 -1.93,-1.89 h -2 a 1.67,1.67 0 0 0 -1.89,1.89 v 20.71 a 1.69,1.69 0 0 0 1.94,1.89 z" id="path8" />
    <path d="m 103.42,205.92 4,-19 h 4.77 v 32.32 h -4.32 l 0.45,-21.15 -3.24,15.3 h -3.33 l -3.24,-15.3 0.49,21.15 h -4.36 v -32.31 h 4.77 z" id="path9" />
    <path d="m 130.29,186.93 v 26.2 q 0,6.12 -5.22,6.12 h -3.65 q -5.18,0 -5.18,-6.17 v -26.15 h 4.32 v 26.29 q 0,2.12 1.89,2.12 h 1.76 q 1.75,0 1.75,-2.12 v -26.29 z" id="path10" />
    <path d="m 143.3,202.55 v -15.62 h 4.32 v 32.32 h -4.32 v -6.44 l -4.64,-14.72 v 21.15 h -4.32 v -32.31 h 4.32 z" id="path11" />
    <path d="M 151.67,219.24 V 186.93 H 156 v 32.32 z" id="path12" />
    <path d="m 173,211.68 v 2.07 q 0,5.49 -5.18,5.49 H 165 q -5.18,0 -5.18,-5.49 v -21.33 q 0,-5.49 5.18,-5.49 h 2.79 q 5.18,0 5.18,5.49 v 3.65 h -4.32 v -3.33 a 1.69,1.69 0 0 0 -1.94,-1.89 h -0.85 q -1.71,0 -1.71,1.89 v 20.71 q 0,1.89 1.71,1.89 h 1.08 q 1.71,0 1.71,-1.89 v -1.76 z" id="path13" />
    <path d="m 180.43,219.24 h -4.32 v -26.78 q 0,-5.54 5.18,-5.54 h 3.24 q 5.18,0 5.18,5.54 v 26.78 h -4.32 v -11.83 h -5 z m 5,-15.75 v -10.76 a 1.67,1.67 0 0 0 -1.89,-1.89 h -1.17 a 1.67,1.67 0 0 0 -1.89,1.89 v 10.76 z" id="path14" />
  </g>
</svg>