<?xml version="1.0" encoding="utf-8" standalone="no"?>
<!DOCTYPE svg PUBLIC "-//W3C//DTD SVG 1.1//EN"
  "http://www.w3.org/Graphics/SVG/1.1/DTD/svg11.dtd">
<svg xmlns:xlink="http://www.w3.org/1999/xlink" width="576pt" height="72pt" viewBox="0 0 576 72" xmlns="http://www.w3.org/2000/svg" version="1.1">
 <metadata>
  <rdf:RDF xmlns:dc="http://purl.org/dc/elements/1.1/" xmlns:cc="http://creativecommons.org/ns#" xmlns:rdf="http://www.w3.org/1999/02/22-rdf-syntax-ns#">
   <cc:Work>
    <dc:type rdf:resource="http://purl.org/dc/dcmitype/StillImage"/>
    <dc:date>2025-07-09T17:43:52.822191</dc:date>
    <dc:format>image/svg+xml</dc:format>
    <dc:creator>
     <cc:Agent>
      <dc:title>Matplotlib v3.10.3, https://matplotlib.org/</dc:title>
     </cc:Agent>
    </dc:creator>
   </cc:Work>
  </rdf:RDF>
 </metadata>
 <defs>
  <style type="text/css">*{stroke-linejoin: round; stroke-linecap: butt}</style>
 </defs>
 <g id="figure_1">
  <g id="patch_1">
   <path d="M 0 72 
L 576 72 
L 576 0 
L 0 0 
z
" style="fill: #ffffff"/>
  </g>
  <g id="axes_1">
   <g id="patch_2">
    <path d="M 260.8 24.190625 
L 565.2 24.190625 
L 565.2 12.08 
L 260.8 12.08 
z
" style="fill: #ffffff"/>
   </g>
   <g id="PathCollection_1">
    <defs>
     <path id="m056f6da09d" d="M 0 1.5 
C 0.397805 1.5 0.77937 1.341951 1.06066 1.06066 
C 1.341951 0.77937 1.5 0.397805 1.5 0 
C 1.5 -0.397805 1.341951 -0.77937 1.06066 -1.06066 
C 0.77937 -1.341951 0.397805 -1.5 0 -1.5 
C -0.397805 -1.5 -0.77937 -1.341951 -1.06066 -1.06066 
C -1.341951 -0.77937 -1.5 -0.397805 -1.5 0 
C -1.5 0.397805 -1.341951 0.77937 -1.06066 1.06066 
C -0.77937 1.341951 -0.397805 1.5 0 1.5 
z
" style="stroke: #440154"/>
    </defs>
    <g clip-path="url(#pba710bdf0e)">
     <use xlink:href="#m056f6da09d" x="356.352739" y="12.630483" style="fill: #440154; stroke: #440154"/>
     <use xlink:href="#m056f6da09d" x="282.56253" y="12.630483" style="fill: #440154; stroke: #440154"/>
     <use xlink:href="#m056f6da09d" x="283.65796" y="12.630483" style="fill: #440154; stroke: #440154"/>
     <use xlink:href="#m056f6da09d" x="284.231756" y="12.630483" style="fill: #440154; stroke: #440154"/>
     <use xlink:href="#m056f6da09d" x="551.631282" y="12.630483" style="fill: #440154; stroke: #440154"/>
     <use xlink:href="#m056f6da09d" x="335.487418" y="12.630483" style="fill: #440154; stroke: #440154"/>
     <use xlink:href="#m056f6da09d" x="289.312462" y="12.630483" style="fill: #440154; stroke: #440154"/>
     <use xlink:href="#m056f6da09d" x="344.887245" y="12.630483" style="fill: #440154; stroke: #440154"/>
     <use xlink:href="#m056f6da09d" x="281.623591" y="12.630483" style="fill: #440154; stroke: #440154"/>
     <use xlink:href="#m056f6da09d" x="304.773665" y="12.630483" style="fill: #440154; stroke: #440154"/>
    </g>
   </g>
   <g id="PathCollection_2">
    <defs>
     <path id="me3693e8309" d="M 0 1.5 
C 0.397805 1.5 0.77937 1.341951 1.06066 1.06066 
C 1.341951 0.77937 1.5 0.397805 1.5 0 
C 1.5 -0.397805 1.341951 -0.77937 1.06066 -1.06066 
C 0.77937 -1.341951 0.397805 -1.5 0 -1.5 
C -0.397805 -1.5 -0.77937 -1.341951 -1.06066 -1.06066 
C -1.341951 -0.77937 -1.5 -0.397805 -1.5 0 
C -1.5 0.397805 -1.341951 0.77937 -1.06066 1.06066 
C -0.77937 1.341951 -0.397805 1.5 0 1.5 
z
" style="stroke: #21918c"/>
    </defs>
    <g clip-path="url(#pba710bdf0e)">
     <use xlink:href="#me3693e8309" x="345.680127" y="18.135313" style="fill: #21918c; stroke: #21918c"/>
     <use xlink:href="#me3693e8309" x="284.732524" y="18.135313" style="fill: #21918c; stroke: #21918c"/>
     <use xlink:href="#me3693e8309" x="282.583395" y="18.135313" style="fill: #21918c; stroke: #21918c"/>
     <use xlink:href="#me3693e8309" x="291.367696" y="18.135313" style="fill: #21918c; stroke: #21918c"/>
     <use xlink:href="#me3693e8309" x="400.378567" y="18.135313" style="fill: #21918c; stroke: #21918c"/>
     <use xlink:href="#me3693e8309" x="347.558006" y="18.135313" style="fill: #21918c; stroke: #21918c"/>
     <use xlink:href="#me3693e8309" x="286.714729" y="18.135313" style="fill: #21918c; stroke: #21918c"/>
     <use xlink:href="#me3693e8309" x="356.321441" y="18.135313" style="fill: #21918c; stroke: #21918c"/>
     <use xlink:href="#me3693e8309" x="280.256912" y="18.135313" style="fill: #21918c; stroke: #21918c"/>
     <use xlink:href="#me3693e8309" x="312.55643" y="18.135313" style="fill: #21918c; stroke: #21918c"/>
    </g>
   </g>
   <g id="PathCollection_3">
    <defs>
     <path id="m4c42bea58d" d="M 0 1.5 
C 0.397805 1.5 0.77937 1.341951 1.06066 1.06066 
C 1.341951 0.77937 1.5 0.397805 1.5 0 
C 1.5 -0.397805 1.341951 -0.77937 1.06066 -1.06066 
C 0.77937 -1.341951 0.397805 -1.5 0 -1.5 
C -0.397805 -1.5 -0.77937 -1.341951 -1.06066 -1.06066 
C -1.341951 -0.77937 -1.5 -0.397805 -1.5 0 
C -1.5 0.397805 -1.341951 0.77937 -1.06066 1.06066 
C -0.77937 1.341951 -0.397805 1.5 0 1.5 
z
" style="stroke: #fde725"/>
    </defs>
    <g clip-path="url(#pba710bdf0e)">
     <use xlink:href="#m4c42bea58d" x="368.131213" y="23.640142" style="fill: #fde725; stroke: #fde725"/>
     <use xlink:href="#m4c42bea58d" x="282.614693" y="23.640142" style="fill: #fde725; stroke: #fde725"/>
     <use xlink:href="#m4c42bea58d" x="282.593828" y="23.640142" style="fill: #fde725; stroke: #fde725"/>
     <use xlink:href="#m4c42bea58d" x="284.263054" y="23.640142" style="fill: #fde725; stroke: #fde725"/>
     <use xlink:href="#m4c42bea58d" x="550.848832" y="23.640142" style="fill: #fde725; stroke: #fde725"/>
     <use xlink:href="#m4c42bea58d" x="358.950472" y="23.640142" style="fill: #fde725; stroke: #fde725"/>
     <use xlink:href="#m4c42bea58d" x="289.009914" y="23.640142" style="fill: #fde725; stroke: #fde725"/>
     <use xlink:href="#m4c42bea58d" x="360.859648" y="23.640142" style="fill: #fde725; stroke: #fde725"/>
     <use xlink:href="#m4c42bea58d" x="281.832244" y="23.640142" style="fill: #fde725; stroke: #fde725"/>
     <use xlink:href="#m4c42bea58d" x="293.036921" y="23.640142" style="fill: #fde725; stroke: #fde725"/>
    </g>
   </g>
   <g id="matplotlib.axis_1">
    <g id="xtick_1">
     <g id="line2d_1">
      <defs>
       <path id="m6125a2fffc" d="M 0 0 
L 0 3.5 
" style="stroke: #000000; stroke-width: 0.8"/>
      </defs>
      <g>
       <use xlink:href="#m6125a2fffc" x="260.8" y="24.190625" style="stroke: #000000; stroke-width: 0.8"/>
      </g>
     </g>
     <g id="text_1">
      <!-- 0 -->
      <g transform="translate(258.004687 38.790625) scale(0.1 -0.1)">
       <defs>
        <path id="NotoSerif-Regular-30" d="M 1792 -64 
Q 1267 -64 934 230 
Q 602 525 445 1056 
Q 288 1587 288 2298 
Q 288 3008 445 3533 
Q 602 4058 934 4346 
Q 1267 4634 1798 4634 
Q 2298 4634 2630 4346 
Q 2963 4058 3126 3530 
Q 3290 3002 3290 2291 
Q 3290 1581 3123 1053 
Q 2957 525 2627 230 
Q 2298 -64 1792 -64 
z
M 1792 282 
Q 2259 282 2441 813 
Q 2624 1344 2624 2291 
Q 2624 3245 2441 3766 
Q 2259 4288 1798 4288 
Q 1331 4288 1142 3766 
Q 954 3245 954 2291 
Q 954 1344 1139 813 
Q 1325 282 1792 282 
z
" transform="scale(0.015625)"/>
       </defs>
       <use xlink:href="#NotoSerif-Regular-30"/>
      </g>
     </g>
    </g>
    <g id="xtick_2">
     <g id="line2d_2">
      <g>
       <use xlink:href="#m6125a2fffc" x="552.914499" y="24.190625" style="stroke: #000000; stroke-width: 0.8"/>
      </g>
     </g>
     <g id="text_2">
      <!-- 28 -->
      <g transform="translate(547.323874 38.790625) scale(0.1 -0.1)">
       <defs>
        <path id="NotoSerif-Regular-32" d="M 390 0 
L 390 467 
L 1459 1702 
Q 1798 2099 1996 2390 
Q 2195 2682 2281 2944 
Q 2368 3206 2368 3501 
Q 2368 3866 2211 4090 
Q 2054 4314 1715 4314 
Q 1427 4314 1273 4179 
Q 1120 4045 1065 3830 
Q 1011 3616 1011 3360 
Q 781 3360 621 3446 
Q 461 3533 461 3776 
Q 461 4147 777 4390 
Q 1094 4634 1715 4634 
Q 2323 4634 2668 4342 
Q 3014 4051 3014 3565 
Q 3014 3117 2732 2691 
Q 2451 2266 1946 1709 
L 864 512 
L 2342 512 
Q 2630 512 2732 659 
Q 2835 806 2880 992 
L 2906 1107 
L 3174 1107 
L 3142 0 
L 390 0 
z
" transform="scale(0.015625)"/>
        <path id="NotoSerif-Regular-38" d="M 1747 -64 
Q 1267 -64 944 99 
Q 621 262 457 537 
Q 294 813 294 1146 
Q 294 1453 422 1664 
Q 550 1875 771 2028 
Q 992 2182 1267 2317 
Q 902 2522 672 2803 
Q 442 3085 442 3488 
Q 442 3782 582 4044 
Q 723 4307 1027 4470 
Q 1331 4634 1824 4634 
Q 2426 4634 2755 4323 
Q 3085 4013 3085 3533 
Q 3085 3110 2848 2876 
Q 2611 2643 2221 2451 
Q 2694 2227 2988 1932 
Q 3283 1638 3283 1222 
Q 3283 614 2867 275 
Q 2451 -64 1747 -64 
z
M 1907 2598 
Q 2266 2778 2390 2995 
Q 2515 3213 2515 3546 
Q 2515 3744 2444 3923 
Q 2374 4102 2214 4217 
Q 2054 4333 1786 4333 
Q 1427 4333 1235 4115 
Q 1043 3898 1043 3565 
Q 1043 3219 1260 3008 
Q 1478 2797 1907 2598 
z
M 1779 230 
Q 2195 230 2448 470 
Q 2701 710 2701 1082 
Q 2701 1408 2448 1651 
Q 2195 1894 1574 2163 
Q 1274 2003 1094 1740 
Q 915 1478 915 1120 
Q 915 723 1132 476 
Q 1350 230 1779 230 
z
" transform="scale(0.015625)"/>
       </defs>
       <use xlink:href="#NotoSerif-Regular-32"/>
       <use xlink:href="#NotoSerif-Regular-38" transform="translate(55.899994 0)"/>
      </g>
     </g>
    </g>
    <g id="text_3">
     <!-- query durations (s) -->
     <g transform="translate(368.708594 58.8) scale(0.1 -0.1)">
      <defs>
       <path id="NotoSerif-Italic-71" d="M 2054 -256 
Q 2074 -147 2115 32 
Q 2157 211 2205 406 
Q 2253 602 2288 755 
Q 2323 909 2336 966 
L 2298 966 
Q 2176 704 2009 467 
Q 1843 230 1622 83 
Q 1402 -64 1101 -64 
Q 730 -64 502 233 
Q 275 531 275 1107 
Q 275 1408 355 1737 
Q 435 2067 595 2377 
Q 755 2688 985 2941 
Q 1216 3194 1517 3344 
Q 1818 3494 2182 3494 
Q 2355 3494 2560 3446 
Q 2765 3398 2893 3322 
L 3213 3494 
L 3437 3494 
L 2554 -678 
Q 2534 -768 2524 -851 
Q 2515 -934 2515 -966 
Q 2515 -1158 2646 -1212 
Q 2778 -1267 2957 -1267 
L 3008 -1267 
L 2950 -1536 
L 1786 -1536 
L 2054 -256 
z
M 1331 339 
Q 1504 339 1680 473 
Q 1856 608 2013 829 
Q 2170 1050 2288 1315 
Q 2406 1581 2464 1843 
L 2701 2976 
Q 2656 3066 2525 3136 
Q 2394 3206 2214 3206 
Q 1952 3206 1747 3056 
Q 1542 2906 1385 2659 
Q 1229 2413 1129 2128 
Q 1030 1843 979 1564 
Q 928 1286 928 1075 
Q 928 678 1043 508 
Q 1158 339 1331 339 
z
" transform="scale(0.015625)"/>
       <path id="NotoSerif-Italic-75" d="M 2918 -64 
Q 2662 -64 2521 115 
Q 2381 294 2381 544 
Q 2381 614 2390 716 
Q 2400 819 2413 922 
L 2362 922 
Q 2182 634 2009 413 
Q 1837 192 1625 67 
Q 1414 -58 1126 -58 
Q 749 -58 595 156 
Q 442 371 442 653 
Q 442 813 480 1005 
Q 518 1197 557 1357 
L 806 2477 
Q 826 2566 845 2700 
Q 864 2835 864 2861 
Q 864 3053 733 3107 
Q 602 3162 416 3162 
L 365 3162 
L 422 3430 
L 1613 3430 
L 1190 1517 
Q 1152 1344 1107 1113 
Q 1062 883 1062 742 
Q 1062 582 1126 467 
Q 1190 352 1376 352 
Q 1549 352 1734 483 
Q 1920 614 2093 832 
Q 2266 1050 2394 1312 
Q 2522 1574 2579 1837 
L 2912 3430 
L 3533 3430 
L 3091 1376 
Q 3078 1306 3052 1171 
Q 3027 1037 3011 896 
Q 2995 755 2995 666 
Q 2995 339 3206 339 
Q 3315 339 3404 374 
Q 3494 410 3616 480 
L 3731 294 
Q 3590 173 3376 54 
Q 3162 -64 2918 -64 
z
" transform="scale(0.015625)"/>
       <path id="NotoSerif-Italic-65" d="M 1523 -64 
Q 1184 -64 899 83 
Q 614 230 444 521 
Q 275 813 275 1261 
Q 275 1619 396 2006 
Q 518 2394 761 2733 
Q 1005 3072 1360 3283 
Q 1715 3494 2182 3494 
Q 2586 3494 2810 3299 
Q 3034 3104 3034 2758 
Q 3034 2426 2794 2131 
Q 2554 1837 2134 1657 
Q 1715 1478 1178 1478 
L 954 1478 
Q 947 1408 944 1341 
Q 941 1274 941 1210 
Q 941 800 1120 569 
Q 1299 339 1645 339 
Q 1952 339 2192 486 
Q 2432 634 2566 800 
Q 2630 755 2630 640 
Q 2630 499 2512 336 
Q 2394 173 2150 54 
Q 1907 -64 1523 -64 
z
M 1075 1773 
Q 1453 1773 1744 1897 
Q 2035 2022 2204 2243 
Q 2374 2464 2374 2758 
Q 2374 3187 2003 3187 
Q 1824 3187 1664 3062 
Q 1504 2938 1376 2730 
Q 1248 2522 1155 2272 
Q 1062 2022 1011 1773 
L 1075 1773 
z
" transform="scale(0.015625)"/>
       <path id="NotoSerif-Italic-72" d="M 819 2573 
Q 838 2662 848 2748 
Q 858 2835 858 2861 
Q 858 3053 694 3107 
Q 531 3162 346 3162 
L 294 3162 
L 352 3430 
L 1485 3430 
L 1350 2509 
L 1414 2509 
Q 1536 2771 1677 2995 
Q 1818 3219 2016 3356 
Q 2214 3494 2502 3494 
Q 2771 3494 2899 3369 
Q 3027 3245 3027 3053 
Q 3027 2829 2902 2697 
Q 2778 2566 2496 2566 
Q 2496 2797 2445 2934 
Q 2394 3072 2240 3072 
Q 2074 3072 1904 2899 
Q 1734 2726 1584 2441 
Q 1434 2157 1312 1821 
Q 1190 1485 1120 1165 
L 877 0 
L 282 0 
L 819 2573 
z
" transform="scale(0.015625)"/>
       <path id="NotoSerif-Italic-79" d="M -435 -1536 
Q -774 -1536 -1037 -1421 
L -941 -1101 
Q -864 -1126 -752 -1148 
Q -640 -1171 -442 -1171 
Q -128 -1171 137 -1059 
Q 403 -947 627 -771 
Q 851 -595 1033 -393 
Q 1216 -192 1357 -6 
L 512 2822 
Q 454 3014 355 3088 
Q 256 3162 70 3162 
L 6 3162 
L 58 3430 
L 992 3430 
L 1491 1702 
Q 1542 1536 1600 1305 
Q 1658 1075 1706 864 
Q 1754 653 1760 544 
L 1779 544 
Q 2022 915 2217 1292 
Q 2413 1670 2528 2025 
Q 2643 2381 2643 2669 
Q 2643 2803 2576 2908 
Q 2509 3014 2330 3014 
Q 2330 3245 2461 3366 
Q 2592 3488 2746 3488 
Q 2950 3488 3065 3353 
Q 3181 3219 3181 2950 
Q 3181 2451 2873 1798 
Q 2566 1146 2054 365 
Q 1741 -122 1475 -480 
Q 1210 -838 941 -1072 
Q 672 -1306 342 -1421 
Q 13 -1536 -435 -1536 
z
" transform="scale(0.015625)"/>
       <path id="NotoSerif-Italic-20" transform="scale(0.015625)"/>
       <path id="NotoSerif-Italic-64" d="M 1101 -64 
Q 819 -64 633 89 
Q 448 243 361 508 
Q 275 774 275 1107 
Q 275 1408 355 1737 
Q 435 2067 595 2377 
Q 755 2688 985 2941 
Q 1216 3194 1517 3344 
Q 1818 3494 2182 3494 
Q 2368 3494 2531 3449 
Q 2694 3405 2816 3334 
Q 2829 3418 2848 3530 
Q 2867 3642 2880 3699 
L 2944 4006 
Q 2963 4096 2976 4176 
Q 2989 4256 2989 4294 
Q 2989 4486 2857 4540 
Q 2726 4595 2541 4595 
L 2490 4595 
L 2547 4864 
L 3725 4864 
L 2982 1376 
Q 2970 1306 2944 1171 
Q 2918 1037 2902 896 
Q 2886 755 2886 666 
Q 2886 339 3098 339 
Q 3206 339 3321 387 
Q 3437 435 3558 506 
L 3674 320 
Q 3584 237 3430 147 
Q 3277 58 3104 -3 
Q 2931 -64 2771 -64 
Q 2541 -64 2406 77 
Q 2272 218 2272 467 
Q 2272 550 2288 678 
Q 2304 806 2336 966 
L 2298 966 
Q 2080 474 1779 205 
Q 1478 -64 1101 -64 
z
M 1331 339 
Q 1498 339 1674 467 
Q 1850 595 2006 812 
Q 2163 1030 2284 1299 
Q 2406 1568 2464 1843 
L 2701 2976 
Q 2630 3091 2496 3148 
Q 2362 3206 2214 3206 
Q 1958 3206 1753 3062 
Q 1549 2918 1395 2681 
Q 1242 2445 1136 2163 
Q 1030 1882 979 1597 
Q 928 1312 928 1082 
Q 928 685 1043 512 
Q 1158 339 1331 339 
z
" transform="scale(0.015625)"/>
       <path id="NotoSerif-Italic-61" d="M 1101 -64 
Q 819 -64 633 89 
Q 448 243 361 508 
Q 275 774 275 1107 
Q 275 1408 355 1737 
Q 435 2067 595 2377 
Q 755 2688 985 2941 
Q 1216 3194 1517 3344 
Q 1818 3494 2182 3494 
Q 2413 3494 2608 3430 
Q 2803 3366 2931 3264 
L 3213 3424 
L 3418 3424 
L 2982 1376 
Q 2970 1306 2944 1171 
Q 2918 1037 2902 896 
Q 2886 755 2886 666 
Q 2886 339 3098 339 
Q 3206 339 3321 387 
Q 3437 435 3558 506 
L 3674 320 
Q 3584 237 3430 147 
Q 3277 58 3104 -3 
Q 2931 -64 2771 -64 
Q 2541 -64 2406 77 
Q 2272 218 2272 467 
Q 2272 595 2288 700 
Q 2304 806 2336 966 
L 2298 966 
Q 2080 474 1779 205 
Q 1478 -64 1101 -64 
z
M 1331 339 
Q 1498 339 1674 467 
Q 1850 595 2006 812 
Q 2163 1030 2284 1299 
Q 2406 1568 2464 1843 
L 2701 2976 
Q 2630 3091 2496 3148 
Q 2362 3206 2214 3206 
Q 1958 3206 1753 3062 
Q 1549 2918 1395 2681 
Q 1242 2445 1136 2163 
Q 1030 1882 979 1597 
Q 928 1312 928 1082 
Q 928 685 1043 512 
Q 1158 339 1331 339 
z
" transform="scale(0.015625)"/>
       <path id="NotoSerif-Italic-74" d="M 1171 -64 
Q 474 -64 474 685 
Q 474 800 493 950 
Q 512 1101 538 1222 
L 928 3066 
L 442 3066 
L 499 3322 
Q 774 3322 1030 3523 
Q 1286 3725 1478 4218 
L 1773 4218 
L 1606 3430 
L 2381 3430 
L 2304 3066 
L 1530 3066 
L 1139 1242 
Q 1107 1082 1084 938 
Q 1062 794 1062 691 
Q 1062 506 1152 422 
Q 1242 339 1402 339 
Q 1536 339 1680 380 
Q 1824 422 1926 480 
L 2035 243 
Q 1843 109 1628 22 
Q 1414 -64 1171 -64 
z
" transform="scale(0.015625)"/>
       <path id="NotoSerif-Italic-69" d="M 1434 4070 
Q 1274 4070 1174 4156 
Q 1075 4243 1075 4422 
Q 1075 4627 1180 4748 
Q 1286 4870 1459 4870 
Q 1613 4870 1715 4784 
Q 1818 4698 1818 4518 
Q 1818 4269 1696 4169 
Q 1574 4070 1434 4070 
z
M 992 -64 
Q 736 -64 598 115 
Q 461 294 461 544 
Q 461 678 486 864 
Q 512 1050 544 1238 
Q 576 1427 602 1549 
L 851 2726 
Q 870 2822 870 2893 
Q 870 3066 764 3114 
Q 659 3162 480 3162 
L 397 3162 
L 454 3430 
L 1600 3430 
L 1165 1376 
Q 1152 1306 1126 1171 
Q 1101 1037 1085 896 
Q 1069 755 1069 666 
Q 1069 339 1280 339 
Q 1389 339 1504 387 
Q 1619 435 1741 506 
L 1856 320 
Q 1715 198 1475 67 
Q 1235 -64 992 -64 
z
" transform="scale(0.015625)"/>
       <path id="NotoSerif-Italic-6f" d="M 1504 -64 
Q 960 -64 617 265 
Q 275 595 275 1261 
Q 275 1619 390 2006 
Q 506 2394 742 2733 
Q 979 3072 1337 3283 
Q 1696 3494 2182 3494 
Q 2522 3494 2797 3360 
Q 3072 3226 3235 2934 
Q 3398 2643 3398 2170 
Q 3398 1894 3328 1590 
Q 3258 1286 3110 992 
Q 2963 698 2739 461 
Q 2515 224 2208 80 
Q 1901 -64 1504 -64 
z
M 1574 262 
Q 1888 262 2109 464 
Q 2330 666 2467 982 
Q 2605 1299 2669 1644 
Q 2733 1990 2733 2278 
Q 2733 2758 2566 2963 
Q 2400 3168 2106 3168 
Q 1856 3168 1664 3033 
Q 1472 2899 1334 2678 
Q 1197 2458 1110 2189 
Q 1024 1920 982 1648 
Q 941 1376 941 1146 
Q 941 659 1113 460 
Q 1286 262 1574 262 
z
" transform="scale(0.015625)"/>
       <path id="NotoSerif-Italic-6e" d="M 2944 -64 
Q 2662 -64 2512 118 
Q 2362 301 2362 576 
Q 2362 870 2483 1440 
L 2592 1939 
Q 2611 2029 2643 2163 
Q 2675 2298 2700 2445 
Q 2726 2592 2726 2701 
Q 2726 2829 2672 2953 
Q 2618 3078 2432 3078 
Q 2234 3078 2035 2931 
Q 1837 2784 1667 2553 
Q 1498 2323 1379 2076 
Q 1261 1830 1222 1638 
L 877 0 
L 282 0 
L 819 2573 
Q 838 2662 848 2748 
Q 858 2835 858 2861 
Q 858 3053 726 3107 
Q 595 3162 410 3162 
L 358 3162 
L 416 3430 
L 1600 3430 
L 1427 2624 
L 1491 2624 
Q 1754 3046 2026 3267 
Q 2298 3488 2656 3488 
Q 3034 3488 3187 3273 
Q 3341 3059 3341 2778 
Q 3341 2618 3299 2429 
Q 3258 2240 3226 2074 
L 3059 1318 
Q 3021 1139 2998 966 
Q 2976 794 2976 646 
Q 2976 339 3200 339 
Q 3386 339 3610 486 
L 3725 301 
Q 3571 173 3382 54 
Q 3194 -64 2944 -64 
z
" transform="scale(0.015625)"/>
       <path id="NotoSerif-Italic-73" d="M 1216 -64 
Q 736 -64 448 131 
Q 160 326 160 659 
Q 160 832 230 925 
Q 301 1018 393 1050 
Q 486 1082 563 1082 
Q 563 858 633 666 
Q 704 474 867 358 
Q 1030 243 1293 243 
Q 1613 243 1798 393 
Q 1984 544 1984 838 
Q 1984 1062 1837 1222 
Q 1690 1382 1338 1542 
Q 986 1709 774 1929 
Q 563 2150 563 2534 
Q 563 2950 899 3219 
Q 1235 3488 1798 3488 
Q 2150 3488 2368 3398 
Q 2586 3309 2691 3168 
Q 2797 3027 2797 2880 
Q 2797 2682 2669 2582 
Q 2541 2483 2317 2483 
Q 2317 2656 2262 2819 
Q 2208 2982 2083 3088 
Q 1958 3194 1741 3194 
Q 1453 3194 1286 3040 
Q 1120 2886 1120 2643 
Q 1120 2426 1280 2282 
Q 1440 2138 1773 1984 
Q 2125 1824 2333 1593 
Q 2541 1363 2541 992 
Q 2541 525 2185 230 
Q 1830 -64 1216 -64 
z
" transform="scale(0.015625)"/>
       <path id="NotoSerif-Italic-28" d="M 1402 -819 
Q 800 -557 534 -16 
Q 269 525 269 1190 
Q 269 1773 413 2358 
Q 557 2944 848 3456 
Q 1139 3968 1577 4339 
Q 2016 4710 2611 4864 
L 2547 4576 
Q 2144 4358 1853 4003 
Q 1562 3648 1373 3219 
Q 1184 2790 1072 2355 
Q 960 1920 915 1536 
Q 870 1152 870 890 
Q 870 480 1001 96 
Q 1133 -288 1466 -525 
L 1402 -819 
z
" transform="scale(0.015625)"/>
       <path id="NotoSerif-Italic-29" d="M -250 -582 
Q 154 -365 445 -9 
Q 736 346 925 774 
Q 1114 1203 1226 1638 
Q 1338 2074 1382 2458 
Q 1427 2842 1427 3104 
Q 1427 3514 1299 3898 
Q 1171 4282 832 4518 
L 896 4813 
Q 1498 4557 1763 4013 
Q 2029 3469 2029 2803 
Q 2029 2221 1885 1635 
Q 1741 1050 1449 538 
Q 1158 26 720 -345 
Q 282 -717 -314 -870 
L -250 -582 
z
" transform="scale(0.015625)"/>
      </defs>
      <use xlink:href="#NotoSerif-Italic-71"/>
      <use xlink:href="#NotoSerif-Italic-75" transform="translate(55.999985 0)"/>
      <use xlink:href="#NotoSerif-Italic-65" transform="translate(115.899979 0)"/>
      <use xlink:href="#NotoSerif-Italic-72" transform="translate(165.199966 0)"/>
      <use xlink:href="#NotoSerif-Italic-79" transform="translate(211.999954 0)"/>
      <use xlink:href="#NotoSerif-Italic-20" transform="translate(264.799942 0)"/>
      <use xlink:href="#NotoSerif-Italic-64" transform="translate(290.799927 0)"/>
      <use xlink:href="#NotoSerif-Italic-75" transform="translate(348.699921 0)"/>
      <use xlink:href="#NotoSerif-Italic-72" transform="translate(408.599915 0)"/>
      <use xlink:href="#NotoSerif-Italic-61" transform="translate(455.399902 0)"/>
      <use xlink:href="#NotoSerif-Italic-74" transform="translate(513.299896 0)"/>
      <use xlink:href="#NotoSerif-Italic-69" transform="translate(550.099884 0)"/>
      <use xlink:href="#NotoSerif-Italic-6f" transform="translate(580.499878 0)"/>
      <use xlink:href="#NotoSerif-Italic-6e" transform="translate(637.899872 0)"/>
      <use xlink:href="#NotoSerif-Italic-73" transform="translate(697.799866 0)"/>
      <use xlink:href="#NotoSerif-Italic-20" transform="translate(744.19986 0)"/>
      <use xlink:href="#NotoSerif-Italic-28" transform="translate(770.199844 0)"/>
      <use xlink:href="#NotoSerif-Italic-73" transform="translate(804.799835 0)"/>
      <use xlink:href="#NotoSerif-Italic-29" transform="translate(851.199829 0)"/>
     </g>
    </g>
   </g>
   <g id="matplotlib.axis_2">
    <g id="ytick_1">
     <g id="line2d_3"/>
     <g id="text_4">
      <!-- service-ask -->
      <g transform="translate(10.8 16.430483) scale(0.1 -0.1)">
       <defs>
        <path id="NotoSerif-Regular-73" d="M 1344 -64 
Q 864 -64 576 109 
Q 288 282 288 614 
Q 288 787 358 883 
Q 429 979 521 1017 
Q 614 1056 691 1056 
Q 691 723 841 483 
Q 992 243 1382 243 
Q 1722 243 1904 406 
Q 2086 570 2086 826 
Q 2086 986 2019 1088 
Q 1952 1190 1782 1289 
Q 1613 1389 1299 1523 
Q 973 1670 758 1808 
Q 544 1946 438 2128 
Q 333 2310 333 2586 
Q 333 3021 662 3254 
Q 992 3488 1536 3488 
Q 1997 3488 2233 3315 
Q 2470 3142 2470 2899 
Q 2470 2726 2352 2620 
Q 2234 2515 2010 2515 
Q 2010 2835 1875 3014 
Q 1741 3194 1459 3194 
Q 1133 3194 992 3050 
Q 851 2906 851 2682 
Q 851 2438 1033 2307 
Q 1216 2176 1645 2003 
Q 1984 1862 2195 1721 
Q 2406 1581 2505 1395 
Q 2605 1210 2605 941 
Q 2605 442 2259 189 
Q 1914 -64 1344 -64 
z
" transform="scale(0.015625)"/>
        <path id="NotoSerif-Regular-65" d="M 1837 -64 
Q 1139 -64 745 397 
Q 352 858 352 1690 
Q 352 2586 723 3040 
Q 1094 3494 1773 3494 
Q 2394 3494 2749 3110 
Q 3104 2726 3104 1965 
L 3104 1670 
L 973 1670 
Q 986 973 1226 656 
Q 1466 339 1926 339 
Q 2259 339 2492 476 
Q 2726 614 2842 787 
Q 2886 768 2924 710 
Q 2963 653 2963 570 
Q 2963 442 2841 294 
Q 2720 147 2470 41 
Q 2221 -64 1837 -64 
z
M 2458 2016 
Q 2458 2528 2301 2838 
Q 2144 3149 1760 3149 
Q 1408 3149 1213 2857 
Q 1018 2566 986 2016 
L 2458 2016 
z
" transform="scale(0.015625)"/>
        <path id="NotoSerif-Regular-72" d="M 211 0 
L 211 269 
L 230 269 
Q 448 269 601 349 
Q 755 429 755 730 
L 755 2726 
Q 755 3008 598 3085 
Q 442 3162 230 3162 
L 211 3162 
L 211 3430 
L 1197 3430 
L 1318 2797 
L 1350 2797 
Q 1434 2989 1530 3149 
Q 1626 3309 1786 3401 
Q 1946 3494 2227 3494 
Q 2579 3494 2748 3372 
Q 2918 3251 2918 3027 
Q 2918 2829 2780 2701 
Q 2643 2573 2323 2573 
Q 2323 2835 2246 2953 
Q 2170 3072 1984 3072 
Q 1805 3072 1683 2931 
Q 1562 2790 1491 2572 
Q 1421 2355 1389 2121 
Q 1357 1888 1357 1702 
L 1357 698 
Q 1357 416 1513 342 
Q 1670 269 1882 269 
L 2061 269 
L 2061 0 
L 211 0 
z
" transform="scale(0.015625)"/>
        <path id="NotoSerif-Regular-76" d="M 499 2822 
Q 429 3027 329 3094 
Q 230 3162 26 3162 
L 26 3430 
L 1626 3430 
L 1626 3162 
L 1542 3162 
Q 1158 3162 1158 2854 
Q 1158 2803 1171 2745 
Q 1184 2688 1210 2618 
L 1645 1408 
Q 1734 1171 1817 892 
Q 1901 614 1946 448 
Q 1978 582 2080 838 
Q 2182 1094 2266 1325 
L 2726 2573 
Q 2784 2726 2784 2848 
Q 2784 3162 2362 3162 
L 2317 3162 
L 2317 3430 
L 3686 3430 
L 3686 3162 
L 3610 3162 
Q 3424 3162 3331 3066 
Q 3238 2970 3123 2662 
L 2112 0 
L 1530 0 
L 499 2822 
z
" transform="scale(0.015625)"/>
        <path id="NotoSerif-Regular-69" d="M 1030 4070 
Q 877 4070 771 4160 
Q 666 4250 666 4467 
Q 666 4691 771 4777 
Q 877 4864 1030 4864 
Q 1178 4864 1286 4777 
Q 1395 4691 1395 4467 
Q 1395 4250 1286 4160 
Q 1178 4070 1030 4070 
z
M 147 0 
L 147 269 
L 230 269 
Q 442 269 598 342 
Q 755 416 755 698 
L 755 2726 
Q 755 3008 598 3085 
Q 442 3162 230 3162 
L 211 3162 
L 211 3430 
L 1357 3430 
L 1357 730 
Q 1357 429 1510 349 
Q 1664 269 1882 269 
L 1965 269 
L 1965 0 
L 147 0 
z
" transform="scale(0.015625)"/>
        <path id="NotoSerif-Regular-63" d="M 1811 -64 
Q 1389 -64 1059 115 
Q 730 294 541 681 
Q 352 1069 352 1696 
Q 352 2381 541 2774 
Q 730 3168 1053 3331 
Q 1376 3494 1779 3494 
Q 2048 3494 2304 3424 
Q 2560 3354 2726 3210 
Q 2893 3066 2893 2842 
Q 2893 2624 2749 2531 
Q 2605 2438 2323 2438 
Q 2323 2739 2211 2956 
Q 2099 3174 1779 3174 
Q 1536 3174 1353 3046 
Q 1171 2918 1072 2598 
Q 973 2278 973 1702 
Q 973 1024 1200 688 
Q 1427 352 1939 352 
Q 2240 352 2461 477 
Q 2682 602 2790 800 
Q 2899 710 2899 550 
Q 2899 403 2777 262 
Q 2656 122 2416 29 
Q 2176 -64 1811 -64 
z
" transform="scale(0.015625)"/>
        <path id="NotoSerif-Regular-2d" d="M 160 1504 
L 160 1984 
L 1824 1984 
L 1824 1504 
L 160 1504 
z
" transform="scale(0.015625)"/>
        <path id="NotoSerif-Regular-61" d="M 1312 -64 
Q 883 -64 601 185 
Q 320 435 320 960 
Q 320 1472 681 1715 
Q 1043 1958 1779 1984 
L 2310 2003 
L 2310 2387 
Q 2310 2618 2272 2794 
Q 2234 2970 2106 3072 
Q 1978 3174 1715 3174 
Q 1472 3174 1344 3084 
Q 1216 2995 1174 2838 
Q 1133 2682 1133 2477 
Q 864 2477 726 2569 
Q 589 2662 589 2880 
Q 589 3104 745 3238 
Q 902 3373 1164 3433 
Q 1427 3494 1741 3494 
Q 2330 3494 2621 3244 
Q 2912 2995 2912 2387 
L 2912 730 
Q 2912 461 3001 365 
Q 3091 269 3309 269 
L 3328 269 
L 3328 0 
L 2464 0 
L 2362 550 
L 2310 550 
Q 2176 371 2048 233 
Q 1920 96 1750 16 
Q 1581 -64 1312 -64 
z
M 1459 333 
Q 1850 333 2080 573 
Q 2310 813 2310 1222 
L 2310 1741 
L 1901 1722 
Q 1357 1696 1149 1501 
Q 941 1306 941 928 
Q 941 333 1459 333 
z
" transform="scale(0.015625)"/>
        <path id="NotoSerif-Regular-6b" d="M 115 0 
L 115 269 
L 166 269 
Q 384 269 537 349 
Q 691 429 691 730 
L 691 4160 
Q 691 4442 534 4518 
Q 378 4595 166 4595 
L 115 4595 
L 115 4864 
L 1293 4864 
L 1293 2394 
Q 1293 2310 1289 2176 
Q 1286 2042 1280 1907 
Q 1274 1773 1270 1680 
Q 1267 1587 1267 1587 
L 2067 2464 
Q 2272 2694 2345 2819 
Q 2419 2944 2419 3034 
Q 2419 3117 2342 3139 
Q 2266 3162 2106 3162 
L 2106 3430 
L 3520 3430 
L 3520 3162 
Q 3302 3162 3084 3005 
Q 2867 2848 2618 2566 
L 2170 2061 
L 3021 794 
Q 3187 538 3350 403 
Q 3514 269 3731 269 
L 3750 269 
L 3750 0 
L 3661 0 
Q 3386 0 3200 19 
Q 3014 38 2889 99 
Q 2765 160 2653 285 
Q 2541 410 2406 621 
L 1766 1626 
L 1293 1274 
L 1293 698 
Q 1293 416 1449 342 
Q 1606 269 1818 269 
L 1837 269 
L 1837 0 
L 115 0 
z
" transform="scale(0.015625)"/>
       </defs>
       <use xlink:href="#NotoSerif-Regular-73"/>
       <use xlink:href="#NotoSerif-Regular-65" transform="translate(45.099991 0)"/>
       <use xlink:href="#NotoSerif-Regular-72" transform="translate(98.599976 0)"/>
       <use xlink:href="#NotoSerif-Regular-76" transform="translate(145.699966 0)"/>
       <use xlink:href="#NotoSerif-Regular-69" transform="translate(203.59996 0)"/>
       <use xlink:href="#NotoSerif-Regular-63" transform="translate(235.599945 0)"/>
       <use xlink:href="#NotoSerif-Regular-65" transform="translate(284.799942 0)"/>
       <use xlink:href="#NotoSerif-Regular-2d" transform="translate(338.299927 0)"/>
       <use xlink:href="#NotoSerif-Regular-61" transform="translate(369.299911 0)"/>
       <use xlink:href="#NotoSerif-Regular-73" transform="translate(425.599899 0)"/>
       <use xlink:href="#NotoSerif-Regular-6b" transform="translate(470.69989 0)"/>
      </g>
     </g>
    </g>
    <g id="ytick_2">
     <g id="line2d_4"/>
     <g id="text_5">
      <!-- service-count -->
      <g transform="translate(10.8 21.935313) scale(0.1 -0.1)">
       <defs>
        <path id="NotoSerif-Regular-6f" d="M 1837 -64 
Q 1146 -64 749 377 
Q 352 819 352 1722 
Q 352 2618 733 3056 
Q 1114 3494 1856 3494 
Q 2547 3494 2944 3056 
Q 3341 2618 3341 1722 
Q 3341 819 2960 377 
Q 2579 -64 1837 -64 
z
M 1850 269 
Q 2330 269 2525 637 
Q 2720 1005 2720 1722 
Q 2720 2438 2521 2796 
Q 2323 3155 1843 3155 
Q 1363 3155 1168 2796 
Q 973 2438 973 1722 
Q 973 1005 1171 637 
Q 1370 269 1850 269 
z
" transform="scale(0.015625)"/>
        <path id="NotoSerif-Regular-75" d="M 1747 -64 
Q 1242 -64 966 233 
Q 691 531 691 1190 
L 691 2726 
Q 691 3008 534 3085 
Q 378 3162 166 3162 
L 147 3162 
L 147 3430 
L 1293 3430 
L 1293 1222 
Q 1293 806 1433 576 
Q 1574 346 1965 346 
Q 2387 346 2579 630 
Q 2771 915 2771 1382 
L 2771 2701 
Q 2771 3002 2617 3082 
Q 2464 3162 2246 3162 
L 2227 3162 
L 2227 3430 
L 3373 3430 
L 3373 698 
Q 3373 416 3529 342 
Q 3686 269 3898 269 
L 3917 269 
L 3917 0 
L 2899 0 
L 2816 518 
L 2784 518 
Q 2586 160 2323 48 
Q 2061 -64 1747 -64 
z
" transform="scale(0.015625)"/>
        <path id="NotoSerif-Regular-6e" d="M 179 0 
L 179 269 
L 230 269 
Q 448 269 601 349 
Q 755 429 755 730 
L 755 2726 
Q 755 3008 604 3085 
Q 454 3162 243 3162 
L 211 3162 
L 211 3430 
L 1248 3430 
L 1331 2912 
L 1363 2912 
Q 1562 3270 1808 3382 
Q 2054 3494 2362 3494 
Q 2867 3494 3152 3196 
Q 3437 2899 3437 2240 
L 3437 730 
Q 3437 429 3568 349 
Q 3699 269 3917 269 
L 3949 269 
L 3949 0 
L 2835 0 
L 2835 2208 
Q 2835 2624 2678 2854 
Q 2522 3085 2131 3085 
Q 1843 3085 1673 2941 
Q 1504 2797 1430 2560 
Q 1357 2323 1357 2048 
L 1357 698 
Q 1357 416 1507 342 
Q 1658 269 1869 269 
L 1901 269 
L 1901 0 
L 179 0 
z
" transform="scale(0.015625)"/>
        <path id="NotoSerif-Regular-74" d="M 1536 -64 
Q 1050 -64 829 157 
Q 608 378 608 928 
L 608 3066 
L 122 3066 
L 122 3322 
Q 237 3322 377 3370 
Q 518 3418 621 3526 
Q 730 3642 800 3808 
Q 870 3974 915 4218 
L 1210 4218 
L 1210 3430 
L 2048 3430 
L 2048 3066 
L 1210 3066 
L 1210 909 
Q 1210 582 1344 428 
Q 1478 275 1696 275 
Q 1811 275 1907 288 
Q 2003 301 2106 320 
L 2106 38 
Q 2022 0 1856 -32 
Q 1690 -64 1536 -64 
z
" transform="scale(0.015625)"/>
       </defs>
       <use xlink:href="#NotoSerif-Regular-73"/>
       <use xlink:href="#NotoSerif-Regular-65" transform="translate(45.099991 0)"/>
       <use xlink:href="#NotoSerif-Regular-72" transform="translate(98.599976 0)"/>
       <use xlink:href="#NotoSerif-Regular-76" transform="translate(145.699966 0)"/>
       <use xlink:href="#NotoSerif-Regular-69" transform="translate(203.59996 0)"/>
       <use xlink:href="#NotoSerif-Regular-63" transform="translate(235.599945 0)"/>
       <use xlink:href="#NotoSerif-Regular-65" transform="translate(284.799942 0)"/>
       <use xlink:href="#NotoSerif-Regular-2d" transform="translate(338.299927 0)"/>
       <use xlink:href="#NotoSerif-Regular-63" transform="translate(369.299911 0)"/>
       <use xlink:href="#NotoSerif-Regular-6f" transform="translate(418.499908 0)"/>
       <use xlink:href="#NotoSerif-Regular-75" transform="translate(476.199905 0)"/>
       <use xlink:href="#NotoSerif-Regular-6e" transform="translate(539.69989 0)"/>
       <use xlink:href="#NotoSerif-Regular-74" transform="translate(604.199875 0)"/>
      </g>
     </g>
    </g>
    <g id="ytick_3">
     <g id="line2d_5"/>
     <g id="text_6">
      <!-- service-void -->
      <g transform="translate(10.8 27.440142) scale(0.1 -0.1)">
       <defs>
        <path id="NotoSerif-Regular-64" d="M 1658 -64 
Q 1024 -64 688 361 
Q 352 787 352 1709 
Q 352 2637 688 3065 
Q 1024 3494 1658 3494 
Q 2029 3494 2262 3337 
Q 2496 3181 2637 2931 
L 2675 2931 
Q 2656 3091 2646 3286 
Q 2637 3482 2637 3635 
L 2637 4160 
Q 2637 4442 2480 4518 
Q 2323 4595 2112 4595 
L 2061 4595 
L 2061 4864 
L 3238 4864 
L 3238 704 
Q 3238 422 3395 345 
Q 3552 269 3763 269 
L 3814 269 
L 3814 0 
L 2733 0 
L 2662 576 
L 2637 576 
Q 2496 282 2265 109 
Q 2035 -64 1658 -64 
z
M 1766 346 
Q 2266 346 2451 682 
Q 2637 1018 2637 1709 
Q 2637 2374 2451 2729 
Q 2266 3085 1760 3085 
Q 1338 3085 1155 2729 
Q 973 2374 973 1702 
Q 973 1024 1155 685 
Q 1338 346 1766 346 
z
" transform="scale(0.015625)"/>
       </defs>
       <use xlink:href="#NotoSerif-Regular-73"/>
       <use xlink:href="#NotoSerif-Regular-65" transform="translate(45.099991 0)"/>
       <use xlink:href="#NotoSerif-Regular-72" transform="translate(98.599976 0)"/>
       <use xlink:href="#NotoSerif-Regular-76" transform="translate(145.699966 0)"/>
       <use xlink:href="#NotoSerif-Regular-69" transform="translate(203.59996 0)"/>
       <use xlink:href="#NotoSerif-Regular-63" transform="translate(235.599945 0)"/>
       <use xlink:href="#NotoSerif-Regular-65" transform="translate(284.799942 0)"/>
       <use xlink:href="#NotoSerif-Regular-2d" transform="translate(338.299927 0)"/>
       <use xlink:href="#NotoSerif-Regular-76" transform="translate(369.299911 0)"/>
       <use xlink:href="#NotoSerif-Regular-6f" transform="translate(427.199905 0)"/>
       <use xlink:href="#NotoSerif-Regular-69" transform="translate(484.899902 0)"/>
       <use xlink:href="#NotoSerif-Regular-64" transform="translate(516.899887 0)"/>
      </g>
     </g>
    </g>
   </g>
  </g>
 </g>
 <defs>
  <clipPath id="pba710bdf0e">
   <rect x="260.8" y="12.08" width="304.4" height="12.110625"/>
  </clipPath>
 </defs>
</svg>
