<?xml version="1.0" encoding="utf-8" standalone="no"?>
<!DOCTYPE svg PUBLIC "-//W3C//DTD SVG 1.1//EN"
  "http://www.w3.org/Graphics/SVG/1.1/DTD/svg11.dtd">
<svg xmlns:xlink="http://www.w3.org/1999/xlink" width="1152pt" height="576pt" viewBox="0 0 1152 576" xmlns="http://www.w3.org/2000/svg" version="1.1">
 <metadata>
  <rdf:RDF xmlns:dc="http://purl.org/dc/elements/1.1/" xmlns:cc="http://creativecommons.org/ns#" xmlns:rdf="http://www.w3.org/1999/02/22-rdf-syntax-ns#">
   <cc:Work>
    <dc:type rdf:resource="http://purl.org/dc/dcmitype/StillImage"/>
    <dc:date>2025-07-09T17:43:53.168075</dc:date>
    <dc:format>image/svg+xml</dc:format>
    <dc:creator>
     <cc:Agent>
      <dc:title>Matplotlib v3.10.3, https://matplotlib.org/</dc:title>
     </cc:Agent>
    </dc:creator>
   </cc:Work>
  </rdf:RDF>
 </metadata>
 <defs>
  <style type="text/css">*{stroke-linejoin: round; stroke-linecap: butt}</style>
 </defs>
 <g id="figure_1">
  <g id="patch_1">
   <path d="M 0 576 
L 1152 576 
L 1152 0 
L 0 0 
z
" style="fill: #ffffff"/>
  </g>
  <g id="axes_1">
   <g id="patch_2">
    <path d="M 121.158834 134.79976 
L 1148.99976 134.79976 
L 1148.99976 6.80024 
L 121.158834 6.80024 
z
" style="fill: #ffffff"/>
   </g>
   <g id="matplotlib.axis_1"/>
   <g id="matplotlib.axis_2">
    <g id="ytick_1">
     <g id="line2d_1">
      <defs>
       <path id="mf994fac39c" d="M 0 0 
L -3.5 0 
" style="stroke: #000000; stroke-width: 0.8"/>
      </defs>
      <g>
       <use xlink:href="#mf994fac39c" x="121.158834" y="134.79976" style="stroke: #000000; stroke-width: 0.8"/>
      </g>
     </g>
     <g id="text_1">
      <!-- 0 -->
      <g transform="translate(108.568209 138.59976) scale(0.1 -0.1)">
       <defs>
        <path id="NotoSerif-Regular-30" d="M 1792 -64 
Q 1267 -64 934 230 
Q 602 525 445 1056 
Q 288 1587 288 2298 
Q 288 3008 445 3533 
Q 602 4058 934 4346 
Q 1267 4634 1798 4634 
Q 2298 4634 2630 4346 
Q 2963 4058 3126 3530 
Q 3290 3002 3290 2291 
Q 3290 1581 3123 1053 
Q 2957 525 2627 230 
Q 2298 -64 1792 -64 
z
M 1792 282 
Q 2259 282 2441 813 
Q 2624 1344 2624 2291 
Q 2624 3245 2441 3766 
Q 2259 4288 1798 4288 
Q 1331 4288 1142 3766 
Q 954 3245 954 2291 
Q 954 1344 1139 813 
Q 1325 282 1792 282 
z
" transform="scale(0.015625)"/>
       </defs>
       <use xlink:href="#NotoSerif-Regular-30"/>
      </g>
     </g>
    </g>
    <g id="ytick_2">
     <g id="line2d_2">
      <g>
       <use xlink:href="#mf994fac39c" x="121.158834" y="6.80024" style="stroke: #000000; stroke-width: 0.8"/>
      </g>
     </g>
     <g id="text_2">
      <!-- 100 -->
      <g transform="translate(97.386959 10.60024) scale(0.1 -0.1)">
       <defs>
        <path id="NotoSerif-Regular-31" d="M 614 0 
L 614 269 
L 1043 269 
Q 1261 269 1414 349 
Q 1568 429 1568 730 
L 1568 4090 
Q 1325 3795 1129 3609 
Q 934 3424 742 3424 
Q 602 3424 512 3520 
Q 422 3616 422 3770 
Q 614 3821 828 3923 
Q 1043 4026 1357 4262 
L 1805 4595 
L 2214 4595 
L 2214 730 
Q 2214 429 2368 349 
Q 2522 269 2739 269 
L 3053 269 
L 3053 0 
L 614 0 
z
" transform="scale(0.015625)"/>
       </defs>
       <use xlink:href="#NotoSerif-Regular-31"/>
       <use xlink:href="#NotoSerif-Regular-30" transform="translate(55.899994 0)"/>
       <use xlink:href="#NotoSerif-Regular-30" transform="translate(111.799988 0)"/>
      </g>
     </g>
    </g>
    <g id="text_3">
     <!-- CPU (%) -->
     <g transform="translate(8.472115 68.4) scale(0.1 -0.1)">
      <defs>
       <path id="NotoSerif-Regular-43" d="M 2310 -64 
Q 1677 -64 1241 230 
Q 806 525 585 1053 
Q 365 1581 365 2291 
Q 365 2982 598 3510 
Q 832 4038 1289 4336 
Q 1747 4634 2419 4634 
Q 3072 4634 3392 4429 
Q 3712 4224 3712 3917 
Q 3712 3712 3552 3590 
Q 3392 3469 3155 3469 
Q 3155 3667 3084 3856 
Q 3014 4045 2851 4169 
Q 2688 4294 2406 4294 
Q 1683 4294 1379 3772 
Q 1075 3251 1075 2291 
Q 1075 1722 1212 1283 
Q 1350 845 1644 601 
Q 1939 358 2406 358 
Q 2874 358 3139 521 
Q 3405 685 3565 902 
Q 3616 870 3651 809 
Q 3686 749 3686 653 
Q 3686 493 3539 326 
Q 3392 160 3088 48 
Q 2784 -64 2310 -64 
z
" transform="scale(0.015625)"/>
       <path id="NotoSerif-Regular-50" d="M 243 0 
L 243 269 
L 326 269 
Q 544 269 697 349 
Q 851 429 851 730 
L 851 3866 
Q 851 4147 694 4224 
Q 538 4301 326 4301 
L 243 4301 
L 243 4570 
L 2042 4570 
Q 2848 4570 3232 4214 
Q 3616 3859 3616 3232 
Q 3616 2854 3453 2521 
Q 3290 2189 2912 1984 
Q 2534 1779 1901 1779 
L 1498 1779 
L 1498 698 
Q 1498 416 1654 342 
Q 1811 269 2022 269 
L 2234 269 
L 2234 0 
L 243 0 
z
M 1837 2080 
Q 2419 2080 2672 2339 
Q 2925 2598 2925 3206 
Q 2925 3744 2701 4003 
Q 2477 4262 1933 4262 
L 1498 4262 
L 1498 2080 
L 1837 2080 
z
" transform="scale(0.015625)"/>
       <path id="NotoSerif-Regular-55" d="M 2317 -64 
Q 1562 -64 1133 269 
Q 704 602 704 1382 
L 704 3866 
Q 704 4147 547 4224 
Q 390 4301 179 4301 
L 96 4301 
L 96 4570 
L 1958 4570 
L 1958 4301 
L 1875 4301 
Q 1658 4301 1504 4221 
Q 1350 4141 1350 3840 
L 1350 1344 
Q 1350 787 1651 553 
Q 1952 320 2419 320 
Q 2970 320 3232 601 
Q 3494 883 3494 1318 
L 3494 3866 
Q 3494 4147 3337 4224 
Q 3181 4301 2970 4301 
L 2886 4301 
L 2886 4570 
L 4493 4570 
L 4493 4301 
L 4410 4301 
Q 4192 4301 4038 4221 
Q 3885 4141 3885 3840 
L 3885 1306 
Q 3885 666 3481 301 
Q 3078 -64 2317 -64 
z
" transform="scale(0.015625)"/>
       <path id="NotoSerif-Regular-20" transform="scale(0.015625)"/>
       <path id="NotoSerif-Regular-28" d="M 2010 -819 
Q 1421 -582 1059 -214 
Q 698 154 531 707 
Q 365 1261 365 2029 
Q 365 2797 531 3344 
Q 698 3891 1059 4262 
Q 1421 4634 2010 4864 
L 2010 4576 
Q 1568 4314 1360 3910 
Q 1152 3507 1091 3024 
Q 1030 2541 1030 2029 
Q 1030 1523 1091 1036 
Q 1152 550 1360 147 
Q 1568 -256 2010 -525 
L 2010 -819 
z
" transform="scale(0.015625)"/>
       <path id="NotoSerif-Regular-25" d="M 1338 1792 
Q 787 1792 537 2185 
Q 288 2579 288 3219 
Q 288 3866 537 4250 
Q 787 4634 1344 4634 
Q 1869 4634 2128 4250 
Q 2387 3866 2387 3219 
Q 2387 2579 2128 2185 
Q 1869 1792 1338 1792 
z
M 1504 0 
L 3789 4570 
L 4205 4570 
L 1926 0 
L 1504 0 
z
M 1338 2054 
Q 1600 2054 1702 2361 
Q 1805 2669 1805 3219 
Q 1805 3763 1705 4064 
Q 1606 4365 1344 4365 
Q 1082 4365 973 4064 
Q 864 3763 864 3219 
Q 864 2669 973 2361 
Q 1082 2054 1338 2054 
z
M 4397 -64 
Q 3846 -64 3596 329 
Q 3347 723 3347 1363 
Q 3347 2010 3596 2394 
Q 3846 2778 4403 2778 
Q 4928 2778 5187 2394 
Q 5446 2010 5446 1363 
Q 5446 723 5187 329 
Q 4928 -64 4397 -64 
z
M 4397 198 
Q 4659 198 4761 505 
Q 4864 813 4864 1363 
Q 4864 1907 4765 2208 
Q 4666 2509 4403 2509 
Q 4141 2509 4032 2208 
Q 3923 1907 3923 1363 
Q 3923 813 4032 505 
Q 4141 198 4397 198 
z
" transform="scale(0.015625)"/>
       <path id="NotoSerif-Regular-29" d="M 205 -525 
Q 646 -256 854 147 
Q 1062 550 1123 1036 
Q 1184 1523 1184 2029 
Q 1184 2541 1123 3024 
Q 1062 3507 854 3910 
Q 646 4314 205 4576 
L 205 4864 
Q 794 4634 1155 4262 
Q 1517 3891 1683 3344 
Q 1850 2797 1850 2029 
Q 1850 1261 1683 707 
Q 1517 154 1155 -214 
Q 794 -582 205 -819 
L 205 -525 
z
" transform="scale(0.015625)"/>
      </defs>
      <use xlink:href="#NotoSerif-Regular-43"/>
      <use xlink:href="#NotoSerif-Regular-50" transform="translate(61.399994 0)"/>
      <use xlink:href="#NotoSerif-Regular-55" transform="translate(121.799988 0)"/>
      <use xlink:href="#NotoSerif-Regular-20" transform="translate(193.499969 0)"/>
      <use xlink:href="#NotoSerif-Regular-28" transform="translate(219.499954 0)"/>
      <use xlink:href="#NotoSerif-Regular-25" transform="translate(254.099945 0)"/>
      <use xlink:href="#NotoSerif-Regular-29" transform="translate(343.699936 0)"/>
     </g>
    </g>
   </g>
   <g id="line2d_3">
    <path d="M 167.878876 107.455638 
L 172.069014 110.282764 
L 176.259152 117.326209 
L 180.449291 134.710695 
L 184.639429 133.515527 
L 188.829567 130.836308 
L 193.019706 131.286552 
L 197.209844 134.797393 
L 230.73095 134.798474 
L 234.921089 132.27646 
L 239.111227 134.798817 
L 599.463121 134.798697 
L 603.65326 134.215567 
L 607.843398 134.752595 
L 620.413813 134.798705 
L 649.744781 134.798857 
L 653.934919 133.392957 
L 658.125058 134.778064 
L 662.315196 134.527184 
L 666.505334 129.377283 
L 670.695472 129.269047 
L 674.885611 134.710624 
L 679.075749 134.761576 
L 683.265887 133.337983 
L 687.456026 126.976085 
L 691.646164 134.755872 
L 695.836302 134.786026 
L 700.026441 133.70875 
L 704.216579 127.059856 
L 708.406717 134.798051 
L 741.927824 134.761528 
L 746.117962 134.65358 
L 750.3081 130.754601 
L 754.498239 129.759975 
L 758.688377 134.798388 
L 762.878515 134.461669 
L 767.068653 134.784156 
L 771.258792 134.75437 
L 775.44893 132.619632 
L 779.639068 128.624458 
L 783.829207 134.798528 
L 813.160175 134.754976 
L 817.350313 132.888484 
L 821.540451 128.104378 
L 825.73059 134.798625 
L 892.772803 134.7988 
L 934.674186 134.788431 
L 938.864324 134.644969 
L 943.054462 132.460269 
L 947.244601 128.364371 
L 951.434739 134.695491 
L 955.624877 134.787775 
L 959.815016 132.857433 
L 964.005154 127.672654 
L 968.195292 134.752518 
L 972.38543 134.788045 
L 976.575569 134.334067 
L 980.765707 128.438096 
L 984.955845 133.302357 
L 989.145984 134.798881 
L 1001.716399 134.786753 
L 1005.906537 134.113803 
L 1010.096675 134.770958 
L 1014.286813 134.74542 
L 1018.476952 131.405993 
L 1022.66709 129.81332 
L 1026.857228 134.767936 
L 1031.047367 134.784066 
L 1035.237505 131.084883 
L 1039.427643 129.572094 
L 1043.617782 134.741609 
L 1043.617782 134.741609 
" clip-path="url(#p4c2b108479)" style="fill: none; stroke: #440154; stroke-width: 1.5; stroke-linecap: square"/>
   </g>
   <g id="line2d_4">
    <path d="M 167.878876 107.44004 
L 172.069014 110.417315 
L 176.259152 118.525818 
L 180.449291 134.702546 
L 184.639429 133.412651 
L 188.829567 130.598096 
L 193.019706 131.840079 
L 197.209844 134.796324 
L 230.73095 134.797689 
L 234.921089 132.290003 
L 239.111227 134.798817 
L 419.287174 134.798547 
L 423.477312 133.417821 
L 427.667451 134.781462 
L 431.857589 134.384452 
L 436.047727 128.410489 
L 440.237866 130.588432 
L 444.428004 134.730824 
L 448.618142 134.769382 
L 452.808281 130.497244 
L 456.998419 130.196033 
L 461.188557 134.757504 
L 465.378696 134.787144 
L 469.568834 132.732041 
L 473.758972 127.775245 
L 477.94911 134.798305 
L 507.280079 134.765099 
L 511.470217 134.639797 
L 515.660355 130.391146 
L 519.850493 130.729335 
L 524.040632 134.798345 
L 528.23077 134.798562 
L 532.420908 134.510195 
L 536.611047 134.783254 
L 540.801185 134.694942 
L 544.991323 130.339967 
L 549.181462 130.341009 
L 553.3716 134.794383 
L 582.702568 134.774536 
L 586.892706 134.712183 
L 591.082845 131.585759 
L 595.272983 129.258443 
L 599.463121 134.7984 
L 603.65326 134.166566 
L 607.843398 134.798499 
L 649.744781 134.789501 
L 653.934919 134.147497 
L 658.125058 127.153624 
L 662.315196 134.064425 
L 666.505334 134.78934 
L 670.695472 132.813409 
L 674.885611 128.331281 
L 679.075749 134.774991 
L 683.265887 134.788325 
L 687.456026 134.040584 
L 691.646164 126.955203 
L 695.836302 134.451341 
L 700.026441 134.798866 
L 716.786994 134.797195 
L 720.977132 133.057079 
L 725.16727 134.778374 
L 729.357409 134.7492 
L 733.547547 132.56944 
L 737.737685 128.419144 
L 741.927824 134.773202 
L 746.117962 134.786568 
L 750.3081 134.665105 
L 754.498239 128.588647 
L 758.688377 131.872235 
L 758.688377 131.872235 
" clip-path="url(#p4c2b108479)" style="fill: none; stroke: #21918c; stroke-width: 1.5; stroke-linecap: square"/>
   </g>
   <g id="line2d_5">
    <path d="M 167.878876 114.963517 
L 172.069014 107.402299 
L 176.259152 111.256099 
L 180.449291 129.056414 
L 184.639429 134.713466 
L 188.829567 131.271091 
L 193.019706 129.763518 
L 197.209844 134.731411 
L 205.590121 134.798282 
L 226.540812 134.798769 
L 230.73095 134.798818 
L 234.921089 133.481213 
L 239.111227 134.798481 
L 268.442195 134.798427 
L 272.632333 133.539488 
L 276.822472 134.798809 
L 603.65326 134.798777 
L 607.843398 134.216295 
L 612.033536 134.798339 
L 683.265887 134.798177 
L 687.456026 133.210958 
L 691.646164 122.722028 
L 695.836302 122.572648 
L 700.026441 123.049364 
L 704.216579 134.639936 
L 708.406717 134.093605 
L 712.596856 131.519697 
L 716.786994 130.161714 
L 720.977132 134.633832 
L 725.16727 134.783714 
L 729.357409 133.142358 
L 733.547547 130.183629 
L 737.737685 133.950915 
L 741.927824 134.784644 
L 746.117962 133.834799 
L 750.3081 130.739352 
L 754.498239 133.652486 
L 758.688377 134.79849 
L 788.019345 134.798882 
L 792.209483 133.388849 
L 796.399622 134.774336 
L 804.779898 129.981924 
L 808.970037 134.798075 
L 813.160175 134.424433 
L 817.350313 134.782345 
L 821.540451 131.416698 
L 825.73059 131.964223 
L 829.920728 134.798075 
L 859.251696 134.774688 
L 863.441835 133.499517 
L 867.631973 134.688452 
L 871.822111 130.028859 
L 876.012249 130.051697 
L 880.202388 134.798434 
L 980.765707 134.79885 
L 984.955845 134.620025 
L 989.145984 134.778994 
L 993.336122 134.511006 
L 997.52626 130.287581 
L 1001.716399 130.162593 
L 1005.906537 134.669788 
L 1010.096675 134.785913 
L 1014.286813 130.592033 
L 1018.476952 130.06614 
L 1022.66709 134.77917 
L 1026.857228 134.78128 
L 1031.047367 132.319596 
L 1035.237505 129.078612 
L 1039.427643 134.798849 
L 1047.80792 134.798809 
L 1051.998058 134.427602 
L 1056.188197 134.798826 
L 1064.568473 134.798857 
L 1068.758611 133.940337 
L 1072.94875 134.779873 
L 1077.138888 134.698982 
L 1081.329026 130.491142 
L 1085.519165 130.806007 
L 1089.709303 134.780132 
L 1093.899441 134.665928 
L 1098.08958 128.925317 
L 1102.279718 131.408674 
L 1102.279718 131.408674 
" clip-path="url(#p4c2b108479)" style="fill: none; stroke: #fde725; stroke-width: 1.5; stroke-linecap: square"/>
   </g>
  </g>
  <g id="axes_2">
   <g id="patch_3">
    <path d="M 121.158834 278.79976 
L 1148.99976 278.79976 
L 1148.99976 150.80024 
L 121.158834 150.80024 
z
" style="fill: #ffffff"/>
   </g>
   <g id="matplotlib.axis_3"/>
   <g id="matplotlib.axis_4">
    <g id="ytick_3">
     <g id="line2d_6">
      <g>
       <use xlink:href="#mf994fac39c" x="121.158834" y="278.79976" style="stroke: #000000; stroke-width: 0.8"/>
      </g>
     </g>
     <g id="text_4">
      <!-- 0 -->
      <g transform="translate(108.568209 282.59976) scale(0.1 -0.1)">
       <use xlink:href="#NotoSerif-Regular-30"/>
      </g>
     </g>
    </g>
    <g id="ytick_4">
     <g id="line2d_7">
      <g>
       <use xlink:href="#mf994fac39c" x="121.158834" y="150.80024" style="stroke: #000000; stroke-width: 0.8"/>
      </g>
     </g>
     <g id="text_5">
      <!-- 1 -->
      <g transform="translate(108.568209 154.60024) scale(0.1 -0.1)">
       <use xlink:href="#NotoSerif-Regular-31"/>
      </g>
     </g>
    </g>
    <g id="text_6">
     <!-- Memory (GB) -->
     <g transform="translate(16.813521 212.4) scale(0.1 -0.1)">
      <defs>
       <path id="NotoSerif-Regular-4d" d="M 243 0 
L 243 269 
L 326 269 
Q 538 269 694 342 
Q 851 416 851 698 
L 851 3866 
Q 851 4147 694 4224 
Q 538 4301 326 4301 
L 243 4301 
L 243 4570 
L 1702 4570 
L 3027 909 
L 4339 4570 
L 5760 4570 
L 5760 4301 
L 5677 4301 
Q 5459 4301 5305 4221 
Q 5152 4141 5152 3840 
L 5152 730 
Q 5152 429 5305 349 
Q 5459 269 5677 269 
L 5760 269 
L 5760 0 
L 4058 0 
L 4058 269 
L 4077 269 
Q 4282 269 4403 339 
Q 4525 410 4538 672 
L 4538 4090 
L 3072 0 
L 2726 0 
L 1242 4077 
L 1242 730 
Q 1242 429 1363 349 
Q 1485 269 1702 269 
L 1722 269 
L 1722 0 
L 243 0 
z
" transform="scale(0.015625)"/>
       <path id="NotoSerif-Regular-65" d="M 1837 -64 
Q 1139 -64 745 397 
Q 352 858 352 1690 
Q 352 2586 723 3040 
Q 1094 3494 1773 3494 
Q 2394 3494 2749 3110 
Q 3104 2726 3104 1965 
L 3104 1670 
L 973 1670 
Q 986 973 1226 656 
Q 1466 339 1926 339 
Q 2259 339 2492 476 
Q 2726 614 2842 787 
Q 2886 768 2924 710 
Q 2963 653 2963 570 
Q 2963 442 2841 294 
Q 2720 147 2470 41 
Q 2221 -64 1837 -64 
z
M 2458 2016 
Q 2458 2528 2301 2838 
Q 2144 3149 1760 3149 
Q 1408 3149 1213 2857 
Q 1018 2566 986 2016 
L 2458 2016 
z
" transform="scale(0.015625)"/>
       <path id="NotoSerif-Regular-6d" d="M 179 0 
L 179 269 
L 262 269 
Q 480 269 617 349 
Q 755 429 755 730 
L 755 2726 
Q 755 3008 614 3085 
Q 474 3162 262 3162 
L 243 3162 
L 243 3430 
L 1248 3430 
L 1331 2912 
L 1363 2912 
Q 1555 3270 1795 3382 
Q 2035 3494 2330 3494 
Q 2637 3494 2886 3363 
Q 3136 3232 3258 2912 
L 3309 2912 
Q 3501 3270 3760 3382 
Q 4019 3494 4314 3494 
Q 4806 3494 5081 3196 
Q 5357 2899 5357 2240 
L 5357 730 
Q 5357 429 5494 349 
Q 5632 269 5850 269 
L 5869 269 
L 5869 0 
L 4755 0 
L 4755 2208 
Q 4755 2624 4604 2854 
Q 4454 3085 4083 3085 
Q 3821 3085 3664 2953 
Q 3507 2822 3440 2604 
Q 3373 2387 3373 2131 
L 3373 730 
Q 3373 429 3510 349 
Q 3648 269 3866 269 
L 3885 269 
L 3885 0 
L 2771 0 
L 2771 2208 
Q 2771 2624 2620 2854 
Q 2470 3085 2099 3085 
Q 1824 3085 1661 2941 
Q 1498 2797 1427 2560 
Q 1357 2323 1357 2048 
L 1357 698 
Q 1357 416 1513 342 
Q 1670 269 1882 269 
L 1901 269 
L 1901 0 
L 179 0 
z
" transform="scale(0.015625)"/>
       <path id="NotoSerif-Regular-6f" d="M 1837 -64 
Q 1146 -64 749 377 
Q 352 819 352 1722 
Q 352 2618 733 3056 
Q 1114 3494 1856 3494 
Q 2547 3494 2944 3056 
Q 3341 2618 3341 1722 
Q 3341 819 2960 377 
Q 2579 -64 1837 -64 
z
M 1850 269 
Q 2330 269 2525 637 
Q 2720 1005 2720 1722 
Q 2720 2438 2521 2796 
Q 2323 3155 1843 3155 
Q 1363 3155 1168 2796 
Q 973 2438 973 1722 
Q 973 1005 1171 637 
Q 1370 269 1850 269 
z
" transform="scale(0.015625)"/>
       <path id="NotoSerif-Regular-72" d="M 211 0 
L 211 269 
L 230 269 
Q 448 269 601 349 
Q 755 429 755 730 
L 755 2726 
Q 755 3008 598 3085 
Q 442 3162 230 3162 
L 211 3162 
L 211 3430 
L 1197 3430 
L 1318 2797 
L 1350 2797 
Q 1434 2989 1530 3149 
Q 1626 3309 1786 3401 
Q 1946 3494 2227 3494 
Q 2579 3494 2748 3372 
Q 2918 3251 2918 3027 
Q 2918 2829 2780 2701 
Q 2643 2573 2323 2573 
Q 2323 2835 2246 2953 
Q 2170 3072 1984 3072 
Q 1805 3072 1683 2931 
Q 1562 2790 1491 2572 
Q 1421 2355 1389 2121 
Q 1357 1888 1357 1702 
L 1357 698 
Q 1357 416 1513 342 
Q 1670 269 1882 269 
L 2061 269 
L 2061 0 
L 211 0 
z
" transform="scale(0.015625)"/>
       <path id="NotoSerif-Regular-79" d="M 243 -1235 
Q 678 -1235 956 -1068 
Q 1235 -902 1408 -617 
Q 1581 -333 1683 26 
L 499 2822 
Q 416 3021 323 3091 
Q 230 3162 45 3162 
L 26 3162 
L 26 3430 
L 1562 3430 
L 1562 3162 
L 1542 3162 
Q 1158 3162 1158 2854 
Q 1158 2746 1210 2618 
L 1677 1478 
Q 1741 1331 1801 1155 
Q 1862 979 1913 819 
Q 1965 659 1984 550 
Q 2029 736 2102 934 
Q 2176 1133 2240 1325 
L 2669 2573 
Q 2726 2726 2726 2848 
Q 2726 3162 2304 3162 
L 2285 3162 
L 2285 3430 
L 3616 3430 
L 3616 3162 
L 3597 3162 
Q 3411 3162 3315 3066 
Q 3219 2970 3110 2662 
L 2138 -26 
Q 1971 -493 1817 -787 
Q 1664 -1082 1475 -1245 
Q 1286 -1408 1004 -1472 
Q 723 -1536 301 -1536 
L 243 -1536 
L 243 -1235 
z
" transform="scale(0.015625)"/>
       <path id="NotoSerif-Regular-47" d="M 2566 -64 
Q 1824 -64 1334 230 
Q 845 525 605 1053 
Q 365 1581 365 2291 
Q 365 2982 617 3510 
Q 870 4038 1369 4336 
Q 1869 4634 2605 4634 
Q 3315 4634 3667 4429 
Q 4019 4224 4019 3917 
Q 4019 3712 3846 3590 
Q 3674 3469 3424 3469 
Q 3424 3667 3344 3856 
Q 3264 4045 3078 4169 
Q 2893 4294 2579 4294 
Q 1766 4294 1420 3772 
Q 1075 3251 1075 2291 
Q 1075 1331 1436 816 
Q 1798 301 2669 301 
Q 2854 301 3027 320 
Q 3200 339 3334 378 
L 3334 1408 
Q 3334 1690 3177 1766 
Q 3021 1843 2810 1843 
L 2784 1843 
L 2784 2112 
L 4448 2112 
L 4448 1843 
L 4422 1843 
Q 4243 1843 4112 1763 
Q 3981 1683 3981 1382 
L 3981 230 
Q 3661 83 3321 9 
Q 2982 -64 2566 -64 
z
" transform="scale(0.015625)"/>
       <path id="NotoSerif-Regular-42" d="M 243 0 
L 243 269 
L 326 269 
Q 544 269 697 349 
Q 851 429 851 730 
L 851 3866 
Q 851 4147 694 4224 
Q 538 4301 326 4301 
L 243 4301 
L 243 4570 
L 1958 4570 
Q 2790 4570 3196 4291 
Q 3603 4013 3603 3424 
Q 3603 2995 3376 2761 
Q 3149 2528 2810 2419 
L 2810 2394 
Q 3245 2317 3520 2032 
Q 3795 1747 3795 1235 
Q 3795 0 2150 0 
L 243 0 
z
M 1939 2554 
Q 2502 2554 2710 2758 
Q 2918 2963 2918 3424 
Q 2918 3898 2694 4074 
Q 2470 4250 1926 4250 
L 1498 4250 
L 1498 2554 
L 1939 2554 
z
M 2118 320 
Q 2662 320 2886 531 
Q 3110 742 3110 1254 
Q 3110 1754 2902 1994 
Q 2694 2234 2131 2234 
L 1498 2234 
L 1498 320 
L 2118 320 
z
" transform="scale(0.015625)"/>
      </defs>
      <use xlink:href="#NotoSerif-Regular-4d"/>
      <use xlink:href="#NotoSerif-Regular-65" transform="translate(93.799988 0)"/>
      <use xlink:href="#NotoSerif-Regular-6d" transform="translate(147.299973 0)"/>
      <use xlink:href="#NotoSerif-Regular-6f" transform="translate(241.799957 0)"/>
      <use xlink:href="#NotoSerif-Regular-72" transform="translate(299.499954 0)"/>
      <use xlink:href="#NotoSerif-Regular-79" transform="translate(346.599945 0)"/>
      <use xlink:href="#NotoSerif-Regular-20" transform="translate(403.09993 0)"/>
      <use xlink:href="#NotoSerif-Regular-28" transform="translate(429.099915 0)"/>
      <use xlink:href="#NotoSerif-Regular-47" transform="translate(463.699905 0)"/>
      <use xlink:href="#NotoSerif-Regular-42" transform="translate(535.099899 0)"/>
      <use xlink:href="#NotoSerif-Regular-29" transform="translate(600.499893 0)"/>
     </g>
    </g>
   </g>
   <g id="line2d_8">
    <path d="M 167.878876 218.600279 
L 172.069014 202.315672 
L 176.259152 194.983668 
L 180.449291 195.066187 
L 184.639429 194.074492 
L 188.829567 195.495873 
L 193.019706 193.053011 
L 213.970397 193.152132 
L 222.350674 193.26346 
L 230.73095 193.26346 
L 234.921089 214.863965 
L 243.301365 214.942578 
L 461.188557 214.953808 
L 465.378696 214.776074 
L 486.329387 214.892773 
L 599.463121 214.917675 
L 603.65326 239.113385 
L 607.843398 247.865794 
L 649.744781 247.864817 
L 653.934919 246.774978 
L 658.125058 246.752517 
L 662.315196 246.473709 
L 666.505334 240.649024 
L 670.695472 233.664675 
L 679.075749 233.641726 
L 683.265887 229.74135 
L 687.456026 228.045556 
L 695.836302 228.130516 
L 700.026441 227.790186 
L 712.596856 228.019189 
L 725.16727 228.046044 
L 746.117962 227.970849 
L 750.3081 228.977681 
L 754.498239 226.397124 
L 758.688377 226.419585 
L 762.878515 226.023102 
L 767.068653 226.288726 
L 771.258792 226.189606 
L 775.44893 228.57778 
L 779.639068 227.903955 
L 808.970037 227.971337 
L 813.160175 227.908349 
L 817.350313 228.873189 
L 821.540451 227.882959 
L 834.110866 227.920556 
L 938.864324 227.922509 
L 943.054462 229.099263 
L 947.244601 227.919091 
L 955.624877 227.933252 
L 959.815016 229.044087 
L 964.005154 226.296539 
L 976.575569 226.214996 
L 980.765707 226.483062 
L 984.955845 227.895166 
L 993.336122 227.951806 
L 1001.716399 227.971337 
L 1005.906537 227.55044 
L 1014.286813 227.46841 
L 1018.476952 228.920553 
L 1022.66709 226.462066 
L 1026.857228 226.427398 
L 1031.047367 226.520171 
L 1035.237505 228.570944 
L 1039.427643 227.801416 
L 1043.617782 227.80044 
L 1043.617782 227.80044 
" clip-path="url(#p19d0aa0bf8)" style="fill: none; stroke: #440154; stroke-width: 1.5; stroke-linecap: square"/>
   </g>
   <g id="line2d_9">
    <path d="M 167.878876 218.169616 
L 172.069014 200.905521 
L 176.259152 194.378202 
L 180.449291 194.335721 
L 184.639429 193.159944 
L 188.829567 194.832301 
L 193.019706 192.311803 
L 230.73095 192.443639 
L 234.921089 214.48213 
L 255.87178 214.540235 
L 419.287174 214.558302 
L 423.477312 213.537798 
L 427.667451 213.522661 
L 431.857589 213.178912 
L 436.047727 206.969463 
L 440.237866 198.368421 
L 448.618142 198.42262 
L 452.808281 198.007583 
L 456.998419 195.725853 
L 465.378696 195.728294 
L 469.568834 196.362569 
L 473.758972 193.830352 
L 486.329387 193.855254 
L 490.519525 193.971465 
L 507.280079 193.878203 
L 511.470217 193.853789 
L 515.660355 196.097433 
L 519.850493 195.421166 
L 532.420908 195.439233 
L 540.801185 195.321069 
L 544.991323 196.341573 
L 549.181462 193.847442 
L 586.892706 193.766876 
L 591.082845 196.321554 
L 595.272983 195.443627 
L 599.463121 195.466576 
L 603.65326 229.199848 
L 632.984228 229.247211 
L 649.744781 229.225727 
L 653.934919 229.015767 
L 658.125058 228.467917 
L 662.315196 227.524562 
L 666.505334 227.608546 
L 670.695472 229.634905 
L 674.885611 228.379539 
L 683.265887 228.437156 
L 687.456026 227.814111 
L 695.836302 226.768705 
L 712.596856 226.915189 
L 716.786994 226.881498 
L 720.977132 228.167137 
L 729.357409 228.175438 
L 733.547547 229.334613 
L 737.737685 227.495265 
L 746.117962 227.555323 
L 750.3081 227.336086 
L 754.498239 228.187157 
L 758.688377 228.222801 
L 758.688377 228.222801 
" clip-path="url(#p19d0aa0bf8)" style="fill: none; stroke: #21918c; stroke-width: 1.5; stroke-linecap: square"/>
   </g>
   <g id="line2d_10">
    <path d="M 167.878876 237.821398 
L 172.069014 212.321494 
L 176.259152 198.642346 
L 180.449291 195.261987 
L 184.639429 195.221948 
L 188.829567 196.115988 
L 193.019706 193.201448 
L 201.399982 193.306428 
L 230.73095 193.330842 
L 234.921089 214.899121 
L 243.301365 214.987499 
L 268.442195 214.996288 
L 272.632333 215.515818 
L 297.773163 215.570505 
L 603.65326 215.529978 
L 607.843398 248.651924 
L 628.794089 248.685615 
L 683.265887 248.678291 
L 687.456026 265.669438 
L 691.646164 242.300385 
L 695.836302 234.881956 
L 700.026441 227.992333 
L 704.216579 228.040673 
L 708.406717 227.292629 
L 712.596856 228.43325 
L 716.786994 226.649077 
L 725.16727 226.709623 
L 729.357409 229.024068 
L 733.547547 226.722319 
L 737.737685 225.818025 
L 741.927824 225.814607 
L 746.117962 228.844381 
L 750.3081 227.108059 
L 754.498239 226.235504 
L 771.258792 226.360015 
L 788.019345 226.368316 
L 792.209483 247.037672 
L 796.399622 247.084547 
L 800.58976 244.386315 
L 804.779898 229.561663 
L 808.970037 229.602191 
L 817.350313 229.51723 
L 821.540451 231.631968 
L 825.73059 229.150532 
L 859.251696 229.214497 
L 863.441835 247.216382 
L 867.631973 247.054274 
L 871.822111 242.734466 
L 876.012249 232.219857 
L 901.153079 232.276497 
L 989.145984 232.223763 
L 993.336122 232.049935 
L 997.52626 231.277966 
L 1001.716399 230.305801 
L 1010.096675 230.355117 
L 1014.286813 229.934221 
L 1018.476952 227.616358 
L 1022.66709 227.697901 
L 1026.857228 227.667139 
L 1031.047367 229.310199 
L 1035.237505 228.082177 
L 1047.80792 228.191063 
L 1051.998058 230.565078 
L 1064.568473 230.6183 
L 1068.758611 230.181778 
L 1072.94875 230.203263 
L 1077.138888 230.070451 
L 1081.329026 231.52064 
L 1085.519165 229.529437 
L 1089.709303 229.676897 
L 1093.899441 229.513324 
L 1098.08958 231.187146 
L 1102.279718 230.416641 
L 1102.279718 230.416641 
" clip-path="url(#p19d0aa0bf8)" style="fill: none; stroke: #fde725; stroke-width: 1.5; stroke-linecap: square"/>
   </g>
  </g>
  <g id="axes_3">
   <g id="patch_4">
    <path d="M 121.158834 422.79976 
L 1148.99976 422.79976 
L 1148.99976 294.80024 
L 121.158834 294.80024 
z
" style="fill: #ffffff"/>
   </g>
   <g id="matplotlib.axis_5"/>
   <g id="matplotlib.axis_6">
    <g id="ytick_5">
     <g id="line2d_11">
      <g>
       <use xlink:href="#mf994fac39c" x="121.158834" y="422.79976" style="stroke: #000000; stroke-width: 0.8"/>
      </g>
     </g>
     <g id="text_7">
      <!-- 0 -->
      <g transform="translate(108.568209 426.59976) scale(0.1 -0.1)">
       <use xlink:href="#NotoSerif-Regular-30"/>
      </g>
     </g>
    </g>
    <g id="ytick_6">
     <g id="line2d_12">
      <g>
       <use xlink:href="#mf994fac39c" x="121.158834" y="294.80024" style="stroke: #000000; stroke-width: 0.8"/>
      </g>
     </g>
     <g id="text_8">
      <!-- 18677 -->
      <g transform="translate(86.205709 298.60024) scale(0.1 -0.1)">
       <defs>
        <path id="NotoSerif-Regular-38" d="M 1747 -64 
Q 1267 -64 944 99 
Q 621 262 457 537 
Q 294 813 294 1146 
Q 294 1453 422 1664 
Q 550 1875 771 2028 
Q 992 2182 1267 2317 
Q 902 2522 672 2803 
Q 442 3085 442 3488 
Q 442 3782 582 4044 
Q 723 4307 1027 4470 
Q 1331 4634 1824 4634 
Q 2426 4634 2755 4323 
Q 3085 4013 3085 3533 
Q 3085 3110 2848 2876 
Q 2611 2643 2221 2451 
Q 2694 2227 2988 1932 
Q 3283 1638 3283 1222 
Q 3283 614 2867 275 
Q 2451 -64 1747 -64 
z
M 1907 2598 
Q 2266 2778 2390 2995 
Q 2515 3213 2515 3546 
Q 2515 3744 2444 3923 
Q 2374 4102 2214 4217 
Q 2054 4333 1786 4333 
Q 1427 4333 1235 4115 
Q 1043 3898 1043 3565 
Q 1043 3219 1260 3008 
Q 1478 2797 1907 2598 
z
M 1779 230 
Q 2195 230 2448 470 
Q 2701 710 2701 1082 
Q 2701 1408 2448 1651 
Q 2195 1894 1574 2163 
Q 1274 2003 1094 1740 
Q 915 1478 915 1120 
Q 915 723 1132 476 
Q 1350 230 1779 230 
z
" transform="scale(0.015625)"/>
        <path id="NotoSerif-Regular-36" d="M 1875 -64 
Q 1453 -64 1117 176 
Q 781 416 585 937 
Q 390 1459 390 2304 
Q 390 2758 492 3177 
Q 595 3597 800 3926 
Q 1005 4256 1321 4445 
Q 1638 4634 2061 4634 
Q 2592 4634 2854 4429 
Q 3117 4224 3117 3962 
Q 3117 3578 2624 3578 
Q 2624 3891 2496 4108 
Q 2368 4326 2061 4326 
Q 1581 4326 1331 3849 
Q 1082 3373 1050 2445 
Q 1210 2573 1430 2675 
Q 1651 2778 1965 2778 
Q 2554 2778 2902 2429 
Q 3251 2080 3251 1466 
Q 3251 1018 3088 672 
Q 2925 326 2617 131 
Q 2310 -64 1875 -64 
z
M 1894 288 
Q 2234 288 2416 553 
Q 2598 819 2598 1402 
Q 2598 1952 2403 2201 
Q 2208 2451 1837 2451 
Q 1587 2451 1379 2332 
Q 1171 2214 1043 2080 
Q 1056 1120 1283 704 
Q 1510 288 1894 288 
z
" transform="scale(0.015625)"/>
        <path id="NotoSerif-Regular-37" d="M 1126 0 
L 2637 4058 
L 1043 4058 
Q 704 4058 672 3731 
L 646 3411 
L 378 3411 
L 410 4570 
L 3270 4570 
L 3270 4384 
L 1696 0 
L 1126 0 
z
" transform="scale(0.015625)"/>
       </defs>
       <use xlink:href="#NotoSerif-Regular-31"/>
       <use xlink:href="#NotoSerif-Regular-38" transform="translate(55.899994 0)"/>
       <use xlink:href="#NotoSerif-Regular-36" transform="translate(111.799988 0)"/>
       <use xlink:href="#NotoSerif-Regular-37" transform="translate(167.699982 0)"/>
       <use xlink:href="#NotoSerif-Regular-37" transform="translate(223.599976 0)"/>
      </g>
     </g>
    </g>
    <g id="text_9">
     <!-- Inbound (MB) -->
     <g transform="translate(3.00024 356.4) scale(0.1 -0.1)">
      <defs>
       <path id="NotoSerif-Regular-49" d="M 243 0 
L 243 269 
L 326 269 
Q 544 269 697 349 
Q 851 429 851 730 
L 851 3840 
Q 851 4141 697 4221 
Q 544 4301 326 4301 
L 243 4301 
L 243 4570 
L 2106 4570 
L 2106 4301 
L 2022 4301 
Q 1805 4301 1651 4221 
Q 1498 4141 1498 3840 
L 1498 730 
Q 1498 429 1651 349 
Q 1805 269 2022 269 
L 2106 269 
L 2106 0 
L 243 0 
z
" transform="scale(0.015625)"/>
       <path id="NotoSerif-Regular-6e" d="M 179 0 
L 179 269 
L 230 269 
Q 448 269 601 349 
Q 755 429 755 730 
L 755 2726 
Q 755 3008 604 3085 
Q 454 3162 243 3162 
L 211 3162 
L 211 3430 
L 1248 3430 
L 1331 2912 
L 1363 2912 
Q 1562 3270 1808 3382 
Q 2054 3494 2362 3494 
Q 2867 3494 3152 3196 
Q 3437 2899 3437 2240 
L 3437 730 
Q 3437 429 3568 349 
Q 3699 269 3917 269 
L 3949 269 
L 3949 0 
L 2835 0 
L 2835 2208 
Q 2835 2624 2678 2854 
Q 2522 3085 2131 3085 
Q 1843 3085 1673 2941 
Q 1504 2797 1430 2560 
Q 1357 2323 1357 2048 
L 1357 698 
Q 1357 416 1507 342 
Q 1658 269 1869 269 
L 1901 269 
L 1901 0 
L 179 0 
z
" transform="scale(0.015625)"/>
       <path id="NotoSerif-Regular-62" d="M 2272 -64 
Q 1901 -64 1667 93 
Q 1434 250 1293 499 
L 1254 499 
L 1139 0 
L 115 0 
L 115 269 
L 166 269 
Q 384 269 537 349 
Q 691 429 691 730 
L 691 4160 
Q 691 4442 534 4518 
Q 378 4595 166 4595 
L 115 4595 
L 115 4864 
L 1293 4864 
L 1293 3686 
Q 1293 3578 1289 3408 
Q 1286 3238 1280 3081 
Q 1274 2925 1267 2854 
L 1293 2854 
Q 1440 3149 1670 3321 
Q 1901 3494 2272 3494 
Q 2906 3494 3242 3068 
Q 3578 2643 3578 1722 
Q 3578 794 3242 365 
Q 2906 -64 2272 -64 
z
M 2170 346 
Q 2592 346 2774 701 
Q 2957 1056 2957 1728 
Q 2957 2413 2774 2749 
Q 2592 3085 2163 3085 
Q 1664 3085 1478 2749 
Q 1293 2413 1293 1722 
Q 1293 1056 1478 701 
Q 1664 346 2170 346 
z
" transform="scale(0.015625)"/>
       <path id="NotoSerif-Regular-75" d="M 1747 -64 
Q 1242 -64 966 233 
Q 691 531 691 1190 
L 691 2726 
Q 691 3008 534 3085 
Q 378 3162 166 3162 
L 147 3162 
L 147 3430 
L 1293 3430 
L 1293 1222 
Q 1293 806 1433 576 
Q 1574 346 1965 346 
Q 2387 346 2579 630 
Q 2771 915 2771 1382 
L 2771 2701 
Q 2771 3002 2617 3082 
Q 2464 3162 2246 3162 
L 2227 3162 
L 2227 3430 
L 3373 3430 
L 3373 698 
Q 3373 416 3529 342 
Q 3686 269 3898 269 
L 3917 269 
L 3917 0 
L 2899 0 
L 2816 518 
L 2784 518 
Q 2586 160 2323 48 
Q 2061 -64 1747 -64 
z
" transform="scale(0.015625)"/>
       <path id="NotoSerif-Regular-64" d="M 1658 -64 
Q 1024 -64 688 361 
Q 352 787 352 1709 
Q 352 2637 688 3065 
Q 1024 3494 1658 3494 
Q 2029 3494 2262 3337 
Q 2496 3181 2637 2931 
L 2675 2931 
Q 2656 3091 2646 3286 
Q 2637 3482 2637 3635 
L 2637 4160 
Q 2637 4442 2480 4518 
Q 2323 4595 2112 4595 
L 2061 4595 
L 2061 4864 
L 3238 4864 
L 3238 704 
Q 3238 422 3395 345 
Q 3552 269 3763 269 
L 3814 269 
L 3814 0 
L 2733 0 
L 2662 576 
L 2637 576 
Q 2496 282 2265 109 
Q 2035 -64 1658 -64 
z
M 1766 346 
Q 2266 346 2451 682 
Q 2637 1018 2637 1709 
Q 2637 2374 2451 2729 
Q 2266 3085 1760 3085 
Q 1338 3085 1155 2729 
Q 973 2374 973 1702 
Q 973 1024 1155 685 
Q 1338 346 1766 346 
z
" transform="scale(0.015625)"/>
      </defs>
      <use xlink:href="#NotoSerif-Regular-49"/>
      <use xlink:href="#NotoSerif-Regular-6e" transform="translate(36.699997 0)"/>
      <use xlink:href="#NotoSerif-Regular-62" transform="translate(101.199982 0)"/>
      <use xlink:href="#NotoSerif-Regular-6f" transform="translate(162.599976 0)"/>
      <use xlink:href="#NotoSerif-Regular-75" transform="translate(220.299973 0)"/>
      <use xlink:href="#NotoSerif-Regular-6e" transform="translate(283.799957 0)"/>
      <use xlink:href="#NotoSerif-Regular-64" transform="translate(348.299942 0)"/>
      <use xlink:href="#NotoSerif-Regular-20" transform="translate(409.699936 0)"/>
      <use xlink:href="#NotoSerif-Regular-28" transform="translate(435.699921 0)"/>
      <use xlink:href="#NotoSerif-Regular-4d" transform="translate(470.299911 0)"/>
      <use xlink:href="#NotoSerif-Regular-42" transform="translate(564.099899 0)"/>
      <use xlink:href="#NotoSerif-Regular-29" transform="translate(629.499893 0)"/>
     </g>
    </g>
   </g>
   <g id="line2d_13">
    <path d="M 167.878876 422.795236 
L 180.449291 422.796327 
L 184.639429 422.040915 
L 188.829567 331.286892 
L 193.019706 388.683301 
L 197.209844 422.79976 
L 649.744781 422.79976 
L 653.934919 422.448079 
L 658.125058 422.797264 
L 662.315196 420.4773 
L 666.505334 320.703982 
L 670.695472 400.901712 
L 674.885611 422.784286 
L 679.075749 422.797264 
L 683.265887 376.561365 
L 687.456026 342.804564 
L 691.646164 422.778758 
L 695.836302 422.797264 
L 700.026441 387.388632 
L 704.216579 331.978937 
L 708.406717 422.798877 
L 741.927824 422.797264 
L 746.117962 422.622792 
L 750.3081 343.614374 
L 754.498239 375.803035 
L 758.688377 422.79976 
L 762.878515 422.684605 
L 767.068653 422.797264 
L 771.258792 422.785779 
L 775.44893 365.891041 
L 779.639068 353.386785 
L 783.829207 422.79976 
L 813.160175 422.7877 
L 817.350313 374.266365 
L 821.540451 345.090275 
L 825.73059 422.79976 
L 938.864324 422.742002 
L 943.054462 365.749256 
L 947.244601 353.510653 
L 951.434739 422.760179 
L 955.624877 422.797264 
L 959.815016 377.804065 
L 964.005154 341.54542 
L 968.195292 422.744385 
L 972.38543 422.797264 
L 976.575569 403.576757 
L 980.765707 315.817013 
L 984.955845 422.798355 
L 1001.716399 422.798716 
L 1005.906537 422.132411 
L 1010.096675 422.797264 
L 1014.286813 422.786636 
L 1018.476952 355.159694 
L 1022.66709 364.159419 
L 1026.857228 422.781128 
L 1031.047367 422.797264 
L 1035.237505 329.395047 
L 1039.427643 389.980024 
L 1043.617782 422.759577 
L 1043.617782 422.759577 
" clip-path="url(#p21599e6716)" style="fill: none; stroke: #440154; stroke-width: 1.5; stroke-linecap: square"/>
   </g>
   <g id="line2d_14">
    <path d="M 167.878876 422.795236 
L 180.449291 422.796327 
L 184.639429 420.686929 
L 188.829567 317.30041 
L 193.019706 404.083247 
L 197.209844 422.79976 
L 419.287174 422.790029 
L 423.477312 422.45781 
L 427.667451 422.797264 
L 431.857589 419.933846 
L 436.047727 316.817492 
L 440.237866 405.326938 
L 444.428004 422.786716 
L 448.618142 422.796795 
L 452.808281 339.324167 
L 456.998419 380.046909 
L 461.188557 422.784112 
L 465.378696 422.797264 
L 469.568834 374.083132 
L 473.758972 345.289503 
L 477.94911 422.79976 
L 507.280079 422.797264 
L 511.470217 422.136232 
L 515.660355 332.182629 
L 519.850493 387.760726 
L 524.040632 422.79976 
L 528.23077 422.79976 
L 532.420908 422.683548 
L 536.611047 422.79622 
L 540.801185 421.458711 
L 544.991323 325.703147 
L 549.181462 394.91 
L 553.3716 422.79976 
L 582.702568 422.797264 
L 586.892706 422.630415 
L 591.082845 341.456648 
L 595.272983 378.024884 
L 599.463121 422.79976 
L 649.744781 422.797264 
L 653.934919 403.599338 
L 658.125058 315.689678 
L 662.315196 422.756846 
L 666.505334 422.797264 
L 670.695472 375.354979 
L 674.885611 343.996239 
L 679.075749 422.781844 
L 683.265887 422.797264 
L 687.456026 390.938359 
L 691.646164 328.450539 
L 695.836302 422.798877 
L 716.786994 422.79976 
L 720.977132 422.133294 
L 725.16727 422.796795 
L 729.357409 422.787131 
L 733.547547 362.797656 
L 737.737685 356.51439 
L 741.927824 422.785136 
L 746.117962 422.797264 
L 750.3081 418.48825 
L 754.498239 300.892403 
L 758.688377 422.757141 
L 758.688377 422.757141 
" clip-path="url(#p21599e6716)" style="fill: none; stroke: #21918c; stroke-width: 1.5; stroke-linecap: square"/>
   </g>
   <g id="line2d_15">
    <path d="M 167.878876 422.795236 
L 184.639429 422.796327 
L 188.829567 384.110655 
L 193.019706 335.140307 
L 197.209844 422.758359 
L 209.780259 422.79976 
L 653.934919 422.79976 
L 708.406717 422.785812 
L 712.596856 371.363627 
L 716.786994 347.935461 
L 720.977132 422.744211 
L 725.16727 422.797264 
L 729.357409 400.924621 
L 733.547547 318.39492 
L 737.737685 422.782587 
L 741.927824 422.787117 
L 746.117962 406.221337 
L 750.3081 313.118123 
L 754.498239 422.798877 
L 796.399622 422.797264 
L 800.58976 384.267933 
L 804.779898 334.971343 
L 808.970037 422.798355 
L 813.160175 422.688186 
L 817.350313 422.797264 
L 821.540451 324.821511 
L 825.73059 394.593516 
L 829.920728 422.79976 
L 863.441835 422.797264 
L 867.631973 422.532654 
L 871.822111 334.865237 
L 876.012249 384.728277 
L 880.202388 422.79976 
L 989.145984 422.797264 
L 993.336122 417.935031 
L 997.52626 325.84463 
L 1001.716399 398.249121 
L 1005.906537 422.760962 
L 1010.096675 422.797264 
L 1014.286813 331.360324 
L 1018.476952 387.935024 
L 1022.66709 422.783564 
L 1026.857228 422.797264 
L 1031.047367 354.986172 
L 1035.237505 364.304745 
L 1039.427643 422.79976 
L 1064.568473 422.79976 
L 1068.758611 422.132853 
L 1072.94875 422.797264 
L 1077.138888 422.06015 
L 1081.329026 321.930084 
L 1085.519165 398.091187 
L 1089.709303 422.797264 
L 1093.899441 418.57318 
L 1098.08958 305.698737 
L 1102.279718 417.82584 
L 1102.279718 417.82584 
" clip-path="url(#p21599e6716)" style="fill: none; stroke: #fde725; stroke-width: 1.5; stroke-linecap: square"/>
   </g>
  </g>
  <g id="axes_4">
   <g id="patch_5">
    <path d="M 121.158834 566.79976 
L 1148.99976 566.79976 
L 1148.99976 438.80024 
L 121.158834 438.80024 
z
" style="fill: #ffffff"/>
   </g>
   <g id="matplotlib.axis_7"/>
   <g id="matplotlib.axis_8">
    <g id="ytick_7">
     <g id="line2d_16">
      <g>
       <use xlink:href="#mf994fac39c" x="121.158834" y="566.79976" style="stroke: #000000; stroke-width: 0.8"/>
      </g>
     </g>
     <g id="text_10">
      <!-- 0 -->
      <g transform="translate(108.568209 570.59976) scale(0.1 -0.1)">
       <use xlink:href="#NotoSerif-Regular-30"/>
      </g>
     </g>
    </g>
    <g id="ytick_8">
     <g id="line2d_17">
      <g>
       <use xlink:href="#mf994fac39c" x="121.158834" y="438.80024" style="stroke: #000000; stroke-width: 0.8"/>
      </g>
     </g>
     <g id="text_11">
      <!-- 691 -->
      <g transform="translate(97.386959 442.60024) scale(0.1 -0.1)">
       <defs>
        <path id="NotoSerif-Regular-39" d="M 1453 -70 
Q 1094 -70 889 13 
Q 685 96 605 221 
Q 525 346 525 480 
Q 525 602 585 682 
Q 646 762 717 787 
Q 806 589 982 435 
Q 1158 282 1459 282 
Q 1990 282 2243 755 
Q 2496 1229 2528 2195 
Q 2387 2029 2156 1894 
Q 1926 1760 1587 1760 
Q 1030 1760 678 2086 
Q 326 2413 326 3059 
Q 326 3520 489 3875 
Q 653 4230 960 4432 
Q 1267 4634 1696 4634 
Q 2131 4634 2467 4410 
Q 2803 4186 2995 3712 
Q 3187 3238 3187 2483 
Q 3187 1978 3091 1520 
Q 2995 1062 2787 704 
Q 2579 346 2249 138 
Q 1920 -70 1453 -70 
z
M 1728 2138 
Q 2042 2138 2246 2294 
Q 2451 2451 2534 2656 
Q 2522 3514 2294 3898 
Q 2067 4282 1696 4282 
Q 1363 4282 1174 3984 
Q 986 3686 986 3123 
Q 986 2598 1171 2368 
Q 1357 2138 1728 2138 
z
" transform="scale(0.015625)"/>
       </defs>
       <use xlink:href="#NotoSerif-Regular-36"/>
       <use xlink:href="#NotoSerif-Regular-39" transform="translate(55.899994 0)"/>
       <use xlink:href="#NotoSerif-Regular-31" transform="translate(111.799988 0)"/>
      </g>
     </g>
    </g>
    <g id="text_12">
     <!-- Outbound (MB) -->
     <g transform="translate(10.596334 500.4) scale(0.1 -0.1)">
      <defs>
       <path id="NotoSerif-Regular-4f" d="M 2374 -64 
Q 1696 -64 1248 230 
Q 800 525 579 1056 
Q 358 1587 358 2298 
Q 358 3008 579 3533 
Q 800 4058 1251 4349 
Q 1702 4640 2381 4640 
Q 3027 4640 3472 4349 
Q 3917 4058 4150 3530 
Q 4384 3002 4384 2291 
Q 4384 1581 4150 1053 
Q 3917 525 3469 230 
Q 3021 -64 2374 -64 
z
M 2374 282 
Q 3091 282 3382 813 
Q 3674 1344 3674 2291 
Q 3674 3245 3382 3769 
Q 3091 4294 2381 4294 
Q 1664 4294 1366 3769 
Q 1069 3245 1069 2291 
Q 1069 1344 1366 813 
Q 1664 282 2374 282 
z
" transform="scale(0.015625)"/>
       <path id="NotoSerif-Regular-74" d="M 1536 -64 
Q 1050 -64 829 157 
Q 608 378 608 928 
L 608 3066 
L 122 3066 
L 122 3322 
Q 237 3322 377 3370 
Q 518 3418 621 3526 
Q 730 3642 800 3808 
Q 870 3974 915 4218 
L 1210 4218 
L 1210 3430 
L 2048 3430 
L 2048 3066 
L 1210 3066 
L 1210 909 
Q 1210 582 1344 428 
Q 1478 275 1696 275 
Q 1811 275 1907 288 
Q 2003 301 2106 320 
L 2106 38 
Q 2022 0 1856 -32 
Q 1690 -64 1536 -64 
z
" transform="scale(0.015625)"/>
      </defs>
      <use xlink:href="#NotoSerif-Regular-4f"/>
      <use xlink:href="#NotoSerif-Regular-75" transform="translate(74.199982 0)"/>
      <use xlink:href="#NotoSerif-Regular-74" transform="translate(137.699966 0)"/>
      <use xlink:href="#NotoSerif-Regular-62" transform="translate(172.899963 0)"/>
      <use xlink:href="#NotoSerif-Regular-6f" transform="translate(234.299957 0)"/>
      <use xlink:href="#NotoSerif-Regular-75" transform="translate(291.999954 0)"/>
      <use xlink:href="#NotoSerif-Regular-6e" transform="translate(355.499939 0)"/>
      <use xlink:href="#NotoSerif-Regular-64" transform="translate(419.999924 0)"/>
      <use xlink:href="#NotoSerif-Regular-20" transform="translate(481.399918 0)"/>
      <use xlink:href="#NotoSerif-Regular-28" transform="translate(507.399902 0)"/>
      <use xlink:href="#NotoSerif-Regular-4d" transform="translate(541.999893 0)"/>
      <use xlink:href="#NotoSerif-Regular-42" transform="translate(635.799881 0)"/>
      <use xlink:href="#NotoSerif-Regular-29" transform="translate(701.199875 0)"/>
     </g>
    </g>
   </g>
   <g id="line2d_18">
    <path d="M 167.878876 566.75743 
L 176.259152 566.789992 
L 184.639429 566.026608 
L 188.829567 560.460059 
L 193.019706 564.558994 
L 197.209844 566.79976 
L 465.378696 566.757792 
L 469.568834 566.401245 
L 473.758972 566.79976 
L 649.744781 566.79976 
L 653.934919 444.926122 
L 658.125058 566.44466 
L 662.315196 564.863805 
L 666.505334 560.209336 
L 670.695472 565.18164 
L 674.885611 566.740607 
L 679.075749 566.456599 
L 683.265887 564.36236 
L 687.456026 562.955346 
L 691.646164 566.166079 
L 695.836302 566.456599 
L 700.026441 564.6489 
L 704.216579 562.324741 
L 708.406717 566.79976 
L 733.547547 566.79976 
L 737.737685 564.127556 
L 741.927824 566.456599 
L 746.117962 566.396722 
L 750.3081 560.651086 
L 754.498239 564.18689 
L 758.688377 566.79976 
L 762.878515 546.167421 
L 767.068653 566.456599 
L 771.258792 566.71293 
L 775.44893 561.568955 
L 779.639068 563.345721 
L 783.829207 566.79976 
L 800.58976 566.79976 
L 804.779898 566.461303 
L 808.970037 566.456599 
L 813.160175 566.757792 
L 817.350313 561.794352 
L 821.540451 563.0429 
L 825.73059 566.79976 
L 926.293909 566.79976 
L 930.484047 560.998588 
L 934.674186 566.456599 
L 938.864324 566.468357 
L 943.054462 561.391314 
L 947.244601 563.074557 
L 951.434739 562.441238 
L 955.624877 566.456599 
L 959.815016 564.365616 
L 964.005154 563.363087 
L 968.195292 566.313691 
L 972.38543 566.44466 
L 976.575569 565.460764 
L 980.765707 562.203178 
L 984.955845 566.445384 
L 989.145984 566.79976 
L 1001.716399 566.768284 
L 1005.906537 449.231098 
L 1010.096675 566.44466 
L 1014.286813 566.648892 
L 1018.476952 561.246597 
L 1022.66709 563.701364 
L 1026.857228 566.627908 
L 1031.047367 566.456599 
L 1035.237505 561.664106 
L 1039.427643 565.025165 
L 1043.617782 556.148208 
L 1043.617782 556.148208 
" clip-path="url(#pefcbb56eb8)" style="fill: none; stroke: #440154; stroke-width: 1.5; stroke-linecap: square"/>
   </g>
   <g id="line2d_19">
    <path d="M 167.878876 566.75743 
L 176.259152 566.789992 
L 180.449291 566.431274 
L 184.639429 565.358014 
L 188.829567 560.495876 
L 193.019706 565.33504 
L 197.209844 566.79976 
L 419.287174 566.79976 
L 423.477312 444.926122 
L 427.667451 566.44466 
L 431.857589 565.059535 
L 436.047727 560.770477 
L 440.237866 565.654504 
L 444.428004 566.742778 
L 448.618142 566.456599 
L 452.808281 562.655058 
L 456.998419 564.557004 
L 461.188557 566.180189 
L 465.378696 566.456599 
L 469.568834 564.338481 
L 473.758972 562.957517 
L 477.94911 566.79976 
L 498.899802 566.79976 
L 503.08994 564.127556 
L 507.280079 566.456599 
L 511.470217 566.098243 
L 515.660355 560.388424 
L 519.850493 564.700274 
L 524.040632 566.79976 
L 528.23077 566.79976 
L 532.420908 546.173571 
L 536.611047 566.425123 
L 540.801185 565.680372 
L 544.991323 560.615268 
L 549.181462 565.327624 
L 553.3716 566.79976 
L 574.322291 566.79976 
L 578.51243 566.461303 
L 586.892706 566.408662 
L 591.082845 560.674964 
L 595.272983 564.272635 
L 599.463121 566.79976 
L 641.364504 566.79976 
L 645.554643 560.974348 
L 649.744781 566.456599 
L 653.934919 562.206072 
L 658.125058 562.262874 
L 662.315196 561.712767 
L 666.505334 566.456599 
L 670.695472 564.060624 
L 674.885611 562.871048 
L 679.075749 566.712387 
L 683.265887 566.44466 
L 687.456026 564.923501 
L 691.646164 562.824015 
L 695.836302 566.445384 
L 700.026441 566.79976 
L 716.786994 566.79976 
L 720.977132 449.243037 
L 725.16727 566.44466 
L 729.357409 566.744406 
L 733.547547 561.34211 
L 737.737685 563.390945 
L 741.927824 566.642018 
L 746.117962 566.456599 
L 750.3081 566.129357 
L 754.498239 561.486828 
L 758.688377 555.758557 
L 758.688377 555.758557 
" clip-path="url(#pefcbb56eb8)" style="fill: none; stroke: #21918c; stroke-width: 1.5; stroke-linecap: square"/>
   </g>
   <g id="line2d_20">
    <path d="M 167.878876 566.75743 
L 180.449291 566.789992 
L 184.639429 566.431274 
L 188.829567 562.504552 
L 193.019706 562.502381 
L 197.209844 566.408843 
L 201.399982 566.79976 
L 465.378696 566.79976 
L 469.568834 566.366875 
L 473.758972 566.79976 
L 700.026441 566.789992 
L 704.216579 566.431274 
L 708.406717 566.744406 
L 712.596856 561.807738 
L 716.786994 563.165367 
L 720.977132 566.309349 
L 725.16727 566.456599 
L 729.357409 564.971257 
L 733.547547 562.119604 
L 737.737685 565.752188 
L 741.927824 566.427294 
L 746.117962 565.233919 
L 750.3081 561.809185 
L 754.498239 566.276607 
L 758.688377 566.79976 
L 788.019345 566.79976 
L 792.209483 564.127556 
L 796.399622 566.456599 
L 800.58976 562.325464 
L 804.779898 562.16917 
L 808.970037 566.79976 
L 813.160175 546.248281 
L 817.350313 566.456599 
L 821.540451 562.273004 
L 825.73059 565.196293 
L 829.920728 566.79976 
L 855.061558 566.79976 
L 859.251696 566.461303 
L 863.441835 566.456599 
L 867.631973 566.337027 
L 871.822111 560.901808 
L 876.012249 564.403966 
L 880.202388 566.79976 
L 980.765707 566.79976 
L 984.955845 561.038928 
L 989.145984 566.456599 
L 993.336122 564.486455 
L 997.52626 561.224166 
L 1001.716399 564.817676 
L 1005.906537 562.465116 
L 1010.096675 566.456599 
L 1014.286813 562.308822 
L 1018.476952 564.399262 
L 1022.66709 566.710216 
L 1026.857228 566.44466 
L 1031.047367 562.368518 
L 1035.237505 563.782948 
L 1039.427643 566.79976 
L 1064.568473 566.79976 
L 1068.758611 449.231098 
L 1072.94875 566.44466 
L 1077.138888 566.074365 
L 1081.329026 560.352606 
L 1085.519165 564.986091 
L 1089.709303 566.456599 
L 1093.899441 566.260688 
L 1098.08958 561.033139 
L 1102.279718 555.161598 
L 1102.279718 555.161598 
" clip-path="url(#pefcbb56eb8)" style="fill: none; stroke: #fde725; stroke-width: 1.5; stroke-linecap: square"/>
   </g>
  </g>
 </g>
 <defs>
  <clipPath id="p4c2b108479">
   <rect x="121.158834" y="6.80024" width="1027.840926" height="127.99952"/>
  </clipPath>
  <clipPath id="p19d0aa0bf8">
   <rect x="121.158834" y="150.80024" width="1027.840926" height="127.99952"/>
  </clipPath>
  <clipPath id="p21599e6716">
   <rect x="121.158834" y="294.80024" width="1027.840926" height="127.99952"/>
  </clipPath>
  <clipPath id="pefcbb56eb8">
   <rect x="121.158834" y="438.80024" width="1027.840926" height="127.99952"/>
  </clipPath>
 </defs>
</svg>
