<?xml version="1.0" encoding="UTF-8" standalone="no"?>
<svg viewBox="0 0 16 16" version="1.1" width="16" height="16" xmlns="http://www.w3.org/2000/svg"
  xmlns:svg="http://www.w3.org/2000/svg">
  <style>
    path, rect { fill: #9c0510; }
    @media (prefers-color-scheme: dark) { path, rect { fill: #ffffff; } }
  </style>
  <path
    d="M 1.4253695,2.8256514e-6 A 0.92291909,0.92291909 0 0 0 0.50024378,0.9225297 V 5.5377628 H 15.460772 V 0.9225297 A 0.92291909,0.92291909 0 0 0 14.538244,2.8256514e-6 Z M 0.50024378,5.9899308 V 7.6998539 H 6.0354051 V 5.9899308 Z m 9.43835982,0 V 7.6998539 H 15.471166 V 5.9899308 Z m 0.02339,2.1464992 v 5.53776 h 4.6126344 a 0.92291909,0.92291909 0 0 0 0.925126,-0.925126 V 8.13643 Z m -9.46174782,0.0026 v 5.53516 H 6.0354051 V 8.1390287 Z M 6.5083645,8.170214 v 5.535159 H 9.5124216 V 8.1702127 Z M 0.50024378,14.136752 V 15.07747 A 0.92291909,0.92291909 0 0 0 1.4253695,15.999997 H 5.1154768 A 0.92291909,0.92291909 0 0 0 6.0380037,15.07747 v -0.940718 z m 9.43316182,0 v 0.940718 a 0.92291909,0.92291909 0 0 0 0.9251274,0.922527 h 3.690106 a 0.92291909,0.92291909 0 0 0 0.922527,-0.922527 v -0.940718 z" />
</svg>