<?xml version="1.0" encoding="utf-8" standalone="no"?>
<!DOCTYPE svg PUBLIC "-//W3C//DTD SVG 1.1//EN"
  "http://www.w3.org/Graphics/SVG/1.1/DTD/svg11.dtd">
<svg xmlns:xlink="http://www.w3.org/1999/xlink" width="1080pt" height="216pt" viewBox="0 0 1080 216" xmlns="http://www.w3.org/2000/svg" version="1.1">
 <metadata>
  <rdf:RDF xmlns:dc="http://purl.org/dc/elements/1.1/" xmlns:cc="http://creativecommons.org/ns#" xmlns:rdf="http://www.w3.org/1999/02/22-rdf-syntax-ns#">
   <cc:Work>
    <dc:type rdf:resource="http://purl.org/dc/dcmitype/StillImage"/>
    <dc:date>2025-06-29T21:07:37.504527</dc:date>
    <dc:format>image/svg+xml</dc:format>
    <dc:creator>
     <cc:Agent>
      <dc:title>Matplotlib v3.10.3, https://matplotlib.org/</dc:title>
     </cc:Agent>
    </dc:creator>
   </cc:Work>
  </rdf:RDF>
 </metadata>
 <defs>
  <style type="text/css">*{stroke-linejoin: round; stroke-linecap: butt}</style>
 </defs>
 <g id="figure_1">
  <g id="patch_1">
   <path d="M 0 216 
L 1080 216 
L 1080 0 
L 0 0 
z
" style="fill: #ffffff"/>
  </g>
  <g id="axes_1">
   <g id="patch_2">
    <path d="M 50.384615 195.99976 
L 228.135385 195.99976 
L 228.135385 14.11024 
L 50.384615 14.11024 
z
" style="fill: #ffffff"/>
   </g>
   <g id="FillBetweenPolyCollection_1">
    <defs>
     <path id="m6aada4d6d8" d="M 58.464195 -83.869193 
L 58.464195 -43.662144 
L 60.096434 -45.074985 
L 61.728672 -46.750666 
L 63.360911 -47.682532 
L 64.993149 -47.742094 
L 66.625388 -47.860967 
L 68.257626 -48.329221 
L 69.889865 -48.62909 
L 71.522103 -48.813456 
L 73.154342 -48.854417 
L 74.78658 -48.858077 
L 76.418819 -48.875522 
L 78.051057 -48.890338 
L 79.683296 -48.896589 
L 81.315534 -50.079526 
L 82.947773 -50.090956 
L 84.580011 -50.100287 
L 86.21225 -50.101817 
L 87.844488 -50.104915 
L 89.476726 -50.110532 
L 91.108965 -50.126712 
L 92.741203 -50.127732 
L 94.373442 -50.130819 
L 96.00568 -50.13237 
L 97.637919 -50.156438 
L 99.270157 -50.193652 
L 100.902396 -50.21561 
L 102.534634 -50.219145 
L 104.166873 -50.22374 
L 105.799111 -50.225712 
L 107.43135 -50.227268 
L 109.063588 -50.228286 
L 110.695827 -50.231347 
L 112.328065 -50.231864 
L 113.960304 -50.233949 
L 115.592542 -50.553017 
L 117.224781 -50.556101 
L 118.857019 -50.556101 
L 120.489258 -50.557138 
L 122.121496 -50.559141 
L 123.753734 -50.563215 
L 125.385973 -50.563704 
L 127.018211 -50.570964 
L 128.65045 -50.573521 
L 130.282688 -50.585957 
L 131.914927 -50.585957 
L 133.547165 -50.585957 
L 135.179404 -50.593664 
L 136.811642 -50.595688 
L 138.443881 -50.600274 
L 140.076119 -50.600791 
L 141.708358 -50.60284 
L 143.340596 -50.604387 
L 144.972835 -50.604387 
L 146.605073 -50.604904 
L 148.237312 -50.606914 
L 149.86955 -50.609497 
L 151.501789 -50.609989 
L 153.134027 -50.609989 
L 154.766266 -50.617089 
L 156.398504 -50.618605 
L 158.030742 -50.619115 
L 159.662981 -50.619632 
L 161.295219 -50.625229 
L 162.927458 -50.625229 
L 164.559696 -50.626257 
L 166.191935 -50.626776 
L 167.824173 -50.629822 
L 169.456412 -50.629822 
L 171.08865 -50.631874 
L 172.720889 -50.632391 
L 174.353127 -50.633406 
L 175.985366 -50.634425 
L 177.617604 -50.634425 
L 179.249843 -50.634425 
L 180.882081 -50.6385 
L 182.51432 -50.640054 
L 184.146558 -50.640563 
L 185.778797 -50.640563 
L 187.411035 -50.642567 
L 189.043274 -50.643556 
L 190.675512 -50.644574 
L 192.30775 -50.644574 
L 193.939989 -50.646106 
L 195.572227 -50.64765 
L 197.204466 -50.64765 
L 198.836704 -50.651783 
L 200.468943 -50.655329 
L 202.101181 -50.65634 
L 203.73342 -50.65634 
L 205.365658 -50.65634 
L 206.997897 -50.662018 
L 208.630135 -50.662533 
L 210.262374 -50.663542 
L 211.894612 -50.663542 
L 213.526851 -50.664556 
L 215.159089 -50.665591 
L 216.791328 -50.665591 
L 218.423566 -50.665591 
L 220.055805 -50.666098 
L 220.055805 -90.144804 
L 220.055805 -90.144804 
L 218.423566 -90.144304 
L 216.791328 -90.144304 
L 215.159089 -90.144304 
L 213.526851 -90.143326 
L 211.894612 -90.142326 
L 210.262374 -90.142326 
L 208.630135 -90.141322 
L 206.997897 -90.140831 
L 205.365658 -90.135437 
L 203.73342 -90.135437 
L 202.101181 -90.135437 
L 200.468943 -90.134435 
L 198.836704 -90.130934 
L 197.204466 -90.127016 
L 195.572227 -90.127016 
L 193.939989 -90.12554 
L 192.30775 -90.124052 
L 190.675512 -90.124052 
L 189.043274 -90.123057 
L 187.411035 -90.122033 
L 185.778797 -90.120011 
L 184.146558 -90.120011 
L 182.51432 -90.119513 
L 180.882081 -90.118047 
L 179.249843 -90.11407 
L 177.617604 -90.11407 
L 175.985366 -90.11407 
L 174.353127 -90.113075 
L 172.720889 -90.112077 
L 171.08865 -90.111588 
L 169.456412 -90.109614 
L 167.824173 -90.109614 
L 166.191935 -90.106621 
L 164.559696 -90.106133 
L 162.927458 -90.105147 
L 161.295219 -90.105147 
L 159.662981 -90.099673 
L 158.030742 -90.099183 
L 156.398504 -90.098686 
L 154.766266 -90.097183 
L 153.134027 -90.090191 
L 151.501789 -90.090191 
L 149.86955 -90.089676 
L 148.237312 -90.087227 
L 146.605073 -90.08521 
L 144.972835 -90.084721 
L 143.340596 -90.084721 
L 141.708358 -90.083248 
L 140.076119 -90.081271 
L 138.443881 -90.080781 
L 136.811642 -90.076308 
L 135.179404 -90.074305 
L 133.547165 -90.066914 
L 131.914927 -90.066914 
L 130.282688 -90.066914 
L 128.65045 -90.055193 
L 127.018211 -90.052718 
L 125.385973 -90.045885 
L 123.753734 -90.045368 
L 122.121496 -90.04139 
L 120.489258 -90.039366 
L 118.857019 -90.038389 
L 117.224781 -90.038389 
L 115.592542 -90.035434 
L 113.960304 -89.741507 
L 112.328065 -89.739566 
L 110.695827 -89.739076 
L 109.063588 -89.736098 
L 107.43135 -89.735102 
L 105.799111 -89.733639 
L 104.166873 -89.731585 
L 102.534634 -89.72712 
L 100.902396 -89.723609 
L 99.270157 -89.702285 
L 97.637919 -89.66602 
L 96.00568 -89.64278 
L 94.373442 -89.641312 
L 92.741203 -89.638359 
L 91.108965 -89.637365 
L 89.476726 -89.621336 
L 87.844488 -89.61588 
L 86.21225 -89.61294 
L 84.580011 -89.611449 
L 82.947773 -89.602662 
L 81.315534 -89.591948 
L 79.683296 -88.532266 
L 78.051057 -88.526438 
L 76.418819 -88.512064 
L 74.78658 -88.496293 
L 73.154342 -88.492907 
L 71.522103 -88.453343 
L 69.889865 -88.280379 
L 68.257626 -87.99141 
L 66.625388 -87.566844 
L 64.993149 -87.460248 
L 63.360911 -87.404054 
L 61.728672 -86.551287 
L 60.096434 -85.078444 
L 58.464195 -83.869193 
z
"/>
    </defs>
    <g clip-path="url(#p2f7b267549)">
     <use xlink:href="#m6aada4d6d8" x="0" y="216" style="fill: #440154; fill-opacity: 0.1"/>
    </g>
   </g>
   <g id="matplotlib.axis_1">
    <g id="xtick_1">
     <g id="line2d_1">
      <defs>
       <path id="mb016b827a0" d="M 0 0 
L 0 3.5 
" style="stroke: #000000; stroke-width: 0.8"/>
      </defs>
      <g>
       <use xlink:href="#mb016b827a0" x="58.464195" y="195.99976" style="stroke: #000000; stroke-width: 0.8"/>
      </g>
     </g>
     <g id="text_1">
      <!-- 0 -->
      <g transform="translate(55.668883 210.59976) scale(0.1 -0.1)">
       <defs>
        <path id="NotoSerif-Regular-30" d="M 1792 -64 
Q 1267 -64 934 230 
Q 602 525 445 1056 
Q 288 1587 288 2298 
Q 288 3008 445 3533 
Q 602 4058 934 4346 
Q 1267 4634 1798 4634 
Q 2298 4634 2630 4346 
Q 2963 4058 3126 3530 
Q 3290 3002 3290 2291 
Q 3290 1581 3123 1053 
Q 2957 525 2627 230 
Q 2298 -64 1792 -64 
z
M 1792 282 
Q 2259 282 2441 813 
Q 2624 1344 2624 2291 
Q 2624 3245 2441 3766 
Q 2259 4288 1798 4288 
Q 1331 4288 1142 3766 
Q 954 3245 954 2291 
Q 954 1344 1139 813 
Q 1325 282 1792 282 
z
" transform="scale(0.015625)"/>
       </defs>
       <use xlink:href="#NotoSerif-Regular-30"/>
      </g>
     </g>
    </g>
    <g id="xtick_2">
     <g id="line2d_2">
      <g>
       <use xlink:href="#mb016b827a0" x="221.688043" y="195.99976" style="stroke: #000000; stroke-width: 0.8"/>
      </g>
     </g>
     <g id="text_2">
      <!-- 100 -->
      <g transform="translate(213.302106 210.59976) scale(0.1 -0.1)">
       <defs>
        <path id="NotoSerif-Regular-31" d="M 614 0 
L 614 269 
L 1043 269 
Q 1261 269 1414 349 
Q 1568 429 1568 730 
L 1568 4090 
Q 1325 3795 1129 3609 
Q 934 3424 742 3424 
Q 602 3424 512 3520 
Q 422 3616 422 3770 
Q 614 3821 828 3923 
Q 1043 4026 1357 4262 
L 1805 4595 
L 2214 4595 
L 2214 730 
Q 2214 429 2368 349 
Q 2522 269 2739 269 
L 3053 269 
L 3053 0 
L 614 0 
z
" transform="scale(0.015625)"/>
       </defs>
       <use xlink:href="#NotoSerif-Regular-31"/>
       <use xlink:href="#NotoSerif-Regular-30" transform="translate(55.899994 0)"/>
       <use xlink:href="#NotoSerif-Regular-30" transform="translate(111.799988 0)"/>
      </g>
     </g>
    </g>
   </g>
   <g id="matplotlib.axis_2">
    <g id="ytick_1">
     <g id="line2d_3"/>
     <g id="text_3">
      <!-- 1.26 -->
      <g style="fill: #440154" transform="translate(231.635385 149.394549) scale(0.1 -0.1)">
       <defs>
        <path id="NotoSerif-Regular-2e" d="M 800 -45 
Q 634 -45 515 51 
Q 397 147 397 390 
Q 397 640 515 733 
Q 634 826 800 826 
Q 966 826 1084 733 
Q 1203 640 1203 390 
Q 1203 147 1084 51 
Q 966 -45 800 -45 
z
" transform="scale(0.015625)"/>
        <path id="NotoSerif-Regular-32" d="M 390 0 
L 390 467 
L 1459 1702 
Q 1798 2099 1996 2390 
Q 2195 2682 2281 2944 
Q 2368 3206 2368 3501 
Q 2368 3866 2211 4090 
Q 2054 4314 1715 4314 
Q 1427 4314 1273 4179 
Q 1120 4045 1065 3830 
Q 1011 3616 1011 3360 
Q 781 3360 621 3446 
Q 461 3533 461 3776 
Q 461 4147 777 4390 
Q 1094 4634 1715 4634 
Q 2323 4634 2668 4342 
Q 3014 4051 3014 3565 
Q 3014 3117 2732 2691 
Q 2451 2266 1946 1709 
L 864 512 
L 2342 512 
Q 2630 512 2732 659 
Q 2835 806 2880 992 
L 2906 1107 
L 3174 1107 
L 3142 0 
L 390 0 
z
" transform="scale(0.015625)"/>
        <path id="NotoSerif-Regular-36" d="M 1875 -64 
Q 1453 -64 1117 176 
Q 781 416 585 937 
Q 390 1459 390 2304 
Q 390 2758 492 3177 
Q 595 3597 800 3926 
Q 1005 4256 1321 4445 
Q 1638 4634 2061 4634 
Q 2592 4634 2854 4429 
Q 3117 4224 3117 3962 
Q 3117 3578 2624 3578 
Q 2624 3891 2496 4108 
Q 2368 4326 2061 4326 
Q 1581 4326 1331 3849 
Q 1082 3373 1050 2445 
Q 1210 2573 1430 2675 
Q 1651 2778 1965 2778 
Q 2554 2778 2902 2429 
Q 3251 2080 3251 1466 
Q 3251 1018 3088 672 
Q 2925 326 2617 131 
Q 2310 -64 1875 -64 
z
M 1894 288 
Q 2234 288 2416 553 
Q 2598 819 2598 1402 
Q 2598 1952 2403 2201 
Q 2208 2451 1837 2451 
Q 1587 2451 1379 2332 
Q 1171 2214 1043 2080 
Q 1056 1120 1283 704 
Q 1510 288 1894 288 
z
" transform="scale(0.015625)"/>
       </defs>
       <use xlink:href="#NotoSerif-Regular-31"/>
       <use xlink:href="#NotoSerif-Regular-2e" transform="translate(55.899994 0)"/>
       <use xlink:href="#NotoSerif-Regular-32" transform="translate(80.899979 0)"/>
       <use xlink:href="#NotoSerif-Regular-36" transform="translate(136.799973 0)"/>
      </g>
     </g>
    </g>
    <g id="text_4">
     <!-- time (s) -->
     <g transform="translate(3.00024 102.655) scale(0.1 -0.1)">
      <defs>
       <path id="NotoSerif-Italic-74" d="M 1171 -64 
Q 474 -64 474 685 
Q 474 800 493 950 
Q 512 1101 538 1222 
L 928 3066 
L 442 3066 
L 499 3322 
Q 774 3322 1030 3523 
Q 1286 3725 1478 4218 
L 1773 4218 
L 1606 3430 
L 2381 3430 
L 2304 3066 
L 1530 3066 
L 1139 1242 
Q 1107 1082 1084 938 
Q 1062 794 1062 691 
Q 1062 506 1152 422 
Q 1242 339 1402 339 
Q 1536 339 1680 380 
Q 1824 422 1926 480 
L 2035 243 
Q 1843 109 1628 22 
Q 1414 -64 1171 -64 
z
" transform="scale(0.015625)"/>
       <path id="NotoSerif-Italic-69" d="M 1434 4070 
Q 1274 4070 1174 4156 
Q 1075 4243 1075 4422 
Q 1075 4627 1180 4748 
Q 1286 4870 1459 4870 
Q 1613 4870 1715 4784 
Q 1818 4698 1818 4518 
Q 1818 4269 1696 4169 
Q 1574 4070 1434 4070 
z
M 992 -64 
Q 736 -64 598 115 
Q 461 294 461 544 
Q 461 678 486 864 
Q 512 1050 544 1238 
Q 576 1427 602 1549 
L 851 2726 
Q 870 2822 870 2893 
Q 870 3066 764 3114 
Q 659 3162 480 3162 
L 397 3162 
L 454 3430 
L 1600 3430 
L 1165 1376 
Q 1152 1306 1126 1171 
Q 1101 1037 1085 896 
Q 1069 755 1069 666 
Q 1069 339 1280 339 
Q 1389 339 1504 387 
Q 1619 435 1741 506 
L 1856 320 
Q 1715 198 1475 67 
Q 1235 -64 992 -64 
z
" transform="scale(0.015625)"/>
       <path id="NotoSerif-Italic-6d" d="M 4845 -64 
Q 4563 -64 4412 118 
Q 4262 301 4262 576 
Q 4262 870 4384 1440 
L 4493 1939 
Q 4512 2029 4544 2163 
Q 4576 2298 4601 2445 
Q 4627 2592 4627 2701 
Q 4627 2829 4572 2953 
Q 4518 3078 4333 3078 
Q 4147 3078 3964 2953 
Q 3782 2829 3622 2630 
Q 3462 2432 3344 2205 
Q 3226 1978 3162 1779 
L 3059 1318 
Q 3040 1229 3008 1043 
Q 2976 858 2947 643 
Q 2918 429 2896 249 
Q 2874 70 2874 0 
L 2266 0 
Q 2266 77 2288 253 
Q 2310 429 2342 649 
Q 2374 870 2412 1081 
Q 2451 1293 2483 1440 
L 2592 1939 
Q 2611 2029 2643 2163 
Q 2675 2298 2700 2445 
Q 2726 2592 2726 2701 
Q 2726 2829 2672 2953 
Q 2618 3078 2432 3078 
Q 2234 3078 2035 2931 
Q 1837 2784 1667 2553 
Q 1498 2323 1379 2076 
Q 1261 1830 1222 1638 
L 877 0 
L 282 0 
L 819 2573 
Q 838 2662 848 2748 
Q 858 2835 858 2861 
Q 858 3053 726 3107 
Q 595 3162 410 3162 
L 358 3162 
L 416 3430 
L 1600 3430 
L 1427 2624 
L 1491 2624 
Q 1754 3046 2026 3267 
Q 2298 3488 2656 3488 
Q 3034 3488 3187 3273 
Q 3341 3059 3341 2778 
Q 3341 2739 3337 2700 
Q 3334 2662 3328 2624 
L 3392 2624 
Q 3654 3046 3926 3267 
Q 4198 3488 4557 3488 
Q 4934 3488 5088 3273 
Q 5242 3059 5242 2778 
Q 5242 2618 5200 2429 
Q 5158 2240 5126 2074 
L 4960 1318 
Q 4922 1139 4899 966 
Q 4877 794 4877 646 
Q 4877 339 5101 339 
Q 5286 339 5510 486 
L 5626 301 
Q 5472 173 5283 54 
Q 5094 -64 4845 -64 
z
" transform="scale(0.015625)"/>
       <path id="NotoSerif-Italic-65" d="M 1523 -64 
Q 1184 -64 899 83 
Q 614 230 444 521 
Q 275 813 275 1261 
Q 275 1619 396 2006 
Q 518 2394 761 2733 
Q 1005 3072 1360 3283 
Q 1715 3494 2182 3494 
Q 2586 3494 2810 3299 
Q 3034 3104 3034 2758 
Q 3034 2426 2794 2131 
Q 2554 1837 2134 1657 
Q 1715 1478 1178 1478 
L 954 1478 
Q 947 1408 944 1341 
Q 941 1274 941 1210 
Q 941 800 1120 569 
Q 1299 339 1645 339 
Q 1952 339 2192 486 
Q 2432 634 2566 800 
Q 2630 755 2630 640 
Q 2630 499 2512 336 
Q 2394 173 2150 54 
Q 1907 -64 1523 -64 
z
M 1075 1773 
Q 1453 1773 1744 1897 
Q 2035 2022 2204 2243 
Q 2374 2464 2374 2758 
Q 2374 3187 2003 3187 
Q 1824 3187 1664 3062 
Q 1504 2938 1376 2730 
Q 1248 2522 1155 2272 
Q 1062 2022 1011 1773 
L 1075 1773 
z
" transform="scale(0.015625)"/>
       <path id="NotoSerif-Italic-20" transform="scale(0.015625)"/>
       <path id="NotoSerif-Italic-28" d="M 1402 -819 
Q 800 -557 534 -16 
Q 269 525 269 1190 
Q 269 1773 413 2358 
Q 557 2944 848 3456 
Q 1139 3968 1577 4339 
Q 2016 4710 2611 4864 
L 2547 4576 
Q 2144 4358 1853 4003 
Q 1562 3648 1373 3219 
Q 1184 2790 1072 2355 
Q 960 1920 915 1536 
Q 870 1152 870 890 
Q 870 480 1001 96 
Q 1133 -288 1466 -525 
L 1402 -819 
z
" transform="scale(0.015625)"/>
       <path id="NotoSerif-Italic-73" d="M 1216 -64 
Q 736 -64 448 131 
Q 160 326 160 659 
Q 160 832 230 925 
Q 301 1018 393 1050 
Q 486 1082 563 1082 
Q 563 858 633 666 
Q 704 474 867 358 
Q 1030 243 1293 243 
Q 1613 243 1798 393 
Q 1984 544 1984 838 
Q 1984 1062 1837 1222 
Q 1690 1382 1338 1542 
Q 986 1709 774 1929 
Q 563 2150 563 2534 
Q 563 2950 899 3219 
Q 1235 3488 1798 3488 
Q 2150 3488 2368 3398 
Q 2586 3309 2691 3168 
Q 2797 3027 2797 2880 
Q 2797 2682 2669 2582 
Q 2541 2483 2317 2483 
Q 2317 2656 2262 2819 
Q 2208 2982 2083 3088 
Q 1958 3194 1741 3194 
Q 1453 3194 1286 3040 
Q 1120 2886 1120 2643 
Q 1120 2426 1280 2282 
Q 1440 2138 1773 1984 
Q 2125 1824 2333 1593 
Q 2541 1363 2541 992 
Q 2541 525 2185 230 
Q 1830 -64 1216 -64 
z
" transform="scale(0.015625)"/>
       <path id="NotoSerif-Italic-29" d="M -250 -582 
Q 154 -365 445 -9 
Q 736 346 925 774 
Q 1114 1203 1226 1638 
Q 1338 2074 1382 2458 
Q 1427 2842 1427 3104 
Q 1427 3514 1299 3898 
Q 1171 4282 832 4518 
L 896 4813 
Q 1498 4557 1763 4013 
Q 2029 3469 2029 2803 
Q 2029 2221 1885 1635 
Q 1741 1050 1449 538 
Q 1158 26 720 -345 
Q 282 -717 -314 -870 
L -250 -582 
z
" transform="scale(0.015625)"/>
      </defs>
      <use xlink:href="#NotoSerif-Italic-74"/>
      <use xlink:href="#NotoSerif-Italic-69" transform="translate(36.799988 0)"/>
      <use xlink:href="#NotoSerif-Italic-6d" transform="translate(67.199982 0)"/>
      <use xlink:href="#NotoSerif-Italic-65" transform="translate(156.799973 0)"/>
      <use xlink:href="#NotoSerif-Italic-20" transform="translate(206.09996 0)"/>
      <use xlink:href="#NotoSerif-Italic-28" transform="translate(232.099945 0)"/>
      <use xlink:href="#NotoSerif-Italic-73" transform="translate(266.699936 0)"/>
      <use xlink:href="#NotoSerif-Italic-29" transform="translate(313.09993 0)"/>
     </g>
    </g>
   </g>
   <g id="line2d_4">
    <path d="M 58.464195 152.234332 
L 60.096434 150.923285 
L 61.728672 149.349023 
L 63.360911 148.456707 
L 64.993149 148.398829 
L 66.625388 148.286095 
L 68.257626 147.839685 
L 69.889865 147.545265 
L 71.522103 147.366601 
L 73.154342 147.326338 
L 74.78658 147.322815 
L 76.418819 147.306207 
L 78.051057 147.291612 
L 79.683296 147.285572 
L 81.315534 146.164263 
L 82.947773 146.153191 
L 84.580011 146.144132 
L 86.21225 146.142622 
L 87.844488 146.139602 
L 89.476726 146.134066 
L 91.108965 146.117961 
L 92.741203 146.116955 
L 94.373442 146.113935 
L 96.00568 146.112425 
L 97.637919 146.088771 
L 99.270157 146.052031 
L 100.902396 146.03039 
L 102.534634 146.026867 
L 104.166873 146.022338 
L 105.799111 146.020325 
L 107.43135 146.018815 
L 109.063588 146.017808 
L 110.695827 146.014789 
L 112.328065 146.014285 
L 113.960304 146.012272 
L 115.592542 145.705774 
L 117.224781 145.702755 
L 118.857019 145.702755 
L 120.489258 145.701748 
L 122.121496 145.699735 
L 123.753734 145.695709 
L 125.385973 145.695205 
L 127.018211 145.688159 
L 128.65045 145.685643 
L 130.282688 145.673564 
L 131.914927 145.673564 
L 133.547165 145.673564 
L 135.179404 145.666015 
L 136.811642 145.664002 
L 138.443881 145.659472 
L 140.076119 145.658969 
L 141.708358 145.656956 
L 143.340596 145.655446 
L 144.972835 145.655446 
L 146.605073 145.654943 
L 148.237312 145.65293 
L 149.86955 145.650413 
L 151.501789 145.64991 
L 153.134027 145.64991 
L 154.766266 145.642864 
L 156.398504 145.641354 
L 158.030742 145.640851 
L 159.662981 145.640348 
L 161.295219 145.634812 
L 162.927458 145.634812 
L 164.559696 145.633805 
L 166.191935 145.633302 
L 167.824173 145.630282 
L 169.456412 145.630282 
L 171.08865 145.628269 
L 172.720889 145.627766 
L 174.353127 145.626759 
L 175.985366 145.625753 
L 177.617604 145.625753 
L 179.249843 145.625753 
L 180.882081 145.621726 
L 182.51432 145.620217 
L 184.146558 145.619713 
L 185.778797 145.619713 
L 187.411035 145.6177 
L 189.043274 145.616694 
L 190.675512 145.615687 
L 192.30775 145.615687 
L 193.939989 145.614177 
L 195.572227 145.612667 
L 197.204466 145.612667 
L 198.836704 145.608641 
L 200.468943 145.605118 
L 202.101181 145.604112 
L 203.73342 145.604112 
L 205.365658 145.604112 
L 206.997897 145.598575 
L 208.630135 145.598072 
L 210.262374 145.597066 
L 211.894612 145.597066 
L 213.526851 145.596059 
L 215.159089 145.595052 
L 216.791328 145.595052 
L 218.423566 145.595052 
L 220.055805 145.594549 
" clip-path="url(#p2f7b267549)" style="fill: none; stroke: #440154; stroke-width: 1.5; stroke-linecap: square"/>
   </g>
   <g id="text_5">
    <!-- file-per-date -->
    <g transform="translate(107.150313 11.47024) scale(0.11 -0.11)">
     <defs>
      <path id="NotoSerif-Regular-66" d="M 173 0 
L 173 269 
L 256 269 
Q 474 269 627 349 
Q 781 429 781 730 
L 781 3130 
L 198 3130 
L 198 3430 
L 781 3430 
L 781 3750 
Q 781 4320 1085 4624 
Q 1389 4928 1914 4928 
Q 2413 4928 2611 4803 
Q 2810 4678 2810 4480 
Q 2810 4307 2662 4214 
Q 2515 4122 2285 4122 
Q 2285 4314 2195 4474 
Q 2106 4634 1862 4634 
Q 1587 4634 1484 4422 
Q 1382 4211 1382 3808 
L 1382 3430 
L 2285 3430 
L 2285 3130 
L 1382 3130 
L 1382 730 
Q 1382 429 1536 349 
Q 1690 269 1907 269 
L 2150 269 
L 2150 0 
L 173 0 
z
" transform="scale(0.015625)"/>
      <path id="NotoSerif-Regular-69" d="M 1030 4070 
Q 877 4070 771 4160 
Q 666 4250 666 4467 
Q 666 4691 771 4777 
Q 877 4864 1030 4864 
Q 1178 4864 1286 4777 
Q 1395 4691 1395 4467 
Q 1395 4250 1286 4160 
Q 1178 4070 1030 4070 
z
M 147 0 
L 147 269 
L 230 269 
Q 442 269 598 342 
Q 755 416 755 698 
L 755 2726 
Q 755 3008 598 3085 
Q 442 3162 230 3162 
L 211 3162 
L 211 3430 
L 1357 3430 
L 1357 730 
Q 1357 429 1510 349 
Q 1664 269 1882 269 
L 1965 269 
L 1965 0 
L 147 0 
z
" transform="scale(0.015625)"/>
      <path id="NotoSerif-Regular-6c" d="M 83 0 
L 83 269 
L 166 269 
Q 384 269 537 349 
Q 691 429 691 730 
L 691 4160 
Q 691 4442 534 4518 
Q 378 4595 166 4595 
L 83 4595 
L 83 4864 
L 1293 4864 
L 1293 730 
Q 1293 429 1446 349 
Q 1600 269 1818 269 
L 1901 269 
L 1901 0 
L 83 0 
z
" transform="scale(0.015625)"/>
      <path id="NotoSerif-Regular-65" d="M 1837 -64 
Q 1139 -64 745 397 
Q 352 858 352 1690 
Q 352 2586 723 3040 
Q 1094 3494 1773 3494 
Q 2394 3494 2749 3110 
Q 3104 2726 3104 1965 
L 3104 1670 
L 973 1670 
Q 986 973 1226 656 
Q 1466 339 1926 339 
Q 2259 339 2492 476 
Q 2726 614 2842 787 
Q 2886 768 2924 710 
Q 2963 653 2963 570 
Q 2963 442 2841 294 
Q 2720 147 2470 41 
Q 2221 -64 1837 -64 
z
M 2458 2016 
Q 2458 2528 2301 2838 
Q 2144 3149 1760 3149 
Q 1408 3149 1213 2857 
Q 1018 2566 986 2016 
L 2458 2016 
z
" transform="scale(0.015625)"/>
      <path id="NotoSerif-Regular-2d" d="M 160 1504 
L 160 1984 
L 1824 1984 
L 1824 1504 
L 160 1504 
z
" transform="scale(0.015625)"/>
      <path id="NotoSerif-Regular-70" d="M 115 -1536 
L 115 -1267 
L 166 -1267 
Q 384 -1267 537 -1187 
Q 691 -1107 691 -806 
L 691 2726 
Q 691 3008 534 3085 
Q 378 3162 166 3162 
L 83 3162 
L 83 3430 
L 1203 3430 
L 1267 2854 
L 1293 2854 
Q 1440 3149 1670 3321 
Q 1901 3494 2272 3494 
Q 2906 3494 3242 3068 
Q 3578 2643 3578 1722 
Q 3578 794 3242 365 
Q 2906 -64 2272 -64 
Q 1901 -64 1667 93 
Q 1434 250 1293 499 
L 1267 499 
Q 1280 314 1286 106 
Q 1293 -102 1293 -224 
L 1293 -838 
Q 1293 -1120 1449 -1193 
Q 1606 -1267 1818 -1267 
L 1837 -1267 
L 1837 -1536 
L 115 -1536 
z
M 2170 346 
Q 2592 346 2774 701 
Q 2957 1056 2957 1728 
Q 2957 2413 2774 2749 
Q 2592 3085 2163 3085 
Q 1664 3085 1478 2749 
Q 1293 2413 1293 1722 
Q 1293 1056 1478 701 
Q 1664 346 2170 346 
z
" transform="scale(0.015625)"/>
      <path id="NotoSerif-Regular-72" d="M 211 0 
L 211 269 
L 230 269 
Q 448 269 601 349 
Q 755 429 755 730 
L 755 2726 
Q 755 3008 598 3085 
Q 442 3162 230 3162 
L 211 3162 
L 211 3430 
L 1197 3430 
L 1318 2797 
L 1350 2797 
Q 1434 2989 1530 3149 
Q 1626 3309 1786 3401 
Q 1946 3494 2227 3494 
Q 2579 3494 2748 3372 
Q 2918 3251 2918 3027 
Q 2918 2829 2780 2701 
Q 2643 2573 2323 2573 
Q 2323 2835 2246 2953 
Q 2170 3072 1984 3072 
Q 1805 3072 1683 2931 
Q 1562 2790 1491 2572 
Q 1421 2355 1389 2121 
Q 1357 1888 1357 1702 
L 1357 698 
Q 1357 416 1513 342 
Q 1670 269 1882 269 
L 2061 269 
L 2061 0 
L 211 0 
z
" transform="scale(0.015625)"/>
      <path id="NotoSerif-Regular-64" d="M 1658 -64 
Q 1024 -64 688 361 
Q 352 787 352 1709 
Q 352 2637 688 3065 
Q 1024 3494 1658 3494 
Q 2029 3494 2262 3337 
Q 2496 3181 2637 2931 
L 2675 2931 
Q 2656 3091 2646 3286 
Q 2637 3482 2637 3635 
L 2637 4160 
Q 2637 4442 2480 4518 
Q 2323 4595 2112 4595 
L 2061 4595 
L 2061 4864 
L 3238 4864 
L 3238 704 
Q 3238 422 3395 345 
Q 3552 269 3763 269 
L 3814 269 
L 3814 0 
L 2733 0 
L 2662 576 
L 2637 576 
Q 2496 282 2265 109 
Q 2035 -64 1658 -64 
z
M 1766 346 
Q 2266 346 2451 682 
Q 2637 1018 2637 1709 
Q 2637 2374 2451 2729 
Q 2266 3085 1760 3085 
Q 1338 3085 1155 2729 
Q 973 2374 973 1702 
Q 973 1024 1155 685 
Q 1338 346 1766 346 
z
" transform="scale(0.015625)"/>
      <path id="NotoSerif-Regular-61" d="M 1312 -64 
Q 883 -64 601 185 
Q 320 435 320 960 
Q 320 1472 681 1715 
Q 1043 1958 1779 1984 
L 2310 2003 
L 2310 2387 
Q 2310 2618 2272 2794 
Q 2234 2970 2106 3072 
Q 1978 3174 1715 3174 
Q 1472 3174 1344 3084 
Q 1216 2995 1174 2838 
Q 1133 2682 1133 2477 
Q 864 2477 726 2569 
Q 589 2662 589 2880 
Q 589 3104 745 3238 
Q 902 3373 1164 3433 
Q 1427 3494 1741 3494 
Q 2330 3494 2621 3244 
Q 2912 2995 2912 2387 
L 2912 730 
Q 2912 461 3001 365 
Q 3091 269 3309 269 
L 3328 269 
L 3328 0 
L 2464 0 
L 2362 550 
L 2310 550 
Q 2176 371 2048 233 
Q 1920 96 1750 16 
Q 1581 -64 1312 -64 
z
M 1459 333 
Q 1850 333 2080 573 
Q 2310 813 2310 1222 
L 2310 1741 
L 1901 1722 
Q 1357 1696 1149 1501 
Q 941 1306 941 928 
Q 941 333 1459 333 
z
" transform="scale(0.015625)"/>
      <path id="NotoSerif-Regular-74" d="M 1536 -64 
Q 1050 -64 829 157 
Q 608 378 608 928 
L 608 3066 
L 122 3066 
L 122 3322 
Q 237 3322 377 3370 
Q 518 3418 621 3526 
Q 730 3642 800 3808 
Q 870 3974 915 4218 
L 1210 4218 
L 1210 3430 
L 2048 3430 
L 2048 3066 
L 1210 3066 
L 1210 909 
Q 1210 582 1344 428 
Q 1478 275 1696 275 
Q 1811 275 1907 288 
Q 2003 301 2106 320 
L 2106 38 
Q 2022 0 1856 -32 
Q 1690 -64 1536 -64 
z
" transform="scale(0.015625)"/>
     </defs>
     <use xlink:href="#NotoSerif-Regular-66"/>
     <use xlink:href="#NotoSerif-Regular-69" transform="translate(36.899994 0)"/>
     <use xlink:href="#NotoSerif-Regular-6c" transform="translate(68.899979 0)"/>
     <use xlink:href="#NotoSerif-Regular-65" transform="translate(99.899963 0)"/>
     <use xlink:href="#NotoSerif-Regular-2d" transform="translate(153.399948 0)"/>
     <use xlink:href="#NotoSerif-Regular-70" transform="translate(184.399933 0)"/>
     <use xlink:href="#NotoSerif-Regular-65" transform="translate(245.799927 0)"/>
     <use xlink:href="#NotoSerif-Regular-72" transform="translate(299.299911 0)"/>
     <use xlink:href="#NotoSerif-Regular-2d" transform="translate(346.399902 0)"/>
     <use xlink:href="#NotoSerif-Regular-64" transform="translate(377.399887 0)"/>
     <use xlink:href="#NotoSerif-Regular-61" transform="translate(438.799881 0)"/>
     <use xlink:href="#NotoSerif-Regular-74" transform="translate(495.099869 0)"/>
     <use xlink:href="#NotoSerif-Regular-65" transform="translate(530.299866 0)"/>
    </g>
   </g>
  </g>
  <g id="axes_2">
   <g id="patch_3">
    <path d="M 256.90774 195.99976 
L 434.65851 195.99976 
L 434.65851 14.11024 
L 256.90774 14.11024 
z
" style="fill: #ffffff"/>
   </g>
   <g id="FillBetweenPolyCollection_2">
    <defs>
     <path id="m4a41dca0ce" d="M 264.98732 -91.394278 
L 264.98732 -25.394028 
L 266.619559 -26.277208 
L 268.251797 -27.086053 
L 269.884036 -27.123486 
L 271.516274 -27.318339 
L 273.148513 -27.496464 
L 274.780751 -27.805895 
L 276.41299 -28.156726 
L 278.045228 -28.308059 
L 279.677467 -28.448913 
L 281.309705 -28.70345 
L 282.941944 -29.105812 
L 284.574182 -29.166889 
L 286.206421 -29.171504 
L 287.838659 -29.253633 
L 289.470898 -29.255685 
L 291.103136 -29.270712 
L 292.735375 -29.506012 
L 294.367613 -29.523677 
L 295.999851 -29.579078 
L 297.63209 -29.584256 
L 299.264328 -29.586789 
L 300.896567 -29.591956 
L 302.528805 -29.601776 
L 304.161044 -29.617598 
L 305.793282 -29.630448 
L 307.425521 -29.650937 
L 309.057759 -29.650937 
L 310.689998 -29.654069 
L 312.322236 -29.657659 
L 313.954475 -29.660246 
L 315.586713 -29.663859 
L 317.218952 -29.677769 
L 318.85119 -29.679848 
L 320.483429 -29.680886 
L 322.115667 -29.681402 
L 323.747906 -29.693902 
L 325.380144 -29.694944 
L 327.012383 -29.695466 
L 328.644621 -29.695983 
L 330.276859 -29.717839 
L 331.909098 -29.717839 
L 333.541336 -29.719362 
L 335.173575 -29.72091 
L 336.805813 -29.722994 
L 338.438052 -29.723513 
L 340.07029 -29.724029 
L 341.702529 -29.725061 
L 343.334767 -29.727629 
L 344.967006 -29.72867 
L 346.599244 -29.72867 
L 348.231483 -29.729187 
L 349.863721 -29.730714 
L 351.49596 -29.731233 
L 353.128198 -29.732277 
L 354.760437 -29.732277 
L 356.392675 -29.734841 
L 358.024914 -29.735878 
L 359.657152 -29.737438 
L 361.289391 -29.737438 
L 362.921629 -29.740049 
L 364.553867 -29.740049 
L 366.186106 -29.741086 
L 367.818344 -29.741086 
L 369.450583 -29.744212 
L 371.082821 -29.744731 
L 372.71506 -29.74574 
L 374.347298 -29.746257 
L 375.979537 -29.750408 
L 377.611775 -29.750927 
L 379.244014 -29.758748 
L 380.876252 -29.759264 
L 382.508491 -29.770253 
L 384.140729 -29.770253 
L 385.772968 -29.777032 
L 387.405206 -29.780646 
L 389.037445 -29.796184 
L 390.669683 -29.799812 
L 392.301922 -29.832082 
L 393.93416 -29.835695 
L 395.566399 -29.846436 
L 397.198637 -29.849546 
L 398.830875 -29.861512 
L 400.463114 -29.928418 
L 402.095352 -29.934184 
L 403.727591 -29.934184 
L 405.359829 -29.936225 
L 406.992068 -29.942408 
L 408.624306 -29.957029 
L 410.256545 -29.957029 
L 411.888783 -29.995363 
L 413.521022 -29.999996 
L 415.15326 -30.008366 
L 416.785499 -30.008366 
L 418.417737 -30.0187 
L 420.049976 -30.024881 
L 421.682214 -30.030631 
L 423.314453 -30.312467 
L 424.946691 -30.341168 
L 426.57893 -30.341168 
L 426.57893 -96.019537 
L 426.57893 -96.019537 
L 424.946691 -96.019537 
L 423.314453 -95.992877 
L 421.682214 -95.722111 
L 420.049976 -95.716789 
L 418.417737 -95.710891 
L 416.785499 -95.701094 
L 415.15326 -95.701094 
L 413.521022 -95.693359 
L 411.888783 -95.688934 
L 410.256545 -95.652781 
L 408.624306 -95.652781 
L 406.992068 -95.639219 
L 405.359829 -95.633323 
L 403.727591 -95.631338 
L 402.095352 -95.631338 
L 400.463114 -95.626032 
L 398.830875 -95.562085 
L 397.198637 -95.5509 
L 395.566399 -95.54797 
L 393.93416 -95.537573 
L 392.301922 -95.53414 
L 390.669683 -95.504004 
L 389.037445 -95.500586 
L 387.405206 -95.485927 
L 385.772968 -95.482495 
L 384.140729 -95.476189 
L 382.508491 -95.476189 
L 380.876252 -95.46604 
L 379.244014 -95.465549 
L 377.611775 -95.458272 
L 375.979537 -95.457784 
L 374.347298 -95.453883 
L 372.71506 -95.453393 
L 371.082821 -95.45239 
L 369.450583 -95.451902 
L 367.818344 -95.448988 
L 366.186106 -95.448988 
L 364.553867 -95.448013 
L 362.921629 -95.448013 
L 361.289391 -95.445591 
L 359.657152 -95.445591 
L 358.024914 -95.444131 
L 356.392675 -95.443155 
L 354.760437 -95.440686 
L 353.128198 -95.440686 
L 351.49596 -95.439717 
L 349.863721 -95.439229 
L 348.231483 -95.437737 
L 346.599244 -95.437247 
L 344.967006 -95.437247 
L 343.334767 -95.436275 
L 341.702529 -95.43381 
L 340.07029 -95.432829 
L 338.438052 -95.432338 
L 336.805813 -95.431851 
L 335.173575 -95.429909 
L 333.541336 -95.428437 
L 331.909098 -95.42694 
L 330.276859 -95.42694 
L 328.644621 -95.406521 
L 327.012383 -95.406031 
L 325.380144 -95.405546 
L 323.747906 -95.404576 
L 322.115667 -95.392918 
L 320.483429 -95.392427 
L 318.85119 -95.391452 
L 317.218952 -95.389506 
L 315.586713 -95.376238 
L 313.954475 -95.372805 
L 312.322236 -95.370359 
L 310.689998 -95.366903 
L 309.057759 -95.363996 
L 307.425521 -95.363996 
L 305.793282 -95.344222 
L 304.161044 -95.331908 
L 302.528805 -95.316527 
L 300.896567 -95.307222 
L 299.264328 -95.302324 
L 297.63209 -95.299824 
L 295.999851 -95.294937 
L 294.367613 -95.242635 
L 292.735375 -95.226077 
L 291.103136 -95.004398 
L 289.470898 -94.990235 
L 287.838659 -94.988261 
L 286.206421 -94.911353 
L 284.574182 -94.906909 
L 282.941944 -94.850219 
L 281.309705 -94.466456 
L 279.677467 -94.222745 
L 278.045228 -94.092834 
L 276.41299 -93.954277 
L 274.780751 -93.61964 
L 273.148513 -93.33218 
L 271.516274 -93.16908 
L 269.884036 -92.986472 
L 268.251797 -92.951434 
L 266.619559 -92.209167 
L 264.98732 -91.394278 
z
"/>
    </defs>
    <g clip-path="url(#pb076e63455)">
     <use xlink:href="#m4a41dca0ce" x="0" y="216" style="fill: #3b528b; fill-opacity: 0.1"/>
    </g>
   </g>
   <g id="matplotlib.axis_3">
    <g id="xtick_3">
     <g id="line2d_5">
      <g>
       <use xlink:href="#mb016b827a0" x="264.98732" y="195.99976" style="stroke: #000000; stroke-width: 0.8"/>
      </g>
     </g>
     <g id="text_6">
      <!-- 0 -->
      <g transform="translate(262.192008 210.59976) scale(0.1 -0.1)">
       <use xlink:href="#NotoSerif-Regular-30"/>
      </g>
     </g>
    </g>
    <g id="xtick_4">
     <g id="line2d_6">
      <g>
       <use xlink:href="#mb016b827a0" x="428.211168" y="195.99976" style="stroke: #000000; stroke-width: 0.8"/>
      </g>
     </g>
     <g id="text_7">
      <!-- 100 -->
      <g transform="translate(419.825231 210.59976) scale(0.1 -0.1)">
       <use xlink:href="#NotoSerif-Regular-31"/>
       <use xlink:href="#NotoSerif-Regular-30" transform="translate(55.899994 0)"/>
       <use xlink:href="#NotoSerif-Regular-30" transform="translate(111.799988 0)"/>
      </g>
     </g>
    </g>
   </g>
   <g id="matplotlib.axis_4">
    <g id="ytick_2">
     <g id="line2d_7"/>
     <g id="text_8">
      <!-- 1.16 -->
      <g style="fill: #3b528b" transform="translate(438.15851 156.619647) scale(0.1 -0.1)">
       <use xlink:href="#NotoSerif-Regular-31"/>
       <use xlink:href="#NotoSerif-Regular-2e" transform="translate(55.899994 0)"/>
       <use xlink:href="#NotoSerif-Regular-31" transform="translate(80.899979 0)"/>
       <use xlink:href="#NotoSerif-Regular-36" transform="translate(136.799973 0)"/>
      </g>
     </g>
    </g>
   </g>
   <g id="line2d_8">
    <path d="M 264.98732 157.605847 
L 266.619559 156.756812 
L 268.251797 155.981257 
L 269.884036 155.945021 
L 271.516274 155.75629 
L 273.148513 155.585678 
L 274.780751 155.287233 
L 276.41299 154.944498 
L 278.045228 154.799554 
L 279.677467 154.664171 
L 281.309705 154.415047 
L 282.941944 154.021985 
L 284.574182 153.963101 
L 286.206421 153.958572 
L 287.838659 153.879053 
L 289.470898 153.87704 
L 291.103136 153.862445 
L 292.735375 153.633955 
L 294.367613 153.616844 
L 295.999851 153.562993 
L 297.63209 153.55796 
L 299.264328 153.555444 
L 300.896567 153.550411 
L 302.528805 153.540849 
L 304.161044 153.525247 
L 305.793282 153.512665 
L 307.425521 153.492534 
L 309.057759 153.492534 
L 310.689998 153.489514 
L 312.322236 153.485991 
L 313.954475 153.483475 
L 315.586713 153.479952 
L 317.218952 153.466363 
L 318.85119 153.46435 
L 320.483429 153.463343 
L 322.115667 153.46284 
L 323.747906 153.450761 
L 325.380144 153.449755 
L 327.012383 153.449251 
L 328.644621 153.448748 
L 330.276859 153.42761 
L 331.909098 153.42761 
L 333.541336 153.426101 
L 335.173575 153.424591 
L 336.805813 153.422578 
L 338.438052 153.422074 
L 340.07029 153.421571 
L 341.702529 153.420564 
L 343.334767 153.418048 
L 344.967006 153.417041 
L 346.599244 153.417041 
L 348.231483 153.416538 
L 349.863721 153.415028 
L 351.49596 153.414525 
L 353.128198 153.413518 
L 354.760437 153.413518 
L 356.392675 153.411002 
L 358.024914 153.409996 
L 359.657152 153.408486 
L 361.289391 153.408486 
L 362.921629 153.405969 
L 364.553867 153.405969 
L 366.186106 153.404963 
L 367.818344 153.404963 
L 369.450583 153.401943 
L 371.082821 153.40144 
L 372.71506 153.400433 
L 374.347298 153.39993 
L 375.979537 153.395904 
L 377.611775 153.3954 
L 379.244014 153.387851 
L 380.876252 153.387348 
L 382.508491 153.376779 
L 384.140729 153.376779 
L 385.772968 153.370236 
L 387.405206 153.366713 
L 389.037445 153.351615 
L 390.669683 153.348092 
L 392.301922 153.316889 
L 393.93416 153.313366 
L 395.566399 153.302797 
L 397.198637 153.299777 
L 398.830875 153.288202 
L 400.463114 153.222775 
L 402.095352 153.217239 
L 403.727591 153.217239 
L 405.359829 153.215226 
L 406.992068 153.209187 
L 408.624306 153.195095 
L 410.256545 153.195095 
L 411.888783 153.157852 
L 413.521022 153.153322 
L 415.15326 153.14527 
L 416.785499 153.14527 
L 418.417737 153.135204 
L 420.049976 153.129165 
L 421.682214 153.123629 
L 423.314453 152.847328 
L 424.946691 152.819647 
L 426.57893 152.819647 
" clip-path="url(#pb076e63455)" style="fill: none; stroke: #3b528b; stroke-width: 1.5; stroke-linecap: square"/>
   </g>
   <g id="text_9">
    <!-- file-per-location -->
    <g transform="translate(303.927266 11.47024) scale(0.11 -0.11)">
     <defs>
      <path id="NotoSerif-Regular-6f" d="M 1837 -64 
Q 1146 -64 749 377 
Q 352 819 352 1722 
Q 352 2618 733 3056 
Q 1114 3494 1856 3494 
Q 2547 3494 2944 3056 
Q 3341 2618 3341 1722 
Q 3341 819 2960 377 
Q 2579 -64 1837 -64 
z
M 1850 269 
Q 2330 269 2525 637 
Q 2720 1005 2720 1722 
Q 2720 2438 2521 2796 
Q 2323 3155 1843 3155 
Q 1363 3155 1168 2796 
Q 973 2438 973 1722 
Q 973 1005 1171 637 
Q 1370 269 1850 269 
z
" transform="scale(0.015625)"/>
      <path id="NotoSerif-Regular-63" d="M 1811 -64 
Q 1389 -64 1059 115 
Q 730 294 541 681 
Q 352 1069 352 1696 
Q 352 2381 541 2774 
Q 730 3168 1053 3331 
Q 1376 3494 1779 3494 
Q 2048 3494 2304 3424 
Q 2560 3354 2726 3210 
Q 2893 3066 2893 2842 
Q 2893 2624 2749 2531 
Q 2605 2438 2323 2438 
Q 2323 2739 2211 2956 
Q 2099 3174 1779 3174 
Q 1536 3174 1353 3046 
Q 1171 2918 1072 2598 
Q 973 2278 973 1702 
Q 973 1024 1200 688 
Q 1427 352 1939 352 
Q 2240 352 2461 477 
Q 2682 602 2790 800 
Q 2899 710 2899 550 
Q 2899 403 2777 262 
Q 2656 122 2416 29 
Q 2176 -64 1811 -64 
z
" transform="scale(0.015625)"/>
      <path id="NotoSerif-Regular-6e" d="M 179 0 
L 179 269 
L 230 269 
Q 448 269 601 349 
Q 755 429 755 730 
L 755 2726 
Q 755 3008 604 3085 
Q 454 3162 243 3162 
L 211 3162 
L 211 3430 
L 1248 3430 
L 1331 2912 
L 1363 2912 
Q 1562 3270 1808 3382 
Q 2054 3494 2362 3494 
Q 2867 3494 3152 3196 
Q 3437 2899 3437 2240 
L 3437 730 
Q 3437 429 3568 349 
Q 3699 269 3917 269 
L 3949 269 
L 3949 0 
L 2835 0 
L 2835 2208 
Q 2835 2624 2678 2854 
Q 2522 3085 2131 3085 
Q 1843 3085 1673 2941 
Q 1504 2797 1430 2560 
Q 1357 2323 1357 2048 
L 1357 698 
Q 1357 416 1507 342 
Q 1658 269 1869 269 
L 1901 269 
L 1901 0 
L 179 0 
z
" transform="scale(0.015625)"/>
     </defs>
     <use xlink:href="#NotoSerif-Regular-66"/>
     <use xlink:href="#NotoSerif-Regular-69" transform="translate(36.899994 0)"/>
     <use xlink:href="#NotoSerif-Regular-6c" transform="translate(68.899979 0)"/>
     <use xlink:href="#NotoSerif-Regular-65" transform="translate(99.899963 0)"/>
     <use xlink:href="#NotoSerif-Regular-2d" transform="translate(153.399948 0)"/>
     <use xlink:href="#NotoSerif-Regular-70" transform="translate(184.399933 0)"/>
     <use xlink:href="#NotoSerif-Regular-65" transform="translate(245.799927 0)"/>
     <use xlink:href="#NotoSerif-Regular-72" transform="translate(299.299911 0)"/>
     <use xlink:href="#NotoSerif-Regular-2d" transform="translate(346.399902 0)"/>
     <use xlink:href="#NotoSerif-Regular-6c" transform="translate(377.399887 0)"/>
     <use xlink:href="#NotoSerif-Regular-6f" transform="translate(408.399872 0)"/>
     <use xlink:href="#NotoSerif-Regular-63" transform="translate(466.099869 0)"/>
     <use xlink:href="#NotoSerif-Regular-61" transform="translate(515.299866 0)"/>
     <use xlink:href="#NotoSerif-Regular-74" transform="translate(571.599854 0)"/>
     <use xlink:href="#NotoSerif-Regular-69" transform="translate(606.79985 0)"/>
     <use xlink:href="#NotoSerif-Regular-6f" transform="translate(638.799835 0)"/>
     <use xlink:href="#NotoSerif-Regular-6e" transform="translate(696.499832 0)"/>
    </g>
   </g>
  </g>
  <g id="axes_3">
   <g id="patch_4">
    <path d="M 463.430865 195.99976 
L 641.181635 195.99976 
L 641.181635 14.11024 
L 463.430865 14.11024 
z
" style="fill: #ffffff"/>
   </g>
   <g id="FillBetweenPolyCollection_3">
    <defs>
     <path id="mc7789f6263" d="M 471.510445 -54.486659 
L 471.510445 -27.794708 
L 473.142684 -28.914831 
L 474.774922 -31.993318 
L 476.407161 -32.788131 
L 478.039399 -32.851617 
L 479.671638 -32.87462 
L 481.303876 -32.939105 
L 482.936115 -32.947159 
L 484.568353 -35.48727 
L 486.200592 -35.519834 
L 487.83283 -36.227107 
L 489.465069 -36.271438 
L 491.097307 -36.650203 
L 492.729546 -36.701686 
L 494.361784 -38.12632 
L 495.994023 -38.944345 
L 497.626261 -38.961275 
L 499.2585 -39.038576 
L 500.890738 -39.083156 
L 502.522976 -39.20547 
L 504.155215 -39.332464 
L 505.787453 -40.20388 
L 507.419692 -40.208017 
L 509.05193 -40.219182 
L 510.684169 -40.235691 
L 512.316407 -40.240398 
L 513.948646 -40.241695 
L 515.580884 -40.260567 
L 517.213123 -40.261904 
L 518.845361 -40.26327 
L 520.4776 -40.263761 
L 522.109838 -40.268111 
L 523.742077 -40.269767 
L 525.374315 -40.270708 
L 527.006554 -40.270708 
L 528.638792 -40.279382 
L 530.271031 -40.281132 
L 531.903269 -40.28335 
L 533.535508 -40.28384 
L 535.167746 -40.291561 
L 536.799984 -40.292824 
L 538.432223 -40.29543 
L 540.064461 -40.295921 
L 541.6967 -40.299771 
L 543.328938 -40.302637 
L 544.961177 -40.303586 
L 546.593415 -40.303959 
L 548.225654 -40.31693 
L 549.857892 -40.318265 
L 551.490131 -40.332688 
L 553.122369 -40.333178 
L 554.754608 -40.347056 
L 556.386846 -40.34917 
L 558.019085 -40.349593 
L 559.651323 -40.349593 
L 561.283562 -40.352479 
L 562.9158 -40.352479 
L 564.548039 -40.353417 
L 566.180277 -40.354384 
L 567.812516 -40.356791 
L 569.444754 -40.358602 
L 571.076992 -40.359039 
L 572.709231 -40.359039 
L 574.341469 -40.362836 
L 575.973708 -40.362836 
L 577.605946 -40.362836 
L 579.238185 -40.362836 
L 580.870423 -40.365239 
L 582.502662 -40.365599 
L 584.1349 -40.367051 
L 585.767139 -40.367541 
L 587.399377 -40.373287 
L 589.031616 -40.374692 
L 590.663854 -40.376749 
L 592.296093 -40.377225 
L 593.928331 -40.38153 
L 595.56057 -40.386896 
L 597.192808 -40.388347 
L 598.825047 -40.390798 
L 600.457285 -40.394634 
L 602.089524 -40.405776 
L 603.721762 -40.406199 
L 605.354 -40.409627 
L 606.986239 -40.413509 
L 608.618477 -40.418863 
L 610.250716 -40.423087 
L 611.882954 -40.423563 
L 613.515193 -40.430295 
L 615.147431 -40.438883 
L 616.77967 -40.44057 
L 618.411908 -42.825587 
L 620.044147 -42.826066 
L 621.676385 -42.826501 
L 623.308624 -42.929092 
L 624.940862 -42.974158 
L 626.573101 -42.981923 
L 628.205339 -43.03848 
L 629.837578 -43.038884 
L 631.469816 -43.038884 
L 633.102055 -43.039845 
L 633.102055 -71.080067 
L 633.102055 -71.080067 
L 631.469816 -71.079014 
L 629.837578 -71.079014 
L 628.205339 -71.078412 
L 626.573101 -70.988011 
L 624.940862 -70.979671 
L 623.308624 -70.908983 
L 621.676385 -70.746848 
L 620.044147 -70.746276 
L 618.411908 -70.745749 
L 616.77967 -67.689294 
L 615.147431 -67.686956 
L 613.515193 -67.674406 
L 611.882954 -67.667046 
L 610.250716 -67.666515 
L 608.618477 -67.660673 
L 606.986239 -67.652942 
L 605.354 -67.648772 
L 603.721762 -67.645154 
L 602.089524 -67.64457 
L 600.457285 -67.633568 
L 598.825047 -67.629352 
L 597.192808 -67.626769 
L 595.56057 -67.625201 
L 593.928331 -67.617481 
L 592.296093 -67.612727 
L 590.663854 -67.612197 
L 589.031616 -67.610228 
L 587.399377 -67.608613 
L 585.767139 -67.60228 
L 584.1349 -67.601764 
L 582.502662 -67.600196 
L 580.870423 -67.59955 
L 579.238185 -67.59692 
L 577.605946 -67.59692 
L 575.973708 -67.59692 
L 574.341469 -67.59692 
L 572.709231 -67.592665 
L 571.076992 -67.592665 
L 569.444754 -67.592094 
L 567.812516 -67.58988 
L 566.180277 -67.587254 
L 564.548039 -67.586208 
L 562.9158 -67.585132 
L 561.283562 -67.585132 
L 559.651323 -67.581979 
L 558.019085 -67.581979 
L 556.386846 -67.581395 
L 554.754608 -67.578477 
L 553.122369 -67.563164 
L 551.490131 -67.562648 
L 549.857892 -67.542847 
L 548.225654 -67.541163 
L 546.593415 -67.526957 
L 544.961177 -67.526323 
L 543.328938 -67.52526 
L 541.6967 -67.521079 
L 540.064461 -67.516877 
L 538.432223 -67.516361 
L 536.799984 -67.512928 
L 535.167746 -67.511171 
L 533.535508 -67.502787 
L 531.903269 -67.502271 
L 530.271031 -67.499456 
L 528.638792 -67.497179 
L 527.006554 -67.487735 
L 525.374315 -67.487735 
L 523.742077 -67.486663 
L 522.109838 -67.484293 
L 520.4776 -67.479584 
L 518.845361 -67.479068 
L 517.213123 -67.477415 
L 515.580884 -67.475732 
L 513.948646 -67.455348 
L 512.316407 -67.453625 
L 510.684169 -67.447261 
L 509.05193 -67.423507 
L 507.419692 -67.409508 
L 505.787453 -67.40358 
L 504.155215 -66.245768 
L 502.522976 -66.053681 
L 500.890738 -65.905231 
L 499.2585 -65.85318 
L 497.626261 -65.764399 
L 495.994023 -65.744086 
L 494.361784 -64.918396 
L 492.729546 -63.554855 
L 491.097307 -63.496623 
L 489.465069 -63.013771 
L 487.83283 -62.958452 
L 486.200592 -62.170982 
L 484.568353 -62.12906 
L 482.936115 -59.203543 
L 481.303876 -59.194485 
L 479.671638 -59.092887 
L 478.039399 -59.063549 
L 476.407161 -58.976051 
L 474.774922 -58.201635 
L 473.142684 -55.511518 
L 471.510445 -54.486659 
z
"/>
    </defs>
    <g clip-path="url(#pcf25ba3b71)">
     <use xlink:href="#mc7789f6263" x="0" y="216" style="fill: #21918c; fill-opacity: 0.1"/>
    </g>
   </g>
   <g id="matplotlib.axis_5">
    <g id="xtick_5">
     <g id="line2d_9">
      <g>
       <use xlink:href="#mb016b827a0" x="471.510445" y="195.99976" style="stroke: #000000; stroke-width: 0.8"/>
      </g>
     </g>
     <g id="text_10">
      <!-- 0 -->
      <g transform="translate(468.715133 210.59976) scale(0.1 -0.1)">
       <use xlink:href="#NotoSerif-Regular-30"/>
      </g>
     </g>
    </g>
    <g id="xtick_6">
     <g id="line2d_10">
      <g>
       <use xlink:href="#mb016b827a0" x="634.734293" y="195.99976" style="stroke: #000000; stroke-width: 0.8"/>
      </g>
     </g>
     <g id="text_11">
      <!-- 100 -->
      <g transform="translate(626.348356 210.59976) scale(0.1 -0.1)">
       <use xlink:href="#NotoSerif-Regular-31"/>
       <use xlink:href="#NotoSerif-Regular-30" transform="translate(55.899994 0)"/>
       <use xlink:href="#NotoSerif-Regular-30" transform="translate(111.799988 0)"/>
      </g>
     </g>
    </g>
   </g>
   <g id="matplotlib.axis_6">
    <g id="ytick_3">
     <g id="line2d_11"/>
     <g id="text_12">
      <!-- 1.08 -->
      <g style="fill: #21918c" transform="translate(644.681635 162.740044) scale(0.1 -0.1)">
       <defs>
        <path id="NotoSerif-Regular-38" d="M 1747 -64 
Q 1267 -64 944 99 
Q 621 262 457 537 
Q 294 813 294 1146 
Q 294 1453 422 1664 
Q 550 1875 771 2028 
Q 992 2182 1267 2317 
Q 902 2522 672 2803 
Q 442 3085 442 3488 
Q 442 3782 582 4044 
Q 723 4307 1027 4470 
Q 1331 4634 1824 4634 
Q 2426 4634 2755 4323 
Q 3085 4013 3085 3533 
Q 3085 3110 2848 2876 
Q 2611 2643 2221 2451 
Q 2694 2227 2988 1932 
Q 3283 1638 3283 1222 
Q 3283 614 2867 275 
Q 2451 -64 1747 -64 
z
M 1907 2598 
Q 2266 2778 2390 2995 
Q 2515 3213 2515 3546 
Q 2515 3744 2444 3923 
Q 2374 4102 2214 4217 
Q 2054 4333 1786 4333 
Q 1427 4333 1235 4115 
Q 1043 3898 1043 3565 
Q 1043 3219 1260 3008 
Q 1478 2797 1907 2598 
z
M 1779 230 
Q 2195 230 2448 470 
Q 2701 710 2701 1082 
Q 2701 1408 2448 1651 
Q 2195 1894 1574 2163 
Q 1274 2003 1094 1740 
Q 915 1478 915 1120 
Q 915 723 1132 476 
Q 1350 230 1779 230 
z
" transform="scale(0.015625)"/>
       </defs>
       <use xlink:href="#NotoSerif-Regular-31"/>
       <use xlink:href="#NotoSerif-Regular-2e" transform="translate(55.899994 0)"/>
       <use xlink:href="#NotoSerif-Regular-30" transform="translate(80.899979 0)"/>
       <use xlink:href="#NotoSerif-Regular-38" transform="translate(136.799973 0)"/>
      </g>
     </g>
    </g>
   </g>
   <g id="line2d_12">
    <path d="M 471.510445 174.859317 
L 473.142684 173.786825 
L 474.774922 170.902524 
L 476.407161 170.117909 
L 478.039399 170.042417 
L 479.671638 170.016246 
L 481.303876 169.933205 
L 482.936115 169.924649 
L 484.568353 167.191835 
L 486.200592 167.154592 
L 487.83283 166.40722 
L 489.465069 166.357395 
L 491.097307 165.926587 
L 492.729546 165.871729 
L 494.361784 164.477642 
L 495.994023 163.655784 
L 497.626261 163.637163 
L 499.2585 163.554122 
L 500.890738 163.505807 
L 502.522976 163.370424 
L 504.155215 163.210884 
L 505.787453 162.19627 
L 507.419692 162.191238 
L 509.05193 162.178656 
L 510.684169 162.158524 
L 512.316407 162.152988 
L 513.948646 162.151478 
L 515.580884 162.13185 
L 517.213123 162.130341 
L 518.845361 162.128831 
L 520.4776 162.128327 
L 522.109838 162.123798 
L 523.742077 162.121785 
L 525.374315 162.120778 
L 527.006554 162.120778 
L 528.638792 162.111719 
L 530.271031 162.109706 
L 531.903269 162.10719 
L 533.535508 162.106686 
L 535.167746 162.098634 
L 536.799984 162.097124 
L 538.432223 162.094104 
L 540.064461 162.093601 
L 541.6967 162.089575 
L 543.328938 162.086052 
L 544.961177 162.085045 
L 546.593415 162.084542 
L 548.225654 162.070953 
L 549.857892 162.069444 
L 551.490131 162.052332 
L 553.122369 162.051829 
L 554.754608 162.037234 
L 556.386846 162.034717 
L 558.019085 162.034214 
L 559.651323 162.034214 
L 561.283562 162.031194 
L 562.9158 162.031194 
L 564.548039 162.030188 
L 566.180277 162.029181 
L 567.812516 162.026665 
L 569.444754 162.024652 
L 571.076992 162.024148 
L 572.709231 162.024148 
L 574.341469 162.020122 
L 575.973708 162.020122 
L 577.605946 162.020122 
L 579.238185 162.020122 
L 580.870423 162.017606 
L 582.502662 162.017102 
L 584.1349 162.015593 
L 585.767139 162.015089 
L 587.399377 162.00905 
L 589.031616 162.00754 
L 590.663854 162.005527 
L 592.296093 162.005024 
L 593.928331 162.000494 
L 595.56057 161.993952 
L 597.192808 161.992442 
L 598.825047 161.989925 
L 600.457285 161.985899 
L 602.089524 161.974827 
L 603.721762 161.974324 
L 605.354 161.970801 
L 606.986239 161.966774 
L 608.618477 161.960232 
L 610.250716 161.955199 
L 611.882954 161.954696 
L 613.515193 161.94765 
L 615.147431 161.937081 
L 616.77967 161.935068 
L 618.411908 159.214332 
L 620.044147 159.213829 
L 621.676385 159.213326 
L 623.308624 159.080963 
L 624.940862 159.023085 
L 626.573101 159.015033 
L 628.205339 158.941554 
L 629.837578 158.941051 
L 631.469816 158.941051 
L 633.102055 158.940044 
" clip-path="url(#pcf25ba3b71)" style="fill: none; stroke: #21918c; stroke-width: 1.5; stroke-linecap: square"/>
   </g>
   <g id="text_13">
    <!-- file-per-resource -->
    <g transform="translate(508.631094 11.47024) scale(0.11 -0.11)">
     <defs>
      <path id="NotoSerif-Regular-73" d="M 1344 -64 
Q 864 -64 576 109 
Q 288 282 288 614 
Q 288 787 358 883 
Q 429 979 521 1017 
Q 614 1056 691 1056 
Q 691 723 841 483 
Q 992 243 1382 243 
Q 1722 243 1904 406 
Q 2086 570 2086 826 
Q 2086 986 2019 1088 
Q 1952 1190 1782 1289 
Q 1613 1389 1299 1523 
Q 973 1670 758 1808 
Q 544 1946 438 2128 
Q 333 2310 333 2586 
Q 333 3021 662 3254 
Q 992 3488 1536 3488 
Q 1997 3488 2233 3315 
Q 2470 3142 2470 2899 
Q 2470 2726 2352 2620 
Q 2234 2515 2010 2515 
Q 2010 2835 1875 3014 
Q 1741 3194 1459 3194 
Q 1133 3194 992 3050 
Q 851 2906 851 2682 
Q 851 2438 1033 2307 
Q 1216 2176 1645 2003 
Q 1984 1862 2195 1721 
Q 2406 1581 2505 1395 
Q 2605 1210 2605 941 
Q 2605 442 2259 189 
Q 1914 -64 1344 -64 
z
" transform="scale(0.015625)"/>
      <path id="NotoSerif-Regular-75" d="M 1747 -64 
Q 1242 -64 966 233 
Q 691 531 691 1190 
L 691 2726 
Q 691 3008 534 3085 
Q 378 3162 166 3162 
L 147 3162 
L 147 3430 
L 1293 3430 
L 1293 1222 
Q 1293 806 1433 576 
Q 1574 346 1965 346 
Q 2387 346 2579 630 
Q 2771 915 2771 1382 
L 2771 2701 
Q 2771 3002 2617 3082 
Q 2464 3162 2246 3162 
L 2227 3162 
L 2227 3430 
L 3373 3430 
L 3373 698 
Q 3373 416 3529 342 
Q 3686 269 3898 269 
L 3917 269 
L 3917 0 
L 2899 0 
L 2816 518 
L 2784 518 
Q 2586 160 2323 48 
Q 2061 -64 1747 -64 
z
" transform="scale(0.015625)"/>
     </defs>
     <use xlink:href="#NotoSerif-Regular-66"/>
     <use xlink:href="#NotoSerif-Regular-69" transform="translate(36.899994 0)"/>
     <use xlink:href="#NotoSerif-Regular-6c" transform="translate(68.899979 0)"/>
     <use xlink:href="#NotoSerif-Regular-65" transform="translate(99.899963 0)"/>
     <use xlink:href="#NotoSerif-Regular-2d" transform="translate(153.399948 0)"/>
     <use xlink:href="#NotoSerif-Regular-70" transform="translate(184.399933 0)"/>
     <use xlink:href="#NotoSerif-Regular-65" transform="translate(245.799927 0)"/>
     <use xlink:href="#NotoSerif-Regular-72" transform="translate(299.299911 0)"/>
     <use xlink:href="#NotoSerif-Regular-2d" transform="translate(346.399902 0)"/>
     <use xlink:href="#NotoSerif-Regular-72" transform="translate(377.399887 0)"/>
     <use xlink:href="#NotoSerif-Regular-65" transform="translate(424.499878 0)"/>
     <use xlink:href="#NotoSerif-Regular-73" transform="translate(477.999863 0)"/>
     <use xlink:href="#NotoSerif-Regular-6f" transform="translate(523.099854 0)"/>
     <use xlink:href="#NotoSerif-Regular-75" transform="translate(580.79985 0)"/>
     <use xlink:href="#NotoSerif-Regular-72" transform="translate(644.299835 0)"/>
     <use xlink:href="#NotoSerif-Regular-63" transform="translate(691.399826 0)"/>
     <use xlink:href="#NotoSerif-Regular-65" transform="translate(740.599823 0)"/>
    </g>
   </g>
  </g>
  <g id="axes_4">
   <g id="patch_5">
    <path d="M 669.95399 195.99976 
L 847.70476 195.99976 
L 847.70476 14.11024 
L 669.95399 14.11024 
z
" style="fill: #ffffff"/>
   </g>
   <g id="FillBetweenPolyCollection_4">
    <defs>
     <path id="mc71826e36d" d="M 678.03357 -189.601523 
L 678.03357 -41.845204 
L 679.665809 -44.096946 
L 681.298047 -44.397226 
L 682.930286 -44.482793 
L 684.562524 -44.533438 
L 686.194763 -44.541264 
L 687.827001 -44.82805 
L 689.45924 -45.046279 
L 691.091478 -45.342997 
L 692.723717 -45.345077 
L 694.355955 -45.34612 
L 695.988194 -45.355521 
L 697.620432 -45.386777 
L 699.252671 -45.4879 
L 700.884909 -45.632807 
L 702.517148 -45.645801 
L 704.149386 -45.653609 
L 705.781625 -45.661448 
L 707.413863 -45.772942 
L 709.046101 -45.774504 
L 710.67834 -45.876505 
L 712.310578 -45.877022 
L 713.942817 -45.878058 
L 715.575055 -45.878575 
L 717.207294 -45.884811 
L 718.839532 -45.896723 
L 720.471771 -45.901898 
L 722.104009 -45.901898 
L 723.736248 -45.910206 
L 725.368486 -45.910206 
L 727.000725 -45.921575 
L 728.632963 -45.921575 
L 730.265202 -45.924703 
L 731.89744 -45.924703 
L 733.529679 -45.925205 
L 735.161917 -45.925722 
L 736.794156 -45.929371 
L 738.426394 -45.929371 
L 740.058633 -45.931958 
L 741.690871 -45.931958 
L 743.323109 -45.944977 
L 744.955348 -45.944977 
L 746.587586 -45.945493 
L 748.219825 -45.945493 
L 749.852063 -45.950698 
L 751.484302 -45.951219 
L 753.11654 -45.952768 
L 754.748779 -45.952768 
L 756.381017 -45.955897 
L 758.013256 -45.955897 
L 759.645494 -45.957942 
L 761.277733 -45.958445 
L 762.909971 -45.970419 
L 764.54221 -45.970419 
L 766.174448 -45.971451 
L 767.806687 -45.971451 
L 769.438925 -45.977137 
L 771.071164 -45.977654 
L 772.703402 -45.97817 
L 774.335641 -45.978687 
L 775.967879 -45.979726 
L 777.600117 -45.979726 
L 779.232356 -45.981276 
L 780.864594 -45.981276 
L 782.496833 -45.984874 
L 784.129071 -45.984874 
L 785.76131 -45.98539 
L 787.393548 -45.98539 
L 789.025787 -45.990085 
L 790.658025 -45.990605 
L 792.290264 -45.991637 
L 793.922502 -45.991637 
L 795.554741 -46.009359 
L 797.186979 -46.009865 
L 798.819218 -46.010382 
L 800.451456 -46.010382 
L 802.083695 -46.050012 
L 803.715933 -46.050012 
L 805.348172 -46.050528 
L 806.98041 -46.051045 
L 808.612649 -46.234196 
L 810.244887 -46.234196 
L 811.877125 -46.236778 
L 813.509364 -46.236778 
L 815.141602 -46.237295 
L 816.773841 -46.237295 
L 818.406079 -46.237295 
L 820.038318 -46.237295 
L 821.670556 -46.264877 
L 823.302795 -46.265381 
L 824.935033 -46.265381 
L 826.567272 -46.265883 
L 828.19951 -46.409349 
L 829.831749 -46.409349 
L 831.463987 -46.455148 
L 833.096226 -46.455148 
L 834.728464 -46.515081 
L 836.360703 -46.542678 
L 837.992941 -46.572374 
L 839.62518 -46.572374 
L 839.62518 -194.268591 
L 839.62518 -194.268591 
L 837.992941 -194.268591 
L 836.360703 -194.240913 
L 834.728464 -194.215162 
L 833.096226 -194.159341 
L 831.463987 -194.159341 
L 829.831749 -194.116562 
L 828.19951 -194.116562 
L 826.567272 -193.982217 
L 824.935033 -193.981713 
L 823.302795 -193.981713 
L 821.670556 -193.98121 
L 820.038318 -193.955444 
L 818.406079 -193.955444 
L 816.773841 -193.955444 
L 815.141602 -193.955444 
L 813.509364 -193.954955 
L 811.877125 -193.954955 
L 810.244887 -193.952504 
L 808.612649 -193.952504 
L 806.98041 -193.780339 
L 805.348172 -193.779849 
L 803.715933 -193.779358 
L 802.083695 -193.779358 
L 800.451456 -193.74249 
L 798.819218 -193.74249 
L 797.186979 -193.742 
L 795.554741 -193.7415 
L 793.922502 -193.724998 
L 792.290264 -193.724998 
L 790.658025 -193.724018 
L 789.025787 -193.723531 
L 787.393548 -193.719167 
L 785.76131 -193.719167 
L 784.129071 -193.718676 
L 782.496833 -193.718676 
L 780.864594 -193.715229 
L 779.232356 -193.715229 
L 777.600117 -193.713758 
L 775.967879 -193.713758 
L 774.335641 -193.712785 
L 772.703402 -193.712295 
L 771.071164 -193.711805 
L 769.438925 -193.711315 
L 767.806687 -193.705928 
L 766.174448 -193.705928 
L 764.54221 -193.704948 
L 762.909971 -193.704948 
L 761.277733 -193.69377 
L 759.645494 -193.693267 
L 758.013256 -193.691286 
L 756.381017 -193.691286 
L 754.748779 -193.688376 
L 753.11654 -193.688376 
L 751.484302 -193.686905 
L 749.852063 -193.686419 
L 748.219825 -193.681558 
L 746.587586 -193.681558 
L 744.955348 -193.681068 
L 743.323109 -193.681068 
L 741.690871 -193.668923 
L 740.058633 -193.668923 
L 738.426394 -193.666477 
L 736.794156 -193.666477 
L 735.161917 -193.663081 
L 733.529679 -193.662591 
L 731.89744 -193.662086 
L 730.265202 -193.662086 
L 728.632963 -193.659175 
L 727.000725 -193.659175 
L 725.368486 -193.648399 
L 723.736248 -193.648399 
L 722.104009 -193.640602 
L 720.471771 -193.640602 
L 718.839532 -193.635712 
L 717.207294 -193.624472 
L 715.575055 -193.61863 
L 713.942817 -193.618141 
L 712.310578 -193.617164 
L 710.67834 -193.616674 
L 709.046101 -193.520382 
L 707.413863 -193.518925 
L 705.781625 -193.414008 
L 704.149386 -193.406748 
L 702.517148 -193.399458 
L 700.884909 -193.387288 
L 699.252671 -193.251364 
L 697.620432 -193.157215 
L 695.988194 -193.128077 
L 694.355955 -193.11936 
L 692.723717 -193.11839 
L 691.091478 -193.116443 
L 689.45924 -192.837408 
L 687.827001 -192.633888 
L 686.194763 -192.367065 
L 684.562524 -192.359793 
L 682.930286 -192.312801 
L 681.298047 -192.234298 
L 679.665809 -191.955806 
L 678.03357 -189.601523 
z
"/>
    </defs>
    <g clip-path="url(#p6947d41b27)">
     <use xlink:href="#mc71826e36d" x="0" y="216" style="fill: #5ec962; fill-opacity: 0.1"/>
    </g>
   </g>
   <g id="matplotlib.axis_7">
    <g id="xtick_7">
     <g id="line2d_13">
      <g>
       <use xlink:href="#mb016b827a0" x="678.03357" y="195.99976" style="stroke: #000000; stroke-width: 0.8"/>
      </g>
     </g>
     <g id="text_14">
      <!-- 0 -->
      <g transform="translate(675.238258 210.59976) scale(0.1 -0.1)">
       <use xlink:href="#NotoSerif-Regular-30"/>
      </g>
     </g>
    </g>
    <g id="xtick_8">
     <g id="line2d_14">
      <g>
       <use xlink:href="#mb016b827a0" x="841.257418" y="195.99976" style="stroke: #000000; stroke-width: 0.8"/>
      </g>
     </g>
     <g id="text_15">
      <!-- 100 -->
      <g transform="translate(832.871481 210.59976) scale(0.1 -0.1)">
       <use xlink:href="#NotoSerif-Regular-31"/>
       <use xlink:href="#NotoSerif-Regular-30" transform="translate(55.899994 0)"/>
       <use xlink:href="#NotoSerif-Regular-30" transform="translate(111.799988 0)"/>
      </g>
     </g>
    </g>
   </g>
   <g id="matplotlib.axis_8">
    <g id="ytick_4">
     <g id="line2d_15"/>
     <g id="text_16">
      <!-- 1.92 -->
      <g style="fill: #5ec962" transform="translate(851.20476 99.379518) scale(0.1 -0.1)">
       <defs>
        <path id="NotoSerif-Regular-39" d="M 1453 -70 
Q 1094 -70 889 13 
Q 685 96 605 221 
Q 525 346 525 480 
Q 525 602 585 682 
Q 646 762 717 787 
Q 806 589 982 435 
Q 1158 282 1459 282 
Q 1990 282 2243 755 
Q 2496 1229 2528 2195 
Q 2387 2029 2156 1894 
Q 1926 1760 1587 1760 
Q 1030 1760 678 2086 
Q 326 2413 326 3059 
Q 326 3520 489 3875 
Q 653 4230 960 4432 
Q 1267 4634 1696 4634 
Q 2131 4634 2467 4410 
Q 2803 4186 2995 3712 
Q 3187 3238 3187 2483 
Q 3187 1978 3091 1520 
Q 2995 1062 2787 704 
Q 2579 346 2249 138 
Q 1920 -70 1453 -70 
z
M 1728 2138 
Q 2042 2138 2246 2294 
Q 2451 2451 2534 2656 
Q 2522 3514 2294 3898 
Q 2067 4282 1696 4282 
Q 1363 4282 1174 3984 
Q 986 3686 986 3123 
Q 986 2598 1171 2368 
Q 1357 2138 1728 2138 
z
" transform="scale(0.015625)"/>
       </defs>
       <use xlink:href="#NotoSerif-Regular-31"/>
       <use xlink:href="#NotoSerif-Regular-2e" transform="translate(55.899994 0)"/>
       <use xlink:href="#NotoSerif-Regular-39" transform="translate(80.899979 0)"/>
       <use xlink:href="#NotoSerif-Regular-32" transform="translate(136.799973 0)"/>
      </g>
     </g>
    </g>
   </g>
   <g id="line2d_16">
    <path d="M 678.03357 100.276637 
L 679.665809 97.973624 
L 681.298047 97.684238 
L 682.930286 97.602203 
L 684.562524 97.553385 
L 686.194763 97.545835 
L 687.827001 97.269031 
L 689.45924 97.058156 
L 691.091478 96.77028 
L 692.723717 96.768267 
L 694.355955 96.76726 
L 695.988194 96.758201 
L 697.620432 96.728004 
L 699.252671 96.630368 
L 700.884909 96.489952 
L 702.517148 96.47737 
L 704.149386 96.469821 
L 705.781625 96.462272 
L 707.413863 96.354067 
L 709.046101 96.352557 
L 710.67834 96.253411 
L 712.310578 96.252907 
L 713.942817 96.251901 
L 715.575055 96.251397 
L 717.207294 96.245358 
L 718.839532 96.233783 
L 720.471771 96.22875 
L 722.104009 96.22875 
L 723.736248 96.220697 
L 725.368486 96.220697 
L 727.000725 96.209625 
L 728.632963 96.209625 
L 730.265202 96.206605 
L 731.89744 96.206605 
L 733.529679 96.206102 
L 735.161917 96.205599 
L 736.794156 96.202076 
L 738.426394 96.202076 
L 740.058633 96.199559 
L 741.690871 96.199559 
L 743.323109 96.186977 
L 744.955348 96.186977 
L 746.587586 96.186474 
L 748.219825 96.186474 
L 749.852063 96.181441 
L 751.484302 96.180938 
L 753.11654 96.179428 
L 754.748779 96.179428 
L 756.381017 96.176409 
L 758.013256 96.176409 
L 759.645494 96.174395 
L 761.277733 96.173892 
L 762.909971 96.162317 
L 764.54221 96.162317 
L 766.174448 96.16131 
L 767.806687 96.16131 
L 769.438925 96.155774 
L 771.071164 96.155271 
L 772.703402 96.154767 
L 774.335641 96.154264 
L 775.967879 96.153258 
L 777.600117 96.153258 
L 779.232356 96.151748 
L 780.864594 96.151748 
L 782.496833 96.148225 
L 784.129071 96.148225 
L 785.76131 96.147722 
L 787.393548 96.147722 
L 789.025787 96.143192 
L 790.658025 96.142689 
L 792.290264 96.141682 
L 793.922502 96.141682 
L 795.554741 96.124571 
L 797.186979 96.124067 
L 798.819218 96.123564 
L 800.451456 96.123564 
L 802.083695 96.085315 
L 803.715933 96.085315 
L 805.348172 96.084811 
L 806.98041 96.084308 
L 808.612649 95.90665 
L 810.244887 95.90665 
L 811.877125 95.904134 
L 813.509364 95.904134 
L 815.141602 95.90363 
L 816.773841 95.90363 
L 818.406079 95.90363 
L 820.038318 95.90363 
L 821.670556 95.876957 
L 823.302795 95.876453 
L 824.935033 95.876453 
L 826.567272 95.87595 
L 828.19951 95.737044 
L 829.831749 95.737044 
L 831.463987 95.692756 
L 833.096226 95.692756 
L 834.728464 95.634879 
L 836.360703 95.608205 
L 837.992941 95.579518 
L 839.62518 95.579518 
" clip-path="url(#p6947d41b27)" style="fill: none; stroke: #5ec962; stroke-width: 1.5; stroke-linecap: square"/>
   </g>
   <g id="text_17">
    <!-- mixed -->
    <g transform="translate(742.373203 11.47024) scale(0.11 -0.11)">
     <defs>
      <path id="NotoSerif-Regular-6d" d="M 179 0 
L 179 269 
L 262 269 
Q 480 269 617 349 
Q 755 429 755 730 
L 755 2726 
Q 755 3008 614 3085 
Q 474 3162 262 3162 
L 243 3162 
L 243 3430 
L 1248 3430 
L 1331 2912 
L 1363 2912 
Q 1555 3270 1795 3382 
Q 2035 3494 2330 3494 
Q 2637 3494 2886 3363 
Q 3136 3232 3258 2912 
L 3309 2912 
Q 3501 3270 3760 3382 
Q 4019 3494 4314 3494 
Q 4806 3494 5081 3196 
Q 5357 2899 5357 2240 
L 5357 730 
Q 5357 429 5494 349 
Q 5632 269 5850 269 
L 5869 269 
L 5869 0 
L 4755 0 
L 4755 2208 
Q 4755 2624 4604 2854 
Q 4454 3085 4083 3085 
Q 3821 3085 3664 2953 
Q 3507 2822 3440 2604 
Q 3373 2387 3373 2131 
L 3373 730 
Q 3373 429 3510 349 
Q 3648 269 3866 269 
L 3885 269 
L 3885 0 
L 2771 0 
L 2771 2208 
Q 2771 2624 2620 2854 
Q 2470 3085 2099 3085 
Q 1824 3085 1661 2941 
Q 1498 2797 1427 2560 
Q 1357 2323 1357 2048 
L 1357 698 
Q 1357 416 1513 342 
Q 1670 269 1882 269 
L 1901 269 
L 1901 0 
L 179 0 
z
" transform="scale(0.015625)"/>
      <path id="NotoSerif-Regular-78" d="M 32 0 
L 32 269 
L 90 269 
Q 320 269 461 355 
Q 602 442 787 678 
L 1594 1722 
L 787 2822 
Q 646 2989 515 3075 
Q 384 3162 237 3162 
L 154 3162 
L 154 3430 
L 1779 3430 
L 1779 3162 
L 1760 3162 
Q 1542 3162 1468 3107 
Q 1395 3053 1395 2976 
Q 1395 2912 1433 2848 
Q 1472 2784 1542 2682 
L 1965 2106 
L 2298 2586 
Q 2368 2694 2413 2793 
Q 2458 2893 2458 2976 
Q 2458 3091 2358 3126 
Q 2259 3162 2112 3162 
L 2093 3162 
L 2093 3430 
L 3494 3430 
L 3494 3162 
L 3437 3162 
Q 3251 3162 3116 3088 
Q 2982 3014 2790 2752 
L 2131 1875 
L 3072 608 
Q 3213 422 3337 345 
Q 3462 269 3584 269 
L 3667 269 
L 3667 0 
L 2016 0 
L 2016 269 
L 2048 269 
Q 2432 269 2432 480 
Q 2432 550 2384 636 
Q 2336 723 2189 922 
L 1760 1498 
L 1312 870 
Q 1254 794 1196 682 
Q 1139 570 1139 467 
Q 1139 365 1232 317 
Q 1325 269 1536 269 
L 1555 269 
L 1555 0 
L 32 0 
z
" transform="scale(0.015625)"/>
     </defs>
     <use xlink:href="#NotoSerif-Regular-6d"/>
     <use xlink:href="#NotoSerif-Regular-69" transform="translate(94.499985 0)"/>
     <use xlink:href="#NotoSerif-Regular-78" transform="translate(126.499969 0)"/>
     <use xlink:href="#NotoSerif-Regular-65" transform="translate(184.299957 0)"/>
     <use xlink:href="#NotoSerif-Regular-64" transform="translate(237.799942 0)"/>
    </g>
   </g>
  </g>
  <g id="axes_5">
   <g id="patch_6">
    <path d="M 876.477115 195.99976 
L 1054.227885 195.99976 
L 1054.227885 14.11024 
L 876.477115 14.11024 
z
" style="fill: #ffffff"/>
   </g>
   <g id="FillBetweenPolyCollection_5">
    <defs>
     <path id="m91842c802a" d="M 884.556695 -104.779773 
L 884.556695 -24.190339 
L 886.188934 -24.759873 
L 887.821172 -25.383272 
L 889.453411 -25.5103 
L 891.085649 -25.585165 
L 892.717888 -25.729863 
L 894.350126 -25.784977 
L 895.982365 -25.906086 
L 897.614603 -26.327375 
L 899.246842 -26.409909 
L 900.87908 -26.413544 
L 902.511319 -26.414035 
L 904.143557 -26.439267 
L 905.775796 -26.454998 
L 907.408034 -26.457598 
L 909.040273 -26.457598 
L 910.672511 -26.479001 
L 912.30475 -26.488841 
L 913.936988 -26.526284 
L 915.569226 -26.75733 
L 917.201465 -26.871099 
L 918.833703 -26.871099 
L 920.465942 -26.871625 
L 922.09818 -26.875732 
L 923.730419 -26.888835 
L 925.362657 -26.909342 
L 926.994896 -26.909831 
L 928.627134 -26.909831 
L 930.259373 -26.917108 
L 931.891611 -26.917623 
L 933.52385 -26.921746 
L 935.156088 -26.921746 
L 936.788327 -26.935207 
L 938.420565 -26.935703 
L 940.052804 -26.943946 
L 941.685042 -26.943946 
L 943.317281 -26.983732 
L 944.949519 -26.984247 
L 946.581758 -26.985276 
L 948.213996 -26.985276 
L 949.846234 -27.038497 
L 951.478473 -27.038991 
L 953.110711 -27.042084 
L 954.74295 -27.042084 
L 956.375188 -27.064094 
L 958.007427 -27.064094 
L 959.639665 -27.064608 
L 961.271904 -27.064608 
L 962.904142 -27.096087 
L 964.536381 -27.096087 
L 966.168619 -27.09974 
L 967.800858 -27.09974 
L 969.433096 -27.131683 
L 971.065335 -27.132206 
L 972.697573 -27.135278 
L 974.329812 -27.135278 
L 975.96205 -27.148351 
L 977.594289 -27.148351 
L 979.226527 -27.150419 
L 980.858766 -27.150419 
L 982.491004 -27.155641 
L 984.123242 -27.155641 
L 985.755481 -27.157195 
L 987.387719 -27.15772 
L 989.019958 -27.161904 
L 990.652196 -27.161904 
L 992.284435 -27.163982 
L 993.916673 -27.163982 
L 995.548912 -27.166079 
L 997.18115 -27.166079 
L 998.813389 -27.167632 
L 1000.445627 -27.167632 
L 1002.077866 -27.174465 
L 1003.710104 -27.174465 
L 1005.342343 -27.174989 
L 1006.974581 -27.174989 
L 1008.60682 -27.177084 
L 1010.239058 -27.177609 
L 1011.871297 -27.181755 
L 1013.503535 -27.182279 
L 1015.135774 -27.195741 
L 1016.768012 -27.195741 
L 1018.40025 -27.23551 
L 1020.032489 -27.23551 
L 1021.664727 -27.301685 
L 1023.296966 -27.301685 
L 1024.929204 -27.302704 
L 1026.561443 -27.303194 
L 1028.193681 -27.45104 
L 1029.82592 -27.451557 
L 1031.458158 -27.452604 
L 1033.090397 -27.452604 
L 1034.722635 -27.551459 
L 1036.354874 -27.551459 
L 1037.987112 -27.554076 
L 1039.619351 -27.554076 
L 1041.251589 -27.558216 
L 1042.883828 -27.558731 
L 1044.516066 -27.560302 
L 1046.148305 -27.560302 
L 1046.148305 -107.992316 
L 1046.148305 -107.992316 
L 1044.516066 -107.992316 
L 1042.883828 -107.990847 
L 1041.251589 -107.990348 
L 1039.619351 -107.986382 
L 1037.987112 -107.986382 
L 1036.354874 -107.983933 
L 1034.722635 -107.983933 
L 1033.090397 -107.889244 
L 1031.458158 -107.889244 
L 1029.82592 -107.888264 
L 1028.193681 -107.887768 
L 1026.561443 -107.747832 
L 1024.929204 -107.747309 
L 1023.296966 -107.746301 
L 1021.664727 -107.746301 
L 1020.032489 -107.683785 
L 1018.40025 -107.683785 
L 1016.768012 -107.646541 
L 1015.135774 -107.646541 
L 1013.503535 -107.633657 
L 1011.871297 -107.633169 
L 1010.239058 -107.629207 
L 1008.60682 -107.628719 
L 1006.974581 -107.626761 
L 1005.342343 -107.626761 
L 1003.710104 -107.626272 
L 1002.077866 -107.626272 
L 1000.445627 -107.619932 
L 998.813389 -107.619932 
L 997.18115 -107.618445 
L 995.548912 -107.618445 
L 993.916673 -107.616488 
L 992.284435 -107.616488 
L 990.652196 -107.614513 
L 989.019958 -107.614513 
L 987.387719 -107.61059 
L 985.755481 -107.610102 
L 984.123242 -107.608616 
L 982.491004 -107.608616 
L 980.858766 -107.603705 
L 979.226527 -107.603705 
L 977.594289 -107.60172 
L 975.96205 -107.60172 
L 974.329812 -107.58946 
L 972.697573 -107.58946 
L 971.065335 -107.586452 
L 969.433096 -107.585962 
L 967.800858 -107.556093 
L 966.168619 -107.556093 
L 964.536381 -107.552653 
L 962.904142 -107.552653 
L 961.271904 -107.523332 
L 959.639665 -107.523332 
L 958.007427 -107.522833 
L 956.375188 -107.522833 
L 954.74295 -107.502284 
L 953.110711 -107.502284 
L 951.478473 -107.499297 
L 949.846234 -107.498778 
L 948.213996 -107.44864 
L 946.581758 -107.44864 
L 944.949519 -107.447643 
L 943.317281 -107.447144 
L 941.685042 -107.409918 
L 940.052804 -107.409918 
L 938.420565 -107.401948 
L 936.788327 -107.40143 
L 935.156088 -107.388545 
L 933.52385 -107.388545 
L 931.891611 -107.384562 
L 930.259373 -107.384064 
L 928.627134 -107.377154 
L 926.994896 -107.377154 
L 925.362657 -107.37663 
L 923.730419 -107.356604 
L 922.09818 -107.344374 
L 920.465942 -107.340374 
L 918.833703 -107.339887 
L 917.201465 -107.339887 
L 915.569226 -107.229713 
L 913.936988 -107.007806 
L 912.30475 -106.972291 
L 910.672511 -106.962878 
L 909.040273 -106.942734 
L 907.408034 -106.942734 
L 905.775796 -106.940268 
L 904.143557 -106.9256 
L 902.511319 -106.902192 
L 900.87908 -106.90167 
L 899.246842 -106.898212 
L 897.614603 -106.821656 
L 895.982365 -106.423171 
L 894.350126 -106.305137 
L 892.717888 -106.253853 
L 891.085649 -106.114822 
L 889.453411 -106.044782 
L 887.821172 -105.927602 
L 886.188934 -105.345153 
L 884.556695 -104.779773 
z
"/>
    </defs>
    <g clip-path="url(#pe6d48965da)">
     <use xlink:href="#m91842c802a" x="0" y="216" style="fill: #fde725; fill-opacity: 0.1"/>
    </g>
   </g>
   <g id="matplotlib.axis_9">
    <g id="xtick_9">
     <g id="line2d_17">
      <g>
       <use xlink:href="#mb016b827a0" x="884.556695" y="195.99976" style="stroke: #000000; stroke-width: 0.8"/>
      </g>
     </g>
     <g id="text_18">
      <!-- 0 -->
      <g transform="translate(881.761383 210.59976) scale(0.1 -0.1)">
       <use xlink:href="#NotoSerif-Regular-30"/>
      </g>
     </g>
    </g>
    <g id="xtick_10">
     <g id="line2d_18">
      <g>
       <use xlink:href="#mb016b827a0" x="1047.780543" y="195.99976" style="stroke: #000000; stroke-width: 0.8"/>
      </g>
     </g>
     <g id="text_19">
      <!-- 100 -->
      <g transform="translate(1039.394606 210.59976) scale(0.1 -0.1)">
       <use xlink:href="#NotoSerif-Regular-31"/>
       <use xlink:href="#NotoSerif-Regular-30" transform="translate(55.899994 0)"/>
       <use xlink:href="#NotoSerif-Regular-30" transform="translate(111.799988 0)"/>
      </g>
     </g>
    </g>
   </g>
   <g id="matplotlib.axis_10">
    <g id="ytick_5">
     <g id="line2d_19"/>
     <g id="text_20">
      <!-- 1.22 -->
      <g style="fill: #fde725" transform="translate(1057.727885 152.023691) scale(0.1 -0.1)">
       <use xlink:href="#NotoSerif-Regular-31"/>
       <use xlink:href="#NotoSerif-Regular-2e" transform="translate(55.899994 0)"/>
       <use xlink:href="#NotoSerif-Regular-32" transform="translate(80.899979 0)"/>
       <use xlink:href="#NotoSerif-Regular-32" transform="translate(136.799973 0)"/>
      </g>
     </g>
    </g>
   </g>
   <g id="line2d_20">
    <path d="M 884.556695 151.514944 
L 886.188934 150.947487 
L 887.821172 150.344563 
L 889.453411 150.222459 
L 891.085649 150.150006 
L 892.717888 150.008142 
L 894.350126 149.954943 
L 895.982365 149.835372 
L 897.614603 149.425485 
L 899.246842 149.34594 
L 900.87908 149.342393 
L 902.511319 149.341886 
L 904.143557 149.317567 
L 905.775796 149.302367 
L 907.408034 149.299834 
L 909.040273 149.299834 
L 910.672511 149.279061 
L 912.30475 149.269434 
L 913.936988 149.232955 
L 915.569226 149.006478 
L 917.201465 148.894507 
L 918.833703 148.894507 
L 920.465942 148.894 
L 922.09818 148.889947 
L 923.730419 148.87728 
L 925.362657 148.857014 
L 926.994896 148.856507 
L 928.627134 148.856507 
L 930.259373 148.849414 
L 931.891611 148.848908 
L 933.52385 148.844854 
L 935.156088 148.844854 
L 936.788327 148.831681 
L 938.420565 148.831175 
L 940.052804 148.823068 
L 941.685042 148.823068 
L 943.317281 148.784562 
L 944.949519 148.784055 
L 946.581758 148.783042 
L 948.213996 148.783042 
L 949.846234 148.731363 
L 951.478473 148.730856 
L 953.110711 148.727816 
L 954.74295 148.727816 
L 956.375188 148.706537 
L 958.007427 148.706537 
L 959.639665 148.70603 
L 961.271904 148.70603 
L 962.904142 148.67563 
L 964.536381 148.67563 
L 966.168619 148.672084 
L 967.800858 148.672084 
L 969.433096 148.641178 
L 971.065335 148.640671 
L 972.697573 148.637631 
L 974.329812 148.637631 
L 975.96205 148.624965 
L 977.594289 148.624965 
L 979.226527 148.622938 
L 980.858766 148.622938 
L 982.491004 148.617871 
L 984.123242 148.617871 
L 985.755481 148.616351 
L 987.387719 148.615845 
L 989.019958 148.611791 
L 990.652196 148.611791 
L 992.284435 148.609765 
L 993.916673 148.609765 
L 995.548912 148.607738 
L 997.18115 148.607738 
L 998.813389 148.606218 
L 1000.445627 148.606218 
L 1002.077866 148.599632 
L 1003.710104 148.599632 
L 1005.342343 148.599125 
L 1006.974581 148.599125 
L 1008.60682 148.597098 
L 1010.239058 148.596592 
L 1011.871297 148.592538 
L 1013.503535 148.592032 
L 1015.135774 148.578859 
L 1016.768012 148.578859 
L 1018.40025 148.540353 
L 1020.032489 148.540353 
L 1021.664727 148.476007 
L 1023.296966 148.476007 
L 1024.929204 148.474994 
L 1026.561443 148.474487 
L 1028.193681 148.330596 
L 1029.82592 148.330089 
L 1031.458158 148.329076 
L 1033.090397 148.329076 
L 1034.722635 148.232304 
L 1036.354874 148.232304 
L 1037.987112 148.229771 
L 1039.619351 148.229771 
L 1041.251589 148.225718 
L 1042.883828 148.225211 
L 1044.516066 148.223691 
L 1046.148305 148.223691 
" clip-path="url(#pe6d48965da)" style="fill: none; stroke: #fde725; stroke-width: 1.5; stroke-linecap: square"/>
   </g>
   <g id="text_21">
    <!-- single-file -->
    <g transform="translate(939.816172 11.47024) scale(0.11 -0.11)">
     <defs>
      <path id="NotoSerif-Regular-67" d="M 1478 -1536 
Q 813 -1536 480 -1289 
Q 147 -1043 147 -602 
Q 147 -224 390 -32 
Q 634 160 947 218 
Q 819 275 707 406 
Q 595 538 595 742 
Q 595 934 694 1075 
Q 794 1216 1011 1344 
Q 736 1459 585 1724 
Q 435 1990 435 2310 
Q 435 2861 736 3177 
Q 1037 3494 1638 3494 
Q 1869 3494 2073 3430 
Q 2278 3366 2368 3283 
Q 2458 3386 2618 3507 
Q 2778 3629 2989 3629 
Q 3181 3629 3273 3529 
Q 3366 3430 3366 3296 
Q 3366 3162 3286 3062 
Q 3206 2963 3027 2963 
Q 3027 3034 2985 3107 
Q 2944 3181 2816 3181 
Q 2669 3181 2541 3104 
Q 2650 2970 2720 2787 
Q 2790 2605 2790 2330 
Q 2790 1856 2505 1542 
Q 2221 1229 1638 1229 
Q 1562 1229 1462 1238 
Q 1363 1248 1299 1261 
Q 1178 1197 1088 1101 
Q 998 1005 998 858 
Q 998 742 1072 678 
Q 1146 614 1395 614 
L 2118 614 
Q 2688 614 2931 345 
Q 3174 77 3174 -339 
Q 3174 -890 2761 -1213 
Q 2349 -1536 1478 -1536 
z
M 1619 1536 
Q 1933 1536 2061 1728 
Q 2189 1920 2189 2336 
Q 2189 2771 2057 2976 
Q 1926 3181 1613 3181 
Q 1306 3181 1171 2969 
Q 1037 2758 1037 2330 
Q 1037 1920 1174 1728 
Q 1312 1536 1619 1536 
z
M 1491 -1222 
Q 1952 -1222 2201 -1123 
Q 2451 -1024 2550 -848 
Q 2650 -672 2650 -448 
Q 2650 -154 2483 -54 
Q 2317 45 1997 45 
L 1370 45 
Q 1190 45 1030 -3 
Q 870 -51 768 -179 
Q 666 -307 666 -563 
Q 666 -749 736 -899 
Q 806 -1050 985 -1136 
Q 1165 -1222 1491 -1222 
z
" transform="scale(0.015625)"/>
     </defs>
     <use xlink:href="#NotoSerif-Regular-73"/>
     <use xlink:href="#NotoSerif-Regular-69" transform="translate(45.099991 0)"/>
     <use xlink:href="#NotoSerif-Regular-6e" transform="translate(77.099976 0)"/>
     <use xlink:href="#NotoSerif-Regular-67" transform="translate(141.59996 0)"/>
     <use xlink:href="#NotoSerif-Regular-6c" transform="translate(195.399948 0)"/>
     <use xlink:href="#NotoSerif-Regular-65" transform="translate(226.399933 0)"/>
     <use xlink:href="#NotoSerif-Regular-2d" transform="translate(279.899918 0)"/>
     <use xlink:href="#NotoSerif-Regular-66" transform="translate(310.899902 0)"/>
     <use xlink:href="#NotoSerif-Regular-69" transform="translate(347.799896 0)"/>
     <use xlink:href="#NotoSerif-Regular-6c" transform="translate(379.799881 0)"/>
     <use xlink:href="#NotoSerif-Regular-65" transform="translate(410.799866 0)"/>
    </g>
   </g>
  </g>
 </g>
 <defs>
  <clipPath id="p2f7b267549">
   <rect x="50.384615" y="14.11024" width="177.75077" height="181.88952"/>
  </clipPath>
  <clipPath id="pb076e63455">
   <rect x="256.90774" y="14.11024" width="177.75077" height="181.88952"/>
  </clipPath>
  <clipPath id="pcf25ba3b71">
   <rect x="463.430865" y="14.11024" width="177.75077" height="181.88952"/>
  </clipPath>
  <clipPath id="p6947d41b27">
   <rect x="669.95399" y="14.11024" width="177.75077" height="181.88952"/>
  </clipPath>
  <clipPath id="pe6d48965da">
   <rect x="876.477115" y="14.11024" width="177.75077" height="181.88952"/>
  </clipPath>
 </defs>
</svg>
