<?xml version="1.0" encoding="utf-8" standalone="no"?>
<!DOCTYPE svg PUBLIC "-//W3C//DTD SVG 1.1//EN"
  "http://www.w3.org/Graphics/SVG/1.1/DTD/svg11.dtd">
<svg xmlns:xlink="http://www.w3.org/1999/xlink" width="576pt" height="144pt" viewBox="0 0 576 144" xmlns="http://www.w3.org/2000/svg" version="1.1">
 <metadata>
  <rdf:RDF xmlns:dc="http://purl.org/dc/elements/1.1/" xmlns:cc="http://creativecommons.org/ns#" xmlns:rdf="http://www.w3.org/1999/02/22-rdf-syntax-ns#">
   <cc:Work>
    <dc:type rdf:resource="http://purl.org/dc/dcmitype/StillImage"/>
    <dc:date>2025-06-29T21:07:37.569691</dc:date>
    <dc:format>image/svg+xml</dc:format>
    <dc:creator>
     <cc:Agent>
      <dc:title>Matplotlib v3.10.3, https://matplotlib.org/</dc:title>
     </cc:Agent>
    </dc:creator>
   </cc:Work>
  </rdf:RDF>
 </metadata>
 <defs>
  <style type="text/css">*{stroke-linejoin: round; stroke-linecap: butt}</style>
 </defs>
 <g id="figure_1">
  <g id="patch_1">
   <path d="M 0 144 
L 576 144 
L 576 0 
L 0 0 
z
" style="fill: #ffffff"/>
  </g>
  <g id="axes_1">
   <g id="patch_2">
    <path d="M 260.8 96.190625 
L 565.2 96.190625 
L 565.2 10.8 
L 260.8 10.8 
z
" style="fill: #ffffff"/>
   </g>
   <g id="PathCollection_1">
    <defs>
     <path id="m0dc112c263" d="M 0 1.5 
C 0.397805 1.5 0.77937 1.341951 1.06066 1.06066 
C 1.341951 0.77937 1.5 0.397805 1.5 0 
C 1.5 -0.397805 1.341951 -0.77937 1.06066 -1.06066 
C 0.77937 -1.341951 0.397805 -1.5 0 -1.5 
C -0.397805 -1.5 -0.77937 -1.341951 -1.06066 -1.06066 
C -1.341951 -0.77937 -1.5 -0.397805 -1.5 0 
C -1.5 0.397805 -1.341951 0.77937 -1.06066 1.06066 
C -0.77937 1.341951 -0.397805 1.5 0 1.5 
z
" style="stroke: #440154"/>
    </defs>
    <g clip-path="url(#p4743b98acf)">
     <use xlink:href="#m0dc112c263" x="278.858905" y="14.681392" style="fill: #440154; stroke: #440154"/>
     <use xlink:href="#m0dc112c263" x="274.674065" y="14.681392" style="fill: #440154; stroke: #440154"/>
     <use xlink:href="#m0dc112c263" x="274.636364" y="14.681392" style="fill: #440154; stroke: #440154"/>
     <use xlink:href="#m0dc112c263" x="280.819371" y="14.681392" style="fill: #440154; stroke: #440154"/>
     <use xlink:href="#m0dc112c263" x="279.235918" y="14.681392" style="fill: #440154; stroke: #440154"/>
     <use xlink:href="#m0dc112c263" x="280.178449" y="14.681392" style="fill: #440154; stroke: #440154"/>
     <use xlink:href="#m0dc112c263" x="274.674065" y="14.681392" style="fill: #440154; stroke: #440154"/>
     <use xlink:href="#m0dc112c263" x="281.347189" y="14.681392" style="fill: #440154; stroke: #440154"/>
     <use xlink:href="#m0dc112c263" x="279.235918" y="14.681392" style="fill: #440154; stroke: #440154"/>
     <use xlink:href="#m0dc112c263" x="300.009314" y="14.681392" style="fill: #440154; stroke: #440154"/>
     <use xlink:href="#m0dc112c263" x="280.442358" y="14.681392" style="fill: #440154; stroke: #440154"/>
     <use xlink:href="#m0dc112c263" x="279.235918" y="14.681392" style="fill: #440154; stroke: #440154"/>
     <use xlink:href="#m0dc112c263" x="280.178449" y="14.681392" style="fill: #440154; stroke: #440154"/>
     <use xlink:href="#m0dc112c263" x="284.928809" y="14.681392" style="fill: #440154; stroke: #440154"/>
     <use xlink:href="#m0dc112c263" x="297.634134" y="14.681392" style="fill: #440154; stroke: #440154"/>
     <use xlink:href="#m0dc112c263" x="274.674065" y="14.681392" style="fill: #440154; stroke: #440154"/>
     <use xlink:href="#m0dc112c263" x="292.355957" y="14.681392" style="fill: #440154; stroke: #440154"/>
     <use xlink:href="#m0dc112c263" x="274.711766" y="14.681392" style="fill: #440154; stroke: #440154"/>
     <use xlink:href="#m0dc112c263" x="280.178449" y="14.681392" style="fill: #440154; stroke: #440154"/>
     <use xlink:href="#m0dc112c263" x="280.366956" y="14.681392" style="fill: #440154; stroke: #440154"/>
     <use xlink:href="#m0dc112c263" x="282.779837" y="14.681392" style="fill: #440154; stroke: #440154"/>
     <use xlink:href="#m0dc112c263" x="300.122418" y="14.681392" style="fill: #440154; stroke: #440154"/>
     <use xlink:href="#m0dc112c263" x="274.636364" y="14.681392" style="fill: #440154; stroke: #440154"/>
     <use xlink:href="#m0dc112c263" x="274.711766" y="14.681392" style="fill: #440154; stroke: #440154"/>
     <use xlink:href="#m0dc112c263" x="279.650632" y="14.681392" style="fill: #440154; stroke: #440154"/>
     <use xlink:href="#m0dc112c263" x="279.235918" y="14.681392" style="fill: #440154; stroke: #440154"/>
     <use xlink:href="#m0dc112c263" x="301.818974" y="14.681392" style="fill: #440154; stroke: #440154"/>
     <use xlink:href="#m0dc112c263" x="287.94491" y="14.681392" style="fill: #440154; stroke: #440154"/>
     <use xlink:href="#m0dc112c263" x="279.989943" y="14.681392" style="fill: #440154; stroke: #440154"/>
     <use xlink:href="#m0dc112c263" x="279.235918" y="14.681392" style="fill: #440154; stroke: #440154"/>
    </g>
   </g>
   <g id="PathCollection_2">
    <defs>
     <path id="m8e91da07c2" d="M 0 1.5 
C 0.397805 1.5 0.77937 1.341951 1.06066 1.06066 
C 1.341951 0.77937 1.5 0.397805 1.5 0 
C 1.5 -0.397805 1.341951 -0.77937 1.06066 -1.06066 
C 0.77937 -1.341951 0.397805 -1.5 0 -1.5 
C -0.397805 -1.5 -0.77937 -1.341951 -1.06066 -1.06066 
C -1.341951 -0.77937 -1.5 -0.397805 -1.5 0 
C -1.5 0.397805 -1.341951 0.77937 -1.06066 1.06066 
C -0.77937 1.341951 -0.397805 1.5 0 1.5 
z
" style="stroke: #3b528b"/>
    </defs>
    <g clip-path="url(#p4743b98acf)">
     <use xlink:href="#m8e91da07c2" x="276.33292" y="34.088352" style="fill: #3b528b; stroke: #3b528b"/>
     <use xlink:href="#m8e91da07c2" x="274.636364" y="34.088352" style="fill: #3b528b; stroke: #3b528b"/>
     <use xlink:href="#m8e91da07c2" x="275.013376" y="34.088352" style="fill: #3b528b; stroke: #3b528b"/>
     <use xlink:href="#m8e91da07c2" x="276.144414" y="34.088352" style="fill: #3b528b; stroke: #3b528b"/>
     <use xlink:href="#m8e91da07c2" x="275.767402" y="34.088352" style="fill: #3b528b; stroke: #3b528b"/>
     <use xlink:href="#m8e91da07c2" x="277.086946" y="34.088352" style="fill: #3b528b; stroke: #3b528b"/>
     <use xlink:href="#m8e91da07c2" x="274.674065" y="34.088352" style="fill: #3b528b; stroke: #3b528b"/>
     <use xlink:href="#m8e91da07c2" x="276.370622" y="34.088352" style="fill: #3b528b; stroke: #3b528b"/>
     <use xlink:href="#m8e91da07c2" x="277.086946" y="34.088352" style="fill: #3b528b; stroke: #3b528b"/>
     <use xlink:href="#m8e91da07c2" x="277.20005" y="34.088352" style="fill: #3b528b; stroke: #3b528b"/>
     <use xlink:href="#m8e91da07c2" x="276.860738" y="34.088352" style="fill: #3b528b; stroke: #3b528b"/>
     <use xlink:href="#m8e91da07c2" x="277.086946" y="34.088352" style="fill: #3b528b; stroke: #3b528b"/>
     <use xlink:href="#m8e91da07c2" x="275.767402" y="34.088352" style="fill: #3b528b; stroke: #3b528b"/>
     <use xlink:href="#m8e91da07c2" x="282.779837" y="34.088352" style="fill: #3b528b; stroke: #3b528b"/>
     <use xlink:href="#m8e91da07c2" x="275.541194" y="34.088352" style="fill: #3b528b; stroke: #3b528b"/>
     <use xlink:href="#m8e91da07c2" x="275.42809" y="34.088352" style="fill: #3b528b; stroke: #3b528b"/>
     <use xlink:href="#m8e91da07c2" x="274.674065" y="34.088352" style="fill: #3b528b; stroke: #3b528b"/>
     <use xlink:href="#m8e91da07c2" x="275.654298" y="34.088352" style="fill: #3b528b; stroke: #3b528b"/>
     <use xlink:href="#m8e91da07c2" x="275.767402" y="34.088352" style="fill: #3b528b; stroke: #3b528b"/>
     <use xlink:href="#m8e91da07c2" x="275.955908" y="34.088352" style="fill: #3b528b; stroke: #3b528b"/>
     <use xlink:href="#m8e91da07c2" x="551.363636" y="34.088352" style="fill: #3b528b; stroke: #3b528b"/>
     <use xlink:href="#m8e91da07c2" x="277.124647" y="34.088352" style="fill: #3b528b; stroke: #3b528b"/>
     <use xlink:href="#m8e91da07c2" x="274.636364" y="34.088352" style="fill: #3b528b; stroke: #3b528b"/>
     <use xlink:href="#m8e91da07c2" x="274.674065" y="34.088352" style="fill: #3b528b; stroke: #3b528b"/>
     <use xlink:href="#m8e91da07c2" x="276.219817" y="34.088352" style="fill: #3b528b; stroke: #3b528b"/>
     <use xlink:href="#m8e91da07c2" x="277.086946" y="34.088352" style="fill: #3b528b; stroke: #3b528b"/>
     <use xlink:href="#m8e91da07c2" x="275.805103" y="34.088352" style="fill: #3b528b; stroke: #3b528b"/>
     <use xlink:href="#m8e91da07c2" x="283.533862" y="34.088352" style="fill: #3b528b; stroke: #3b528b"/>
     <use xlink:href="#m8e91da07c2" x="277.840971" y="34.088352" style="fill: #3b528b; stroke: #3b528b"/>
     <use xlink:href="#m8e91da07c2" x="277.086946" y="34.088352" style="fill: #3b528b; stroke: #3b528b"/>
    </g>
   </g>
   <g id="PathCollection_3">
    <defs>
     <path id="me8333fa180" d="M 0 1.5 
C 0.397805 1.5 0.77937 1.341951 1.06066 1.06066 
C 1.341951 0.77937 1.5 0.397805 1.5 0 
C 1.5 -0.397805 1.341951 -0.77937 1.06066 -1.06066 
C 0.77937 -1.341951 0.397805 -1.5 0 -1.5 
C -0.397805 -1.5 -0.77937 -1.341951 -1.06066 -1.06066 
C -1.341951 -0.77937 -1.5 -0.397805 -1.5 0 
C -1.5 0.397805 -1.341951 0.77937 -1.06066 1.06066 
C -0.77937 1.341951 -0.397805 1.5 0 1.5 
z
" style="stroke: #21918c"/>
    </defs>
    <g clip-path="url(#p4743b98acf)">
     <use xlink:href="#me8333fa180" x="275.314986" y="53.495312" style="fill: #21918c; stroke: #21918c"/>
     <use xlink:href="#me8333fa180" x="274.636364" y="53.495312" style="fill: #21918c; stroke: #21918c"/>
     <use xlink:href="#me8333fa180" x="274.674065" y="53.495312" style="fill: #21918c; stroke: #21918c"/>
     <use xlink:href="#me8333fa180" x="275.201883" y="53.495312" style="fill: #21918c; stroke: #21918c"/>
     <use xlink:href="#me8333fa180" x="282.930642" y="53.495312" style="fill: #21918c; stroke: #21918c"/>
     <use xlink:href="#me8333fa180" x="291.903542" y="53.495312" style="fill: #21918c; stroke: #21918c"/>
     <use xlink:href="#me8333fa180" x="274.674065" y="53.495312" style="fill: #21918c; stroke: #21918c"/>
     <use xlink:href="#me8333fa180" x="275.352688" y="53.495312" style="fill: #21918c; stroke: #21918c"/>
     <use xlink:href="#me8333fa180" x="291.903542" y="53.495312" style="fill: #21918c; stroke: #21918c"/>
     <use xlink:href="#me8333fa180" x="275.277285" y="53.495312" style="fill: #21918c; stroke: #21918c"/>
     <use xlink:href="#me8333fa180" x="287.94491" y="53.495312" style="fill: #21918c; stroke: #21918c"/>
     <use xlink:href="#me8333fa180" x="291.903542" y="53.495312" style="fill: #21918c; stroke: #21918c"/>
     <use xlink:href="#me8333fa180" x="282.930642" y="53.495312" style="fill: #21918c; stroke: #21918c"/>
     <use xlink:href="#me8333fa180" x="297.596433" y="53.495312" style="fill: #21918c; stroke: #21918c"/>
     <use xlink:href="#me8333fa180" x="275.164181" y="53.495312" style="fill: #21918c; stroke: #21918c"/>
     <use xlink:href="#me8333fa180" x="275.164181" y="53.495312" style="fill: #21918c; stroke: #21918c"/>
     <use xlink:href="#me8333fa180" x="274.674065" y="53.495312" style="fill: #21918c; stroke: #21918c"/>
     <use xlink:href="#me8333fa180" x="274.711766" y="53.495312" style="fill: #21918c; stroke: #21918c"/>
     <use xlink:href="#me8333fa180" x="283.119148" y="53.495312" style="fill: #21918c; stroke: #21918c"/>
     <use xlink:href="#me8333fa180" x="282.930642" y="53.495312" style="fill: #21918c; stroke: #21918c"/>
     <use xlink:href="#me8333fa180" x="285.343522" y="53.495312" style="fill: #21918c; stroke: #21918c"/>
     <use xlink:href="#me8333fa180" x="291.941243" y="53.495312" style="fill: #21918c; stroke: #21918c"/>
     <use xlink:href="#me8333fa180" x="274.636364" y="53.495312" style="fill: #21918c; stroke: #21918c"/>
     <use xlink:href="#me8333fa180" x="274.711766" y="53.495312" style="fill: #21918c; stroke: #21918c"/>
     <use xlink:href="#me8333fa180" x="275.465791" y="53.495312" style="fill: #21918c; stroke: #21918c"/>
     <use xlink:href="#me8333fa180" x="291.903542" y="53.495312" style="fill: #21918c; stroke: #21918c"/>
     <use xlink:href="#me8333fa180" x="282.968343" y="53.495312" style="fill: #21918c; stroke: #21918c"/>
     <use xlink:href="#me8333fa180" x="290.697102" y="53.495312" style="fill: #21918c; stroke: #21918c"/>
     <use xlink:href="#me8333fa180" x="292.657568" y="53.495312" style="fill: #21918c; stroke: #21918c"/>
     <use xlink:href="#me8333fa180" x="291.903542" y="53.495312" style="fill: #21918c; stroke: #21918c"/>
    </g>
   </g>
   <g id="PathCollection_4">
    <defs>
     <path id="m01b957760b" d="M 0 1.5 
C 0.397805 1.5 0.77937 1.341951 1.06066 1.06066 
C 1.341951 0.77937 1.5 0.397805 1.5 0 
C 1.5 -0.397805 1.341951 -0.77937 1.06066 -1.06066 
C 0.77937 -1.341951 0.397805 -1.5 0 -1.5 
C -0.397805 -1.5 -0.77937 -1.341951 -1.06066 -1.06066 
C -1.341951 -0.77937 -1.5 -0.397805 -1.5 0 
C -1.5 0.397805 -1.341951 0.77937 -1.06066 1.06066 
C -0.77937 1.341951 -0.397805 1.5 0 1.5 
z
" style="stroke: #5ec962"/>
    </defs>
    <g clip-path="url(#p4743b98acf)">
     <use xlink:href="#m01b957760b" x="278.858905" y="72.902273" style="fill: #5ec962; stroke: #5ec962"/>
     <use xlink:href="#m01b957760b" x="274.636364" y="72.902273" style="fill: #5ec962; stroke: #5ec962"/>
     <use xlink:href="#m01b957760b" x="274.674065" y="72.902273" style="fill: #5ec962; stroke: #5ec962"/>
     <use xlink:href="#m01b957760b" x="275.503493" y="72.902273" style="fill: #5ec962; stroke: #5ec962"/>
     <use xlink:href="#m01b957760b" x="275.767402" y="72.902273" style="fill: #5ec962; stroke: #5ec962"/>
     <use xlink:href="#m01b957760b" x="276.33292" y="72.902273" style="fill: #5ec962; stroke: #5ec962"/>
     <use xlink:href="#m01b957760b" x="274.674065" y="72.902273" style="fill: #5ec962; stroke: #5ec962"/>
     <use xlink:href="#m01b957760b" x="281.347189" y="72.902273" style="fill: #5ec962; stroke: #5ec962"/>
     <use xlink:href="#m01b957760b" x="276.33292" y="72.902273" style="fill: #5ec962; stroke: #5ec962"/>
     <use xlink:href="#m01b957760b" x="276.596829" y="72.902273" style="fill: #5ec962; stroke: #5ec962"/>
     <use xlink:href="#m01b957760b" x="288.058013" y="72.902273" style="fill: #5ec962; stroke: #5ec962"/>
     <use xlink:href="#m01b957760b" x="276.33292" y="72.902273" style="fill: #5ec962; stroke: #5ec962"/>
     <use xlink:href="#m01b957760b" x="275.767402" y="72.902273" style="fill: #5ec962; stroke: #5ec962"/>
     <use xlink:href="#m01b957760b" x="282.025811" y="72.902273" style="fill: #5ec962; stroke: #5ec962"/>
     <use xlink:href="#m01b957760b" x="276.559128" y="72.902273" style="fill: #5ec962; stroke: #5ec962"/>
     <use xlink:href="#m01b957760b" x="275.12648" y="72.902273" style="fill: #5ec962; stroke: #5ec962"/>
     <use xlink:href="#m01b957760b" x="276.295219" y="72.902273" style="fill: #5ec962; stroke: #5ec962"/>
     <use xlink:href="#m01b957760b" x="275.314986" y="72.902273" style="fill: #5ec962; stroke: #5ec962"/>
     <use xlink:href="#m01b957760b" x="275.955908" y="72.902273" style="fill: #5ec962; stroke: #5ec962"/>
     <use xlink:href="#m01b957760b" x="275.767402" y="72.902273" style="fill: #5ec962; stroke: #5ec962"/>
     <use xlink:href="#m01b957760b" x="463.067278" y="72.902273" style="fill: #5ec962; stroke: #5ec962"/>
     <use xlink:href="#m01b957760b" x="276.370622" y="72.902273" style="fill: #5ec962; stroke: #5ec962"/>
     <use xlink:href="#m01b957760b" x="274.636364" y="72.902273" style="fill: #5ec962; stroke: #5ec962"/>
     <use xlink:href="#m01b957760b" x="274.674065" y="72.902273" style="fill: #5ec962; stroke: #5ec962"/>
     <use xlink:href="#m01b957760b" x="276.521427" y="72.902273" style="fill: #5ec962; stroke: #5ec962"/>
     <use xlink:href="#m01b957760b" x="276.33292" y="72.902273" style="fill: #5ec962; stroke: #5ec962"/>
     <use xlink:href="#m01b957760b" x="275.805103" y="72.902273" style="fill: #5ec962; stroke: #5ec962"/>
     <use xlink:href="#m01b957760b" x="283.533862" y="72.902273" style="fill: #5ec962; stroke: #5ec962"/>
     <use xlink:href="#m01b957760b" x="277.086946" y="72.902273" style="fill: #5ec962; stroke: #5ec962"/>
     <use xlink:href="#m01b957760b" x="276.33292" y="72.902273" style="fill: #5ec962; stroke: #5ec962"/>
    </g>
   </g>
   <g id="PathCollection_5">
    <defs>
     <path id="m4b4edb34d2" d="M 0 1.5 
C 0.397805 1.5 0.77937 1.341951 1.06066 1.06066 
C 1.341951 0.77937 1.5 0.397805 1.5 0 
C 1.5 -0.397805 1.341951 -0.77937 1.06066 -1.06066 
C 0.77937 -1.341951 0.397805 -1.5 0 -1.5 
C -0.397805 -1.5 -0.77937 -1.341951 -1.06066 -1.06066 
C -1.341951 -0.77937 -1.5 -0.397805 -1.5 0 
C -1.5 0.397805 -1.341951 0.77937 -1.06066 1.06066 
C -0.77937 1.341951 -0.397805 1.5 0 1.5 
z
" style="stroke: #fde725"/>
    </defs>
    <g clip-path="url(#p4743b98acf)">
     <use xlink:href="#m4b4edb34d2" x="275.503493" y="92.309233" style="fill: #fde725; stroke: #fde725"/>
     <use xlink:href="#m4b4edb34d2" x="274.636364" y="92.309233" style="fill: #fde725; stroke: #fde725"/>
     <use xlink:href="#m4b4edb34d2" x="275.352688" y="92.309233" style="fill: #fde725; stroke: #fde725"/>
     <use xlink:href="#m4b4edb34d2" x="275.880505" y="92.309233" style="fill: #fde725; stroke: #fde725"/>
     <use xlink:href="#m4b4edb34d2" x="276.33292" y="92.309233" style="fill: #fde725; stroke: #fde725"/>
     <use xlink:href="#m4b4edb34d2" x="275.578895" y="92.309233" style="fill: #fde725; stroke: #fde725"/>
     <use xlink:href="#m4b4edb34d2" x="275.7297" y="92.309233" style="fill: #fde725; stroke: #fde725"/>
     <use xlink:href="#m4b4edb34d2" x="275.7297" y="92.309233" style="fill: #fde725; stroke: #fde725"/>
     <use xlink:href="#m4b4edb34d2" x="276.33292" y="92.309233" style="fill: #fde725; stroke: #fde725"/>
     <use xlink:href="#m4b4edb34d2" x="276.596829" y="92.309233" style="fill: #fde725; stroke: #fde725"/>
     <use xlink:href="#m4b4edb34d2" x="276.182115" y="92.309233" style="fill: #fde725; stroke: #fde725"/>
     <use xlink:href="#m4b4edb34d2" x="276.33292" y="92.309233" style="fill: #fde725; stroke: #fde725"/>
     <use xlink:href="#m4b4edb34d2" x="275.578895" y="92.309233" style="fill: #fde725; stroke: #fde725"/>
     <use xlink:href="#m4b4edb34d2" x="282.025811" y="92.309233" style="fill: #fde725; stroke: #fde725"/>
     <use xlink:href="#m4b4edb34d2" x="275.390389" y="92.309233" style="fill: #fde725; stroke: #fde725"/>
     <use xlink:href="#m4b4edb34d2" x="275.277285" y="92.309233" style="fill: #fde725; stroke: #fde725"/>
     <use xlink:href="#m4b4edb34d2" x="274.674065" y="92.309233" style="fill: #fde725; stroke: #fde725"/>
     <use xlink:href="#m4b4edb34d2" x="274.674065" y="92.309233" style="fill: #fde725; stroke: #fde725"/>
     <use xlink:href="#m4b4edb34d2" x="275.767402" y="92.309233" style="fill: #fde725; stroke: #fde725"/>
     <use xlink:href="#m4b4edb34d2" x="275.578895" y="92.309233" style="fill: #fde725; stroke: #fde725"/>
     <use xlink:href="#m4b4edb34d2" x="463.331187" y="92.309233" style="fill: #fde725; stroke: #fde725"/>
     <use xlink:href="#m4b4edb34d2" x="276.370622" y="92.309233" style="fill: #fde725; stroke: #fde725"/>
     <use xlink:href="#m4b4edb34d2" x="274.636364" y="92.309233" style="fill: #fde725; stroke: #fde725"/>
     <use xlink:href="#m4b4edb34d2" x="274.674065" y="92.309233" style="fill: #fde725; stroke: #fde725"/>
     <use xlink:href="#m4b4edb34d2" x="275.503493" y="92.309233" style="fill: #fde725; stroke: #fde725"/>
     <use xlink:href="#m4b4edb34d2" x="276.33292" y="92.309233" style="fill: #fde725; stroke: #fde725"/>
     <use xlink:href="#m4b4edb34d2" x="275.616596" y="92.309233" style="fill: #fde725; stroke: #fde725"/>
     <use xlink:href="#m4b4edb34d2" x="283.345355" y="92.309233" style="fill: #fde725; stroke: #fde725"/>
     <use xlink:href="#m4b4edb34d2" x="277.086946" y="92.309233" style="fill: #fde725; stroke: #fde725"/>
     <use xlink:href="#m4b4edb34d2" x="276.33292" y="92.309233" style="fill: #fde725; stroke: #fde725"/>
    </g>
   </g>
   <g id="matplotlib.axis_1">
    <g id="xtick_1">
     <g id="line2d_1">
      <defs>
       <path id="m58d0159fb1" d="M 0 0 
L 0 3.5 
" style="stroke: #000000; stroke-width: 0.8"/>
      </defs>
      <g>
       <use xlink:href="#m58d0159fb1" x="274.636364" y="96.190625" style="stroke: #000000; stroke-width: 0.8"/>
      </g>
     </g>
     <g id="text_1">
      <!-- 0 -->
      <g transform="translate(271.841051 110.790625) scale(0.1 -0.1)">
       <defs>
        <path id="NotoSerif-Regular-30" d="M 1792 -64 
Q 1267 -64 934 230 
Q 602 525 445 1056 
Q 288 1587 288 2298 
Q 288 3008 445 3533 
Q 602 4058 934 4346 
Q 1267 4634 1798 4634 
Q 2298 4634 2630 4346 
Q 2963 4058 3126 3530 
Q 3290 3002 3290 2291 
Q 3290 1581 3123 1053 
Q 2957 525 2627 230 
Q 2298 -64 1792 -64 
z
M 1792 282 
Q 2259 282 2441 813 
Q 2624 1344 2624 2291 
Q 2624 3245 2441 3766 
Q 2259 4288 1798 4288 
Q 1331 4288 1142 3766 
Q 954 3245 954 2291 
Q 954 1344 1139 813 
Q 1325 282 1792 282 
z
" transform="scale(0.015625)"/>
       </defs>
       <use xlink:href="#NotoSerif-Regular-30"/>
      </g>
     </g>
    </g>
    <g id="xtick_2">
     <g id="line2d_2">
      <g>
       <use xlink:href="#m58d0159fb1" x="551.363636" y="96.190625" style="stroke: #000000; stroke-width: 0.8"/>
      </g>
     </g>
     <g id="text_2">
      <!-- 7340 -->
      <g transform="translate(540.182386 110.790625) scale(0.1 -0.1)">
       <defs>
        <path id="NotoSerif-Regular-37" d="M 1126 0 
L 2637 4058 
L 1043 4058 
Q 704 4058 672 3731 
L 646 3411 
L 378 3411 
L 410 4570 
L 3270 4570 
L 3270 4384 
L 1696 0 
L 1126 0 
z
" transform="scale(0.015625)"/>
        <path id="NotoSerif-Regular-33" d="M 1581 -64 
Q 947 -64 659 150 
Q 371 365 371 646 
Q 371 838 483 947 
Q 595 1056 774 1056 
Q 774 723 985 502 
Q 1197 282 1587 282 
Q 1843 282 2057 381 
Q 2272 480 2406 704 
Q 2541 928 2541 1312 
Q 2541 1715 2230 1958 
Q 1920 2202 1382 2202 
L 1178 2202 
L 1178 2528 
L 1382 2528 
Q 1664 2528 1891 2649 
Q 2118 2771 2252 2995 
Q 2387 3219 2387 3520 
Q 2387 3898 2230 4106 
Q 2074 4314 1702 4314 
Q 1414 4314 1260 4179 
Q 1107 4045 1052 3830 
Q 998 3616 998 3360 
Q 768 3360 608 3446 
Q 448 3533 448 3776 
Q 448 4147 765 4390 
Q 1082 4634 1702 4634 
Q 2310 4634 2678 4368 
Q 3046 4102 3046 3616 
Q 3046 3328 2912 3088 
Q 2778 2848 2547 2678 
Q 2317 2509 2022 2438 
Q 2202 2419 2406 2358 
Q 2611 2298 2793 2170 
Q 2976 2042 3091 1834 
Q 3206 1626 3206 1306 
Q 3206 922 3059 656 
Q 2912 390 2669 233 
Q 2426 77 2141 6 
Q 1856 -64 1581 -64 
z
" transform="scale(0.015625)"/>
        <path id="NotoSerif-Regular-34" d="M 1376 0 
L 1376 269 
L 1555 269 
Q 1773 269 1926 349 
Q 2080 429 2080 730 
L 2080 1254 
L 109 1254 
L 109 1517 
L 2086 4570 
L 2694 4570 
L 2694 1613 
L 3488 1613 
L 3488 1254 
L 2694 1254 
L 2694 730 
Q 2694 429 2848 349 
Q 3002 269 3219 269 
L 3302 269 
L 3302 0 
L 1376 0 
z
M 570 1613 
L 2080 1613 
L 2080 2797 
Q 2080 2982 2083 3216 
Q 2086 3450 2099 3686 
Q 2112 3923 2125 4122 
Q 2093 4058 2022 3930 
Q 1952 3802 1862 3651 
Q 1773 3501 1689 3363 
Q 1606 3226 1549 3136 
L 570 1613 
z
" transform="scale(0.015625)"/>
       </defs>
       <use xlink:href="#NotoSerif-Regular-37"/>
       <use xlink:href="#NotoSerif-Regular-33" transform="translate(55.899994 0)"/>
       <use xlink:href="#NotoSerif-Regular-34" transform="translate(111.799988 0)"/>
       <use xlink:href="#NotoSerif-Regular-30" transform="translate(167.699982 0)"/>
      </g>
     </g>
    </g>
    <g id="text_3">
     <!-- minimum HTTP request count -->
     <g transform="translate(343.074219 130.8) scale(0.1 -0.1)">
      <defs>
       <path id="NotoSerif-Italic-6d" d="M 4845 -64 
Q 4563 -64 4412 118 
Q 4262 301 4262 576 
Q 4262 870 4384 1440 
L 4493 1939 
Q 4512 2029 4544 2163 
Q 4576 2298 4601 2445 
Q 4627 2592 4627 2701 
Q 4627 2829 4572 2953 
Q 4518 3078 4333 3078 
Q 4147 3078 3964 2953 
Q 3782 2829 3622 2630 
Q 3462 2432 3344 2205 
Q 3226 1978 3162 1779 
L 3059 1318 
Q 3040 1229 3008 1043 
Q 2976 858 2947 643 
Q 2918 429 2896 249 
Q 2874 70 2874 0 
L 2266 0 
Q 2266 77 2288 253 
Q 2310 429 2342 649 
Q 2374 870 2412 1081 
Q 2451 1293 2483 1440 
L 2592 1939 
Q 2611 2029 2643 2163 
Q 2675 2298 2700 2445 
Q 2726 2592 2726 2701 
Q 2726 2829 2672 2953 
Q 2618 3078 2432 3078 
Q 2234 3078 2035 2931 
Q 1837 2784 1667 2553 
Q 1498 2323 1379 2076 
Q 1261 1830 1222 1638 
L 877 0 
L 282 0 
L 819 2573 
Q 838 2662 848 2748 
Q 858 2835 858 2861 
Q 858 3053 726 3107 
Q 595 3162 410 3162 
L 358 3162 
L 416 3430 
L 1600 3430 
L 1427 2624 
L 1491 2624 
Q 1754 3046 2026 3267 
Q 2298 3488 2656 3488 
Q 3034 3488 3187 3273 
Q 3341 3059 3341 2778 
Q 3341 2739 3337 2700 
Q 3334 2662 3328 2624 
L 3392 2624 
Q 3654 3046 3926 3267 
Q 4198 3488 4557 3488 
Q 4934 3488 5088 3273 
Q 5242 3059 5242 2778 
Q 5242 2618 5200 2429 
Q 5158 2240 5126 2074 
L 4960 1318 
Q 4922 1139 4899 966 
Q 4877 794 4877 646 
Q 4877 339 5101 339 
Q 5286 339 5510 486 
L 5626 301 
Q 5472 173 5283 54 
Q 5094 -64 4845 -64 
z
" transform="scale(0.015625)"/>
       <path id="NotoSerif-Italic-69" d="M 1434 4070 
Q 1274 4070 1174 4156 
Q 1075 4243 1075 4422 
Q 1075 4627 1180 4748 
Q 1286 4870 1459 4870 
Q 1613 4870 1715 4784 
Q 1818 4698 1818 4518 
Q 1818 4269 1696 4169 
Q 1574 4070 1434 4070 
z
M 992 -64 
Q 736 -64 598 115 
Q 461 294 461 544 
Q 461 678 486 864 
Q 512 1050 544 1238 
Q 576 1427 602 1549 
L 851 2726 
Q 870 2822 870 2893 
Q 870 3066 764 3114 
Q 659 3162 480 3162 
L 397 3162 
L 454 3430 
L 1600 3430 
L 1165 1376 
Q 1152 1306 1126 1171 
Q 1101 1037 1085 896 
Q 1069 755 1069 666 
Q 1069 339 1280 339 
Q 1389 339 1504 387 
Q 1619 435 1741 506 
L 1856 320 
Q 1715 198 1475 67 
Q 1235 -64 992 -64 
z
" transform="scale(0.015625)"/>
       <path id="NotoSerif-Italic-6e" d="M 2944 -64 
Q 2662 -64 2512 118 
Q 2362 301 2362 576 
Q 2362 870 2483 1440 
L 2592 1939 
Q 2611 2029 2643 2163 
Q 2675 2298 2700 2445 
Q 2726 2592 2726 2701 
Q 2726 2829 2672 2953 
Q 2618 3078 2432 3078 
Q 2234 3078 2035 2931 
Q 1837 2784 1667 2553 
Q 1498 2323 1379 2076 
Q 1261 1830 1222 1638 
L 877 0 
L 282 0 
L 819 2573 
Q 838 2662 848 2748 
Q 858 2835 858 2861 
Q 858 3053 726 3107 
Q 595 3162 410 3162 
L 358 3162 
L 416 3430 
L 1600 3430 
L 1427 2624 
L 1491 2624 
Q 1754 3046 2026 3267 
Q 2298 3488 2656 3488 
Q 3034 3488 3187 3273 
Q 3341 3059 3341 2778 
Q 3341 2618 3299 2429 
Q 3258 2240 3226 2074 
L 3059 1318 
Q 3021 1139 2998 966 
Q 2976 794 2976 646 
Q 2976 339 3200 339 
Q 3386 339 3610 486 
L 3725 301 
Q 3571 173 3382 54 
Q 3194 -64 2944 -64 
z
" transform="scale(0.015625)"/>
       <path id="NotoSerif-Italic-75" d="M 2918 -64 
Q 2662 -64 2521 115 
Q 2381 294 2381 544 
Q 2381 614 2390 716 
Q 2400 819 2413 922 
L 2362 922 
Q 2182 634 2009 413 
Q 1837 192 1625 67 
Q 1414 -58 1126 -58 
Q 749 -58 595 156 
Q 442 371 442 653 
Q 442 813 480 1005 
Q 518 1197 557 1357 
L 806 2477 
Q 826 2566 845 2700 
Q 864 2835 864 2861 
Q 864 3053 733 3107 
Q 602 3162 416 3162 
L 365 3162 
L 422 3430 
L 1613 3430 
L 1190 1517 
Q 1152 1344 1107 1113 
Q 1062 883 1062 742 
Q 1062 582 1126 467 
Q 1190 352 1376 352 
Q 1549 352 1734 483 
Q 1920 614 2093 832 
Q 2266 1050 2394 1312 
Q 2522 1574 2579 1837 
L 2912 3430 
L 3533 3430 
L 3091 1376 
Q 3078 1306 3052 1171 
Q 3027 1037 3011 896 
Q 2995 755 2995 666 
Q 2995 339 3206 339 
Q 3315 339 3404 374 
Q 3494 410 3616 480 
L 3731 294 
Q 3590 173 3376 54 
Q 3162 -64 2918 -64 
z
" transform="scale(0.015625)"/>
       <path id="NotoSerif-Italic-20" transform="scale(0.015625)"/>
       <path id="NotoSerif-Italic-48" d="M -134 0 
L -83 269 
L 0 269 
Q 218 269 390 349 
Q 563 429 627 730 
L 1293 3866 
Q 1318 3968 1318 4045 
Q 1318 4211 1190 4256 
Q 1062 4301 858 4301 
L 774 4301 
L 832 4570 
L 2694 4570 
L 2637 4301 
L 2554 4301 
Q 2336 4301 2166 4221 
Q 1997 4141 1933 3840 
L 1658 2547 
L 3738 2547 
L 4019 3866 
Q 4045 3968 4045 4045 
Q 4045 4211 3917 4256 
Q 3789 4301 3584 4301 
L 3501 4301 
L 3558 4570 
L 5421 4570 
L 5363 4301 
L 5280 4301 
Q 5062 4301 4892 4221 
Q 4723 4141 4659 3840 
L 3994 704 
Q 3968 602 3968 525 
Q 3968 365 4099 317 
Q 4230 269 4429 269 
L 4512 269 
L 4454 0 
L 2592 0 
L 2643 269 
L 2726 269 
Q 2944 269 3117 349 
Q 3290 429 3354 730 
L 3667 2227 
L 1587 2227 
L 1267 704 
Q 1242 602 1242 525 
Q 1242 365 1373 317 
Q 1504 269 1702 269 
L 1786 269 
L 1728 0 
L -134 0 
z
" transform="scale(0.015625)"/>
       <path id="NotoSerif-Italic-54" d="M 589 0 
L 646 269 
L 794 269 
Q 1005 269 1174 339 
Q 1344 410 1408 698 
L 2163 4250 
L 1549 4250 
Q 1267 4250 1123 4093 
Q 979 3936 909 3725 
L 819 3450 
L 486 3450 
L 755 4570 
L 4358 4570 
L 4154 3450 
L 3821 3450 
Q 3827 3488 3833 3574 
Q 3840 3661 3846 3741 
Q 3853 3821 3853 3840 
Q 3853 4006 3763 4128 
Q 3674 4250 3430 4250 
L 2810 4250 
L 2054 704 
Q 2029 602 2029 525 
Q 2029 365 2160 317 
Q 2291 269 2490 269 
L 2637 269 
L 2579 0 
L 589 0 
z
" transform="scale(0.015625)"/>
       <path id="NotoSerif-Italic-50" d="M -128 0 
L -70 269 
L 13 269 
Q 224 269 393 349 
Q 563 429 627 730 
L 1293 3866 
Q 1318 3968 1318 4045 
Q 1318 4211 1190 4256 
Q 1062 4301 858 4301 
L 774 4301 
L 832 4570 
L 2470 4570 
Q 3142 4570 3536 4256 
Q 3930 3942 3930 3334 
Q 3930 3091 3853 2822 
Q 3776 2554 3568 2317 
Q 3360 2080 2973 1929 
Q 2586 1779 1971 1779 
L 1498 1779 
L 1267 704 
Q 1242 602 1242 525 
Q 1242 365 1373 317 
Q 1504 269 1702 269 
L 1914 269 
L 1856 0 
L -128 0 
z
M 1901 2080 
Q 2400 2080 2694 2240 
Q 2989 2400 3120 2681 
Q 3251 2963 3251 3328 
Q 3251 3834 3011 4048 
Q 2771 4262 2317 4262 
L 2022 4262 
L 1562 2080 
L 1901 2080 
z
" transform="scale(0.015625)"/>
       <path id="NotoSerif-Italic-72" d="M 819 2573 
Q 838 2662 848 2748 
Q 858 2835 858 2861 
Q 858 3053 694 3107 
Q 531 3162 346 3162 
L 294 3162 
L 352 3430 
L 1485 3430 
L 1350 2509 
L 1414 2509 
Q 1536 2771 1677 2995 
Q 1818 3219 2016 3356 
Q 2214 3494 2502 3494 
Q 2771 3494 2899 3369 
Q 3027 3245 3027 3053 
Q 3027 2829 2902 2697 
Q 2778 2566 2496 2566 
Q 2496 2797 2445 2934 
Q 2394 3072 2240 3072 
Q 2074 3072 1904 2899 
Q 1734 2726 1584 2441 
Q 1434 2157 1312 1821 
Q 1190 1485 1120 1165 
L 877 0 
L 282 0 
L 819 2573 
z
" transform="scale(0.015625)"/>
       <path id="NotoSerif-Italic-65" d="M 1523 -64 
Q 1184 -64 899 83 
Q 614 230 444 521 
Q 275 813 275 1261 
Q 275 1619 396 2006 
Q 518 2394 761 2733 
Q 1005 3072 1360 3283 
Q 1715 3494 2182 3494 
Q 2586 3494 2810 3299 
Q 3034 3104 3034 2758 
Q 3034 2426 2794 2131 
Q 2554 1837 2134 1657 
Q 1715 1478 1178 1478 
L 954 1478 
Q 947 1408 944 1341 
Q 941 1274 941 1210 
Q 941 800 1120 569 
Q 1299 339 1645 339 
Q 1952 339 2192 486 
Q 2432 634 2566 800 
Q 2630 755 2630 640 
Q 2630 499 2512 336 
Q 2394 173 2150 54 
Q 1907 -64 1523 -64 
z
M 1075 1773 
Q 1453 1773 1744 1897 
Q 2035 2022 2204 2243 
Q 2374 2464 2374 2758 
Q 2374 3187 2003 3187 
Q 1824 3187 1664 3062 
Q 1504 2938 1376 2730 
Q 1248 2522 1155 2272 
Q 1062 2022 1011 1773 
L 1075 1773 
z
" transform="scale(0.015625)"/>
       <path id="NotoSerif-Italic-71" d="M 2054 -256 
Q 2074 -147 2115 32 
Q 2157 211 2205 406 
Q 2253 602 2288 755 
Q 2323 909 2336 966 
L 2298 966 
Q 2176 704 2009 467 
Q 1843 230 1622 83 
Q 1402 -64 1101 -64 
Q 730 -64 502 233 
Q 275 531 275 1107 
Q 275 1408 355 1737 
Q 435 2067 595 2377 
Q 755 2688 985 2941 
Q 1216 3194 1517 3344 
Q 1818 3494 2182 3494 
Q 2355 3494 2560 3446 
Q 2765 3398 2893 3322 
L 3213 3494 
L 3437 3494 
L 2554 -678 
Q 2534 -768 2524 -851 
Q 2515 -934 2515 -966 
Q 2515 -1158 2646 -1212 
Q 2778 -1267 2957 -1267 
L 3008 -1267 
L 2950 -1536 
L 1786 -1536 
L 2054 -256 
z
M 1331 339 
Q 1504 339 1680 473 
Q 1856 608 2013 829 
Q 2170 1050 2288 1315 
Q 2406 1581 2464 1843 
L 2701 2976 
Q 2656 3066 2525 3136 
Q 2394 3206 2214 3206 
Q 1952 3206 1747 3056 
Q 1542 2906 1385 2659 
Q 1229 2413 1129 2128 
Q 1030 1843 979 1564 
Q 928 1286 928 1075 
Q 928 678 1043 508 
Q 1158 339 1331 339 
z
" transform="scale(0.015625)"/>
       <path id="NotoSerif-Italic-73" d="M 1216 -64 
Q 736 -64 448 131 
Q 160 326 160 659 
Q 160 832 230 925 
Q 301 1018 393 1050 
Q 486 1082 563 1082 
Q 563 858 633 666 
Q 704 474 867 358 
Q 1030 243 1293 243 
Q 1613 243 1798 393 
Q 1984 544 1984 838 
Q 1984 1062 1837 1222 
Q 1690 1382 1338 1542 
Q 986 1709 774 1929 
Q 563 2150 563 2534 
Q 563 2950 899 3219 
Q 1235 3488 1798 3488 
Q 2150 3488 2368 3398 
Q 2586 3309 2691 3168 
Q 2797 3027 2797 2880 
Q 2797 2682 2669 2582 
Q 2541 2483 2317 2483 
Q 2317 2656 2262 2819 
Q 2208 2982 2083 3088 
Q 1958 3194 1741 3194 
Q 1453 3194 1286 3040 
Q 1120 2886 1120 2643 
Q 1120 2426 1280 2282 
Q 1440 2138 1773 1984 
Q 2125 1824 2333 1593 
Q 2541 1363 2541 992 
Q 2541 525 2185 230 
Q 1830 -64 1216 -64 
z
" transform="scale(0.015625)"/>
       <path id="NotoSerif-Italic-74" d="M 1171 -64 
Q 474 -64 474 685 
Q 474 800 493 950 
Q 512 1101 538 1222 
L 928 3066 
L 442 3066 
L 499 3322 
Q 774 3322 1030 3523 
Q 1286 3725 1478 4218 
L 1773 4218 
L 1606 3430 
L 2381 3430 
L 2304 3066 
L 1530 3066 
L 1139 1242 
Q 1107 1082 1084 938 
Q 1062 794 1062 691 
Q 1062 506 1152 422 
Q 1242 339 1402 339 
Q 1536 339 1680 380 
Q 1824 422 1926 480 
L 2035 243 
Q 1843 109 1628 22 
Q 1414 -64 1171 -64 
z
" transform="scale(0.015625)"/>
       <path id="NotoSerif-Italic-63" d="M 1523 -64 
Q 1184 -64 899 83 
Q 614 230 444 521 
Q 275 813 275 1261 
Q 275 1619 396 2006 
Q 518 2394 761 2733 
Q 1005 3072 1360 3283 
Q 1715 3494 2182 3494 
Q 2662 3494 2889 3305 
Q 3117 3117 3117 2880 
Q 3117 2701 2969 2566 
Q 2822 2432 2547 2432 
Q 2547 2739 2428 2963 
Q 2310 3187 2054 3187 
Q 1850 3187 1677 3049 
Q 1504 2912 1366 2691 
Q 1229 2470 1136 2204 
Q 1043 1939 992 1676 
Q 941 1414 941 1210 
Q 941 800 1120 569 
Q 1299 339 1645 339 
Q 1984 339 2208 486 
Q 2432 634 2566 800 
Q 2630 755 2630 640 
Q 2630 499 2512 336 
Q 2394 173 2150 54 
Q 1907 -64 1523 -64 
z
" transform="scale(0.015625)"/>
       <path id="NotoSerif-Italic-6f" d="M 1504 -64 
Q 960 -64 617 265 
Q 275 595 275 1261 
Q 275 1619 390 2006 
Q 506 2394 742 2733 
Q 979 3072 1337 3283 
Q 1696 3494 2182 3494 
Q 2522 3494 2797 3360 
Q 3072 3226 3235 2934 
Q 3398 2643 3398 2170 
Q 3398 1894 3328 1590 
Q 3258 1286 3110 992 
Q 2963 698 2739 461 
Q 2515 224 2208 80 
Q 1901 -64 1504 -64 
z
M 1574 262 
Q 1888 262 2109 464 
Q 2330 666 2467 982 
Q 2605 1299 2669 1644 
Q 2733 1990 2733 2278 
Q 2733 2758 2566 2963 
Q 2400 3168 2106 3168 
Q 1856 3168 1664 3033 
Q 1472 2899 1334 2678 
Q 1197 2458 1110 2189 
Q 1024 1920 982 1648 
Q 941 1376 941 1146 
Q 941 659 1113 460 
Q 1286 262 1574 262 
z
" transform="scale(0.015625)"/>
      </defs>
      <use xlink:href="#NotoSerif-Italic-6d"/>
      <use xlink:href="#NotoSerif-Italic-69" transform="translate(89.599991 0)"/>
      <use xlink:href="#NotoSerif-Italic-6e" transform="translate(119.999985 0)"/>
      <use xlink:href="#NotoSerif-Italic-69" transform="translate(179.899979 0)"/>
      <use xlink:href="#NotoSerif-Italic-6d" transform="translate(210.299973 0)"/>
      <use xlink:href="#NotoSerif-Italic-75" transform="translate(299.899963 0)"/>
      <use xlink:href="#NotoSerif-Italic-6d" transform="translate(359.799957 0)"/>
      <use xlink:href="#NotoSerif-Italic-20" transform="translate(449.399948 0)"/>
      <use xlink:href="#NotoSerif-Italic-48" transform="translate(475.399933 0)"/>
      <use xlink:href="#NotoSerif-Italic-54" transform="translate(554.699921 0)"/>
      <use xlink:href="#NotoSerif-Italic-54" transform="translate(615.999908 0)"/>
      <use xlink:href="#NotoSerif-Italic-50" transform="translate(677.299896 0)"/>
      <use xlink:href="#NotoSerif-Italic-20" transform="translate(739.299881 0)"/>
      <use xlink:href="#NotoSerif-Italic-72" transform="translate(765.299866 0)"/>
      <use xlink:href="#NotoSerif-Italic-65" transform="translate(812.099854 0)"/>
      <use xlink:href="#NotoSerif-Italic-71" transform="translate(861.399841 0)"/>
      <use xlink:href="#NotoSerif-Italic-75" transform="translate(917.399826 0)"/>
      <use xlink:href="#NotoSerif-Italic-65" transform="translate(977.29982 0)"/>
      <use xlink:href="#NotoSerif-Italic-73" transform="translate(1026.599808 0)"/>
      <use xlink:href="#NotoSerif-Italic-74" transform="translate(1072.999802 0)"/>
      <use xlink:href="#NotoSerif-Italic-20" transform="translate(1109.799789 0)"/>
      <use xlink:href="#NotoSerif-Italic-63" transform="translate(1135.799774 0)"/>
      <use xlink:href="#NotoSerif-Italic-6f" transform="translate(1184.499771 0)"/>
      <use xlink:href="#NotoSerif-Italic-75" transform="translate(1241.899765 0)"/>
      <use xlink:href="#NotoSerif-Italic-6e" transform="translate(1301.799759 0)"/>
      <use xlink:href="#NotoSerif-Italic-74" transform="translate(1361.699753 0)"/>
     </g>
    </g>
   </g>
   <g id="matplotlib.axis_2">
    <g id="ytick_1">
     <g id="line2d_3"/>
     <g id="text_4">
      <!-- file-per-date -->
      <g transform="translate(10.8 18.531392) scale(0.1 -0.1)">
       <defs>
        <path id="NotoSerif-Regular-66" d="M 173 0 
L 173 269 
L 256 269 
Q 474 269 627 349 
Q 781 429 781 730 
L 781 3130 
L 198 3130 
L 198 3430 
L 781 3430 
L 781 3750 
Q 781 4320 1085 4624 
Q 1389 4928 1914 4928 
Q 2413 4928 2611 4803 
Q 2810 4678 2810 4480 
Q 2810 4307 2662 4214 
Q 2515 4122 2285 4122 
Q 2285 4314 2195 4474 
Q 2106 4634 1862 4634 
Q 1587 4634 1484 4422 
Q 1382 4211 1382 3808 
L 1382 3430 
L 2285 3430 
L 2285 3130 
L 1382 3130 
L 1382 730 
Q 1382 429 1536 349 
Q 1690 269 1907 269 
L 2150 269 
L 2150 0 
L 173 0 
z
" transform="scale(0.015625)"/>
        <path id="NotoSerif-Regular-69" d="M 1030 4070 
Q 877 4070 771 4160 
Q 666 4250 666 4467 
Q 666 4691 771 4777 
Q 877 4864 1030 4864 
Q 1178 4864 1286 4777 
Q 1395 4691 1395 4467 
Q 1395 4250 1286 4160 
Q 1178 4070 1030 4070 
z
M 147 0 
L 147 269 
L 230 269 
Q 442 269 598 342 
Q 755 416 755 698 
L 755 2726 
Q 755 3008 598 3085 
Q 442 3162 230 3162 
L 211 3162 
L 211 3430 
L 1357 3430 
L 1357 730 
Q 1357 429 1510 349 
Q 1664 269 1882 269 
L 1965 269 
L 1965 0 
L 147 0 
z
" transform="scale(0.015625)"/>
        <path id="NotoSerif-Regular-6c" d="M 83 0 
L 83 269 
L 166 269 
Q 384 269 537 349 
Q 691 429 691 730 
L 691 4160 
Q 691 4442 534 4518 
Q 378 4595 166 4595 
L 83 4595 
L 83 4864 
L 1293 4864 
L 1293 730 
Q 1293 429 1446 349 
Q 1600 269 1818 269 
L 1901 269 
L 1901 0 
L 83 0 
z
" transform="scale(0.015625)"/>
        <path id="NotoSerif-Regular-65" d="M 1837 -64 
Q 1139 -64 745 397 
Q 352 858 352 1690 
Q 352 2586 723 3040 
Q 1094 3494 1773 3494 
Q 2394 3494 2749 3110 
Q 3104 2726 3104 1965 
L 3104 1670 
L 973 1670 
Q 986 973 1226 656 
Q 1466 339 1926 339 
Q 2259 339 2492 476 
Q 2726 614 2842 787 
Q 2886 768 2924 710 
Q 2963 653 2963 570 
Q 2963 442 2841 294 
Q 2720 147 2470 41 
Q 2221 -64 1837 -64 
z
M 2458 2016 
Q 2458 2528 2301 2838 
Q 2144 3149 1760 3149 
Q 1408 3149 1213 2857 
Q 1018 2566 986 2016 
L 2458 2016 
z
" transform="scale(0.015625)"/>
        <path id="NotoSerif-Regular-2d" d="M 160 1504 
L 160 1984 
L 1824 1984 
L 1824 1504 
L 160 1504 
z
" transform="scale(0.015625)"/>
        <path id="NotoSerif-Regular-70" d="M 115 -1536 
L 115 -1267 
L 166 -1267 
Q 384 -1267 537 -1187 
Q 691 -1107 691 -806 
L 691 2726 
Q 691 3008 534 3085 
Q 378 3162 166 3162 
L 83 3162 
L 83 3430 
L 1203 3430 
L 1267 2854 
L 1293 2854 
Q 1440 3149 1670 3321 
Q 1901 3494 2272 3494 
Q 2906 3494 3242 3068 
Q 3578 2643 3578 1722 
Q 3578 794 3242 365 
Q 2906 -64 2272 -64 
Q 1901 -64 1667 93 
Q 1434 250 1293 499 
L 1267 499 
Q 1280 314 1286 106 
Q 1293 -102 1293 -224 
L 1293 -838 
Q 1293 -1120 1449 -1193 
Q 1606 -1267 1818 -1267 
L 1837 -1267 
L 1837 -1536 
L 115 -1536 
z
M 2170 346 
Q 2592 346 2774 701 
Q 2957 1056 2957 1728 
Q 2957 2413 2774 2749 
Q 2592 3085 2163 3085 
Q 1664 3085 1478 2749 
Q 1293 2413 1293 1722 
Q 1293 1056 1478 701 
Q 1664 346 2170 346 
z
" transform="scale(0.015625)"/>
        <path id="NotoSerif-Regular-72" d="M 211 0 
L 211 269 
L 230 269 
Q 448 269 601 349 
Q 755 429 755 730 
L 755 2726 
Q 755 3008 598 3085 
Q 442 3162 230 3162 
L 211 3162 
L 211 3430 
L 1197 3430 
L 1318 2797 
L 1350 2797 
Q 1434 2989 1530 3149 
Q 1626 3309 1786 3401 
Q 1946 3494 2227 3494 
Q 2579 3494 2748 3372 
Q 2918 3251 2918 3027 
Q 2918 2829 2780 2701 
Q 2643 2573 2323 2573 
Q 2323 2835 2246 2953 
Q 2170 3072 1984 3072 
Q 1805 3072 1683 2931 
Q 1562 2790 1491 2572 
Q 1421 2355 1389 2121 
Q 1357 1888 1357 1702 
L 1357 698 
Q 1357 416 1513 342 
Q 1670 269 1882 269 
L 2061 269 
L 2061 0 
L 211 0 
z
" transform="scale(0.015625)"/>
        <path id="NotoSerif-Regular-64" d="M 1658 -64 
Q 1024 -64 688 361 
Q 352 787 352 1709 
Q 352 2637 688 3065 
Q 1024 3494 1658 3494 
Q 2029 3494 2262 3337 
Q 2496 3181 2637 2931 
L 2675 2931 
Q 2656 3091 2646 3286 
Q 2637 3482 2637 3635 
L 2637 4160 
Q 2637 4442 2480 4518 
Q 2323 4595 2112 4595 
L 2061 4595 
L 2061 4864 
L 3238 4864 
L 3238 704 
Q 3238 422 3395 345 
Q 3552 269 3763 269 
L 3814 269 
L 3814 0 
L 2733 0 
L 2662 576 
L 2637 576 
Q 2496 282 2265 109 
Q 2035 -64 1658 -64 
z
M 1766 346 
Q 2266 346 2451 682 
Q 2637 1018 2637 1709 
Q 2637 2374 2451 2729 
Q 2266 3085 1760 3085 
Q 1338 3085 1155 2729 
Q 973 2374 973 1702 
Q 973 1024 1155 685 
Q 1338 346 1766 346 
z
" transform="scale(0.015625)"/>
        <path id="NotoSerif-Regular-61" d="M 1312 -64 
Q 883 -64 601 185 
Q 320 435 320 960 
Q 320 1472 681 1715 
Q 1043 1958 1779 1984 
L 2310 2003 
L 2310 2387 
Q 2310 2618 2272 2794 
Q 2234 2970 2106 3072 
Q 1978 3174 1715 3174 
Q 1472 3174 1344 3084 
Q 1216 2995 1174 2838 
Q 1133 2682 1133 2477 
Q 864 2477 726 2569 
Q 589 2662 589 2880 
Q 589 3104 745 3238 
Q 902 3373 1164 3433 
Q 1427 3494 1741 3494 
Q 2330 3494 2621 3244 
Q 2912 2995 2912 2387 
L 2912 730 
Q 2912 461 3001 365 
Q 3091 269 3309 269 
L 3328 269 
L 3328 0 
L 2464 0 
L 2362 550 
L 2310 550 
Q 2176 371 2048 233 
Q 1920 96 1750 16 
Q 1581 -64 1312 -64 
z
M 1459 333 
Q 1850 333 2080 573 
Q 2310 813 2310 1222 
L 2310 1741 
L 1901 1722 
Q 1357 1696 1149 1501 
Q 941 1306 941 928 
Q 941 333 1459 333 
z
" transform="scale(0.015625)"/>
        <path id="NotoSerif-Regular-74" d="M 1536 -64 
Q 1050 -64 829 157 
Q 608 378 608 928 
L 608 3066 
L 122 3066 
L 122 3322 
Q 237 3322 377 3370 
Q 518 3418 621 3526 
Q 730 3642 800 3808 
Q 870 3974 915 4218 
L 1210 4218 
L 1210 3430 
L 2048 3430 
L 2048 3066 
L 1210 3066 
L 1210 909 
Q 1210 582 1344 428 
Q 1478 275 1696 275 
Q 1811 275 1907 288 
Q 2003 301 2106 320 
L 2106 38 
Q 2022 0 1856 -32 
Q 1690 -64 1536 -64 
z
" transform="scale(0.015625)"/>
       </defs>
       <use xlink:href="#NotoSerif-Regular-66"/>
       <use xlink:href="#NotoSerif-Regular-69" transform="translate(36.899994 0)"/>
       <use xlink:href="#NotoSerif-Regular-6c" transform="translate(68.899979 0)"/>
       <use xlink:href="#NotoSerif-Regular-65" transform="translate(99.899963 0)"/>
       <use xlink:href="#NotoSerif-Regular-2d" transform="translate(153.399948 0)"/>
       <use xlink:href="#NotoSerif-Regular-70" transform="translate(184.399933 0)"/>
       <use xlink:href="#NotoSerif-Regular-65" transform="translate(245.799927 0)"/>
       <use xlink:href="#NotoSerif-Regular-72" transform="translate(299.299911 0)"/>
       <use xlink:href="#NotoSerif-Regular-2d" transform="translate(346.399902 0)"/>
       <use xlink:href="#NotoSerif-Regular-64" transform="translate(377.399887 0)"/>
       <use xlink:href="#NotoSerif-Regular-61" transform="translate(438.799881 0)"/>
       <use xlink:href="#NotoSerif-Regular-74" transform="translate(495.099869 0)"/>
       <use xlink:href="#NotoSerif-Regular-65" transform="translate(530.299866 0)"/>
      </g>
     </g>
    </g>
    <g id="ytick_2">
     <g id="line2d_4"/>
     <g id="text_5">
      <!-- file-per-location -->
      <g transform="translate(10.8 37.938352) scale(0.1 -0.1)">
       <defs>
        <path id="NotoSerif-Regular-6f" d="M 1837 -64 
Q 1146 -64 749 377 
Q 352 819 352 1722 
Q 352 2618 733 3056 
Q 1114 3494 1856 3494 
Q 2547 3494 2944 3056 
Q 3341 2618 3341 1722 
Q 3341 819 2960 377 
Q 2579 -64 1837 -64 
z
M 1850 269 
Q 2330 269 2525 637 
Q 2720 1005 2720 1722 
Q 2720 2438 2521 2796 
Q 2323 3155 1843 3155 
Q 1363 3155 1168 2796 
Q 973 2438 973 1722 
Q 973 1005 1171 637 
Q 1370 269 1850 269 
z
" transform="scale(0.015625)"/>
        <path id="NotoSerif-Regular-63" d="M 1811 -64 
Q 1389 -64 1059 115 
Q 730 294 541 681 
Q 352 1069 352 1696 
Q 352 2381 541 2774 
Q 730 3168 1053 3331 
Q 1376 3494 1779 3494 
Q 2048 3494 2304 3424 
Q 2560 3354 2726 3210 
Q 2893 3066 2893 2842 
Q 2893 2624 2749 2531 
Q 2605 2438 2323 2438 
Q 2323 2739 2211 2956 
Q 2099 3174 1779 3174 
Q 1536 3174 1353 3046 
Q 1171 2918 1072 2598 
Q 973 2278 973 1702 
Q 973 1024 1200 688 
Q 1427 352 1939 352 
Q 2240 352 2461 477 
Q 2682 602 2790 800 
Q 2899 710 2899 550 
Q 2899 403 2777 262 
Q 2656 122 2416 29 
Q 2176 -64 1811 -64 
z
" transform="scale(0.015625)"/>
        <path id="NotoSerif-Regular-6e" d="M 179 0 
L 179 269 
L 230 269 
Q 448 269 601 349 
Q 755 429 755 730 
L 755 2726 
Q 755 3008 604 3085 
Q 454 3162 243 3162 
L 211 3162 
L 211 3430 
L 1248 3430 
L 1331 2912 
L 1363 2912 
Q 1562 3270 1808 3382 
Q 2054 3494 2362 3494 
Q 2867 3494 3152 3196 
Q 3437 2899 3437 2240 
L 3437 730 
Q 3437 429 3568 349 
Q 3699 269 3917 269 
L 3949 269 
L 3949 0 
L 2835 0 
L 2835 2208 
Q 2835 2624 2678 2854 
Q 2522 3085 2131 3085 
Q 1843 3085 1673 2941 
Q 1504 2797 1430 2560 
Q 1357 2323 1357 2048 
L 1357 698 
Q 1357 416 1507 342 
Q 1658 269 1869 269 
L 1901 269 
L 1901 0 
L 179 0 
z
" transform="scale(0.015625)"/>
       </defs>
       <use xlink:href="#NotoSerif-Regular-66"/>
       <use xlink:href="#NotoSerif-Regular-69" transform="translate(36.899994 0)"/>
       <use xlink:href="#NotoSerif-Regular-6c" transform="translate(68.899979 0)"/>
       <use xlink:href="#NotoSerif-Regular-65" transform="translate(99.899963 0)"/>
       <use xlink:href="#NotoSerif-Regular-2d" transform="translate(153.399948 0)"/>
       <use xlink:href="#NotoSerif-Regular-70" transform="translate(184.399933 0)"/>
       <use xlink:href="#NotoSerif-Regular-65" transform="translate(245.799927 0)"/>
       <use xlink:href="#NotoSerif-Regular-72" transform="translate(299.299911 0)"/>
       <use xlink:href="#NotoSerif-Regular-2d" transform="translate(346.399902 0)"/>
       <use xlink:href="#NotoSerif-Regular-6c" transform="translate(377.399887 0)"/>
       <use xlink:href="#NotoSerif-Regular-6f" transform="translate(408.399872 0)"/>
       <use xlink:href="#NotoSerif-Regular-63" transform="translate(466.099869 0)"/>
       <use xlink:href="#NotoSerif-Regular-61" transform="translate(515.299866 0)"/>
       <use xlink:href="#NotoSerif-Regular-74" transform="translate(571.599854 0)"/>
       <use xlink:href="#NotoSerif-Regular-69" transform="translate(606.79985 0)"/>
       <use xlink:href="#NotoSerif-Regular-6f" transform="translate(638.799835 0)"/>
       <use xlink:href="#NotoSerif-Regular-6e" transform="translate(696.499832 0)"/>
      </g>
     </g>
    </g>
    <g id="ytick_3">
     <g id="line2d_5"/>
     <g id="text_6">
      <!-- file-per-resource -->
      <g transform="translate(10.8 57.345312) scale(0.1 -0.1)">
       <defs>
        <path id="NotoSerif-Regular-73" d="M 1344 -64 
Q 864 -64 576 109 
Q 288 282 288 614 
Q 288 787 358 883 
Q 429 979 521 1017 
Q 614 1056 691 1056 
Q 691 723 841 483 
Q 992 243 1382 243 
Q 1722 243 1904 406 
Q 2086 570 2086 826 
Q 2086 986 2019 1088 
Q 1952 1190 1782 1289 
Q 1613 1389 1299 1523 
Q 973 1670 758 1808 
Q 544 1946 438 2128 
Q 333 2310 333 2586 
Q 333 3021 662 3254 
Q 992 3488 1536 3488 
Q 1997 3488 2233 3315 
Q 2470 3142 2470 2899 
Q 2470 2726 2352 2620 
Q 2234 2515 2010 2515 
Q 2010 2835 1875 3014 
Q 1741 3194 1459 3194 
Q 1133 3194 992 3050 
Q 851 2906 851 2682 
Q 851 2438 1033 2307 
Q 1216 2176 1645 2003 
Q 1984 1862 2195 1721 
Q 2406 1581 2505 1395 
Q 2605 1210 2605 941 
Q 2605 442 2259 189 
Q 1914 -64 1344 -64 
z
" transform="scale(0.015625)"/>
        <path id="NotoSerif-Regular-75" d="M 1747 -64 
Q 1242 -64 966 233 
Q 691 531 691 1190 
L 691 2726 
Q 691 3008 534 3085 
Q 378 3162 166 3162 
L 147 3162 
L 147 3430 
L 1293 3430 
L 1293 1222 
Q 1293 806 1433 576 
Q 1574 346 1965 346 
Q 2387 346 2579 630 
Q 2771 915 2771 1382 
L 2771 2701 
Q 2771 3002 2617 3082 
Q 2464 3162 2246 3162 
L 2227 3162 
L 2227 3430 
L 3373 3430 
L 3373 698 
Q 3373 416 3529 342 
Q 3686 269 3898 269 
L 3917 269 
L 3917 0 
L 2899 0 
L 2816 518 
L 2784 518 
Q 2586 160 2323 48 
Q 2061 -64 1747 -64 
z
" transform="scale(0.015625)"/>
       </defs>
       <use xlink:href="#NotoSerif-Regular-66"/>
       <use xlink:href="#NotoSerif-Regular-69" transform="translate(36.899994 0)"/>
       <use xlink:href="#NotoSerif-Regular-6c" transform="translate(68.899979 0)"/>
       <use xlink:href="#NotoSerif-Regular-65" transform="translate(99.899963 0)"/>
       <use xlink:href="#NotoSerif-Regular-2d" transform="translate(153.399948 0)"/>
       <use xlink:href="#NotoSerif-Regular-70" transform="translate(184.399933 0)"/>
       <use xlink:href="#NotoSerif-Regular-65" transform="translate(245.799927 0)"/>
       <use xlink:href="#NotoSerif-Regular-72" transform="translate(299.299911 0)"/>
       <use xlink:href="#NotoSerif-Regular-2d" transform="translate(346.399902 0)"/>
       <use xlink:href="#NotoSerif-Regular-72" transform="translate(377.399887 0)"/>
       <use xlink:href="#NotoSerif-Regular-65" transform="translate(424.499878 0)"/>
       <use xlink:href="#NotoSerif-Regular-73" transform="translate(477.999863 0)"/>
       <use xlink:href="#NotoSerif-Regular-6f" transform="translate(523.099854 0)"/>
       <use xlink:href="#NotoSerif-Regular-75" transform="translate(580.79985 0)"/>
       <use xlink:href="#NotoSerif-Regular-72" transform="translate(644.299835 0)"/>
       <use xlink:href="#NotoSerif-Regular-63" transform="translate(691.399826 0)"/>
       <use xlink:href="#NotoSerif-Regular-65" transform="translate(740.599823 0)"/>
      </g>
     </g>
    </g>
    <g id="ytick_4">
     <g id="line2d_6"/>
     <g id="text_7">
      <!-- mixed -->
      <g transform="translate(10.8 76.702273) scale(0.1 -0.1)">
       <defs>
        <path id="NotoSerif-Regular-6d" d="M 179 0 
L 179 269 
L 262 269 
Q 480 269 617 349 
Q 755 429 755 730 
L 755 2726 
Q 755 3008 614 3085 
Q 474 3162 262 3162 
L 243 3162 
L 243 3430 
L 1248 3430 
L 1331 2912 
L 1363 2912 
Q 1555 3270 1795 3382 
Q 2035 3494 2330 3494 
Q 2637 3494 2886 3363 
Q 3136 3232 3258 2912 
L 3309 2912 
Q 3501 3270 3760 3382 
Q 4019 3494 4314 3494 
Q 4806 3494 5081 3196 
Q 5357 2899 5357 2240 
L 5357 730 
Q 5357 429 5494 349 
Q 5632 269 5850 269 
L 5869 269 
L 5869 0 
L 4755 0 
L 4755 2208 
Q 4755 2624 4604 2854 
Q 4454 3085 4083 3085 
Q 3821 3085 3664 2953 
Q 3507 2822 3440 2604 
Q 3373 2387 3373 2131 
L 3373 730 
Q 3373 429 3510 349 
Q 3648 269 3866 269 
L 3885 269 
L 3885 0 
L 2771 0 
L 2771 2208 
Q 2771 2624 2620 2854 
Q 2470 3085 2099 3085 
Q 1824 3085 1661 2941 
Q 1498 2797 1427 2560 
Q 1357 2323 1357 2048 
L 1357 698 
Q 1357 416 1513 342 
Q 1670 269 1882 269 
L 1901 269 
L 1901 0 
L 179 0 
z
" transform="scale(0.015625)"/>
        <path id="NotoSerif-Regular-78" d="M 32 0 
L 32 269 
L 90 269 
Q 320 269 461 355 
Q 602 442 787 678 
L 1594 1722 
L 787 2822 
Q 646 2989 515 3075 
Q 384 3162 237 3162 
L 154 3162 
L 154 3430 
L 1779 3430 
L 1779 3162 
L 1760 3162 
Q 1542 3162 1468 3107 
Q 1395 3053 1395 2976 
Q 1395 2912 1433 2848 
Q 1472 2784 1542 2682 
L 1965 2106 
L 2298 2586 
Q 2368 2694 2413 2793 
Q 2458 2893 2458 2976 
Q 2458 3091 2358 3126 
Q 2259 3162 2112 3162 
L 2093 3162 
L 2093 3430 
L 3494 3430 
L 3494 3162 
L 3437 3162 
Q 3251 3162 3116 3088 
Q 2982 3014 2790 2752 
L 2131 1875 
L 3072 608 
Q 3213 422 3337 345 
Q 3462 269 3584 269 
L 3667 269 
L 3667 0 
L 2016 0 
L 2016 269 
L 2048 269 
Q 2432 269 2432 480 
Q 2432 550 2384 636 
Q 2336 723 2189 922 
L 1760 1498 
L 1312 870 
Q 1254 794 1196 682 
Q 1139 570 1139 467 
Q 1139 365 1232 317 
Q 1325 269 1536 269 
L 1555 269 
L 1555 0 
L 32 0 
z
" transform="scale(0.015625)"/>
       </defs>
       <use xlink:href="#NotoSerif-Regular-6d"/>
       <use xlink:href="#NotoSerif-Regular-69" transform="translate(94.499985 0)"/>
       <use xlink:href="#NotoSerif-Regular-78" transform="translate(126.499969 0)"/>
       <use xlink:href="#NotoSerif-Regular-65" transform="translate(184.299957 0)"/>
       <use xlink:href="#NotoSerif-Regular-64" transform="translate(237.799942 0)"/>
      </g>
     </g>
    </g>
    <g id="ytick_5">
     <g id="line2d_7"/>
     <g id="text_8">
      <!-- single-file -->
      <g transform="translate(10.8 96.159233) scale(0.1 -0.1)">
       <defs>
        <path id="NotoSerif-Regular-67" d="M 1478 -1536 
Q 813 -1536 480 -1289 
Q 147 -1043 147 -602 
Q 147 -224 390 -32 
Q 634 160 947 218 
Q 819 275 707 406 
Q 595 538 595 742 
Q 595 934 694 1075 
Q 794 1216 1011 1344 
Q 736 1459 585 1724 
Q 435 1990 435 2310 
Q 435 2861 736 3177 
Q 1037 3494 1638 3494 
Q 1869 3494 2073 3430 
Q 2278 3366 2368 3283 
Q 2458 3386 2618 3507 
Q 2778 3629 2989 3629 
Q 3181 3629 3273 3529 
Q 3366 3430 3366 3296 
Q 3366 3162 3286 3062 
Q 3206 2963 3027 2963 
Q 3027 3034 2985 3107 
Q 2944 3181 2816 3181 
Q 2669 3181 2541 3104 
Q 2650 2970 2720 2787 
Q 2790 2605 2790 2330 
Q 2790 1856 2505 1542 
Q 2221 1229 1638 1229 
Q 1562 1229 1462 1238 
Q 1363 1248 1299 1261 
Q 1178 1197 1088 1101 
Q 998 1005 998 858 
Q 998 742 1072 678 
Q 1146 614 1395 614 
L 2118 614 
Q 2688 614 2931 345 
Q 3174 77 3174 -339 
Q 3174 -890 2761 -1213 
Q 2349 -1536 1478 -1536 
z
M 1619 1536 
Q 1933 1536 2061 1728 
Q 2189 1920 2189 2336 
Q 2189 2771 2057 2976 
Q 1926 3181 1613 3181 
Q 1306 3181 1171 2969 
Q 1037 2758 1037 2330 
Q 1037 1920 1174 1728 
Q 1312 1536 1619 1536 
z
M 1491 -1222 
Q 1952 -1222 2201 -1123 
Q 2451 -1024 2550 -848 
Q 2650 -672 2650 -448 
Q 2650 -154 2483 -54 
Q 2317 45 1997 45 
L 1370 45 
Q 1190 45 1030 -3 
Q 870 -51 768 -179 
Q 666 -307 666 -563 
Q 666 -749 736 -899 
Q 806 -1050 985 -1136 
Q 1165 -1222 1491 -1222 
z
" transform="scale(0.015625)"/>
       </defs>
       <use xlink:href="#NotoSerif-Regular-73"/>
       <use xlink:href="#NotoSerif-Regular-69" transform="translate(45.099991 0)"/>
       <use xlink:href="#NotoSerif-Regular-6e" transform="translate(77.099976 0)"/>
       <use xlink:href="#NotoSerif-Regular-67" transform="translate(141.59996 0)"/>
       <use xlink:href="#NotoSerif-Regular-6c" transform="translate(195.399948 0)"/>
       <use xlink:href="#NotoSerif-Regular-65" transform="translate(226.399933 0)"/>
       <use xlink:href="#NotoSerif-Regular-2d" transform="translate(279.899918 0)"/>
       <use xlink:href="#NotoSerif-Regular-66" transform="translate(310.899902 0)"/>
       <use xlink:href="#NotoSerif-Regular-69" transform="translate(347.799896 0)"/>
       <use xlink:href="#NotoSerif-Regular-6c" transform="translate(379.799881 0)"/>
       <use xlink:href="#NotoSerif-Regular-65" transform="translate(410.799866 0)"/>
      </g>
     </g>
    </g>
   </g>
  </g>
 </g>
 <defs>
  <clipPath id="p4743b98acf">
   <rect x="260.8" y="10.8" width="304.4" height="85.390625"/>
  </clipPath>
 </defs>
</svg>
