<?xml version="1.0" encoding="utf-8" standalone="no"?>
<!DOCTYPE svg PUBLIC "-//W3C//DTD SVG 1.1//EN"
  "http://www.w3.org/Graphics/SVG/1.1/DTD/svg11.dtd">
<svg xmlns:xlink="http://www.w3.org/1999/xlink" width="864pt" height="108pt" viewBox="0 0 864 108" xmlns="http://www.w3.org/2000/svg" version="1.1">
 <metadata>
  <rdf:RDF xmlns:dc="http://purl.org/dc/elements/1.1/" xmlns:cc="http://creativecommons.org/ns#" xmlns:rdf="http://www.w3.org/1999/02/22-rdf-syntax-ns#">
   <cc:Work>
    <dc:type rdf:resource="http://purl.org/dc/dcmitype/StillImage"/>
    <dc:date>2025-05-19T11:11:43.985790</dc:date>
    <dc:format>image/svg+xml</dc:format>
    <dc:creator>
     <cc:Agent>
      <dc:title>Matplotlib v3.10.3, https://matplotlib.org/</dc:title>
     </cc:Agent>
    </dc:creator>
   </cc:Work>
  </rdf:RDF>
 </metadata>
 <defs>
  <style type="text/css">*{stroke-linejoin: round; stroke-linecap: butt}</style>
 </defs>
 <g id="figure_1">
  <g id="patch_1">
   <path d="M 0 108 
L 864 108 
L 864 0 
L 0 0 
z
" style="fill: #ffffff"/>
  </g>
  <g id="axes_1">
   <g id="patch_2">
    <path d="M 3.00024 67.89976 
L 376.029219 67.89976 
L 376.029219 3.00024 
L 3.00024 3.00024 
z
" style="fill: #ffffff"/>
   </g>
   <g id="matplotlib.axis_1">
    <g id="xtick_1">
     <g id="line2d_1">
      <defs>
       <path id="me4d13225ce" d="M 0 0 
L 0 3.5 
" style="stroke: #000000; stroke-width: 0.8"/>
      </defs>
      <g>
       <use xlink:href="#me4d13225ce" x="376.029219" y="67.89976" style="stroke: #000000; stroke-width: 0.8"/>
      </g>
     </g>
     <g id="text_1">
      <!-- 0 -->
      <g transform="translate(373.233906 82.49976) scale(0.1 -0.1)">
       <defs>
        <path id="NotoSerif-Regular-30" d="M 1792 -64 
Q 1267 -64 934 230 
Q 602 525 445 1056 
Q 288 1587 288 2298 
Q 288 3008 445 3533 
Q 602 4058 934 4346 
Q 1267 4634 1798 4634 
Q 2298 4634 2630 4346 
Q 2963 4058 3126 3530 
Q 3290 3002 3290 2291 
Q 3290 1581 3123 1053 
Q 2957 525 2627 230 
Q 2298 -64 1792 -64 
z
M 1792 282 
Q 2259 282 2441 813 
Q 2624 1344 2624 2291 
Q 2624 3245 2441 3766 
Q 2259 4288 1798 4288 
Q 1331 4288 1142 3766 
Q 954 3245 954 2291 
Q 954 1344 1139 813 
Q 1325 282 1792 282 
z
" transform="scale(0.015625)"/>
       </defs>
       <use xlink:href="#NotoSerif-Regular-30"/>
      </g>
     </g>
    </g>
    <g id="xtick_2">
     <g id="line2d_2">
      <g>
       <use xlink:href="#me4d13225ce" x="311.969564" y="67.89976" style="stroke: #000000; stroke-width: 0.8"/>
      </g>
     </g>
     <g id="text_2">
      <!-- 5,000 -->
      <g transform="translate(299.538314 82.49976) scale(0.1 -0.1)">
       <defs>
        <path id="NotoSerif-Regular-35" d="M 1562 -64 
Q 1088 -64 825 38 
Q 563 141 457 291 
Q 352 442 352 582 
Q 352 762 451 861 
Q 550 960 755 960 
Q 755 685 947 499 
Q 1139 314 1530 314 
Q 1792 314 2000 416 
Q 2208 518 2326 755 
Q 2445 992 2445 1395 
Q 2445 1901 2179 2147 
Q 1914 2394 1472 2394 
Q 1139 2394 972 2349 
Q 806 2304 685 2253 
L 531 2298 
L 736 4570 
L 2874 4570 
L 2906 3603 
L 2637 3603 
L 2611 3795 
Q 2592 3930 2531 3994 
Q 2470 4058 2266 4058 
L 1024 4058 
L 902 2643 
Q 998 2675 1184 2710 
Q 1370 2746 1651 2746 
Q 2067 2746 2396 2595 
Q 2726 2445 2918 2147 
Q 3110 1850 3110 1395 
Q 3110 960 2928 630 
Q 2746 301 2400 118 
Q 2054 -64 1562 -64 
z
" transform="scale(0.015625)"/>
        <path id="NotoSerif-Regular-2c" d="M 192 -717 
Q 800 -518 800 -141 
Q 800 -45 729 6 
Q 659 58 566 102 
Q 474 147 403 224 
Q 333 301 333 448 
Q 333 634 451 730 
Q 570 826 749 826 
Q 947 826 1094 682 
Q 1242 538 1242 269 
Q 1242 -141 1002 -480 
Q 762 -819 192 -986 
L 192 -717 
z
" transform="scale(0.015625)"/>
       </defs>
       <use xlink:href="#NotoSerif-Regular-35"/>
       <use xlink:href="#NotoSerif-Regular-2c" transform="translate(55.899994 0)"/>
       <use xlink:href="#NotoSerif-Regular-30" transform="translate(80.899979 0)"/>
       <use xlink:href="#NotoSerif-Regular-30" transform="translate(136.799973 0)"/>
       <use xlink:href="#NotoSerif-Regular-30" transform="translate(192.699966 0)"/>
      </g>
     </g>
    </g>
    <g id="xtick_3">
     <g id="line2d_3">
      <g>
       <use xlink:href="#me4d13225ce" x="247.909909" y="67.89976" style="stroke: #000000; stroke-width: 0.8"/>
      </g>
     </g>
     <g id="text_3">
      <!-- 10,000 -->
      <g transform="translate(232.683347 82.49976) scale(0.1 -0.1)">
       <defs>
        <path id="NotoSerif-Regular-31" d="M 614 0 
L 614 269 
L 1043 269 
Q 1261 269 1414 349 
Q 1568 429 1568 730 
L 1568 4090 
Q 1325 3795 1129 3609 
Q 934 3424 742 3424 
Q 602 3424 512 3520 
Q 422 3616 422 3770 
Q 614 3821 828 3923 
Q 1043 4026 1357 4262 
L 1805 4595 
L 2214 4595 
L 2214 730 
Q 2214 429 2368 349 
Q 2522 269 2739 269 
L 3053 269 
L 3053 0 
L 614 0 
z
" transform="scale(0.015625)"/>
       </defs>
       <use xlink:href="#NotoSerif-Regular-31"/>
       <use xlink:href="#NotoSerif-Regular-30" transform="translate(55.899994 0)"/>
       <use xlink:href="#NotoSerif-Regular-2c" transform="translate(111.799988 0)"/>
       <use xlink:href="#NotoSerif-Regular-30" transform="translate(136.799973 0)"/>
       <use xlink:href="#NotoSerif-Regular-30" transform="translate(192.699966 0)"/>
       <use xlink:href="#NotoSerif-Regular-30" transform="translate(248.59996 0)"/>
      </g>
     </g>
    </g>
    <g id="xtick_4">
     <g id="line2d_4">
      <g>
       <use xlink:href="#me4d13225ce" x="183.850254" y="67.89976" style="stroke: #000000; stroke-width: 0.8"/>
      </g>
     </g>
     <g id="text_4">
      <!-- 15,000 -->
      <g transform="translate(168.623692 82.49976) scale(0.1 -0.1)">
       <use xlink:href="#NotoSerif-Regular-31"/>
       <use xlink:href="#NotoSerif-Regular-35" transform="translate(55.899994 0)"/>
       <use xlink:href="#NotoSerif-Regular-2c" transform="translate(111.799988 0)"/>
       <use xlink:href="#NotoSerif-Regular-30" transform="translate(136.799973 0)"/>
       <use xlink:href="#NotoSerif-Regular-30" transform="translate(192.699966 0)"/>
       <use xlink:href="#NotoSerif-Regular-30" transform="translate(248.59996 0)"/>
      </g>
     </g>
    </g>
    <g id="xtick_5">
     <g id="line2d_5">
      <g>
       <use xlink:href="#me4d13225ce" x="119.7906" y="67.89976" style="stroke: #000000; stroke-width: 0.8"/>
      </g>
     </g>
     <g id="text_5">
      <!-- 20,000 -->
      <g transform="translate(104.564037 82.49976) scale(0.1 -0.1)">
       <defs>
        <path id="NotoSerif-Regular-32" d="M 390 0 
L 390 467 
L 1459 1702 
Q 1798 2099 1996 2390 
Q 2195 2682 2281 2944 
Q 2368 3206 2368 3501 
Q 2368 3866 2211 4090 
Q 2054 4314 1715 4314 
Q 1427 4314 1273 4179 
Q 1120 4045 1065 3830 
Q 1011 3616 1011 3360 
Q 781 3360 621 3446 
Q 461 3533 461 3776 
Q 461 4147 777 4390 
Q 1094 4634 1715 4634 
Q 2323 4634 2668 4342 
Q 3014 4051 3014 3565 
Q 3014 3117 2732 2691 
Q 2451 2266 1946 1709 
L 864 512 
L 2342 512 
Q 2630 512 2732 659 
Q 2835 806 2880 992 
L 2906 1107 
L 3174 1107 
L 3142 0 
L 390 0 
z
" transform="scale(0.015625)"/>
       </defs>
       <use xlink:href="#NotoSerif-Regular-32"/>
       <use xlink:href="#NotoSerif-Regular-30" transform="translate(55.899994 0)"/>
       <use xlink:href="#NotoSerif-Regular-2c" transform="translate(111.799988 0)"/>
       <use xlink:href="#NotoSerif-Regular-30" transform="translate(136.799973 0)"/>
       <use xlink:href="#NotoSerif-Regular-30" transform="translate(192.699966 0)"/>
       <use xlink:href="#NotoSerif-Regular-30" transform="translate(248.59996 0)"/>
      </g>
     </g>
    </g>
    <g id="xtick_6">
     <g id="line2d_6">
      <g>
       <use xlink:href="#me4d13225ce" x="55.730945" y="67.89976" style="stroke: #000000; stroke-width: 0.8"/>
      </g>
     </g>
     <g id="text_6">
      <!-- 25,000 -->
      <g transform="translate(40.504382 82.49976) scale(0.1 -0.1)">
       <use xlink:href="#NotoSerif-Regular-32"/>
       <use xlink:href="#NotoSerif-Regular-35" transform="translate(55.899994 0)"/>
       <use xlink:href="#NotoSerif-Regular-2c" transform="translate(111.799988 0)"/>
       <use xlink:href="#NotoSerif-Regular-30" transform="translate(136.799973 0)"/>
       <use xlink:href="#NotoSerif-Regular-30" transform="translate(192.699966 0)"/>
       <use xlink:href="#NotoSerif-Regular-30" transform="translate(248.59996 0)"/>
      </g>
     </g>
    </g>
    <g id="text_7">
     <!-- Total HTTP requests -->
     <g transform="translate(141.984261 102.49976) scale(0.1 -0.1)">
      <defs>
       <path id="NotoSerif-Italic-54" d="M 589 0 
L 646 269 
L 794 269 
Q 1005 269 1174 339 
Q 1344 410 1408 698 
L 2163 4250 
L 1549 4250 
Q 1267 4250 1123 4093 
Q 979 3936 909 3725 
L 819 3450 
L 486 3450 
L 755 4570 
L 4358 4570 
L 4154 3450 
L 3821 3450 
Q 3827 3488 3833 3574 
Q 3840 3661 3846 3741 
Q 3853 3821 3853 3840 
Q 3853 4006 3763 4128 
Q 3674 4250 3430 4250 
L 2810 4250 
L 2054 704 
Q 2029 602 2029 525 
Q 2029 365 2160 317 
Q 2291 269 2490 269 
L 2637 269 
L 2579 0 
L 589 0 
z
" transform="scale(0.015625)"/>
       <path id="NotoSerif-Italic-6f" d="M 1504 -64 
Q 960 -64 617 265 
Q 275 595 275 1261 
Q 275 1619 390 2006 
Q 506 2394 742 2733 
Q 979 3072 1337 3283 
Q 1696 3494 2182 3494 
Q 2522 3494 2797 3360 
Q 3072 3226 3235 2934 
Q 3398 2643 3398 2170 
Q 3398 1894 3328 1590 
Q 3258 1286 3110 992 
Q 2963 698 2739 461 
Q 2515 224 2208 80 
Q 1901 -64 1504 -64 
z
M 1574 262 
Q 1888 262 2109 464 
Q 2330 666 2467 982 
Q 2605 1299 2669 1644 
Q 2733 1990 2733 2278 
Q 2733 2758 2566 2963 
Q 2400 3168 2106 3168 
Q 1856 3168 1664 3033 
Q 1472 2899 1334 2678 
Q 1197 2458 1110 2189 
Q 1024 1920 982 1648 
Q 941 1376 941 1146 
Q 941 659 1113 460 
Q 1286 262 1574 262 
z
" transform="scale(0.015625)"/>
       <path id="NotoSerif-Italic-74" d="M 1171 -64 
Q 474 -64 474 685 
Q 474 800 493 950 
Q 512 1101 538 1222 
L 928 3066 
L 442 3066 
L 499 3322 
Q 774 3322 1030 3523 
Q 1286 3725 1478 4218 
L 1773 4218 
L 1606 3430 
L 2381 3430 
L 2304 3066 
L 1530 3066 
L 1139 1242 
Q 1107 1082 1084 938 
Q 1062 794 1062 691 
Q 1062 506 1152 422 
Q 1242 339 1402 339 
Q 1536 339 1680 380 
Q 1824 422 1926 480 
L 2035 243 
Q 1843 109 1628 22 
Q 1414 -64 1171 -64 
z
" transform="scale(0.015625)"/>
       <path id="NotoSerif-Italic-61" d="M 1101 -64 
Q 819 -64 633 89 
Q 448 243 361 508 
Q 275 774 275 1107 
Q 275 1408 355 1737 
Q 435 2067 595 2377 
Q 755 2688 985 2941 
Q 1216 3194 1517 3344 
Q 1818 3494 2182 3494 
Q 2413 3494 2608 3430 
Q 2803 3366 2931 3264 
L 3213 3424 
L 3418 3424 
L 2982 1376 
Q 2970 1306 2944 1171 
Q 2918 1037 2902 896 
Q 2886 755 2886 666 
Q 2886 339 3098 339 
Q 3206 339 3321 387 
Q 3437 435 3558 506 
L 3674 320 
Q 3584 237 3430 147 
Q 3277 58 3104 -3 
Q 2931 -64 2771 -64 
Q 2541 -64 2406 77 
Q 2272 218 2272 467 
Q 2272 595 2288 700 
Q 2304 806 2336 966 
L 2298 966 
Q 2080 474 1779 205 
Q 1478 -64 1101 -64 
z
M 1331 339 
Q 1498 339 1674 467 
Q 1850 595 2006 812 
Q 2163 1030 2284 1299 
Q 2406 1568 2464 1843 
L 2701 2976 
Q 2630 3091 2496 3148 
Q 2362 3206 2214 3206 
Q 1958 3206 1753 3062 
Q 1549 2918 1395 2681 
Q 1242 2445 1136 2163 
Q 1030 1882 979 1597 
Q 928 1312 928 1082 
Q 928 685 1043 512 
Q 1158 339 1331 339 
z
" transform="scale(0.015625)"/>
       <path id="NotoSerif-Italic-6c" d="M 998 -64 
Q 742 -64 604 115 
Q 467 294 467 544 
Q 467 678 492 864 
Q 518 1050 550 1238 
Q 582 1427 608 1549 
L 1133 4006 
Q 1152 4096 1161 4182 
Q 1171 4269 1171 4294 
Q 1171 4486 1040 4540 
Q 909 4595 723 4595 
L 646 4595 
L 704 4864 
L 1914 4864 
L 1171 1376 
Q 1158 1306 1132 1171 
Q 1107 1037 1088 896 
Q 1069 755 1069 666 
Q 1069 339 1280 339 
Q 1389 339 1504 387 
Q 1619 435 1741 506 
L 1856 320 
Q 1715 198 1478 67 
Q 1242 -64 998 -64 
z
" transform="scale(0.015625)"/>
       <path id="NotoSerif-Italic-20" transform="scale(0.015625)"/>
       <path id="NotoSerif-Italic-48" d="M -134 0 
L -83 269 
L 0 269 
Q 218 269 390 349 
Q 563 429 627 730 
L 1293 3866 
Q 1318 3968 1318 4045 
Q 1318 4211 1190 4256 
Q 1062 4301 858 4301 
L 774 4301 
L 832 4570 
L 2694 4570 
L 2637 4301 
L 2554 4301 
Q 2336 4301 2166 4221 
Q 1997 4141 1933 3840 
L 1658 2547 
L 3738 2547 
L 4019 3866 
Q 4045 3968 4045 4045 
Q 4045 4211 3917 4256 
Q 3789 4301 3584 4301 
L 3501 4301 
L 3558 4570 
L 5421 4570 
L 5363 4301 
L 5280 4301 
Q 5062 4301 4892 4221 
Q 4723 4141 4659 3840 
L 3994 704 
Q 3968 602 3968 525 
Q 3968 365 4099 317 
Q 4230 269 4429 269 
L 4512 269 
L 4454 0 
L 2592 0 
L 2643 269 
L 2726 269 
Q 2944 269 3117 349 
Q 3290 429 3354 730 
L 3667 2227 
L 1587 2227 
L 1267 704 
Q 1242 602 1242 525 
Q 1242 365 1373 317 
Q 1504 269 1702 269 
L 1786 269 
L 1728 0 
L -134 0 
z
" transform="scale(0.015625)"/>
       <path id="NotoSerif-Italic-50" d="M -128 0 
L -70 269 
L 13 269 
Q 224 269 393 349 
Q 563 429 627 730 
L 1293 3866 
Q 1318 3968 1318 4045 
Q 1318 4211 1190 4256 
Q 1062 4301 858 4301 
L 774 4301 
L 832 4570 
L 2470 4570 
Q 3142 4570 3536 4256 
Q 3930 3942 3930 3334 
Q 3930 3091 3853 2822 
Q 3776 2554 3568 2317 
Q 3360 2080 2973 1929 
Q 2586 1779 1971 1779 
L 1498 1779 
L 1267 704 
Q 1242 602 1242 525 
Q 1242 365 1373 317 
Q 1504 269 1702 269 
L 1914 269 
L 1856 0 
L -128 0 
z
M 1901 2080 
Q 2400 2080 2694 2240 
Q 2989 2400 3120 2681 
Q 3251 2963 3251 3328 
Q 3251 3834 3011 4048 
Q 2771 4262 2317 4262 
L 2022 4262 
L 1562 2080 
L 1901 2080 
z
" transform="scale(0.015625)"/>
       <path id="NotoSerif-Italic-72" d="M 819 2573 
Q 838 2662 848 2748 
Q 858 2835 858 2861 
Q 858 3053 694 3107 
Q 531 3162 346 3162 
L 294 3162 
L 352 3430 
L 1485 3430 
L 1350 2509 
L 1414 2509 
Q 1536 2771 1677 2995 
Q 1818 3219 2016 3356 
Q 2214 3494 2502 3494 
Q 2771 3494 2899 3369 
Q 3027 3245 3027 3053 
Q 3027 2829 2902 2697 
Q 2778 2566 2496 2566 
Q 2496 2797 2445 2934 
Q 2394 3072 2240 3072 
Q 2074 3072 1904 2899 
Q 1734 2726 1584 2441 
Q 1434 2157 1312 1821 
Q 1190 1485 1120 1165 
L 877 0 
L 282 0 
L 819 2573 
z
" transform="scale(0.015625)"/>
       <path id="NotoSerif-Italic-65" d="M 1523 -64 
Q 1184 -64 899 83 
Q 614 230 444 521 
Q 275 813 275 1261 
Q 275 1619 396 2006 
Q 518 2394 761 2733 
Q 1005 3072 1360 3283 
Q 1715 3494 2182 3494 
Q 2586 3494 2810 3299 
Q 3034 3104 3034 2758 
Q 3034 2426 2794 2131 
Q 2554 1837 2134 1657 
Q 1715 1478 1178 1478 
L 954 1478 
Q 947 1408 944 1341 
Q 941 1274 941 1210 
Q 941 800 1120 569 
Q 1299 339 1645 339 
Q 1952 339 2192 486 
Q 2432 634 2566 800 
Q 2630 755 2630 640 
Q 2630 499 2512 336 
Q 2394 173 2150 54 
Q 1907 -64 1523 -64 
z
M 1075 1773 
Q 1453 1773 1744 1897 
Q 2035 2022 2204 2243 
Q 2374 2464 2374 2758 
Q 2374 3187 2003 3187 
Q 1824 3187 1664 3062 
Q 1504 2938 1376 2730 
Q 1248 2522 1155 2272 
Q 1062 2022 1011 1773 
L 1075 1773 
z
" transform="scale(0.015625)"/>
       <path id="NotoSerif-Italic-71" d="M 2054 -256 
Q 2074 -147 2115 32 
Q 2157 211 2205 406 
Q 2253 602 2288 755 
Q 2323 909 2336 966 
L 2298 966 
Q 2176 704 2009 467 
Q 1843 230 1622 83 
Q 1402 -64 1101 -64 
Q 730 -64 502 233 
Q 275 531 275 1107 
Q 275 1408 355 1737 
Q 435 2067 595 2377 
Q 755 2688 985 2941 
Q 1216 3194 1517 3344 
Q 1818 3494 2182 3494 
Q 2355 3494 2560 3446 
Q 2765 3398 2893 3322 
L 3213 3494 
L 3437 3494 
L 2554 -678 
Q 2534 -768 2524 -851 
Q 2515 -934 2515 -966 
Q 2515 -1158 2646 -1212 
Q 2778 -1267 2957 -1267 
L 3008 -1267 
L 2950 -1536 
L 1786 -1536 
L 2054 -256 
z
M 1331 339 
Q 1504 339 1680 473 
Q 1856 608 2013 829 
Q 2170 1050 2288 1315 
Q 2406 1581 2464 1843 
L 2701 2976 
Q 2656 3066 2525 3136 
Q 2394 3206 2214 3206 
Q 1952 3206 1747 3056 
Q 1542 2906 1385 2659 
Q 1229 2413 1129 2128 
Q 1030 1843 979 1564 
Q 928 1286 928 1075 
Q 928 678 1043 508 
Q 1158 339 1331 339 
z
" transform="scale(0.015625)"/>
       <path id="NotoSerif-Italic-75" d="M 2918 -64 
Q 2662 -64 2521 115 
Q 2381 294 2381 544 
Q 2381 614 2390 716 
Q 2400 819 2413 922 
L 2362 922 
Q 2182 634 2009 413 
Q 1837 192 1625 67 
Q 1414 -58 1126 -58 
Q 749 -58 595 156 
Q 442 371 442 653 
Q 442 813 480 1005 
Q 518 1197 557 1357 
L 806 2477 
Q 826 2566 845 2700 
Q 864 2835 864 2861 
Q 864 3053 733 3107 
Q 602 3162 416 3162 
L 365 3162 
L 422 3430 
L 1613 3430 
L 1190 1517 
Q 1152 1344 1107 1113 
Q 1062 883 1062 742 
Q 1062 582 1126 467 
Q 1190 352 1376 352 
Q 1549 352 1734 483 
Q 1920 614 2093 832 
Q 2266 1050 2394 1312 
Q 2522 1574 2579 1837 
L 2912 3430 
L 3533 3430 
L 3091 1376 
Q 3078 1306 3052 1171 
Q 3027 1037 3011 896 
Q 2995 755 2995 666 
Q 2995 339 3206 339 
Q 3315 339 3404 374 
Q 3494 410 3616 480 
L 3731 294 
Q 3590 173 3376 54 
Q 3162 -64 2918 -64 
z
" transform="scale(0.015625)"/>
       <path id="NotoSerif-Italic-73" d="M 1216 -64 
Q 736 -64 448 131 
Q 160 326 160 659 
Q 160 832 230 925 
Q 301 1018 393 1050 
Q 486 1082 563 1082 
Q 563 858 633 666 
Q 704 474 867 358 
Q 1030 243 1293 243 
Q 1613 243 1798 393 
Q 1984 544 1984 838 
Q 1984 1062 1837 1222 
Q 1690 1382 1338 1542 
Q 986 1709 774 1929 
Q 563 2150 563 2534 
Q 563 2950 899 3219 
Q 1235 3488 1798 3488 
Q 2150 3488 2368 3398 
Q 2586 3309 2691 3168 
Q 2797 3027 2797 2880 
Q 2797 2682 2669 2582 
Q 2541 2483 2317 2483 
Q 2317 2656 2262 2819 
Q 2208 2982 2083 3088 
Q 1958 3194 1741 3194 
Q 1453 3194 1286 3040 
Q 1120 2886 1120 2643 
Q 1120 2426 1280 2282 
Q 1440 2138 1773 1984 
Q 2125 1824 2333 1593 
Q 2541 1363 2541 992 
Q 2541 525 2185 230 
Q 1830 -64 1216 -64 
z
" transform="scale(0.015625)"/>
      </defs>
      <use xlink:href="#NotoSerif-Italic-54"/>
      <use xlink:href="#NotoSerif-Italic-6f" transform="translate(61.299988 0)"/>
      <use xlink:href="#NotoSerif-Italic-74" transform="translate(118.699982 0)"/>
      <use xlink:href="#NotoSerif-Italic-61" transform="translate(155.499969 0)"/>
      <use xlink:href="#NotoSerif-Italic-6c" transform="translate(213.399963 0)"/>
      <use xlink:href="#NotoSerif-Italic-20" transform="translate(243.799957 0)"/>
      <use xlink:href="#NotoSerif-Italic-48" transform="translate(269.799942 0)"/>
      <use xlink:href="#NotoSerif-Italic-54" transform="translate(349.09993 0)"/>
      <use xlink:href="#NotoSerif-Italic-54" transform="translate(410.399918 0)"/>
      <use xlink:href="#NotoSerif-Italic-50" transform="translate(471.699905 0)"/>
      <use xlink:href="#NotoSerif-Italic-20" transform="translate(533.69989 0)"/>
      <use xlink:href="#NotoSerif-Italic-72" transform="translate(559.699875 0)"/>
      <use xlink:href="#NotoSerif-Italic-65" transform="translate(606.499863 0)"/>
      <use xlink:href="#NotoSerif-Italic-71" transform="translate(655.79985 0)"/>
      <use xlink:href="#NotoSerif-Italic-75" transform="translate(711.799835 0)"/>
      <use xlink:href="#NotoSerif-Italic-65" transform="translate(771.699829 0)"/>
      <use xlink:href="#NotoSerif-Italic-73" transform="translate(820.999817 0)"/>
      <use xlink:href="#NotoSerif-Italic-74" transform="translate(867.399811 0)"/>
      <use xlink:href="#NotoSerif-Italic-73" transform="translate(904.199799 0)"/>
     </g>
    </g>
   </g>
   <g id="matplotlib.axis_2">
    <g id="ytick_1">
     <g id="line2d_7"/>
     <g id="text_8">
      <!-- single-file -->
      <g transform="translate(412.347969 65.259808) scale(0.1 -0.1)">
       <defs>
        <path id="NotoSerif-Medium-73" d="M 1376 -64 
Q 845 -64 557 115 
Q 269 294 269 627 
Q 269 800 339 899 
Q 410 998 515 1040 
Q 621 1082 717 1082 
Q 717 730 877 499 
Q 1037 269 1414 269 
Q 1747 269 1920 422 
Q 2093 576 2093 813 
Q 2093 966 2022 1068 
Q 1952 1171 1782 1264 
Q 1613 1357 1312 1478 
Q 973 1619 749 1756 
Q 525 1894 419 2083 
Q 314 2272 314 2560 
Q 314 3014 656 3254 
Q 998 3494 1562 3494 
Q 2054 3494 2297 3315 
Q 2541 3136 2541 2899 
Q 2541 2720 2413 2611 
Q 2285 2502 2042 2502 
Q 2042 2822 1901 2998 
Q 1760 3174 1478 3174 
Q 1178 3174 1037 3043 
Q 896 2912 896 2694 
Q 896 2464 1075 2336 
Q 1254 2208 1683 2042 
Q 2195 1837 2435 1613 
Q 2675 1389 2675 966 
Q 2675 467 2323 201 
Q 1971 -64 1376 -64 
z
" transform="scale(0.015625)"/>
        <path id="NotoSerif-Medium-69" d="M 1050 4051 
Q 877 4051 755 4147 
Q 634 4243 634 4467 
Q 634 4698 755 4790 
Q 877 4883 1050 4883 
Q 1216 4883 1341 4790 
Q 1466 4698 1466 4467 
Q 1466 4243 1341 4147 
Q 1216 4051 1050 4051 
z
M 134 0 
L 134 288 
L 218 288 
Q 422 288 572 365 
Q 723 442 723 723 
L 723 2707 
Q 723 2982 572 3062 
Q 422 3142 218 3142 
L 186 3142 
L 186 3430 
L 1427 3430 
L 1427 749 
Q 1427 454 1574 371 
Q 1722 288 1933 288 
L 2016 288 
L 2016 0 
L 134 0 
z
" transform="scale(0.015625)"/>
        <path id="NotoSerif-Medium-6e" d="M 166 0 
L 166 288 
L 211 288 
Q 429 288 576 368 
Q 723 448 723 742 
L 723 2714 
Q 723 2989 582 3065 
Q 442 3142 230 3142 
L 198 3142 
L 198 3430 
L 1318 3430 
L 1402 2931 
L 1434 2931 
Q 1619 3264 1862 3382 
Q 2106 3501 2426 3501 
Q 2931 3501 3212 3203 
Q 3494 2906 3494 2253 
L 3494 749 
Q 3494 448 3619 368 
Q 3744 288 3962 288 
L 3994 288 
L 3994 0 
L 2790 0 
L 2790 2182 
Q 2790 2598 2649 2825 
Q 2509 3053 2144 3053 
Q 1875 3053 1718 2909 
Q 1562 2765 1494 2531 
Q 1427 2298 1427 2029 
L 1427 717 
Q 1427 435 1568 361 
Q 1709 288 1920 288 
L 1952 288 
L 1952 0 
L 166 0 
z
" transform="scale(0.015625)"/>
        <path id="NotoSerif-Medium-67" d="M 1485 -1530 
Q 794 -1530 451 -1290 
Q 109 -1050 109 -608 
Q 109 -250 352 -54 
Q 595 141 928 192 
Q 787 256 665 384 
Q 544 512 544 723 
Q 544 922 659 1066 
Q 774 1210 1005 1344 
Q 723 1453 560 1715 
Q 397 1978 397 2317 
Q 397 2874 704 3187 
Q 1011 3501 1645 3501 
Q 1882 3501 2083 3440 
Q 2285 3379 2387 3296 
Q 2490 3411 2650 3529 
Q 2810 3648 3027 3648 
Q 3226 3648 3322 3545 
Q 3418 3443 3418 3302 
Q 3418 3168 3334 3062 
Q 3251 2957 3053 2957 
Q 3053 3046 3008 3116 
Q 2963 3187 2842 3187 
Q 2758 3187 2697 3168 
Q 2637 3149 2579 3117 
Q 2694 2982 2771 2796 
Q 2848 2611 2848 2336 
Q 2848 1856 2550 1539 
Q 2253 1222 1645 1222 
Q 1568 1222 1465 1232 
Q 1363 1242 1299 1254 
Q 1184 1197 1101 1101 
Q 1018 1005 1018 870 
Q 1018 755 1091 697 
Q 1165 640 1395 640 
L 2125 640 
Q 2714 640 2970 371 
Q 3226 102 3226 -320 
Q 3226 -883 2800 -1206 
Q 2374 -1530 1485 -1530 
z
M 1626 1549 
Q 1933 1549 2051 1744 
Q 2170 1939 2170 2336 
Q 2170 2746 2048 2957 
Q 1926 3168 1619 3168 
Q 1318 3168 1193 2950 
Q 1069 2733 1069 2330 
Q 1069 1939 1197 1744 
Q 1325 1549 1626 1549 
z
M 1498 -1197 
Q 1933 -1197 2182 -1104 
Q 2432 -1011 2534 -844 
Q 2637 -678 2637 -461 
Q 2637 -198 2480 -99 
Q 2323 0 2022 0 
L 1363 0 
Q 1197 0 1043 -45 
Q 890 -90 790 -214 
Q 691 -339 691 -582 
Q 691 -851 867 -1024 
Q 1043 -1197 1498 -1197 
z
" transform="scale(0.015625)"/>
        <path id="NotoSerif-Medium-6c" d="M 90 0 
L 90 288 
L 173 288 
Q 384 288 531 371 
Q 678 454 678 749 
L 678 4154 
Q 678 4339 604 4428 
Q 531 4518 416 4547 
Q 301 4576 173 4576 
L 90 4576 
L 90 4864 
L 1382 4864 
L 1382 749 
Q 1382 454 1529 371 
Q 1677 288 1888 288 
L 1971 288 
L 1971 0 
L 90 0 
z
" transform="scale(0.015625)"/>
        <path id="NotoSerif-Medium-65" d="M 1869 -64 
Q 1139 -64 739 397 
Q 339 858 339 1690 
Q 339 2592 720 3046 
Q 1101 3501 1805 3501 
Q 2445 3501 2813 3113 
Q 3181 2726 3181 1965 
L 3181 1664 
L 1062 1664 
Q 1075 979 1308 668 
Q 1542 358 1997 358 
Q 2330 358 2557 502 
Q 2784 646 2899 832 
Q 2950 813 2998 749 
Q 3046 685 3046 595 
Q 3046 461 2918 307 
Q 2790 154 2531 45 
Q 2272 -64 1869 -64 
z
M 2445 2029 
Q 2445 2528 2297 2832 
Q 2150 3136 1798 3136 
Q 1466 3136 1283 2851 
Q 1101 2566 1075 2029 
L 2445 2029 
z
" transform="scale(0.015625)"/>
        <path id="NotoSerif-Medium-2d" d="M 160 1478 
L 160 2010 
L 1824 2010 
L 1824 1478 
L 160 1478 
z
" transform="scale(0.015625)"/>
        <path id="NotoSerif-Medium-66" d="M 160 0 
L 160 288 
L 256 288 
Q 390 288 505 317 
Q 621 346 691 442 
Q 762 538 762 736 
L 762 3091 
L 186 3091 
L 186 3430 
L 762 3430 
L 762 3725 
Q 762 4307 1069 4617 
Q 1376 4928 1946 4928 
Q 2477 4928 2675 4797 
Q 2874 4666 2874 4474 
Q 2874 4294 2726 4192 
Q 2579 4090 2304 4090 
Q 2304 4275 2221 4444 
Q 2138 4614 1914 4614 
Q 1664 4614 1565 4412 
Q 1466 4211 1466 3802 
L 1466 3430 
L 2362 3430 
L 2362 3091 
L 1466 3091 
L 1466 736 
Q 1466 538 1536 442 
Q 1606 346 1724 317 
Q 1843 288 1971 288 
L 2234 288 
L 2234 0 
L 160 0 
z
" transform="scale(0.015625)"/>
       </defs>
       <use xlink:href="#NotoSerif-Medium-73"/>
       <use xlink:href="#NotoSerif-Medium-69" transform="translate(45.899994 0)"/>
       <use xlink:href="#NotoSerif-Medium-6e" transform="translate(78.799988 0)"/>
       <use xlink:href="#NotoSerif-Medium-67" transform="translate(143.899979 0)"/>
       <use xlink:href="#NotoSerif-Medium-6c" transform="translate(198.299973 0)"/>
       <use xlink:href="#NotoSerif-Medium-65" transform="translate(230.499969 0)"/>
       <use xlink:href="#NotoSerif-Medium-2d" transform="translate(284.999954 0)"/>
       <use xlink:href="#NotoSerif-Medium-66" transform="translate(315.999939 0)"/>
       <use xlink:href="#NotoSerif-Medium-69" transform="translate(353.999924 0)"/>
       <use xlink:href="#NotoSerif-Medium-6c" transform="translate(386.899918 0)"/>
       <use xlink:href="#NotoSerif-Medium-65" transform="translate(419.099915 0)"/>
      </g>
     </g>
    </g>
    <g id="ytick_2">
     <g id="line2d_8"/>
     <g id="text_9">
      <!-- mixed -->
      <g transform="translate(420.77375 52.229904) scale(0.1 -0.1)">
       <defs>
        <path id="NotoSerif-Medium-6d" d="M 166 0 
L 166 288 
L 237 288 
Q 454 288 588 368 
Q 723 448 723 742 
L 723 2720 
Q 723 2995 585 3072 
Q 448 3149 237 3149 
L 218 3149 
L 218 3430 
L 1318 3430 
L 1402 2931 
L 1434 2931 
Q 1613 3264 1853 3382 
Q 2093 3501 2413 3501 
Q 2733 3501 2979 3369 
Q 3226 3238 3341 2931 
L 3392 2931 
Q 3571 3264 3827 3382 
Q 4083 3501 4397 3501 
Q 4896 3501 5174 3203 
Q 5453 2906 5453 2253 
L 5453 749 
Q 5453 448 5581 368 
Q 5709 288 5926 288 
L 5946 288 
L 5946 0 
L 4749 0 
L 4749 2182 
Q 4749 2598 4608 2825 
Q 4467 3053 4122 3053 
Q 3872 3053 3725 2921 
Q 3578 2790 3514 2576 
Q 3450 2362 3450 2112 
L 3450 749 
Q 3450 448 3581 368 
Q 3712 288 3923 288 
L 3942 288 
L 3942 0 
L 2746 0 
L 2746 2182 
Q 2746 2598 2608 2825 
Q 2470 3053 2125 3053 
Q 1862 3053 1708 2909 
Q 1555 2765 1491 2531 
Q 1427 2298 1427 2029 
L 1427 717 
Q 1427 435 1574 361 
Q 1722 288 1933 288 
L 1952 288 
L 1952 0 
L 166 0 
z
" transform="scale(0.015625)"/>
        <path id="NotoSerif-Medium-78" d="M 45 0 
L 45 288 
L 102 288 
Q 333 288 470 374 
Q 608 461 794 698 
L 1606 1722 
L 800 2803 
Q 659 2970 524 3056 
Q 390 3142 250 3142 
L 166 3142 
L 166 3430 
L 1888 3430 
L 1888 3142 
L 1869 3142 
Q 1651 3142 1580 3088 
Q 1510 3034 1510 2957 
Q 1510 2886 1548 2822 
Q 1587 2758 1658 2662 
L 2067 2125 
L 2381 2573 
Q 2458 2682 2502 2774 
Q 2547 2867 2547 2957 
Q 2547 3072 2451 3107 
Q 2355 3142 2214 3142 
L 2195 3142 
L 2195 3430 
L 3610 3430 
L 3610 3142 
L 3552 3142 
Q 3366 3142 3235 3065 
Q 3104 2989 2912 2733 
L 2246 1875 
L 3187 627 
Q 3328 442 3453 365 
Q 3578 288 3699 288 
L 3782 288 
L 3782 0 
L 2029 0 
L 2029 288 
L 2061 288 
Q 2445 288 2445 499 
Q 2445 570 2397 656 
Q 2349 742 2202 941 
L 1786 1478 
L 1344 870 
Q 1286 794 1232 688 
Q 1178 582 1178 486 
Q 1178 384 1270 336 
Q 1363 288 1574 288 
L 1594 288 
L 1594 0 
L 45 0 
z
" transform="scale(0.015625)"/>
        <path id="NotoSerif-Medium-64" d="M 1638 -64 
Q 1011 -64 672 361 
Q 333 787 333 1709 
Q 333 2637 672 3065 
Q 1011 3494 1638 3494 
Q 2003 3494 2233 3344 
Q 2464 3194 2605 2957 
L 2643 2957 
Q 2624 3110 2617 3308 
Q 2611 3507 2611 3661 
L 2611 4154 
Q 2611 4429 2454 4502 
Q 2298 4576 2086 4576 
L 2035 4576 
L 2035 4864 
L 3315 4864 
L 3315 736 
Q 3315 454 3462 371 
Q 3610 288 3827 288 
L 3878 288 
L 3878 0 
L 2746 0 
L 2650 557 
L 2624 557 
Q 2477 269 2246 102 
Q 2016 -64 1638 -64 
z
M 1798 365 
Q 2259 365 2435 697 
Q 2611 1030 2611 1709 
Q 2611 2368 2435 2720 
Q 2259 3072 1792 3072 
Q 1395 3072 1225 2720 
Q 1056 2368 1056 1702 
Q 1056 1030 1225 697 
Q 1395 365 1798 365 
z
" transform="scale(0.015625)"/>
       </defs>
       <use xlink:href="#NotoSerif-Medium-6d"/>
       <use xlink:href="#NotoSerif-Medium-69" transform="translate(95.599991 0)"/>
       <use xlink:href="#NotoSerif-Medium-78" transform="translate(128.499985 0)"/>
       <use xlink:href="#NotoSerif-Medium-65" transform="translate(188.199982 0)"/>
       <use xlink:href="#NotoSerif-Medium-64" transform="translate(242.699966 0)"/>
      </g>
     </g>
    </g>
    <g id="ytick_3">
     <g id="line2d_9"/>
     <g id="text_10">
      <!-- file-per-resource -->
      <g transform="translate(395.522969 39.3) scale(0.1 -0.1)">
       <defs>
        <path id="NotoSerif-Medium-70" d="M 109 -1517 
L 109 -1229 
L 166 -1229 
Q 294 -1229 409 -1197 
Q 525 -1165 598 -1072 
Q 672 -979 672 -781 
L 672 2701 
Q 672 2989 525 3065 
Q 378 3142 173 3142 
L 96 3142 
L 96 3430 
L 1254 3430 
L 1338 2874 
L 1363 2874 
Q 1504 3155 1734 3324 
Q 1965 3494 2342 3494 
Q 2976 3494 3312 3068 
Q 3648 2643 3648 1715 
Q 3648 787 3312 361 
Q 2976 -64 2336 -64 
Q 1978 -64 1747 80 
Q 1517 224 1376 467 
L 1350 467 
Q 1363 282 1369 80 
Q 1376 -122 1376 -256 
L 1376 -800 
Q 1376 -992 1449 -1081 
Q 1523 -1171 1638 -1200 
Q 1754 -1229 1882 -1229 
L 1933 -1229 
L 1933 -1517 
L 109 -1517 
z
M 2189 358 
Q 2586 358 2755 704 
Q 2925 1050 2925 1722 
Q 2925 2387 2755 2726 
Q 2586 3066 2189 3066 
Q 1722 3066 1549 2730 
Q 1376 2394 1376 1715 
Q 1376 1050 1549 704 
Q 1722 358 2189 358 
z
" transform="scale(0.015625)"/>
        <path id="NotoSerif-Medium-72" d="M 186 0 
L 186 288 
L 211 288 
Q 422 288 572 368 
Q 723 448 723 749 
L 723 2707 
Q 723 2989 576 3065 
Q 429 3142 218 3142 
L 198 3142 
L 198 3430 
L 1261 3430 
L 1389 2803 
L 1421 2803 
Q 1504 3002 1606 3158 
Q 1709 3315 1875 3404 
Q 2042 3494 2317 3494 
Q 2669 3494 2838 3363 
Q 3008 3232 3008 3002 
Q 3008 2778 2851 2646 
Q 2694 2515 2355 2515 
Q 2355 2778 2284 2899 
Q 2214 3021 2029 3021 
Q 1862 3021 1744 2889 
Q 1626 2758 1558 2553 
Q 1491 2349 1459 2125 
Q 1427 1901 1427 1715 
L 1427 717 
Q 1427 435 1577 361 
Q 1728 288 1933 288 
L 2118 288 
L 2118 0 
L 186 0 
z
" transform="scale(0.015625)"/>
        <path id="NotoSerif-Medium-6f" d="M 1869 -64 
Q 1158 -64 748 377 
Q 339 819 339 1722 
Q 339 2624 729 3062 
Q 1120 3501 1888 3501 
Q 2598 3501 3008 3062 
Q 3418 2624 3418 1722 
Q 3418 819 3024 377 
Q 2630 -64 1869 -64 
z
M 1882 288 
Q 2330 288 2512 653 
Q 2694 1018 2694 1722 
Q 2694 2432 2508 2787 
Q 2323 3142 1875 3142 
Q 1427 3142 1244 2787 
Q 1062 2432 1062 1722 
Q 1062 1018 1248 653 
Q 1434 288 1882 288 
z
" transform="scale(0.015625)"/>
        <path id="NotoSerif-Medium-75" d="M 1728 -64 
Q 1210 -64 941 237 
Q 672 538 672 1190 
L 672 2701 
Q 672 2982 531 3062 
Q 390 3142 173 3142 
L 154 3142 
L 154 3430 
L 1376 3430 
L 1376 1267 
Q 1376 851 1507 617 
Q 1638 384 1997 384 
Q 2387 384 2563 662 
Q 2739 941 2739 1402 
L 2739 2694 
Q 2739 2989 2595 3065 
Q 2451 3142 2246 3142 
L 2221 3142 
L 2221 3430 
L 3443 3430 
L 3443 710 
Q 3443 429 3590 358 
Q 3738 288 3942 288 
L 3968 288 
L 3968 0 
L 2880 0 
L 2784 499 
L 2752 499 
Q 2560 166 2304 51 
Q 2048 -64 1728 -64 
z
" transform="scale(0.015625)"/>
        <path id="NotoSerif-Medium-63" d="M 1830 -64 
Q 1395 -64 1056 112 
Q 717 288 528 675 
Q 339 1062 339 1696 
Q 339 2387 531 2777 
Q 723 3168 1056 3334 
Q 1389 3501 1805 3501 
Q 2112 3501 2374 3424 
Q 2637 3347 2800 3200 
Q 2963 3053 2963 2842 
Q 2963 2624 2812 2512 
Q 2662 2400 2317 2400 
Q 2317 2707 2214 2934 
Q 2112 3162 1811 3162 
Q 1581 3162 1411 3034 
Q 1242 2906 1152 2589 
Q 1062 2272 1062 1702 
Q 1062 1030 1273 700 
Q 1485 371 1971 371 
Q 2278 371 2505 502 
Q 2733 634 2842 838 
Q 2963 749 2963 576 
Q 2963 422 2838 275 
Q 2714 128 2464 32 
Q 2214 -64 1830 -64 
z
" transform="scale(0.015625)"/>
       </defs>
       <use xlink:href="#NotoSerif-Medium-66"/>
       <use xlink:href="#NotoSerif-Medium-69" transform="translate(37.999985 0)"/>
       <use xlink:href="#NotoSerif-Medium-6c" transform="translate(70.899979 0)"/>
       <use xlink:href="#NotoSerif-Medium-65" transform="translate(103.099976 0)"/>
       <use xlink:href="#NotoSerif-Medium-2d" transform="translate(157.59996 0)"/>
       <use xlink:href="#NotoSerif-Medium-70" transform="translate(188.599945 0)"/>
       <use xlink:href="#NotoSerif-Medium-65" transform="translate(250.899933 0)"/>
       <use xlink:href="#NotoSerif-Medium-72" transform="translate(305.399918 0)"/>
       <use xlink:href="#NotoSerif-Medium-2d" transform="translate(353.899902 0)"/>
       <use xlink:href="#NotoSerif-Medium-72" transform="translate(384.899887 0)"/>
       <use xlink:href="#NotoSerif-Medium-65" transform="translate(433.399872 0)"/>
       <use xlink:href="#NotoSerif-Medium-73" transform="translate(487.899857 0)"/>
       <use xlink:href="#NotoSerif-Medium-6f" transform="translate(533.79985 0)"/>
       <use xlink:href="#NotoSerif-Medium-75" transform="translate(592.499847 0)"/>
       <use xlink:href="#NotoSerif-Medium-72" transform="translate(656.899841 0)"/>
       <use xlink:href="#NotoSerif-Medium-63" transform="translate(705.399826 0)"/>
       <use xlink:href="#NotoSerif-Medium-65" transform="translate(755.599823 0)"/>
      </g>
     </g>
    </g>
    <g id="ytick_4">
     <g id="line2d_10"/>
     <g id="text_11">
      <!-- file-per-location -->
      <g transform="translate(397.193281 26.320096) scale(0.1 -0.1)">
       <defs>
        <path id="NotoSerif-Medium-61" d="M 1306 -64 
Q 883 -64 598 189 
Q 314 442 314 966 
Q 314 1478 672 1724 
Q 1030 1971 1760 1997 
L 2291 2016 
L 2291 2387 
Q 2291 2618 2252 2794 
Q 2214 2970 2096 3066 
Q 1978 3162 1741 3162 
Q 1402 3162 1299 2966 
Q 1197 2771 1197 2464 
Q 890 2464 736 2557 
Q 582 2650 582 2874 
Q 582 3098 742 3235 
Q 902 3373 1174 3437 
Q 1446 3501 1779 3501 
Q 2387 3501 2691 3251 
Q 2995 3002 2995 2400 
L 2995 749 
Q 2995 480 3084 384 
Q 3174 288 3392 288 
L 3411 288 
L 3411 0 
L 2458 0 
L 2342 518 
L 2291 518 
Q 2157 346 2029 214 
Q 1901 83 1734 9 
Q 1568 -64 1306 -64 
z
M 1510 352 
Q 1869 352 2080 589 
Q 2291 826 2291 1222 
L 2291 1728 
L 1920 1709 
Q 1421 1690 1229 1494 
Q 1037 1299 1037 934 
Q 1037 352 1510 352 
z
" transform="scale(0.015625)"/>
        <path id="NotoSerif-Medium-74" d="M 1562 -64 
Q 1075 -64 841 157 
Q 608 378 608 934 
L 608 3046 
L 122 3046 
L 122 3322 
Q 262 3322 409 3379 
Q 557 3437 659 3546 
Q 858 3750 954 4218 
L 1312 4218 
L 1312 3430 
L 2150 3430 
L 2150 3046 
L 1312 3046 
L 1312 934 
Q 1312 621 1437 473 
Q 1562 326 1786 326 
Q 1901 326 2003 339 
Q 2106 352 2208 371 
L 2208 58 
Q 2118 13 1936 -25 
Q 1754 -64 1562 -64 
z
" transform="scale(0.015625)"/>
       </defs>
       <use xlink:href="#NotoSerif-Medium-66"/>
       <use xlink:href="#NotoSerif-Medium-69" transform="translate(37.999985 0)"/>
       <use xlink:href="#NotoSerif-Medium-6c" transform="translate(70.899979 0)"/>
       <use xlink:href="#NotoSerif-Medium-65" transform="translate(103.099976 0)"/>
       <use xlink:href="#NotoSerif-Medium-2d" transform="translate(157.59996 0)"/>
       <use xlink:href="#NotoSerif-Medium-70" transform="translate(188.599945 0)"/>
       <use xlink:href="#NotoSerif-Medium-65" transform="translate(250.899933 0)"/>
       <use xlink:href="#NotoSerif-Medium-72" transform="translate(305.399918 0)"/>
       <use xlink:href="#NotoSerif-Medium-2d" transform="translate(353.899902 0)"/>
       <use xlink:href="#NotoSerif-Medium-6c" transform="translate(384.899887 0)"/>
       <use xlink:href="#NotoSerif-Medium-6f" transform="translate(417.099884 0)"/>
       <use xlink:href="#NotoSerif-Medium-63" transform="translate(475.799881 0)"/>
       <use xlink:href="#NotoSerif-Medium-61" transform="translate(525.999878 0)"/>
       <use xlink:href="#NotoSerif-Medium-74" transform="translate(583.299866 0)"/>
       <use xlink:href="#NotoSerif-Medium-69" transform="translate(619.999863 0)"/>
       <use xlink:href="#NotoSerif-Medium-6f" transform="translate(652.899857 0)"/>
       <use xlink:href="#NotoSerif-Medium-6e" transform="translate(711.599854 0)"/>
      </g>
     </g>
    </g>
    <g id="ytick_5">
     <g id="line2d_11"/>
     <g id="text_12">
      <!-- file-per-date -->
      <g transform="translate(406.238594 13.340192) scale(0.1 -0.1)">
       <use xlink:href="#NotoSerif-Medium-66"/>
       <use xlink:href="#NotoSerif-Medium-69" transform="translate(37.999985 0)"/>
       <use xlink:href="#NotoSerif-Medium-6c" transform="translate(70.899979 0)"/>
       <use xlink:href="#NotoSerif-Medium-65" transform="translate(103.099976 0)"/>
       <use xlink:href="#NotoSerif-Medium-2d" transform="translate(157.59996 0)"/>
       <use xlink:href="#NotoSerif-Medium-70" transform="translate(188.599945 0)"/>
       <use xlink:href="#NotoSerif-Medium-65" transform="translate(250.899933 0)"/>
       <use xlink:href="#NotoSerif-Medium-72" transform="translate(305.399918 0)"/>
       <use xlink:href="#NotoSerif-Medium-2d" transform="translate(353.899902 0)"/>
       <use xlink:href="#NotoSerif-Medium-64" transform="translate(384.899887 0)"/>
       <use xlink:href="#NotoSerif-Medium-61" transform="translate(447.299881 0)"/>
       <use xlink:href="#NotoSerif-Medium-74" transform="translate(504.599869 0)"/>
       <use xlink:href="#NotoSerif-Medium-65" transform="translate(541.299866 0)"/>
      </g>
     </g>
    </g>
   </g>
   <g id="line2d_12">
    <path d="M 267.004811 61.409808 
L 297.41521 61.409808 
" clip-path="url(#p5e10a5ed33)" style="fill: none; stroke: #d3d3d3; stroke-linecap: square"/>
   </g>
   <g id="line2d_13">
    <path d="M 267.004811 61.409808 
L 225.8862 61.409808 
" clip-path="url(#p5e10a5ed33)" style="fill: none; stroke: #d3d3d3; stroke-linecap: square"/>
   </g>
   <g id="line2d_14">
    <path d="M 297.41521 63.032296 
L 297.41521 59.78732 
" clip-path="url(#p5e10a5ed33)" style="fill: none; stroke: #d3d3d3; stroke-linecap: square"/>
   </g>
   <g id="line2d_15">
    <path d="M 225.8862 63.032296 
L 225.8862 59.78732 
" clip-path="url(#p5e10a5ed33)" style="fill: none; stroke: #d3d3d3; stroke-linecap: square"/>
   </g>
   <g id="line2d_16"/>
   <g id="line2d_17">
    <path d="M 225.204605 48.429904 
L 289.292446 48.429904 
" clip-path="url(#p5e10a5ed33)" style="fill: none; stroke: #d3d3d3; stroke-linecap: square"/>
   </g>
   <g id="line2d_18">
    <path d="M 225.204605 48.429904 
L 17.461707 48.429904 
" clip-path="url(#p5e10a5ed33)" style="fill: none; stroke: #d3d3d3; stroke-linecap: square"/>
   </g>
   <g id="line2d_19">
    <path d="M 289.292446 50.052392 
L 289.292446 46.807416 
" clip-path="url(#p5e10a5ed33)" style="fill: none; stroke: #d3d3d3; stroke-linecap: square"/>
   </g>
   <g id="line2d_20">
    <path d="M 17.461707 50.052392 
L 17.461707 46.807416 
" clip-path="url(#p5e10a5ed33)" style="fill: none; stroke: #d3d3d3; stroke-linecap: square"/>
   </g>
   <g id="line2d_21"/>
   <g id="line2d_22">
    <path d="M 297.697073 35.45 
L 297.697073 35.45 
" clip-path="url(#p5e10a5ed33)" style="fill: none; stroke: #d3d3d3; stroke-linecap: square"/>
   </g>
   <g id="line2d_23">
    <path d="M 297.697073 35.45 
L 297.697073 35.45 
" clip-path="url(#p5e10a5ed33)" style="fill: none; stroke: #d3d3d3; stroke-linecap: square"/>
   </g>
   <g id="line2d_24">
    <path d="M 297.697073 37.072488 
L 297.697073 33.827512 
" clip-path="url(#p5e10a5ed33)" style="fill: none; stroke: #d3d3d3; stroke-linecap: square"/>
   </g>
   <g id="line2d_25">
    <path d="M 297.697073 37.072488 
L 297.697073 33.827512 
" clip-path="url(#p5e10a5ed33)" style="fill: none; stroke: #d3d3d3; stroke-linecap: square"/>
   </g>
   <g id="line2d_26"/>
   <g id="line2d_27">
    <path d="M 236.145994 22.470096 
L 264.04013 22.470096 
" clip-path="url(#p5e10a5ed33)" style="fill: none; stroke: #d3d3d3; stroke-linecap: square"/>
   </g>
   <g id="line2d_28">
    <path d="M 236.145994 22.470096 
L 203.426885 22.470096 
" clip-path="url(#p5e10a5ed33)" style="fill: none; stroke: #d3d3d3; stroke-linecap: square"/>
   </g>
   <g id="line2d_29">
    <path d="M 264.04013 24.092584 
L 264.04013 20.847608 
" clip-path="url(#p5e10a5ed33)" style="fill: none; stroke: #d3d3d3; stroke-linecap: square"/>
   </g>
   <g id="line2d_30">
    <path d="M 203.426885 24.092584 
L 203.426885 20.847608 
" clip-path="url(#p5e10a5ed33)" style="fill: none; stroke: #d3d3d3; stroke-linecap: square"/>
   </g>
   <g id="line2d_31"/>
   <g id="line2d_32">
    <path d="M 299.557365 9.490192 
L 306.691048 9.490192 
" clip-path="url(#p5e10a5ed33)" style="fill: none; stroke: #d3d3d3; stroke-linecap: square"/>
   </g>
   <g id="line2d_33">
    <path d="M 299.557365 9.490192 
L 287.39628 9.490192 
" clip-path="url(#p5e10a5ed33)" style="fill: none; stroke: #d3d3d3; stroke-linecap: square"/>
   </g>
   <g id="line2d_34">
    <path d="M 306.691048 11.11268 
L 306.691048 7.867704 
" clip-path="url(#p5e10a5ed33)" style="fill: none; stroke: #d3d3d3; stroke-linecap: square"/>
   </g>
   <g id="line2d_35">
    <path d="M 287.39628 11.11268 
L 287.39628 7.867704 
" clip-path="url(#p5e10a5ed33)" style="fill: none; stroke: #d3d3d3; stroke-linecap: square"/>
   </g>
   <g id="line2d_36"/>
   <g id="line2d_37">
    <path d="M 267.004811 64.654784 
L 267.004811 58.164832 
" clip-path="url(#p5e10a5ed33)" style="fill: none; stroke: #009e73"/>
   </g>
   <g id="line2d_38">
    <path d="M 225.204605 51.67488 
L 225.204605 45.184928 
" clip-path="url(#p5e10a5ed33)" style="fill: none; stroke: #009e73"/>
   </g>
   <g id="line2d_39">
    <path d="M 297.697073 38.694976 
L 297.697073 32.205024 
" clip-path="url(#p5e10a5ed33)" style="fill: none; stroke: #009e73"/>
   </g>
   <g id="line2d_40">
    <path d="M 236.145994 25.715072 
L 236.145994 19.22512 
" clip-path="url(#p5e10a5ed33)" style="fill: none; stroke: #009e73"/>
   </g>
   <g id="line2d_41">
    <path d="M 299.557365 12.735168 
L 299.557365 6.245216 
" clip-path="url(#p5e10a5ed33)" style="fill: none; stroke: #009e73"/>
   </g>
  </g>
  <g id="axes_2">
   <g id="patch_3">
    <path d="M 487.970781 67.89976 
L 860.99976 67.89976 
L 860.99976 3.00024 
L 487.970781 3.00024 
z
" style="fill: #ffffff"/>
   </g>
   <g id="matplotlib.axis_3">
    <g id="xtick_7">
     <g id="line2d_42">
      <g>
       <use xlink:href="#me4d13225ce" x="487.970781" y="67.89976" style="stroke: #000000; stroke-width: 0.8"/>
      </g>
     </g>
     <g id="text_13">
      <!-- 0 -->
      <g transform="translate(485.175469 82.49976) scale(0.1 -0.1)">
       <use xlink:href="#NotoSerif-Regular-30"/>
      </g>
     </g>
    </g>
    <g id="xtick_8">
     <g id="line2d_43">
      <g>
       <use xlink:href="#me4d13225ce" x="538.645832" y="67.89976" style="stroke: #000000; stroke-width: 0.8"/>
      </g>
     </g>
     <g id="text_14">
      <!-- 10 -->
      <g transform="translate(533.055207 82.49976) scale(0.1 -0.1)">
       <use xlink:href="#NotoSerif-Regular-31"/>
       <use xlink:href="#NotoSerif-Regular-30" transform="translate(55.899994 0)"/>
      </g>
     </g>
    </g>
    <g id="xtick_9">
     <g id="line2d_44">
      <g>
       <use xlink:href="#me4d13225ce" x="589.320882" y="67.89976" style="stroke: #000000; stroke-width: 0.8"/>
      </g>
     </g>
     <g id="text_15">
      <!-- 20 -->
      <g transform="translate(583.730257 82.49976) scale(0.1 -0.1)">
       <use xlink:href="#NotoSerif-Regular-32"/>
       <use xlink:href="#NotoSerif-Regular-30" transform="translate(55.899994 0)"/>
      </g>
     </g>
    </g>
    <g id="xtick_10">
     <g id="line2d_45">
      <g>
       <use xlink:href="#me4d13225ce" x="639.995933" y="67.89976" style="stroke: #000000; stroke-width: 0.8"/>
      </g>
     </g>
     <g id="text_16">
      <!-- 30 -->
      <g transform="translate(634.405308 82.49976) scale(0.1 -0.1)">
       <defs>
        <path id="NotoSerif-Regular-33" d="M 1581 -64 
Q 947 -64 659 150 
Q 371 365 371 646 
Q 371 838 483 947 
Q 595 1056 774 1056 
Q 774 723 985 502 
Q 1197 282 1587 282 
Q 1843 282 2057 381 
Q 2272 480 2406 704 
Q 2541 928 2541 1312 
Q 2541 1715 2230 1958 
Q 1920 2202 1382 2202 
L 1178 2202 
L 1178 2528 
L 1382 2528 
Q 1664 2528 1891 2649 
Q 2118 2771 2252 2995 
Q 2387 3219 2387 3520 
Q 2387 3898 2230 4106 
Q 2074 4314 1702 4314 
Q 1414 4314 1260 4179 
Q 1107 4045 1052 3830 
Q 998 3616 998 3360 
Q 768 3360 608 3446 
Q 448 3533 448 3776 
Q 448 4147 765 4390 
Q 1082 4634 1702 4634 
Q 2310 4634 2678 4368 
Q 3046 4102 3046 3616 
Q 3046 3328 2912 3088 
Q 2778 2848 2547 2678 
Q 2317 2509 2022 2438 
Q 2202 2419 2406 2358 
Q 2611 2298 2793 2170 
Q 2976 2042 3091 1834 
Q 3206 1626 3206 1306 
Q 3206 922 3059 656 
Q 2912 390 2669 233 
Q 2426 77 2141 6 
Q 1856 -64 1581 -64 
z
" transform="scale(0.015625)"/>
       </defs>
       <use xlink:href="#NotoSerif-Regular-33"/>
       <use xlink:href="#NotoSerif-Regular-30" transform="translate(55.899994 0)"/>
      </g>
     </g>
    </g>
    <g id="xtick_11">
     <g id="line2d_46">
      <g>
       <use xlink:href="#me4d13225ce" x="690.670983" y="67.89976" style="stroke: #000000; stroke-width: 0.8"/>
      </g>
     </g>
     <g id="text_17">
      <!-- 40 -->
      <g transform="translate(685.080358 82.49976) scale(0.1 -0.1)">
       <defs>
        <path id="NotoSerif-Regular-34" d="M 1376 0 
L 1376 269 
L 1555 269 
Q 1773 269 1926 349 
Q 2080 429 2080 730 
L 2080 1254 
L 109 1254 
L 109 1517 
L 2086 4570 
L 2694 4570 
L 2694 1613 
L 3488 1613 
L 3488 1254 
L 2694 1254 
L 2694 730 
Q 2694 429 2848 349 
Q 3002 269 3219 269 
L 3302 269 
L 3302 0 
L 1376 0 
z
M 570 1613 
L 2080 1613 
L 2080 2797 
Q 2080 2982 2083 3216 
Q 2086 3450 2099 3686 
Q 2112 3923 2125 4122 
Q 2093 4058 2022 3930 
Q 1952 3802 1862 3651 
Q 1773 3501 1689 3363 
Q 1606 3226 1549 3136 
L 570 1613 
z
" transform="scale(0.015625)"/>
       </defs>
       <use xlink:href="#NotoSerif-Regular-34"/>
       <use xlink:href="#NotoSerif-Regular-30" transform="translate(55.899994 0)"/>
      </g>
     </g>
    </g>
    <g id="xtick_12">
     <g id="line2d_47">
      <g>
       <use xlink:href="#me4d13225ce" x="741.346034" y="67.89976" style="stroke: #000000; stroke-width: 0.8"/>
      </g>
     </g>
     <g id="text_18">
      <!-- 50 -->
      <g transform="translate(735.755409 82.49976) scale(0.1 -0.1)">
       <use xlink:href="#NotoSerif-Regular-35"/>
       <use xlink:href="#NotoSerif-Regular-30" transform="translate(55.899994 0)"/>
      </g>
     </g>
    </g>
    <g id="xtick_13">
     <g id="line2d_48">
      <g>
       <use xlink:href="#me4d13225ce" x="792.021084" y="67.89976" style="stroke: #000000; stroke-width: 0.8"/>
      </g>
     </g>
     <g id="text_19">
      <!-- 60 -->
      <g transform="translate(786.430459 82.49976) scale(0.1 -0.1)">
       <defs>
        <path id="NotoSerif-Regular-36" d="M 1875 -64 
Q 1453 -64 1117 176 
Q 781 416 585 937 
Q 390 1459 390 2304 
Q 390 2758 492 3177 
Q 595 3597 800 3926 
Q 1005 4256 1321 4445 
Q 1638 4634 2061 4634 
Q 2592 4634 2854 4429 
Q 3117 4224 3117 3962 
Q 3117 3578 2624 3578 
Q 2624 3891 2496 4108 
Q 2368 4326 2061 4326 
Q 1581 4326 1331 3849 
Q 1082 3373 1050 2445 
Q 1210 2573 1430 2675 
Q 1651 2778 1965 2778 
Q 2554 2778 2902 2429 
Q 3251 2080 3251 1466 
Q 3251 1018 3088 672 
Q 2925 326 2617 131 
Q 2310 -64 1875 -64 
z
M 1894 288 
Q 2234 288 2416 553 
Q 2598 819 2598 1402 
Q 2598 1952 2403 2201 
Q 2208 2451 1837 2451 
Q 1587 2451 1379 2332 
Q 1171 2214 1043 2080 
Q 1056 1120 1283 704 
Q 1510 288 1894 288 
z
" transform="scale(0.015625)"/>
       </defs>
       <use xlink:href="#NotoSerif-Regular-36"/>
       <use xlink:href="#NotoSerif-Regular-30" transform="translate(55.899994 0)"/>
      </g>
     </g>
    </g>
    <g id="xtick_14">
     <g id="line2d_49">
      <g>
       <use xlink:href="#me4d13225ce" x="842.696135" y="67.89976" style="stroke: #000000; stroke-width: 0.8"/>
      </g>
     </g>
     <g id="text_20">
      <!-- 70 -->
      <g transform="translate(837.10551 82.49976) scale(0.1 -0.1)">
       <defs>
        <path id="NotoSerif-Regular-37" d="M 1126 0 
L 2637 4058 
L 1043 4058 
Q 704 4058 672 3731 
L 646 3411 
L 378 3411 
L 410 4570 
L 3270 4570 
L 3270 4384 
L 1696 0 
L 1126 0 
z
" transform="scale(0.015625)"/>
       </defs>
       <use xlink:href="#NotoSerif-Regular-37"/>
       <use xlink:href="#NotoSerif-Regular-30" transform="translate(55.899994 0)"/>
      </g>
     </g>
    </g>
    <g id="text_21">
     <!-- Total data transfer (GB) -->
     <g transform="translate(618.783708 102.59976) scale(0.1 -0.1)">
      <defs>
       <path id="NotoSerif-Italic-64" d="M 1101 -64 
Q 819 -64 633 89 
Q 448 243 361 508 
Q 275 774 275 1107 
Q 275 1408 355 1737 
Q 435 2067 595 2377 
Q 755 2688 985 2941 
Q 1216 3194 1517 3344 
Q 1818 3494 2182 3494 
Q 2368 3494 2531 3449 
Q 2694 3405 2816 3334 
Q 2829 3418 2848 3530 
Q 2867 3642 2880 3699 
L 2944 4006 
Q 2963 4096 2976 4176 
Q 2989 4256 2989 4294 
Q 2989 4486 2857 4540 
Q 2726 4595 2541 4595 
L 2490 4595 
L 2547 4864 
L 3725 4864 
L 2982 1376 
Q 2970 1306 2944 1171 
Q 2918 1037 2902 896 
Q 2886 755 2886 666 
Q 2886 339 3098 339 
Q 3206 339 3321 387 
Q 3437 435 3558 506 
L 3674 320 
Q 3584 237 3430 147 
Q 3277 58 3104 -3 
Q 2931 -64 2771 -64 
Q 2541 -64 2406 77 
Q 2272 218 2272 467 
Q 2272 550 2288 678 
Q 2304 806 2336 966 
L 2298 966 
Q 2080 474 1779 205 
Q 1478 -64 1101 -64 
z
M 1331 339 
Q 1498 339 1674 467 
Q 1850 595 2006 812 
Q 2163 1030 2284 1299 
Q 2406 1568 2464 1843 
L 2701 2976 
Q 2630 3091 2496 3148 
Q 2362 3206 2214 3206 
Q 1958 3206 1753 3062 
Q 1549 2918 1395 2681 
Q 1242 2445 1136 2163 
Q 1030 1882 979 1597 
Q 928 1312 928 1082 
Q 928 685 1043 512 
Q 1158 339 1331 339 
z
" transform="scale(0.015625)"/>
       <path id="NotoSerif-Italic-6e" d="M 2944 -64 
Q 2662 -64 2512 118 
Q 2362 301 2362 576 
Q 2362 870 2483 1440 
L 2592 1939 
Q 2611 2029 2643 2163 
Q 2675 2298 2700 2445 
Q 2726 2592 2726 2701 
Q 2726 2829 2672 2953 
Q 2618 3078 2432 3078 
Q 2234 3078 2035 2931 
Q 1837 2784 1667 2553 
Q 1498 2323 1379 2076 
Q 1261 1830 1222 1638 
L 877 0 
L 282 0 
L 819 2573 
Q 838 2662 848 2748 
Q 858 2835 858 2861 
Q 858 3053 726 3107 
Q 595 3162 410 3162 
L 358 3162 
L 416 3430 
L 1600 3430 
L 1427 2624 
L 1491 2624 
Q 1754 3046 2026 3267 
Q 2298 3488 2656 3488 
Q 3034 3488 3187 3273 
Q 3341 3059 3341 2778 
Q 3341 2618 3299 2429 
Q 3258 2240 3226 2074 
L 3059 1318 
Q 3021 1139 2998 966 
Q 2976 794 2976 646 
Q 2976 339 3200 339 
Q 3386 339 3610 486 
L 3725 301 
Q 3571 173 3382 54 
Q 3194 -64 2944 -64 
z
" transform="scale(0.015625)"/>
       <path id="NotoSerif-Italic-66" d="M -525 -1536 
Q -621 -1536 -726 -1520 
Q -832 -1504 -896 -1485 
L -838 -1190 
Q -787 -1203 -700 -1219 
Q -614 -1235 -544 -1235 
Q -230 -1235 -54 -966 
Q 122 -698 262 -58 
L 934 3066 
L 352 3066 
L 390 3296 
L 1005 3430 
L 1075 3782 
Q 1184 4333 1475 4630 
Q 1766 4928 2291 4928 
Q 2701 4928 2909 4797 
Q 3117 4666 3117 4454 
Q 3117 4243 2979 4140 
Q 2842 4038 2586 4038 
Q 2586 4282 2525 4458 
Q 2464 4634 2259 4634 
Q 2022 4634 1894 4438 
Q 1766 4243 1690 3840 
L 1606 3430 
L 2317 3430 
L 2246 3066 
L 1530 3066 
L 864 -51 
Q 742 -621 550 -944 
Q 358 -1267 89 -1401 
Q -179 -1536 -525 -1536 
z
" transform="scale(0.015625)"/>
       <path id="NotoSerif-Italic-28" d="M 1402 -819 
Q 800 -557 534 -16 
Q 269 525 269 1190 
Q 269 1773 413 2358 
Q 557 2944 848 3456 
Q 1139 3968 1577 4339 
Q 2016 4710 2611 4864 
L 2547 4576 
Q 2144 4358 1853 4003 
Q 1562 3648 1373 3219 
Q 1184 2790 1072 2355 
Q 960 1920 915 1536 
Q 870 1152 870 890 
Q 870 480 1001 96 
Q 1133 -288 1466 -525 
L 1402 -819 
z
" transform="scale(0.015625)"/>
       <path id="NotoSerif-Italic-47" d="M 2150 -64 
Q 1248 -64 790 397 
Q 333 858 333 1651 
Q 333 2272 531 2813 
Q 730 3354 1094 3763 
Q 1459 4173 1964 4403 
Q 2470 4634 3085 4634 
Q 3770 4634 4102 4429 
Q 4435 4224 4435 3942 
Q 4435 3693 4236 3565 
Q 4038 3437 3757 3437 
Q 3757 3814 3565 4054 
Q 3373 4294 2950 4294 
Q 2541 4294 2192 4070 
Q 1843 3846 1580 3462 
Q 1318 3078 1174 2585 
Q 1030 2093 1030 1549 
Q 1030 998 1318 649 
Q 1606 301 2266 301 
Q 2451 301 2649 326 
Q 2848 352 2989 390 
L 3200 1408 
Q 3226 1510 3226 1587 
Q 3226 1754 3088 1798 
Q 2950 1843 2765 1843 
L 2707 1843 
L 2765 2112 
L 4467 2112 
L 4410 1843 
L 4384 1843 
Q 4205 1843 4054 1763 
Q 3904 1683 3840 1382 
L 3597 230 
Q 3245 83 2905 9 
Q 2566 -64 2150 -64 
z
" transform="scale(0.015625)"/>
       <path id="NotoSerif-Italic-42" d="M -134 0 
L -83 269 
L 0 269 
Q 218 269 390 349 
Q 563 429 627 730 
L 1293 3866 
Q 1318 3968 1318 4045 
Q 1318 4211 1180 4256 
Q 1043 4301 858 4301 
L 774 4301 
L 832 4570 
L 2490 4570 
Q 3232 4570 3609 4326 
Q 3987 4083 3987 3610 
Q 3987 3258 3849 3018 
Q 3712 2778 3475 2634 
Q 3238 2490 2944 2419 
L 2938 2394 
Q 3283 2330 3500 2096 
Q 3718 1862 3718 1459 
Q 3718 762 3251 381 
Q 2784 0 1875 0 
L -134 0 
z
M 2150 2554 
Q 2758 2554 3024 2806 
Q 3290 3059 3290 3526 
Q 3290 4250 2406 4250 
L 2022 4250 
L 1658 2554 
L 2150 2554 
z
M 1805 320 
Q 2464 320 2745 624 
Q 3027 928 3027 1504 
Q 3027 2234 2131 2234 
L 1594 2234 
L 1184 320 
L 1805 320 
z
" transform="scale(0.015625)"/>
       <path id="NotoSerif-Italic-29" d="M -250 -582 
Q 154 -365 445 -9 
Q 736 346 925 774 
Q 1114 1203 1226 1638 
Q 1338 2074 1382 2458 
Q 1427 2842 1427 3104 
Q 1427 3514 1299 3898 
Q 1171 4282 832 4518 
L 896 4813 
Q 1498 4557 1763 4013 
Q 2029 3469 2029 2803 
Q 2029 2221 1885 1635 
Q 1741 1050 1449 538 
Q 1158 26 720 -345 
Q 282 -717 -314 -870 
L -250 -582 
z
" transform="scale(0.015625)"/>
      </defs>
      <use xlink:href="#NotoSerif-Italic-54"/>
      <use xlink:href="#NotoSerif-Italic-6f" transform="translate(61.299988 0)"/>
      <use xlink:href="#NotoSerif-Italic-74" transform="translate(118.699982 0)"/>
      <use xlink:href="#NotoSerif-Italic-61" transform="translate(155.499969 0)"/>
      <use xlink:href="#NotoSerif-Italic-6c" transform="translate(213.399963 0)"/>
      <use xlink:href="#NotoSerif-Italic-20" transform="translate(243.799957 0)"/>
      <use xlink:href="#NotoSerif-Italic-64" transform="translate(269.799942 0)"/>
      <use xlink:href="#NotoSerif-Italic-61" transform="translate(327.699936 0)"/>
      <use xlink:href="#NotoSerif-Italic-74" transform="translate(385.59993 0)"/>
      <use xlink:href="#NotoSerif-Italic-61" transform="translate(422.399918 0)"/>
      <use xlink:href="#NotoSerif-Italic-20" transform="translate(480.299911 0)"/>
      <use xlink:href="#NotoSerif-Italic-74" transform="translate(506.299896 0)"/>
      <use xlink:href="#NotoSerif-Italic-72" transform="translate(543.099884 0)"/>
      <use xlink:href="#NotoSerif-Italic-61" transform="translate(589.899872 0)"/>
      <use xlink:href="#NotoSerif-Italic-6e" transform="translate(647.799866 0)"/>
      <use xlink:href="#NotoSerif-Italic-73" transform="translate(707.69986 0)"/>
      <use xlink:href="#NotoSerif-Italic-66" transform="translate(754.099854 0)"/>
      <use xlink:href="#NotoSerif-Italic-65" transform="translate(785.899841 0)"/>
      <use xlink:href="#NotoSerif-Italic-72" transform="translate(835.199829 0)"/>
      <use xlink:href="#NotoSerif-Italic-20" transform="translate(881.999817 0)"/>
      <use xlink:href="#NotoSerif-Italic-28" transform="translate(907.999802 0)"/>
      <use xlink:href="#NotoSerif-Italic-47" transform="translate(942.599792 0)"/>
      <use xlink:href="#NotoSerif-Italic-42" transform="translate(1013.999786 0)"/>
      <use xlink:href="#NotoSerif-Italic-29" transform="translate(1079.39978 0)"/>
     </g>
    </g>
   </g>
   <g id="line2d_50">
    <defs>
     <path id="m467e128e98" d="M 0 1.5 
C 0.397805 1.5 0.77937 1.341951 1.06066 1.06066 
C 1.341951 0.77937 1.5 0.397805 1.5 0 
C 1.5 -0.397805 1.341951 -0.77937 1.06066 -1.06066 
C 0.77937 -1.341951 0.397805 -1.5 0 -1.5 
C -0.397805 -1.5 -0.77937 -1.341951 -1.06066 -1.06066 
C -1.341951 -0.77937 -1.5 -0.397805 -1.5 0 
C -1.5 0.397805 -1.341951 0.77937 -1.06066 1.06066 
C -0.77937 1.341951 -0.397805 1.5 0 1.5 
z
" style="stroke: #0072b2"/>
    </defs>
    <g clip-path="url(#pa8aa52d1c2)">
     <use xlink:href="#m467e128e98" x="845.785348" y="61.409808" style="fill: #0072b2; stroke: #0072b2"/>
     <use xlink:href="#m467e128e98" x="684.698596" y="48.429904" style="fill: #0072b2; stroke: #0072b2"/>
     <use xlink:href="#m467e128e98" x="541.497115" y="35.45" style="fill: #0072b2; stroke: #0072b2"/>
     <use xlink:href="#m467e128e98" x="800.225714" y="22.470096" style="fill: #0072b2; stroke: #0072b2"/>
     <use xlink:href="#m467e128e98" x="613.510111" y="9.490192" style="fill: #0072b2; stroke: #0072b2"/>
    </g>
   </g>
  </g>
 </g>
 <defs>
  <clipPath id="p5e10a5ed33">
   <rect x="3.00024" y="3.00024" width="373.028979" height="64.89952"/>
  </clipPath>
  <clipPath id="pa8aa52d1c2">
   <rect x="487.970781" y="3.00024" width="373.028979" height="64.89952"/>
  </clipPath>
 </defs>
</svg>
