<?xml version="1.0" encoding="utf-8" standalone="no"?>
<!DOCTYPE svg PUBLIC "-//W3C//DTD SVG 1.1//EN"
  "http://www.w3.org/Graphics/SVG/1.1/DTD/svg11.dtd">
<svg xmlns:xlink="http://www.w3.org/1999/xlink" width="648pt" height="216pt" viewBox="0 0 648 216" xmlns="http://www.w3.org/2000/svg" version="1.1">
 <metadata>
  <rdf:RDF xmlns:dc="http://purl.org/dc/elements/1.1/" xmlns:cc="http://creativecommons.org/ns#" xmlns:rdf="http://www.w3.org/1999/02/22-rdf-syntax-ns#">
   <cc:Work>
    <dc:type rdf:resource="http://purl.org/dc/dcmitype/StillImage"/>
    <dc:date>2025-07-09T17:43:52.584637</dc:date>
    <dc:format>image/svg+xml</dc:format>
    <dc:creator>
     <cc:Agent>
      <dc:title>Matplotlib v3.10.3, https://matplotlib.org/</dc:title>
     </cc:Agent>
    </dc:creator>
   </cc:Work>
  </rdf:RDF>
 </metadata>
 <defs>
  <style type="text/css">*{stroke-linejoin: round; stroke-linecap: butt}</style>
 </defs>
 <g id="figure_1">
  <g id="patch_1">
   <path d="M 0 216 
L 648 216 
L 648 0 
L 0 0 
z
" style="fill: #ffffff"/>
  </g>
  <g id="axes_1">
   <g id="patch_2">
    <path d="M 50.384615 195.99976 
L 221.817468 195.99976 
L 221.817468 14.00024 
L 50.384615 14.00024 
z
" style="fill: #ffffff"/>
   </g>
   <g id="FillBetweenPolyCollection_1">
    <defs>
     <path id="mc34dbcc08f" d="M 58.177017 -186.717542 
L 58.177017 -27.941089 
L 59.75124 -27.942287 
L 61.325463 -27.942287 
L 62.899686 -27.942287 
L 64.473908 -27.942287 
L 66.048131 -27.942287 
L 67.622354 -27.942287 
L 69.196576 -27.942287 
L 70.770799 -27.942287 
L 72.345022 -27.942287 
L 73.919245 -27.942287 
L 75.493467 -27.942287 
L 77.06769 -27.942287 
L 78.641913 -27.944394 
L 80.216135 -27.946292 
L 81.790358 -27.948398 
L 83.364581 -27.948398 
L 84.938804 -27.948398 
L 86.513026 -27.948398 
L 88.087249 -27.948398 
L 89.661472 -27.948398 
L 91.235694 -27.950297 
L 92.809917 -27.950297 
L 94.38414 -27.950297 
L 95.958363 -27.952507 
L 97.532585 -27.952507 
L 99.106808 -27.952507 
L 100.681031 -27.949616 
L 102.255253 -27.949616 
L 103.829476 -27.949616 
L 105.403699 -27.949616 
L 106.977921 -27.949616 
L 108.552144 -27.949616 
L 110.126367 -27.950814 
L 111.70059 -27.950814 
L 113.274812 -27.950814 
L 114.849035 -27.952712 
L 116.423258 -27.954214 
L 117.99748 -27.954214 
L 119.571703 -27.954214 
L 121.145926 -27.954214 
L 122.720149 -27.954214 
L 124.294371 -27.954214 
L 125.868594 -27.954214 
L 127.442817 -27.954214 
L 129.017039 -27.954214 
L 130.591262 -27.954214 
L 132.165485 -27.956112 
L 133.739708 -27.956112 
L 135.31393 -27.956112 
L 136.888153 -27.958323 
L 138.462376 -27.956877 
L 140.036598 -27.956877 
L 141.610821 -27.956877 
L 143.185044 -27.958775 
L 144.759267 -27.960277 
L 146.333489 -27.960277 
L 147.907712 -27.960277 
L 149.481935 -27.960277 
L 151.056157 -27.960277 
L 152.63038 -27.960277 
L 154.204603 -27.960277 
L 155.778826 -27.960277 
L 157.353048 -27.960277 
L 158.927271 -27.960277 
L 160.501494 -27.962175 
L 162.075716 -27.962175 
L 163.649939 -27.962175 
L 165.224162 -27.962175 
L 166.798385 -27.962175 
L 168.372607 -27.962175 
L 169.94683 -27.962175 
L 171.521053 -27.962175 
L 173.095275 -27.962175 
L 174.669498 -27.962175 
L 176.243721 -27.962175 
L 177.817944 -27.962175 
L 179.392166 -27.962175 
L 180.966389 -27.962175 
L 182.540612 -27.962626 
L 184.114834 -27.962626 
L 185.689057 -27.962626 
L 187.26328 -27.962626 
L 188.837503 -27.964837 
L 190.411725 -27.964837 
L 191.985948 -27.964837 
L 193.560171 -27.964837 
L 195.134393 -27.964837 
L 196.708616 -27.964837 
L 198.282839 -27.964837 
L 199.857062 -27.964837 
L 201.431284 -27.964837 
L 203.005507 -27.964837 
L 204.57973 -27.966339 
L 206.153952 -27.968237 
L 207.728175 -27.968237 
L 209.302398 -27.968237 
L 210.87662 -27.968237 
L 212.450843 -27.968237 
L 214.025066 -27.968237 
L 214.025066 -186.758062 
L 214.025066 -186.758062 
L 212.450843 -186.758062 
L 210.87662 -186.758062 
L 209.302398 -186.758062 
L 207.728175 -186.758062 
L 206.153952 -186.758062 
L 204.57973 -186.756884 
L 203.005507 -186.755309 
L 201.431284 -186.755309 
L 199.857062 -186.755309 
L 198.282839 -186.755309 
L 196.708616 -186.755309 
L 195.134393 -186.755309 
L 193.560171 -186.755309 
L 191.985948 -186.755309 
L 190.411725 -186.755309 
L 188.837503 -186.755309 
L 187.26328 -186.754444 
L 185.689057 -186.754444 
L 184.114834 -186.754444 
L 182.540612 -186.754444 
L 180.966389 -186.748744 
L 179.392166 -186.748744 
L 177.817944 -186.748744 
L 176.243721 -186.748744 
L 174.669498 -186.748744 
L 173.095275 -186.748744 
L 171.521053 -186.748744 
L 169.94683 -186.748744 
L 168.372607 -186.748744 
L 166.798385 -186.748744 
L 165.224162 -186.748744 
L 163.649939 -186.748744 
L 162.075716 -186.748744 
L 160.501494 -186.748744 
L 158.927271 -186.747567 
L 157.353048 -186.747567 
L 155.778826 -186.747567 
L 154.204603 -186.747567 
L 152.63038 -186.747567 
L 151.056157 -186.747567 
L 149.481935 -186.747567 
L 147.907712 -186.747567 
L 146.333489 -186.747567 
L 144.759267 -186.747567 
L 143.185044 -186.745993 
L 141.610821 -186.744815 
L 140.036598 -186.744815 
L 138.462376 -186.744815 
L 136.888153 -186.740293 
L 135.31393 -186.739428 
L 133.739708 -186.739428 
L 132.165485 -186.739428 
L 130.591262 -186.73825 
L 129.017039 -186.73825 
L 127.442817 -186.73825 
L 125.868594 -186.73825 
L 124.294371 -186.73825 
L 122.720149 -186.73825 
L 121.145926 -186.73825 
L 119.571703 -186.73825 
L 117.99748 -186.73825 
L 116.423258 -186.73825 
L 114.849035 -186.736676 
L 113.274812 -186.735499 
L 111.70059 -186.735499 
L 110.126367 -186.735499 
L 108.552144 -186.733621 
L 106.977921 -186.733621 
L 105.403699 -186.733621 
L 103.829476 -186.733621 
L 102.255253 -186.733621 
L 100.681031 -186.733621 
L 99.106808 -186.724578 
L 97.532585 -186.724578 
L 95.958363 -186.724578 
L 94.38414 -186.723713 
L 92.809917 -186.723713 
L 91.235694 -186.723713 
L 89.661472 -186.722535 
L 88.087249 -186.722535 
L 86.513026 -186.722535 
L 84.938804 -186.722535 
L 83.364581 -186.722535 
L 81.790358 -186.722535 
L 80.216135 -186.721566 
L 78.641913 -186.720388 
L 77.06769 -186.719419 
L 75.493467 -186.719419 
L 73.919245 -186.719419 
L 72.345022 -186.719419 
L 70.770799 -186.719419 
L 69.196576 -186.719419 
L 67.622354 -186.719419 
L 66.048131 -186.719419 
L 64.473908 -186.719419 
L 62.899686 -186.719419 
L 61.325463 -186.719419 
L 59.75124 -186.719419 
L 58.177017 -186.717542 
z
"/>
    </defs>
    <g clip-path="url(#p06dbe7e55d)">
     <use xlink:href="#mc34dbcc08f" x="0" y="216" style="fill: #440154; fill-opacity: 0.1"/>
    </g>
   </g>
   <g id="matplotlib.axis_1">
    <g id="xtick_1">
     <g id="line2d_1">
      <defs>
       <path id="m0c1e6d1e09" d="M 0 0 
L 0 3.5 
" style="stroke: #000000; stroke-width: 0.8"/>
      </defs>
      <g>
       <use xlink:href="#m0c1e6d1e09" x="58.177017" y="195.99976" style="stroke: #000000; stroke-width: 0.8"/>
      </g>
     </g>
     <g id="text_1">
      <!-- 0 -->
      <g transform="translate(55.381705 210.59976) scale(0.1 -0.1)">
       <defs>
        <path id="NotoSerif-Regular-30" d="M 1792 -64 
Q 1267 -64 934 230 
Q 602 525 445 1056 
Q 288 1587 288 2298 
Q 288 3008 445 3533 
Q 602 4058 934 4346 
Q 1267 4634 1798 4634 
Q 2298 4634 2630 4346 
Q 2963 4058 3126 3530 
Q 3290 3002 3290 2291 
Q 3290 1581 3123 1053 
Q 2957 525 2627 230 
Q 2298 -64 1792 -64 
z
M 1792 282 
Q 2259 282 2441 813 
Q 2624 1344 2624 2291 
Q 2624 3245 2441 3766 
Q 2259 4288 1798 4288 
Q 1331 4288 1142 3766 
Q 954 3245 954 2291 
Q 954 1344 1139 813 
Q 1325 282 1792 282 
z
" transform="scale(0.015625)"/>
       </defs>
       <use xlink:href="#NotoSerif-Regular-30"/>
      </g>
     </g>
    </g>
    <g id="xtick_2">
     <g id="line2d_2">
      <g>
       <use xlink:href="#m0c1e6d1e09" x="215.599289" y="195.99976" style="stroke: #000000; stroke-width: 0.8"/>
      </g>
     </g>
     <g id="text_2">
      <!-- 100 -->
      <g transform="translate(207.213351 210.59976) scale(0.1 -0.1)">
       <defs>
        <path id="NotoSerif-Regular-31" d="M 614 0 
L 614 269 
L 1043 269 
Q 1261 269 1414 349 
Q 1568 429 1568 730 
L 1568 4090 
Q 1325 3795 1129 3609 
Q 934 3424 742 3424 
Q 602 3424 512 3520 
Q 422 3616 422 3770 
Q 614 3821 828 3923 
Q 1043 4026 1357 4262 
L 1805 4595 
L 2214 4595 
L 2214 730 
Q 2214 429 2368 349 
Q 2522 269 2739 269 
L 3053 269 
L 3053 0 
L 614 0 
z
" transform="scale(0.015625)"/>
       </defs>
       <use xlink:href="#NotoSerif-Regular-31"/>
       <use xlink:href="#NotoSerif-Regular-30" transform="translate(55.899994 0)"/>
       <use xlink:href="#NotoSerif-Regular-30" transform="translate(111.799988 0)"/>
      </g>
     </g>
    </g>
   </g>
   <g id="matplotlib.axis_2">
    <g id="ytick_1">
     <g id="line2d_3"/>
     <g id="text_3">
      <!-- 6.76 -->
      <g style="fill: #440154" transform="translate(225.317468 112.436851) scale(0.1 -0.1)">
       <defs>
        <path id="NotoSerif-Regular-36" d="M 1875 -64 
Q 1453 -64 1117 176 
Q 781 416 585 937 
Q 390 1459 390 2304 
Q 390 2758 492 3177 
Q 595 3597 800 3926 
Q 1005 4256 1321 4445 
Q 1638 4634 2061 4634 
Q 2592 4634 2854 4429 
Q 3117 4224 3117 3962 
Q 3117 3578 2624 3578 
Q 2624 3891 2496 4108 
Q 2368 4326 2061 4326 
Q 1581 4326 1331 3849 
Q 1082 3373 1050 2445 
Q 1210 2573 1430 2675 
Q 1651 2778 1965 2778 
Q 2554 2778 2902 2429 
Q 3251 2080 3251 1466 
Q 3251 1018 3088 672 
Q 2925 326 2617 131 
Q 2310 -64 1875 -64 
z
M 1894 288 
Q 2234 288 2416 553 
Q 2598 819 2598 1402 
Q 2598 1952 2403 2201 
Q 2208 2451 1837 2451 
Q 1587 2451 1379 2332 
Q 1171 2214 1043 2080 
Q 1056 1120 1283 704 
Q 1510 288 1894 288 
z
" transform="scale(0.015625)"/>
        <path id="NotoSerif-Regular-2e" d="M 800 -45 
Q 634 -45 515 51 
Q 397 147 397 390 
Q 397 640 515 733 
Q 634 826 800 826 
Q 966 826 1084 733 
Q 1203 640 1203 390 
Q 1203 147 1084 51 
Q 966 -45 800 -45 
z
" transform="scale(0.015625)"/>
        <path id="NotoSerif-Regular-37" d="M 1126 0 
L 2637 4058 
L 1043 4058 
Q 704 4058 672 3731 
L 646 3411 
L 378 3411 
L 410 4570 
L 3270 4570 
L 3270 4384 
L 1696 0 
L 1126 0 
z
" transform="scale(0.015625)"/>
       </defs>
       <use xlink:href="#NotoSerif-Regular-36"/>
       <use xlink:href="#NotoSerif-Regular-2e" transform="translate(55.899994 0)"/>
       <use xlink:href="#NotoSerif-Regular-37" transform="translate(80.899979 0)"/>
       <use xlink:href="#NotoSerif-Regular-36" transform="translate(136.799973 0)"/>
      </g>
     </g>
    </g>
    <g id="text_4">
     <!-- time (s) -->
     <g transform="translate(3.00024 102.6) scale(0.1 -0.1)">
      <defs>
       <path id="NotoSerif-Italic-74" d="M 1171 -64 
Q 474 -64 474 685 
Q 474 800 493 950 
Q 512 1101 538 1222 
L 928 3066 
L 442 3066 
L 499 3322 
Q 774 3322 1030 3523 
Q 1286 3725 1478 4218 
L 1773 4218 
L 1606 3430 
L 2381 3430 
L 2304 3066 
L 1530 3066 
L 1139 1242 
Q 1107 1082 1084 938 
Q 1062 794 1062 691 
Q 1062 506 1152 422 
Q 1242 339 1402 339 
Q 1536 339 1680 380 
Q 1824 422 1926 480 
L 2035 243 
Q 1843 109 1628 22 
Q 1414 -64 1171 -64 
z
" transform="scale(0.015625)"/>
       <path id="NotoSerif-Italic-69" d="M 1434 4070 
Q 1274 4070 1174 4156 
Q 1075 4243 1075 4422 
Q 1075 4627 1180 4748 
Q 1286 4870 1459 4870 
Q 1613 4870 1715 4784 
Q 1818 4698 1818 4518 
Q 1818 4269 1696 4169 
Q 1574 4070 1434 4070 
z
M 992 -64 
Q 736 -64 598 115 
Q 461 294 461 544 
Q 461 678 486 864 
Q 512 1050 544 1238 
Q 576 1427 602 1549 
L 851 2726 
Q 870 2822 870 2893 
Q 870 3066 764 3114 
Q 659 3162 480 3162 
L 397 3162 
L 454 3430 
L 1600 3430 
L 1165 1376 
Q 1152 1306 1126 1171 
Q 1101 1037 1085 896 
Q 1069 755 1069 666 
Q 1069 339 1280 339 
Q 1389 339 1504 387 
Q 1619 435 1741 506 
L 1856 320 
Q 1715 198 1475 67 
Q 1235 -64 992 -64 
z
" transform="scale(0.015625)"/>
       <path id="NotoSerif-Italic-6d" d="M 4845 -64 
Q 4563 -64 4412 118 
Q 4262 301 4262 576 
Q 4262 870 4384 1440 
L 4493 1939 
Q 4512 2029 4544 2163 
Q 4576 2298 4601 2445 
Q 4627 2592 4627 2701 
Q 4627 2829 4572 2953 
Q 4518 3078 4333 3078 
Q 4147 3078 3964 2953 
Q 3782 2829 3622 2630 
Q 3462 2432 3344 2205 
Q 3226 1978 3162 1779 
L 3059 1318 
Q 3040 1229 3008 1043 
Q 2976 858 2947 643 
Q 2918 429 2896 249 
Q 2874 70 2874 0 
L 2266 0 
Q 2266 77 2288 253 
Q 2310 429 2342 649 
Q 2374 870 2412 1081 
Q 2451 1293 2483 1440 
L 2592 1939 
Q 2611 2029 2643 2163 
Q 2675 2298 2700 2445 
Q 2726 2592 2726 2701 
Q 2726 2829 2672 2953 
Q 2618 3078 2432 3078 
Q 2234 3078 2035 2931 
Q 1837 2784 1667 2553 
Q 1498 2323 1379 2076 
Q 1261 1830 1222 1638 
L 877 0 
L 282 0 
L 819 2573 
Q 838 2662 848 2748 
Q 858 2835 858 2861 
Q 858 3053 726 3107 
Q 595 3162 410 3162 
L 358 3162 
L 416 3430 
L 1600 3430 
L 1427 2624 
L 1491 2624 
Q 1754 3046 2026 3267 
Q 2298 3488 2656 3488 
Q 3034 3488 3187 3273 
Q 3341 3059 3341 2778 
Q 3341 2739 3337 2700 
Q 3334 2662 3328 2624 
L 3392 2624 
Q 3654 3046 3926 3267 
Q 4198 3488 4557 3488 
Q 4934 3488 5088 3273 
Q 5242 3059 5242 2778 
Q 5242 2618 5200 2429 
Q 5158 2240 5126 2074 
L 4960 1318 
Q 4922 1139 4899 966 
Q 4877 794 4877 646 
Q 4877 339 5101 339 
Q 5286 339 5510 486 
L 5626 301 
Q 5472 173 5283 54 
Q 5094 -64 4845 -64 
z
" transform="scale(0.015625)"/>
       <path id="NotoSerif-Italic-65" d="M 1523 -64 
Q 1184 -64 899 83 
Q 614 230 444 521 
Q 275 813 275 1261 
Q 275 1619 396 2006 
Q 518 2394 761 2733 
Q 1005 3072 1360 3283 
Q 1715 3494 2182 3494 
Q 2586 3494 2810 3299 
Q 3034 3104 3034 2758 
Q 3034 2426 2794 2131 
Q 2554 1837 2134 1657 
Q 1715 1478 1178 1478 
L 954 1478 
Q 947 1408 944 1341 
Q 941 1274 941 1210 
Q 941 800 1120 569 
Q 1299 339 1645 339 
Q 1952 339 2192 486 
Q 2432 634 2566 800 
Q 2630 755 2630 640 
Q 2630 499 2512 336 
Q 2394 173 2150 54 
Q 1907 -64 1523 -64 
z
M 1075 1773 
Q 1453 1773 1744 1897 
Q 2035 2022 2204 2243 
Q 2374 2464 2374 2758 
Q 2374 3187 2003 3187 
Q 1824 3187 1664 3062 
Q 1504 2938 1376 2730 
Q 1248 2522 1155 2272 
Q 1062 2022 1011 1773 
L 1075 1773 
z
" transform="scale(0.015625)"/>
       <path id="NotoSerif-Italic-20" transform="scale(0.015625)"/>
       <path id="NotoSerif-Italic-28" d="M 1402 -819 
Q 800 -557 534 -16 
Q 269 525 269 1190 
Q 269 1773 413 2358 
Q 557 2944 848 3456 
Q 1139 3968 1577 4339 
Q 2016 4710 2611 4864 
L 2547 4576 
Q 2144 4358 1853 4003 
Q 1562 3648 1373 3219 
Q 1184 2790 1072 2355 
Q 960 1920 915 1536 
Q 870 1152 870 890 
Q 870 480 1001 96 
Q 1133 -288 1466 -525 
L 1402 -819 
z
" transform="scale(0.015625)"/>
       <path id="NotoSerif-Italic-73" d="M 1216 -64 
Q 736 -64 448 131 
Q 160 326 160 659 
Q 160 832 230 925 
Q 301 1018 393 1050 
Q 486 1082 563 1082 
Q 563 858 633 666 
Q 704 474 867 358 
Q 1030 243 1293 243 
Q 1613 243 1798 393 
Q 1984 544 1984 838 
Q 1984 1062 1837 1222 
Q 1690 1382 1338 1542 
Q 986 1709 774 1929 
Q 563 2150 563 2534 
Q 563 2950 899 3219 
Q 1235 3488 1798 3488 
Q 2150 3488 2368 3398 
Q 2586 3309 2691 3168 
Q 2797 3027 2797 2880 
Q 2797 2682 2669 2582 
Q 2541 2483 2317 2483 
Q 2317 2656 2262 2819 
Q 2208 2982 2083 3088 
Q 1958 3194 1741 3194 
Q 1453 3194 1286 3040 
Q 1120 2886 1120 2643 
Q 1120 2426 1280 2282 
Q 1440 2138 1773 1984 
Q 2125 1824 2333 1593 
Q 2541 1363 2541 992 
Q 2541 525 2185 230 
Q 1830 -64 1216 -64 
z
" transform="scale(0.015625)"/>
       <path id="NotoSerif-Italic-29" d="M -250 -582 
Q 154 -365 445 -9 
Q 736 346 925 774 
Q 1114 1203 1226 1638 
Q 1338 2074 1382 2458 
Q 1427 2842 1427 3104 
Q 1427 3514 1299 3898 
Q 1171 4282 832 4518 
L 896 4813 
Q 1498 4557 1763 4013 
Q 2029 3469 2029 2803 
Q 2029 2221 1885 1635 
Q 1741 1050 1449 538 
Q 1158 26 720 -345 
Q 282 -717 -314 -870 
L -250 -582 
z
" transform="scale(0.015625)"/>
      </defs>
      <use xlink:href="#NotoSerif-Italic-74"/>
      <use xlink:href="#NotoSerif-Italic-69" transform="translate(36.799988 0)"/>
      <use xlink:href="#NotoSerif-Italic-6d" transform="translate(67.199982 0)"/>
      <use xlink:href="#NotoSerif-Italic-65" transform="translate(156.799973 0)"/>
      <use xlink:href="#NotoSerif-Italic-20" transform="translate(206.09996 0)"/>
      <use xlink:href="#NotoSerif-Italic-28" transform="translate(232.099945 0)"/>
      <use xlink:href="#NotoSerif-Italic-73" transform="translate(266.699936 0)"/>
      <use xlink:href="#NotoSerif-Italic-29" transform="translate(313.09993 0)"/>
     </g>
    </g>
   </g>
   <g id="line2d_4">
    <path d="M 58.177017 108.670685 
L 59.75124 108.669147 
L 61.325463 108.669147 
L 62.899686 108.669147 
L 64.473908 108.669147 
L 66.048131 108.669147 
L 67.622354 108.669147 
L 69.196576 108.669147 
L 70.770799 108.669147 
L 72.345022 108.669147 
L 73.919245 108.669147 
L 75.493467 108.669147 
L 77.06769 108.669147 
L 78.641913 108.667609 
L 80.216135 108.666071 
L 81.790358 108.664533 
L 83.364581 108.664533 
L 84.938804 108.664533 
L 86.513026 108.664533 
L 88.087249 108.664533 
L 89.661472 108.664533 
L 91.235694 108.662995 
L 92.809917 108.662995 
L 94.38414 108.662995 
L 95.958363 108.661457 
L 97.532585 108.661457 
L 99.106808 108.661457 
L 100.681031 108.658382 
L 102.255253 108.658382 
L 103.829476 108.658382 
L 105.403699 108.658382 
L 106.977921 108.658382 
L 108.552144 108.658382 
L 110.126367 108.656844 
L 111.70059 108.656844 
L 113.274812 108.656844 
L 114.849035 108.655306 
L 116.423258 108.653768 
L 117.99748 108.653768 
L 119.571703 108.653768 
L 121.145926 108.653768 
L 122.720149 108.653768 
L 124.294371 108.653768 
L 125.868594 108.653768 
L 127.442817 108.653768 
L 129.017039 108.653768 
L 130.591262 108.653768 
L 132.165485 108.65223 
L 133.739708 108.65223 
L 135.31393 108.65223 
L 136.888153 108.650692 
L 138.462376 108.649154 
L 140.036598 108.649154 
L 141.610821 108.649154 
L 143.185044 108.647616 
L 144.759267 108.646078 
L 146.333489 108.646078 
L 147.907712 108.646078 
L 149.481935 108.646078 
L 151.056157 108.646078 
L 152.63038 108.646078 
L 154.204603 108.646078 
L 155.778826 108.646078 
L 157.353048 108.646078 
L 158.927271 108.646078 
L 160.501494 108.64454 
L 162.075716 108.64454 
L 163.649939 108.64454 
L 165.224162 108.64454 
L 166.798385 108.64454 
L 168.372607 108.64454 
L 169.94683 108.64454 
L 171.521053 108.64454 
L 173.095275 108.64454 
L 174.669498 108.64454 
L 176.243721 108.64454 
L 177.817944 108.64454 
L 179.392166 108.64454 
L 180.966389 108.64454 
L 182.540612 108.641465 
L 184.114834 108.641465 
L 185.689057 108.641465 
L 187.26328 108.641465 
L 188.837503 108.639927 
L 190.411725 108.639927 
L 191.985948 108.639927 
L 193.560171 108.639927 
L 195.134393 108.639927 
L 196.708616 108.639927 
L 198.282839 108.639927 
L 199.857062 108.639927 
L 201.431284 108.639927 
L 203.005507 108.639927 
L 204.57973 108.638389 
L 206.153952 108.636851 
L 207.728175 108.636851 
L 209.302398 108.636851 
L 210.87662 108.636851 
L 212.450843 108.636851 
L 214.025066 108.636851 
" clip-path="url(#p06dbe7e55d)" style="fill: none; stroke: #440154; stroke-width: 1.5; stroke-linecap: square"/>
   </g>
   <g id="text_5">
    <!-- service-ask -->
    <g transform="translate(106.995729 11.36024) scale(0.11 -0.11)">
     <defs>
      <path id="NotoSerif-Regular-73" d="M 1344 -64 
Q 864 -64 576 109 
Q 288 282 288 614 
Q 288 787 358 883 
Q 429 979 521 1017 
Q 614 1056 691 1056 
Q 691 723 841 483 
Q 992 243 1382 243 
Q 1722 243 1904 406 
Q 2086 570 2086 826 
Q 2086 986 2019 1088 
Q 1952 1190 1782 1289 
Q 1613 1389 1299 1523 
Q 973 1670 758 1808 
Q 544 1946 438 2128 
Q 333 2310 333 2586 
Q 333 3021 662 3254 
Q 992 3488 1536 3488 
Q 1997 3488 2233 3315 
Q 2470 3142 2470 2899 
Q 2470 2726 2352 2620 
Q 2234 2515 2010 2515 
Q 2010 2835 1875 3014 
Q 1741 3194 1459 3194 
Q 1133 3194 992 3050 
Q 851 2906 851 2682 
Q 851 2438 1033 2307 
Q 1216 2176 1645 2003 
Q 1984 1862 2195 1721 
Q 2406 1581 2505 1395 
Q 2605 1210 2605 941 
Q 2605 442 2259 189 
Q 1914 -64 1344 -64 
z
" transform="scale(0.015625)"/>
      <path id="NotoSerif-Regular-65" d="M 1837 -64 
Q 1139 -64 745 397 
Q 352 858 352 1690 
Q 352 2586 723 3040 
Q 1094 3494 1773 3494 
Q 2394 3494 2749 3110 
Q 3104 2726 3104 1965 
L 3104 1670 
L 973 1670 
Q 986 973 1226 656 
Q 1466 339 1926 339 
Q 2259 339 2492 476 
Q 2726 614 2842 787 
Q 2886 768 2924 710 
Q 2963 653 2963 570 
Q 2963 442 2841 294 
Q 2720 147 2470 41 
Q 2221 -64 1837 -64 
z
M 2458 2016 
Q 2458 2528 2301 2838 
Q 2144 3149 1760 3149 
Q 1408 3149 1213 2857 
Q 1018 2566 986 2016 
L 2458 2016 
z
" transform="scale(0.015625)"/>
      <path id="NotoSerif-Regular-72" d="M 211 0 
L 211 269 
L 230 269 
Q 448 269 601 349 
Q 755 429 755 730 
L 755 2726 
Q 755 3008 598 3085 
Q 442 3162 230 3162 
L 211 3162 
L 211 3430 
L 1197 3430 
L 1318 2797 
L 1350 2797 
Q 1434 2989 1530 3149 
Q 1626 3309 1786 3401 
Q 1946 3494 2227 3494 
Q 2579 3494 2748 3372 
Q 2918 3251 2918 3027 
Q 2918 2829 2780 2701 
Q 2643 2573 2323 2573 
Q 2323 2835 2246 2953 
Q 2170 3072 1984 3072 
Q 1805 3072 1683 2931 
Q 1562 2790 1491 2572 
Q 1421 2355 1389 2121 
Q 1357 1888 1357 1702 
L 1357 698 
Q 1357 416 1513 342 
Q 1670 269 1882 269 
L 2061 269 
L 2061 0 
L 211 0 
z
" transform="scale(0.015625)"/>
      <path id="NotoSerif-Regular-76" d="M 499 2822 
Q 429 3027 329 3094 
Q 230 3162 26 3162 
L 26 3430 
L 1626 3430 
L 1626 3162 
L 1542 3162 
Q 1158 3162 1158 2854 
Q 1158 2803 1171 2745 
Q 1184 2688 1210 2618 
L 1645 1408 
Q 1734 1171 1817 892 
Q 1901 614 1946 448 
Q 1978 582 2080 838 
Q 2182 1094 2266 1325 
L 2726 2573 
Q 2784 2726 2784 2848 
Q 2784 3162 2362 3162 
L 2317 3162 
L 2317 3430 
L 3686 3430 
L 3686 3162 
L 3610 3162 
Q 3424 3162 3331 3066 
Q 3238 2970 3123 2662 
L 2112 0 
L 1530 0 
L 499 2822 
z
" transform="scale(0.015625)"/>
      <path id="NotoSerif-Regular-69" d="M 1030 4070 
Q 877 4070 771 4160 
Q 666 4250 666 4467 
Q 666 4691 771 4777 
Q 877 4864 1030 4864 
Q 1178 4864 1286 4777 
Q 1395 4691 1395 4467 
Q 1395 4250 1286 4160 
Q 1178 4070 1030 4070 
z
M 147 0 
L 147 269 
L 230 269 
Q 442 269 598 342 
Q 755 416 755 698 
L 755 2726 
Q 755 3008 598 3085 
Q 442 3162 230 3162 
L 211 3162 
L 211 3430 
L 1357 3430 
L 1357 730 
Q 1357 429 1510 349 
Q 1664 269 1882 269 
L 1965 269 
L 1965 0 
L 147 0 
z
" transform="scale(0.015625)"/>
      <path id="NotoSerif-Regular-63" d="M 1811 -64 
Q 1389 -64 1059 115 
Q 730 294 541 681 
Q 352 1069 352 1696 
Q 352 2381 541 2774 
Q 730 3168 1053 3331 
Q 1376 3494 1779 3494 
Q 2048 3494 2304 3424 
Q 2560 3354 2726 3210 
Q 2893 3066 2893 2842 
Q 2893 2624 2749 2531 
Q 2605 2438 2323 2438 
Q 2323 2739 2211 2956 
Q 2099 3174 1779 3174 
Q 1536 3174 1353 3046 
Q 1171 2918 1072 2598 
Q 973 2278 973 1702 
Q 973 1024 1200 688 
Q 1427 352 1939 352 
Q 2240 352 2461 477 
Q 2682 602 2790 800 
Q 2899 710 2899 550 
Q 2899 403 2777 262 
Q 2656 122 2416 29 
Q 2176 -64 1811 -64 
z
" transform="scale(0.015625)"/>
      <path id="NotoSerif-Regular-2d" d="M 160 1504 
L 160 1984 
L 1824 1984 
L 1824 1504 
L 160 1504 
z
" transform="scale(0.015625)"/>
      <path id="NotoSerif-Regular-61" d="M 1312 -64 
Q 883 -64 601 185 
Q 320 435 320 960 
Q 320 1472 681 1715 
Q 1043 1958 1779 1984 
L 2310 2003 
L 2310 2387 
Q 2310 2618 2272 2794 
Q 2234 2970 2106 3072 
Q 1978 3174 1715 3174 
Q 1472 3174 1344 3084 
Q 1216 2995 1174 2838 
Q 1133 2682 1133 2477 
Q 864 2477 726 2569 
Q 589 2662 589 2880 
Q 589 3104 745 3238 
Q 902 3373 1164 3433 
Q 1427 3494 1741 3494 
Q 2330 3494 2621 3244 
Q 2912 2995 2912 2387 
L 2912 730 
Q 2912 461 3001 365 
Q 3091 269 3309 269 
L 3328 269 
L 3328 0 
L 2464 0 
L 2362 550 
L 2310 550 
Q 2176 371 2048 233 
Q 1920 96 1750 16 
Q 1581 -64 1312 -64 
z
M 1459 333 
Q 1850 333 2080 573 
Q 2310 813 2310 1222 
L 2310 1741 
L 1901 1722 
Q 1357 1696 1149 1501 
Q 941 1306 941 928 
Q 941 333 1459 333 
z
" transform="scale(0.015625)"/>
      <path id="NotoSerif-Regular-6b" d="M 115 0 
L 115 269 
L 166 269 
Q 384 269 537 349 
Q 691 429 691 730 
L 691 4160 
Q 691 4442 534 4518 
Q 378 4595 166 4595 
L 115 4595 
L 115 4864 
L 1293 4864 
L 1293 2394 
Q 1293 2310 1289 2176 
Q 1286 2042 1280 1907 
Q 1274 1773 1270 1680 
Q 1267 1587 1267 1587 
L 2067 2464 
Q 2272 2694 2345 2819 
Q 2419 2944 2419 3034 
Q 2419 3117 2342 3139 
Q 2266 3162 2106 3162 
L 2106 3430 
L 3520 3430 
L 3520 3162 
Q 3302 3162 3084 3005 
Q 2867 2848 2618 2566 
L 2170 2061 
L 3021 794 
Q 3187 538 3350 403 
Q 3514 269 3731 269 
L 3750 269 
L 3750 0 
L 3661 0 
Q 3386 0 3200 19 
Q 3014 38 2889 99 
Q 2765 160 2653 285 
Q 2541 410 2406 621 
L 1766 1626 
L 1293 1274 
L 1293 698 
Q 1293 416 1449 342 
Q 1606 269 1818 269 
L 1837 269 
L 1837 0 
L 115 0 
z
" transform="scale(0.015625)"/>
     </defs>
     <use xlink:href="#NotoSerif-Regular-73"/>
     <use xlink:href="#NotoSerif-Regular-65" transform="translate(45.099991 0)"/>
     <use xlink:href="#NotoSerif-Regular-72" transform="translate(98.599976 0)"/>
     <use xlink:href="#NotoSerif-Regular-76" transform="translate(145.699966 0)"/>
     <use xlink:href="#NotoSerif-Regular-69" transform="translate(203.59996 0)"/>
     <use xlink:href="#NotoSerif-Regular-63" transform="translate(235.599945 0)"/>
     <use xlink:href="#NotoSerif-Regular-65" transform="translate(284.799942 0)"/>
     <use xlink:href="#NotoSerif-Regular-2d" transform="translate(338.299927 0)"/>
     <use xlink:href="#NotoSerif-Regular-61" transform="translate(369.299911 0)"/>
     <use xlink:href="#NotoSerif-Regular-73" transform="translate(425.599899 0)"/>
     <use xlink:href="#NotoSerif-Regular-6b" transform="translate(470.69989 0)"/>
    </g>
   </g>
  </g>
  <g id="axes_2">
   <g id="patch_3">
    <path d="M 250.589823 195.99976 
L 422.022677 195.99976 
L 422.022677 14.00024 
L 250.589823 14.00024 
z
" style="fill: #ffffff"/>
   </g>
   <g id="FillBetweenPolyCollection_2">
    <defs>
     <path id="me4d452b45a" d="M 258.382226 -128.345763 
L 258.382226 -48.95704 
L 259.956448 -48.95704 
L 261.530671 -48.95704 
L 263.104894 -48.959495 
L 264.679117 -48.959495 
L 266.253339 -48.959495 
L 267.827562 -48.962074 
L 269.401785 -48.962074 
L 270.976007 -48.962074 
L 272.55023 -48.961397 
L 274.124453 -48.961397 
L 275.698676 -48.961397 
L 277.272898 -48.961397 
L 278.847121 -48.963799 
L 280.421344 -48.963799 
L 281.995566 -48.967209 
L 283.569789 -48.967209 
L 285.144012 -48.968013 
L 286.718235 -48.968013 
L 288.292457 -48.968013 
L 289.86668 -48.970415 
L 291.440903 -48.970415 
L 293.015125 -48.970415 
L 294.589348 -48.97122 
L 296.163571 -48.97122 
L 297.737794 -48.97122 
L 299.312016 -48.97122 
L 300.886239 -48.97122 
L 302.460462 -48.97122 
L 304.034684 -48.97122 
L 305.608907 -48.97122 
L 307.18313 -48.972925 
L 308.757353 -48.972925 
L 310.331575 -48.975503 
L 311.905798 -48.975503 
L 313.480021 -48.975503 
L 315.054243 -48.975503 
L 316.628466 -48.976308 
L 318.202689 -48.976308 
L 319.776912 -48.976308 
L 321.351134 -48.976308 
L 322.925357 -48.976308 
L 324.49958 -48.975631 
L 326.073802 -48.975631 
L 327.648025 -48.975631 
L 329.222248 -48.975631 
L 330.796471 -48.975631 
L 332.370693 -48.977335 
L 333.944916 -48.97904 
L 335.519139 -48.97904 
L 337.093361 -48.97904 
L 338.667584 -48.981618 
L 340.241807 -48.981618 
L 341.816029 -48.981618 
L 343.390252 -48.981618 
L 344.964475 -48.981618 
L 346.538698 -48.981618 
L 348.11292 -48.981618 
L 349.687143 -48.981618 
L 351.261366 -48.981618 
L 352.835588 -48.982422 
L 354.409811 -48.983227 
L 355.984034 -48.983227 
L 357.558257 -48.983227 
L 359.132479 -48.983227 
L 360.706702 -48.982551 
L 362.280925 -48.982551 
L 363.855147 -48.982551 
L 365.42937 -48.985129 
L 367.003593 -48.985129 
L 368.577816 -48.985129 
L 370.152038 -48.985129 
L 371.726261 -48.985129 
L 373.300484 -48.985129 
L 374.874706 -48.985129 
L 376.448929 -48.985129 
L 378.023152 -48.986833 
L 379.597375 -48.986833 
L 381.171597 -48.986833 
L 382.74582 -48.986833 
L 384.320043 -48.986833 
L 385.894265 -48.986833 
L 387.468488 -48.986833 
L 389.042711 -48.986833 
L 390.616934 -48.986833 
L 392.191156 -48.988536 
L 393.765379 -48.988536 
L 395.339602 -48.988536 
L 396.913824 -48.991114 
L 398.488047 -48.991114 
L 400.06227 -48.991114 
L 401.636493 -48.991114 
L 403.210715 -48.991114 
L 404.784938 -48.991918 
L 406.359161 -48.991918 
L 407.933383 -48.991918 
L 409.507606 -48.991918 
L 411.081829 -48.991918 
L 412.656052 -48.991918 
L 414.230274 -48.991918 
L 414.230274 -128.384705 
L 414.230274 -128.384705 
L 412.656052 -128.384705 
L 411.081829 -128.384705 
L 409.507606 -128.384705 
L 407.933383 -128.384705 
L 406.359161 -128.384705 
L 404.784938 -128.384705 
L 403.210715 -128.382433 
L 401.636493 -128.382433 
L 400.06227 -128.382433 
L 398.488047 -128.382433 
L 396.913824 -128.382433 
L 395.339602 -128.381935 
L 393.765379 -128.381935 
L 392.191156 -128.381935 
L 390.616934 -128.380563 
L 389.042711 -128.380563 
L 387.468488 -128.380563 
L 385.894265 -128.380563 
L 384.320043 -128.380563 
L 382.74582 -128.380563 
L 381.171597 -128.380563 
L 379.597375 -128.380563 
L 378.023152 -128.380563 
L 376.448929 -128.379191 
L 374.874706 -128.379191 
L 373.300484 -128.379191 
L 371.726261 -128.379191 
L 370.152038 -128.379191 
L 368.577816 -128.379191 
L 367.003593 -128.379191 
L 365.42937 -128.379191 
L 363.855147 -128.378693 
L 362.280925 -128.378693 
L 360.706702 -128.378693 
L 359.132479 -128.374941 
L 357.558257 -128.374941 
L 355.984034 -128.374941 
L 354.409811 -128.374941 
L 352.835588 -128.37267 
L 351.261366 -128.370399 
L 349.687143 -128.370399 
L 348.11292 -128.370399 
L 346.538698 -128.370399 
L 344.964475 -128.370399 
L 343.390252 -128.370399 
L 341.816029 -128.370399 
L 340.241807 -128.370399 
L 338.667584 -128.370399 
L 337.093361 -128.369901 
L 335.519139 -128.369901 
L 333.944916 -128.369901 
L 332.370693 -128.368529 
L 330.796471 -128.367158 
L 329.222248 -128.367158 
L 327.648025 -128.367158 
L 326.073802 -128.367158 
L 324.49958 -128.367158 
L 322.925357 -128.363405 
L 321.351134 -128.363405 
L 319.776912 -128.363405 
L 318.202689 -128.363405 
L 316.628466 -128.363405 
L 315.054243 -128.361134 
L 313.480021 -128.361134 
L 311.905798 -128.361134 
L 310.331575 -128.361134 
L 308.757353 -128.360637 
L 307.18313 -128.360637 
L 305.608907 -128.359265 
L 304.034684 -128.359265 
L 302.460462 -128.359265 
L 300.886239 -128.359265 
L 299.312016 -128.359265 
L 297.737794 -128.359265 
L 296.163571 -128.359265 
L 294.589348 -128.359265 
L 293.015125 -128.356995 
L 291.440903 -128.356995 
L 289.86668 -128.356995 
L 288.292457 -128.356321 
L 286.718235 -128.356321 
L 285.144012 -128.356321 
L 283.569789 -128.354049 
L 281.995566 -128.354049 
L 280.421344 -128.351307 
L 278.847121 -128.351307 
L 277.272898 -128.350634 
L 275.698676 -128.350634 
L 274.124453 -128.350634 
L 272.55023 -128.350634 
L 270.976007 -128.346881 
L 269.401785 -128.346881 
L 267.827562 -128.346881 
L 266.253339 -128.346384 
L 264.679117 -128.346384 
L 263.104894 -128.346384 
L 261.530671 -128.345763 
L 259.956448 -128.345763 
L 258.382226 -128.345763 
z
"/>
    </defs>
    <g clip-path="url(#p952dd99599)">
     <use xlink:href="#me4d452b45a" x="0" y="216" style="fill: #21918c; fill-opacity: 0.1"/>
    </g>
   </g>
   <g id="matplotlib.axis_3">
    <g id="xtick_3">
     <g id="line2d_5">
      <g>
       <use xlink:href="#m0c1e6d1e09" x="258.382226" y="195.99976" style="stroke: #000000; stroke-width: 0.8"/>
      </g>
     </g>
     <g id="text_6">
      <!-- 0 -->
      <g transform="translate(255.586913 210.59976) scale(0.1 -0.1)">
       <use xlink:href="#NotoSerif-Regular-30"/>
      </g>
     </g>
    </g>
    <g id="xtick_4">
     <g id="line2d_6">
      <g>
       <use xlink:href="#m0c1e6d1e09" x="415.804497" y="195.99976" style="stroke: #000000; stroke-width: 0.8"/>
      </g>
     </g>
     <g id="text_7">
      <!-- 100 -->
      <g transform="translate(407.418559 210.59976) scale(0.1 -0.1)">
       <use xlink:href="#NotoSerif-Regular-31"/>
       <use xlink:href="#NotoSerif-Regular-30" transform="translate(55.899994 0)"/>
       <use xlink:href="#NotoSerif-Regular-30" transform="translate(111.799988 0)"/>
      </g>
     </g>
    </g>
   </g>
   <g id="matplotlib.axis_4">
    <g id="ytick_2">
     <g id="line2d_7"/>
     <g id="text_8">
      <!-- 5.54 -->
      <g style="fill: #21918c" transform="translate(425.522677 131.111689) scale(0.1 -0.1)">
       <defs>
        <path id="NotoSerif-Regular-35" d="M 1562 -64 
Q 1088 -64 825 38 
Q 563 141 457 291 
Q 352 442 352 582 
Q 352 762 451 861 
Q 550 960 755 960 
Q 755 685 947 499 
Q 1139 314 1530 314 
Q 1792 314 2000 416 
Q 2208 518 2326 755 
Q 2445 992 2445 1395 
Q 2445 1901 2179 2147 
Q 1914 2394 1472 2394 
Q 1139 2394 972 2349 
Q 806 2304 685 2253 
L 531 2298 
L 736 4570 
L 2874 4570 
L 2906 3603 
L 2637 3603 
L 2611 3795 
Q 2592 3930 2531 3994 
Q 2470 4058 2266 4058 
L 1024 4058 
L 902 2643 
Q 998 2675 1184 2710 
Q 1370 2746 1651 2746 
Q 2067 2746 2396 2595 
Q 2726 2445 2918 2147 
Q 3110 1850 3110 1395 
Q 3110 960 2928 630 
Q 2746 301 2400 118 
Q 2054 -64 1562 -64 
z
" transform="scale(0.015625)"/>
        <path id="NotoSerif-Regular-34" d="M 1376 0 
L 1376 269 
L 1555 269 
Q 1773 269 1926 349 
Q 2080 429 2080 730 
L 2080 1254 
L 109 1254 
L 109 1517 
L 2086 4570 
L 2694 4570 
L 2694 1613 
L 3488 1613 
L 3488 1254 
L 2694 1254 
L 2694 730 
Q 2694 429 2848 349 
Q 3002 269 3219 269 
L 3302 269 
L 3302 0 
L 1376 0 
z
M 570 1613 
L 2080 1613 
L 2080 2797 
Q 2080 2982 2083 3216 
Q 2086 3450 2099 3686 
Q 2112 3923 2125 4122 
Q 2093 4058 2022 3930 
Q 1952 3802 1862 3651 
Q 1773 3501 1689 3363 
Q 1606 3226 1549 3136 
L 570 1613 
z
" transform="scale(0.015625)"/>
       </defs>
       <use xlink:href="#NotoSerif-Regular-35"/>
       <use xlink:href="#NotoSerif-Regular-2e" transform="translate(55.899994 0)"/>
       <use xlink:href="#NotoSerif-Regular-35" transform="translate(80.899979 0)"/>
       <use xlink:href="#NotoSerif-Regular-34" transform="translate(136.799973 0)"/>
      </g>
     </g>
    </g>
   </g>
   <g id="line2d_8">
    <path d="M 258.382226 127.348598 
L 259.956448 127.348598 
L 261.530671 127.348598 
L 263.104894 127.34706 
L 264.679117 127.34706 
L 266.253339 127.34706 
L 267.827562 127.345523 
L 269.401785 127.345523 
L 270.976007 127.345523 
L 272.55023 127.343985 
L 274.124453 127.343985 
L 275.698676 127.343985 
L 277.272898 127.343985 
L 278.847121 127.342447 
L 280.421344 127.342447 
L 281.995566 127.339371 
L 283.569789 127.339371 
L 285.144012 127.337833 
L 286.718235 127.337833 
L 288.292457 127.337833 
L 289.86668 127.336295 
L 291.440903 127.336295 
L 293.015125 127.336295 
L 294.589348 127.334757 
L 296.163571 127.334757 
L 297.737794 127.334757 
L 299.312016 127.334757 
L 300.886239 127.334757 
L 302.460462 127.334757 
L 304.034684 127.334757 
L 305.608907 127.334757 
L 307.18313 127.333219 
L 308.757353 127.333219 
L 310.331575 127.331681 
L 311.905798 127.331681 
L 313.480021 127.331681 
L 315.054243 127.331681 
L 316.628466 127.330143 
L 318.202689 127.330143 
L 319.776912 127.330143 
L 321.351134 127.330143 
L 322.925357 127.330143 
L 324.49958 127.328606 
L 326.073802 127.328606 
L 327.648025 127.328606 
L 329.222248 127.328606 
L 330.796471 127.328606 
L 332.370693 127.327068 
L 333.944916 127.32553 
L 335.519139 127.32553 
L 337.093361 127.32553 
L 338.667584 127.323992 
L 340.241807 127.323992 
L 341.816029 127.323992 
L 343.390252 127.323992 
L 344.964475 127.323992 
L 346.538698 127.323992 
L 348.11292 127.323992 
L 349.687143 127.323992 
L 351.261366 127.323992 
L 352.835588 127.322454 
L 354.409811 127.320916 
L 355.984034 127.320916 
L 357.558257 127.320916 
L 359.132479 127.320916 
L 360.706702 127.319378 
L 362.280925 127.319378 
L 363.855147 127.319378 
L 365.42937 127.31784 
L 367.003593 127.31784 
L 368.577816 127.31784 
L 370.152038 127.31784 
L 371.726261 127.31784 
L 373.300484 127.31784 
L 374.874706 127.31784 
L 376.448929 127.31784 
L 378.023152 127.316302 
L 379.597375 127.316302 
L 381.171597 127.316302 
L 382.74582 127.316302 
L 384.320043 127.316302 
L 385.894265 127.316302 
L 387.468488 127.316302 
L 389.042711 127.316302 
L 390.616934 127.316302 
L 392.191156 127.314764 
L 393.765379 127.314764 
L 395.339602 127.314764 
L 396.913824 127.313226 
L 398.488047 127.313226 
L 400.06227 127.313226 
L 401.636493 127.313226 
L 403.210715 127.313226 
L 404.784938 127.311689 
L 406.359161 127.311689 
L 407.933383 127.311689 
L 409.507606 127.311689 
L 411.081829 127.311689 
L 412.656052 127.311689 
L 414.230274 127.311689 
" clip-path="url(#p952dd99599)" style="fill: none; stroke: #21918c; stroke-width: 1.5; stroke-linecap: square"/>
   </g>
   <g id="text_9">
    <!-- service-count -->
    <g transform="translate(301.138906 11.36024) scale(0.11 -0.11)">
     <defs>
      <path id="NotoSerif-Regular-6f" d="M 1837 -64 
Q 1146 -64 749 377 
Q 352 819 352 1722 
Q 352 2618 733 3056 
Q 1114 3494 1856 3494 
Q 2547 3494 2944 3056 
Q 3341 2618 3341 1722 
Q 3341 819 2960 377 
Q 2579 -64 1837 -64 
z
M 1850 269 
Q 2330 269 2525 637 
Q 2720 1005 2720 1722 
Q 2720 2438 2521 2796 
Q 2323 3155 1843 3155 
Q 1363 3155 1168 2796 
Q 973 2438 973 1722 
Q 973 1005 1171 637 
Q 1370 269 1850 269 
z
" transform="scale(0.015625)"/>
      <path id="NotoSerif-Regular-75" d="M 1747 -64 
Q 1242 -64 966 233 
Q 691 531 691 1190 
L 691 2726 
Q 691 3008 534 3085 
Q 378 3162 166 3162 
L 147 3162 
L 147 3430 
L 1293 3430 
L 1293 1222 
Q 1293 806 1433 576 
Q 1574 346 1965 346 
Q 2387 346 2579 630 
Q 2771 915 2771 1382 
L 2771 2701 
Q 2771 3002 2617 3082 
Q 2464 3162 2246 3162 
L 2227 3162 
L 2227 3430 
L 3373 3430 
L 3373 698 
Q 3373 416 3529 342 
Q 3686 269 3898 269 
L 3917 269 
L 3917 0 
L 2899 0 
L 2816 518 
L 2784 518 
Q 2586 160 2323 48 
Q 2061 -64 1747 -64 
z
" transform="scale(0.015625)"/>
      <path id="NotoSerif-Regular-6e" d="M 179 0 
L 179 269 
L 230 269 
Q 448 269 601 349 
Q 755 429 755 730 
L 755 2726 
Q 755 3008 604 3085 
Q 454 3162 243 3162 
L 211 3162 
L 211 3430 
L 1248 3430 
L 1331 2912 
L 1363 2912 
Q 1562 3270 1808 3382 
Q 2054 3494 2362 3494 
Q 2867 3494 3152 3196 
Q 3437 2899 3437 2240 
L 3437 730 
Q 3437 429 3568 349 
Q 3699 269 3917 269 
L 3949 269 
L 3949 0 
L 2835 0 
L 2835 2208 
Q 2835 2624 2678 2854 
Q 2522 3085 2131 3085 
Q 1843 3085 1673 2941 
Q 1504 2797 1430 2560 
Q 1357 2323 1357 2048 
L 1357 698 
Q 1357 416 1507 342 
Q 1658 269 1869 269 
L 1901 269 
L 1901 0 
L 179 0 
z
" transform="scale(0.015625)"/>
      <path id="NotoSerif-Regular-74" d="M 1536 -64 
Q 1050 -64 829 157 
Q 608 378 608 928 
L 608 3066 
L 122 3066 
L 122 3322 
Q 237 3322 377 3370 
Q 518 3418 621 3526 
Q 730 3642 800 3808 
Q 870 3974 915 4218 
L 1210 4218 
L 1210 3430 
L 2048 3430 
L 2048 3066 
L 1210 3066 
L 1210 909 
Q 1210 582 1344 428 
Q 1478 275 1696 275 
Q 1811 275 1907 288 
Q 2003 301 2106 320 
L 2106 38 
Q 2022 0 1856 -32 
Q 1690 -64 1536 -64 
z
" transform="scale(0.015625)"/>
     </defs>
     <use xlink:href="#NotoSerif-Regular-73"/>
     <use xlink:href="#NotoSerif-Regular-65" transform="translate(45.099991 0)"/>
     <use xlink:href="#NotoSerif-Regular-72" transform="translate(98.599976 0)"/>
     <use xlink:href="#NotoSerif-Regular-76" transform="translate(145.699966 0)"/>
     <use xlink:href="#NotoSerif-Regular-69" transform="translate(203.59996 0)"/>
     <use xlink:href="#NotoSerif-Regular-63" transform="translate(235.599945 0)"/>
     <use xlink:href="#NotoSerif-Regular-65" transform="translate(284.799942 0)"/>
     <use xlink:href="#NotoSerif-Regular-2d" transform="translate(338.299927 0)"/>
     <use xlink:href="#NotoSerif-Regular-63" transform="translate(369.299911 0)"/>
     <use xlink:href="#NotoSerif-Regular-6f" transform="translate(418.499908 0)"/>
     <use xlink:href="#NotoSerif-Regular-75" transform="translate(476.199905 0)"/>
     <use xlink:href="#NotoSerif-Regular-6e" transform="translate(539.69989 0)"/>
     <use xlink:href="#NotoSerif-Regular-74" transform="translate(604.199875 0)"/>
    </g>
   </g>
  </g>
  <g id="axes_3">
   <g id="patch_4">
    <path d="M 450.795032 195.99976 
L 622.227885 195.99976 
L 622.227885 14.00024 
L 450.795032 14.00024 
z
" style="fill: #ffffff"/>
   </g>
   <g id="FillBetweenPolyCollection_3">
    <defs>
     <path id="m2db09214d1" d="M 458.587434 -193.840906 
L 458.587434 -31.896826 
L 460.161657 -31.896826 
L 461.73588 -31.896826 
L 463.310102 -31.896826 
L 464.884325 -31.896826 
L 466.458548 -31.897924 
L 468.03277 -31.899165 
L 469.606993 -31.899165 
L 471.181216 -31.899165 
L 472.755438 -31.899936 
L 474.329661 -31.899936 
L 475.903884 -31.90218 
L 477.478107 -31.90218 
L 479.052329 -31.90218 
L 480.626552 -31.90433 
L 482.200775 -31.910674 
L 483.774997 -31.910674 
L 485.34922 -31.910674 
L 486.923443 -31.910674 
L 488.497666 -31.913155 
L 490.071888 -31.913155 
L 491.646111 -31.913155 
L 493.220334 -31.913155 
L 494.794556 -31.913155 
L 496.368779 -31.913155 
L 497.943002 -31.914254 
L 499.517225 -31.914254 
L 501.091447 -31.914254 
L 502.66567 -31.914254 
L 504.239893 -31.912927 
L 505.814115 -31.912927 
L 507.388338 -31.917121 
L 508.962561 -31.919218 
L 510.536784 -31.919218 
L 512.111006 -31.919218 
L 513.685229 -31.919218 
L 515.259452 -31.921463 
L 516.833674 -31.922703 
L 518.407897 -31.922703 
L 519.98212 -31.922703 
L 521.556343 -31.922703 
L 523.130565 -31.922703 
L 524.704788 -31.922703 
L 526.279011 -31.924901 
L 527.853233 -31.924901 
L 529.427456 -31.924901 
L 531.001679 -31.924901 
L 532.575902 -31.924344 
L 534.150124 -31.924344 
L 535.724347 -31.924344 
L 537.29857 -31.924344 
L 538.872792 -31.924344 
L 540.447015 -31.924344 
L 542.021238 -31.924344 
L 543.595461 -31.924344 
L 545.169683 -31.924344 
L 546.743906 -31.924344 
L 548.318129 -31.925584 
L 549.892351 -31.925584 
L 551.466574 -31.925584 
L 553.040797 -31.927681 
L 554.61502 -31.927681 
L 556.189242 -31.927681 
L 557.763465 -31.929777 
L 559.337688 -31.929777 
L 560.91191 -31.932022 
L 562.486133 -31.932022 
L 564.060356 -31.930695 
L 565.634579 -31.930695 
L 567.208801 -31.930695 
L 568.783024 -31.930695 
L 570.357247 -31.930695 
L 571.931469 -31.930695 
L 573.505692 -31.930695 
L 575.079915 -31.930695 
L 576.654137 -31.931936 
L 578.22836 -31.931936 
L 579.802583 -31.931936 
L 581.376806 -31.931936 
L 582.951028 -31.934032 
L 584.525251 -31.934032 
L 586.099474 -31.934032 
L 587.673696 -31.934032 
L 589.247919 -31.934032 
L 590.822142 -31.934032 
L 592.396365 -31.934032 
L 593.970587 -31.936277 
L 595.54481 -31.936277 
L 597.119033 -31.936277 
L 598.693255 -31.936277 
L 600.267478 -31.936277 
L 601.841701 -31.936277 
L 603.415924 -31.936277 
L 604.990146 -31.936277 
L 606.564369 -31.938373 
L 608.138592 -31.939614 
L 609.712814 -31.939614 
L 611.287037 -31.939614 
L 612.86126 -31.939614 
L 614.435483 -31.939614 
L 614.435483 -193.89962 
L 614.435483 -193.89962 
L 612.86126 -193.89962 
L 611.287037 -193.89962 
L 609.712814 -193.89962 
L 608.138592 -193.89962 
L 606.564369 -193.897785 
L 604.990146 -193.896805 
L 603.415924 -193.896805 
L 601.841701 -193.896805 
L 600.267478 -193.896805 
L 598.693255 -193.896805 
L 597.119033 -193.896805 
L 595.54481 -193.896805 
L 593.970587 -193.896805 
L 592.396365 -193.895974 
L 590.822142 -193.895974 
L 589.247919 -193.895974 
L 587.673696 -193.895974 
L 586.099474 -193.895974 
L 584.525251 -193.895974 
L 582.951028 -193.895974 
L 581.376806 -193.894995 
L 579.802583 -193.894995 
L 578.22836 -193.894995 
L 576.654137 -193.894995 
L 575.079915 -193.893159 
L 573.505692 -193.893159 
L 571.931469 -193.893159 
L 570.357247 -193.893159 
L 568.783024 -193.893159 
L 567.208801 -193.893159 
L 565.634579 -193.893159 
L 564.060356 -193.893159 
L 562.486133 -193.888757 
L 560.91191 -193.888757 
L 559.337688 -193.887926 
L 557.763465 -193.887926 
L 556.189242 -193.886947 
L 554.61502 -193.886947 
L 553.040797 -193.886947 
L 551.466574 -193.885968 
L 549.892351 -193.885968 
L 548.318129 -193.885968 
L 546.743906 -193.884132 
L 545.169683 -193.884132 
L 543.595461 -193.884132 
L 542.021238 -193.884132 
L 540.447015 -193.884132 
L 538.872792 -193.884132 
L 537.29857 -193.884132 
L 535.724347 -193.884132 
L 534.150124 -193.884132 
L 532.575902 -193.884132 
L 531.001679 -193.874348 
L 529.427456 -193.874348 
L 527.853233 -193.874348 
L 526.279011 -193.874348 
L 524.704788 -193.870393 
L 523.130565 -193.870393 
L 521.556343 -193.870393 
L 519.98212 -193.870393 
L 518.407897 -193.870393 
L 516.833674 -193.870393 
L 515.259452 -193.868558 
L 513.685229 -193.867727 
L 512.111006 -193.867727 
L 510.536784 -193.867727 
L 508.962561 -193.867727 
L 507.388338 -193.866748 
L 505.814115 -193.864791 
L 504.239893 -193.864791 
L 502.66567 -193.860388 
L 501.091447 -193.860388 
L 499.517225 -193.860388 
L 497.943002 -193.860388 
L 496.368779 -193.858411 
L 494.794556 -193.858411 
L 493.220334 -193.858411 
L 491.646111 -193.858411 
L 490.071888 -193.858411 
L 488.497666 -193.858411 
L 486.923443 -193.85474 
L 485.34922 -193.85474 
L 483.774997 -193.85474 
L 482.200775 -193.85474 
L 480.626552 -193.851857 
L 479.052329 -193.85093 
L 477.478107 -193.85093 
L 475.903884 -193.85093 
L 474.329661 -193.8501 
L 472.755438 -193.8501 
L 471.181216 -193.844718 
L 469.606993 -193.844718 
L 468.03277 -193.844718 
L 466.458548 -193.842883 
L 464.884325 -193.840906 
L 463.310102 -193.840906 
L 461.73588 -193.840906 
L 460.161657 -193.840906 
L 458.587434 -193.840906 
z
"/>
    </defs>
    <g clip-path="url(#p0eb8d03603)">
     <use xlink:href="#m2db09214d1" x="0" y="216" style="fill: #fde725; fill-opacity: 0.1"/>
    </g>
   </g>
   <g id="matplotlib.axis_5">
    <g id="xtick_5">
     <g id="line2d_9">
      <g>
       <use xlink:href="#m0c1e6d1e09" x="458.587434" y="195.99976" style="stroke: #000000; stroke-width: 0.8"/>
      </g>
     </g>
     <g id="text_10">
      <!-- 0 -->
      <g transform="translate(455.792122 210.59976) scale(0.1 -0.1)">
       <use xlink:href="#NotoSerif-Regular-30"/>
      </g>
     </g>
    </g>
    <g id="xtick_6">
     <g id="line2d_10">
      <g>
       <use xlink:href="#m0c1e6d1e09" x="616.009705" y="195.99976" style="stroke: #000000; stroke-width: 0.8"/>
      </g>
     </g>
     <g id="text_11">
      <!-- 100 -->
      <g transform="translate(607.623768 210.59976) scale(0.1 -0.1)">
       <use xlink:href="#NotoSerif-Regular-31"/>
       <use xlink:href="#NotoSerif-Regular-30" transform="translate(55.899994 0)"/>
       <use xlink:href="#NotoSerif-Regular-30" transform="translate(111.799988 0)"/>
      </g>
     </g>
    </g>
   </g>
   <g id="matplotlib.axis_6">
    <g id="ytick_3">
     <g id="line2d_11"/>
     <g id="text_12">
      <!-- 7.12 -->
      <g style="fill: #fde725" transform="translate(625.727885 106.880383) scale(0.1 -0.1)">
       <defs>
        <path id="NotoSerif-Regular-32" d="M 390 0 
L 390 467 
L 1459 1702 
Q 1798 2099 1996 2390 
Q 2195 2682 2281 2944 
Q 2368 3206 2368 3501 
Q 2368 3866 2211 4090 
Q 2054 4314 1715 4314 
Q 1427 4314 1273 4179 
Q 1120 4045 1065 3830 
Q 1011 3616 1011 3360 
Q 781 3360 621 3446 
Q 461 3533 461 3776 
Q 461 4147 777 4390 
Q 1094 4634 1715 4634 
Q 2323 4634 2668 4342 
Q 3014 4051 3014 3565 
Q 3014 3117 2732 2691 
Q 2451 2266 1946 1709 
L 864 512 
L 2342 512 
Q 2630 512 2732 659 
Q 2835 806 2880 992 
L 2906 1107 
L 3174 1107 
L 3142 0 
L 390 0 
z
" transform="scale(0.015625)"/>
       </defs>
       <use xlink:href="#NotoSerif-Regular-37"/>
       <use xlink:href="#NotoSerif-Regular-2e" transform="translate(55.899994 0)"/>
       <use xlink:href="#NotoSerif-Regular-31" transform="translate(80.899979 0)"/>
       <use xlink:href="#NotoSerif-Regular-32" transform="translate(136.799973 0)"/>
      </g>
     </g>
    </g>
   </g>
   <g id="line2d_12">
    <path d="M 458.587434 103.131134 
L 460.161657 103.131134 
L 461.73588 103.131134 
L 463.310102 103.131134 
L 464.884325 103.131134 
L 466.458548 103.129596 
L 468.03277 103.128058 
L 469.606993 103.128058 
L 471.181216 103.128058 
L 472.755438 103.124982 
L 474.329661 103.124982 
L 475.903884 103.123445 
L 477.478107 103.123445 
L 479.052329 103.123445 
L 480.626552 103.121907 
L 482.200775 103.117293 
L 483.774997 103.117293 
L 485.34922 103.117293 
L 486.923443 103.117293 
L 488.497666 103.114217 
L 490.071888 103.114217 
L 491.646111 103.114217 
L 493.220334 103.114217 
L 494.794556 103.114217 
L 496.368779 103.114217 
L 497.943002 103.112679 
L 499.517225 103.112679 
L 501.091447 103.112679 
L 502.66567 103.112679 
L 504.239893 103.111141 
L 505.814115 103.111141 
L 507.388338 103.108065 
L 508.962561 103.106528 
L 510.536784 103.106528 
L 512.111006 103.106528 
L 513.685229 103.106528 
L 515.259452 103.10499 
L 516.833674 103.103452 
L 518.407897 103.103452 
L 519.98212 103.103452 
L 521.556343 103.103452 
L 523.130565 103.103452 
L 524.704788 103.103452 
L 526.279011 103.100376 
L 527.853233 103.100376 
L 529.427456 103.100376 
L 531.001679 103.100376 
L 532.575902 103.095762 
L 534.150124 103.095762 
L 535.724347 103.095762 
L 537.29857 103.095762 
L 538.872792 103.095762 
L 540.447015 103.095762 
L 542.021238 103.095762 
L 543.595461 103.095762 
L 545.169683 103.095762 
L 546.743906 103.095762 
L 548.318129 103.094224 
L 549.892351 103.094224 
L 551.466574 103.094224 
L 553.040797 103.092686 
L 554.61502 103.092686 
L 556.189242 103.092686 
L 557.763465 103.091148 
L 559.337688 103.091148 
L 560.91191 103.089611 
L 562.486133 103.089611 
L 564.060356 103.088073 
L 565.634579 103.088073 
L 567.208801 103.088073 
L 568.783024 103.088073 
L 570.357247 103.088073 
L 571.931469 103.088073 
L 573.505692 103.088073 
L 575.079915 103.088073 
L 576.654137 103.086535 
L 578.22836 103.086535 
L 579.802583 103.086535 
L 581.376806 103.086535 
L 582.951028 103.084997 
L 584.525251 103.084997 
L 586.099474 103.084997 
L 587.673696 103.084997 
L 589.247919 103.084997 
L 590.822142 103.084997 
L 592.396365 103.084997 
L 593.970587 103.083459 
L 595.54481 103.083459 
L 597.119033 103.083459 
L 598.693255 103.083459 
L 600.267478 103.083459 
L 601.841701 103.083459 
L 603.415924 103.083459 
L 604.990146 103.083459 
L 606.564369 103.081921 
L 608.138592 103.080383 
L 609.712814 103.080383 
L 611.287037 103.080383 
L 612.86126 103.080383 
L 614.435483 103.080383 
" clip-path="url(#p0eb8d03603)" style="fill: none; stroke: #fde725; stroke-width: 1.5; stroke-linecap: square"/>
   </g>
   <g id="text_13">
    <!-- service-void -->
    <g transform="translate(504.704271 11.36024) scale(0.11 -0.11)">
     <defs>
      <path id="NotoSerif-Regular-64" d="M 1658 -64 
Q 1024 -64 688 361 
Q 352 787 352 1709 
Q 352 2637 688 3065 
Q 1024 3494 1658 3494 
Q 2029 3494 2262 3337 
Q 2496 3181 2637 2931 
L 2675 2931 
Q 2656 3091 2646 3286 
Q 2637 3482 2637 3635 
L 2637 4160 
Q 2637 4442 2480 4518 
Q 2323 4595 2112 4595 
L 2061 4595 
L 2061 4864 
L 3238 4864 
L 3238 704 
Q 3238 422 3395 345 
Q 3552 269 3763 269 
L 3814 269 
L 3814 0 
L 2733 0 
L 2662 576 
L 2637 576 
Q 2496 282 2265 109 
Q 2035 -64 1658 -64 
z
M 1766 346 
Q 2266 346 2451 682 
Q 2637 1018 2637 1709 
Q 2637 2374 2451 2729 
Q 2266 3085 1760 3085 
Q 1338 3085 1155 2729 
Q 973 2374 973 1702 
Q 973 1024 1155 685 
Q 1338 346 1766 346 
z
" transform="scale(0.015625)"/>
     </defs>
     <use xlink:href="#NotoSerif-Regular-73"/>
     <use xlink:href="#NotoSerif-Regular-65" transform="translate(45.099991 0)"/>
     <use xlink:href="#NotoSerif-Regular-72" transform="translate(98.599976 0)"/>
     <use xlink:href="#NotoSerif-Regular-76" transform="translate(145.699966 0)"/>
     <use xlink:href="#NotoSerif-Regular-69" transform="translate(203.59996 0)"/>
     <use xlink:href="#NotoSerif-Regular-63" transform="translate(235.599945 0)"/>
     <use xlink:href="#NotoSerif-Regular-65" transform="translate(284.799942 0)"/>
     <use xlink:href="#NotoSerif-Regular-2d" transform="translate(338.299927 0)"/>
     <use xlink:href="#NotoSerif-Regular-76" transform="translate(369.299911 0)"/>
     <use xlink:href="#NotoSerif-Regular-6f" transform="translate(427.199905 0)"/>
     <use xlink:href="#NotoSerif-Regular-69" transform="translate(484.899902 0)"/>
     <use xlink:href="#NotoSerif-Regular-64" transform="translate(516.899887 0)"/>
    </g>
   </g>
  </g>
 </g>
 <defs>
  <clipPath id="p06dbe7e55d">
   <rect x="50.384615" y="14.00024" width="171.432853" height="181.99952"/>
  </clipPath>
  <clipPath id="p952dd99599">
   <rect x="250.589823" y="14.00024" width="171.432853" height="181.99952"/>
  </clipPath>
  <clipPath id="p0eb8d03603">
   <rect x="450.795032" y="14.00024" width="171.432853" height="181.99952"/>
  </clipPath>
 </defs>
</svg>
