<?xml version="1.0" encoding="utf-8" standalone="no"?>
<!DOCTYPE svg PUBLIC "-//W3C//DTD SVG 1.1//EN"
  "http://www.w3.org/Graphics/SVG/1.1/DTD/svg11.dtd">
<svg xmlns:xlink="http://www.w3.org/1999/xlink" width="460.8pt" height="345.6pt" viewBox="0 0 460.8 345.6" xmlns="http://www.w3.org/2000/svg" version="1.1">
 <metadata>
  <rdf:RDF xmlns:dc="http://purl.org/dc/elements/1.1/" xmlns:cc="http://creativecommons.org/ns#" xmlns:rdf="http://www.w3.org/1999/02/22-rdf-syntax-ns#">
   <cc:Work>
    <dc:type rdf:resource="http://purl.org/dc/dcmitype/StillImage"/>
    <dc:date>2025-05-01T19:45:45.813494</dc:date>
    <dc:format>image/svg+xml</dc:format>
    <dc:creator>
     <cc:Agent>
      <dc:title>Matplotlib v3.10.1, https://matplotlib.org/</dc:title>
     </cc:Agent>
    </dc:creator>
   </cc:Work>
  </rdf:RDF>
 </metadata>
 <defs>
  <style type="text/css">*{stroke-linejoin: round; stroke-linecap: butt}</style>
 </defs>
 <g id="figure_1">
  <g id="patch_1">
   <path d="M 0 345.6 
L 460.8 345.6 
L 460.8 0 
L 0 0 
z
" style="fill: #ffffff"/>
  </g>
  <g id="axes_1">
   <g id="patch_2">
    <path d="M 57.6 307.584 
L 414.72 307.584 
L 414.72 41.472 
L 57.6 41.472 
z
" style="fill: #ffffff"/>
   </g>
   <g id="matplotlib.axis_1">
    <g id="xtick_1">
     <g id="line2d_1">
      <defs>
       <path id="mc0e436792e" d="M 0 0 
L 0 3.5 
" style="stroke: #000000; stroke-width: 0.8"/>
      </defs>
      <g>
       <use xlink:href="#mc0e436792e" x="71.290717" y="307.584" style="stroke: #000000; stroke-width: 0.8"/>
      </g>
     </g>
     <g id="text_1">
      <!-- 0 -->
      <g transform="translate(68.109467 322.182437) scale(0.1 -0.1)">
       <defs>
        <path id="DejaVuSans-30" d="M 2034 4250 
Q 1547 4250 1301 3770 
Q 1056 3291 1056 2328 
Q 1056 1369 1301 889 
Q 1547 409 2034 409 
Q 2525 409 2770 889 
Q 3016 1369 3016 2328 
Q 3016 3291 2770 3770 
Q 2525 4250 2034 4250 
z
M 2034 4750 
Q 2819 4750 3233 4129 
Q 3647 3509 3647 2328 
Q 3647 1150 3233 529 
Q 2819 -91 2034 -91 
Q 1250 -91 836 529 
Q 422 1150 422 2328 
Q 422 3509 836 4129 
Q 1250 4750 2034 4750 
z
" transform="scale(0.015625)"/>
       </defs>
       <use xlink:href="#DejaVuSans-30"/>
      </g>
     </g>
    </g>
    <g id="xtick_2">
     <g id="line2d_2">
      <g>
       <use xlink:href="#mc0e436792e" x="121.13405" y="307.584" style="stroke: #000000; stroke-width: 0.8"/>
      </g>
     </g>
     <g id="text_2">
      <!-- 2 -->
      <g transform="translate(117.9528 322.182437) scale(0.1 -0.1)">
       <defs>
        <path id="DejaVuSans-32" d="M 1228 531 
L 3431 531 
L 3431 0 
L 469 0 
L 469 531 
Q 828 903 1448 1529 
Q 2069 2156 2228 2338 
Q 2531 2678 2651 2914 
Q 2772 3150 2772 3378 
Q 2772 3750 2511 3984 
Q 2250 4219 1831 4219 
Q 1534 4219 1204 4116 
Q 875 4013 500 3803 
L 500 4441 
Q 881 4594 1212 4672 
Q 1544 4750 1819 4750 
Q 2544 4750 2975 4387 
Q 3406 4025 3406 3419 
Q 3406 3131 3298 2873 
Q 3191 2616 2906 2266 
Q 2828 2175 2409 1742 
Q 1991 1309 1228 531 
z
" transform="scale(0.015625)"/>
       </defs>
       <use xlink:href="#DejaVuSans-32"/>
      </g>
     </g>
    </g>
    <g id="xtick_3">
     <g id="line2d_3">
      <g>
       <use xlink:href="#mc0e436792e" x="170.977382" y="307.584" style="stroke: #000000; stroke-width: 0.8"/>
      </g>
     </g>
     <g id="text_3">
      <!-- 4 -->
      <g transform="translate(167.796132 322.182437) scale(0.1 -0.1)">
       <defs>
        <path id="DejaVuSans-34" d="M 2419 4116 
L 825 1625 
L 2419 1625 
L 2419 4116 
z
M 2253 4666 
L 3047 4666 
L 3047 1625 
L 3713 1625 
L 3713 1100 
L 3047 1100 
L 3047 0 
L 2419 0 
L 2419 1100 
L 313 1100 
L 313 1709 
L 2253 4666 
z
" transform="scale(0.015625)"/>
       </defs>
       <use xlink:href="#DejaVuSans-34"/>
      </g>
     </g>
    </g>
    <g id="xtick_4">
     <g id="line2d_4">
      <g>
       <use xlink:href="#mc0e436792e" x="220.820714" y="307.584" style="stroke: #000000; stroke-width: 0.8"/>
      </g>
     </g>
     <g id="text_4">
      <!-- 6 -->
      <g transform="translate(217.639464 322.182437) scale(0.1 -0.1)">
       <defs>
        <path id="DejaVuSans-36" d="M 2113 2584 
Q 1688 2584 1439 2293 
Q 1191 2003 1191 1497 
Q 1191 994 1439 701 
Q 1688 409 2113 409 
Q 2538 409 2786 701 
Q 3034 994 3034 1497 
Q 3034 2003 2786 2293 
Q 2538 2584 2113 2584 
z
M 3366 4563 
L 3366 3988 
Q 3128 4100 2886 4159 
Q 2644 4219 2406 4219 
Q 1781 4219 1451 3797 
Q 1122 3375 1075 2522 
Q 1259 2794 1537 2939 
Q 1816 3084 2150 3084 
Q 2853 3084 3261 2657 
Q 3669 2231 3669 1497 
Q 3669 778 3244 343 
Q 2819 -91 2113 -91 
Q 1303 -91 875 529 
Q 447 1150 447 2328 
Q 447 3434 972 4092 
Q 1497 4750 2381 4750 
Q 2619 4750 2861 4703 
Q 3103 4656 3366 4563 
z
" transform="scale(0.015625)"/>
       </defs>
       <use xlink:href="#DejaVuSans-36"/>
      </g>
     </g>
    </g>
    <g id="xtick_5">
     <g id="line2d_5">
      <g>
       <use xlink:href="#mc0e436792e" x="270.664047" y="307.584" style="stroke: #000000; stroke-width: 0.8"/>
      </g>
     </g>
     <g id="text_5">
      <!-- 8 -->
      <g transform="translate(267.482797 322.182437) scale(0.1 -0.1)">
       <defs>
        <path id="DejaVuSans-38" d="M 2034 2216 
Q 1584 2216 1326 1975 
Q 1069 1734 1069 1313 
Q 1069 891 1326 650 
Q 1584 409 2034 409 
Q 2484 409 2743 651 
Q 3003 894 3003 1313 
Q 3003 1734 2745 1975 
Q 2488 2216 2034 2216 
z
M 1403 2484 
Q 997 2584 770 2862 
Q 544 3141 544 3541 
Q 544 4100 942 4425 
Q 1341 4750 2034 4750 
Q 2731 4750 3128 4425 
Q 3525 4100 3525 3541 
Q 3525 3141 3298 2862 
Q 3072 2584 2669 2484 
Q 3125 2378 3379 2068 
Q 3634 1759 3634 1313 
Q 3634 634 3220 271 
Q 2806 -91 2034 -91 
Q 1263 -91 848 271 
Q 434 634 434 1313 
Q 434 1759 690 2068 
Q 947 2378 1403 2484 
z
M 1172 3481 
Q 1172 3119 1398 2916 
Q 1625 2713 2034 2713 
Q 2441 2713 2670 2916 
Q 2900 3119 2900 3481 
Q 2900 3844 2670 4047 
Q 2441 4250 2034 4250 
Q 1625 4250 1398 4047 
Q 1172 3844 1172 3481 
z
" transform="scale(0.015625)"/>
       </defs>
       <use xlink:href="#DejaVuSans-38"/>
      </g>
     </g>
    </g>
    <g id="xtick_6">
     <g id="line2d_6">
      <g>
       <use xlink:href="#mc0e436792e" x="320.507379" y="307.584" style="stroke: #000000; stroke-width: 0.8"/>
      </g>
     </g>
     <g id="text_6">
      <!-- 10 -->
      <g transform="translate(314.144879 322.182437) scale(0.1 -0.1)">
       <defs>
        <path id="DejaVuSans-31" d="M 794 531 
L 1825 531 
L 1825 4091 
L 703 3866 
L 703 4441 
L 1819 4666 
L 2450 4666 
L 2450 531 
L 3481 531 
L 3481 0 
L 794 0 
L 794 531 
z
" transform="scale(0.015625)"/>
       </defs>
       <use xlink:href="#DejaVuSans-31"/>
       <use xlink:href="#DejaVuSans-30" transform="translate(63.623047 0)"/>
      </g>
     </g>
    </g>
    <g id="xtick_7">
     <g id="line2d_7">
      <g>
       <use xlink:href="#mc0e436792e" x="370.350712" y="307.584" style="stroke: #000000; stroke-width: 0.8"/>
      </g>
     </g>
     <g id="text_7">
      <!-- 12 -->
      <g transform="translate(363.988212 322.182437) scale(0.1 -0.1)">
       <use xlink:href="#DejaVuSans-31"/>
       <use xlink:href="#DejaVuSans-32" transform="translate(63.623047 0)"/>
      </g>
     </g>
    </g>
   </g>
   <g id="matplotlib.axis_2">
    <g id="ytick_1">
     <g id="line2d_8">
      <defs>
       <path id="m1afc4abc4f" d="M 0 0 
L -3.5 0 
" style="stroke: #000000; stroke-width: 0.8"/>
      </defs>
      <g>
       <use xlink:href="#m1afc4abc4f" x="57.6" y="268.608" style="stroke: #000000; stroke-width: 0.8"/>
      </g>
     </g>
     <g id="text_8">
      <!-- 2 -->
      <g transform="translate(44.2375 272.407219) scale(0.1 -0.1)">
       <use xlink:href="#DejaVuSans-32"/>
      </g>
     </g>
    </g>
    <g id="ytick_2">
     <g id="line2d_9">
      <g>
       <use xlink:href="#m1afc4abc4f" x="57.6" y="214.848" style="stroke: #000000; stroke-width: 0.8"/>
      </g>
     </g>
     <g id="text_9">
      <!-- 4 -->
      <g transform="translate(44.2375 218.647219) scale(0.1 -0.1)">
       <use xlink:href="#DejaVuSans-34"/>
      </g>
     </g>
    </g>
    <g id="ytick_3">
     <g id="line2d_10">
      <g>
       <use xlink:href="#m1afc4abc4f" x="57.6" y="161.088" style="stroke: #000000; stroke-width: 0.8"/>
      </g>
     </g>
     <g id="text_10">
      <!-- 6 -->
      <g transform="translate(44.2375 164.887219) scale(0.1 -0.1)">
       <use xlink:href="#DejaVuSans-36"/>
      </g>
     </g>
    </g>
    <g id="ytick_4">
     <g id="line2d_11">
      <g>
       <use xlink:href="#m1afc4abc4f" x="57.6" y="107.328" style="stroke: #000000; stroke-width: 0.8"/>
      </g>
     </g>
     <g id="text_11">
      <!-- 8 -->
      <g transform="translate(44.2375 111.127219) scale(0.1 -0.1)">
       <use xlink:href="#DejaVuSans-38"/>
      </g>
     </g>
    </g>
    <g id="ytick_5">
     <g id="line2d_12">
      <g>
       <use xlink:href="#m1afc4abc4f" x="57.6" y="53.568" style="stroke: #000000; stroke-width: 0.8"/>
      </g>
     </g>
     <g id="text_12">
      <!-- 10 -->
      <g transform="translate(37.875 57.367219) scale(0.1 -0.1)">
       <use xlink:href="#DejaVuSans-31"/>
       <use xlink:href="#DejaVuSans-30" transform="translate(63.623047 0)"/>
      </g>
     </g>
    </g>
   </g>
   <g id="line2d_13">
    <path d="M 115.028241 295.488 
L 117.370878 295.488 
L 117.370878 268.608 
L 117.370878 268.608 
L 117.370878 241.728 
L 118.118528 241.728 
L 118.118528 214.848 
L 118.118528 214.848 
L 118.118528 187.968 
L 118.118528 187.968 
L 118.118528 161.088 
L 118.118528 161.088 
L 118.118528 134.208 
L 118.118528 134.208 
L 118.118528 107.328 
L 118.118528 107.328 
L 118.118528 80.448 
L 118.168371 80.448 
L 118.168371 53.568 
" clip-path="url(#p22f1369d04)" style="fill: none; stroke: #1f77b4; stroke-width: 1.5; stroke-linecap: square"/>
   </g>
   <g id="line2d_14">
    <path d="M 103.165528 295.488 
L 103.165528 295.488 
L 103.165528 268.608 
L 103.165528 268.608 
L 103.165528 241.728 
L 103.165528 241.728 
L 103.165528 214.848 
L 103.19045 214.848 
L 103.19045 187.968 
" clip-path="url(#p22f1369d04)" style="fill: none; stroke: #ff7f0e; stroke-width: 1.5; stroke-linecap: square"/>
   </g>
   <g id="line2d_15">
    <path d="M 398.038683 295.488 
L 398.138369 295.488 
L 398.138369 268.608 
L 398.163291 268.608 
L 398.163291 241.728 
L 398.362664 241.728 
L 398.362664 214.848 
L 398.362664 214.848 
L 398.362664 187.968 
L 398.412508 187.968 
L 398.412508 161.088 
L 398.437429 161.088 
L 398.437429 134.208 
L 398.487273 134.208 
L 398.487273 107.328 
L 398.487273 107.328 
L 398.487273 80.448 
L 398.487273 80.448 
L 398.487273 53.568 
" clip-path="url(#p22f1369d04)" style="fill: none; stroke: #2ca02c; stroke-width: 1.5; stroke-linecap: square"/>
   </g>
   <g id="line2d_16">
    <path d="M 210.702518 295.488 
L 216.957856 295.488 
L 216.957856 268.608 
L 229.817436 268.608 
L 229.817436 241.728 
L 236.272147 241.728 
L 236.272147 214.848 
L 242.677016 214.848 
L 242.677016 187.968 
L 249.156649 187.968 
L 249.156649 161.088 
L 255.46183 161.088 
L 255.46183 134.208 
L 261.866699 134.208 
L 261.866699 107.328 
L 268.271567 107.328 
L 268.271567 80.448 
L 274.726278 80.448 
L 274.726278 53.568 
" clip-path="url(#p22f1369d04)" style="fill: none; stroke: #d62728; stroke-width: 1.5; stroke-linecap: square"/>
   </g>
   <g id="line2d_17">
    <path d="M 311.410971 295.488 
L 311.410971 295.488 
L 311.410971 268.608 
L 311.410971 268.608 
L 311.410971 241.728 
L 311.435893 241.728 
L 311.435893 214.848 
L 311.435893 214.848 
L 311.435893 187.968 
L 311.435893 187.968 
L 311.435893 161.088 
L 311.435893 161.088 
L 311.435893 134.208 
L 311.485736 134.208 
L 311.485736 107.328 
L 311.485736 107.328 
L 311.485736 80.448 
L 311.485736 80.448 
L 311.485736 53.568 
" clip-path="url(#p22f1369d04)" style="fill: none; stroke: #9467bd; stroke-width: 1.5; stroke-linecap: square"/>
   </g>
   <g id="line2d_18">
    <path d="M 205.294516 295.488 
L 209.207218 295.488 
L 209.207218 268.608 
L 211.62462 268.608 
L 211.62462 241.728 
L 211.649541 241.728 
L 211.649541 214.848 
L 211.674463 214.848 
L 211.674463 187.968 
L 211.674463 187.968 
L 211.674463 161.088 
L 211.699385 161.088 
L 211.699385 134.208 
L 211.699385 134.208 
L 211.699385 107.328 
L 211.699385 107.328 
L 211.699385 80.448 
L 211.699385 80.448 
L 211.699385 53.568 
" clip-path="url(#p22f1369d04)" style="fill: none; stroke: #8c564b; stroke-width: 1.5; stroke-linecap: square"/>
   </g>
   <g id="line2d_19">
    <path d="M 73.832727 295.488 
L 76.748562 295.488 
L 76.748562 268.608 
L 77.346682 268.608 
L 77.346682 241.728 
L 77.346682 241.728 
L 77.346682 214.848 
L 77.371604 214.848 
L 77.371604 187.968 
L 77.371604 187.968 
L 77.371604 161.088 
L 77.371604 161.088 
L 77.371604 134.208 
L 77.371604 134.208 
L 77.371604 107.328 
L 77.371604 107.328 
L 77.371604 80.448 
L 77.396526 80.448 
L 77.396526 53.568 
" clip-path="url(#p22f1369d04)" style="fill: none; stroke: #e377c2; stroke-width: 1.5; stroke-linecap: square"/>
   </g>
   <g id="line2d_20">
    <path d="M 123.401921 295.488 
L 123.875433 295.488 
L 123.875433 268.608 
L 123.900355 268.608 
L 123.900355 241.728 
L 123.900355 241.728 
L 123.900355 214.848 
L 123.900355 214.848 
L 123.900355 187.968 
L 123.900355 187.968 
L 123.900355 161.088 
L 123.900355 161.088 
L 123.900355 134.208 
L 123.97512 134.208 
L 123.97512 107.328 
L 123.97512 107.328 
L 123.97512 80.448 
L 123.97512 80.448 
L 123.97512 53.568 
" clip-path="url(#p22f1369d04)" style="fill: none; stroke: #7f7f7f; stroke-width: 1.5; stroke-linecap: square"/>
   </g>
   <g id="line2d_21">
    <path d="M 258.726569 295.488 
L 259.548984 295.488 
L 259.548984 268.608 
L 263.83551 268.608 
L 263.83551 241.728 
L 263.83551 241.728 
L 263.83551 214.848 
L 264.408709 214.848 
L 264.408709 187.968 
L 264.533317 187.968 
L 264.533317 161.088 
L 264.533317 161.088 
L 264.533317 134.208 
L 266.003695 134.208 
L 266.003695 107.328 
L 266.003695 107.328 
L 266.003695 80.448 
L 266.003695 80.448 
L 266.003695 53.568 
" clip-path="url(#p22f1369d04)" style="fill: none; stroke: #bcbd22; stroke-width: 1.5; stroke-linecap: square"/>
   </g>
   <g id="line2d_22">
    <path d="M 79.489945 295.488 
L 79.489945 295.488 
L 79.489945 268.608 
L 79.514867 268.608 
L 79.514867 241.728 
L 79.514867 241.728 
L 79.514867 214.848 
L 79.539789 214.848 
L 79.539789 187.968 
" clip-path="url(#p22f1369d04)" style="fill: none; stroke: #17becf; stroke-width: 1.5; stroke-linecap: square"/>
   </g>
   <g id="patch_3">
    <path d="M 57.6 307.584 
L 57.6 41.472 
" style="fill: none; stroke: #000000; stroke-width: 0.8; stroke-linejoin: miter; stroke-linecap: square"/>
   </g>
   <g id="patch_4">
    <path d="M 414.72 307.584 
L 414.72 41.472 
" style="fill: none; stroke: #000000; stroke-width: 0.8; stroke-linejoin: miter; stroke-linecap: square"/>
   </g>
   <g id="patch_5">
    <path d="M 57.6 307.584 
L 414.72 307.584 
" style="fill: none; stroke: #000000; stroke-width: 0.8; stroke-linejoin: miter; stroke-linecap: square"/>
   </g>
   <g id="patch_6">
    <path d="M 57.6 41.472 
L 414.72 41.472 
" style="fill: none; stroke: #000000; stroke-width: 0.8; stroke-linejoin: miter; stroke-linecap: square"/>
   </g>
   <g id="text_13">
    <!-- interactive discover 8.2 -->
    <g transform="translate(165.304688 35.472) scale(0.12 -0.12)">
     <defs>
      <path id="DejaVuSans-69" d="M 603 3500 
L 1178 3500 
L 1178 0 
L 603 0 
L 603 3500 
z
M 603 4863 
L 1178 4863 
L 1178 4134 
L 603 4134 
L 603 4863 
z
" transform="scale(0.015625)"/>
      <path id="DejaVuSans-6e" d="M 3513 2113 
L 3513 0 
L 2938 0 
L 2938 2094 
Q 2938 2591 2744 2837 
Q 2550 3084 2163 3084 
Q 1697 3084 1428 2787 
Q 1159 2491 1159 1978 
L 1159 0 
L 581 0 
L 581 3500 
L 1159 3500 
L 1159 2956 
Q 1366 3272 1645 3428 
Q 1925 3584 2291 3584 
Q 2894 3584 3203 3211 
Q 3513 2838 3513 2113 
z
" transform="scale(0.015625)"/>
      <path id="DejaVuSans-74" d="M 1172 4494 
L 1172 3500 
L 2356 3500 
L 2356 3053 
L 1172 3053 
L 1172 1153 
Q 1172 725 1289 603 
Q 1406 481 1766 481 
L 2356 481 
L 2356 0 
L 1766 0 
Q 1100 0 847 248 
Q 594 497 594 1153 
L 594 3053 
L 172 3053 
L 172 3500 
L 594 3500 
L 594 4494 
L 1172 4494 
z
" transform="scale(0.015625)"/>
      <path id="DejaVuSans-65" d="M 3597 1894 
L 3597 1613 
L 953 1613 
Q 991 1019 1311 708 
Q 1631 397 2203 397 
Q 2534 397 2845 478 
Q 3156 559 3463 722 
L 3463 178 
Q 3153 47 2828 -22 
Q 2503 -91 2169 -91 
Q 1331 -91 842 396 
Q 353 884 353 1716 
Q 353 2575 817 3079 
Q 1281 3584 2069 3584 
Q 2775 3584 3186 3129 
Q 3597 2675 3597 1894 
z
M 3022 2063 
Q 3016 2534 2758 2815 
Q 2500 3097 2075 3097 
Q 1594 3097 1305 2825 
Q 1016 2553 972 2059 
L 3022 2063 
z
" transform="scale(0.015625)"/>
      <path id="DejaVuSans-72" d="M 2631 2963 
Q 2534 3019 2420 3045 
Q 2306 3072 2169 3072 
Q 1681 3072 1420 2755 
Q 1159 2438 1159 1844 
L 1159 0 
L 581 0 
L 581 3500 
L 1159 3500 
L 1159 2956 
Q 1341 3275 1631 3429 
Q 1922 3584 2338 3584 
Q 2397 3584 2469 3576 
Q 2541 3569 2628 3553 
L 2631 2963 
z
" transform="scale(0.015625)"/>
      <path id="DejaVuSans-61" d="M 2194 1759 
Q 1497 1759 1228 1600 
Q 959 1441 959 1056 
Q 959 750 1161 570 
Q 1363 391 1709 391 
Q 2188 391 2477 730 
Q 2766 1069 2766 1631 
L 2766 1759 
L 2194 1759 
z
M 3341 1997 
L 3341 0 
L 2766 0 
L 2766 531 
Q 2569 213 2275 61 
Q 1981 -91 1556 -91 
Q 1019 -91 701 211 
Q 384 513 384 1019 
Q 384 1609 779 1909 
Q 1175 2209 1959 2209 
L 2766 2209 
L 2766 2266 
Q 2766 2663 2505 2880 
Q 2244 3097 1772 3097 
Q 1472 3097 1187 3025 
Q 903 2953 641 2809 
L 641 3341 
Q 956 3463 1253 3523 
Q 1550 3584 1831 3584 
Q 2591 3584 2966 3190 
Q 3341 2797 3341 1997 
z
" transform="scale(0.015625)"/>
      <path id="DejaVuSans-63" d="M 3122 3366 
L 3122 2828 
Q 2878 2963 2633 3030 
Q 2388 3097 2138 3097 
Q 1578 3097 1268 2742 
Q 959 2388 959 1747 
Q 959 1106 1268 751 
Q 1578 397 2138 397 
Q 2388 397 2633 464 
Q 2878 531 3122 666 
L 3122 134 
Q 2881 22 2623 -34 
Q 2366 -91 2075 -91 
Q 1284 -91 818 406 
Q 353 903 353 1747 
Q 353 2603 823 3093 
Q 1294 3584 2113 3584 
Q 2378 3584 2631 3529 
Q 2884 3475 3122 3366 
z
" transform="scale(0.015625)"/>
      <path id="DejaVuSans-76" d="M 191 3500 
L 800 3500 
L 1894 563 
L 2988 3500 
L 3597 3500 
L 2284 0 
L 1503 0 
L 191 3500 
z
" transform="scale(0.015625)"/>
      <path id="DejaVuSans-20" transform="scale(0.015625)"/>
      <path id="DejaVuSans-64" d="M 2906 2969 
L 2906 4863 
L 3481 4863 
L 3481 0 
L 2906 0 
L 2906 525 
Q 2725 213 2448 61 
Q 2172 -91 1784 -91 
Q 1150 -91 751 415 
Q 353 922 353 1747 
Q 353 2572 751 3078 
Q 1150 3584 1784 3584 
Q 2172 3584 2448 3432 
Q 2725 3281 2906 2969 
z
M 947 1747 
Q 947 1113 1208 752 
Q 1469 391 1925 391 
Q 2381 391 2643 752 
Q 2906 1113 2906 1747 
Q 2906 2381 2643 2742 
Q 2381 3103 1925 3103 
Q 1469 3103 1208 2742 
Q 947 2381 947 1747 
z
" transform="scale(0.015625)"/>
      <path id="DejaVuSans-73" d="M 2834 3397 
L 2834 2853 
Q 2591 2978 2328 3040 
Q 2066 3103 1784 3103 
Q 1356 3103 1142 2972 
Q 928 2841 928 2578 
Q 928 2378 1081 2264 
Q 1234 2150 1697 2047 
L 1894 2003 
Q 2506 1872 2764 1633 
Q 3022 1394 3022 966 
Q 3022 478 2636 193 
Q 2250 -91 1575 -91 
Q 1294 -91 989 -36 
Q 684 19 347 128 
L 347 722 
Q 666 556 975 473 
Q 1284 391 1588 391 
Q 1994 391 2212 530 
Q 2431 669 2431 922 
Q 2431 1156 2273 1281 
Q 2116 1406 1581 1522 
L 1381 1569 
Q 847 1681 609 1914 
Q 372 2147 372 2553 
Q 372 3047 722 3315 
Q 1072 3584 1716 3584 
Q 2034 3584 2315 3537 
Q 2597 3491 2834 3397 
z
" transform="scale(0.015625)"/>
      <path id="DejaVuSans-6f" d="M 1959 3097 
Q 1497 3097 1228 2736 
Q 959 2375 959 1747 
Q 959 1119 1226 758 
Q 1494 397 1959 397 
Q 2419 397 2687 759 
Q 2956 1122 2956 1747 
Q 2956 2369 2687 2733 
Q 2419 3097 1959 3097 
z
M 1959 3584 
Q 2709 3584 3137 3096 
Q 3566 2609 3566 1747 
Q 3566 888 3137 398 
Q 2709 -91 1959 -91 
Q 1206 -91 779 398 
Q 353 888 353 1747 
Q 353 2609 779 3096 
Q 1206 3584 1959 3584 
z
" transform="scale(0.015625)"/>
      <path id="DejaVuSans-2e" d="M 684 794 
L 1344 794 
L 1344 0 
L 684 0 
L 684 794 
z
" transform="scale(0.015625)"/>
     </defs>
     <use xlink:href="#DejaVuSans-69"/>
     <use xlink:href="#DejaVuSans-6e" transform="translate(27.783203 0)"/>
     <use xlink:href="#DejaVuSans-74" transform="translate(91.162109 0)"/>
     <use xlink:href="#DejaVuSans-65" transform="translate(130.371094 0)"/>
     <use xlink:href="#DejaVuSans-72" transform="translate(191.894531 0)"/>
     <use xlink:href="#DejaVuSans-61" transform="translate(233.007812 0)"/>
     <use xlink:href="#DejaVuSans-63" transform="translate(294.287109 0)"/>
     <use xlink:href="#DejaVuSans-74" transform="translate(349.267578 0)"/>
     <use xlink:href="#DejaVuSans-69" transform="translate(388.476562 0)"/>
     <use xlink:href="#DejaVuSans-76" transform="translate(416.259766 0)"/>
     <use xlink:href="#DejaVuSans-65" transform="translate(475.439453 0)"/>
     <use xlink:href="#DejaVuSans-20" transform="translate(536.962891 0)"/>
     <use xlink:href="#DejaVuSans-64" transform="translate(568.75 0)"/>
     <use xlink:href="#DejaVuSans-69" transform="translate(632.226562 0)"/>
     <use xlink:href="#DejaVuSans-73" transform="translate(660.009766 0)"/>
     <use xlink:href="#DejaVuSans-63" transform="translate(712.109375 0)"/>
     <use xlink:href="#DejaVuSans-6f" transform="translate(767.089844 0)"/>
     <use xlink:href="#DejaVuSans-76" transform="translate(828.271484 0)"/>
     <use xlink:href="#DejaVuSans-65" transform="translate(887.451172 0)"/>
     <use xlink:href="#DejaVuSans-72" transform="translate(948.974609 0)"/>
     <use xlink:href="#DejaVuSans-20" transform="translate(990.087891 0)"/>
     <use xlink:href="#DejaVuSans-38" transform="translate(1021.875 0)"/>
     <use xlink:href="#DejaVuSans-2e" transform="translate(1085.498047 0)"/>
     <use xlink:href="#DejaVuSans-32" transform="translate(1117.285156 0)"/>
    </g>
   </g>
   <g id="legend_1">
    <g id="patch_7">
     <path d="M 274.271563 302.584 
L 407.72 302.584 
Q 409.72 302.584 409.72 300.584 
L 409.72 154.80275 
Q 409.72 152.80275 407.72 152.80275 
L 274.271563 152.80275 
Q 272.271563 152.80275 272.271563 154.80275 
L 272.271563 300.584 
Q 272.271563 302.584 274.271563 302.584 
z
" style="fill: #ffffff; opacity: 0.8; stroke: #cccccc; stroke-linejoin: miter"/>
    </g>
    <g id="line2d_23">
     <path d="M 276.271563 160.901187 
L 286.271563 160.901187 
L 286.271563 160.901187 
L 296.271563 160.901187 
L 296.271563 160.901187 
" style="fill: none; stroke: #1f77b4; stroke-width: 1.5; stroke-linecap: square"/>
    </g>
    <g id="text_14">
     <!-- baseline -->
     <g transform="translate(304.271563 164.401187) scale(0.1 -0.1)">
      <defs>
       <path id="DejaVuSans-62" d="M 3116 1747 
Q 3116 2381 2855 2742 
Q 2594 3103 2138 3103 
Q 1681 3103 1420 2742 
Q 1159 2381 1159 1747 
Q 1159 1113 1420 752 
Q 1681 391 2138 391 
Q 2594 391 2855 752 
Q 3116 1113 3116 1747 
z
M 1159 2969 
Q 1341 3281 1617 3432 
Q 1894 3584 2278 3584 
Q 2916 3584 3314 3078 
Q 3713 2572 3713 1747 
Q 3713 922 3314 415 
Q 2916 -91 2278 -91 
Q 1894 -91 1617 61 
Q 1341 213 1159 525 
L 1159 0 
L 581 0 
L 581 4863 
L 1159 4863 
L 1159 2969 
z
" transform="scale(0.015625)"/>
       <path id="DejaVuSans-6c" d="M 603 4863 
L 1178 4863 
L 1178 0 
L 603 0 
L 603 4863 
z
" transform="scale(0.015625)"/>
      </defs>
      <use xlink:href="#DejaVuSans-62"/>
      <use xlink:href="#DejaVuSans-61" transform="translate(63.476562 0)"/>
      <use xlink:href="#DejaVuSans-73" transform="translate(124.755859 0)"/>
      <use xlink:href="#DejaVuSans-65" transform="translate(176.855469 0)"/>
      <use xlink:href="#DejaVuSans-6c" transform="translate(238.378906 0)"/>
      <use xlink:href="#DejaVuSans-69" transform="translate(266.162109 0)"/>
      <use xlink:href="#DejaVuSans-6e" transform="translate(293.945312 0)"/>
      <use xlink:href="#DejaVuSans-65" transform="translate(357.324219 0)"/>
     </g>
    </g>
    <g id="line2d_24">
     <path d="M 276.271563 175.579313 
L 286.271563 175.579313 
L 286.271563 175.579313 
L 296.271563 175.579313 
L 296.271563 175.579313 
" style="fill: none; stroke: #ff7f0e; stroke-width: 1.5; stroke-linecap: square"/>
    </g>
    <g id="text_15">
     <!-- overhead -->
     <g transform="translate(304.271563 179.079313) scale(0.1 -0.1)">
      <defs>
       <path id="DejaVuSans-68" d="M 3513 2113 
L 3513 0 
L 2938 0 
L 2938 2094 
Q 2938 2591 2744 2837 
Q 2550 3084 2163 3084 
Q 1697 3084 1428 2787 
Q 1159 2491 1159 1978 
L 1159 0 
L 581 0 
L 581 4863 
L 1159 4863 
L 1159 2956 
Q 1366 3272 1645 3428 
Q 1925 3584 2291 3584 
Q 2894 3584 3203 3211 
Q 3513 2838 3513 2113 
z
" transform="scale(0.015625)"/>
      </defs>
      <use xlink:href="#DejaVuSans-6f"/>
      <use xlink:href="#DejaVuSans-76" transform="translate(61.181641 0)"/>
      <use xlink:href="#DejaVuSans-65" transform="translate(120.361328 0)"/>
      <use xlink:href="#DejaVuSans-72" transform="translate(181.884766 0)"/>
      <use xlink:href="#DejaVuSans-68" transform="translate(221.248047 0)"/>
      <use xlink:href="#DejaVuSans-65" transform="translate(284.626953 0)"/>
      <use xlink:href="#DejaVuSans-61" transform="translate(346.150391 0)"/>
      <use xlink:href="#DejaVuSans-64" transform="translate(407.429688 0)"/>
     </g>
    </g>
    <g id="line2d_25">
     <path d="M 276.271563 190.257438 
L 286.271563 190.257438 
L 286.271563 190.257438 
L 296.271563 190.257438 
L 296.271563 190.257438 
" style="fill: none; stroke: #2ca02c; stroke-width: 1.5; stroke-linecap: square"/>
    </g>
    <g id="text_16">
     <!-- interval-100-once -->
     <g transform="translate(304.271563 193.757438) scale(0.1 -0.1)">
      <defs>
       <path id="DejaVuSans-2d" d="M 313 2009 
L 1997 2009 
L 1997 1497 
L 313 1497 
L 313 2009 
z
" transform="scale(0.015625)"/>
      </defs>
      <use xlink:href="#DejaVuSans-69"/>
      <use xlink:href="#DejaVuSans-6e" transform="translate(27.783203 0)"/>
      <use xlink:href="#DejaVuSans-74" transform="translate(91.162109 0)"/>
      <use xlink:href="#DejaVuSans-65" transform="translate(130.371094 0)"/>
      <use xlink:href="#DejaVuSans-72" transform="translate(191.894531 0)"/>
      <use xlink:href="#DejaVuSans-76" transform="translate(233.007812 0)"/>
      <use xlink:href="#DejaVuSans-61" transform="translate(292.1875 0)"/>
      <use xlink:href="#DejaVuSans-6c" transform="translate(353.466797 0)"/>
      <use xlink:href="#DejaVuSans-2d" transform="translate(381.25 0)"/>
      <use xlink:href="#DejaVuSans-31" transform="translate(417.333984 0)"/>
      <use xlink:href="#DejaVuSans-30" transform="translate(480.957031 0)"/>
      <use xlink:href="#DejaVuSans-30" transform="translate(544.580078 0)"/>
      <use xlink:href="#DejaVuSans-2d" transform="translate(608.203125 0)"/>
      <use xlink:href="#DejaVuSans-6f" transform="translate(646.162109 0)"/>
      <use xlink:href="#DejaVuSans-6e" transform="translate(707.34375 0)"/>
      <use xlink:href="#DejaVuSans-63" transform="translate(770.722656 0)"/>
      <use xlink:href="#DejaVuSans-65" transform="translate(825.703125 0)"/>
     </g>
    </g>
    <g id="line2d_26">
     <path d="M 276.271563 204.935563 
L 286.271563 204.935563 
L 286.271563 204.935563 
L 296.271563 204.935563 
L 296.271563 204.935563 
" style="fill: none; stroke: #d62728; stroke-width: 1.5; stroke-linecap: square"/>
    </g>
    <g id="text_17">
     <!-- interval-1000-once -->
     <g transform="translate(304.271563 208.435563) scale(0.1 -0.1)">
      <use xlink:href="#DejaVuSans-69"/>
      <use xlink:href="#DejaVuSans-6e" transform="translate(27.783203 0)"/>
      <use xlink:href="#DejaVuSans-74" transform="translate(91.162109 0)"/>
      <use xlink:href="#DejaVuSans-65" transform="translate(130.371094 0)"/>
      <use xlink:href="#DejaVuSans-72" transform="translate(191.894531 0)"/>
      <use xlink:href="#DejaVuSans-76" transform="translate(233.007812 0)"/>
      <use xlink:href="#DejaVuSans-61" transform="translate(292.1875 0)"/>
      <use xlink:href="#DejaVuSans-6c" transform="translate(353.466797 0)"/>
      <use xlink:href="#DejaVuSans-2d" transform="translate(381.25 0)"/>
      <use xlink:href="#DejaVuSans-31" transform="translate(417.333984 0)"/>
      <use xlink:href="#DejaVuSans-30" transform="translate(480.957031 0)"/>
      <use xlink:href="#DejaVuSans-30" transform="translate(544.580078 0)"/>
      <use xlink:href="#DejaVuSans-30" transform="translate(608.203125 0)"/>
      <use xlink:href="#DejaVuSans-2d" transform="translate(671.826172 0)"/>
      <use xlink:href="#DejaVuSans-6f" transform="translate(709.785156 0)"/>
      <use xlink:href="#DejaVuSans-6e" transform="translate(770.966797 0)"/>
      <use xlink:href="#DejaVuSans-63" transform="translate(834.345703 0)"/>
      <use xlink:href="#DejaVuSans-65" transform="translate(889.326172 0)"/>
     </g>
    </g>
    <g id="line2d_27">
     <path d="M 276.271563 219.613688 
L 286.271563 219.613688 
L 286.271563 219.613688 
L 296.271563 219.613688 
L 296.271563 219.613688 
" style="fill: none; stroke: #9467bd; stroke-width: 1.5; stroke-linecap: square"/>
    </g>
    <g id="text_18">
     <!-- interval-10000-once -->
     <g transform="translate(304.271563 223.113688) scale(0.1 -0.1)">
      <use xlink:href="#DejaVuSans-69"/>
      <use xlink:href="#DejaVuSans-6e" transform="translate(27.783203 0)"/>
      <use xlink:href="#DejaVuSans-74" transform="translate(91.162109 0)"/>
      <use xlink:href="#DejaVuSans-65" transform="translate(130.371094 0)"/>
      <use xlink:href="#DejaVuSans-72" transform="translate(191.894531 0)"/>
      <use xlink:href="#DejaVuSans-76" transform="translate(233.007812 0)"/>
      <use xlink:href="#DejaVuSans-61" transform="translate(292.1875 0)"/>
      <use xlink:href="#DejaVuSans-6c" transform="translate(353.466797 0)"/>
      <use xlink:href="#DejaVuSans-2d" transform="translate(381.25 0)"/>
      <use xlink:href="#DejaVuSans-31" transform="translate(417.333984 0)"/>
      <use xlink:href="#DejaVuSans-30" transform="translate(480.957031 0)"/>
      <use xlink:href="#DejaVuSans-30" transform="translate(544.580078 0)"/>
      <use xlink:href="#DejaVuSans-30" transform="translate(608.203125 0)"/>
      <use xlink:href="#DejaVuSans-30" transform="translate(671.826172 0)"/>
      <use xlink:href="#DejaVuSans-2d" transform="translate(735.449219 0)"/>
      <use xlink:href="#DejaVuSans-6f" transform="translate(773.408203 0)"/>
      <use xlink:href="#DejaVuSans-6e" transform="translate(834.589844 0)"/>
      <use xlink:href="#DejaVuSans-63" transform="translate(897.96875 0)"/>
      <use xlink:href="#DejaVuSans-65" transform="translate(952.949219 0)"/>
     </g>
    </g>
    <g id="line2d_28">
     <path d="M 276.271563 234.291812 
L 286.271563 234.291812 
L 286.271563 234.291812 
L 296.271563 234.291812 
L 296.271563 234.291812 
" style="fill: none; stroke: #8c564b; stroke-width: 1.5; stroke-linecap: square"/>
    </g>
    <g id="text_19">
     <!-- interval-2000-once -->
     <g transform="translate(304.271563 237.791812) scale(0.1 -0.1)">
      <use xlink:href="#DejaVuSans-69"/>
      <use xlink:href="#DejaVuSans-6e" transform="translate(27.783203 0)"/>
      <use xlink:href="#DejaVuSans-74" transform="translate(91.162109 0)"/>
      <use xlink:href="#DejaVuSans-65" transform="translate(130.371094 0)"/>
      <use xlink:href="#DejaVuSans-72" transform="translate(191.894531 0)"/>
      <use xlink:href="#DejaVuSans-76" transform="translate(233.007812 0)"/>
      <use xlink:href="#DejaVuSans-61" transform="translate(292.1875 0)"/>
      <use xlink:href="#DejaVuSans-6c" transform="translate(353.466797 0)"/>
      <use xlink:href="#DejaVuSans-2d" transform="translate(381.25 0)"/>
      <use xlink:href="#DejaVuSans-32" transform="translate(417.333984 0)"/>
      <use xlink:href="#DejaVuSans-30" transform="translate(480.957031 0)"/>
      <use xlink:href="#DejaVuSans-30" transform="translate(544.580078 0)"/>
      <use xlink:href="#DejaVuSans-30" transform="translate(608.203125 0)"/>
      <use xlink:href="#DejaVuSans-2d" transform="translate(671.826172 0)"/>
      <use xlink:href="#DejaVuSans-6f" transform="translate(709.785156 0)"/>
      <use xlink:href="#DejaVuSans-6e" transform="translate(770.966797 0)"/>
      <use xlink:href="#DejaVuSans-63" transform="translate(834.345703 0)"/>
      <use xlink:href="#DejaVuSans-65" transform="translate(889.326172 0)"/>
     </g>
    </g>
    <g id="line2d_29">
     <path d="M 276.271563 248.969938 
L 286.271563 248.969938 
L 286.271563 248.969938 
L 296.271563 248.969938 
L 296.271563 248.969938 
" style="fill: none; stroke: #e377c2; stroke-width: 1.5; stroke-linecap: square"/>
    </g>
    <g id="text_20">
     <!-- interval-20000-once -->
     <g transform="translate(304.271563 252.469938) scale(0.1 -0.1)">
      <use xlink:href="#DejaVuSans-69"/>
      <use xlink:href="#DejaVuSans-6e" transform="translate(27.783203 0)"/>
      <use xlink:href="#DejaVuSans-74" transform="translate(91.162109 0)"/>
      <use xlink:href="#DejaVuSans-65" transform="translate(130.371094 0)"/>
      <use xlink:href="#DejaVuSans-72" transform="translate(191.894531 0)"/>
      <use xlink:href="#DejaVuSans-76" transform="translate(233.007812 0)"/>
      <use xlink:href="#DejaVuSans-61" transform="translate(292.1875 0)"/>
      <use xlink:href="#DejaVuSans-6c" transform="translate(353.466797 0)"/>
      <use xlink:href="#DejaVuSans-2d" transform="translate(381.25 0)"/>
      <use xlink:href="#DejaVuSans-32" transform="translate(417.333984 0)"/>
      <use xlink:href="#DejaVuSans-30" transform="translate(480.957031 0)"/>
      <use xlink:href="#DejaVuSans-30" transform="translate(544.580078 0)"/>
      <use xlink:href="#DejaVuSans-30" transform="translate(608.203125 0)"/>
      <use xlink:href="#DejaVuSans-30" transform="translate(671.826172 0)"/>
      <use xlink:href="#DejaVuSans-2d" transform="translate(735.449219 0)"/>
      <use xlink:href="#DejaVuSans-6f" transform="translate(773.408203 0)"/>
      <use xlink:href="#DejaVuSans-6e" transform="translate(834.589844 0)"/>
      <use xlink:href="#DejaVuSans-63" transform="translate(897.96875 0)"/>
      <use xlink:href="#DejaVuSans-65" transform="translate(952.949219 0)"/>
     </g>
    </g>
    <g id="line2d_30">
     <path d="M 276.271563 263.648062 
L 286.271563 263.648062 
L 286.271563 263.648062 
L 296.271563 263.648062 
L 296.271563 263.648062 
" style="fill: none; stroke: #7f7f7f; stroke-width: 1.5; stroke-linecap: square"/>
    </g>
    <g id="text_21">
     <!-- interval-5000-once -->
     <g transform="translate(304.271563 267.148062) scale(0.1 -0.1)">
      <defs>
       <path id="DejaVuSans-35" d="M 691 4666 
L 3169 4666 
L 3169 4134 
L 1269 4134 
L 1269 2991 
Q 1406 3038 1543 3061 
Q 1681 3084 1819 3084 
Q 2600 3084 3056 2656 
Q 3513 2228 3513 1497 
Q 3513 744 3044 326 
Q 2575 -91 1722 -91 
Q 1428 -91 1123 -41 
Q 819 9 494 109 
L 494 744 
Q 775 591 1075 516 
Q 1375 441 1709 441 
Q 2250 441 2565 725 
Q 2881 1009 2881 1497 
Q 2881 1984 2565 2268 
Q 2250 2553 1709 2553 
Q 1456 2553 1204 2497 
Q 953 2441 691 2322 
L 691 4666 
z
" transform="scale(0.015625)"/>
      </defs>
      <use xlink:href="#DejaVuSans-69"/>
      <use xlink:href="#DejaVuSans-6e" transform="translate(27.783203 0)"/>
      <use xlink:href="#DejaVuSans-74" transform="translate(91.162109 0)"/>
      <use xlink:href="#DejaVuSans-65" transform="translate(130.371094 0)"/>
      <use xlink:href="#DejaVuSans-72" transform="translate(191.894531 0)"/>
      <use xlink:href="#DejaVuSans-76" transform="translate(233.007812 0)"/>
      <use xlink:href="#DejaVuSans-61" transform="translate(292.1875 0)"/>
      <use xlink:href="#DejaVuSans-6c" transform="translate(353.466797 0)"/>
      <use xlink:href="#DejaVuSans-2d" transform="translate(381.25 0)"/>
      <use xlink:href="#DejaVuSans-35" transform="translate(417.333984 0)"/>
      <use xlink:href="#DejaVuSans-30" transform="translate(480.957031 0)"/>
      <use xlink:href="#DejaVuSans-30" transform="translate(544.580078 0)"/>
      <use xlink:href="#DejaVuSans-30" transform="translate(608.203125 0)"/>
      <use xlink:href="#DejaVuSans-2d" transform="translate(671.826172 0)"/>
      <use xlink:href="#DejaVuSans-6f" transform="translate(709.785156 0)"/>
      <use xlink:href="#DejaVuSans-6e" transform="translate(770.966797 0)"/>
      <use xlink:href="#DejaVuSans-63" transform="translate(834.345703 0)"/>
      <use xlink:href="#DejaVuSans-65" transform="translate(889.326172 0)"/>
     </g>
    </g>
    <g id="line2d_31">
     <path d="M 276.271563 278.326188 
L 286.271563 278.326188 
L 286.271563 278.326188 
L 296.271563 278.326188 
L 296.271563 278.326188 
" style="fill: none; stroke: #bcbd22; stroke-width: 1.5; stroke-linecap: square"/>
    </g>
    <g id="text_22">
     <!-- metadata-once -->
     <g transform="translate(304.271563 281.826188) scale(0.1 -0.1)">
      <defs>
       <path id="DejaVuSans-6d" d="M 3328 2828 
Q 3544 3216 3844 3400 
Q 4144 3584 4550 3584 
Q 5097 3584 5394 3201 
Q 5691 2819 5691 2113 
L 5691 0 
L 5113 0 
L 5113 2094 
Q 5113 2597 4934 2840 
Q 4756 3084 4391 3084 
Q 3944 3084 3684 2787 
Q 3425 2491 3425 1978 
L 3425 0 
L 2847 0 
L 2847 2094 
Q 2847 2600 2669 2842 
Q 2491 3084 2119 3084 
Q 1678 3084 1418 2786 
Q 1159 2488 1159 1978 
L 1159 0 
L 581 0 
L 581 3500 
L 1159 3500 
L 1159 2956 
Q 1356 3278 1631 3431 
Q 1906 3584 2284 3584 
Q 2666 3584 2933 3390 
Q 3200 3197 3328 2828 
z
" transform="scale(0.015625)"/>
      </defs>
      <use xlink:href="#DejaVuSans-6d"/>
      <use xlink:href="#DejaVuSans-65" transform="translate(97.412109 0)"/>
      <use xlink:href="#DejaVuSans-74" transform="translate(158.935547 0)"/>
      <use xlink:href="#DejaVuSans-61" transform="translate(198.144531 0)"/>
      <use xlink:href="#DejaVuSans-64" transform="translate(259.423828 0)"/>
      <use xlink:href="#DejaVuSans-61" transform="translate(322.900391 0)"/>
      <use xlink:href="#DejaVuSans-74" transform="translate(384.179688 0)"/>
      <use xlink:href="#DejaVuSans-61" transform="translate(423.388672 0)"/>
      <use xlink:href="#DejaVuSans-2d" transform="translate(484.667969 0)"/>
      <use xlink:href="#DejaVuSans-6f" transform="translate(522.626953 0)"/>
      <use xlink:href="#DejaVuSans-6e" transform="translate(583.808594 0)"/>
      <use xlink:href="#DejaVuSans-63" transform="translate(647.1875 0)"/>
      <use xlink:href="#DejaVuSans-65" transform="translate(702.167969 0)"/>
     </g>
    </g>
    <g id="line2d_32">
     <path d="M 276.271563 293.004312 
L 286.271563 293.004312 
L 286.271563 293.004312 
L 296.271563 293.004312 
L 296.271563 293.004312 
" style="fill: none; stroke: #17becf; stroke-width: 1.5; stroke-linecap: square"/>
    </g>
    <g id="text_23">
     <!-- metadata-unlimited -->
     <g transform="translate(304.271563 296.504312) scale(0.1 -0.1)">
      <defs>
       <path id="DejaVuSans-75" d="M 544 1381 
L 544 3500 
L 1119 3500 
L 1119 1403 
Q 1119 906 1312 657 
Q 1506 409 1894 409 
Q 2359 409 2629 706 
Q 2900 1003 2900 1516 
L 2900 3500 
L 3475 3500 
L 3475 0 
L 2900 0 
L 2900 538 
Q 2691 219 2414 64 
Q 2138 -91 1772 -91 
Q 1169 -91 856 284 
Q 544 659 544 1381 
z
M 1991 3584 
L 1991 3584 
z
" transform="scale(0.015625)"/>
      </defs>
      <use xlink:href="#DejaVuSans-6d"/>
      <use xlink:href="#DejaVuSans-65" transform="translate(97.412109 0)"/>
      <use xlink:href="#DejaVuSans-74" transform="translate(158.935547 0)"/>
      <use xlink:href="#DejaVuSans-61" transform="translate(198.144531 0)"/>
      <use xlink:href="#DejaVuSans-64" transform="translate(259.423828 0)"/>
      <use xlink:href="#DejaVuSans-61" transform="translate(322.900391 0)"/>
      <use xlink:href="#DejaVuSans-74" transform="translate(384.179688 0)"/>
      <use xlink:href="#DejaVuSans-61" transform="translate(423.388672 0)"/>
      <use xlink:href="#DejaVuSans-2d" transform="translate(484.667969 0)"/>
      <use xlink:href="#DejaVuSans-75" transform="translate(520.751953 0)"/>
      <use xlink:href="#DejaVuSans-6e" transform="translate(584.130859 0)"/>
      <use xlink:href="#DejaVuSans-6c" transform="translate(647.509766 0)"/>
      <use xlink:href="#DejaVuSans-69" transform="translate(675.292969 0)"/>
      <use xlink:href="#DejaVuSans-6d" transform="translate(703.076172 0)"/>
      <use xlink:href="#DejaVuSans-69" transform="translate(800.488281 0)"/>
      <use xlink:href="#DejaVuSans-74" transform="translate(828.271484 0)"/>
      <use xlink:href="#DejaVuSans-65" transform="translate(867.480469 0)"/>
      <use xlink:href="#DejaVuSans-64" transform="translate(929.003906 0)"/>
     </g>
    </g>
   </g>
  </g>
 </g>
 <defs>
  <clipPath id="p22f1369d04">
   <rect x="57.6" y="41.472" width="357.12" height="266.112"/>
  </clipPath>
 </defs>
</svg>
