<?xml version="1.0" encoding="utf-8" standalone="no"?>
<!DOCTYPE svg PUBLIC "-//W3C//DTD SVG 1.1//EN"
  "http://www.w3.org/Graphics/SVG/1.1/DTD/svg11.dtd">
<svg xmlns:xlink="http://www.w3.org/1999/xlink" width="460.8pt" height="345.6pt" viewBox="0 0 460.8 345.6" xmlns="http://www.w3.org/2000/svg" version="1.1">
 <metadata>
  <rdf:RDF xmlns:dc="http://purl.org/dc/elements/1.1/" xmlns:cc="http://creativecommons.org/ns#" xmlns:rdf="http://www.w3.org/1999/02/22-rdf-syntax-ns#">
   <cc:Work>
    <dc:type rdf:resource="http://purl.org/dc/dcmitype/StillImage"/>
    <dc:date>2025-05-01T19:10:29.183511</dc:date>
    <dc:format>image/svg+xml</dc:format>
    <dc:creator>
     <cc:Agent>
      <dc:title>Matplotlib v3.10.1, https://matplotlib.org/</dc:title>
     </cc:Agent>
    </dc:creator>
   </cc:Work>
  </rdf:RDF>
 </metadata>
 <defs>
  <style type="text/css">*{stroke-linejoin: round; stroke-linecap: butt}</style>
 </defs>
 <g id="figure_1">
  <g id="patch_1">
   <path d="M 0 345.6 
L 460.8 345.6 
L 460.8 0 
L 0 0 
z
" style="fill: #ffffff"/>
  </g>
  <g id="axes_1">
   <g id="patch_2">
    <path d="M 57.6 307.584 
L 414.72 307.584 
L 414.72 41.472 
L 57.6 41.472 
z
" style="fill: #ffffff"/>
   </g>
   <g id="matplotlib.axis_1">
    <g id="xtick_1">
     <g id="line2d_1">
      <defs>
       <path id="m4e18ded76f" d="M 0 0 
L 0 3.5 
" style="stroke: #000000; stroke-width: 0.8"/>
      </defs>
      <g>
       <use xlink:href="#m4e18ded76f" x="77.790752" y="307.584" style="stroke: #000000; stroke-width: 0.8"/>
      </g>
     </g>
     <g id="text_1">
      <!-- 0.5 -->
      <g transform="translate(69.839189 322.182437) scale(0.1 -0.1)">
       <defs>
        <path id="DejaVuSans-30" d="M 2034 4250 
Q 1547 4250 1301 3770 
Q 1056 3291 1056 2328 
Q 1056 1369 1301 889 
Q 1547 409 2034 409 
Q 2525 409 2770 889 
Q 3016 1369 3016 2328 
Q 3016 3291 2770 3770 
Q 2525 4250 2034 4250 
z
M 2034 4750 
Q 2819 4750 3233 4129 
Q 3647 3509 3647 2328 
Q 3647 1150 3233 529 
Q 2819 -91 2034 -91 
Q 1250 -91 836 529 
Q 422 1150 422 2328 
Q 422 3509 836 4129 
Q 1250 4750 2034 4750 
z
" transform="scale(0.015625)"/>
        <path id="DejaVuSans-2e" d="M 684 794 
L 1344 794 
L 1344 0 
L 684 0 
L 684 794 
z
" transform="scale(0.015625)"/>
        <path id="DejaVuSans-35" d="M 691 4666 
L 3169 4666 
L 3169 4134 
L 1269 4134 
L 1269 2991 
Q 1406 3038 1543 3061 
Q 1681 3084 1819 3084 
Q 2600 3084 3056 2656 
Q 3513 2228 3513 1497 
Q 3513 744 3044 326 
Q 2575 -91 1722 -91 
Q 1428 -91 1123 -41 
Q 819 9 494 109 
L 494 744 
Q 775 591 1075 516 
Q 1375 441 1709 441 
Q 2250 441 2565 725 
Q 2881 1009 2881 1497 
Q 2881 1984 2565 2268 
Q 2250 2553 1709 2553 
Q 1456 2553 1204 2497 
Q 953 2441 691 2322 
L 691 4666 
z
" transform="scale(0.015625)"/>
       </defs>
       <use xlink:href="#DejaVuSans-30"/>
       <use xlink:href="#DejaVuSans-2e" transform="translate(63.623047 0)"/>
       <use xlink:href="#DejaVuSans-35" transform="translate(95.410156 0)"/>
      </g>
     </g>
    </g>
    <g id="xtick_2">
     <g id="line2d_2">
      <g>
       <use xlink:href="#m4e18ded76f" x="126.059343" y="307.584" style="stroke: #000000; stroke-width: 0.8"/>
      </g>
     </g>
     <g id="text_2">
      <!-- 1.0 -->
      <g transform="translate(118.107781 322.182437) scale(0.1 -0.1)">
       <defs>
        <path id="DejaVuSans-31" d="M 794 531 
L 1825 531 
L 1825 4091 
L 703 3866 
L 703 4441 
L 1819 4666 
L 2450 4666 
L 2450 531 
L 3481 531 
L 3481 0 
L 794 0 
L 794 531 
z
" transform="scale(0.015625)"/>
       </defs>
       <use xlink:href="#DejaVuSans-31"/>
       <use xlink:href="#DejaVuSans-2e" transform="translate(63.623047 0)"/>
       <use xlink:href="#DejaVuSans-30" transform="translate(95.410156 0)"/>
      </g>
     </g>
    </g>
    <g id="xtick_3">
     <g id="line2d_3">
      <g>
       <use xlink:href="#m4e18ded76f" x="174.327934" y="307.584" style="stroke: #000000; stroke-width: 0.8"/>
      </g>
     </g>
     <g id="text_3">
      <!-- 1.5 -->
      <g transform="translate(166.376372 322.182437) scale(0.1 -0.1)">
       <use xlink:href="#DejaVuSans-31"/>
       <use xlink:href="#DejaVuSans-2e" transform="translate(63.623047 0)"/>
       <use xlink:href="#DejaVuSans-35" transform="translate(95.410156 0)"/>
      </g>
     </g>
    </g>
    <g id="xtick_4">
     <g id="line2d_4">
      <g>
       <use xlink:href="#m4e18ded76f" x="222.596526" y="307.584" style="stroke: #000000; stroke-width: 0.8"/>
      </g>
     </g>
     <g id="text_4">
      <!-- 2.0 -->
      <g transform="translate(214.644963 322.182437) scale(0.1 -0.1)">
       <defs>
        <path id="DejaVuSans-32" d="M 1228 531 
L 3431 531 
L 3431 0 
L 469 0 
L 469 531 
Q 828 903 1448 1529 
Q 2069 2156 2228 2338 
Q 2531 2678 2651 2914 
Q 2772 3150 2772 3378 
Q 2772 3750 2511 3984 
Q 2250 4219 1831 4219 
Q 1534 4219 1204 4116 
Q 875 4013 500 3803 
L 500 4441 
Q 881 4594 1212 4672 
Q 1544 4750 1819 4750 
Q 2544 4750 2975 4387 
Q 3406 4025 3406 3419 
Q 3406 3131 3298 2873 
Q 3191 2616 2906 2266 
Q 2828 2175 2409 1742 
Q 1991 1309 1228 531 
z
" transform="scale(0.015625)"/>
       </defs>
       <use xlink:href="#DejaVuSans-32"/>
       <use xlink:href="#DejaVuSans-2e" transform="translate(63.623047 0)"/>
       <use xlink:href="#DejaVuSans-30" transform="translate(95.410156 0)"/>
      </g>
     </g>
    </g>
    <g id="xtick_5">
     <g id="line2d_5">
      <g>
       <use xlink:href="#m4e18ded76f" x="270.865117" y="307.584" style="stroke: #000000; stroke-width: 0.8"/>
      </g>
     </g>
     <g id="text_5">
      <!-- 2.5 -->
      <g transform="translate(262.913555 322.182437) scale(0.1 -0.1)">
       <use xlink:href="#DejaVuSans-32"/>
       <use xlink:href="#DejaVuSans-2e" transform="translate(63.623047 0)"/>
       <use xlink:href="#DejaVuSans-35" transform="translate(95.410156 0)"/>
      </g>
     </g>
    </g>
    <g id="xtick_6">
     <g id="line2d_6">
      <g>
       <use xlink:href="#m4e18ded76f" x="319.133709" y="307.584" style="stroke: #000000; stroke-width: 0.8"/>
      </g>
     </g>
     <g id="text_6">
      <!-- 3.0 -->
      <g transform="translate(311.182146 322.182437) scale(0.1 -0.1)">
       <defs>
        <path id="DejaVuSans-33" d="M 2597 2516 
Q 3050 2419 3304 2112 
Q 3559 1806 3559 1356 
Q 3559 666 3084 287 
Q 2609 -91 1734 -91 
Q 1441 -91 1130 -33 
Q 819 25 488 141 
L 488 750 
Q 750 597 1062 519 
Q 1375 441 1716 441 
Q 2309 441 2620 675 
Q 2931 909 2931 1356 
Q 2931 1769 2642 2001 
Q 2353 2234 1838 2234 
L 1294 2234 
L 1294 2753 
L 1863 2753 
Q 2328 2753 2575 2939 
Q 2822 3125 2822 3475 
Q 2822 3834 2567 4026 
Q 2313 4219 1838 4219 
Q 1578 4219 1281 4162 
Q 984 4106 628 3988 
L 628 4550 
Q 988 4650 1302 4700 
Q 1616 4750 1894 4750 
Q 2613 4750 3031 4423 
Q 3450 4097 3450 3541 
Q 3450 3153 3228 2886 
Q 3006 2619 2597 2516 
z
" transform="scale(0.015625)"/>
       </defs>
       <use xlink:href="#DejaVuSans-33"/>
       <use xlink:href="#DejaVuSans-2e" transform="translate(63.623047 0)"/>
       <use xlink:href="#DejaVuSans-30" transform="translate(95.410156 0)"/>
      </g>
     </g>
    </g>
    <g id="xtick_7">
     <g id="line2d_7">
      <g>
       <use xlink:href="#m4e18ded76f" x="367.4023" y="307.584" style="stroke: #000000; stroke-width: 0.8"/>
      </g>
     </g>
     <g id="text_7">
      <!-- 3.5 -->
      <g transform="translate(359.450737 322.182437) scale(0.1 -0.1)">
       <use xlink:href="#DejaVuSans-33"/>
       <use xlink:href="#DejaVuSans-2e" transform="translate(63.623047 0)"/>
       <use xlink:href="#DejaVuSans-35" transform="translate(95.410156 0)"/>
      </g>
     </g>
    </g>
   </g>
   <g id="matplotlib.axis_2">
    <g id="ytick_1">
     <g id="line2d_8">
      <defs>
       <path id="m50031121a3" d="M 0 0 
L -3.5 0 
" style="stroke: #000000; stroke-width: 0.8"/>
      </defs>
      <g>
       <use xlink:href="#m50031121a3" x="57.6" y="297.982021" style="stroke: #000000; stroke-width: 0.8"/>
      </g>
     </g>
     <g id="text_8">
      <!-- 0 -->
      <g transform="translate(44.2375 301.781239) scale(0.1 -0.1)">
       <use xlink:href="#DejaVuSans-30"/>
      </g>
     </g>
    </g>
    <g id="ytick_2">
     <g id="line2d_9">
      <g>
       <use xlink:href="#m50031121a3" x="57.6" y="248.101608" style="stroke: #000000; stroke-width: 0.8"/>
      </g>
     </g>
     <g id="text_9">
      <!-- 20 -->
      <g transform="translate(37.875 251.900827) scale(0.1 -0.1)">
       <use xlink:href="#DejaVuSans-32"/>
       <use xlink:href="#DejaVuSans-30" transform="translate(63.623047 0)"/>
      </g>
     </g>
    </g>
    <g id="ytick_3">
     <g id="line2d_10">
      <g>
       <use xlink:href="#m50031121a3" x="57.6" y="198.221196" style="stroke: #000000; stroke-width: 0.8"/>
      </g>
     </g>
     <g id="text_10">
      <!-- 40 -->
      <g transform="translate(37.875 202.020415) scale(0.1 -0.1)">
       <defs>
        <path id="DejaVuSans-34" d="M 2419 4116 
L 825 1625 
L 2419 1625 
L 2419 4116 
z
M 2253 4666 
L 3047 4666 
L 3047 1625 
L 3713 1625 
L 3713 1100 
L 3047 1100 
L 3047 0 
L 2419 0 
L 2419 1100 
L 313 1100 
L 313 1709 
L 2253 4666 
z
" transform="scale(0.015625)"/>
       </defs>
       <use xlink:href="#DejaVuSans-34"/>
       <use xlink:href="#DejaVuSans-30" transform="translate(63.623047 0)"/>
      </g>
     </g>
    </g>
    <g id="ytick_4">
     <g id="line2d_11">
      <g>
       <use xlink:href="#m50031121a3" x="57.6" y="148.340784" style="stroke: #000000; stroke-width: 0.8"/>
      </g>
     </g>
     <g id="text_11">
      <!-- 60 -->
      <g transform="translate(37.875 152.140002) scale(0.1 -0.1)">
       <defs>
        <path id="DejaVuSans-36" d="M 2113 2584 
Q 1688 2584 1439 2293 
Q 1191 2003 1191 1497 
Q 1191 994 1439 701 
Q 1688 409 2113 409 
Q 2538 409 2786 701 
Q 3034 994 3034 1497 
Q 3034 2003 2786 2293 
Q 2538 2584 2113 2584 
z
M 3366 4563 
L 3366 3988 
Q 3128 4100 2886 4159 
Q 2644 4219 2406 4219 
Q 1781 4219 1451 3797 
Q 1122 3375 1075 2522 
Q 1259 2794 1537 2939 
Q 1816 3084 2150 3084 
Q 2853 3084 3261 2657 
Q 3669 2231 3669 1497 
Q 3669 778 3244 343 
Q 2819 -91 2113 -91 
Q 1303 -91 875 529 
Q 447 1150 447 2328 
Q 447 3434 972 4092 
Q 1497 4750 2381 4750 
Q 2619 4750 2861 4703 
Q 3103 4656 3366 4563 
z
" transform="scale(0.015625)"/>
       </defs>
       <use xlink:href="#DejaVuSans-36"/>
       <use xlink:href="#DejaVuSans-30" transform="translate(63.623047 0)"/>
      </g>
     </g>
    </g>
    <g id="ytick_5">
     <g id="line2d_12">
      <g>
       <use xlink:href="#m50031121a3" x="57.6" y="98.460371" style="stroke: #000000; stroke-width: 0.8"/>
      </g>
     </g>
     <g id="text_12">
      <!-- 80 -->
      <g transform="translate(37.875 102.25959) scale(0.1 -0.1)">
       <defs>
        <path id="DejaVuSans-38" d="M 2034 2216 
Q 1584 2216 1326 1975 
Q 1069 1734 1069 1313 
Q 1069 891 1326 650 
Q 1584 409 2034 409 
Q 2484 409 2743 651 
Q 3003 894 3003 1313 
Q 3003 1734 2745 1975 
Q 2488 2216 2034 2216 
z
M 1403 2484 
Q 997 2584 770 2862 
Q 544 3141 544 3541 
Q 544 4100 942 4425 
Q 1341 4750 2034 4750 
Q 2731 4750 3128 4425 
Q 3525 4100 3525 3541 
Q 3525 3141 3298 2862 
Q 3072 2584 2669 2484 
Q 3125 2378 3379 2068 
Q 3634 1759 3634 1313 
Q 3634 634 3220 271 
Q 2806 -91 2034 -91 
Q 1263 -91 848 271 
Q 434 634 434 1313 
Q 434 1759 690 2068 
Q 947 2378 1403 2484 
z
M 1172 3481 
Q 1172 3119 1398 2916 
Q 1625 2713 2034 2713 
Q 2441 2713 2670 2916 
Q 2900 3119 2900 3481 
Q 2900 3844 2670 4047 
Q 2441 4250 2034 4250 
Q 1625 4250 1398 4047 
Q 1172 3844 1172 3481 
z
" transform="scale(0.015625)"/>
       </defs>
       <use xlink:href="#DejaVuSans-38"/>
       <use xlink:href="#DejaVuSans-30" transform="translate(63.623047 0)"/>
      </g>
     </g>
    </g>
    <g id="ytick_6">
     <g id="line2d_13">
      <g>
       <use xlink:href="#m50031121a3" x="57.6" y="48.579959" style="stroke: #000000; stroke-width: 0.8"/>
      </g>
     </g>
     <g id="text_13">
      <!-- 100 -->
      <g transform="translate(31.5125 52.379178) scale(0.1 -0.1)">
       <use xlink:href="#DejaVuSans-31"/>
       <use xlink:href="#DejaVuSans-30" transform="translate(63.623047 0)"/>
       <use xlink:href="#DejaVuSans-30" transform="translate(127.246094 0)"/>
      </g>
     </g>
    </g>
   </g>
   <g id="line2d_14">
    <path d="M 84.837966 295.488 
L 107.910353 295.488 
L 107.910353 275.535835 
L 138.029954 275.535835 
L 138.029954 270.547794 
L 138.51264 270.547794 
L 138.51264 265.559753 
L 139.478012 265.559753 
L 139.478012 255.58367 
L 139.767623 255.58367 
L 139.767623 253.089649 
L 142.95335 253.089649 
L 142.95335 243.113567 
L 143.339499 243.113567 
L 143.339499 233.137485 
L 144.208333 233.137485 
L 144.208333 228.149443 
L 145.270242 228.149443 
L 145.270242 218.173361 
L 145.946003 218.173361 
L 146.04254 210.691299 
L 153.379366 210.691299 
L 153.379366 200.715216 
L 157.047779 200.715216 
L 157.047779 190.739134 
L 203.096015 190.739134 
L 203.096015 183.257072 
L 215.163163 183.257072 
L 215.163163 178.269031 
L 220.086559 178.269031 
L 220.086559 168.292948 
L 221.245005 168.292948 
L 221.245005 163.304907 
L 223.175749 163.304907 
L 223.175749 155.822845 
L 255.322631 155.822845 
L 255.419168 145.846763 
L 261.597548 145.846763 
L 261.597548 135.87068 
L 262.562919 135.87068 
L 262.562919 130.882639 
L 267.582853 130.882639 
L 267.582853 125.894598 
L 267.872465 125.894598 
L 267.969002 105.942433 
L 268.065539 105.942433 
L 268.065539 95.966351 
L 268.35515 95.966351 
L 268.35515 93.47233 
L 268.741299 93.47233 
L 268.741299 85.990268 
L 269.223985 85.990268 
L 269.223985 76.014186 
L 269.706671 76.014186 
L 269.706671 73.520165 
L 273.375084 73.520165 
L 273.375084 66.038103 
L 364.216573 66.038103 
L 364.216573 63.544082 
L 366.533465 63.544082 
L 366.630002 58.556041 
L 377.056018 58.556041 
L 377.056018 56.062021 
L 377.924853 56.062021 
L 377.924853 53.568 
L 377.924853 53.568 
" clip-path="url(#p8a5bb219e5)" style="fill: none; stroke: #1f77b4; stroke-width: 1.5; stroke-linecap: square"/>
   </g>
   <g id="line2d_15">
    <path d="M 73.832727 295.488 
L 95.843205 295.488 
L 95.939742 280.523876 
L 96.518965 280.523876 
L 96.518965 270.547794 
L 96.905114 270.547794 
L 97.001651 250.595629 
L 97.291263 250.595629 
L 97.291263 248.101608 
L 97.677411 248.101608 
L 97.677411 238.125526 
L 98.06356 238.125526 
L 98.06356 230.643464 
L 98.449709 230.643464 
L 98.449709 220.667381 
L 101.82851 220.667381 
L 101.82851 215.67934 
L 123.838988 215.67934 
L 123.935525 198.221196 
L 124.128599 198.221196 
L 124.128599 188.245113 
L 125.866269 188.245113 
L 125.866269 178.269031 
L 131.175814 178.269031 
L 131.175814 173.28099 
L 199.524139 173.28099 
L 199.620676 163.304907 
L 201.454883 163.304907 
L 201.454883 155.822845 
L 201.937569 155.822845 
L 202.034106 135.87068 
L 253.198813 135.87068 
L 253.198813 125.894598 
L 292.00676 125.894598 
L 292.00676 120.906557 
L 292.972132 120.906557 
L 292.972132 115.918515 
L 295.482099 115.918515 
L 295.482099 105.942433 
L 295.675173 105.942433 
L 295.675173 95.966351 
L 295.868248 95.966351 
L 295.868248 88.484289 
L 296.350933 88.484289 
L 296.447471 73.520165 
L 305.328891 73.520165 
L 305.328891 71.026144 
L 305.618503 71.026144 
L 305.618503 66.038103 
L 317.589114 66.038103 
L 317.589114 63.544082 
L 324.057105 63.544082 
L 324.057105 61.050062 
L 324.539791 61.050062 
L 324.539791 58.556041 
L 329.463187 58.556041 
L 329.463187 56.062021 
L 334.290046 56.062021 
L 334.290046 53.568 
L 334.290046 53.568 
" clip-path="url(#p8a5bb219e5)" style="fill: none; stroke: #ff7f0e; stroke-width: 1.5; stroke-linecap: square"/>
   </g>
   <g id="line2d_16">
    <path d="M 115.440253 295.488 
L 115.53679 295.488 
L 115.53679 292.993979 
L 116.21255 292.993979 
L 116.309088 285.511918 
L 116.405625 285.511918 
L 116.502162 280.523876 
L 116.598699 280.523876 
L 116.695236 273.041814 
L 116.791774 273.041814 
L 116.791774 248.101608 
L 117.467534 248.101608 
L 117.467534 243.113567 
L 178.768645 243.113567 
L 178.768645 240.619546 
L 210.529378 240.619546 
L 210.529378 238.125526 
L 224.141121 238.125526 
L 224.141121 235.631505 
L 229.064517 235.631505 
L 229.064517 233.137485 
L 233.215616 233.137485 
L 233.312153 228.149443 
L 233.40869 228.149443 
L 233.505227 223.161402 
L 238.525161 223.161402 
L 238.621698 185.751093 
L 238.814773 185.751093 
L 238.91131 135.87068 
L 239.297458 135.87068 
L 239.297458 120.906557 
L 240.842053 120.906557 
L 240.842053 118.412536 
L 241.035128 118.412536 
L 241.035128 115.918515 
L 241.710888 115.918515 
L 241.710888 113.424495 
L 248.275416 113.424495 
L 248.275416 110.930474 
L 248.661565 110.930474 
L 248.758102 100.954392 
L 248.85464 100.954392 
L 248.951177 78.508206 
L 249.240788 78.508206 
L 249.337325 73.520165 
L 258.218746 73.520165 
L 258.218746 71.026144 
L 258.701432 71.026144 
L 258.701432 68.532124 
L 259.280655 68.532124 
L 259.280655 66.038103 
L 272.602786 66.038103 
L 272.602786 63.544082 
L 278.29848 63.544082 
L 278.29848 61.050062 
L 278.877703 61.050062 
L 278.877703 58.556041 
L 290.172554 58.556041 
L 290.172554 56.062021 
L 297.50938 56.062021 
L 297.50938 53.568 
L 297.50938 53.568 
" clip-path="url(#p8a5bb219e5)" style="fill: none; stroke: #2ca02c; stroke-width: 1.5; stroke-linecap: square"/>
   </g>
   <g id="line2d_17">
    <path d="M 137.547268 295.488 
L 140.346846 295.488 
L 140.443383 288.005938 
L 140.539921 288.005938 
L 140.636458 265.559753 
L 140.732995 265.559753 
L 140.829532 253.089649 
L 145.173705 253.089649 
L 145.173705 250.595629 
L 196.241875 250.595629 
L 196.241875 248.101608 
L 257.446449 248.101608 
L 257.446449 245.607588 
L 260.728713 245.607588 
L 260.728713 243.113567 
L 262.273308 243.113567 
L 262.273308 240.619546 
L 262.949068 240.619546 
L 262.949068 238.125526 
L 263.528291 238.125526 
L 263.528291 235.631505 
L 270.382431 235.631505 
L 270.478968 230.643464 
L 270.76858 230.643464 
L 270.865117 225.655423 
L 270.961654 225.655423 
L 271.058192 213.18532 
L 271.154729 213.18532 
L 271.154729 203.209237 
L 271.347803 203.209237 
L 271.44434 155.822845 
L 271.733952 155.822845 
L 271.830489 133.37666 
L 273.761233 133.37666 
L 273.761233 130.882639 
L 281.966893 130.882639 
L 281.966893 128.388619 
L 282.739191 128.388619 
L 282.739191 125.894598 
L 283.318414 125.894598 
L 283.318414 123.400577 
L 284.47686 123.400577 
L 284.573397 93.47233 
L 289.593331 93.47233 
L 289.593331 83.496247 
L 290.172554 83.496247 
L 290.172554 81.002227 
L 290.365628 81.002227 
L 290.365628 78.508206 
L 290.558702 78.508206 
L 290.558702 76.014186 
L 291.137926 76.014186 
L 291.137926 73.520165 
L 291.427537 73.520165 
L 291.427537 71.026144 
L 291.620611 71.026144 
L 291.620611 68.532124 
L 291.910223 68.532124 
L 291.910223 66.038103 
L 295.289024 66.038103 
L 295.289024 63.544082 
L 300.308958 63.544082 
L 300.308958 61.050062 
L 300.695107 61.050062 
L 300.695107 58.556041 
L 309.286916 58.556041 
L 309.286916 56.062021 
L 310.445362 56.062021 
L 310.445362 53.568 
L 310.445362 53.568 
" clip-path="url(#p8a5bb219e5)" style="fill: none; stroke: #d62728; stroke-width: 1.5; stroke-linecap: square"/>
   </g>
   <g id="line2d_18">
    <path d="M 127.217789 295.488 
L 128.56931 295.488 
L 128.56931 292.993979 
L 128.762384 292.993979 
L 128.762384 290.499959 
L 128.955459 290.499959 
L 129.051996 283.017897 
L 129.148533 283.017897 
L 129.24507 263.065732 
L 129.341607 263.065732 
L 129.341607 250.595629 
L 130.403516 250.595629 
L 130.403516 248.101608 
L 130.789665 248.101608 
L 130.789665 245.607588 
L 133.01002 245.607588 
L 133.01002 243.113567 
L 133.299632 243.113567 
L 133.299632 240.619546 
L 133.782318 240.619546 
L 133.878855 235.631505 
L 133.975392 235.631505 
L 134.071929 213.18532 
L 134.168466 213.18532 
L 134.265004 173.28099 
L 134.74769 173.28099 
L 134.74769 163.304907 
L 136.292284 163.304907 
L 136.388822 158.316866 
L 136.581896 158.316866 
L 136.581896 155.822845 
L 136.77497 155.822845 
L 136.77497 153.328825 
L 137.257656 153.328825 
L 137.354193 83.496247 
L 137.450731 83.496247 
L 137.450731 81.002227 
L 142.663739 81.002227 
L 142.760276 76.014186 
L 142.856813 76.014186 
L 142.856813 73.520165 
L 327.435906 73.520165 
L 327.435906 71.026144 
L 327.918592 71.026144 
L 327.918592 68.532124 
L 328.111667 68.532124 
L 328.111667 66.038103 
L 336.027716 66.038103 
L 336.027716 63.544082 
L 338.344608 63.544082 
L 338.344608 61.050062 
L 338.537682 61.050062 
L 338.537682 58.556041 
L 349.060235 58.556041 
L 349.060235 56.062021 
L 350.025607 56.062021 
L 350.025607 53.568 
L 350.025607 53.568 
" clip-path="url(#p8a5bb219e5)" style="fill: none; stroke: #9467bd; stroke-width: 1.5; stroke-linecap: square"/>
   </g>
   <g id="line2d_19">
    <path d="M 137.064582 295.488 
L 137.161119 288.005938 
L 137.257656 288.005938 
L 137.257656 280.523876 
L 137.547268 280.523876 
L 137.547268 270.547794 
L 138.319565 270.547794 
L 138.319565 268.053773 
L 138.705714 268.053773 
L 138.705714 265.559753 
L 139.1884 265.559753 
L 139.1884 263.065732 
L 139.381474 263.065732 
L 139.381474 260.571711 
L 139.767623 260.571711 
L 139.767623 258.077691 
L 143.725648 258.077691 
L 143.822185 245.607588 
L 143.918722 245.607588 
L 144.015259 190.739134 
L 144.401408 190.739134 
L 144.401408 188.245113 
L 145.752928 188.245113 
L 145.752928 185.751093 
L 146.525226 185.751093 
L 146.525226 183.257072 
L 147.104449 183.257072 
L 147.104449 180.763052 
L 147.683672 180.763052 
L 147.683672 178.269031 
L 148.45597 178.269031 
L 148.552507 170.786969 
L 148.649044 170.786969 
L 148.745581 103.448412 
L 148.842118 103.448412 
L 148.938655 78.508206 
L 149.035193 78.508206 
L 149.13173 73.520165 
L 318.74756 73.520165 
L 318.74756 71.026144 
L 319.037171 71.026144 
L 319.037171 68.532124 
L 319.42332 68.532124 
L 319.42332 66.038103 
L 323.381345 66.038103 
L 323.381345 63.544082 
L 324.057105 63.544082 
L 324.057105 61.050062 
L 331.780079 61.050062 
L 331.780079 58.556041 
L 339.116905 58.556041 
L 339.116905 53.568 
L 339.116905 53.568 
" clip-path="url(#p8a5bb219e5)" style="fill: none; stroke: #8c564b; stroke-width: 1.5; stroke-linecap: square"/>
   </g>
   <g id="line2d_20">
    <path d="M 136.871508 295.488 
L 137.933417 295.488 
L 137.933417 292.993979 
L 138.126491 292.993979 
L 138.126491 290.499959 
L 138.319565 290.499959 
L 138.319565 288.005938 
L 138.51264 288.005938 
L 138.609177 278.029856 
L 138.705714 278.029856 
L 138.802251 245.607588 
L 139.1884 245.607588 
L 139.1884 243.113567 
L 139.86416 243.113567 
L 139.86416 240.619546 
L 140.250309 240.619546 
L 140.250309 238.125526 
L 143.918722 238.125526 
L 143.918722 235.631505 
L 146.139077 235.631505 
L 146.235614 225.655423 
L 146.332151 225.655423 
L 146.428689 180.763052 
L 146.525226 180.763052 
L 146.525226 168.292948 
L 147.200986 168.292948 
L 147.200986 160.810887 
L 148.45597 160.810887 
L 148.552507 155.822845 
L 148.649044 155.822845 
L 148.649044 153.328825 
L 153.958589 153.328825 
L 153.958589 150.834804 
L 154.151663 150.834804 
L 154.151663 148.340784 
L 154.344738 148.340784 
L 154.441275 130.882639 
L 154.537812 130.882639 
L 154.634349 113.424495 
L 154.923961 113.424495 
L 155.020498 83.496247 
L 155.117035 83.496247 
L 155.213572 76.014186 
L 155.503184 76.014186 
L 155.503184 73.520165 
L 329.077038 73.520165 
L 329.173576 68.532124 
L 329.36665 68.532124 
L 329.36665 66.038103 
L 340.082277 66.038103 
L 340.082277 63.544082 
L 342.013021 63.544082 
L 342.109558 58.556041 
L 357.362433 58.556041 
L 357.362433 56.062021 
L 358.424342 56.062021 
L 358.424342 53.568 
L 358.424342 53.568 
" clip-path="url(#p8a5bb219e5)" style="fill: none; stroke: #e377c2; stroke-width: 1.5; stroke-linecap: square"/>
   </g>
   <g id="line2d_21">
    <path d="M 129.051996 295.488 
L 129.051996 292.993979 
L 129.438145 292.993979 
L 129.438145 290.499959 
L 129.631219 290.499959 
L 129.727756 278.029856 
L 129.824293 278.029856 
L 129.92083 255.58367 
L 130.017368 255.58367 
L 130.017368 243.113567 
L 130.982739 243.113567 
L 130.982739 240.619546 
L 131.175814 240.619546 
L 131.175814 238.125526 
L 131.561963 238.125526 
L 131.561963 235.631505 
L 131.948111 235.631505 
L 131.948111 233.137485 
L 134.940764 233.137485 
L 135.037301 228.149443 
L 135.133838 228.149443 
L 135.133838 225.655423 
L 135.713061 225.655423 
L 135.713061 223.161402 
L 135.906136 223.161402 
L 136.002673 198.221196 
L 136.09921 198.221196 
L 136.09921 153.328825 
L 136.581896 153.328825 
L 136.581896 145.846763 
L 137.836879 145.846763 
L 137.933417 140.858722 
L 138.029954 140.858722 
L 138.029954 138.364701 
L 138.223028 138.364701 
L 138.223028 135.87068 
L 138.51264 135.87068 
L 138.609177 83.496247 
L 138.705714 83.496247 
L 138.802251 73.520165 
L 320.002543 73.520165 
L 320.002543 71.026144 
L 320.195618 71.026144 
L 320.195618 68.532124 
L 320.388692 68.532124 
L 320.388692 66.038103 
L 329.945873 66.038103 
L 329.945873 63.544082 
L 330.235485 63.544082 
L 330.235485 61.050062 
L 338.923831 61.050062 
L 338.923831 58.556041 
L 340.082277 58.556041 
L 340.082277 56.062021 
L 357.941656 56.062021 
L 357.941656 53.568 
L 357.941656 53.568 
" clip-path="url(#p8a5bb219e5)" style="fill: none; stroke: #7f7f7f; stroke-width: 1.5; stroke-linecap: square"/>
   </g>
   <g id="line2d_22">
    <path d="M 83.196834 295.488 
L 125.866269 295.488 
L 125.866269 292.993979 
L 126.15588 292.993979 
L 126.15588 290.499959 
L 126.348955 290.499959 
L 126.348955 288.005938 
L 126.542029 288.005938 
L 126.542029 285.511918 
L 126.831641 285.511918 
L 126.928178 278.029856 
L 127.024715 278.029856 
L 127.121252 270.547794 
L 127.217789 270.547794 
L 127.314326 253.089649 
L 127.603938 253.089649 
L 127.603938 245.607588 
L 128.56931 245.607588 
L 128.56931 243.113567 
L 128.762384 243.113567 
L 128.762384 240.619546 
L 129.24507 240.619546 
L 129.24507 238.125526 
L 129.631219 238.125526 
L 129.631219 235.631505 
L 130.017368 235.631505 
L 130.113905 228.149443 
L 130.210442 228.149443 
L 130.306979 213.18532 
L 130.403516 213.18532 
L 130.500054 170.786969 
L 130.886202 170.786969 
L 130.886202 165.798928 
L 135.906136 165.798928 
L 135.906136 163.304907 
L 136.09921 163.304907 
L 136.09921 160.810887 
L 136.871508 160.810887 
L 136.871508 158.316866 
L 137.064582 158.316866 
L 137.064582 155.822845 
L 137.354193 155.822845 
L 137.450731 98.460371 
L 137.547268 98.460371 
L 137.643805 78.508206 
L 137.740342 78.508206 
L 137.836879 73.520165 
L 321.83675 73.520165 
L 321.933287 68.532124 
L 322.126361 68.532124 
L 322.126361 66.038103 
L 338.344608 66.038103 
L 338.344608 63.544082 
L 340.468426 63.544082 
L 340.564963 58.556041 
L 358.520879 58.556041 
L 358.520879 56.062021 
L 359.679325 56.062021 
L 359.679325 53.568 
L 359.679325 53.568 
" clip-path="url(#p8a5bb219e5)" style="fill: none; stroke: #bcbd22; stroke-width: 1.5; stroke-linecap: square"/>
   </g>
   <g id="line2d_23">
    <path d="M 78.1769 295.488 
L 97.3878 295.488 
L 97.3878 292.993979 
L 129.534682 292.993979 
L 129.631219 285.511918 
L 129.727756 285.511918 
L 129.824293 278.029856 
L 129.92083 278.029856 
L 129.92083 273.041814 
L 130.113905 273.041814 
L 130.113905 260.571711 
L 131.465425 260.571711 
L 131.465425 258.077691 
L 135.42345 258.077691 
L 135.42345 255.58367 
L 136.09921 255.58367 
L 136.09921 253.089649 
L 136.485359 253.089649 
L 136.485359 250.595629 
L 137.161119 250.595629 
L 137.161119 248.101608 
L 137.450731 248.101608 
L 137.547268 243.113567 
L 137.643805 243.113567 
L 137.740342 215.67934 
L 137.836879 215.67934 
L 137.933417 188.245113 
L 138.029954 188.245113 
L 138.029954 173.28099 
L 139.671086 173.28099 
L 139.671086 170.786969 
L 139.960697 170.786969 
L 139.960697 168.292948 
L 140.732995 168.292948 
L 140.732995 165.798928 
L 141.022606 165.798928 
L 141.022606 163.304907 
L 141.698367 163.304907 
L 141.698367 160.810887 
L 144.980631 160.810887 
L 145.077168 125.894598 
L 145.173705 125.894598 
L 145.270242 81.002227 
L 145.36678 81.002227 
L 145.463317 76.014186 
L 145.559854 76.014186 
L 145.559854 73.520165 
L 354.36978 73.520165 
L 354.36978 71.026144 
L 357.362433 71.026144 
L 357.45897 66.038103 
L 367.884986 66.038103 
L 367.884986 63.544082 
L 379.083299 63.544082 
L 379.083299 61.050062 
L 379.565985 61.050062 
L 379.565985 58.556041 
L 397.135752 58.556041 
L 397.135752 56.062021 
L 398.487273 56.062021 
L 398.487273 53.568 
L 398.487273 53.568 
" clip-path="url(#p8a5bb219e5)" style="fill: none; stroke: #17becf; stroke-width: 1.5; stroke-linecap: square"/>
   </g>
   <g id="patch_3">
    <path d="M 57.6 307.584 
L 57.6 41.472 
" style="fill: none; stroke: #000000; stroke-width: 0.8; stroke-linejoin: miter; stroke-linecap: square"/>
   </g>
   <g id="patch_4">
    <path d="M 414.72 307.584 
L 414.72 41.472 
" style="fill: none; stroke: #000000; stroke-width: 0.8; stroke-linejoin: miter; stroke-linecap: square"/>
   </g>
   <g id="patch_5">
    <path d="M 57.6 307.584 
L 414.72 307.584 
" style="fill: none; stroke: #000000; stroke-width: 0.8; stroke-linejoin: miter; stroke-linecap: square"/>
   </g>
   <g id="patch_6">
    <path d="M 57.6 41.472 
L 414.72 41.472 
" style="fill: none; stroke: #000000; stroke-width: 0.8; stroke-linejoin: miter; stroke-linecap: square"/>
   </g>
   <g id="text_14">
    <!-- interactive discover 2.4 -->
    <g transform="translate(165.304688 35.472) scale(0.12 -0.12)">
     <defs>
      <path id="DejaVuSans-69" d="M 603 3500 
L 1178 3500 
L 1178 0 
L 603 0 
L 603 3500 
z
M 603 4863 
L 1178 4863 
L 1178 4134 
L 603 4134 
L 603 4863 
z
" transform="scale(0.015625)"/>
      <path id="DejaVuSans-6e" d="M 3513 2113 
L 3513 0 
L 2938 0 
L 2938 2094 
Q 2938 2591 2744 2837 
Q 2550 3084 2163 3084 
Q 1697 3084 1428 2787 
Q 1159 2491 1159 1978 
L 1159 0 
L 581 0 
L 581 3500 
L 1159 3500 
L 1159 2956 
Q 1366 3272 1645 3428 
Q 1925 3584 2291 3584 
Q 2894 3584 3203 3211 
Q 3513 2838 3513 2113 
z
" transform="scale(0.015625)"/>
      <path id="DejaVuSans-74" d="M 1172 4494 
L 1172 3500 
L 2356 3500 
L 2356 3053 
L 1172 3053 
L 1172 1153 
Q 1172 725 1289 603 
Q 1406 481 1766 481 
L 2356 481 
L 2356 0 
L 1766 0 
Q 1100 0 847 248 
Q 594 497 594 1153 
L 594 3053 
L 172 3053 
L 172 3500 
L 594 3500 
L 594 4494 
L 1172 4494 
z
" transform="scale(0.015625)"/>
      <path id="DejaVuSans-65" d="M 3597 1894 
L 3597 1613 
L 953 1613 
Q 991 1019 1311 708 
Q 1631 397 2203 397 
Q 2534 397 2845 478 
Q 3156 559 3463 722 
L 3463 178 
Q 3153 47 2828 -22 
Q 2503 -91 2169 -91 
Q 1331 -91 842 396 
Q 353 884 353 1716 
Q 353 2575 817 3079 
Q 1281 3584 2069 3584 
Q 2775 3584 3186 3129 
Q 3597 2675 3597 1894 
z
M 3022 2063 
Q 3016 2534 2758 2815 
Q 2500 3097 2075 3097 
Q 1594 3097 1305 2825 
Q 1016 2553 972 2059 
L 3022 2063 
z
" transform="scale(0.015625)"/>
      <path id="DejaVuSans-72" d="M 2631 2963 
Q 2534 3019 2420 3045 
Q 2306 3072 2169 3072 
Q 1681 3072 1420 2755 
Q 1159 2438 1159 1844 
L 1159 0 
L 581 0 
L 581 3500 
L 1159 3500 
L 1159 2956 
Q 1341 3275 1631 3429 
Q 1922 3584 2338 3584 
Q 2397 3584 2469 3576 
Q 2541 3569 2628 3553 
L 2631 2963 
z
" transform="scale(0.015625)"/>
      <path id="DejaVuSans-61" d="M 2194 1759 
Q 1497 1759 1228 1600 
Q 959 1441 959 1056 
Q 959 750 1161 570 
Q 1363 391 1709 391 
Q 2188 391 2477 730 
Q 2766 1069 2766 1631 
L 2766 1759 
L 2194 1759 
z
M 3341 1997 
L 3341 0 
L 2766 0 
L 2766 531 
Q 2569 213 2275 61 
Q 1981 -91 1556 -91 
Q 1019 -91 701 211 
Q 384 513 384 1019 
Q 384 1609 779 1909 
Q 1175 2209 1959 2209 
L 2766 2209 
L 2766 2266 
Q 2766 2663 2505 2880 
Q 2244 3097 1772 3097 
Q 1472 3097 1187 3025 
Q 903 2953 641 2809 
L 641 3341 
Q 956 3463 1253 3523 
Q 1550 3584 1831 3584 
Q 2591 3584 2966 3190 
Q 3341 2797 3341 1997 
z
" transform="scale(0.015625)"/>
      <path id="DejaVuSans-63" d="M 3122 3366 
L 3122 2828 
Q 2878 2963 2633 3030 
Q 2388 3097 2138 3097 
Q 1578 3097 1268 2742 
Q 959 2388 959 1747 
Q 959 1106 1268 751 
Q 1578 397 2138 397 
Q 2388 397 2633 464 
Q 2878 531 3122 666 
L 3122 134 
Q 2881 22 2623 -34 
Q 2366 -91 2075 -91 
Q 1284 -91 818 406 
Q 353 903 353 1747 
Q 353 2603 823 3093 
Q 1294 3584 2113 3584 
Q 2378 3584 2631 3529 
Q 2884 3475 3122 3366 
z
" transform="scale(0.015625)"/>
      <path id="DejaVuSans-76" d="M 191 3500 
L 800 3500 
L 1894 563 
L 2988 3500 
L 3597 3500 
L 2284 0 
L 1503 0 
L 191 3500 
z
" transform="scale(0.015625)"/>
      <path id="DejaVuSans-20" transform="scale(0.015625)"/>
      <path id="DejaVuSans-64" d="M 2906 2969 
L 2906 4863 
L 3481 4863 
L 3481 0 
L 2906 0 
L 2906 525 
Q 2725 213 2448 61 
Q 2172 -91 1784 -91 
Q 1150 -91 751 415 
Q 353 922 353 1747 
Q 353 2572 751 3078 
Q 1150 3584 1784 3584 
Q 2172 3584 2448 3432 
Q 2725 3281 2906 2969 
z
M 947 1747 
Q 947 1113 1208 752 
Q 1469 391 1925 391 
Q 2381 391 2643 752 
Q 2906 1113 2906 1747 
Q 2906 2381 2643 2742 
Q 2381 3103 1925 3103 
Q 1469 3103 1208 2742 
Q 947 2381 947 1747 
z
" transform="scale(0.015625)"/>
      <path id="DejaVuSans-73" d="M 2834 3397 
L 2834 2853 
Q 2591 2978 2328 3040 
Q 2066 3103 1784 3103 
Q 1356 3103 1142 2972 
Q 928 2841 928 2578 
Q 928 2378 1081 2264 
Q 1234 2150 1697 2047 
L 1894 2003 
Q 2506 1872 2764 1633 
Q 3022 1394 3022 966 
Q 3022 478 2636 193 
Q 2250 -91 1575 -91 
Q 1294 -91 989 -36 
Q 684 19 347 128 
L 347 722 
Q 666 556 975 473 
Q 1284 391 1588 391 
Q 1994 391 2212 530 
Q 2431 669 2431 922 
Q 2431 1156 2273 1281 
Q 2116 1406 1581 1522 
L 1381 1569 
Q 847 1681 609 1914 
Q 372 2147 372 2553 
Q 372 3047 722 3315 
Q 1072 3584 1716 3584 
Q 2034 3584 2315 3537 
Q 2597 3491 2834 3397 
z
" transform="scale(0.015625)"/>
      <path id="DejaVuSans-6f" d="M 1959 3097 
Q 1497 3097 1228 2736 
Q 959 2375 959 1747 
Q 959 1119 1226 758 
Q 1494 397 1959 397 
Q 2419 397 2687 759 
Q 2956 1122 2956 1747 
Q 2956 2369 2687 2733 
Q 2419 3097 1959 3097 
z
M 1959 3584 
Q 2709 3584 3137 3096 
Q 3566 2609 3566 1747 
Q 3566 888 3137 398 
Q 2709 -91 1959 -91 
Q 1206 -91 779 398 
Q 353 888 353 1747 
Q 353 2609 779 3096 
Q 1206 3584 1959 3584 
z
" transform="scale(0.015625)"/>
     </defs>
     <use xlink:href="#DejaVuSans-69"/>
     <use xlink:href="#DejaVuSans-6e" transform="translate(27.783203 0)"/>
     <use xlink:href="#DejaVuSans-74" transform="translate(91.162109 0)"/>
     <use xlink:href="#DejaVuSans-65" transform="translate(130.371094 0)"/>
     <use xlink:href="#DejaVuSans-72" transform="translate(191.894531 0)"/>
     <use xlink:href="#DejaVuSans-61" transform="translate(233.007812 0)"/>
     <use xlink:href="#DejaVuSans-63" transform="translate(294.287109 0)"/>
     <use xlink:href="#DejaVuSans-74" transform="translate(349.267578 0)"/>
     <use xlink:href="#DejaVuSans-69" transform="translate(388.476562 0)"/>
     <use xlink:href="#DejaVuSans-76" transform="translate(416.259766 0)"/>
     <use xlink:href="#DejaVuSans-65" transform="translate(475.439453 0)"/>
     <use xlink:href="#DejaVuSans-20" transform="translate(536.962891 0)"/>
     <use xlink:href="#DejaVuSans-64" transform="translate(568.75 0)"/>
     <use xlink:href="#DejaVuSans-69" transform="translate(632.226562 0)"/>
     <use xlink:href="#DejaVuSans-73" transform="translate(660.009766 0)"/>
     <use xlink:href="#DejaVuSans-63" transform="translate(712.109375 0)"/>
     <use xlink:href="#DejaVuSans-6f" transform="translate(767.089844 0)"/>
     <use xlink:href="#DejaVuSans-76" transform="translate(828.271484 0)"/>
     <use xlink:href="#DejaVuSans-65" transform="translate(887.451172 0)"/>
     <use xlink:href="#DejaVuSans-72" transform="translate(948.974609 0)"/>
     <use xlink:href="#DejaVuSans-20" transform="translate(990.087891 0)"/>
     <use xlink:href="#DejaVuSans-32" transform="translate(1021.875 0)"/>
     <use xlink:href="#DejaVuSans-2e" transform="translate(1085.498047 0)"/>
     <use xlink:href="#DejaVuSans-34" transform="translate(1117.285156 0)"/>
    </g>
   </g>
   <g id="legend_1">
    <g id="patch_7">
     <path d="M 274.271563 302.584 
L 407.72 302.584 
Q 409.72 302.584 409.72 300.584 
L 409.72 154.80275 
Q 409.72 152.80275 407.72 152.80275 
L 274.271563 152.80275 
Q 272.271563 152.80275 272.271563 154.80275 
L 272.271563 300.584 
Q 272.271563 302.584 274.271563 302.584 
z
" style="fill: #ffffff; opacity: 0.8; stroke: #cccccc; stroke-linejoin: miter"/>
    </g>
    <g id="line2d_24">
     <path d="M 276.271563 160.901187 
L 286.271563 160.901187 
L 286.271563 160.901187 
L 296.271563 160.901187 
L 296.271563 160.901187 
" style="fill: none; stroke: #1f77b4; stroke-width: 1.5; stroke-linecap: square"/>
    </g>
    <g id="text_15">
     <!-- baseline -->
     <g transform="translate(304.271563 164.401187) scale(0.1 -0.1)">
      <defs>
       <path id="DejaVuSans-62" d="M 3116 1747 
Q 3116 2381 2855 2742 
Q 2594 3103 2138 3103 
Q 1681 3103 1420 2742 
Q 1159 2381 1159 1747 
Q 1159 1113 1420 752 
Q 1681 391 2138 391 
Q 2594 391 2855 752 
Q 3116 1113 3116 1747 
z
M 1159 2969 
Q 1341 3281 1617 3432 
Q 1894 3584 2278 3584 
Q 2916 3584 3314 3078 
Q 3713 2572 3713 1747 
Q 3713 922 3314 415 
Q 2916 -91 2278 -91 
Q 1894 -91 1617 61 
Q 1341 213 1159 525 
L 1159 0 
L 581 0 
L 581 4863 
L 1159 4863 
L 1159 2969 
z
" transform="scale(0.015625)"/>
       <path id="DejaVuSans-6c" d="M 603 4863 
L 1178 4863 
L 1178 0 
L 603 0 
L 603 4863 
z
" transform="scale(0.015625)"/>
      </defs>
      <use xlink:href="#DejaVuSans-62"/>
      <use xlink:href="#DejaVuSans-61" transform="translate(63.476562 0)"/>
      <use xlink:href="#DejaVuSans-73" transform="translate(124.755859 0)"/>
      <use xlink:href="#DejaVuSans-65" transform="translate(176.855469 0)"/>
      <use xlink:href="#DejaVuSans-6c" transform="translate(238.378906 0)"/>
      <use xlink:href="#DejaVuSans-69" transform="translate(266.162109 0)"/>
      <use xlink:href="#DejaVuSans-6e" transform="translate(293.945312 0)"/>
      <use xlink:href="#DejaVuSans-65" transform="translate(357.324219 0)"/>
     </g>
    </g>
    <g id="line2d_25">
     <path d="M 276.271563 175.579313 
L 286.271563 175.579313 
L 286.271563 175.579313 
L 296.271563 175.579313 
L 296.271563 175.579313 
" style="fill: none; stroke: #ff7f0e; stroke-width: 1.5; stroke-linecap: square"/>
    </g>
    <g id="text_16">
     <!-- overhead -->
     <g transform="translate(304.271563 179.079313) scale(0.1 -0.1)">
      <defs>
       <path id="DejaVuSans-68" d="M 3513 2113 
L 3513 0 
L 2938 0 
L 2938 2094 
Q 2938 2591 2744 2837 
Q 2550 3084 2163 3084 
Q 1697 3084 1428 2787 
Q 1159 2491 1159 1978 
L 1159 0 
L 581 0 
L 581 4863 
L 1159 4863 
L 1159 2956 
Q 1366 3272 1645 3428 
Q 1925 3584 2291 3584 
Q 2894 3584 3203 3211 
Q 3513 2838 3513 2113 
z
" transform="scale(0.015625)"/>
      </defs>
      <use xlink:href="#DejaVuSans-6f"/>
      <use xlink:href="#DejaVuSans-76" transform="translate(61.181641 0)"/>
      <use xlink:href="#DejaVuSans-65" transform="translate(120.361328 0)"/>
      <use xlink:href="#DejaVuSans-72" transform="translate(181.884766 0)"/>
      <use xlink:href="#DejaVuSans-68" transform="translate(221.248047 0)"/>
      <use xlink:href="#DejaVuSans-65" transform="translate(284.626953 0)"/>
      <use xlink:href="#DejaVuSans-61" transform="translate(346.150391 0)"/>
      <use xlink:href="#DejaVuSans-64" transform="translate(407.429688 0)"/>
     </g>
    </g>
    <g id="line2d_26">
     <path d="M 276.271563 190.257438 
L 286.271563 190.257438 
L 286.271563 190.257438 
L 296.271563 190.257438 
L 296.271563 190.257438 
" style="fill: none; stroke: #2ca02c; stroke-width: 1.5; stroke-linecap: square"/>
    </g>
    <g id="text_17">
     <!-- interval-100-once -->
     <g transform="translate(304.271563 193.757438) scale(0.1 -0.1)">
      <defs>
       <path id="DejaVuSans-2d" d="M 313 2009 
L 1997 2009 
L 1997 1497 
L 313 1497 
L 313 2009 
z
" transform="scale(0.015625)"/>
      </defs>
      <use xlink:href="#DejaVuSans-69"/>
      <use xlink:href="#DejaVuSans-6e" transform="translate(27.783203 0)"/>
      <use xlink:href="#DejaVuSans-74" transform="translate(91.162109 0)"/>
      <use xlink:href="#DejaVuSans-65" transform="translate(130.371094 0)"/>
      <use xlink:href="#DejaVuSans-72" transform="translate(191.894531 0)"/>
      <use xlink:href="#DejaVuSans-76" transform="translate(233.007812 0)"/>
      <use xlink:href="#DejaVuSans-61" transform="translate(292.1875 0)"/>
      <use xlink:href="#DejaVuSans-6c" transform="translate(353.466797 0)"/>
      <use xlink:href="#DejaVuSans-2d" transform="translate(381.25 0)"/>
      <use xlink:href="#DejaVuSans-31" transform="translate(417.333984 0)"/>
      <use xlink:href="#DejaVuSans-30" transform="translate(480.957031 0)"/>
      <use xlink:href="#DejaVuSans-30" transform="translate(544.580078 0)"/>
      <use xlink:href="#DejaVuSans-2d" transform="translate(608.203125 0)"/>
      <use xlink:href="#DejaVuSans-6f" transform="translate(646.162109 0)"/>
      <use xlink:href="#DejaVuSans-6e" transform="translate(707.34375 0)"/>
      <use xlink:href="#DejaVuSans-63" transform="translate(770.722656 0)"/>
      <use xlink:href="#DejaVuSans-65" transform="translate(825.703125 0)"/>
     </g>
    </g>
    <g id="line2d_27">
     <path d="M 276.271563 204.935563 
L 286.271563 204.935563 
L 286.271563 204.935563 
L 296.271563 204.935563 
L 296.271563 204.935563 
" style="fill: none; stroke: #d62728; stroke-width: 1.5; stroke-linecap: square"/>
    </g>
    <g id="text_18">
     <!-- interval-1000-once -->
     <g transform="translate(304.271563 208.435563) scale(0.1 -0.1)">
      <use xlink:href="#DejaVuSans-69"/>
      <use xlink:href="#DejaVuSans-6e" transform="translate(27.783203 0)"/>
      <use xlink:href="#DejaVuSans-74" transform="translate(91.162109 0)"/>
      <use xlink:href="#DejaVuSans-65" transform="translate(130.371094 0)"/>
      <use xlink:href="#DejaVuSans-72" transform="translate(191.894531 0)"/>
      <use xlink:href="#DejaVuSans-76" transform="translate(233.007812 0)"/>
      <use xlink:href="#DejaVuSans-61" transform="translate(292.1875 0)"/>
      <use xlink:href="#DejaVuSans-6c" transform="translate(353.466797 0)"/>
      <use xlink:href="#DejaVuSans-2d" transform="translate(381.25 0)"/>
      <use xlink:href="#DejaVuSans-31" transform="translate(417.333984 0)"/>
      <use xlink:href="#DejaVuSans-30" transform="translate(480.957031 0)"/>
      <use xlink:href="#DejaVuSans-30" transform="translate(544.580078 0)"/>
      <use xlink:href="#DejaVuSans-30" transform="translate(608.203125 0)"/>
      <use xlink:href="#DejaVuSans-2d" transform="translate(671.826172 0)"/>
      <use xlink:href="#DejaVuSans-6f" transform="translate(709.785156 0)"/>
      <use xlink:href="#DejaVuSans-6e" transform="translate(770.966797 0)"/>
      <use xlink:href="#DejaVuSans-63" transform="translate(834.345703 0)"/>
      <use xlink:href="#DejaVuSans-65" transform="translate(889.326172 0)"/>
     </g>
    </g>
    <g id="line2d_28">
     <path d="M 276.271563 219.613688 
L 286.271563 219.613688 
L 286.271563 219.613688 
L 296.271563 219.613688 
L 296.271563 219.613688 
" style="fill: none; stroke: #9467bd; stroke-width: 1.5; stroke-linecap: square"/>
    </g>
    <g id="text_19">
     <!-- interval-10000-once -->
     <g transform="translate(304.271563 223.113688) scale(0.1 -0.1)">
      <use xlink:href="#DejaVuSans-69"/>
      <use xlink:href="#DejaVuSans-6e" transform="translate(27.783203 0)"/>
      <use xlink:href="#DejaVuSans-74" transform="translate(91.162109 0)"/>
      <use xlink:href="#DejaVuSans-65" transform="translate(130.371094 0)"/>
      <use xlink:href="#DejaVuSans-72" transform="translate(191.894531 0)"/>
      <use xlink:href="#DejaVuSans-76" transform="translate(233.007812 0)"/>
      <use xlink:href="#DejaVuSans-61" transform="translate(292.1875 0)"/>
      <use xlink:href="#DejaVuSans-6c" transform="translate(353.466797 0)"/>
      <use xlink:href="#DejaVuSans-2d" transform="translate(381.25 0)"/>
      <use xlink:href="#DejaVuSans-31" transform="translate(417.333984 0)"/>
      <use xlink:href="#DejaVuSans-30" transform="translate(480.957031 0)"/>
      <use xlink:href="#DejaVuSans-30" transform="translate(544.580078 0)"/>
      <use xlink:href="#DejaVuSans-30" transform="translate(608.203125 0)"/>
      <use xlink:href="#DejaVuSans-30" transform="translate(671.826172 0)"/>
      <use xlink:href="#DejaVuSans-2d" transform="translate(735.449219 0)"/>
      <use xlink:href="#DejaVuSans-6f" transform="translate(773.408203 0)"/>
      <use xlink:href="#DejaVuSans-6e" transform="translate(834.589844 0)"/>
      <use xlink:href="#DejaVuSans-63" transform="translate(897.96875 0)"/>
      <use xlink:href="#DejaVuSans-65" transform="translate(952.949219 0)"/>
     </g>
    </g>
    <g id="line2d_29">
     <path d="M 276.271563 234.291812 
L 286.271563 234.291812 
L 286.271563 234.291812 
L 296.271563 234.291812 
L 296.271563 234.291812 
" style="fill: none; stroke: #8c564b; stroke-width: 1.5; stroke-linecap: square"/>
    </g>
    <g id="text_20">
     <!-- interval-2000-once -->
     <g transform="translate(304.271563 237.791812) scale(0.1 -0.1)">
      <use xlink:href="#DejaVuSans-69"/>
      <use xlink:href="#DejaVuSans-6e" transform="translate(27.783203 0)"/>
      <use xlink:href="#DejaVuSans-74" transform="translate(91.162109 0)"/>
      <use xlink:href="#DejaVuSans-65" transform="translate(130.371094 0)"/>
      <use xlink:href="#DejaVuSans-72" transform="translate(191.894531 0)"/>
      <use xlink:href="#DejaVuSans-76" transform="translate(233.007812 0)"/>
      <use xlink:href="#DejaVuSans-61" transform="translate(292.1875 0)"/>
      <use xlink:href="#DejaVuSans-6c" transform="translate(353.466797 0)"/>
      <use xlink:href="#DejaVuSans-2d" transform="translate(381.25 0)"/>
      <use xlink:href="#DejaVuSans-32" transform="translate(417.333984 0)"/>
      <use xlink:href="#DejaVuSans-30" transform="translate(480.957031 0)"/>
      <use xlink:href="#DejaVuSans-30" transform="translate(544.580078 0)"/>
      <use xlink:href="#DejaVuSans-30" transform="translate(608.203125 0)"/>
      <use xlink:href="#DejaVuSans-2d" transform="translate(671.826172 0)"/>
      <use xlink:href="#DejaVuSans-6f" transform="translate(709.785156 0)"/>
      <use xlink:href="#DejaVuSans-6e" transform="translate(770.966797 0)"/>
      <use xlink:href="#DejaVuSans-63" transform="translate(834.345703 0)"/>
      <use xlink:href="#DejaVuSans-65" transform="translate(889.326172 0)"/>
     </g>
    </g>
    <g id="line2d_30">
     <path d="M 276.271563 248.969938 
L 286.271563 248.969938 
L 286.271563 248.969938 
L 296.271563 248.969938 
L 296.271563 248.969938 
" style="fill: none; stroke: #e377c2; stroke-width: 1.5; stroke-linecap: square"/>
    </g>
    <g id="text_21">
     <!-- interval-20000-once -->
     <g transform="translate(304.271563 252.469938) scale(0.1 -0.1)">
      <use xlink:href="#DejaVuSans-69"/>
      <use xlink:href="#DejaVuSans-6e" transform="translate(27.783203 0)"/>
      <use xlink:href="#DejaVuSans-74" transform="translate(91.162109 0)"/>
      <use xlink:href="#DejaVuSans-65" transform="translate(130.371094 0)"/>
      <use xlink:href="#DejaVuSans-72" transform="translate(191.894531 0)"/>
      <use xlink:href="#DejaVuSans-76" transform="translate(233.007812 0)"/>
      <use xlink:href="#DejaVuSans-61" transform="translate(292.1875 0)"/>
      <use xlink:href="#DejaVuSans-6c" transform="translate(353.466797 0)"/>
      <use xlink:href="#DejaVuSans-2d" transform="translate(381.25 0)"/>
      <use xlink:href="#DejaVuSans-32" transform="translate(417.333984 0)"/>
      <use xlink:href="#DejaVuSans-30" transform="translate(480.957031 0)"/>
      <use xlink:href="#DejaVuSans-30" transform="translate(544.580078 0)"/>
      <use xlink:href="#DejaVuSans-30" transform="translate(608.203125 0)"/>
      <use xlink:href="#DejaVuSans-30" transform="translate(671.826172 0)"/>
      <use xlink:href="#DejaVuSans-2d" transform="translate(735.449219 0)"/>
      <use xlink:href="#DejaVuSans-6f" transform="translate(773.408203 0)"/>
      <use xlink:href="#DejaVuSans-6e" transform="translate(834.589844 0)"/>
      <use xlink:href="#DejaVuSans-63" transform="translate(897.96875 0)"/>
      <use xlink:href="#DejaVuSans-65" transform="translate(952.949219 0)"/>
     </g>
    </g>
    <g id="line2d_31">
     <path d="M 276.271563 263.648062 
L 286.271563 263.648062 
L 286.271563 263.648062 
L 296.271563 263.648062 
L 296.271563 263.648062 
" style="fill: none; stroke: #7f7f7f; stroke-width: 1.5; stroke-linecap: square"/>
    </g>
    <g id="text_22">
     <!-- interval-5000-once -->
     <g transform="translate(304.271563 267.148062) scale(0.1 -0.1)">
      <use xlink:href="#DejaVuSans-69"/>
      <use xlink:href="#DejaVuSans-6e" transform="translate(27.783203 0)"/>
      <use xlink:href="#DejaVuSans-74" transform="translate(91.162109 0)"/>
      <use xlink:href="#DejaVuSans-65" transform="translate(130.371094 0)"/>
      <use xlink:href="#DejaVuSans-72" transform="translate(191.894531 0)"/>
      <use xlink:href="#DejaVuSans-76" transform="translate(233.007812 0)"/>
      <use xlink:href="#DejaVuSans-61" transform="translate(292.1875 0)"/>
      <use xlink:href="#DejaVuSans-6c" transform="translate(353.466797 0)"/>
      <use xlink:href="#DejaVuSans-2d" transform="translate(381.25 0)"/>
      <use xlink:href="#DejaVuSans-35" transform="translate(417.333984 0)"/>
      <use xlink:href="#DejaVuSans-30" transform="translate(480.957031 0)"/>
      <use xlink:href="#DejaVuSans-30" transform="translate(544.580078 0)"/>
      <use xlink:href="#DejaVuSans-30" transform="translate(608.203125 0)"/>
      <use xlink:href="#DejaVuSans-2d" transform="translate(671.826172 0)"/>
      <use xlink:href="#DejaVuSans-6f" transform="translate(709.785156 0)"/>
      <use xlink:href="#DejaVuSans-6e" transform="translate(770.966797 0)"/>
      <use xlink:href="#DejaVuSans-63" transform="translate(834.345703 0)"/>
      <use xlink:href="#DejaVuSans-65" transform="translate(889.326172 0)"/>
     </g>
    </g>
    <g id="line2d_32">
     <path d="M 276.271563 278.326188 
L 286.271563 278.326188 
L 286.271563 278.326188 
L 296.271563 278.326188 
L 296.271563 278.326188 
" style="fill: none; stroke: #bcbd22; stroke-width: 1.5; stroke-linecap: square"/>
    </g>
    <g id="text_23">
     <!-- metadata-once -->
     <g transform="translate(304.271563 281.826188) scale(0.1 -0.1)">
      <defs>
       <path id="DejaVuSans-6d" d="M 3328 2828 
Q 3544 3216 3844 3400 
Q 4144 3584 4550 3584 
Q 5097 3584 5394 3201 
Q 5691 2819 5691 2113 
L 5691 0 
L 5113 0 
L 5113 2094 
Q 5113 2597 4934 2840 
Q 4756 3084 4391 3084 
Q 3944 3084 3684 2787 
Q 3425 2491 3425 1978 
L 3425 0 
L 2847 0 
L 2847 2094 
Q 2847 2600 2669 2842 
Q 2491 3084 2119 3084 
Q 1678 3084 1418 2786 
Q 1159 2488 1159 1978 
L 1159 0 
L 581 0 
L 581 3500 
L 1159 3500 
L 1159 2956 
Q 1356 3278 1631 3431 
Q 1906 3584 2284 3584 
Q 2666 3584 2933 3390 
Q 3200 3197 3328 2828 
z
" transform="scale(0.015625)"/>
      </defs>
      <use xlink:href="#DejaVuSans-6d"/>
      <use xlink:href="#DejaVuSans-65" transform="translate(97.412109 0)"/>
      <use xlink:href="#DejaVuSans-74" transform="translate(158.935547 0)"/>
      <use xlink:href="#DejaVuSans-61" transform="translate(198.144531 0)"/>
      <use xlink:href="#DejaVuSans-64" transform="translate(259.423828 0)"/>
      <use xlink:href="#DejaVuSans-61" transform="translate(322.900391 0)"/>
      <use xlink:href="#DejaVuSans-74" transform="translate(384.179688 0)"/>
      <use xlink:href="#DejaVuSans-61" transform="translate(423.388672 0)"/>
      <use xlink:href="#DejaVuSans-2d" transform="translate(484.667969 0)"/>
      <use xlink:href="#DejaVuSans-6f" transform="translate(522.626953 0)"/>
      <use xlink:href="#DejaVuSans-6e" transform="translate(583.808594 0)"/>
      <use xlink:href="#DejaVuSans-63" transform="translate(647.1875 0)"/>
      <use xlink:href="#DejaVuSans-65" transform="translate(702.167969 0)"/>
     </g>
    </g>
    <g id="line2d_33">
     <path d="M 276.271563 293.004312 
L 286.271563 293.004312 
L 286.271563 293.004312 
L 296.271563 293.004312 
L 296.271563 293.004312 
" style="fill: none; stroke: #17becf; stroke-width: 1.5; stroke-linecap: square"/>
    </g>
    <g id="text_24">
     <!-- metadata-unlimited -->
     <g transform="translate(304.271563 296.504312) scale(0.1 -0.1)">
      <defs>
       <path id="DejaVuSans-75" d="M 544 1381 
L 544 3500 
L 1119 3500 
L 1119 1403 
Q 1119 906 1312 657 
Q 1506 409 1894 409 
Q 2359 409 2629 706 
Q 2900 1003 2900 1516 
L 2900 3500 
L 3475 3500 
L 3475 0 
L 2900 0 
L 2900 538 
Q 2691 219 2414 64 
Q 2138 -91 1772 -91 
Q 1169 -91 856 284 
Q 544 659 544 1381 
z
M 1991 3584 
L 1991 3584 
z
" transform="scale(0.015625)"/>
      </defs>
      <use xlink:href="#DejaVuSans-6d"/>
      <use xlink:href="#DejaVuSans-65" transform="translate(97.412109 0)"/>
      <use xlink:href="#DejaVuSans-74" transform="translate(158.935547 0)"/>
      <use xlink:href="#DejaVuSans-61" transform="translate(198.144531 0)"/>
      <use xlink:href="#DejaVuSans-64" transform="translate(259.423828 0)"/>
      <use xlink:href="#DejaVuSans-61" transform="translate(322.900391 0)"/>
      <use xlink:href="#DejaVuSans-74" transform="translate(384.179688 0)"/>
      <use xlink:href="#DejaVuSans-61" transform="translate(423.388672 0)"/>
      <use xlink:href="#DejaVuSans-2d" transform="translate(484.667969 0)"/>
      <use xlink:href="#DejaVuSans-75" transform="translate(520.751953 0)"/>
      <use xlink:href="#DejaVuSans-6e" transform="translate(584.130859 0)"/>
      <use xlink:href="#DejaVuSans-6c" transform="translate(647.509766 0)"/>
      <use xlink:href="#DejaVuSans-69" transform="translate(675.292969 0)"/>
      <use xlink:href="#DejaVuSans-6d" transform="translate(703.076172 0)"/>
      <use xlink:href="#DejaVuSans-69" transform="translate(800.488281 0)"/>
      <use xlink:href="#DejaVuSans-74" transform="translate(828.271484 0)"/>
      <use xlink:href="#DejaVuSans-65" transform="translate(867.480469 0)"/>
      <use xlink:href="#DejaVuSans-64" transform="translate(929.003906 0)"/>
     </g>
    </g>
   </g>
  </g>
 </g>
 <defs>
  <clipPath id="p8a5bb219e5">
   <rect x="57.6" y="41.472" width="357.12" height="266.112"/>
  </clipPath>
 </defs>
</svg>
