<?xml version="1.0" encoding="utf-8" standalone="no"?>
<!DOCTYPE svg PUBLIC "-//W3C//DTD SVG 1.1//EN"
  "http://www.w3.org/Graphics/SVG/1.1/DTD/svg11.dtd">
<svg xmlns:xlink="http://www.w3.org/1999/xlink" width="460.8pt" height="345.6pt" viewBox="0 0 460.8 345.6" xmlns="http://www.w3.org/2000/svg" version="1.1">
 <metadata>
  <rdf:RDF xmlns:dc="http://purl.org/dc/elements/1.1/" xmlns:cc="http://creativecommons.org/ns#" xmlns:rdf="http://www.w3.org/1999/02/22-rdf-syntax-ns#">
   <cc:Work>
    <dc:type rdf:resource="http://purl.org/dc/dcmitype/StillImage"/>
    <dc:date>2025-05-01T19:45:44.977222</dc:date>
    <dc:format>image/svg+xml</dc:format>
    <dc:creator>
     <cc:Agent>
      <dc:title>Matplotlib v3.10.1, https://matplotlib.org/</dc:title>
     </cc:Agent>
    </dc:creator>
   </cc:Work>
  </rdf:RDF>
 </metadata>
 <defs>
  <style type="text/css">*{stroke-linejoin: round; stroke-linecap: butt}</style>
 </defs>
 <g id="figure_1">
  <g id="patch_1">
   <path d="M 0 345.6 
L 460.8 345.6 
L 460.8 0 
L 0 0 
z
" style="fill: #ffffff"/>
  </g>
  <g id="axes_1">
   <g id="patch_2">
    <path d="M 57.6 307.584 
L 414.72 307.584 
L 414.72 41.472 
L 57.6 41.472 
z
" style="fill: #ffffff"/>
   </g>
   <g id="matplotlib.axis_1">
    <g id="xtick_1">
     <g id="line2d_1">
      <defs>
       <path id="m13babe1b6c" d="M 0 0 
L 0 3.5 
" style="stroke: #000000; stroke-width: 0.8"/>
      </defs>
      <g>
       <use xlink:href="#m13babe1b6c" x="129.979399" y="307.584" style="stroke: #000000; stroke-width: 0.8"/>
      </g>
     </g>
     <g id="text_1">
      <!-- 0.5 -->
      <g transform="translate(122.027837 322.182437) scale(0.1 -0.1)">
       <defs>
        <path id="DejaVuSans-30" d="M 2034 4250 
Q 1547 4250 1301 3770 
Q 1056 3291 1056 2328 
Q 1056 1369 1301 889 
Q 1547 409 2034 409 
Q 2525 409 2770 889 
Q 3016 1369 3016 2328 
Q 3016 3291 2770 3770 
Q 2525 4250 2034 4250 
z
M 2034 4750 
Q 2819 4750 3233 4129 
Q 3647 3509 3647 2328 
Q 3647 1150 3233 529 
Q 2819 -91 2034 -91 
Q 1250 -91 836 529 
Q 422 1150 422 2328 
Q 422 3509 836 4129 
Q 1250 4750 2034 4750 
z
" transform="scale(0.015625)"/>
        <path id="DejaVuSans-2e" d="M 684 794 
L 1344 794 
L 1344 0 
L 684 0 
L 684 794 
z
" transform="scale(0.015625)"/>
        <path id="DejaVuSans-35" d="M 691 4666 
L 3169 4666 
L 3169 4134 
L 1269 4134 
L 1269 2991 
Q 1406 3038 1543 3061 
Q 1681 3084 1819 3084 
Q 2600 3084 3056 2656 
Q 3513 2228 3513 1497 
Q 3513 744 3044 326 
Q 2575 -91 1722 -91 
Q 1428 -91 1123 -41 
Q 819 9 494 109 
L 494 744 
Q 775 591 1075 516 
Q 1375 441 1709 441 
Q 2250 441 2565 725 
Q 2881 1009 2881 1497 
Q 2881 1984 2565 2268 
Q 2250 2553 1709 2553 
Q 1456 2553 1204 2497 
Q 953 2441 691 2322 
L 691 4666 
z
" transform="scale(0.015625)"/>
       </defs>
       <use xlink:href="#DejaVuSans-30"/>
       <use xlink:href="#DejaVuSans-2e" transform="translate(63.623047 0)"/>
       <use xlink:href="#DejaVuSans-35" transform="translate(95.410156 0)"/>
      </g>
     </g>
    </g>
    <g id="xtick_2">
     <g id="line2d_2">
      <g>
       <use xlink:href="#m13babe1b6c" x="205.445356" y="307.584" style="stroke: #000000; stroke-width: 0.8"/>
      </g>
     </g>
     <g id="text_2">
      <!-- 1.0 -->
      <g transform="translate(197.493793 322.182437) scale(0.1 -0.1)">
       <defs>
        <path id="DejaVuSans-31" d="M 794 531 
L 1825 531 
L 1825 4091 
L 703 3866 
L 703 4441 
L 1819 4666 
L 2450 4666 
L 2450 531 
L 3481 531 
L 3481 0 
L 794 0 
L 794 531 
z
" transform="scale(0.015625)"/>
       </defs>
       <use xlink:href="#DejaVuSans-31"/>
       <use xlink:href="#DejaVuSans-2e" transform="translate(63.623047 0)"/>
       <use xlink:href="#DejaVuSans-30" transform="translate(95.410156 0)"/>
      </g>
     </g>
    </g>
    <g id="xtick_3">
     <g id="line2d_3">
      <g>
       <use xlink:href="#m13babe1b6c" x="280.911312" y="307.584" style="stroke: #000000; stroke-width: 0.8"/>
      </g>
     </g>
     <g id="text_3">
      <!-- 1.5 -->
      <g transform="translate(272.95975 322.182437) scale(0.1 -0.1)">
       <use xlink:href="#DejaVuSans-31"/>
       <use xlink:href="#DejaVuSans-2e" transform="translate(63.623047 0)"/>
       <use xlink:href="#DejaVuSans-35" transform="translate(95.410156 0)"/>
      </g>
     </g>
    </g>
    <g id="xtick_4">
     <g id="line2d_4">
      <g>
       <use xlink:href="#m13babe1b6c" x="356.377269" y="307.584" style="stroke: #000000; stroke-width: 0.8"/>
      </g>
     </g>
     <g id="text_4">
      <!-- 2.0 -->
      <g transform="translate(348.425706 322.182437) scale(0.1 -0.1)">
       <defs>
        <path id="DejaVuSans-32" d="M 1228 531 
L 3431 531 
L 3431 0 
L 469 0 
L 469 531 
Q 828 903 1448 1529 
Q 2069 2156 2228 2338 
Q 2531 2678 2651 2914 
Q 2772 3150 2772 3378 
Q 2772 3750 2511 3984 
Q 2250 4219 1831 4219 
Q 1534 4219 1204 4116 
Q 875 4013 500 3803 
L 500 4441 
Q 881 4594 1212 4672 
Q 1544 4750 1819 4750 
Q 2544 4750 2975 4387 
Q 3406 4025 3406 3419 
Q 3406 3131 3298 2873 
Q 3191 2616 2906 2266 
Q 2828 2175 2409 1742 
Q 1991 1309 1228 531 
z
" transform="scale(0.015625)"/>
       </defs>
       <use xlink:href="#DejaVuSans-32"/>
       <use xlink:href="#DejaVuSans-2e" transform="translate(63.623047 0)"/>
       <use xlink:href="#DejaVuSans-30" transform="translate(95.410156 0)"/>
      </g>
     </g>
    </g>
   </g>
   <g id="matplotlib.axis_2">
    <g id="ytick_1">
     <g id="line2d_5">
      <defs>
       <path id="m1d5529139f" d="M 0 0 
L -3.5 0 
" style="stroke: #000000; stroke-width: 0.8"/>
      </defs>
      <g>
       <use xlink:href="#m1d5529139f" x="57.6" y="296.71602" style="stroke: #000000; stroke-width: 0.8"/>
      </g>
     </g>
     <g id="text_5">
      <!-- 0 -->
      <g transform="translate(44.2375 300.515239) scale(0.1 -0.1)">
       <use xlink:href="#DejaVuSans-30"/>
      </g>
     </g>
    </g>
    <g id="ytick_2">
     <g id="line2d_6">
      <g>
       <use xlink:href="#m1d5529139f" x="57.6" y="266.015513" style="stroke: #000000; stroke-width: 0.8"/>
      </g>
     </g>
     <g id="text_6">
      <!-- 25 -->
      <g transform="translate(37.875 269.814731) scale(0.1 -0.1)">
       <use xlink:href="#DejaVuSans-32"/>
       <use xlink:href="#DejaVuSans-35" transform="translate(63.623047 0)"/>
      </g>
     </g>
    </g>
    <g id="ytick_3">
     <g id="line2d_7">
      <g>
       <use xlink:href="#m1d5529139f" x="57.6" y="235.315005" style="stroke: #000000; stroke-width: 0.8"/>
      </g>
     </g>
     <g id="text_7">
      <!-- 50 -->
      <g transform="translate(37.875 239.114224) scale(0.1 -0.1)">
       <use xlink:href="#DejaVuSans-35"/>
       <use xlink:href="#DejaVuSans-30" transform="translate(63.623047 0)"/>
      </g>
     </g>
    </g>
    <g id="ytick_4">
     <g id="line2d_8">
      <g>
       <use xlink:href="#m1d5529139f" x="57.6" y="204.614497" style="stroke: #000000; stroke-width: 0.8"/>
      </g>
     </g>
     <g id="text_8">
      <!-- 75 -->
      <g transform="translate(37.875 208.413716) scale(0.1 -0.1)">
       <defs>
        <path id="DejaVuSans-37" d="M 525 4666 
L 3525 4666 
L 3525 4397 
L 1831 0 
L 1172 0 
L 2766 4134 
L 525 4134 
L 525 4666 
z
" transform="scale(0.015625)"/>
       </defs>
       <use xlink:href="#DejaVuSans-37"/>
       <use xlink:href="#DejaVuSans-35" transform="translate(63.623047 0)"/>
      </g>
     </g>
    </g>
    <g id="ytick_5">
     <g id="line2d_9">
      <g>
       <use xlink:href="#m1d5529139f" x="57.6" y="173.91399" style="stroke: #000000; stroke-width: 0.8"/>
      </g>
     </g>
     <g id="text_9">
      <!-- 100 -->
      <g transform="translate(31.5125 177.713209) scale(0.1 -0.1)">
       <use xlink:href="#DejaVuSans-31"/>
       <use xlink:href="#DejaVuSans-30" transform="translate(63.623047 0)"/>
       <use xlink:href="#DejaVuSans-30" transform="translate(127.246094 0)"/>
      </g>
     </g>
    </g>
    <g id="ytick_6">
     <g id="line2d_10">
      <g>
       <use xlink:href="#m1d5529139f" x="57.6" y="143.213482" style="stroke: #000000; stroke-width: 0.8"/>
      </g>
     </g>
     <g id="text_10">
      <!-- 125 -->
      <g transform="translate(31.5125 147.012701) scale(0.1 -0.1)">
       <use xlink:href="#DejaVuSans-31"/>
       <use xlink:href="#DejaVuSans-32" transform="translate(63.623047 0)"/>
       <use xlink:href="#DejaVuSans-35" transform="translate(127.246094 0)"/>
      </g>
     </g>
    </g>
    <g id="ytick_7">
     <g id="line2d_11">
      <g>
       <use xlink:href="#m1d5529139f" x="57.6" y="112.512975" style="stroke: #000000; stroke-width: 0.8"/>
      </g>
     </g>
     <g id="text_11">
      <!-- 150 -->
      <g transform="translate(31.5125 116.312193) scale(0.1 -0.1)">
       <use xlink:href="#DejaVuSans-31"/>
       <use xlink:href="#DejaVuSans-35" transform="translate(63.623047 0)"/>
       <use xlink:href="#DejaVuSans-30" transform="translate(127.246094 0)"/>
      </g>
     </g>
    </g>
    <g id="ytick_8">
     <g id="line2d_12">
      <g>
       <use xlink:href="#m1d5529139f" x="57.6" y="81.812467" style="stroke: #000000; stroke-width: 0.8"/>
      </g>
     </g>
     <g id="text_12">
      <!-- 175 -->
      <g transform="translate(31.5125 85.611686) scale(0.1 -0.1)">
       <use xlink:href="#DejaVuSans-31"/>
       <use xlink:href="#DejaVuSans-37" transform="translate(63.623047 0)"/>
       <use xlink:href="#DejaVuSans-35" transform="translate(127.246094 0)"/>
      </g>
     </g>
    </g>
    <g id="ytick_9">
     <g id="line2d_13">
      <g>
       <use xlink:href="#m1d5529139f" x="57.6" y="51.111959" style="stroke: #000000; stroke-width: 0.8"/>
      </g>
     </g>
     <g id="text_13">
      <!-- 200 -->
      <g transform="translate(31.5125 54.911178) scale(0.1 -0.1)">
       <use xlink:href="#DejaVuSans-32"/>
       <use xlink:href="#DejaVuSans-30" transform="translate(63.623047 0)"/>
       <use xlink:href="#DejaVuSans-30" transform="translate(127.246094 0)"/>
      </g>
     </g>
    </g>
   </g>
   <g id="line2d_14">
    <path d="M 80.926527 295.488 
L 84.548893 295.488 
L 84.548893 290.575919 
L 84.850757 290.575919 
L 84.850757 288.119878 
L 85.001689 288.119878 
L 85.001689 281.979777 
L 85.152621 281.979777 
L 85.152621 279.523736 
L 198.502488 279.523736 
L 198.502488 274.611655 
L 198.65342 274.611655 
L 198.65342 272.155614 
L 203.785105 272.155614 
L 203.785105 267.243533 
L 203.936037 267.243533 
L 203.936037 262.331452 
L 204.086968 262.331452 
L 204.086968 259.875411 
L 204.690696 259.875411 
L 204.690696 256.19135 
L 208.16213 256.19135 
L 208.16213 251.279269 
L 208.614926 251.279269 
L 208.614926 250.051249 
L 209.067722 250.051249 
L 209.067722 245.139168 
L 209.520517 245.139168 
L 209.520517 242.683127 
L 209.973313 242.683127 
L 209.973313 241.455107 
L 210.124245 241.455107 
L 210.124245 237.771046 
L 210.275177 237.771046 
L 210.275177 234.086985 
L 211.3317 234.086985 
L 211.3317 229.174904 
L 211.482632 229.174904 
L 211.482632 225.490843 
L 211.633564 225.490843 
L 211.633564 224.262822 
L 212.08636 224.262822 
L 212.08636 219.350741 
L 212.237292 219.350741 
L 212.237292 218.122721 
L 212.388224 218.122721 
L 212.388224 213.21064 
L 212.539156 213.21064 
L 212.539156 211.982619 
L 212.991951 211.982619 
L 212.991951 209.526579 
L 213.444747 209.526579 
L 213.444747 204.614497 
L 213.897543 204.614497 
L 213.897543 202.158457 
L 219.029228 202.158457 
L 219.029228 199.702416 
L 219.482024 199.702416 
L 219.482024 194.790335 
L 219.934819 194.790335 
L 219.934819 191.106274 
L 220.387615 191.106274 
L 220.387615 186.194193 
L 223.10439 186.194193 
L 223.10439 181.282112 
L 223.557185 181.282112 
L 223.557185 177.598051 
L 225.066504 177.598051 
L 225.066504 173.91399 
L 225.5193 173.91399 
L 225.5193 172.68597 
L 226.726755 172.68597 
L 226.726755 167.773888 
L 234.273351 167.773888 
L 234.273351 166.545868 
L 234.424283 166.545868 
L 234.424283 164.089827 
L 235.028011 164.089827 
L 235.028011 159.177746 
L 235.329874 159.177746 
L 235.329874 157.949726 
L 236.990126 157.949726 
L 236.990126 155.493685 
L 237.291989 155.493685 
L 237.291989 153.037645 
L 237.442921 153.037645 
L 237.442921 150.581604 
L 237.895717 150.581604 
L 237.895717 148.125563 
L 238.499445 148.125563 
L 238.499445 144.441503 
L 239.555968 144.441503 
L 239.555968 140.757442 
L 240.159696 140.757442 
L 240.159696 138.301401 
L 240.763423 138.301401 
L 240.763423 133.38932 
L 241.065287 133.38932 
L 241.065287 130.933279 
L 241.367151 130.933279 
L 241.367151 127.249218 
L 241.669015 127.249218 
L 241.669015 123.565157 
L 242.423674 123.565157 
L 242.423674 118.653076 
L 242.725538 118.653076 
L 242.725538 117.425056 
L 242.87647 117.425056 
L 242.87647 114.969015 
L 243.480198 114.969015 
L 243.480198 110.056934 
L 243.782062 110.056934 
L 243.782062 108.828914 
L 244.234857 108.828914 
L 244.234857 103.916832 
L 249.366542 103.916832 
L 249.366542 101.460792 
L 249.668406 101.460792 
L 249.668406 96.548711 
L 249.819338 96.548711 
L 249.819338 94.09267 
L 250.423066 94.09267 
L 250.423066 89.180589 
L 250.573998 89.180589 
L 250.573998 87.952569 
L 251.026793 87.952569 
L 251.026793 84.268508 
L 251.328657 84.268508 
L 251.328657 83.040487 
L 251.932385 83.040487 
L 251.932385 78.128406 
L 252.234249 78.128406 
L 252.234249 75.672365 
L 252.687045 75.672365 
L 252.687045 74.444345 
L 252.837976 74.444345 
L 252.837976 70.760284 
L 253.13984 70.760284 
L 253.13984 69.532264 
L 253.290772 69.532264 
L 253.290772 64.620183 
L 253.441704 64.620183 
L 253.441704 56.024041 
L 253.592636 56.024041 
L 253.592636 53.568 
L 253.592636 53.568 
" clip-path="url(#pb1497c40ce)" style="fill: none; stroke: #1f77b4; stroke-width: 1.5; stroke-linecap: square"/>
   </g>
   <g id="line2d_15">
    <path d="M 75.191114 295.488 
L 103.566314 295.488 
L 103.566314 290.575919 
L 104.170042 290.575919 
L 104.170042 288.119878 
L 104.320974 288.119878 
L 104.320974 279.523736 
L 166.504922 279.523736 
L 166.504922 275.839675 
L 167.410514 275.839675 
L 167.410514 270.927594 
L 167.863309 270.927594 
L 167.863309 269.699574 
L 168.316105 269.699574 
L 168.316105 264.787492 
L 170.27822 264.787492 
L 170.27822 261.103431 
L 171.334743 261.103431 
L 171.334743 257.419371 
L 172.542199 257.419371 
L 172.542199 252.507289 
L 216.01059 252.507289 
L 216.01059 247.595208 
L 217.972704 247.595208 
L 217.972704 242.683127 
L 222.651594 242.683127 
L 222.651594 241.455107 
L 222.802526 241.455107 
L 222.802526 240.227086 
L 231.85844 240.227086 
L 231.85844 236.543025 
L 243.027402 236.543025 
L 243.027402 234.086985 
L 243.329266 234.086985 
L 243.329266 229.174904 
L 243.932994 229.174904 
L 243.932994 227.946883 
L 244.838585 227.946883 
L 244.838585 223.034802 
L 244.989517 223.034802 
L 244.989517 218.122721 
L 245.291381 218.122721 
L 245.291381 214.43866 
L 252.988908 214.43866 
L 252.988908 209.526579 
L 254.347296 209.526579 
L 254.347296 204.614497 
L 254.498227 204.614497 
L 254.498227 199.702416 
L 254.800091 199.702416 
L 254.800091 194.790335 
L 254.951023 194.790335 
L 254.951023 193.562315 
L 255.403819 193.562315 
L 255.403819 188.650234 
L 255.856615 188.650234 
L 255.856615 183.738152 
L 256.007547 183.738152 
L 256.007547 181.282112 
L 256.30941 181.282112 
L 256.30941 176.37003 
L 256.913138 176.37003 
L 256.913138 172.68597 
L 257.215002 172.68597 
L 257.215002 169.001909 
L 258.120593 169.001909 
L 258.120593 164.089827 
L 258.271525 164.089827 
L 258.271525 160.405766 
L 258.573389 160.405766 
L 258.573389 157.949726 
L 259.026185 157.949726 
L 259.026185 153.037645 
L 259.177117 153.037645 
L 259.177117 150.581604 
L 259.629913 150.581604 
L 259.629913 148.125563 
L 260.23364 148.125563 
L 260.23364 143.213482 
L 260.384572 143.213482 
L 260.384572 141.985462 
L 260.686436 141.985462 
L 260.686436 138.301401 
L 267.931168 138.301401 
L 267.931168 134.61734 
L 268.0821 134.61734 
L 268.0821 133.38932 
L 268.233032 133.38932 
L 268.233032 130.933279 
L 268.685827 130.933279 
L 268.685827 126.021198 
L 268.987691 126.021198 
L 268.987691 121.109117 
L 269.440487 121.109117 
L 269.440487 117.425056 
L 270.044215 117.425056 
L 270.044215 114.969015 
L 270.49701 114.969015 
L 270.49701 111.284954 
L 270.647942 111.284954 
L 270.647942 108.828914 
L 271.100738 108.828914 
L 271.100738 103.916832 
L 271.25167 103.916832 
L 271.25167 102.688812 
L 271.402602 102.688812 
L 271.402602 96.548711 
L 272.006329 96.548711 
L 272.006329 92.86465 
L 272.459125 92.86465 
L 272.459125 90.408609 
L 273.062853 90.408609 
L 273.062853 86.724548 
L 273.364717 86.724548 
L 273.364717 81.812467 
L 273.968444 81.812467 
L 273.968444 79.356426 
L 274.42124 79.356426 
L 274.42124 74.444345 
L 274.572172 74.444345 
L 274.572172 73.216325 
L 274.874036 73.216325 
L 274.874036 68.304244 
L 275.1759 68.304244 
L 275.1759 57.252061 
L 275.326831 57.252061 
L 275.326831 53.568 
L 275.326831 53.568 
" clip-path="url(#pb1497c40ce)" style="fill: none; stroke: #ff7f0e; stroke-width: 1.5; stroke-linecap: square"/>
   </g>
   <g id="line2d_16">
    <path d="M 84.699825 295.488 
L 84.699825 294.25998 
L 84.850757 294.25998 
L 84.850757 293.031959 
L 85.001689 293.031959 
L 85.001689 288.119878 
L 85.152621 288.119878 
L 85.152621 279.523736 
L 322.719452 279.523736 
L 322.719452 278.295716 
L 323.32318 278.295716 
L 323.32318 277.067695 
L 323.474112 277.067695 
L 323.474112 275.839675 
L 323.625044 275.839675 
L 323.625044 274.611655 
L 323.775976 274.611655 
L 323.775976 273.383635 
L 324.077839 273.383635 
L 324.077839 272.155614 
L 324.530635 272.155614 
L 324.530635 270.927594 
L 324.681567 270.927594 
L 324.681567 262.331452 
L 325.889022 262.331452 
L 325.889022 253.73531 
L 336.001461 253.73531 
L 336.001461 252.507289 
L 336.454256 252.507289 
L 336.454256 251.279269 
L 337.963576 251.279269 
L 337.963576 250.051249 
L 340.68035 250.051249 
L 340.68035 248.823228 
L 340.831282 248.823228 
L 340.831282 247.595208 
L 340.982214 247.595208 
L 340.982214 246.367188 
L 341.133146 246.367188 
L 341.133146 245.139168 
L 341.284078 245.139168 
L 341.284078 243.911147 
L 341.43501 243.911147 
L 341.43501 238.999066 
L 341.585941 238.999066 
L 341.585941 232.858964 
L 341.736873 232.858964 
L 341.736873 214.43866 
L 342.189669 214.43866 
L 342.189669 209.526579 
L 349.283469 209.526579 
L 349.283469 208.298558 
L 349.736265 208.298558 
L 349.736265 207.070538 
L 350.18906 207.070538 
L 350.18906 205.842518 
L 352.302107 205.842518 
L 352.302107 204.614497 
L 352.453039 204.614497 
L 352.453039 203.386477 
L 352.603971 203.386477 
L 352.603971 202.158457 
L 352.905835 202.158457 
L 352.905835 199.702416 
L 353.056767 199.702416 
L 353.056767 188.650234 
L 353.207699 188.650234 
L 353.207699 169.001909 
L 354.415154 169.001909 
L 354.415154 165.317848 
L 356.377269 165.317848 
L 356.377269 164.089827 
L 357.131928 164.089827 
L 357.131928 162.861807 
L 366.338775 162.861807 
L 366.338775 161.633787 
L 366.640639 161.633787 
L 366.640639 160.405766 
L 366.942503 160.405766 
L 366.942503 159.177746 
L 367.093435 159.177746 
L 367.093435 157.949726 
L 367.244367 157.949726 
L 367.244367 156.721706 
L 367.546231 156.721706 
L 367.546231 151.809624 
L 367.697162 151.809624 
L 367.697162 140.757442 
L 367.848094 140.757442 
L 367.848094 137.073381 
L 367.999026 137.073381 
L 367.999026 128.477239 
L 368.602754 128.477239 
L 368.602754 126.021198 
L 368.753686 126.021198 
L 368.753686 118.653076 
L 379.620784 118.653076 
L 379.620784 117.425056 
L 380.677307 117.425056 
L 380.677307 116.197036 
L 382.186626 116.197036 
L 382.186626 114.969015 
L 383.243149 114.969015 
L 383.243149 113.740995 
L 385.507128 113.740995 
L 385.507128 112.512975 
L 385.808992 112.512975 
L 385.808992 111.284954 
L 386.110856 111.284954 
L 386.110856 110.056934 
L 386.261788 110.056934 
L 386.261788 108.828914 
L 393.657452 108.828914 
L 393.657452 107.600893 
L 393.808383 107.600893 
L 393.808383 106.372873 
L 394.110247 106.372873 
L 394.110247 97.776731 
L 394.412111 97.776731 
L 394.412111 84.268508 
L 394.864907 84.268508 
L 394.864907 70.760284 
L 395.770498 70.760284 
L 395.770498 68.304244 
L 396.67609 68.304244 
L 396.67609 65.848203 
L 397.581681 65.848203 
L 397.581681 64.620183 
L 397.732613 64.620183 
L 397.732613 60.936122 
L 398.487273 60.936122 
L 398.487273 53.568 
L 398.487273 53.568 
" clip-path="url(#pb1497c40ce)" style="fill: none; stroke: #2ca02c; stroke-width: 1.5; stroke-linecap: square"/>
   </g>
   <g id="line2d_17">
    <path d="M 80.473731 295.488 
L 82.888642 295.488 
L 82.888642 294.25998 
L 83.039574 294.25998 
L 83.039574 291.803939 
L 83.190506 291.803939 
L 83.190506 286.891858 
L 83.341438 286.891858 
L 83.341438 279.523736 
L 289.665363 279.523736 
L 289.665363 278.295716 
L 289.816295 278.295716 
L 289.816295 277.067695 
L 289.967227 277.067695 
L 289.967227 275.839675 
L 290.118159 275.839675 
L 290.118159 273.383635 
L 290.269091 273.383635 
L 290.269091 262.331452 
L 291.325614 262.331452 
L 291.325614 256.19135 
L 292.985865 256.19135 
L 292.985865 254.96333 
L 293.136797 254.96333 
L 293.136797 253.73531 
L 301.136189 253.73531 
L 301.136189 252.507289 
L 301.739916 252.507289 
L 301.739916 251.279269 
L 302.04178 251.279269 
L 302.04178 250.051249 
L 302.343644 250.051249 
L 302.343644 248.823228 
L 302.494576 248.823228 
L 302.494576 247.595208 
L 302.645508 247.595208 
L 302.645508 246.367188 
L 302.79644 246.367188 
L 302.79644 240.227086 
L 302.947372 240.227086 
L 302.947372 227.946883 
L 303.098304 227.946883 
L 303.098304 216.894701 
L 303.852963 216.894701 
L 303.852963 209.526579 
L 307.173465 209.526579 
L 307.173465 208.298558 
L 308.079057 208.298558 
L 308.079057 207.070538 
L 308.682784 207.070538 
L 308.682784 205.842518 
L 317.285903 205.842518 
L 317.285903 204.614497 
L 317.587767 204.614497 
L 317.587767 203.386477 
L 317.889631 203.386477 
L 317.889631 202.158457 
L 318.342427 202.158457 
L 318.342427 200.930437 
L 318.493359 200.930437 
L 318.493359 198.474396 
L 318.946154 198.474396 
L 318.946154 186.194193 
L 319.097086 186.194193 
L 319.097086 175.14201 
L 319.248018 175.14201 
L 319.248018 162.861807 
L 320.002678 162.861807 
L 320.002678 157.949726 
L 322.115725 157.949726 
L 322.115725 156.721706 
L 323.021316 156.721706 
L 323.021316 155.493685 
L 331.926299 155.493685 
L 331.926299 154.265665 
L 332.228163 154.265665 
L 332.228163 153.037645 
L 332.530027 153.037645 
L 332.530027 151.809624 
L 333.133754 151.809624 
L 333.133754 150.581604 
L 333.284686 150.581604 
L 333.284686 149.353584 
L 333.435618 149.353584 
L 333.435618 144.441503 
L 333.58655 144.441503 
L 333.58655 133.38932 
L 333.737482 133.38932 
L 333.737482 121.109117 
L 334.944937 121.109117 
L 334.944937 111.284954 
L 337.208916 111.284954 
L 337.208916 110.056934 
L 346.113899 110.056934 
L 346.113899 108.828914 
L 347.472286 108.828914 
L 347.472286 107.600893 
L 348.226946 107.600893 
L 348.226946 106.372873 
L 349.736265 106.372873 
L 349.736265 105.144853 
L 349.887197 105.144853 
L 349.887197 102.688812 
L 350.038129 102.688812 
L 350.038129 100.232772 
L 350.18906 100.232772 
L 350.18906 86.724548 
L 350.339992 86.724548 
L 350.339992 70.760284 
L 350.490924 70.760284 
L 350.490924 60.936122 
L 350.641856 60.936122 
L 350.641856 58.480081 
L 360.754294 58.480081 
L 360.754294 53.568 
L 360.754294 53.568 
" clip-path="url(#pb1497c40ce)" style="fill: none; stroke: #d62728; stroke-width: 1.5; stroke-linecap: square"/>
   </g>
   <g id="line2d_18">
    <path d="M 73.832727 295.488 
L 82.133983 295.488 
L 82.133983 294.25998 
L 82.284914 294.25998 
L 82.284914 291.803939 
L 82.73771 291.803939 
L 82.73771 286.891858 
L 82.888642 286.891858 
L 82.888642 283.207797 
L 83.039574 283.207797 
L 83.039574 281.979777 
L 83.190506 281.979777 
L 83.190506 280.751756 
L 83.341438 280.751756 
L 83.341438 279.523736 
L 205.143492 279.523736 
L 205.143492 278.295716 
L 206.049083 278.295716 
L 206.049083 277.067695 
L 206.350947 277.067695 
L 206.350947 275.839675 
L 206.501879 275.839675 
L 206.501879 274.611655 
L 206.652811 274.611655 
L 206.652811 273.383635 
L 206.803743 273.383635 
L 206.803743 269.699574 
L 206.954675 269.699574 
L 206.954675 258.647391 
L 207.256539 258.647391 
L 207.256539 250.051249 
L 207.407471 250.051249 
L 207.407471 248.823228 
L 213.746611 248.823228 
L 213.746611 247.595208 
L 214.199407 247.595208 
L 214.199407 246.367188 
L 214.50127 246.367188 
L 214.50127 245.139168 
L 215.104998 245.139168 
L 215.104998 243.911147 
L 215.859658 243.911147 
L 215.859658 241.455107 
L 216.01059 241.455107 
L 216.01059 240.227086 
L 216.161521 240.227086 
L 216.161521 235.315005 
L 216.312453 235.315005 
L 216.312453 223.034802 
L 216.463385 223.034802 
L 216.463385 210.754599 
L 217.218045 210.754599 
L 217.218045 202.158457 
L 219.18016 202.158457 
L 219.18016 200.930437 
L 219.632955 200.930437 
L 219.632955 199.702416 
L 219.934819 199.702416 
L 219.934819 198.474396 
L 228.387006 198.474396 
L 228.387006 197.246376 
L 228.537938 197.246376 
L 228.537938 196.018355 
L 228.68887 196.018355 
L 228.68887 194.790335 
L 228.839802 194.790335 
L 228.839802 192.334294 
L 228.990734 192.334294 
L 228.990734 189.878254 
L 229.141666 189.878254 
L 229.141666 178.826071 
L 229.292598 178.826071 
L 229.292598 167.773888 
L 229.44353 167.773888 
L 229.44353 165.317848 
L 229.594462 165.317848 
L 229.594462 155.493685 
L 229.896326 155.493685 
L 229.896326 154.265665 
L 230.801917 154.265665 
L 230.801917 153.037645 
L 230.952849 153.037645 
L 230.952849 151.809624 
L 231.254713 151.809624 
L 231.254713 150.581604 
L 233.216828 150.581604 
L 233.216828 149.353584 
L 233.518692 149.353584 
L 233.518692 146.897543 
L 233.669623 146.897543 
L 233.669623 145.669523 
L 233.820555 145.669523 
L 233.820555 143.213482 
L 233.971487 143.213482 
L 233.971487 129.705259 
L 234.122419 129.705259 
L 234.122419 117.425056 
L 234.424283 117.425056 
L 234.424283 105.144853 
L 234.877079 105.144853 
L 234.877079 102.688812 
L 244.234857 102.688812 
L 244.234857 101.460792 
L 244.687653 101.460792 
L 244.687653 100.232772 
L 246.498836 100.232772 
L 246.498836 99.004751 
L 246.649768 99.004751 
L 246.649768 97.776731 
L 246.8007 97.776731 
L 246.8007 95.32069 
L 246.951632 95.32069 
L 246.951632 89.180589 
L 247.102564 89.180589 
L 247.102564 56.024041 
L 247.253496 56.024041 
L 247.253496 53.568 
L 247.253496 53.568 
" clip-path="url(#pb1497c40ce)" style="fill: none; stroke: #9467bd; stroke-width: 1.5; stroke-linecap: square"/>
   </g>
   <g id="line2d_19">
    <path d="M 107.792408 295.488 
L 107.792408 294.25998 
L 107.94334 294.25998 
L 107.94334 290.575919 
L 108.094272 290.575919 
L 108.094272 281.979777 
L 108.245203 281.979777 
L 108.245203 279.523736 
L 237.895717 279.523736 
L 237.895717 278.295716 
L 238.348513 278.295716 
L 238.348513 277.067695 
L 238.499445 277.067695 
L 238.499445 275.839675 
L 238.801308 275.839675 
L 238.801308 274.611655 
L 238.95224 274.611655 
L 238.95224 272.155614 
L 239.103172 272.155614 
L 239.103172 268.471553 
L 239.254104 268.471553 
L 239.254104 257.419371 
L 239.555968 257.419371 
L 239.555968 251.279269 
L 240.46156 251.279269 
L 240.46156 250.051249 
L 240.914355 250.051249 
L 240.914355 248.823228 
L 243.932994 248.823228 
L 243.932994 247.595208 
L 244.083925 247.595208 
L 244.083925 246.367188 
L 244.536721 246.367188 
L 244.536721 245.139168 
L 244.687653 245.139168 
L 244.687653 243.911147 
L 244.838585 243.911147 
L 244.838585 242.683127 
L 251.177725 242.683127 
L 251.177725 237.771046 
L 251.328657 237.771046 
L 251.328657 236.543025 
L 251.479589 236.543025 
L 251.479589 225.490843 
L 251.630521 225.490843 
L 251.630521 224.262822 
L 251.781453 224.262822 
L 251.781453 213.21064 
L 252.687045 213.21064 
L 252.687045 210.754599 
L 252.837976 210.754599 
L 252.837976 208.298558 
L 254.347296 208.298558 
L 254.347296 207.070538 
L 254.951023 207.070538 
L 254.951023 205.842518 
L 256.007547 205.842518 
L 256.007547 204.614497 
L 267.176508 204.614497 
L 267.176508 203.386477 
L 267.629304 203.386477 
L 267.629304 202.158457 
L 267.780236 202.158457 
L 267.780236 200.930437 
L 267.931168 200.930437 
L 267.931168 199.702416 
L 268.0821 199.702416 
L 268.0821 198.474396 
L 268.233032 198.474396 
L 268.233032 191.106274 
L 268.383963 191.106274 
L 268.383963 182.510132 
L 268.534895 182.510132 
L 268.534895 178.826071 
L 268.836759 178.826071 
L 268.836759 177.598051 
L 268.987691 177.598051 
L 268.987691 167.773888 
L 269.742351 167.773888 
L 269.742351 164.089827 
L 271.704466 164.089827 
L 271.704466 162.861807 
L 272.760989 162.861807 
L 272.760989 161.633787 
L 283.024359 161.633787 
L 283.024359 160.405766 
L 283.175291 160.405766 
L 283.175291 159.177746 
L 283.477155 159.177746 
L 283.477155 157.949726 
L 283.628087 157.949726 
L 283.628087 156.721706 
L 283.779019 156.721706 
L 283.779019 155.493685 
L 284.080882 155.493685 
L 284.080882 150.581604 
L 284.231814 150.581604 
L 284.231814 139.529421 
L 284.382746 139.529421 
L 284.382746 134.61734 
L 284.533678 134.61734 
L 284.533678 127.249218 
L 284.986474 127.249218 
L 284.986474 117.425056 
L 286.646725 117.425056 
L 286.646725 116.197036 
L 286.948589 116.197036 
L 286.948589 114.969015 
L 287.552316 114.969015 
L 287.552316 113.740995 
L 287.85418 113.740995 
L 287.85418 112.512975 
L 288.910704 112.512975 
L 288.910704 110.056934 
L 289.061636 110.056934 
L 289.061636 107.600893 
L 289.212568 107.600893 
L 289.212568 105.144853 
L 289.363499 105.144853 
L 289.363499 95.32069 
L 296.457299 95.32069 
L 296.457299 92.86465 
L 296.608231 92.86465 
L 296.608231 81.812467 
L 296.910095 81.812467 
L 296.910095 68.304244 
L 297.664755 68.304244 
L 297.664755 65.848203 
L 297.815687 65.848203 
L 297.815687 64.620183 
L 298.268482 64.620183 
L 298.268482 53.568 
L 298.268482 53.568 
" clip-path="url(#pb1497c40ce)" style="fill: none; stroke: #8c564b; stroke-width: 1.5; stroke-linecap: square"/>
   </g>
   <g id="line2d_20">
    <path d="M 86.360076 295.488 
L 91.793625 295.488 
L 91.793625 294.25998 
L 93.152012 294.25998 
L 93.152012 293.031959 
L 114.886208 293.031959 
L 114.886208 291.803939 
L 117.904846 291.803939 
L 117.904846 290.575919 
L 122.734667 290.575919 
L 122.734667 289.347898 
L 123.187463 289.347898 
L 123.187463 286.891858 
L 123.338395 286.891858 
L 123.338395 281.979777 
L 123.489327 281.979777 
L 123.489327 279.523736 
L 231.405645 279.523736 
L 231.405645 278.295716 
L 231.707509 278.295716 
L 231.707509 277.067695 
L 232.009372 277.067695 
L 232.009372 275.839675 
L 232.160304 275.839675 
L 232.160304 274.611655 
L 232.311236 274.611655 
L 232.311236 273.383635 
L 232.462168 273.383635 
L 232.462168 272.155614 
L 232.6131 272.155614 
L 232.6131 266.015513 
L 232.764032 266.015513 
L 232.764032 254.96333 
L 233.518692 254.96333 
L 233.518692 248.823228 
L 235.480806 248.823228 
L 235.480806 247.595208 
L 235.631738 247.595208 
L 235.631738 246.367188 
L 236.53733 246.367188 
L 236.53733 245.139168 
L 245.744176 245.139168 
L 245.744176 243.911147 
L 246.04604 243.911147 
L 246.04604 242.683127 
L 246.196972 242.683127 
L 246.196972 241.455107 
L 246.347904 241.455107 
L 246.347904 240.227086 
L 246.498836 240.227086 
L 246.498836 238.999066 
L 246.649768 238.999066 
L 246.649768 237.771046 
L 246.8007 237.771046 
L 246.8007 230.402924 
L 246.951632 230.402924 
L 246.951632 219.350741 
L 247.102564 219.350741 
L 247.102564 207.070538 
L 247.555359 207.070538 
L 247.555359 202.158457 
L 248.762815 202.158457 
L 248.762815 200.930437 
L 249.668406 200.930437 
L 249.668406 199.702416 
L 249.97027 199.702416 
L 249.97027 198.474396 
L 251.177725 198.474396 
L 251.177725 197.246376 
L 251.479589 197.246376 
L 251.479589 194.790335 
L 251.630521 194.790335 
L 251.630521 191.106274 
L 258.120593 191.106274 
L 258.120593 178.826071 
L 258.271525 178.826071 
L 258.271525 155.493685 
L 258.573389 155.493685 
L 258.573389 150.581604 
L 259.629913 150.581604 
L 259.629913 149.353584 
L 259.931776 149.353584 
L 259.931776 148.125563 
L 261.742959 148.125563 
L 261.742959 146.897543 
L 261.893891 146.897543 
L 261.893891 145.669523 
L 262.044823 145.669523 
L 262.044823 143.213482 
L 262.195755 143.213482 
L 262.195755 141.985462 
L 262.346687 141.985462 
L 262.346687 126.021198 
L 262.497619 126.021198 
L 262.497619 113.740995 
L 262.950415 113.740995 
L 262.950415 103.916832 
L 264.15787 103.916832 
L 264.15787 102.688812 
L 264.761598 102.688812 
L 264.761598 101.460792 
L 265.214393 101.460792 
L 265.214393 100.232772 
L 273.515649 100.232772 
L 273.515649 99.004751 
L 274.42124 99.004751 
L 274.42124 96.548711 
L 274.572172 96.548711 
L 274.572172 95.32069 
L 274.723104 95.32069 
L 274.723104 79.356426 
L 274.874036 79.356426 
L 274.874036 53.568 
L 274.874036 53.568 
" clip-path="url(#pb1497c40ce)" style="fill: none; stroke: #e377c2; stroke-width: 1.5; stroke-linecap: square"/>
   </g>
   <g id="line2d_21">
    <path d="M 81.077459 295.488 
L 129.677535 295.488 
L 129.677535 294.25998 
L 129.828467 294.25998 
L 129.828467 293.031959 
L 129.979399 293.031959 
L 129.979399 291.803939 
L 130.130331 291.803939 
L 130.130331 284.435817 
L 130.281263 284.435817 
L 130.281263 280.751756 
L 130.432195 280.751756 
L 130.432195 279.523736 
L 159.411122 279.523736 
L 159.411122 277.067695 
L 159.562054 277.067695 
L 159.562054 270.927594 
L 159.712986 270.927594 
L 159.712986 262.331452 
L 160.316714 262.331452 
L 160.316714 261.103431 
L 160.467645 261.103431 
L 160.467645 259.875411 
L 160.618577 259.875411 
L 160.618577 257.419371 
L 161.071373 257.419371 
L 161.071373 250.051249 
L 161.222305 250.051249 
L 161.222305 246.367188 
L 161.373237 246.367188 
L 161.373237 245.139168 
L 248.008155 245.139168 
L 248.008155 243.911147 
L 252.687045 243.911147 
L 252.687045 242.683127 
L 252.837976 242.683127 
L 252.837976 241.455107 
L 252.988908 241.455107 
L 252.988908 238.999066 
L 253.441704 238.999066 
L 253.441704 231.630944 
L 260.837368 231.630944 
L 260.837368 225.490843 
L 261.742959 225.490843 
L 261.742959 224.262822 
L 261.893891 224.262822 
L 261.893891 223.034802 
L 262.195755 223.034802 
L 262.195755 221.806782 
L 262.497619 221.806782 
L 262.497619 220.578761 
L 264.15787 220.578761 
L 264.15787 219.350741 
L 264.308802 219.350741 
L 264.308802 218.122721 
L 264.459734 218.122721 
L 264.459734 216.894701 
L 264.610666 216.894701 
L 264.610666 213.21064 
L 264.761598 213.21064 
L 264.761598 189.878254 
L 265.063461 189.878254 
L 265.063461 181.282112 
L 266.119985 181.282112 
L 266.119985 180.054091 
L 266.421849 180.054091 
L 266.421849 178.826071 
L 266.723712 178.826071 
L 266.723712 177.598051 
L 267.176508 177.598051 
L 267.176508 176.37003 
L 268.0821 176.37003 
L 268.0821 173.91399 
L 268.233032 173.91399 
L 268.233032 171.457949 
L 268.383963 171.457949 
L 268.383963 169.001909 
L 268.534895 169.001909 
L 268.534895 160.405766 
L 268.685827 160.405766 
L 268.685827 149.353584 
L 268.836759 149.353584 
L 268.836759 137.073381 
L 268.987691 137.073381 
L 268.987691 132.161299 
L 270.346078 132.161299 
L 270.346078 130.933279 
L 270.49701 130.933279 
L 270.49701 129.705259 
L 277.138014 129.705259 
L 277.138014 128.477239 
L 280.609448 128.477239 
L 280.609448 127.249218 
L 280.76038 127.249218 
L 280.76038 126.021198 
L 281.062244 126.021198 
L 281.062244 124.793178 
L 281.213176 124.793178 
L 281.213176 123.565157 
L 281.364108 123.565157 
L 281.364108 122.337137 
L 281.51504 122.337137 
L 281.51504 119.881096 
L 281.816904 119.881096 
L 281.816904 118.653076 
L 281.967836 118.653076 
L 281.967836 107.600893 
L 282.2697 107.600893 
L 282.2697 94.09267 
L 282.873427 94.09267 
L 282.873427 85.496528 
L 283.024359 85.496528 
L 283.024359 84.268508 
L 284.68461 84.268508 
L 284.68461 83.040487 
L 290.872819 83.040487 
L 290.872819 81.812467 
L 291.174682 81.812467 
L 291.174682 80.584447 
L 291.929342 80.584447 
L 291.929342 76.900386 
L 292.080274 76.900386 
L 292.080274 63.392162 
L 292.231206 63.392162 
L 292.231206 53.568 
L 292.231206 53.568 
" clip-path="url(#pb1497c40ce)" style="fill: none; stroke: #7f7f7f; stroke-width: 1.5; stroke-linecap: square"/>
   </g>
   <g id="line2d_22">
    <path d="M 96.774378 295.488 
L 127.866352 295.488 
L 127.866352 289.347898 
L 128.017284 289.347898 
L 128.017284 281.979777 
L 128.168216 281.979777 
L 128.168216 279.523736 
L 325.436227 279.523736 
L 325.436227 278.295716 
L 325.738091 278.295716 
L 325.738091 277.067695 
L 326.039954 277.067695 
L 326.039954 275.839675 
L 326.341818 275.839675 
L 326.341818 274.611655 
L 326.794614 274.611655 
L 326.794614 273.383635 
L 327.24741 273.383635 
L 327.24741 270.927594 
L 327.398342 270.927594 
L 327.398342 268.471553 
L 327.549273 268.471553 
L 327.549273 259.875411 
L 327.700205 259.875411 
L 327.700205 242.683127 
L 327.851137 242.683127 
L 327.851137 218.122721 
L 328.002069 218.122721 
L 328.002069 204.614497 
L 328.756729 204.614497 
L 328.756729 196.018355 
L 352.754903 196.018355 
L 352.754903 194.790335 
L 358.339384 194.790335 
L 358.339384 193.562315 
L 358.943111 193.562315 
L 358.943111 192.334294 
L 359.244975 192.334294 
L 359.244975 191.106274 
L 372.677916 191.106274 
L 372.677916 183.738152 
L 372.828847 183.738152 
L 372.828847 170.229929 
L 373.130711 170.229929 
L 373.130711 165.317848 
L 373.281643 165.317848 
L 373.281643 156.721706 
L 373.432575 156.721706 
L 373.432575 143.213482 
L 373.583507 143.213482 
L 373.583507 128.477239 
L 373.734439 128.477239 
L 373.734439 122.337137 
L 373.885371 122.337137 
L 373.885371 114.969015 
L 374.187235 114.969015 
L 374.187235 101.460792 
L 374.489099 101.460792 
L 374.489099 87.952569 
L 382.790354 87.952569 
L 382.790354 74.444345 
L 383.092218 74.444345 
L 383.092218 58.480081 
L 383.243149 58.480081 
L 383.243149 53.568 
L 383.243149 53.568 
" clip-path="url(#pb1497c40ce)" style="fill: none; stroke: #bcbd22; stroke-width: 1.5; stroke-linecap: square"/>
   </g>
   <g id="line2d_23">
    <path d="M 76.096706 295.488 
L 87.114736 295.488 
L 87.114736 294.25998 
L 90.435238 294.25998 
L 90.435238 291.803939 
L 90.58617 291.803939 
L 90.58617 290.575919 
L 90.737102 290.575919 
L 90.737102 289.347898 
L 91.038965 289.347898 
L 91.038965 288.119878 
L 91.189897 288.119878 
L 91.189897 284.435817 
L 91.340829 284.435817 
L 91.340829 279.523736 
L 241.065287 279.523736 
L 241.065287 278.295716 
L 241.518083 278.295716 
L 241.518083 277.067695 
L 241.669015 277.067695 
L 241.669015 274.611655 
L 241.819947 274.611655 
L 241.819947 272.155614 
L 241.970879 272.155614 
L 241.970879 264.787492 
L 242.423674 264.787492 
L 242.423674 258.647391 
L 243.480198 258.647391 
L 243.480198 257.419371 
L 243.782062 257.419371 
L 243.782062 256.19135 
L 254.649159 256.19135 
L 254.649159 254.96333 
L 254.800091 254.96333 
L 254.800091 253.73531 
L 255.101955 253.73531 
L 255.101955 251.279269 
L 255.252887 251.279269 
L 255.252887 246.367188 
L 255.403819 246.367188 
L 255.403819 223.034802 
L 256.007547 223.034802 
L 256.007547 216.894701 
L 257.81873 216.894701 
L 257.81873 215.66668 
L 258.271525 215.66668 
L 258.271525 214.43866 
L 269.138623 214.43866 
L 269.138623 213.21064 
L 269.289555 213.21064 
L 269.289555 211.982619 
L 269.591419 211.982619 
L 269.591419 210.754599 
L 269.893283 210.754599 
L 269.893283 209.526579 
L 270.044215 209.526579 
L 270.044215 208.298558 
L 270.195146 208.298558 
L 270.195146 205.842518 
L 270.346078 205.842518 
L 270.346078 193.562315 
L 270.647942 193.562315 
L 270.647942 182.510132 
L 271.402602 182.510132 
L 271.402602 172.68597 
L 275.024968 172.68597 
L 275.024968 171.457949 
L 275.628695 171.457949 
L 275.628695 170.229929 
L 276.232423 170.229929 
L 276.232423 169.001909 
L 276.685219 169.001909 
L 276.685219 167.773888 
L 277.741742 167.773888 
L 277.741742 166.545868 
L 277.892674 166.545868 
L 277.892674 165.317848 
L 278.043606 165.317848 
L 278.043606 164.089827 
L 278.194538 164.089827 
L 278.194538 160.405766 
L 278.34547 160.405766 
L 278.34547 138.301401 
L 278.496402 138.301401 
L 278.496402 127.249218 
L 278.798266 127.249218 
L 278.798266 124.793178 
L 284.382746 124.793178 
L 284.382746 123.565157 
L 284.68461 123.565157 
L 284.68461 122.337137 
L 285.137406 122.337137 
L 285.137406 121.109117 
L 286.646725 121.109117 
L 286.646725 119.881096 
L 286.948589 119.881096 
L 286.948589 117.425056 
L 287.099521 117.425056 
L 287.099521 116.197036 
L 287.250453 116.197036 
L 287.250453 114.969015 
L 287.401385 114.969015 
L 287.401385 112.512975 
L 287.552316 112.512975 
L 287.552316 100.232772 
L 287.703248 100.232772 
L 287.703248 85.496528 
L 288.005112 85.496528 
L 288.005112 75.672365 
L 288.759772 75.672365 
L 288.759772 74.444345 
L 289.212568 74.444345 
L 289.212568 73.216325 
L 289.363499 73.216325 
L 289.363499 71.988305 
L 298.570346 71.988305 
L 298.570346 53.568 
L 298.570346 53.568 
" clip-path="url(#pb1497c40ce)" style="fill: none; stroke: #17becf; stroke-width: 1.5; stroke-linecap: square"/>
   </g>
   <g id="patch_3">
    <path d="M 57.6 307.584 
L 57.6 41.472 
" style="fill: none; stroke: #000000; stroke-width: 0.8; stroke-linejoin: miter; stroke-linecap: square"/>
   </g>
   <g id="patch_4">
    <path d="M 414.72 307.584 
L 414.72 41.472 
" style="fill: none; stroke: #000000; stroke-width: 0.8; stroke-linejoin: miter; stroke-linecap: square"/>
   </g>
   <g id="patch_5">
    <path d="M 57.6 307.584 
L 414.72 307.584 
" style="fill: none; stroke: #000000; stroke-width: 0.8; stroke-linejoin: miter; stroke-linecap: square"/>
   </g>
   <g id="patch_6">
    <path d="M 57.6 41.472 
L 414.72 41.472 
" style="fill: none; stroke: #000000; stroke-width: 0.8; stroke-linejoin: miter; stroke-linecap: square"/>
   </g>
   <g id="text_14">
    <!-- interactive discover 2.3 -->
    <g transform="translate(165.304688 35.472) scale(0.12 -0.12)">
     <defs>
      <path id="DejaVuSans-69" d="M 603 3500 
L 1178 3500 
L 1178 0 
L 603 0 
L 603 3500 
z
M 603 4863 
L 1178 4863 
L 1178 4134 
L 603 4134 
L 603 4863 
z
" transform="scale(0.015625)"/>
      <path id="DejaVuSans-6e" d="M 3513 2113 
L 3513 0 
L 2938 0 
L 2938 2094 
Q 2938 2591 2744 2837 
Q 2550 3084 2163 3084 
Q 1697 3084 1428 2787 
Q 1159 2491 1159 1978 
L 1159 0 
L 581 0 
L 581 3500 
L 1159 3500 
L 1159 2956 
Q 1366 3272 1645 3428 
Q 1925 3584 2291 3584 
Q 2894 3584 3203 3211 
Q 3513 2838 3513 2113 
z
" transform="scale(0.015625)"/>
      <path id="DejaVuSans-74" d="M 1172 4494 
L 1172 3500 
L 2356 3500 
L 2356 3053 
L 1172 3053 
L 1172 1153 
Q 1172 725 1289 603 
Q 1406 481 1766 481 
L 2356 481 
L 2356 0 
L 1766 0 
Q 1100 0 847 248 
Q 594 497 594 1153 
L 594 3053 
L 172 3053 
L 172 3500 
L 594 3500 
L 594 4494 
L 1172 4494 
z
" transform="scale(0.015625)"/>
      <path id="DejaVuSans-65" d="M 3597 1894 
L 3597 1613 
L 953 1613 
Q 991 1019 1311 708 
Q 1631 397 2203 397 
Q 2534 397 2845 478 
Q 3156 559 3463 722 
L 3463 178 
Q 3153 47 2828 -22 
Q 2503 -91 2169 -91 
Q 1331 -91 842 396 
Q 353 884 353 1716 
Q 353 2575 817 3079 
Q 1281 3584 2069 3584 
Q 2775 3584 3186 3129 
Q 3597 2675 3597 1894 
z
M 3022 2063 
Q 3016 2534 2758 2815 
Q 2500 3097 2075 3097 
Q 1594 3097 1305 2825 
Q 1016 2553 972 2059 
L 3022 2063 
z
" transform="scale(0.015625)"/>
      <path id="DejaVuSans-72" d="M 2631 2963 
Q 2534 3019 2420 3045 
Q 2306 3072 2169 3072 
Q 1681 3072 1420 2755 
Q 1159 2438 1159 1844 
L 1159 0 
L 581 0 
L 581 3500 
L 1159 3500 
L 1159 2956 
Q 1341 3275 1631 3429 
Q 1922 3584 2338 3584 
Q 2397 3584 2469 3576 
Q 2541 3569 2628 3553 
L 2631 2963 
z
" transform="scale(0.015625)"/>
      <path id="DejaVuSans-61" d="M 2194 1759 
Q 1497 1759 1228 1600 
Q 959 1441 959 1056 
Q 959 750 1161 570 
Q 1363 391 1709 391 
Q 2188 391 2477 730 
Q 2766 1069 2766 1631 
L 2766 1759 
L 2194 1759 
z
M 3341 1997 
L 3341 0 
L 2766 0 
L 2766 531 
Q 2569 213 2275 61 
Q 1981 -91 1556 -91 
Q 1019 -91 701 211 
Q 384 513 384 1019 
Q 384 1609 779 1909 
Q 1175 2209 1959 2209 
L 2766 2209 
L 2766 2266 
Q 2766 2663 2505 2880 
Q 2244 3097 1772 3097 
Q 1472 3097 1187 3025 
Q 903 2953 641 2809 
L 641 3341 
Q 956 3463 1253 3523 
Q 1550 3584 1831 3584 
Q 2591 3584 2966 3190 
Q 3341 2797 3341 1997 
z
" transform="scale(0.015625)"/>
      <path id="DejaVuSans-63" d="M 3122 3366 
L 3122 2828 
Q 2878 2963 2633 3030 
Q 2388 3097 2138 3097 
Q 1578 3097 1268 2742 
Q 959 2388 959 1747 
Q 959 1106 1268 751 
Q 1578 397 2138 397 
Q 2388 397 2633 464 
Q 2878 531 3122 666 
L 3122 134 
Q 2881 22 2623 -34 
Q 2366 -91 2075 -91 
Q 1284 -91 818 406 
Q 353 903 353 1747 
Q 353 2603 823 3093 
Q 1294 3584 2113 3584 
Q 2378 3584 2631 3529 
Q 2884 3475 3122 3366 
z
" transform="scale(0.015625)"/>
      <path id="DejaVuSans-76" d="M 191 3500 
L 800 3500 
L 1894 563 
L 2988 3500 
L 3597 3500 
L 2284 0 
L 1503 0 
L 191 3500 
z
" transform="scale(0.015625)"/>
      <path id="DejaVuSans-20" transform="scale(0.015625)"/>
      <path id="DejaVuSans-64" d="M 2906 2969 
L 2906 4863 
L 3481 4863 
L 3481 0 
L 2906 0 
L 2906 525 
Q 2725 213 2448 61 
Q 2172 -91 1784 -91 
Q 1150 -91 751 415 
Q 353 922 353 1747 
Q 353 2572 751 3078 
Q 1150 3584 1784 3584 
Q 2172 3584 2448 3432 
Q 2725 3281 2906 2969 
z
M 947 1747 
Q 947 1113 1208 752 
Q 1469 391 1925 391 
Q 2381 391 2643 752 
Q 2906 1113 2906 1747 
Q 2906 2381 2643 2742 
Q 2381 3103 1925 3103 
Q 1469 3103 1208 2742 
Q 947 2381 947 1747 
z
" transform="scale(0.015625)"/>
      <path id="DejaVuSans-73" d="M 2834 3397 
L 2834 2853 
Q 2591 2978 2328 3040 
Q 2066 3103 1784 3103 
Q 1356 3103 1142 2972 
Q 928 2841 928 2578 
Q 928 2378 1081 2264 
Q 1234 2150 1697 2047 
L 1894 2003 
Q 2506 1872 2764 1633 
Q 3022 1394 3022 966 
Q 3022 478 2636 193 
Q 2250 -91 1575 -91 
Q 1294 -91 989 -36 
Q 684 19 347 128 
L 347 722 
Q 666 556 975 473 
Q 1284 391 1588 391 
Q 1994 391 2212 530 
Q 2431 669 2431 922 
Q 2431 1156 2273 1281 
Q 2116 1406 1581 1522 
L 1381 1569 
Q 847 1681 609 1914 
Q 372 2147 372 2553 
Q 372 3047 722 3315 
Q 1072 3584 1716 3584 
Q 2034 3584 2315 3537 
Q 2597 3491 2834 3397 
z
" transform="scale(0.015625)"/>
      <path id="DejaVuSans-6f" d="M 1959 3097 
Q 1497 3097 1228 2736 
Q 959 2375 959 1747 
Q 959 1119 1226 758 
Q 1494 397 1959 397 
Q 2419 397 2687 759 
Q 2956 1122 2956 1747 
Q 2956 2369 2687 2733 
Q 2419 3097 1959 3097 
z
M 1959 3584 
Q 2709 3584 3137 3096 
Q 3566 2609 3566 1747 
Q 3566 888 3137 398 
Q 2709 -91 1959 -91 
Q 1206 -91 779 398 
Q 353 888 353 1747 
Q 353 2609 779 3096 
Q 1206 3584 1959 3584 
z
" transform="scale(0.015625)"/>
      <path id="DejaVuSans-33" d="M 2597 2516 
Q 3050 2419 3304 2112 
Q 3559 1806 3559 1356 
Q 3559 666 3084 287 
Q 2609 -91 1734 -91 
Q 1441 -91 1130 -33 
Q 819 25 488 141 
L 488 750 
Q 750 597 1062 519 
Q 1375 441 1716 441 
Q 2309 441 2620 675 
Q 2931 909 2931 1356 
Q 2931 1769 2642 2001 
Q 2353 2234 1838 2234 
L 1294 2234 
L 1294 2753 
L 1863 2753 
Q 2328 2753 2575 2939 
Q 2822 3125 2822 3475 
Q 2822 3834 2567 4026 
Q 2313 4219 1838 4219 
Q 1578 4219 1281 4162 
Q 984 4106 628 3988 
L 628 4550 
Q 988 4650 1302 4700 
Q 1616 4750 1894 4750 
Q 2613 4750 3031 4423 
Q 3450 4097 3450 3541 
Q 3450 3153 3228 2886 
Q 3006 2619 2597 2516 
z
" transform="scale(0.015625)"/>
     </defs>
     <use xlink:href="#DejaVuSans-69"/>
     <use xlink:href="#DejaVuSans-6e" transform="translate(27.783203 0)"/>
     <use xlink:href="#DejaVuSans-74" transform="translate(91.162109 0)"/>
     <use xlink:href="#DejaVuSans-65" transform="translate(130.371094 0)"/>
     <use xlink:href="#DejaVuSans-72" transform="translate(191.894531 0)"/>
     <use xlink:href="#DejaVuSans-61" transform="translate(233.007812 0)"/>
     <use xlink:href="#DejaVuSans-63" transform="translate(294.287109 0)"/>
     <use xlink:href="#DejaVuSans-74" transform="translate(349.267578 0)"/>
     <use xlink:href="#DejaVuSans-69" transform="translate(388.476562 0)"/>
     <use xlink:href="#DejaVuSans-76" transform="translate(416.259766 0)"/>
     <use xlink:href="#DejaVuSans-65" transform="translate(475.439453 0)"/>
     <use xlink:href="#DejaVuSans-20" transform="translate(536.962891 0)"/>
     <use xlink:href="#DejaVuSans-64" transform="translate(568.75 0)"/>
     <use xlink:href="#DejaVuSans-69" transform="translate(632.226562 0)"/>
     <use xlink:href="#DejaVuSans-73" transform="translate(660.009766 0)"/>
     <use xlink:href="#DejaVuSans-63" transform="translate(712.109375 0)"/>
     <use xlink:href="#DejaVuSans-6f" transform="translate(767.089844 0)"/>
     <use xlink:href="#DejaVuSans-76" transform="translate(828.271484 0)"/>
     <use xlink:href="#DejaVuSans-65" transform="translate(887.451172 0)"/>
     <use xlink:href="#DejaVuSans-72" transform="translate(948.974609 0)"/>
     <use xlink:href="#DejaVuSans-20" transform="translate(990.087891 0)"/>
     <use xlink:href="#DejaVuSans-32" transform="translate(1021.875 0)"/>
     <use xlink:href="#DejaVuSans-2e" transform="translate(1085.498047 0)"/>
     <use xlink:href="#DejaVuSans-33" transform="translate(1117.285156 0)"/>
    </g>
   </g>
   <g id="legend_1">
    <g id="patch_7">
     <path d="M 64.6 196.25325 
L 198.048438 196.25325 
Q 200.048438 196.25325 200.048438 194.25325 
L 200.048438 48.472 
Q 200.048438 46.472 198.048438 46.472 
L 64.6 46.472 
Q 62.6 46.472 62.6 48.472 
L 62.6 194.25325 
Q 62.6 196.25325 64.6 196.25325 
z
" style="fill: #ffffff; opacity: 0.8; stroke: #cccccc; stroke-linejoin: miter"/>
    </g>
    <g id="line2d_24">
     <path d="M 66.6 54.570437 
L 76.6 54.570437 
L 76.6 54.570437 
L 86.6 54.570437 
L 86.6 54.570437 
" style="fill: none; stroke: #1f77b4; stroke-width: 1.5; stroke-linecap: square"/>
    </g>
    <g id="text_15">
     <!-- baseline -->
     <g transform="translate(94.6 58.070437) scale(0.1 -0.1)">
      <defs>
       <path id="DejaVuSans-62" d="M 3116 1747 
Q 3116 2381 2855 2742 
Q 2594 3103 2138 3103 
Q 1681 3103 1420 2742 
Q 1159 2381 1159 1747 
Q 1159 1113 1420 752 
Q 1681 391 2138 391 
Q 2594 391 2855 752 
Q 3116 1113 3116 1747 
z
M 1159 2969 
Q 1341 3281 1617 3432 
Q 1894 3584 2278 3584 
Q 2916 3584 3314 3078 
Q 3713 2572 3713 1747 
Q 3713 922 3314 415 
Q 2916 -91 2278 -91 
Q 1894 -91 1617 61 
Q 1341 213 1159 525 
L 1159 0 
L 581 0 
L 581 4863 
L 1159 4863 
L 1159 2969 
z
" transform="scale(0.015625)"/>
       <path id="DejaVuSans-6c" d="M 603 4863 
L 1178 4863 
L 1178 0 
L 603 0 
L 603 4863 
z
" transform="scale(0.015625)"/>
      </defs>
      <use xlink:href="#DejaVuSans-62"/>
      <use xlink:href="#DejaVuSans-61" transform="translate(63.476562 0)"/>
      <use xlink:href="#DejaVuSans-73" transform="translate(124.755859 0)"/>
      <use xlink:href="#DejaVuSans-65" transform="translate(176.855469 0)"/>
      <use xlink:href="#DejaVuSans-6c" transform="translate(238.378906 0)"/>
      <use xlink:href="#DejaVuSans-69" transform="translate(266.162109 0)"/>
      <use xlink:href="#DejaVuSans-6e" transform="translate(293.945312 0)"/>
      <use xlink:href="#DejaVuSans-65" transform="translate(357.324219 0)"/>
     </g>
    </g>
    <g id="line2d_25">
     <path d="M 66.6 69.248562 
L 76.6 69.248562 
L 76.6 69.248562 
L 86.6 69.248562 
L 86.6 69.248562 
" style="fill: none; stroke: #ff7f0e; stroke-width: 1.5; stroke-linecap: square"/>
    </g>
    <g id="text_16">
     <!-- overhead -->
     <g transform="translate(94.6 72.748562) scale(0.1 -0.1)">
      <defs>
       <path id="DejaVuSans-68" d="M 3513 2113 
L 3513 0 
L 2938 0 
L 2938 2094 
Q 2938 2591 2744 2837 
Q 2550 3084 2163 3084 
Q 1697 3084 1428 2787 
Q 1159 2491 1159 1978 
L 1159 0 
L 581 0 
L 581 4863 
L 1159 4863 
L 1159 2956 
Q 1366 3272 1645 3428 
Q 1925 3584 2291 3584 
Q 2894 3584 3203 3211 
Q 3513 2838 3513 2113 
z
" transform="scale(0.015625)"/>
      </defs>
      <use xlink:href="#DejaVuSans-6f"/>
      <use xlink:href="#DejaVuSans-76" transform="translate(61.181641 0)"/>
      <use xlink:href="#DejaVuSans-65" transform="translate(120.361328 0)"/>
      <use xlink:href="#DejaVuSans-72" transform="translate(181.884766 0)"/>
      <use xlink:href="#DejaVuSans-68" transform="translate(221.248047 0)"/>
      <use xlink:href="#DejaVuSans-65" transform="translate(284.626953 0)"/>
      <use xlink:href="#DejaVuSans-61" transform="translate(346.150391 0)"/>
      <use xlink:href="#DejaVuSans-64" transform="translate(407.429688 0)"/>
     </g>
    </g>
    <g id="line2d_26">
     <path d="M 66.6 83.926688 
L 76.6 83.926688 
L 76.6 83.926688 
L 86.6 83.926688 
L 86.6 83.926688 
" style="fill: none; stroke: #2ca02c; stroke-width: 1.5; stroke-linecap: square"/>
    </g>
    <g id="text_17">
     <!-- interval-100-once -->
     <g transform="translate(94.6 87.426688) scale(0.1 -0.1)">
      <defs>
       <path id="DejaVuSans-2d" d="M 313 2009 
L 1997 2009 
L 1997 1497 
L 313 1497 
L 313 2009 
z
" transform="scale(0.015625)"/>
      </defs>
      <use xlink:href="#DejaVuSans-69"/>
      <use xlink:href="#DejaVuSans-6e" transform="translate(27.783203 0)"/>
      <use xlink:href="#DejaVuSans-74" transform="translate(91.162109 0)"/>
      <use xlink:href="#DejaVuSans-65" transform="translate(130.371094 0)"/>
      <use xlink:href="#DejaVuSans-72" transform="translate(191.894531 0)"/>
      <use xlink:href="#DejaVuSans-76" transform="translate(233.007812 0)"/>
      <use xlink:href="#DejaVuSans-61" transform="translate(292.1875 0)"/>
      <use xlink:href="#DejaVuSans-6c" transform="translate(353.466797 0)"/>
      <use xlink:href="#DejaVuSans-2d" transform="translate(381.25 0)"/>
      <use xlink:href="#DejaVuSans-31" transform="translate(417.333984 0)"/>
      <use xlink:href="#DejaVuSans-30" transform="translate(480.957031 0)"/>
      <use xlink:href="#DejaVuSans-30" transform="translate(544.580078 0)"/>
      <use xlink:href="#DejaVuSans-2d" transform="translate(608.203125 0)"/>
      <use xlink:href="#DejaVuSans-6f" transform="translate(646.162109 0)"/>
      <use xlink:href="#DejaVuSans-6e" transform="translate(707.34375 0)"/>
      <use xlink:href="#DejaVuSans-63" transform="translate(770.722656 0)"/>
      <use xlink:href="#DejaVuSans-65" transform="translate(825.703125 0)"/>
     </g>
    </g>
    <g id="line2d_27">
     <path d="M 66.6 98.604812 
L 76.6 98.604812 
L 76.6 98.604812 
L 86.6 98.604812 
L 86.6 98.604812 
" style="fill: none; stroke: #d62728; stroke-width: 1.5; stroke-linecap: square"/>
    </g>
    <g id="text_18">
     <!-- interval-1000-once -->
     <g transform="translate(94.6 102.104812) scale(0.1 -0.1)">
      <use xlink:href="#DejaVuSans-69"/>
      <use xlink:href="#DejaVuSans-6e" transform="translate(27.783203 0)"/>
      <use xlink:href="#DejaVuSans-74" transform="translate(91.162109 0)"/>
      <use xlink:href="#DejaVuSans-65" transform="translate(130.371094 0)"/>
      <use xlink:href="#DejaVuSans-72" transform="translate(191.894531 0)"/>
      <use xlink:href="#DejaVuSans-76" transform="translate(233.007812 0)"/>
      <use xlink:href="#DejaVuSans-61" transform="translate(292.1875 0)"/>
      <use xlink:href="#DejaVuSans-6c" transform="translate(353.466797 0)"/>
      <use xlink:href="#DejaVuSans-2d" transform="translate(381.25 0)"/>
      <use xlink:href="#DejaVuSans-31" transform="translate(417.333984 0)"/>
      <use xlink:href="#DejaVuSans-30" transform="translate(480.957031 0)"/>
      <use xlink:href="#DejaVuSans-30" transform="translate(544.580078 0)"/>
      <use xlink:href="#DejaVuSans-30" transform="translate(608.203125 0)"/>
      <use xlink:href="#DejaVuSans-2d" transform="translate(671.826172 0)"/>
      <use xlink:href="#DejaVuSans-6f" transform="translate(709.785156 0)"/>
      <use xlink:href="#DejaVuSans-6e" transform="translate(770.966797 0)"/>
      <use xlink:href="#DejaVuSans-63" transform="translate(834.345703 0)"/>
      <use xlink:href="#DejaVuSans-65" transform="translate(889.326172 0)"/>
     </g>
    </g>
    <g id="line2d_28">
     <path d="M 66.6 113.282938 
L 76.6 113.282938 
L 76.6 113.282938 
L 86.6 113.282938 
L 86.6 113.282938 
" style="fill: none; stroke: #9467bd; stroke-width: 1.5; stroke-linecap: square"/>
    </g>
    <g id="text_19">
     <!-- interval-10000-once -->
     <g transform="translate(94.6 116.782938) scale(0.1 -0.1)">
      <use xlink:href="#DejaVuSans-69"/>
      <use xlink:href="#DejaVuSans-6e" transform="translate(27.783203 0)"/>
      <use xlink:href="#DejaVuSans-74" transform="translate(91.162109 0)"/>
      <use xlink:href="#DejaVuSans-65" transform="translate(130.371094 0)"/>
      <use xlink:href="#DejaVuSans-72" transform="translate(191.894531 0)"/>
      <use xlink:href="#DejaVuSans-76" transform="translate(233.007812 0)"/>
      <use xlink:href="#DejaVuSans-61" transform="translate(292.1875 0)"/>
      <use xlink:href="#DejaVuSans-6c" transform="translate(353.466797 0)"/>
      <use xlink:href="#DejaVuSans-2d" transform="translate(381.25 0)"/>
      <use xlink:href="#DejaVuSans-31" transform="translate(417.333984 0)"/>
      <use xlink:href="#DejaVuSans-30" transform="translate(480.957031 0)"/>
      <use xlink:href="#DejaVuSans-30" transform="translate(544.580078 0)"/>
      <use xlink:href="#DejaVuSans-30" transform="translate(608.203125 0)"/>
      <use xlink:href="#DejaVuSans-30" transform="translate(671.826172 0)"/>
      <use xlink:href="#DejaVuSans-2d" transform="translate(735.449219 0)"/>
      <use xlink:href="#DejaVuSans-6f" transform="translate(773.408203 0)"/>
      <use xlink:href="#DejaVuSans-6e" transform="translate(834.589844 0)"/>
      <use xlink:href="#DejaVuSans-63" transform="translate(897.96875 0)"/>
      <use xlink:href="#DejaVuSans-65" transform="translate(952.949219 0)"/>
     </g>
    </g>
    <g id="line2d_29">
     <path d="M 66.6 127.961062 
L 76.6 127.961062 
L 76.6 127.961062 
L 86.6 127.961062 
L 86.6 127.961062 
" style="fill: none; stroke: #8c564b; stroke-width: 1.5; stroke-linecap: square"/>
    </g>
    <g id="text_20">
     <!-- interval-2000-once -->
     <g transform="translate(94.6 131.461062) scale(0.1 -0.1)">
      <use xlink:href="#DejaVuSans-69"/>
      <use xlink:href="#DejaVuSans-6e" transform="translate(27.783203 0)"/>
      <use xlink:href="#DejaVuSans-74" transform="translate(91.162109 0)"/>
      <use xlink:href="#DejaVuSans-65" transform="translate(130.371094 0)"/>
      <use xlink:href="#DejaVuSans-72" transform="translate(191.894531 0)"/>
      <use xlink:href="#DejaVuSans-76" transform="translate(233.007812 0)"/>
      <use xlink:href="#DejaVuSans-61" transform="translate(292.1875 0)"/>
      <use xlink:href="#DejaVuSans-6c" transform="translate(353.466797 0)"/>
      <use xlink:href="#DejaVuSans-2d" transform="translate(381.25 0)"/>
      <use xlink:href="#DejaVuSans-32" transform="translate(417.333984 0)"/>
      <use xlink:href="#DejaVuSans-30" transform="translate(480.957031 0)"/>
      <use xlink:href="#DejaVuSans-30" transform="translate(544.580078 0)"/>
      <use xlink:href="#DejaVuSans-30" transform="translate(608.203125 0)"/>
      <use xlink:href="#DejaVuSans-2d" transform="translate(671.826172 0)"/>
      <use xlink:href="#DejaVuSans-6f" transform="translate(709.785156 0)"/>
      <use xlink:href="#DejaVuSans-6e" transform="translate(770.966797 0)"/>
      <use xlink:href="#DejaVuSans-63" transform="translate(834.345703 0)"/>
      <use xlink:href="#DejaVuSans-65" transform="translate(889.326172 0)"/>
     </g>
    </g>
    <g id="line2d_30">
     <path d="M 66.6 142.639187 
L 76.6 142.639187 
L 76.6 142.639187 
L 86.6 142.639187 
L 86.6 142.639187 
" style="fill: none; stroke: #e377c2; stroke-width: 1.5; stroke-linecap: square"/>
    </g>
    <g id="text_21">
     <!-- interval-20000-once -->
     <g transform="translate(94.6 146.139187) scale(0.1 -0.1)">
      <use xlink:href="#DejaVuSans-69"/>
      <use xlink:href="#DejaVuSans-6e" transform="translate(27.783203 0)"/>
      <use xlink:href="#DejaVuSans-74" transform="translate(91.162109 0)"/>
      <use xlink:href="#DejaVuSans-65" transform="translate(130.371094 0)"/>
      <use xlink:href="#DejaVuSans-72" transform="translate(191.894531 0)"/>
      <use xlink:href="#DejaVuSans-76" transform="translate(233.007812 0)"/>
      <use xlink:href="#DejaVuSans-61" transform="translate(292.1875 0)"/>
      <use xlink:href="#DejaVuSans-6c" transform="translate(353.466797 0)"/>
      <use xlink:href="#DejaVuSans-2d" transform="translate(381.25 0)"/>
      <use xlink:href="#DejaVuSans-32" transform="translate(417.333984 0)"/>
      <use xlink:href="#DejaVuSans-30" transform="translate(480.957031 0)"/>
      <use xlink:href="#DejaVuSans-30" transform="translate(544.580078 0)"/>
      <use xlink:href="#DejaVuSans-30" transform="translate(608.203125 0)"/>
      <use xlink:href="#DejaVuSans-30" transform="translate(671.826172 0)"/>
      <use xlink:href="#DejaVuSans-2d" transform="translate(735.449219 0)"/>
      <use xlink:href="#DejaVuSans-6f" transform="translate(773.408203 0)"/>
      <use xlink:href="#DejaVuSans-6e" transform="translate(834.589844 0)"/>
      <use xlink:href="#DejaVuSans-63" transform="translate(897.96875 0)"/>
      <use xlink:href="#DejaVuSans-65" transform="translate(952.949219 0)"/>
     </g>
    </g>
    <g id="line2d_31">
     <path d="M 66.6 157.317312 
L 76.6 157.317312 
L 76.6 157.317312 
L 86.6 157.317312 
L 86.6 157.317312 
" style="fill: none; stroke: #7f7f7f; stroke-width: 1.5; stroke-linecap: square"/>
    </g>
    <g id="text_22">
     <!-- interval-5000-once -->
     <g transform="translate(94.6 160.817312) scale(0.1 -0.1)">
      <use xlink:href="#DejaVuSans-69"/>
      <use xlink:href="#DejaVuSans-6e" transform="translate(27.783203 0)"/>
      <use xlink:href="#DejaVuSans-74" transform="translate(91.162109 0)"/>
      <use xlink:href="#DejaVuSans-65" transform="translate(130.371094 0)"/>
      <use xlink:href="#DejaVuSans-72" transform="translate(191.894531 0)"/>
      <use xlink:href="#DejaVuSans-76" transform="translate(233.007812 0)"/>
      <use xlink:href="#DejaVuSans-61" transform="translate(292.1875 0)"/>
      <use xlink:href="#DejaVuSans-6c" transform="translate(353.466797 0)"/>
      <use xlink:href="#DejaVuSans-2d" transform="translate(381.25 0)"/>
      <use xlink:href="#DejaVuSans-35" transform="translate(417.333984 0)"/>
      <use xlink:href="#DejaVuSans-30" transform="translate(480.957031 0)"/>
      <use xlink:href="#DejaVuSans-30" transform="translate(544.580078 0)"/>
      <use xlink:href="#DejaVuSans-30" transform="translate(608.203125 0)"/>
      <use xlink:href="#DejaVuSans-2d" transform="translate(671.826172 0)"/>
      <use xlink:href="#DejaVuSans-6f" transform="translate(709.785156 0)"/>
      <use xlink:href="#DejaVuSans-6e" transform="translate(770.966797 0)"/>
      <use xlink:href="#DejaVuSans-63" transform="translate(834.345703 0)"/>
      <use xlink:href="#DejaVuSans-65" transform="translate(889.326172 0)"/>
     </g>
    </g>
    <g id="line2d_32">
     <path d="M 66.6 171.995437 
L 76.6 171.995437 
L 76.6 171.995437 
L 86.6 171.995437 
L 86.6 171.995437 
" style="fill: none; stroke: #bcbd22; stroke-width: 1.5; stroke-linecap: square"/>
    </g>
    <g id="text_23">
     <!-- metadata-once -->
     <g transform="translate(94.6 175.495437) scale(0.1 -0.1)">
      <defs>
       <path id="DejaVuSans-6d" d="M 3328 2828 
Q 3544 3216 3844 3400 
Q 4144 3584 4550 3584 
Q 5097 3584 5394 3201 
Q 5691 2819 5691 2113 
L 5691 0 
L 5113 0 
L 5113 2094 
Q 5113 2597 4934 2840 
Q 4756 3084 4391 3084 
Q 3944 3084 3684 2787 
Q 3425 2491 3425 1978 
L 3425 0 
L 2847 0 
L 2847 2094 
Q 2847 2600 2669 2842 
Q 2491 3084 2119 3084 
Q 1678 3084 1418 2786 
Q 1159 2488 1159 1978 
L 1159 0 
L 581 0 
L 581 3500 
L 1159 3500 
L 1159 2956 
Q 1356 3278 1631 3431 
Q 1906 3584 2284 3584 
Q 2666 3584 2933 3390 
Q 3200 3197 3328 2828 
z
" transform="scale(0.015625)"/>
      </defs>
      <use xlink:href="#DejaVuSans-6d"/>
      <use xlink:href="#DejaVuSans-65" transform="translate(97.412109 0)"/>
      <use xlink:href="#DejaVuSans-74" transform="translate(158.935547 0)"/>
      <use xlink:href="#DejaVuSans-61" transform="translate(198.144531 0)"/>
      <use xlink:href="#DejaVuSans-64" transform="translate(259.423828 0)"/>
      <use xlink:href="#DejaVuSans-61" transform="translate(322.900391 0)"/>
      <use xlink:href="#DejaVuSans-74" transform="translate(384.179688 0)"/>
      <use xlink:href="#DejaVuSans-61" transform="translate(423.388672 0)"/>
      <use xlink:href="#DejaVuSans-2d" transform="translate(484.667969 0)"/>
      <use xlink:href="#DejaVuSans-6f" transform="translate(522.626953 0)"/>
      <use xlink:href="#DejaVuSans-6e" transform="translate(583.808594 0)"/>
      <use xlink:href="#DejaVuSans-63" transform="translate(647.1875 0)"/>
      <use xlink:href="#DejaVuSans-65" transform="translate(702.167969 0)"/>
     </g>
    </g>
    <g id="line2d_33">
     <path d="M 66.6 186.673562 
L 76.6 186.673562 
L 76.6 186.673562 
L 86.6 186.673562 
L 86.6 186.673562 
" style="fill: none; stroke: #17becf; stroke-width: 1.5; stroke-linecap: square"/>
    </g>
    <g id="text_24">
     <!-- metadata-unlimited -->
     <g transform="translate(94.6 190.173562) scale(0.1 -0.1)">
      <defs>
       <path id="DejaVuSans-75" d="M 544 1381 
L 544 3500 
L 1119 3500 
L 1119 1403 
Q 1119 906 1312 657 
Q 1506 409 1894 409 
Q 2359 409 2629 706 
Q 2900 1003 2900 1516 
L 2900 3500 
L 3475 3500 
L 3475 0 
L 2900 0 
L 2900 538 
Q 2691 219 2414 64 
Q 2138 -91 1772 -91 
Q 1169 -91 856 284 
Q 544 659 544 1381 
z
M 1991 3584 
L 1991 3584 
z
" transform="scale(0.015625)"/>
      </defs>
      <use xlink:href="#DejaVuSans-6d"/>
      <use xlink:href="#DejaVuSans-65" transform="translate(97.412109 0)"/>
      <use xlink:href="#DejaVuSans-74" transform="translate(158.935547 0)"/>
      <use xlink:href="#DejaVuSans-61" transform="translate(198.144531 0)"/>
      <use xlink:href="#DejaVuSans-64" transform="translate(259.423828 0)"/>
      <use xlink:href="#DejaVuSans-61" transform="translate(322.900391 0)"/>
      <use xlink:href="#DejaVuSans-74" transform="translate(384.179688 0)"/>
      <use xlink:href="#DejaVuSans-61" transform="translate(423.388672 0)"/>
      <use xlink:href="#DejaVuSans-2d" transform="translate(484.667969 0)"/>
      <use xlink:href="#DejaVuSans-75" transform="translate(520.751953 0)"/>
      <use xlink:href="#DejaVuSans-6e" transform="translate(584.130859 0)"/>
      <use xlink:href="#DejaVuSans-6c" transform="translate(647.509766 0)"/>
      <use xlink:href="#DejaVuSans-69" transform="translate(675.292969 0)"/>
      <use xlink:href="#DejaVuSans-6d" transform="translate(703.076172 0)"/>
      <use xlink:href="#DejaVuSans-69" transform="translate(800.488281 0)"/>
      <use xlink:href="#DejaVuSans-74" transform="translate(828.271484 0)"/>
      <use xlink:href="#DejaVuSans-65" transform="translate(867.480469 0)"/>
      <use xlink:href="#DejaVuSans-64" transform="translate(929.003906 0)"/>
     </g>
    </g>
   </g>
  </g>
 </g>
 <defs>
  <clipPath id="pb1497c40ce">
   <rect x="57.6" y="41.472" width="357.12" height="266.112"/>
  </clipPath>
 </defs>
</svg>
